ply
format ascii 1.0
comment PCL generated
element vertex 1325
property float x
property float y
property float z
element camera 1
property float view_px
property float view_py
property float view_pz
property float x_axisx
property float x_axisy
property float x_axisz
property float y_axisx
property float y_axisy
property float y_axisz
property float z_axisx
property float z_axisy
property float z_axisz
property float focal
property float scalex
property float scaley
property float centerx
property float centery
property int viewportx
property int viewporty
property float k1
property float k2
end_header
0.027955793 -0.070964701 0.0053023398
0.027587065 -0.067435049 0.0053606331
0.02724937 -0.064230658 0.0052223206
0.028286222 -0.064375542 0.0052244961
0.029130664 -0.064087458 0.0051166713
0.025124904 -0.068046615 0.005440861
0.026137428 -0.067957312 0.0055197179
0.025669143 -0.064172857 0.0060712993
0.026070045 -0.062761225 0.0062778294
0.026510842 -0.061543025 0.0067817271
0.02758307 -0.061824121 0.0069415569
0.027908169 -0.060467701 0.0067947507
0.029767826 -0.062416412 0.0059467852
0.020264722 -0.061759152 0.0056486428
0.021452835 -0.062408246 0.0057952106
0.022462565 -0.06250453 0.0063785911
0.023842612 -0.063580297 0.0062822402
0.024508795 -0.062742516 0.0068714917
0.025169278 -0.061955146 0.0075269938
0.025821496 -0.061206512 0.0087487996
0.026829386 -0.061324313 0.01022014
0.027960483 -0.061705895 0.010265917
0.028054433 -0.059849456 0.0098600686
0.02932837 -0.060548894 0.0087157488
0.030031677 -0.060063355 0.0065736473
0.017736563 -0.062077973 0.0058187842
0.01809359 -0.059994534 0.0065788031
0.020401832 -0.064265773 0.0065547824
0.019718733 -0.059156198 0.0073070526
0.022350578 -0.064003922 0.0074058771
0.023698729 -0.064913906 0.0090487897
0.02344941 -0.0615547 0.010178357
0.024006568 -0.06049655 0.010235339
0.024378492 -0.059070963 0.010502994
0.026033526 -0.060744893 0.011936873
0.027358703 -0.061557084 0.011983186
0.02735709 -0.05943092 0.011870563
0.028369933 -0.059576862 0.01169771
0.029180234 -0.059301767 0.010847926
0.030055465 -0.059171695 0.0092121959
0.033425014 -0.063811392 0.0067816973
0.017639922 -0.07291168 0.0055957437
0.01649653 -0.063924052 0.0082333088
0.015776083 -0.057536304 0.0090634227
0.016790949 -0.05783549 0.010176718
0.017771427 -0.057990968 0.010474384
0.02046671 -0.063446797 0.010404646
0.023920892 -0.070623584 0.010842234
0.0210671 -0.059370916 0.011549681
0.022185184 -0.059803542 0.011943787
0.023340374 -0.060295966 0.012067974
0.02315161 -0.057415996 0.012512743
0.025007438 -0.059633121 0.012920052
0.025243334 -0.057966176 0.013591588
0.026121089 -0.057839554 0.013634294
0.027230589 -0.058217119 0.013634294
0.0280005 -0.057867702 0.013411283
0.029220058 -0.058440115 0.011905789
0.029863499 -0.057860527 0.01058504
0.029583108 -0.055580385 0.008919239
0.037005585 -0.067480773 0.0050960481
0.014851959 -0.069689967 0.007327199
0.015129182 -0.065920003 0.011351705
0.013956654 -0.056757059 0.01205349
0.014903183 -0.056818388 0.015438676
0.015888855 -0.057012949 0.01539883
0.016984809 -0.057559632 0.013334721
0.017720642 -0.056892589 0.01324591
0.01895391 -0.057809427 0.013536811
0.020261729 -0.0588555 0.013664007
0.021455143 -0.059489261 0.013710231
0.022509737 -0.059699737 0.013912976
0.023244292 -0.059079241 0.014209867
0.024774315 -0.060449328 0.015272766
0.024198726 -0.056773935 0.015269607
0.025135158 -0.056786839 0.015664577
0.026646724 -0.058051791 0.015708685
0.027452618 -0.057745162 0.015708685
0.027893109 -0.056715991 0.015383065
0.029749032 -0.058538418 0.013288826
0.029914092 -0.057023741 0.012125254
0.030668471 -0.056690205 0.010323018
0.033146694 -0.059469067 0.0067470074
0.012370302 -0.06747438 0.0059818029
0.01290077 -0.064503849 0.010310143
0.012564691 -0.057990879 0.01468882
0.012908054 -0.055320229 0.016733021
0.014130051 -0.056520205 0.017333865
0.014865168 -0.05574438 0.017803282
0.015699524 -0.055410091 0.017205864
0.017036254 -0.056787513 0.017527252
0.017793404 -0.056189697 0.017205864
0.018270236 -0.054810707 0.017242283
0.021044642 -0.060127549 0.017696053
0.021459214 -0.058525134 0.017364442
0.021997998 -0.057386078 0.017375439
0.023061963 -0.057654906 0.017060041
0.023453956 -0.056289498 0.017204404
0.024287129 -0.056047224 0.017064661
0.025902858 -0.057561904 0.017359823
0.026321813 -0.056403887 0.017550856
0.027137278 -0.056146093 0.017055571
0.028093418 -0.056186836 0.016786605
0.029284129 -0.056678958 0.013990879
0.02954297 -0.05539307 0.012773722
0.031563651 -0.057388458 0.010763735
0.031537503 -0.055654418 0.0072649717
0.010257366 -0.067242734 0.0051407516
0.011155891 -0.065819755 0.0091230571
0.010935917 -0.058656283 0.013276458
0.011393741 -0.056019224 0.016611576
0.012009881 -0.054506384 0.017452329
0.012885761 -0.054304276 0.019434243
0.014124462 -0.055556219 0.019482076
0.014763756 -0.054441348 0.019756377
0.016190743 -0.056191403 0.019216061
0.016869657 -0.055294987 0.019521981
0.017508894 -0.054369722 0.019174337
0.018636219 -0.054976847 0.019362032
0.019716255 -0.05539329 0.019858181
0.02085707 -0.055934869 0.019681126
0.021286003 -0.054603226 0.018038213
0.023070592 -0.056715209 0.017872304
0.023187807 -0.054723226 0.017833054
0.025293531 -0.057396859 0.017727911
0.025157806 -0.054974463 0.0178141
0.0263301 -0.055481285 0.01796031
0.027586266 -0.056123786 0.017574728
0.028375596 -0.055805337 0.017243803
0.029191662 -0.055558324 0.014440328
0.030263443 -0.055798225 0.012773722
0.030642016 -0.054784212 0.010323018
0.032230496 -0.055929389 0.0072067678
0.0090051852 -0.065287597 0.0064639151
0.0091612786 -0.059039351 0.011684537
0.0090904012 -0.052724328 0.015851945
0.010085861 -0.053179998 0.017377198
0.011378249 -0.05499487 0.018986493
0.012059545 -0.053804126 0.019543797
0.01329719 -0.055088356 0.020226806
0.014074046 -0.054419644 0.021012336
0.015099486 -0.054735638 0.02086097
0.015998103 -0.054581758 0.02074334
0.016557235 -0.053351093 0.021022618
0.01797449 -0.054869495 0.020783186
0.018728405 -0.054312378 0.020750076
0.019090027 -0.052724835 0.021038264
0.021078914 -0.055571686 0.020750076
0.021419929 -0.054015473 0.020358682
0.022826621 -0.055164337 0.019976795
0.023679879 -0.054937318 0.018919379
0.024425618 -0.054487921 0.018112391
0.025086854 -0.053890277 0.017833054
0.026394377 -0.054674063 0.017941356
0.027085535 -0.05417107 0.017076463
0.028315071 -0.05474247 0.015749931
0.029643092 -0.055461269 0.013505995
0.029617935 -0.053682506 0.0114775
0.031819504 -0.055925187 0.0095053017
0.033063773 -0.056402907 0.0060818195
0.0054300399 -0.061902456 0.0051188171
0.0066397232 -0.063077368 0.0064823925
0.0076309075 -0.062137388 0.01078406
0.0076437672 -0.054461841 0.014988571
0.0082485173 -0.052240606 0.017169565
0.0093532708 -0.053313643 0.017490983
0.010145911 -0.052574266 0.019586354
0.011180005 -0.053105023 0.019914031
0.012367982 -0.054228842 0.020561635
0.013086401 -0.053280346 0.021704733
0.014239037 -0.05410834 0.021907657
0.014860565 -0.052940764 0.02152878
0.015777379 -0.052900627 0.021378696
0.016785802 -0.053155042 0.021463692
0.017631905 -0.052895714 0.021374911
0.018517489 -0.052774839 0.021150619
0.020003017 -0.054293904 0.021267742
0.020840326 -0.053995393 0.021040112
0.021577535 -0.053474758 0.020540565
0.022572238 -0.053609066 0.020139813
0.02332828 -0.053188477 0.018928111
0.02405525 -0.052736513 0.017985135
0.025841214 -0.054553673 0.017529964
0.026509553 -0.053965874 0.017529964
0.027014468 -0.053097401 0.015704542
0.028544135 -0.05423386 0.014441073
0.029203828 -0.053697363 0.012773722
0.031206848 -0.055587199 0.010483533
0.031738799 -0.054821562 0.0073340237
0.0045644143 -0.063901797 0.0056783259
0.0052606263 -0.058919016 0.010642409
0.0057587712 -0.053748533 0.01468426
0.0066274665 -0.053019732 0.017072111
0.0074428055 -0.052099638 0.017642021
0.008325018 -0.051800113 0.018986493
0.0093859052 -0.052561071 0.019719213
0.010303722 -0.05245531 0.020308226
0.011191385 -0.052226465 0.020946741
0.011951271 -0.051482398 0.021739483
0.013229254 -0.052917015 0.022041142
0.013922684 -0.051978022 0.021796674
0.014832871 -0.05191505 0.02170524
0.015914565 -0.052424449 0.021530807
0.01697268 -0.052803893 0.021600455
0.017511146 -0.0516118 0.021611452
0.018795654 -0.052627835 0.021567255
0.019657534 -0.052420087 0.021548748
0.020288382 -0.051643156 0.021311134
0.022167332 -0.053972635 0.02083838
0.021824306 -0.050923381 0.020358801
0.02337932 -0.05236968 0.018933237
0.024294831 -0.052327327 0.017929405
0.025789699 -0.053489745 0.017506659
0.026777748 -0.053555496 0.015857905
0.02769218 -0.053474553 0.014276773
0.028095031 -0.052444059 0.013418108
0.029621096 -0.053509075 0.011820436
0.030811634 -0.053920358 0.0092158914
0.030960567 -0.052539144 0.0059386492
0.00230713 -0.063446075 0.0053150356
0.0034109212 -0.062533557 0.0085429251
0.0037966541 -0.052203991 0.013864338
0.0046344902 -0.050979391 0.017250627
0.0055882493 -0.051225618 0.01832816
0.0065521975 -0.051481549 0.01850763
0.007551719 -0.051918067 0.019669384
0.0084294425 -0.051513262 0.020200491
0.0094063049 -0.051734678 0.020687878
0.010379088 -0.05189544 0.021352738
0.011439499 -0.052431036 0.021567881
0.012113144 -0.051247917 0.022034734
0.013319194 -0.052325405 0.022019714
0.013851875 -0.050790213 0.021882325
0.01509927 -0.051903743 0.02181071
0.015965777 -0.051653985 0.021725059
0.016946925 -0.051782273 0.021598995
0.017815819 -0.051572107 0.021886408
0.018697662 -0.051418573 0.02184248
0.019214746 -0.050324336 0.02176246
0.020495126 -0.051237818 0.021548748
0.021423725 -0.051230647 0.021298707
0.023494922 -0.053842526 0.020712763
0.023953225 -0.052697096 0.020249724
0.024128012 -0.051040027 0.018484682
0.025271844 -0.051479682 0.017506659
0.027639814 -0.054292493 0.015713096
0.027308872 -0.051792689 0.013746351
0.028739385 -0.052688871 0.012765557
0.030162564 -0.053514227 0.009600848
0.030429753 -0.052301139 0.0067333877
0.032833256 -0.054722093 0.005022049
0 -0.060087595 0.0053026974
0.0011343628 -0.061255593 0.0072503984
0.002105148 -0.056838997 0.012271225
0.0027459853 -0.049427737 0.017661721
0.0036956011 -0.049890615 0.018341303
0.0047022412 -0.050784208 0.019968063
0.0055521959 -0.049969763 0.020348996
0.0066171917 -0.051046908 0.020496815
0.007437862 -0.050205566 0.020778775
0.0083649578 -0.050189745 0.020778775
0.0094960984 -0.05127893 0.021514803
0.010252045 -0.050328221 0.021862924
0.011416414 -0.051373862 0.022105306
0.012140368 -0.050429221 0.022273421
0.013000669 -0.050145436 0.022206426
0.014057736 -0.050607849 0.022149175
0.014985677 -0.050576661 0.021982908
0.015717782 -0.049927071 0.021866024
0.017148983 -0.051446952 0.021915793
0.017785046 -0.05054697 0.02202183
0.018751692 -0.050629571 0.022024602
0.019757051 -0.050803848 0.022024035
0.020832971 -0.051135477 0.021721005
0.0211528 -0.049663093 0.021328479
0.02323572 -0.05228037 0.020783275
0.023595028 -0.050965261 0.019912094
0.024228213 -0.050320137 0.017854124
0.025546625 -0.051093251 0.016009986
0.02670614 -0.051504698 0.014177024
0.027373021 -0.050970454 0.013004631
0.029719116 -0.053494409 0.011120409
0.029818721 -0.051942289 0.0069264472
0.031293601 -0.052807949 0.0055188239
-0.0011406137 -0.060452525 0.0062742233
0 -0.057171028 0.011679024
0.00093608821 -0.049612675 0.017706782
0.0018213326 -0.048265312 0.018913537
0.0027628539 -0.048810415 0.019955069
0.003763678 -0.049868733 0.020379275
0.0046410896 -0.04919555 0.020529121
0.005624325 -0.049681537 0.020886213
0.0065934365 -0.049921732 0.021013111
0.0075194044 -0.049816053 0.021510422
0.0086612236 -0.05100498 0.021490961
0.0092848809 -0.049209867 0.021654546
0.010179864 -0.049048435 0.02197054
0.011390327 -0.050307281 0.022008359
0.012036866 -0.049073376 0.021967649
0.013207261 -0.049998917 0.02184251
0.014166714 -0.050055724 0.02184397
0.014762844 -0.048901923 0.02170676
0.015924055 -0.04964558 0.021642178
0.016725229 -0.049246505 0.021598995
0.017533241 -0.048908513 0.021770179
0.018681446 -0.049505834 0.02194804
0.019726761 -0.049786586 0.02184397
0.02062588 -0.049689617 0.021617442
0.021388274 -0.049286023 0.021125793
0.022179155 -0.048978969 0.020522833
0.024232628 -0.051373173 0.0197106
0.024910161 -0.050778404 0.017506659
0.02616114 -0.051353347 0.014315099
0.0269501 -0.051012691 0.013004631
0.028179126 -0.051499784 0.011417747
0.028981391 -0.051200461 0.008549422
0.029996397 -0.05128416 0.0059497356
0.032184623 -0.053305782 0.0050376654
-0.0035059459 -0.060769729 0.0058097243
-0.0021624148 -0.056222782 0.0094670355
-0.00095255632 -0.049532928 0.016445994
0 -0.048499886 0.018854171
0.00091751124 -0.047710583 0.019993067
0.0018737677 -0.048717961 0.020584494
0.0028040253 -0.048603106 0.020561278
0.0037569024 -0.048839733 0.020932168
0.0046542496 -0.048404198 0.021343201
0.0056434115 -0.048909567 0.021178514
0.006540203 -0.048584364 0.021183491
0.0075999396 -0.049399607 0.021582812
0.0084079932 -0.048579514 0.021513253
0.0093642035 -0.048693862 0.021784872
0.010509714 -0.049682286 0.021912158
0.011317379 -0.049041975 0.022069037
0.012177973 -0.048711892 0.022252381
0.013132395 -0.048777469 0.022007883
0.014264656 -0.049450807 0.021922976
0.015088468 -0.04903752 0.02174139
0.01611577 -0.049295295 0.021746606
0.016785713 -0.048492059 0.021745116
0.017942924 -0.049106952 0.02188462
0.018613504 -0.048395112 0.022007436
0.019710401 -0.048806708 0.022024035
0.020453434 -0.048344482 0.021617442
0.021801392 -0.049290102 0.020997375
0.022294771 -0.048305336 0.020388484
0.023883222 -0.0496771 0.018825799
0.026000043 -0.052000087 0.015713096
0.025490006 -0.049091864 0.013109803
0.02784084 -0.051704418 0.011417747
0.028819473 -0.051676299 0.0088782012
0.030294616 -0.052510668 0.0068536699
-0.0056641847 -0.057774685 0.0057241321
-0.0044790586 -0.057107992 0.0094988346
-0.0029684284 -0.050463285 0.012716115
-0.0018474492 -0.047109954 0.018152416
-0.00093013328 -0.047436796 0.019245386
0 -0.047272187 0.020477414
0.00093287614 -0.047576685 0.020893663
0.0018606147 -0.047445677 0.020884395
0.0027797245 -0.047255315 0.020886213
0.0037942294 -0.048376426 0.021564484
0.0047185794 -0.04812951 0.021276563
0.0056207795 -0.047776625 0.021209508
0.0066306856 -0.048309281 0.021238297
0.0074517899 -0.047505163 0.021448493
0.0083789807 -0.047480892 0.021211088
0.009402045 -0.047950432 0.021472603
0.010244389 -0.047496714 0.021823764
0.011256048 -0.047838204 0.021684915
0.012194685 -0.047840688 0.021551371
0.013186213 -0.048035488 0.021664172
0.013901136 -0.047263861 0.021486312
0.014843986 -0.047315206 0.021521479
0.015628282 -0.046884842 0.021593273
0.016865831 -0.047786519 0.021715432
0.01779267 -0.047759272 0.021800756
0.018430991 -0.04699903 0.021906316
0.019958515 -0.04847068 0.021701068
0.020788295 -0.048191048 0.021441638
0.021138143 -0.046871532 0.020712763
0.022378137 -0.047553543 0.020056039
0.023474302 -0.047887575 0.018546075
0.024366705 -0.047796227 0.01396811
0.026572254 -0.050192036 0.012217075
0.027206093 -0.049553953 0.0090758204
0.027763732 -0.048825875 0.0073166788
0.029173531 -0.049595002 0.0053866208
-0.0078222733 -0.055873383 0.0055272281
-0.0066963006 -0.055802505 0.0080020726
-0.005265322 -0.05265322 0.011561215
-0.0037913085 -0.047391355 0.016170144
-0.0028023992 -0.046706654 0.018296719
-0.0018834122 -0.047085308 0.019697368
-0.00093525363 -0.046762679 0.020579427
0 -0.046963982 0.020905375
0.00093763095 -0.046881545 0.021028697
0.0018729279 -0.046823196 0.020998925
0.0028380579 -0.047300965 0.021475136
0.0037469342 -0.046836678 0.02161774
0.0046969461 -0.046969462 0.021484226
0.0056182221 -0.046818517 0.021389097
0.0066324007 -0.047374289 0.021404505
0.0074459407 -0.046537131 0.021430016
0.0086186631 -0.047881458 0.021212131
0.0093788961 -0.04689448 0.021486431
0.010359677 -0.047089443 0.021761388
0.01135549 -0.047314543 0.021643162
0.012010944 -0.046195939 0.02149877
0.013070232 -0.0466794 0.021548748
0.014018088 -0.046726957 0.021460265
0.014739708 -0.046061587 0.021468431
0.015888136 -0.046729814 0.021650463
0.016907489 -0.046965249 0.02176246
0.017473383 -0.045982584 0.021895438
0.018685462 -0.046713654 0.021897763
0.019581433 -0.046622463 0.021688163
0.02067182 -0.046981409 0.021303415
0.021546835 -0.046840943 0.020756155
0.022379603 -0.046624172 0.019694507
0.022983048 -0.045966096 0.017697692
0.024244936 -0.046624877 0.012844384
0.028115915 -0.052066509 0.009932518
0.027093792 -0.048381772 0.0070715249
0.028343847 -0.048868701 0.0056245327
-0.010189538 -0.055476375 0.0050731599
-0.009093442 -0.055697329 0.0070738494
-0.0072390712 -0.0506735 0.0099552274
-0.0058215302 -0.047542498 0.013135433
-0.0045993915 -0.045074038 0.016729981
-0.0037483764 -0.045917612 0.018472016
-0.002834386 -0.046294969 0.019783139
-0.0018848652 -0.046179198 0.021015018
-0.00093628443 -0.045877937 0.021142215
0 -0.045666002 0.021410793
0.00093762559 -0.045943651 0.022032291
0.0018497525 -0.045318935 0.021804571
0.0028140869 -0.045963418 0.021646231
0.003771296 -0.046198376 0.02161774
0.0047277026 -0.046331484 0.021499872
0.0056097782 -0.045813188 0.021441638
0.0065274094 -0.045691866 0.021528006
0.0074771005 -0.04579724 0.021443456
0.0083728964 -0.04558577 0.021418244
0.0092015034 -0.045087367 0.02145052
0.010275832 -0.045774162 0.021551371
0.011192377 -0.045702204 0.021576881
0.01230868 -0.046394251 0.021897703
0.013222828 -0.046279896 0.0215846
0.01396866 -0.045630958 0.021576196
0.014968635 -0.045841441 0.021521479
0.015667506 -0.04515928 0.021533877
0.016523734 -0.044981278 0.021745116
0.017953388 -0.046300847 0.021672457
0.018639077 -0.045665737 0.021800756
0.019546797 -0.045609195 0.021701068
0.021145746 -0.047097344 0.021435857
0.022456562 -0.047842242 0.020586967
0.022588303 -0.046117786 0.019694507
0.023963954 -0.04696935 0.017694861
0.024146723 -0.045507286 0.012588859
0.025890766 -0.046986945 0.0090016723
0.02912163 -0.050962854 0.0068536699
-0.011459372 -0.055004984 0.005513519
-0.0098028155 -0.052281681 0.0069526434
-0.0076910704 -0.046146423 0.010214835
-0.0063920724 -0.043831352 0.014276713
-0.0055541187 -0.044432949 0.017200619
-0.004727344 -0.045382503 0.019296974
-0.003745161 -0.044941932 0.020450771
-0.0028197225 -0.04511556 0.020828813
-0.0018878914 -0.045309395 0.021123528
-0.00093322503 -0.044794802 0.021310002
0 -0.045169502 0.021217585
0.00094133313 -0.04518399 0.021843433
0.0018941096 -0.04545863 0.021526217
0.0027941188 -0.044705901 0.021207452
0.0037617423 -0.045140907 0.02142781
0.004669738 -0.044829484 0.021333784
0.0056232433 -0.044985946 0.021292061
0.0065862108 -0.045162588 0.021404505
0.00742386 -0.044543162 0.02142781
0.0085126683 -0.045400899 0.021190047
0.0094762417 -0.045485962 0.021435976
0.010085999 -0.044011634 0.021484226
0.011058425 -0.044233698 0.021544725
0.011994867 -0.044288736 0.021517545
0.013302001 -0.045606863 0.021659374
0.014272787 -0.045672916 0.021576196
0.015160458 -0.045481373 0.021499693
0.016295815 -0.046011709 0.021598279
0.017323764 -0.046196703 0.022091299
0.018071197 -0.045653552 0.021642864
0.018461056 -0.044306535 0.021650821
0.019725541 -0.04508695 0.021642864
0.020236228 -0.044151772 0.021543562
0.021139095 -0.04411637 0.0209907
0.023351878 -0.046703756 0.020036012
0.023957616 -0.045998622 0.016985565
0.023871204 -0.044069912 0.012191057
0.025051288 -0.044535626 0.0082554817
0.028201949 -0.048346199 0.0060407817
-0.012319493 -0.052637834 0.0056418478
-0.0097741084 -0.045938309 0.0072509646
-0.0081981942 -0.042812794 0.011325926
-0.0074705328 -0.043889381 0.016442418
-0.0066735661 -0.044808228 0.017641991
-0.0056801983 -0.04449489 0.019455642
-0.0047141537 -0.044313043 0.020297855
-0.0037772814 -0.044383056 0.020688087
-0.0027883973 -0.043684889 0.020817965
-0.0019048064 -0.04476295 0.021247089
-0.00093991408 -0.04417596 0.021250278
0 -0.043720499 0.021334708
0.00094863225 -0.044585716 0.021843433
0.0018715193 -0.043980703 0.021517366
0.0028207693 -0.044192053 0.021238863
0.003751433 -0.044079337 0.021292061
0.0046440475 -0.043654047 0.021276414
0.0055942456 -0.043821592 0.021264225
0.0064610704 -0.043381471 0.021231949
0.0073803207 -0.043359384 0.021266848
0.0083002253 -0.043345623 0.021076947
0.0094626686 -0.044474542 0.021308571
0.010417637 -0.044511724 0.021262169
0.011303916 -0.044273667 0.021419048
0.012134846 -0.043872137 0.021409094
0.012993836 -0.043622162 0.021331102
0.013971883 -0.043778569 0.02140671
0.014683572 -0.043132991 0.021420479
0.01585442 -0.043832809 0.02147761
0.017130531 -0.044729721 0.021544814
0.017418306 -0.043087389 0.021391183
0.019106137 -0.044899423 0.021448225
0.019671485 -0.044026658 0.021447778
0.020379132 -0.043537237 0.021116823
0.022204015 -0.045373421 0.020184308
0.022567187 -0.044194072 0.018312275
0.023980031 -0.045082457 0.016198128
0.026687896 -0.048243504 0.011933208
0.025121437 -0.043729909 0.0070658624
0.027471021 -0.046112072 0.0050685108
-0.011691961 -0.044819187 0.0051264763
-0.010286661 -0.043016948 0.0069173574
-0.0092101106 -0.042366508 0.011122435
-0.0085156057 -0.043524209 0.016168594
-0.007533256 -0.043316223 0.018371046
-0.0065445425 -0.043006994 0.020229131
-0.0056892075 -0.043617256 0.020862341
-0.0046734996 -0.042996198 0.020997167
-0.003755731 -0.043190908 0.021230638
-0.0028214324 -0.043261964 0.02146396
-0.0018731804 -0.04308315 0.021501392
-0.00092605141 -0.042598367 0.021563768
0 -0.043280013 0.021615207
0.00092080812 -0.042357173 0.021845579
0.0018713514 -0.043041084 0.021468133
0.0027998502 -0.042931035 0.021102607
0.0038106001 -0.043821901 0.021273792
0.0047073346 -0.043307479 0.021067977
0.0056668958 -0.043446202 0.021067977
0.0065240599 -0.042872392 0.021264225
0.0074991207 -0.043119945 0.021264225
0.0085117659 -0.043504585 0.021071166
0.0092771547 -0.042674914 0.021200985
0.010327556 -0.043187965 0.021404505
0.011191755 -0.042901725 0.021560013
0.012000668 -0.042463902 0.02153492
0.013359465 -0.043895382 0.021489769
0.014051044 -0.04308987 0.021444678
0.015207592 -0.043721829 0.021419585
0.015933765 -0.043114893 0.021559387
0.016700368 -0.042678721 0.021856427
0.017991778 -0.043559041 0.021404862
0.018775655 -0.043184008 0.021391183
0.019470267 -0.042649154 0.021447778
0.020535314 -0.042937476 0.021247596
0.022717303 -0.045434605 0.020196825
0.023172798 -0.044414528 0.018457949
0.02338163 -0.043022197 0.01418063
0.025806302 -0.045657303 0.0097255707
0.024728272 -0.042129647 0.0065489113
-0.01103783 -0.041391864 0.0058191419
-0.010093262 -0.041290618 0.0085240304
-0.0095090913 -0.042790912 0.015132785
-0.0084407404 -0.042203706 0.017641991
-0.0076086158 -0.042798463 0.019805759
-0.0065695168 -0.04223261 0.020751387
-0.0056136861 -0.042102646 0.021234542
-0.0046495781 -0.041846205 0.02126801
-0.0036946486 -0.041564796 0.021312058
-0.002893229 -0.043398436 0.021545619
-0.0018775128 -0.042244039 0.021563768
-0.00094778877 -0.042650495 0.021456987
0 -0.042414673 0.021322697
0.00096412888 -0.0433858 0.021684259
0.0018723913 -0.042128805 0.021017969
0.0027434279 -0.041151419 0.021010876
0.0036587995 -0.041161492 0.021107227
0.0046139131 -0.041525219 0.020900607
0.005620636 -0.04215477 0.020914227
0.0066305399 -0.042624898 0.021027178
0.0074413456 -0.041857567 0.021170586
0.0083162095 -0.041581046 0.021027178
0.00933294 -0.04199823 0.021309823
0.01035607 -0.042365737 0.021419048
0.011431281 -0.042867303 0.021811336
0.012268845 -0.042469081 0.021811336
0.013182484 -0.042372271 0.021559387
0.013858689 -0.041576065 0.021559387
0.015300717 -0.043033268 0.021563619
0.01570545 -0.041573249 0.021952122
0.016881842 -0.042204604 0.021911472
0.018142823 -0.042969845 0.02145052
0.018703224 -0.042082254 0.021460801
0.019603912 -0.042008381 0.021436185
0.020256098 -0.041432928 0.021348983
0.021224264 -0.041525733 0.02015084
0.026933366 -0.050500061 0.017368466
0.027129401 -0.048832923 0.012462229
0.026688304 -0.046191297 0.0073434114
0.024661776 -0.041102957 0.0052641928
-0.011199768 -0.041065812 0.0060754418
-0.010528663 -0.042114653 0.013358414
-0.009407565 -0.041393287 0.017150164
-0.0085561881 -0.041830253 0.018980086
-0.0076780804 -0.04222944 0.020134181
-0.0068376963 -0.042979803 0.020854443
-0.0057221185 -0.041962203 0.021231115
-0.0047707302 -0.041982424 0.021017462
-0.0037349924 -0.041084915 0.021295249
-0.002783563 -0.04082559 0.021319956
-0.0018579324 -0.040874515 0.021456987
-0.00093696231 -0.041226342 0.021312654
0 -0.041180868 0.021370977
0.00094946165 -0.041776314 0.021393269
0.0018615908 -0.040955 0.020995677
0.0028320348 -0.04153651 0.020919949
0.0038223006 -0.042045306 0.021026641
0.0046329428 -0.040769897 0.020900607
0.0056255492 -0.041254025 0.020946234
0.0066345669 -0.041702993 0.021200985
0.0074176574 -0.040797118 0.021309823
0.0087196743 -0.042629521 0.021404505
0.0093466118 -0.041125093 0.021544725
0.010259145 -0.04103658 0.021484226
0.011237065 -0.041202575 0.021618515
0.011854063 -0.040121444 0.021897703
0.012896215 -0.040530961 0.02164638
0.014074769 -0.041285988 0.021572798
0.014714328 -0.040464401 0.021558493
0.015923366 -0.041213416 0.021642864
0.016691543 -0.040801551 0.021488339
0.017424727 -0.040351998 0.021009386
0.018873043 -0.041520692 0.020926982
0.019728491 -0.041335888 0.020514786
0.020383907 -0.040767815 0.020319521
0.021366263 -0.040874589 0.01828602
0.022440961 -0.04114176 0.013792694
0.024116375 -0.042444818 0.010056823
0.023841547 -0.040347233 0.0062903166
-0.012152971 -0.043548148 0.0075305998
-0.010788362 -0.042172685 0.01607275
-0.0092736715 -0.039876785 0.017612785
-0.0084521361 -0.040382426 0.018963277
-0.0074904864 -0.040261362 0.020041168
-0.0065928902 -0.040499184 0.020854443
-0.0057295603 -0.041061848 0.021231115
-0.0047062072 -0.040473383 0.020952851
-0.0037704371 -0.040532198 0.021250427
-0.0028564245 -0.040942088 0.021118999
-0.0018865088 -0.040559936 0.021170408
-0.00092844665 -0.039923206 0.021160513
0 -0.040400509 0.021198511
0.00091545918 -0.039364748 0.021278054
0.0019054104 -0.040966325 0.020827293
0.0028359378 -0.040648442 0.020637572
0.0036492271 -0.039229192 0.020996809
0.0047430932 -0.040790603 0.020807534
0.005681274 -0.040715799 0.020827979
0.0065036993 -0.039951295 0.020954013
0.0075509609 -0.040586412 0.020996779
0.008380265 -0.040039048 0.020873427
0.0092194211 -0.039643511 0.021144331
0.010390108 -0.040615879 0.020866126
0.011420881 -0.040924825 0.021164417
0.011968405 -0.039587803 0.021446139
0.013471494 -0.041376732 0.021409094
0.014080561 -0.040364273 0.021377772
0.015187427 -0.04081621 0.02121523
0.015565388 -0.039371274 0.021481276
0.016853081 -0.040260136 0.021243662
0.017999079 -0.040734757 0.020805269
0.018463003 -0.039695457 0.020572603
0.019234069 -0.039384045 0.019994318
0.020529006 -0.040124875 0.019799054
0.021284122 -0.039792053 0.016818911
0.022774501 -0.040804312 0.011855513
0.023298398 -0.040073246 0.0072430074
0.024055634 -0.039784316 0.0055541694
-0.011051719 -0.038681015 0.0078944862
-0.010168346 -0.038824592 0.016269386
-0.0094310809 -0.039610542 0.017452687
-0.0083842371 -0.039126437 0.018963277
-0.0075930208 -0.039863359 0.019936919
-0.0065989676 -0.039593805 0.020737797
-0.0056458795 -0.039521158 0.020997763
-0.0046818927 -0.039327897 0.020875871
-0.0038041521 -0.039943598 0.021118999
-0.0028292143 -0.039609 0.021091968
-0.001879831 -0.039476451 0.020966619
-0.00093340001 -0.039202798 0.021110684
0 -0.039820112 0.021198511
0.00092961959 -0.039044023 0.021136075
0.0019015378 -0.039932292 0.020828575
0.0027320841 -0.03824918 0.020903021
0.003778788 -0.039677273 0.020801961
0.0046825027 -0.039333023 0.021049976
0.005511994 -0.038583957 0.020668447
0.0066207331 -0.039724398 0.0209907
0.0075559551 -0.039668765 0.021011412
0.0084928656 -0.039633375 0.021004468
0.0094950851 -0.039879356 0.021343321
0.010452624 -0.039910022 0.021141082
0.011301116 -0.039553907 0.02149877
0.012115951 -0.039143842 0.021645665
0.013332645 -0.039997935 0.021528006
0.014104545 -0.039492726 0.021391183
0.015006348 -0.039391667 0.021220326
0.01574894 -0.038909145 0.021773726
0.016761243 -0.039109565 0.021028072
0.017897524 -0.039562948 0.020650804
0.018779963 -0.039437924 0.020477235
0.020027168 -0.040054336 0.019768864
0.020632461 -0.039389245 0.018959492
0.021719888 -0.039662406 0.01418063
0.022459328 -0.039303824 0.0098233819
0.023858635 -0.040082507 0.0063267648
-0.011320969 -0.038679976 0.0072691441
-0.010389027 -0.038722739 0.016020626
-0.0093433931 -0.038307909 0.017430425
-0.0085884091 -0.039124973 0.019171804
-0.0075121322 -0.038499679 0.020362049
-0.006563182 -0.038441494 0.020818442
-0.0056152046 -0.038370565 0.020993203
-0.004799 -0.039351802 0.020702571
-0.0037361428 -0.038295463 0.021014392
-0.0028071075 -0.038363803 0.020810217
-0.0019163113 -0.039284382 0.020954281
-0.00093298196 -0.038252261 0.020849288
0 -0.038284883 0.020808309
0.00095535984 -0.039169751 0.020490438
0.0018782632 -0.038504396 0.020230025
0.0028050952 -0.038336299 0.020239323
0.0037712627 -0.038655441 0.020079941
0.0046142591 -0.037836924 0.020247281
0.0057253134 -0.039122976 0.020261019
0.006677127 -0.039108887 0.020751864
0.0075248131 -0.038564667 0.020774513
0.0083952881 -0.038245201 0.020261019
0.0093616797 -0.038382884 0.020765603
0.010177827 -0.03793554 0.020640224
0.011200292 -0.038267665 0.020866126
0.012322052 -0.03886186 0.021264613
0.013013697 -0.038111541 0.020961523
0.014249999 -0.038949996 0.020758539
0.0148047 -0.037937045 0.020619333
0.016118813 -0.038874783 0.020839185
0.016929155 -0.038560856 0.020351648
0.017448686 -0.037652429 0.019904792
0.018850781 -0.038644101 0.019719481
0.019591311 -0.038249705 0.018566281
0.020508088 -0.03821962 0.017144531
0.022070123 -0.039342392 0.013200521
0.023473322 -0.040100258 0.0069780648
0.02433202 -0.039904512 0.0055716634
-0.011776653 -0.039255511 0.0054236352
-0.010324024 -0.037541904 0.013801426
-0.0091660386 -0.036664154 0.017214268
-0.0085615516 -0.038051341 0.018118173
-0.0076165255 -0.038082629 0.019470066
-0.0064304788 -0.036745593 0.020568341
-0.005806908 -0.038712721 0.020685434
-0.0046895728 -0.037516583 0.020818174
-0.0037368862 -0.03736886 0.020952821
-0.0028369322 -0.037825763 0.020906568
-0.0018708303 -0.037416607 0.020817995
-0.00092828978 -0.037131593 0.020825416
0 -0.038165852 0.020771116
0.00093566778 -0.03742671 0.020540565
0.0019138785 -0.03827757 0.020360768
0.0028226643 -0.037635524 0.020268917
0.0037866398 -0.037866399 0.020213515
0.0047188387 -0.03775071 0.020384997
0.0056828973 -0.037885983 0.020437092
0.0064087133 -0.03662122 0.02052772
0.0076350584 -0.038175292 0.020696163
0.0083750142 -0.037222285 0.020586431
0.0092885615 -0.037154246 0.02057758
0.010279773 -0.03738099 0.020607382
0.01119667 -0.037322234 0.021227956
0.012261879 -0.037728857 0.021424413
0.013196309 -0.037703741 0.02116105
0.013872567 -0.036993511 0.020800173
0.015244395 -0.038110986 0.020439863
0.015896197 -0.03740282 0.020385563
0.01683601 -0.037413359 0.02000615
0.017792439 -0.037457768 0.019764632
0.018623076 -0.037246153 0.019014925
0.019633569 -0.037397277 0.017060608
0.021485941 -0.039065346 0.015107125
0.022179401 -0.03857287 0.011087567
0.023375522 -0.038959205 0.0064459145
0.024539011 -0.039262414 0.0054396987
-0.010403778 -0.036886122 0.0085057914
-0.009487249 -0.037000272 0.016047031
-0.0084325951 -0.036541246 0.017308772
-0.0075867516 -0.036985412 0.018175066
-0.006727485 -0.037481703 0.019542962
-0.0056751976 -0.036888786 0.020363301
-0.0046880334 -0.03656666 0.020296931
-0.00376419 -0.036700852 0.020858556
-0.0028693005 -0.037300907 0.020859331
-0.0018508247 -0.036091082 0.020746857
-0.00094621355 -0.036902327 0.020825058
0 -0.035922691 0.020825386
0.00094096974 -0.03669782 0.020777911
0.0018960679 -0.036973324 0.020483106
0.0028164363 -0.036613673 0.020394564
0.0037078515 -0.036151551 0.020411283
0.0046770587 -0.03648106 0.020603269
0.0054505891 -0.035428829 0.020652056
0.0066796881 -0.037215404 0.020661891
0.007571145 -0.036909331 0.020771623
0.0085697556 -0.037135608 0.020779163
0.0094013019 -0.036665075 0.020696163
0.010193248 -0.036139701 0.0209378
0.011160797 -0.036272593 0.021396399
0.012438515 -0.037315544 0.021417737
0.012986397 -0.036176391 0.021325618
0.013967577 -0.036315702 0.020528048
0.015052306 -0.036689997 0.020252138
0.015564742 -0.035707351 0.019955337
0.016660526 -0.036097806 0.019575953
0.017528534 -0.035979625 0.019010723
0.018817896 -0.036694895 0.017981678
0.020794591 -0.038618524 0.016304165
0.021180484 -0.03754722 0.014277011
0.022403352 -0.03798829 0.0097560883
0.023629626 -0.038398143 0.0060297549
-0.010697346 -0.03695447 0.0052253008
-0.0094761886 -0.036009517 0.013377607
-0.0083979527 -0.035458021 0.017070353
-0.0076159425 -0.036175728 0.018156677
-0.0066420701 -0.036056954 0.019076407
-0.0056473427 -0.035766505 0.019709677
-0.0047645075 -0.036210258 0.020229489
-0.0037990306 -0.036090791 0.020467252
-0.0027968376 -0.035426609 0.020558536
-0.0019097084 -0.036284458 0.020653158
-0.00094974122 -0.036090165 0.020510584
0 -0.036412351 0.02038905
0.00094010716 -0.035724074 0.020077109
0.001870319 -0.035536062 0.019724905
0.0027783627 -0.035192594 0.020130128
0.0037512286 -0.035636671 0.020297825
0.0046108626 -0.035042554 0.020599842
0.0057644011 -0.036507875 0.02069658
0.0065451963 -0.035531066 0.020642847
0.0074237878 -0.035262991 0.020640463
0.0085460832 -0.036083464 0.020516723
0.0093646394 -0.035585631 0.020501822
0.010353396 -0.035766277 0.020516723
0.011481764 -0.036358919 0.020742714
0.012276779 -0.035885971 0.020501822
0.013176522 -0.035764847 0.020303428
0.014486588 -0.036699355 0.019768864
0.014539411 -0.034531102 0.019600213
0.015906356 -0.035555385 0.019479841
0.016766725 -0.035396419 0.018749774
0.017868593 -0.035737187 0.017537683
0.019824985 -0.037667472 0.016304165
0.020993873 -0.037988916 0.01509133
0.021141443 -0.036517039 0.01258406
0.022432545 -0.037062466 0.0079611242
0.02344973 -0.037128739 0.005810082
-0.0094998134 -0.03514931 0.010460794
-0.0084614623 -0.034786012 0.016703069
-0.007699219 -0.035608888 0.017765075
-0.0065924637 -0.034845881 0.018158555
-0.0057643112 -0.035546586 0.019290417
-0.0047083409 -0.034841724 0.019123822
-0.0037528775 -0.034714118 0.019457191
-0.0028474617 -0.035118695 0.019889086
-0.0019069958 -0.035279419 0.020517439
-0.00092990999 -0.034406669 0.020469636
0 -0.034636889 0.02038905
0.00094088522 -0.034812752 0.020077109
0.0018956546 -0.035069611 0.020264894
0.0028710577 -0.035409711 0.020232648
0.0036975159 -0.034202021 0.020393401
0.0047629084 -0.035245523 0.020508021
0.0057233414 -0.035293937 0.020714492
0.0065254639 -0.03449174 0.020704895
0.007571931 -0.03502018 0.020702511
0.0086073969 -0.035385963 0.020758629
0.0092310021 -0.034154709 0.020570934
0.010482632 -0.035259761 0.020571351
0.011206594 -0.034553666 0.020490825
0.012011186 -0.034185685 0.020280868
0.013389596 -0.03538679 0.019946426
0.013767071 -0.033958774 0.019743472
0.015032434 -0.034762502 0.019516498
0.016417705 -0.035732653 0.019237161
0.017009869 -0.034964733 0.018247187
0.01816803 -0.035379846 0.016730428
0.019505572 -0.036085308 0.01507017
0.019592101 -0.034519415 0.014008611
0.023647133 -0.039770178 0.011202872
0.022114374 -0.035575297 0.0065758824
0.023373406 -0.036033999 0.0050997734
-0.010119502 -0.036430206 0.0056482852
-0.0085699027 -0.034279611 0.012847722
-0.0075356769 -0.033910546 0.016699195
-0.0065897591 -0.033890188 0.017345667
-0.0055798246 -0.033478945 0.018158555
-0.0046009347 -0.03312673 0.018166572
-0.0037820607 -0.034038547 0.019164473
-0.0028261817 -0.033914179 0.019304901
-0.0018879306 -0.03398275 0.020188302
-0.00094281568 -0.033941366 0.020188302
0 -0.034459494 0.020167589
0.00094592531 -0.034053311 0.020077109
0.0018945156 -0.034101281 0.020314604
0.0027928916 -0.033514697 0.020115346
0.0038123017 -0.034310713 0.020434648
0.0047210418 -0.033991501 0.020714492
0.0057085846 -0.034251507 0.020848334
0.0066499296 -0.03419964 0.021313518
0.0074044899 -0.033320207 0.020877063
0.008269811 -0.033079244 0.020992815
0.0095623871 -0.034424596 0.020764172
0.010354348 -0.033886958 0.020640463
0.011248035 -0.033744108 0.020662606
0.01221611 -0.033829227 0.020280868
0.0129747 -0.033363514 0.020039737
0.014328847 -0.034389231 0.019690096
0.015333313 -0.034499954 0.01939705
0.016005179 -0.033893321 0.018667638
0.01713668 -0.03427336 0.017356366
0.018151432 -0.034392189 0.01590687
0.018848684 -0.033927631 0.014683038
0.020609491 -0.035330556 0.012533307
0.021389777 -0.035001453 0.010641217
0.021929085 -0.034323785 0.0066815019
0.023405032 -0.035107549 0.0050989389
-0.0087759355 -0.034128636 0.0074625611
-0.0076076402 -0.033283427 0.013101637
-0.006592134 -0.032960668 0.016131371
-0.0056334385 -0.032861724 0.017148495
-0.0047477339 -0.033234134 0.017573833
-0.0037563478 -0.032868043 0.018137634
-0.0028089087 -0.032770604 0.018844068
-0.001917753 -0.033560678 0.019146413
-0.00094504509 -0.033076577 0.019116789
0 -0.033573903 0.019610524
0.00092199817 -0.032269936 0.019147784
0.0018800735 -0.032901287 0.019549906
0.0028246387 -0.032954119 0.019563705
0.0037541531 -0.032848839 0.019965261
0.0046998751 -0.032899126 0.020360768
0.0056894035 -0.033188187 0.020394564
0.0065153227 -0.032576613 0.020733953
0.0074564628 -0.032622024 0.020389497
0.0085153505 -0.033115253 0.020276576
0.009367683 -0.032786891 0.02015093
0.010213939 -0.032498896 0.020055771
0.011431281 -0.033341236 0.020155281
0.012366286 -0.033293847 0.019825965
0.01301187 -0.032529674 0.019630343
0.014490207 -0.033810481 0.019466817
0.014965401 -0.032736816 0.019188792
0.015909456 -0.032754764 0.018063396
0.017124139 -0.033296935 0.016545773
0.017718151 -0.032638703 0.015541434
0.019409603 -0.033966806 0.01432085
0.019992612 -0.033321019 0.011998147
0.020929782 -0.033297382 0.010522276
0.024105499 -0.036682282 0.0069276989
0.023151681 -0.033762868 0.0050878823
-0.0076307869 -0.032430843 0.0092725456
-0.0065816664 -0.031968094 0.013150185
-0.0056932312 -0.032261644 0.01593098
-0.0048085349 -0.032698035 0.016704589
-0.0038071861 -0.032361083 0.017784834
-0.0028086295 -0.031831134 0.018400252
-0.0019108587 -0.032484598 0.018789351
-0.00093751348 -0.031875458 0.018794835
0 -0.032068346 0.018997312
0.00093361153 -0.031742793 0.018786848
0.0018763507 -0.031897962 0.018540502
0.0028834362 -0.032678943 0.018770725
0.0037467082 -0.031847019 0.019482702
0.0047362926 -0.032206789 0.019942135
0.0056142244 -0.031813938 0.020231426
0.006562891 -0.031876899 0.020196795
0.0074537685 -0.031678516 0.020170778
0.0083927242 -0.031705845 0.020205408
0.009269841 -0.031517461 0.020089328
0.010359735 -0.032021001 0.019959837
0.011187367 -0.031697541 0.019841015
0.012237528 -0.032005843 0.019698888
0.013203358 -0.032065298 0.019505382
0.01384085 -0.031372596 0.019271106
0.015465893 -0.032865021 0.018708616
0.016133623 -0.032267246 0.01743111
0.016997473 -0.032106336 0.016034365
0.018011449 -0.032231014 0.015220523
0.01930055 -0.032810938 0.014094055
0.01953036 -0.031620581 0.011944324
0.021163441 -0.032707136 0.010781884
0.022902099 -0.033855278 0.0083108246
0.024298938 -0.034423497 0.005133152
-0.0065767053 -0.031004468 0.010927707
-0.0056150937 -0.030883016 0.013924599
-0.0047336612 -0.031242164 0.016047239
-0.0039143269 -0.032293197 0.017540693
-0.0028822215 -0.031704437 0.0179874
-0.0018917598 -0.031214038 0.018507689
-0.00095722848 -0.031588539 0.018430561
0 -0.030453933 0.018676907
0.0009540582 -0.031483922 0.018425852
0.0019124881 -0.031556055 0.018157601
0.0028430822 -0.031273905 0.018156677
0.0038065438 -0.031403989 0.018364102
0.0046510585 -0.030696986 0.018281788
0.0056589846 -0.031124415 0.01938051
0.0065660384 -0.03095418 0.019037694
0.0074900384 -0.030896408 0.019295841
0.0084077427 -0.03082839 0.019295841
0.0096644042 -0.031892534 0.019245535
0.010305014 -0.030915042 0.0192976
0.011489658 -0.031596556 0.019550413
0.012230694 -0.031047149 0.019309491
0.013392189 -0.031567302 0.0188483
0.013898776 -0.030577308 0.018270463
0.015137772 -0.031221656 0.017881781
0.016068766 -0.031192312 0.01710245
0.017054887 -0.031267297 0.015806228
0.018202789 -0.031615369 0.015234798
0.018762715 -0.030958481 0.014368027
0.020005183 -0.031436715 0.013330579
0.021003217 -0.031504825 0.011424273
0.021840038 -0.031335704 0.0097155273
0.024297955 -0.033409689 0.0061023235
-0.0068187509 -0.031171432 0.0054856539
-0.005619586 -0.029971125 0.011040717
-0.004727039 -0.030253049 0.013752311
-0.003781006 -0.030248048 0.015686244
-0.0028840983 -0.030763716 0.017430872
-0.0019320283 -0.030912453 0.017675608
-0.00096108526 -0.030754728 0.017742604
0 -0.030323692 0.018115848
0.0009419428 -0.030142169 0.017979354
0.0018483876 -0.029574202 0.017657816
0.0028259407 -0.030143369 0.017675608
0.0037527201 -0.030021761 0.017782748
0.0046593752 -0.029820001 0.017605782
0.0056141 -0.029941866 0.017748803
0.0064902082 -0.029669523 0.017639786
0.0076223174 -0.03048927 0.017900139
0.0086953295 -0.030916726 0.018082887
0.0095000109 -0.030400034 0.018759817
0.010106109 -0.029399591 0.018506259
0.011512519 -0.030700052 0.018826038
0.012049521 -0.029660361 0.01869908
0.012944609 -0.029587677 0.018262208
0.014405288 -0.030731281 0.017816514
0.014918747 -0.029837495 0.017620444
0.016322734 -0.030725148 0.017138779
0.016634233 -0.029571971 0.016270131
0.017785417 -0.029954387 0.015411347
0.019160043 -0.030656068 0.014820009
0.020133374 -0.030679425 0.013692528
0.020833498 -0.030303271 0.011694819
0.021953806 -0.030544426 0.010324895
0.023392772 -0.031190364 0.0075951219
-0.0056386702 -0.029133128 0.005540967
-0.0046801572 -0.029016975 0.010642707
-0.0038815064 -0.030081674 0.013547838
-0.0028757157 -0.02971573 0.01496926
-0.0018971791 -0.029406276 0.015025824
-0.00097487209 -0.030221036 0.015994728
0 -0.029648531 0.016079843
0.00093354128 -0.02893978 0.016098857
0.0018931557 -0.029343914 0.016161948
0.0027943361 -0.028874807 0.016639173
0.0037476448 -0.029044246 0.016669661
0.0046691853 -0.02894895 0.016584754
0.0056397673 -0.029138798 0.017192125
0.0067663365 -0.029965205 0.017192125
0.0079066623 -0.030638317 0.017143011
0.0084156794 -0.028987342 0.017317235
0.0095671508 -0.029658169 0.018404752
0.010655227 -0.030028367 0.018181682
0.011049063 -0.028543413 0.018292695
0.012336402 -0.029417574 0.018603384
0.013346501 -0.029552966 0.018342048
0.013831597 -0.0285853 0.018194973
0.015072916 -0.029203774 0.01816839
0.015870443 -0.028940218 0.017118603
0.016685968 -0.028736943 0.016656488
0.018045945 -0.029443383 0.015552193
0.019037258 -0.029507751 0.014992505
0.019941825 -0.029437933 0.014061779
0.020769458 -0.029266056 0.013243765
0.022435565 -0.030239239 0.011296332
0.02302351 -0.0297387 0.0087758601
0.025232499 -0.0312883 0.0057926774
-0.0043069753 -0.032302316 0.008901
-0.0032966821 -0.032966822 0.012505203
-0.0021245533 -0.031868301 0.012520671
-0.0011000796 -0.033002391 0.013117462
0 -0.028492928 0.013206393
0.00095543021 -0.028662905 0.013206393
0.001863175 -0.027947625 0.013173282
0.0027894159 -0.027894158 0.014030427
0.0037893581 -0.028420186 0.014312893
0.0049431911 -0.029659146 0.014654756
0.0058219163 -0.029109582 0.01507771
0.0066383737 -0.028450172 0.015150905
0.0077516381 -0.029068641 0.01608932
0.0085468134 -0.028489379 0.016231358
0.0094520207 -0.028356062 0.016610503
0.010621081 -0.028966585 0.016900361
0.011144188 -0.027860472 0.017358005
0.012332503 -0.028459622 0.017563999
0.013373854 -0.028658258 0.017570615
0.013978797 -0.027957594 0.017502546
0.015185066 -0.028471999 0.01753813
0.015778391 -0.027844219 0.017183572
0.017024772 -0.02837462 0.01698482
0.018206839 -0.028747641 0.015978813
0.01859414 -0.027891209 0.015330076
0.020308804 -0.029012576 0.014789909
0.020899454 -0.028499255 0.013919741
0.021819774 -0.028460575 0.01230523
0.022995863 -0.02874483 0.0098652542
0.024195245 -0.029034292 0.0073682964
-0.0031350071 -0.030305069 0.0053765178
-0.0021875603 -0.031719625 0.006729871
-0.00093116943 -0.027003912 0.0098062158
0 -0.027841853 0.010011286
0.00092690275 -0.02688018 0.0081529915
0.0018923096 -0.02743849 0.0092603266
0.0030152386 -0.029147306 0.0092603266
0.0040360773 -0.029261559 0.0097345114
0.0048584547 -0.028179038 0.011735439
0.0058888188 -0.028462624 0.011787325
0.0067885285 -0.028123904 0.012585342
0.0076297359 -0.027657792 0.013623059
0.0087733055 -0.028269541 0.014410615
0.009392296 -0.027237659 0.015519321
0.01033554 -0.027248243 0.015901059
0.011783172 -0.028476 0.016080886
0.012085394 -0.026959725 0.017493099
0.013028442 -0.026987486 0.017491847
0.014096656 -0.027253535 0.017502546
0.014815726 -0.026853504 0.018092573
0.016336398 -0.027867975 0.017480224
0.017081749 -0.027520597 0.017119676
0.017656168 -0.026948888 0.016798824
0.019060455 -0.027637659 0.015956998
0.019747604 -0.027270501 0.014903039
0.020592811 -0.027145069 0.014235973
0.022087071 -0.027848916 0.012711912
0.023125779 -0.02794365 0.010323793
0.023422593 -0.027170209 0.0082982779
0.0019566563 -0.027393188 0.005209744
0.0029323788 -0.027368868 0.0055108666
0.0039753299 -0.027827309 0.0061409175
0.0048934524 -0.027403334 0.0080928206
0.0058602407 -0.02734779 0.0083453953
0.0068464815 -0.027385926 0.0086882412
0.007712062 -0.026992217 0.0094690919
0.0084880581 -0.026407294 0.012135208
0.0096999239 -0.027159786 0.013441473
0.010384391 -0.026432997 0.014398366
0.01129033 -0.026344104 0.015306294
0.012165302 -0.026202189 0.016504139
0.01329783 -0.02659566 0.016957164
0.014115743 -0.026349388 0.01716271
0.015177137 -0.02655999 0.017912805
0.015836269 -0.026083266 0.017810524
0.016774753 -0.02609406 0.017743737
0.017939454 -0.026437091 0.016949862
0.019038394 -0.026653752 0.016498655
0.019149292 -0.025532391 0.015095353
0.021432126 -0.027277252 0.014403164
0.021669839 -0.026380673 0.013417125
0.022782454 -0.026579531 0.011031359
0.024026172 -0.026909312 0.0088796616
0.024695456 -0.026595106 0.0063307881
0.0050993487 -0.027536482 0.0051254928
0.0058053066 -0.026123879 0.0057688951
0.0068536252 -0.026435411 0.0070138276
0.0077957888 -0.026310788 0.0080331862
0.0085932277 -0.025779683 0.0091101527
0.0095840199 -0.025876854 0.011529088
0.010496832 -0.025764953 0.013218522
0.01117761 -0.025149621 0.013971716
0.012577697 -0.026122909 0.015505999
0.013220051 -0.025495812 0.016843081
0.013903623 -0.025026523 0.01716271
0.015144777 -0.02555681 0.017914176
0.015647681 -0.024852199 0.018022031
0.016876459 -0.025314689 0.01779893
0.017847842 -0.025362723 0.017313808
0.01826633 -0.024659544 0.016902387
0.020066723 -0.025800074 0.015083581
0.020496022 -0.025154209 0.01426217
0.021668153 -0.025436526 0.013100207
0.023040567 -0.025920637 0.010816485
0.023861598 -0.025770526 0.008362025
0.025191614 -0.026160521 0.0063223541
0.0075041498 -0.024388487 0.0059977174
0.0089450656 -0.025841299 0.0075827837
0.0093389256 -0.024281207 0.0095029771
0.010568317 -0.024979658 0.012942106
0.011678817 -0.025304103 0.013883531
0.01211899 -0.024237979 0.015467227
0.013054383 -0.024243854 0.016081154
0.014280614 -0.024753064 0.016917676
0.014943784 -0.024283649 0.017740786
0.016017936 -0.024498021 0.017718732
0.016823536 -0.024300665 0.017454714
0.017609254 -0.024096873 0.017228812
0.018633619 -0.024223704 0.016704082
0.019735327 -0.024434213 0.015071422
0.020664306 -0.024421453 0.014172673
0.021883219 -0.024737554 0.012612909
0.022410879 -0.024278451 0.010297477
0.023056773 -0.023979045 0.0083005726
0.025610063 -0.025610063 0.0063307881
0.0087123429 -0.024200952 0.0058737099
0.0095476257 -0.023869064 0.0080189705
0.010472219 -0.023800498 0.011624396
0.011565208 -0.024094183 0.013042122
0.012269902 -0.023595965 0.014940739
0.013621845 -0.024324724 0.015096903
0.014219956 -0.023699928 0.016179353
0.014880088 -0.023250138 0.016795397
0.016154133 -0.023756079 0.017479539
0.016788051 -0.023316737 0.017428845
0.017690925 -0.023277532 0.01704672
0.019249026 -0.024061283 0.016496271
0.019106129 -0.022745393 0.01483497
0.020749442 -0.023578912 0.013597488
0.021882644 -0.023785483 0.012107521
0.022042455 -0.022960892 0.0096436143
0.023702366 -0.023702366 0.007496506
0.02464023 -0.02369253 0.0054371953
0.0096934903 -0.023264376 0.0069440901
0.010650082 -0.023236545 0.0091256201
0.011293696 -0.022587392 0.011690229
0.012714406 -0.023472749 0.013503253
0.013001648 -0.022288539 0.014138818
0.014130909 -0.022609456 0.0149872
0.015408535 -0.023112804 0.016517967
0.015768655 -0.022261631 0.016795456
0.016946385 -0.02259518 0.016785622
0.018132085 -0.022903686 0.016375482
0.018412294 -0.022094753 0.014909893
0.019824913 -0.022657044 0.014276534
0.020780902 -0.022670075 0.012244046
0.021192221 -0.022113623 0.010038763
0.022996383 -0.022996383 0.0080533624
0.023794338 -0.022842566 0.0061623156
0.0096218465 -0.022130247 0.005418539
0.010705255 -0.022383716 0.0074211061
0.011687854 -0.02240172 0.0094969273
0.012289618 -0.021743171 0.011522174
0.013340407 -0.021916382 0.012337714
0.014010745 -0.021483142 0.013180465
0.015062174 -0.021651875 0.014789611
0.016273011 -0.022016425 0.015846342
0.016748557 -0.021400932 0.015846342
0.017814582 -0.02156502 0.014560014
0.018674469 -0.021475639 0.013895124
0.01950093 -0.021358162 0.013196498
0.020425474 -0.021353904 0.011061907
0.02213848 -0.02213848 0.0080967844
0.022785321 -0.021835933 0.0061680079
0.010770398 -0.021540796 0.0051198304
0.011482 -0.021050334 0.00698632
0.011996228 -0.020301308 0.0091580153
0.013436111 -0.021113887 0.010614336
0.014354357 -0.021053057 0.011037916
0.014860894 -0.02043373 0.012136698
0.016200885 -0.02096585 0.013052285
0.016699631 -0.020410661 0.013221115
0.018131714 -0.020994619 0.012714177
0.018722322 -0.020594554 0.012180954
0.01942216 -0.020347025 0.01100266
0.020995952 -0.020995952 0.0086734891
0.022246569 -0.021279328 0.0061495602
0.011642859 -0.020375004 0.0057512224
0.012376287 -0.019992463 0.0065707862
0.013146526 -0.019719789 0.0078039467
0.014109856 -0.019753797 0.0086272657
0.014940002 -0.019608753 0.0097414255
0.015816258 -0.019537732 0.011011422
0.017522408 -0.02044281 0.011085778
0.018331917 -0.020261591 0.010646939
0.018957406 -0.019905278 0.01013732
0.019796725 -0.019796725 0.0079619288
0.021568852 -0.020588448 0.0058372617
0.013177309 -0.018824728 0.0060071349
0.014274282 -0.019032376 0.0063584745
0.015057944 -0.01882243 0.0078713
0.016270492 -0.019141756 0.0083327889
0.017554231 -0.0195047 0.0085333586
0.017620035 -0.018547405 0.007933557
0.019650934 -0.019650934 0.0065112114
0.015723838 -0.018672056 0.0052803755
0 0 0 1 0 0 0 1 0 0 0 1 0 0 0 0 0 1325 1 0 0
