ply
format ascii 1.0
comment PCL generated
element vertex 1278
property float x
property float y
property float z
element camera 1
property float view_px
property float view_py
property float view_pz
property float x_axisx
property float x_axisy
property float x_axisz
property float y_axisx
property float y_axisy
property float y_axisz
property float z_axisx
property float z_axisy
property float z_axisz
property float focal
property float scalex
property float scaley
property float centerx
property float centery
property int viewportx
property int viewporty
property float k1
property float k2
end_header
0.0010951415 -0.082135618 0.0054242909
0.0022709288 -0.085159831 0.0059236586
0.0031497674 -0.078744181 0.0074853003
0.0044811913 -0.084022343 0.0080384314
0.005547883 -0.083218247 0.0078879595
0.0062764133 -0.078455165 0.0080755055
0.0080602299 -0.086359605 0.0070606768
-0.001849284 -0.06842351 0.0052618682
-0.00093716645 -0.069350317 0.0062606633
0 -0.068563737 0.0092794001
0.00090873247 -0.067246199 0.0097649992
0.0018274118 -0.067614242 0.012203485
0.0027680506 -0.068278581 0.012203485
0.0036908968 -0.068281591 0.012510836
0.004552437 -0.06737607 0.011947513
0.0056216596 -0.069333799 0.012157202
0.0065060342 -0.068778075 0.010637492
0.0074851746 -0.069237866 0.0090967119
0.008289177 -0.068155453 0.0079154372
0.0092910435 -0.068753719 0.005084902
-0.0029660594 -0.07217411 0.0056409538
-0.0018994986 -0.069331698 0.0063929558
-0.00093657128 -0.068369702 0.0099687576
0 -0.070264153 0.012065291
0.00095395121 -0.069638439 0.013391525
0.0019178506 -0.07000155 0.014131725
0.0030032489 -0.073079057 0.015150398
0.003682914 -0.067213178 0.015095562
0.0048474832 -0.070773251 0.014758259
0.0057088672 -0.069457881 0.014467925
0.0065984051 -0.068811938 0.013369679
0.0077890581 -0.071075156 0.010743648
0.0085369535 -0.069244176 0.0095717311
0.0097182263 -0.07094305 0.0079899132
0.010944608 -0.072632395 0.005616188
-0.0038825243 -0.06988544 0.0058131516
-0.002830086 -0.067922063 0.0065943003
-0.0019119164 -0.068828993 0.0096465647
-0.00095013215 -0.068409517 0.012628943
0 -0.067044333 0.013737887
0.00094052876 -0.067718074 0.015318573
0.0018921021 -0.068115674 0.016751826
0.0027892422 -0.066941813 0.016751826
0.0038035121 -0.068463221 0.017110705
0.0048183771 -0.069384627 0.016119123
0.0055298833 -0.066358596 0.015652001
0.0066890721 -0.06880188 0.014719009
0.007632629 -0.06869366 0.012894183
0.0082827285 -0.066261828 0.011062741
0.0098544713 -0.070952192 0.0091036856
0.010697523 -0.070020154 0.0075519383
-0.0049527502 -0.070329055 0.0053936839
-0.0038969007 -0.069169991 0.0065028965
-0.0028889999 -0.068372995 0.0087789893
-0.0019717459 -0.069996975 0.012696743
-0.00093980081 -0.066725858 0.013949484
0 -0.069479883 0.014955699
0.00095998414 -0.068158872 0.017140418
0.0018908917 -0.067126654 0.017999202
0.0028601848 -0.067691036 0.018043458
0.003838785 -0.068138435 0.018454045
0.0046439441 -0.065944009 0.017693728
0.0056699235 -0.067094095 0.016964287
0.0065231631 -0.06616351 0.016068786
0.0075563225 -0.067062363 0.013539165
0.0086393524 -0.068154894 0.011840045
0.0095008677 -0.067456163 0.0095778108
0.010392785 -0.067080699 0.0082915425
0.011403859 -0.06747283 0.005908221
-0.0049530813 -0.069343135 0.0059048831
-0.0038825604 -0.06794481 0.0070874095
-0.0028767786 -0.067124836 0.011028856
-0.0019203143 -0.067211002 0.013518661
-0.0009461203 -0.06622842 0.014748812
0 -0.068131208 0.016620368
0.00093699963 -0.065589972 0.017999202
0.0018918581 -0.066215031 0.019604445
0.0028253391 -0.065924577 0.01964432
0.0036967504 -0.064693131 0.019546539
0.0048384732 -0.067738622 0.019408524
0.005634883 -0.065740302 0.01838389
0.0065082274 -0.065082274 0.017569393
0.0075451094 -0.066019706 0.015941828
0.0084812343 -0.065965153 0.014317065
0.0091349129 -0.063944392 0.011008561
0.010494375 -0.066782385 0.0084319413
0.011576682 -0.067530647 0.0062874556
-0.0060091629 -0.069105372 0.0052721202
-0.0048068259 -0.066334195 0.0062873662
-0.0039229225 -0.067670412 0.009093672
-0.0028902597 -0.066475973 0.013008028
-0.0018754201 -0.064701997 0.014474183
-0.00096186268 -0.066368528 0.016679853
0 -0.064337723 0.018011868
0.00094453013 -0.065172583 0.01949504
0.001873474 -0.064634852 0.019886374
0.0028039643 -0.064491183 0.020087421
0.0037239424 -0.064238012 0.020248592
0.0046335137 -0.063942492 0.019948274
0.005504204 -0.063298345 0.01981616
0.0066039148 -0.06509573 0.018468916
0.0076515614 -0.065994717 0.017203152
0.0084992042 -0.065160565 0.015614778
0.0095943892 -0.066201285 0.013000399
0.010568519 -0.066293441 0.010078251
0.011627677 -0.066859141 0.0075524747
0.013090334 -0.069479465 0.0054493845
-0.0058763023 -0.066598095 0.0053938627
-0.0049165492 -0.066865072 0.0063441694
-0.0037445528 -0.063657396 0.0088078082
-0.0028128552 -0.063758053 0.011621267
-0.0018809835 -0.063953437 0.014055461
-0.00093283632 -0.063432872 0.015684575
0 -0.06500484 0.017701358
0.00093545188 -0.063610733 0.018629968
0.0018723463 -0.063659772 0.019663423
0.0029082897 -0.065921232 0.019779682
0.0037124378 -0.063111447 0.019764811
0.0046194335 -0.062824294 0.019589037
0.0056949374 -0.064542621 0.019219697
0.0065224944 -0.063361377 0.018028438
0.0076543768 -0.065062203 0.016401708
0.0086107189 -0.065058768 0.015322745
0.0093777878 -0.063768961 0.011872798
0.010640619 -0.065778375 0.010078251
0.012033932 -0.068192281 0.0074499547
0.013201717 -0.06905514 0.0055098236
-0.0058258455 -0.065055273 0.0056945384
-0.0048170164 -0.064548023 0.0068855584
-0.0038330376 -0.064203382 0.009908855
-0.0029617138 -0.066144943 0.012955487
-0.0018960277 -0.06351693 0.014199555
-0.00094090478 -0.063040622 0.016678602
0 -0.065429404 0.018300474
0.00092922407 -0.062258013 0.019474894
0.0018704764 -0.062660962 0.019709736
0.0028622481 -0.063923538 0.020032078
0.0037468965 -0.062760517 0.019983441
0.0047251596 -0.063317142 0.019876301
0.0058331448 -0.065136783 0.01942277
0.0066679548 -0.063821852 0.018289238
0.0076620113 -0.064169347 0.016484022
0.0084846476 -0.063163489 0.01527065
0.0093094502 -0.062373318 0.013107866
0.010726728 -0.065335527 0.010207623
0.011976882 -0.066870928 0.0076728761
0.01306248 -0.067322008 0.0055451393
-0.0070910864 -0.066858813 0.0050955117
-0.0058746263 -0.06462089 0.0060798526
-0.0049182009 -0.064920254 0.0071464479
-0.0037986236 -0.062677287 0.0099529624
-0.0028521328 -0.06274692 0.013059497
-0.0018698114 -0.061703775 0.014344633
-0.00096795429 -0.063884981 0.016679853
0 -0.062435441 0.018300474
0.00094446732 -0.062334843 0.019191921
0.0019147161 -0.063185632 0.019606709
0.0028187286 -0.062012028 0.019670278
0.003851193 -0.063544683 0.019649714
0.0048193322 -0.063615181 0.019566625
0.0057209432 -0.062930375 0.019302011
0.0067853145 -0.063975826 0.018066883
0.0077606109 -0.064025037 0.016452551
0.0085375095 -0.062608406 0.015005469
0.009640066 -0.063624434 0.013329774
0.010741208 -0.064447246 0.010544986
0.011732899 -0.064530946 0.0081297457
0.013272559 -0.067383759 0.0057811141
-0.0070675071 -0.065626852 0.005246222
-0.0057579963 -0.062378291 0.006382674
-0.0049238498 -0.064010046 0.0077091753
-0.0039029215 -0.063422471 0.01003778
-0.0028803356 -0.06240727 0.012426734
-0.001972103 -0.064093344 0.014474183
-0.00095897948 -0.062333666 0.016592205
0 -0.06376978 0.018241853
0.00095258956 -0.061918318 0.019133687
0.0018668219 -0.060671713 0.019497246
0.002859158 -0.061948422 0.019550979
0.0037928976 -0.061634585 0.019548088
0.0047008269 -0.061110746 0.019490302
0.0056561334 -0.061274778 0.018561691
0.0066862977 -0.062087048 0.017571926
0.0073787635 -0.059952453 0.016063362
0.0085536484 -0.061776351 0.014997005
0.0095065348 -0.061792474 0.01266396
0.010405648 -0.061487917 0.010902107
0.011323796 -0.061337225 0.0093930066
0.012717995 -0.063589975 0.0068395138
-0.0071614529 -0.065476142 0.0053680837
-0.0059754117 -0.063737728 0.0067245364
-0.004841221 -0.061967626 0.0077532828
-0.0038769806 -0.06203169 0.010137618
-0.0029541773 -0.06302245 0.013059497
-0.0019429451 -0.062174242 0.014409363
-0.00095346529 -0.061021779 0.01655829
0 -0.060527246 0.018080801
0.00091451104 -0.058528706 0.01871416
0.0018915746 -0.060530387 0.019472003
0.0027982427 -0.059695844 0.019523084
0.0037175191 -0.059480306 0.019492447
0.0047459728 -0.060748454 0.019230783
0.0057402519 -0.061229352 0.018405914
0.0065531279 -0.059914313 0.017533481
0.0076237922 -0.060990337 0.016243339
0.0084936153 -0.060399044 0.014981717
0.0096643623 -0.061851919 0.013329774
0.010605339 -0.06170379 0.010787368
0.011614627 -0.061944678 0.0093930066
0.012961931 -0.063812584 0.0069982708
0.013733007 -0.062779464 0.0055451393
-0.0072856322 -0.06557069 0.0057419837
-0.0059050708 -0.06200324 0.0071047544
-0.0048580603 -0.06121156 0.0079037845
-0.0039043317 -0.061493225 0.010051608
-0.0028864925 -0.06061634 0.01237905
-0.001857153 -0.05850032 0.014390826
-0.00096991926 -0.061104912 0.016395271
0 -0.058834709 0.017942965
0.00094453449 -0.059505671 0.018454075
0.0018913645 -0.059577979 0.018499911
0.0028178273 -0.059174374 0.019041181
0.0037326724 -0.058789592 0.018423975
0.0046836669 -0.059014201 0.018215388
0.0056432155 -0.059253763 0.017841965
0.00653747 -0.058837231 0.017052889
0.0075416472 -0.05939047 0.015728801
0.0085425125 -0.059797585 0.014602095
0.0095446715 -0.060131431 0.012072653
0.010599528 -0.060706388 0.010234922
0.01163166 -0.061066214 0.0089299977
0.013349024 -0.064691424 0.0060445666
-0.007937151 -0.061512917 0.0057419837
-0.0069849603 -0.061866794 0.0069979727
-0.0058094691 -0.060031183 0.0079851151
-0.0047059353 -0.058353595 0.0098431706
-0.0038827185 -0.060182139 0.011129528
-0.002759228 -0.057024047 0.013305992
-0.0018922385 -0.058659393 0.015921295
-0.0009317596 -0.057769094 0.017242968
0 -0.059698191 0.018367678
0.00097048149 -0.06016985 0.018576056
0.0018470634 -0.057258967 0.018944085
0.002843793 -0.058771722 0.019224614
0.0038240296 -0.059272461 0.019029856
0.0046404903 -0.057542078 0.018868566
0.0057565067 -0.059483904 0.018179506
0.0065848338 -0.058322813 0.017785817
0.0074876756 -0.058029488 0.016529441
0.0088395281 -0.060894527 0.015768558
0.0096933013 -0.060098466 0.014263779
0.010748965 -0.060585074 0.011729151
0.011881582 -0.061388176 0.0097617805
0.01320138 -0.062960431 0.0074118078
0.013631308 -0.060367223 0.005928129
-0.0088067427 -0.059690148 0.005915761
-0.0078174286 -0.059607893 0.0071311891
-0.0068802042 -0.059956066 0.0077532828
-0.0060071493 -0.061072689 0.0094779432
-0.0049202787 -0.060027402 0.011190027
-0.003787278 -0.057755988 0.012591243
-0.0028942255 -0.058849253 0.015377134
-0.0018921267 -0.057709865 0.017024904
-0.0009485078 -0.057858977 0.018057346
0 -0.058319744 0.018608987
0.00093048392 -0.056759518 0.019112676
0.0019062534 -0.058140729 0.019224614
0.0028540383 -0.05803211 0.019357413
0.0037694983 -0.05748485 0.019281894
0.0048596961 -0.059288293 0.019200176
0.0056794668 -0.057741247 0.018828064
0.0067071766 -0.058448251 0.018175453
0.007742912 -0.059039705 0.017746538
0.0088045523 -0.059675295 0.016365826
0.009543635 -0.058216173 0.015481293
0.010532129 -0.058405444 0.01389277
0.01160271 -0.058980443 0.011374593
0.013306001 -0.062435854 0.0097229481
0.013616093 -0.05932726 0.0073229969
0.014618387 -0.059448108 0.0060203075
-0.010434319 -0.06260591 0.005815804
-0.0090856822 -0.060571216 0.0076533258
-0.0078525245 -0.058893934 0.008190155
-0.0069492804 -0.059565261 0.0098670423
-0.0058636018 -0.058636017 0.011190027
-0.0048816302 -0.058579564 0.013013095
-0.003902978 -0.058544673 0.014247388
-0.0028973357 -0.057946716 0.01655829
-0.0018471815 -0.055415444 0.017296314
-0.00097262341 -0.058357403 0.018288225
0 -0.056256551 0.019119859
0.00096854311 -0.058112588 0.019126415
0.0019074713 -0.05722414 0.019213885
0.0028308353 -0.056616705 0.019615501
0.0038160181 -0.05724027 0.019469351
0.0048125149 -0.05775018 0.019244701
0.0056809234 -0.056809235 0.018851638
0.0067063286 -0.057482816 0.018493265
0.0076196911 -0.057147682 0.017798901
0.0083399117 -0.055599414 0.017363399
0.0096337404 -0.057802439 0.016181976
0.010645973 -0.058068946 0.015373111
0.011381399 -0.056906994 0.013697267
0.013285544 -0.061317895 0.011383742
0.013323013 -0.057098627 0.0095264018
0.014399343 -0.057597373 0.0069461465
0.015237088 -0.057139084 0.0054774582
-0.012540575 -0.067263089 0.0057501793
-0.011173548 -0.065923937 0.0071932077
-0.0094638271 -0.062040646 0.0087729096
-0.0085642422 -0.063161291 0.01059407
-0.0068469644 -0.05771013 0.011667699
-0.0058412938 -0.057439391 0.013426453
-0.0048910547 -0.057714447 0.015714109
-0.0038437669 -0.056695562 0.016966909
-0.0028872734 -0.056783043 0.017908305
-0.0019549665 -0.057671513 0.019163072
-0.00094448088 -0.055724371 0.01914221
0 -0.056353413 0.019411892
0.00094843982 -0.055957947 0.019329756
0.0018516696 -0.054624256 0.019486785
0.0028923894 -0.056883659 0.019541413
0.0038025959 -0.056088287 0.019524097
0.004638311 -0.054732069 0.019486785
0.0055825906 -0.054895476 0.019082844
0.0065502711 -0.055209428 0.018541157
0.0073068868 -0.053888287 0.017999887
0.0084757395 -0.055563185 0.017684013
0.0093615232 -0.055232987 0.016628861
0.010322451 -0.055365872 0.015827298
0.011703496 -0.05754219 0.014400214
0.012521899 -0.056830157 0.011810392
0.015340881 -0.064650856 0.010159016
0.017334443 -0.068182141 0.0089206696
0.017459052 -0.064380251 0.0062921643
-0.011526569 -0.05571175 0.0068799555
-0.010537978 -0.055563882 0.0076751113
-0.0092858737 -0.053858072 0.0087702572
-0.0088187242 -0.056831777 0.010972887
-0.0077374536 -0.056096539 0.013322324
-0.006742877 -0.05586955 0.015189797
-0.0058511039 -0.056560673 0.017437994
-0.0049254238 -0.057134911 0.017538846
-0.0037323779 -0.054119483 0.018696845
-0.00293658 -0.056773879 0.019106954
-0.0019332631 -0.056064632 0.019399434
-0.00094251888 -0.054666094 0.019278884
0 -0.054793447 0.019644976
0.00093563559 -0.054266866 0.019534826
0.0018602893 -0.053948388 0.019727588
0.0027792435 -0.053732041 0.019866467
0.0037031407 -0.053695537 0.019721836
0.0047475686 -0.055071797 0.019715279
0.0057747266 -0.055822358 0.019515842
0.0066767954 -0.055322018 0.01861161
0.007665833 -0.055577289 0.018486708
0.0086120944 -0.055500168 0.017798901
0.0096999602 -0.05625977 0.017800927
0.011322315 -0.059699476 0.016511053
0.012374842 -0.059811734 0.015980601
0.012787693 -0.057052784 0.013673514
0.014633556 -0.060624734 0.011215329
0.015174294 -0.058673933 0.0095157027
0.016942004 -0.06141476 0.0073774755
0.017965922 -0.061295498 0.0054994524
-0.012955989 -0.052749384 0.005440861
-0.012271413 -0.053805426 0.0076751113
-0.011355377 -0.053938042 0.01011169
-0.0101995 -0.052851956 0.011357397
-0.0092436476 -0.052688792 0.013904989
-0.0083592432 -0.052941874 0.015029728
-0.0076525379 -0.054524332 0.01565519
-0.0065504625 -0.053339478 0.017578781
-0.0055816509 -0.053025682 0.018528134
-0.0046372199 -0.052864309 0.018912882
-0.0037344906 -0.053216491 0.019484609
-0.0027972742 -0.05314821 0.019323379
-0.0018620763 -0.053069174 0.019785941
-0.00093092496 -0.053062726 0.019676179
0 -0.052180883 0.020002335
0.00093080319 -0.053055782 0.01971516
0.0018680465 -0.053239323 0.019797921
0.0027729676 -0.052686382 0.01971516
0.0037980888 -0.054122765 0.019816846
0.0047002682 -0.053583059 0.019854039
0.0056785042 -0.053945787 0.019875556
0.0066417074 -0.054082476 0.019127578
0.0075258487 -0.053621672 0.019052416
0.0083247097 -0.052723162 0.0185996
0.0093350001 -0.053209502 0.018601626
0.0099717434 -0.051671762 0.017804652
0.010991479 -0.052209526 0.017268717
0.012180384 -0.053406302 0.016232759
0.012948317 -0.052718151 0.014426947
0.013813501 -0.052491304 0.013387352
0.014759274 -0.052579913 0.009629786
0.015535257 -0.052088801 0.0069825947
-0.014865015 -0.05202755 0.0051047802
-0.014853299 -0.055452317 0.0070170462
-0.013653776 -0.054615103 0.0087921619
-0.012657408 -0.054524217 0.011265993
-0.011239617 -0.052451547 0.014475673
-0.010463838 -0.053270452 0.014736414
-0.0093828598 -0.052544016 0.015197426
-0.0085152443 -0.052983746 0.017397493
-0.0075914371 -0.053140059 0.017596751
-0.0065724575 -0.05257966 0.018641025
-0.005709792 -0.053291392 0.019329607
-0.0046809525 -0.052426666 0.019585252
-0.0037758162 -0.052861426 0.019951463
-0.0028297305 -0.052821636 0.019882262
-0.0018725035 -0.052430101 0.020023823
-0.00095283263 -0.053358629 0.019848526
0 -0.052737828 0.019984633
0.0009418049 -0.052741073 0.01982525
0.0018405784 -0.051536195 0.019790858
0.0028436217 -0.053080935 0.019778848
0.0038615968 -0.054062355 0.019578516
0.0046373932 -0.051938802 0.019622862
0.0055928254 -0.052199706 0.019787639
0.0065831183 -0.052664947 0.019128084
0.0075461161 -0.052822813 0.019069612
0.0082767755 -0.05149994 0.019034117
0.0093316967 -0.052257504 0.019034117
0.010193181 -0.05189256 0.018329412
0.011360198 -0.05301426 0.017912984
0.012054184 -0.051925715 0.017592907
0.013135483 -0.05254193 0.016946107
0.013939123 -0.052039392 0.015822798
0.014858196 -0.052003685 0.013923019
0.015947679 -0.05253353 0.0098229945
0.016842306 -0.052398287 0.0064604282
-0.016098248 -0.052082568 0.0052108765
-0.015532766 -0.053393885 0.0068750679
-0.014165155 -0.051938903 0.0091259181
-0.013451338 -0.052844543 0.01209113
-0.012457537 -0.052704964 0.014731497
-0.011554975 -0.052960299 0.017569035
-0.010472219 -0.052361097 0.017571688
-0.0094270157 -0.051848587 0.017727882
-0.0084881056 -0.051871758 0.018566817
-0.0075468454 -0.051884562 0.018673658
-0.0065398295 -0.051384374 0.019390076
-0.0057465346 -0.05267657 0.019582868
-0.0047313655 -0.052045021 0.019960165
-0.0037359679 -0.051369559 0.019890696
-0.0028544988 -0.052332476 0.019980937
-0.0018467277 -0.050785009 0.020115852
-0.00093513244 -0.051432285 0.019848526
0 -0.05226022 0.019930065
0.00091526838 -0.050339762 0.020037681
0.0019096097 -0.052514262 0.020037681
0.002835671 -0.051987302 0.020077139
0.0037371863 -0.051386312 0.019925505
0.0047082133 -0.051790345 0.020216465
0.0057150968 -0.052388389 0.020078808
0.0066123288 -0.051954012 0.019621223
0.0075702392 -0.052045394 0.019609511
0.0086301044 -0.052739527 0.019610196
0.0093892496 -0.051640872 0.019621223
0.010518449 -0.052592248 0.019147247
0.011381029 -0.05216305 0.018857896
0.012153521 -0.051418744 0.018314838
0.013516983 -0.053102434 0.017699361
0.014212649 -0.052113049 0.017112672
0.015189867 -0.052215166 0.015820742
0.016382853 -0.053003345 0.014138222
0.017971389 -0.054912575 0.0099675953
0.017878266 -0.051752873 0.0063772202
-0.01869523 -0.053133812 0.0051567852
-0.017883157 -0.05364947 0.0050444305
-0.015800582 -0.050190087 0.0073069036
-0.016438261 -0.055479128 0.0094929934
-0.016321223 -0.058756404 0.012682378
-0.014665825 -0.056568183 0.015029728
-0.014689108 -0.061016295 0.018658221
-0.011640809 -0.052383639 0.019626081
-0.010265446 -0.050394006 0.019700289
-0.009310903 -0.050278876 0.019622475
-0.0084510408 -0.050706249 0.019582868
-0.0075236456 -0.050784606 0.019686043
-0.0066615483 -0.051389087 0.020357043
-0.0056556575 -0.050900918 0.02051416
-0.0046812193 -0.05055717 0.020335376
-0.0038182032 -0.051545743 0.020264119
-0.0027887628 -0.050197732 0.020264566
-0.001916973 -0.051758271 0.020509243
-0.00092723418 -0.050070647 0.020383537
0 -0.050166231 0.020483017
0.00094271248 -0.050906476 0.020423919
0.0018917448 -0.051077109 0.020465612
0.0027873004 -0.050171405 0.020528227
0.0037955351 -0.051239721 0.020397037
0.0047223493 -0.051001374 0.020383894
0.0055953353 -0.050358016 0.020502925
0.0066628275 -0.051398955 0.020397037
0.0075621512 -0.05104452 0.020397037
0.0083490573 -0.05009434 0.020352989
0.0095850406 -0.051759217 0.020339847
0.010339153 -0.050755844 0.020052403
0.011632037 -0.052344169 0.019506663
0.012230631 -0.050804157 0.019609511
0.012993847 -0.050119124 0.019147247
0.014277874 -0.051400345 0.018678486
0.015700765 -0.052990083 0.016886026
0.016043812 -0.050962698 0.015705258
0.017788921 -0.053366762 0.01321435
0.018718362 -0.053199552 0.006711185
-0.024123993 -0.05811689 0.0054371655
-0.020163855 -0.05088973 0.0061701238
-0.019353423 -0.051286571 0.0063334107
-0.018577671 -0.051821925 0.0071081221
-0.017688502 -0.052082811 0.0076287687
-0.015710823 -0.048980802 0.010061204
-0.014973296 -0.049599044 0.014498204
-0.015325959 -0.054151721 0.015543729
-0.015306574 -0.057946317 0.019339442
-0.01315337 -0.053625274 0.019503504
-0.011076001 -0.048919003 0.020614326
-0.010453944 -0.050369006 0.020614326
-0.0095620872 -0.050679062 0.020552039
-0.0083612744 -0.049238618 0.020335078
-0.0075876475 -0.050268166 0.020558357
-0.0065669916 -0.049721505 0.0207977
-0.0055928817 -0.049403787 0.020913243
-0.0047599198 -0.050455149 0.020836383
-0.0037778164 -0.050056066 0.020667523
-0.0027710809 -0.048955765 0.020552546
-0.0018597265 -0.049282752 0.020901173
-0.00095083646 -0.05039433 0.020617396
0 -0.051021107 0.02067709
0.00093267532 -0.049431793 0.020472676
0.0018682585 -0.049508851 0.020573288
0.0027800393 -0.04911403 0.020528227
0.0038290061 -0.050734334 0.020361006
0.0046170186 -0.048940398 0.020317286
0.0056224968 -0.049665391 0.020284027
0.0065836259 -0.049847454 0.020307332
0.0073673204 -0.048808496 0.020325959
0.0087133171 -0.051311754 0.020316005
0.0094170868 -0.04991056 0.020213515
0.010177854 -0.049038749 0.02013272
0.011391059 -0.050310511 0.019902557
0.012315596 -0.050209735 0.019315422
0.01311517 -0.049650289 0.018897772
0.014120125 -0.049891111 0.018824041
0.016613072 -0.0550308 0.017493844
0.018405201 -0.057380918 0.016537428
0.019921893 -0.058658909 0.015160024
0.018120805 -0.050547507 0.01093322
0.01889083 -0.050060697 0.0052012503
-0.023308102 -0.050500888 0.0067801178
-0.022733457 -0.051397383 0.0065822899
-0.02171462 -0.051325466 0.0077505708
-0.022420086 -0.055516403 0.0081613958
-0.022517849 -0.058546405 0.0087913871
-0.020335006 -0.055653702 0.0096640587
-0.018075656 -0.05221856 0.0096101165
-0.016630257 -0.050869018 0.012740046
-0.014714302 -0.047821477 0.01532957
-0.014147718 -0.049045425 0.018119097
-0.013080378 -0.04858426 0.01977551
-0.012067897 -0.048271589 0.020024925
-0.011507452 -0.049865626 0.020846248
-0.01052982 -0.049777329 0.020862311
-0.0092417365 -0.048057027 0.020768434
-0.0085379621 -0.049330451 0.020456582
-0.0074405307 -0.048363451 0.020806849
-0.0066058948 -0.049072359 0.020890832
-0.0057574934 -0.049898278 0.021161079
-0.004678932 -0.048660893 0.021187067
-0.0037001015 -0.048101321 0.021142721
-0.0028299887 -0.049053136 0.020901382
-0.0018987561 -0.049367659 0.020734161
-0.00092720188 -0.048214499 0.020617396
0 -0.049282704 0.020563126
0.0009321387 -0.048471212 0.020465612
0.0018640162 -0.048464421 0.020765781
0.002827429 -0.049008768 0.020354509
0.0037196039 -0.048354849 0.020329982
0.0046761893 -0.048632372 0.020347565
0.0056624254 -0.049074352 0.020157367
0.0065542795 -0.048688933 0.020119607
0.0076423511 -0.049675282 0.020287484
0.0083866054 -0.048455942 0.020334691
0.0094099008 -0.048931483 0.020348549
0.010393104 -0.049131036 0.020303279
0.011332732 -0.049108502 0.020302117
0.011955447 -0.047821786 0.020175815
0.013204879 -0.049046695 0.020147383
0.014055447 -0.048725549 0.019948959
0.015195651 -0.049385864 0.018575341
0.017346606 -0.053060204 0.017243832
0.016957778 -0.048989139 0.016304284
0.017531136 -0.047979951 0.014074504
0.018976305 -0.049338389 0.0087649822
-0.025173234 -0.049378268 0.0059417486
-0.024030933 -0.049023103 0.0083700716
-0.023629561 -0.050212819 0.0097428858
-0.022325002 -0.049503267 0.0084451437
-0.022283884 -0.051658094 0.0097446442
-0.020555455 -0.049920391 0.010193318
-0.019593734 -0.049964022 0.010794818
-0.018484434 -0.049616113 0.0113132
-0.017353568 -0.049168441 0.013121277
-0.015387066 -0.046161197 0.014413655
-0.01533609 -0.048883785 0.017464459
-0.014885133 -0.050609451 0.018365055
-0.013096667 -0.047709286 0.019700557
-0.012316648 -0.048319157 0.020024925
-0.011579926 -0.049214687 0.020733178
-0.010198814 -0.047285412 0.020749241
-0.0093472051 -0.047670744 0.020558506
-0.008725591 -0.049445014 0.020335376
-0.0075517325 -0.048142292 0.020689189
-0.0065893051 -0.048007794 0.020796388
-0.0056456453 -0.047987986 0.020846546
-0.0047560623 -0.048511837 0.020790935
-0.0037481517 -0.047788933 0.020757973
-0.0028406144 -0.048290443 0.020408541
-0.0018691481 -0.047663275 0.020442396
-0.00093610655 -0.047741435 0.020273894
0 -0.047443159 0.020308733
0.00094421324 -0.048154876 0.020363063
0.0019101077 -0.048707746 0.02050218
0.0027848443 -0.047342353 0.020020008
0.0038115392 -0.048597123 0.020168543
0.0048112203 -0.049074449 0.019974828
0.0056452798 -0.047984876 0.019986302
0.0067249644 -0.048996169 0.019872427
0.0075458824 -0.048105001 0.019988924
0.0083652698 -0.047403194 0.020033568
0.0094410423 -0.048149318 0.020033568
0.01033487 -0.047916215 0.020258486
0.011375218 -0.048344672 0.019999713
0.012439403 -0.048800733 0.019656628
0.013161481 -0.047945395 0.019808322
0.014209948 -0.048313823 0.01938051
0.014756285 -0.047035657 0.018405676
0.015415017 -0.046245053 0.017234385
0.017145321 -0.048578408 0.016284525
0.018198704 -0.048849154 0.01421392
0.018553961 -0.047312602 0.0092855394
-0.026148688 -0.048423499 0.0065951347
-0.024717815 -0.047534261 0.008826524
-0.024070526 -0.048141051 0.010251403
-0.02319447 -0.04832181 0.011407763
-0.021551033 -0.046850074 0.010447741
-0.021749733 -0.049431212 0.011322141
-0.019702876 -0.046911608 0.011702359
-0.019732606 -0.049331516 0.012415469
-0.01820568 -0.047909684 0.013539076
-0.017790953 -0.049419314 0.014761686
-0.015738014 -0.046288278 0.015298247
-0.01485665 -0.046427034 0.018163413
-0.013914838 -0.046382792 0.01947251
-0.013121404 -0.046862159 0.019792318
-0.01266119 -0.048696887 0.020132095
-0.011328438 -0.047201823 0.020749241
-0.010280585 -0.046729933 0.020862311
-0.009655552 -0.048277762 0.02055037
-0.0084601548 -0.047000863 0.020485282
-0.0076853302 -0.048033316 0.020695925
-0.0066430662 -0.047450472 0.020706385
-0.0055875038 -0.04656253 0.020793736
-0.0047329077 -0.047329076 0.020616144
-0.0038130081 -0.047662601 0.020472944
-0.0028771909 -0.047953181 0.020383716
-0.0019079165 -0.047697913 0.020522058
-0.00095408916 -0.047704458 0.020463258
0 -0.047558311 0.020427614
0.00094890781 -0.04744539 0.020676225
0.0018509838 -0.046274595 0.020624816
0.0028329378 -0.047215629 0.020357639
0.0038195911 -0.047744889 0.020534486
0.0046579367 -0.046579368 0.020400971
0.005606154 -0.046717949 0.020269036
0.0065897377 -0.047069553 0.019906372
0.0072947987 -0.045592491 0.020040333
0.0086938031 -0.048298907 0.019959927
0.0092990678 -0.046495341 0.019986093
0.010311417 -0.046870079 0.02011627
0.011417639 -0.047573492 0.019790143
0.012016487 -0.046217259 0.019406676
0.013251041 -0.047325145 0.019062698
0.014335143 -0.047783811 0.018665642
0.014549675 -0.045467734 0.018068045
0.016179062 -0.04758548 0.017171085
0.017093828 -0.047482856 0.016190857
0.017567089 -0.04622918 0.014319479
0.018841315 -0.04710329 0.0087677538
-0.026519874 -0.046409778 0.0069868565
-0.025517989 -0.046310425 0.0085104108
-0.024894834 -0.046917189 0.010836959
-0.024403535 -0.047830928 0.011517525
-0.022648182 -0.046240035 0.012695849
-0.022488758 -0.047910832 0.0118424
-0.02118592 -0.047186822 0.012570262
-0.019911144 -0.046459336 0.013751864
-0.019459795 -0.047676496 0.013805479
-0.017772907 -0.045835391 0.014665514
-0.017645121 -0.048033938 0.015764356
-0.016102368 -0.04641271 0.01652959
-0.015134314 -0.046348836 0.019248605
-0.014054554 -0.045911543 0.019527078
-0.013262914 -0.046420198 0.019962192
-0.011976013 -0.045140356 0.020268589
-0.011122182 -0.045415577 0.020846248
-0.010288568 -0.045830894 0.021005899
-0.0094458777 -0.046284802 0.020757973
-0.0084047103 -0.045758978 0.020559132
-0.0075682788 -0.046355706 0.020831227
-0.0065440494 -0.045808345 0.020826697
-0.0057772784 -0.047181107 0.020790935
-0.0047560465 -0.046609256 0.02070868
-0.0038059196 -0.046622515 0.020667523
-0.0028080519 -0.045864847 0.020426273
-0.0018842557 -0.046164263 0.020628929
-0.00092238554 -0.045196891 0.020325929
0 -0.046272371 0.020324051
0.00091756973 -0.044960916 0.02047056
0.0018859626 -0.046206083 0.020649761
0.0028109779 -0.045912638 0.020357639
0.0037378916 -0.045789171 0.020715475
0.0046853386 -0.045916319 0.020642966
0.0056865793 -0.0464404 0.020476878
0.006499677 -0.045497738 0.02032125
0.0075214705 -0.046069007 0.020323396
0.0082324799 -0.044821281 0.020094544
0.0093349647 -0.045741327 0.020071507
0.010361632 -0.046156362 0.020059735
0.011289625 -0.046099305 0.019937843
0.012223138 -0.046071824 0.019786477
0.013274002 -0.046459008 0.019630462
0.014106639 -0.046081685 0.01931873
0.015207408 -0.046572685 0.018553048
0.016047493 -0.046254538 0.017405361
0.016590601 -0.0451633 0.016304284
0.018158168 -0.046828959 0.015006661
0.019042131 -0.046653219 0.0099902451
-0.026345883 -0.045164373 0.0081674159
-0.025924981 -0.046088856 0.010210723
-0.025289999 -0.046689231 0.011026889
-0.023957616 -0.045998622 0.012002558
-0.023147408 -0.046294816 0.013226241
-0.022007 -0.045927651 0.012441903
-0.021377202 -0.046641167 0.013326228
-0.020157663 -0.046074662 0.013965756
-0.019473003 -0.046735208 0.014438987
-0.017655835 -0.044604212 0.015343517
-0.017898191 -0.047728505 0.017679632
-0.01601935 -0.045231108 0.018225431
-0.015213087 -0.045639262 0.019568086
-0.014151249 -0.045283996 0.020072162
-0.013054642 -0.044758771 0.020393819
-0.0122523 -0.045239262 0.020668626
-0.011434278 -0.04573711 0.02112782
-0.010419831 -0.045468353 0.02112782
-0.0094244396 -0.04523731 0.020999491
-0.0085806865 -0.04576366 0.020790935
-0.0075998874 -0.045599323 0.020973742
-0.0064710076 -0.044372622 0.020950168
-0.0055848407 -0.044678725 0.020898223
-0.0046657757 -0.044791445 0.020609319
-0.0038661063 -0.046393275 0.020593494
-0.0028085667 -0.044937067 0.020385206
-0.0019072776 -0.045774661 0.020515919
-0.00094297912 -0.045263 0.020424515
0 -0.04450525 0.020186216
0.00095358677 -0.045772165 0.020281702
0.0019076433 -0.045783438 0.020369262
0.0028184424 -0.045095079 0.019928038
0.003784176 -0.045410112 0.020525545
0.0046618134 -0.044753406 0.020570636
0.0056824931 -0.045459945 0.02060324
0.0065721306 -0.045066036 0.020422399
0.0075277211 -0.045166329 0.020445704
0.0085527115 -0.045614459 0.020331562
0.0093598384 -0.044927225 0.02010271
0.010383632 -0.045310393 0.020076156
0.011005044 -0.044020176 0.019980013
0.012293491 -0.045391351 0.019908667
0.013164674 -0.045136027 0.01993078
0.014160388 -0.045313243 0.019358426
0.014882687 -0.044648059 0.018556774
0.016069053 -0.045371439 0.017565936
0.017300744 -0.046135314 0.016629696
0.018112848 -0.045758776 0.015148669
0.018451313 -0.044283152 0.011702776
0.020684393 -0.047278613 0.0052648485
-0.02718153 -0.045626141 0.0082920492
-0.0261709 -0.045556754 0.010228425
-0.024202909 -0.043751415 0.01102218
-0.023897888 -0.044928033 0.011899799
-0.022670886 -0.044397149 0.013414323
-0.021672046 -0.044286355 0.012646407
-0.021639353 -0.046229526 0.013368964
-0.019997511 -0.044756334 0.014092475
-0.019257145 -0.04525429 0.014649838
-0.018146094 -0.044887707 0.016203493
-0.017533964 -0.045783129 0.018364787
-0.015976608 -0.044170626 0.019404829
-0.015060773 -0.044241022 0.01985088
-0.014076976 -0.044107858 0.020401657
-0.013251443 -0.044486988 0.020979941
-0.012214852 -0.044161391 0.021047264
-0.011275397 -0.044161972 0.021222621
-0.010398867 -0.044431522 0.021142244
-0.0093797799 -0.044084966 0.020893455
-0.0084269429 -0.044007368 0.020430833
-0.0075831763 -0.04455116 0.020710021
-0.0066577783 -0.044702224 0.020585179
-0.005651304 -0.044268548 0.020451516
-0.0049022199 -0.046080865 0.020238489
-0.003783134 -0.044451825 0.020217717
-0.0027578538 -0.043206379 0.020122886
-0.0019151706 -0.04500651 0.020350546
-0.00094180403 -0.04426479 0.020350546
0 -0.044187561 0.020186216
0.00095741136 -0.044998333 0.020174205
0.0018760307 -0.044086721 0.020215631
0.0028343035 -0.044404089 0.019928038
0.0037975211 -0.044620872 0.0202097
0.004664165 -0.043843154 0.020528913
0.0056030243 -0.043890353 0.02052629
0.0065997471 -0.044312589 0.020374149
0.0073544765 -0.043207549 0.020376056
0.0083254604 -0.043477401 0.020422399
0.0093773417 -0.044073507 0.020213723
0.010216525 -0.043652423 0.020071507
0.011249802 -0.044061724 0.020040035
0.011999389 -0.043382406 0.019979984
0.013103873 -0.043991573 0.020010203
0.014104392 -0.044193763 0.019792706
0.0149019 -0.043774329 0.018828154
0.015819212 -0.043735471 0.018049687
0.017045021 -0.044506446 0.017195374
0.017484257 -0.043250531 0.01540187
0.01920478 -0.045131233 0.01386553
0.020678967 -0.046281498 0.0058787167
-0.026540611 -0.043602433 0.0081466138
-0.025577402 -0.043576315 0.0088887513
-0.024645224 -0.043603089 0.010962635
-0.023912547 -0.043999087 0.011564285
-0.022826631 -0.043751039 0.013328224
-0.021810124 -0.043620247 0.012553632
-0.021174155 -0.044273231 0.013328224
-0.019788632 -0.043346528 0.014160126
-0.019141011 -0.044024326 0.015154749
-0.018159557 -0.043965243 0.016168863
-0.017716665 -0.045275919 0.018364787
-0.016052851 -0.043437127 0.019375294
-0.015169578 -0.043612536 0.019833624
-0.014263981 -0.043742873 0.020286649
-0.013042133 -0.042852722 0.020844817
-0.012264462 -0.04339733 0.02101472
-0.011347521 -0.043498829 0.021185309
-0.010421412 -0.04358045 0.021013916
-0.0093374951 -0.042952478 0.020833999
-0.0085161552 -0.043527015 0.020560175
-0.0075425212 -0.043369498 0.020835608
-0.0064916289 -0.042659275 0.020804971
-0.0056573856 -0.04337329 0.020802975
-0.0046469797 -0.042752218 0.020500958
-0.0037196393 -0.042775851 0.020451516
-0.0028686211 -0.043985523 0.020238489
-0.0018967141 -0.043624423 0.020061761
-0.00092464912 -0.04253386 0.020124137
0 -0.043162219 0.020266622
0.00093708676 -0.04310599 0.020097196
0.0018928121 -0.043534677 0.019964069
0.0028828874 -0.044204272 0.019911945
0.003741587 -0.04302825 0.020190537
0.0046951417 -0.043195304 0.020395756
0.0056284899 -0.043151755 0.020341426
0.0065530762 -0.043063074 0.020291686
0.0076122563 -0.043770473 0.020371526
0.0084772054 -0.043327939 0.020336032
0.0094465949 -0.043454338 0.02009657
0.010319511 -0.043154318 0.020071238
0.011270734 -0.043204483 0.019984871
0.012155934 -0.043013304 0.019959778
0.01349851 -0.044352248 0.019975752
0.013975192 -0.042857256 0.019893646
0.015236833 -0.043805897 0.018724889
0.015948262 -0.04315412 0.01797694
0.01672668 -0.042745959 0.017294019
0.018112116 -0.043850388 0.015388459
0.018896224 -0.043461312 0.013815224
0.020532768 -0.04497654 0.0061785281
-0.026641998 -0.042817496 0.0065783858
-0.025698176 -0.042830292 0.0081843436
-0.024913408 -0.04311936 0.010493964
-0.023831215 -0.042896189 0.010925263
-0.023194041 -0.043488827 0.01313743
-0.021418864 -0.041906476 0.011322081
-0.021330245 -0.043630045 0.013185412
-0.019883931 -0.042608421 0.01401633
-0.019485112 -0.043841504 0.01539129
-0.017769067 -0.042084631 0.016876251
-0.017770994 -0.044427484 0.018481821
-0.01607929 -0.042562827 0.019381583
-0.01504923 -0.042325959 0.019999355
-0.014279093 -0.042837277 0.020207375
-0.013129595 -0.042202268 0.020900279
-0.012451051 -0.043099791 0.021060646
-0.01118702 -0.041951325 0.021222621
-0.010226676 -0.041836403 0.021115601
-0.0095090913 -0.042790912 0.020852804
-0.0085735023 -0.042867512 0.02077651
-0.0075183967 -0.042290982 0.020795614
-0.0066109099 -0.042498708 0.020764083
-0.0056195385 -0.042146537 0.02071932
-0.0046812808 -0.042131525 0.020468324
-0.003752446 -0.042215019 0.020468324
-0.002832321 -0.042484812 0.020319611
-0.0018416623 -0.041437402 0.020116627
-0.00094199652 -0.042389844 0.020124137
0 -0.042079944 0.020097196
0.00092858303 -0.041786235 0.020174205
0.001867026 -0.042008083 0.020427644
0.0027939104 -0.041908655 0.019998908
0.0037397647 -0.042072352 0.020287484
0.0047477339 -0.042729605 0.020494282
0.0056217336 -0.042163003 0.020568609
0.0065443399 -0.042070758 0.020359725
0.007509131 -0.042238861 0.020497411
0.0084083732 -0.042041868 0.02052781
0.0093408637 -0.042033888 0.020453483
0.010437191 -0.042697597 0.020504147
0.011411535 -0.042793255 0.020336032
0.012310039 -0.042611673 0.020266056
0.013208076 -0.042454533 0.020311147
0.01394277 -0.041828308 0.019975752
0.015206165 -0.042767338 0.019207835
0.015737552 -0.041658226 0.018161237
0.016909251 -0.042273127 0.017356902
0.018271266 -0.043274049 0.015490532
0.018905394 -0.042537138 0.013886869
0.020836506 -0.044649657 0.0061995089
-0.026037257 -0.042431086 0.0064355731
-0.024474327 -0.04141809 0.0081422031
-0.02445107 -0.043033883 0.010067314
-0.023326153 -0.042764615 0.011125475
-0.021873083 -0.041844159 0.010341018
-0.02201928 -0.04403856 0.011398286
-0.019913899 -0.041724358 0.01325956
-0.01923964 -0.042327207 0.014428109
-0.01822665 -0.042209085 0.016162634
-0.01766295 -0.0431761 0.018561095
-0.015946148 -0.041272387 0.019477725
-0.015121785 -0.041584909 0.019742757
-0.014242936 -0.041779276 0.020076364
-0.013199917 -0.041485455 0.020604134
-0.012107574 -0.040979482 0.021047264
-0.011270707 -0.041325927 0.021142244
-0.01049313 -0.041972522 0.020980954
-0.0094569381 -0.041610528 0.020835966
-0.0084596314 -0.041358199 0.020533919
-0.0076244352 -0.041934393 0.020757973
-0.00655946 -0.041230891 0.020789057
-0.0056581046 -0.041492768 0.020568669
-0.0047061043 -0.041413717 0.020239323
-0.0037723056 -0.04149536 0.020792037
-0.0028340467 -0.041566018 0.020384908
-0.0018976862 -0.041749094 0.020412922
-0.00094153528 -0.041427553 0.020412922
0 -0.041508168 0.020281702
0.00094641303 -0.041642174 0.020281702
0.0018434211 -0.040555265 0.020456165
0.0028591058 -0.041933551 0.019998908
0.0037708424 -0.041479267 0.020236373
0.0045667929 -0.04018778 0.020262569
0.0056281094 -0.0412728 0.020294577
0.0066990051 -0.042108033 0.02020219
0.0074839825 -0.041161902 0.02022177
0.0086637158 -0.042355947 0.020502239
0.0093246689 -0.041028541 0.020502239
0.010224282 -0.040897127 0.020485431
0.011318975 -0.041502908 0.020377845
0.012090146 -0.040920492 0.02040571
0.012955079 -0.040715963 0.020422399
0.014185357 -0.041610379 0.020377845
0.014765016 -0.040603794 0.019806474
0.01591301 -0.041186612 0.018782139
0.016644398 -0.040686306 0.017894506
0.017556645 -0.040657494 0.015517592
0.019031372 -0.041869018 0.013816804
0.020856272 -0.043698855 0.0052706301
-0.02604275 -0.04147549 0.0050025582
-0.025286416 -0.041819841 0.0063744783
-0.023970848 -0.041229859 0.0080132782
-0.023694772 -0.042453133 0.0096808374
-0.022192778 -0.041490845 0.0087112188
-0.021471946 -0.041967895 0.0097756684
-0.020404071 -0.041779764 0.010497779
-0.01947147 -0.041863661 0.013356596
-0.018271022 -0.041350204 0.015014708
-0.017446244 -0.04167714 0.017994314
-0.01616087 -0.040877495 0.018410414
-0.01497492 -0.040245097 0.019656926
-0.014122603 -0.040484797 0.020011753
-0.013260776 -0.040729526 0.020329267
-0.012255197 -0.040536422 0.020979941
-0.01126949 -0.040382341 0.021130025
-0.010352562 -0.04046911 0.020884395
-0.0092608705 -0.039821744 0.020835966
-0.0084735313 -0.040484652 0.020517111
-0.0075646159 -0.040659811 0.020610273
-0.0066129481 -0.040622395 0.020789057
-0.0057321209 -0.041080199 0.020568669
-0.0046991957 -0.040413085 0.020239323
-0.0037311718 -0.040110096 0.020738274
-0.002831365 -0.040582899 0.020606846
-0.0018717531 -0.040242694 0.020350546
-0.00092948315 -0.039967775 0.020311564
0 -0.04087507 0.020237058
0.00092771492 -0.039891742 0.020319611
0.0018843136 -0.040512744 0.020415604
0.0028386817 -0.040687773 0.020246476
0.0036967841 -0.039740428 0.020246476
0.004779675 -0.041105207 0.02017507
0.0057511423 -0.041216522 0.020262569
0.0064533423 -0.039641961 0.02020219
0.0075246249 -0.040444858 0.020188481
0.0084461002 -0.040353589 0.02022177
0.0092950054 -0.03996852 0.020415872
0.010398825 -0.040649951 0.02050212
0.011370419 -0.040743999 0.020385355
0.012103879 -0.040035907 0.020422399
0.013482585 -0.041410796 0.020385355
0.013968143 -0.040042009 0.020381123
0.015290757 -0.041093908 0.019993782
0.016016919 -0.040513385 0.018862456
0.016751114 -0.040016551 0.018060416
0.018065039 -0.040884037 0.015504986
0.01858967 -0.03996779 0.013299555
0.020473121 -0.041921154 0.0054654181
-0.024447419 -0.041071665 0.005549103
-0.023467259 -0.041067701 0.0064917207
-0.022585155 -0.041242458 0.0066367686
-0.021477638 -0.041002762 0.0078843832
-0.020794395 -0.041588791 0.0095186532
-0.019293949 -0.040517293 0.01151076
-0.018390497 -0.040652681 0.013985574
-0.017626332 -0.041128106 0.016515225
-0.015964353 -0.039441343 0.018094391
-0.014979054 -0.039320018 0.019468695
-0.014174007 -0.03968722 0.019682467
-0.013163726 -0.039491177 0.020418942
-0.012228451 -0.039507303 0.020618677
-0.011295996 -0.039535984 0.020911634
-0.010272268 -0.039221387 0.020835966
-0.0094383964 -0.039641265 0.020587206
-0.0084654344 -0.039505359 0.020560175
-0.0075935083 -0.039865918 0.020513535
-0.0066309748 -0.039785851 0.020711064
-0.0056835581 -0.039784905 0.020513535
-0.0046434817 -0.039005246 0.020461261
-0.0037751298 -0.039638862 0.020708472
-0.0028625056 -0.040075079 0.020606846
-0.0018697093 -0.039263897 0.020422727
-0.00095699716 -0.040193882 0.020321459
0 -0.039456457 0.020129561
0.00094577787 -0.03972267 0.020257175
0.0018661728 -0.039189626 0.020388365
0.0027717776 -0.038804885 0.020534217
0.0037841534 -0.039733611 0.020433158
0.0046831123 -0.039338142 0.020417511
0.0054980931 -0.038486652 0.020505011
0.0065319669 -0.039191801 0.020219922
0.0075964341 -0.039881278 0.020356864
0.0085532153 -0.039915007 0.020439059
0.0093835359 -0.039410848 0.020688027
0.010329259 -0.039438989 0.020777076
0.011328177 -0.039648619 0.02050212
0.01216824 -0.039312772 0.020703673
0.013485354 -0.040456064 0.020583212
0.014274544 -0.039968725 0.020555347
0.01503267 -0.039460756 0.020133138
0.015511779 -0.03832322 0.019169062
0.016771112 -0.039132591 0.018136382
0.017920667 -0.039614107 0.015504986
0.018843297 -0.039570924 0.013807625
0.020949118 -0.041898236 0.0061123073
-0.022329718 -0.041614477 0.005312413
-0.02083295 -0.040673856 0.0064984858
-0.019742349 -0.040471815 0.0081290901
-0.018883649 -0.040748928 0.010461271
-0.017763553 -0.040461425 0.014141113
-0.0161126 -0.0388598 0.01581493
-0.015137117 -0.038788863 0.018695652
-0.014388013 -0.039327234 0.019044429
-0.01314764 -0.038503803 0.019658387
-0.012238073 -0.038596999 0.019950002
-0.011304148 -0.038622502 0.020577788
-0.010372937 -0.038662761 0.020344406
-0.0095433295 -0.039127652 0.020337373
-0.0084111979 -0.03831768 0.020445496
-0.0074614109 -0.038239729 0.020409822
-0.0066421325 -0.038903918 0.020478874
-0.0056572729 -0.03865803 0.02038756
-0.0047938176 -0.039309304 0.020047516
-0.0037905301 -0.038852934 0.020303994
-0.0027974125 -0.038231306 0.02013734
-0.0018899704 -0.038744394 0.020102561
-0.00093517709 -0.03834226 0.020044357
0 -0.038264882 0.019848019
0.00094785984 -0.038862254 0.019946545
0.0018777754 -0.038494397 0.019781619
0.0028422284 -0.038843788 0.019948393
0.0037810183 -0.038755439 0.019813746
0.004682241 -0.038394377 0.019534677
0.0057468964 -0.039270461 0.019778967
0.0066754203 -0.039098892 0.019436628
0.0074102017 -0.037977286 0.019765228
0.0084095523 -0.038310185 0.019778967
0.0094329985 -0.038675293 0.019856274
0.01056134 -0.039364997 0.019986391
0.011452616 -0.039129771 0.019659162
0.012143794 -0.038299657 0.01968652
0.012987251 -0.038034093 0.01957944
0.014317635 -0.039134871 0.019628882
0.014786179 -0.037889585 0.01883325
0.016141597 -0.038929734 0.018139005
0.016946699 -0.038600817 0.016330153
0.017743779 -0.038289208 0.014282107
0.01874969 -0.038436864 0.012242883
0.020987676 -0.040975939 0.0051836967
-0.018902225 -0.039794158 0.0064602196
-0.01765506 -0.039233465 0.009119451
-0.016009085 -0.037668433 0.011595756
-0.014933424 -0.037333559 0.01565212
-0.014207087 -0.037885565 0.017496556
-0.01329442 -0.037984058 0.018704474
-0.012262671 -0.037731297 0.019369185
-0.011516281 -0.038387604 0.019754171
-0.01040247 -0.037827164 0.019731909
-0.0093550039 -0.037420016 0.019754171
-0.0086323274 -0.038365897 0.020233065
-0.0074819187 -0.037409592 0.020152956
-0.0065158317 -0.037233323 0.020227283
-0.0057213078 -0.038142052 0.020126492
-0.0047331667 -0.037865333 0.019876093
-0.0037373742 -0.03737374 0.020022243
-0.0028318104 -0.037757471 0.019876868
-0.0018804643 -0.037609287 0.019671768
-0.00093646045 -0.03745842 0.019642651
0 -0.037907317 0.019612223
0.00093542394 -0.037416957 0.019545674
0.0019002201 -0.038004402 0.01939851
0.0028266886 -0.037689183 0.019604892
0.0037500563 -0.037500564 0.019483358
0.0047066445 -0.037653156 0.019107908
0.0056258305 -0.037505537 0.019395709
0.006578139 -0.037589367 0.019197792
0.0076135993 -0.038067997 0.019263119
0.0083947657 -0.037310068 0.019226313
0.0093763396 -0.037505358 0.019247651
0.010220099 -0.037163999 0.019053578
0.011062096 -0.036873654 0.01918149
0.012446477 -0.038296852 0.019256502
0.013592164 -0.038834754 0.018999755
0.013825038 -0.036866769 0.018828154
0.015195654 -0.037989132 0.018193305
0.015913805 -0.037444245 0.017152399
0.017008154 -0.037795894 0.015472829
0.017687131 -0.037236065 0.012057126
0.018680323 -0.037360646 0.0094944239
-0.015883721 -0.036439128 0.0061677396
-0.015151739 -0.036932364 0.011391133
-0.014411775 -0.037470616 0.014235824
-0.013110954 -0.036523372 0.017071128
-0.012322845 -0.036968533 0.01846379
-0.011286595 -0.036681432 0.019194603
-0.010366232 -0.036753003 0.019072294
-0.0094585996 -0.03688854 0.019087136
-0.0084474087 -0.036605436 0.019312143
-0.0075940671 -0.037021078 0.019393414
-0.0067334599 -0.037514988 0.019584626
-0.0056997067 -0.037048094 0.019393414
-0.0046965694 -0.036633242 0.019079208
-0.003799798 -0.037048031 0.019215196
-0.0028382039 -0.036896653 0.019024879
-0.0018711902 -0.036488209 0.018747091
-0.00093956722 -0.036643121 0.018823653
0 -0.036174763 0.018902123
0.00094200624 -0.036738243 0.018854648
0.0018949703 -0.036951922 0.018423021
0.0028645447 -0.037239082 0.018333316
0.0037768721 -0.036824502 0.018086702
0.0047127265 -0.036759265 0.018155217
0.0056353239 -0.036629606 0.018305689
0.0065819593 -0.036670916 0.018262684
0.0075999196 -0.03704961 0.018512815
0.0085456148 -0.037030999 0.018520355
0.0094537232 -0.036869522 0.018427521
0.010339413 -0.036657918 0.01783222
0.011271236 -0.036631517 0.018165886
0.012192122 -0.036576364 0.018437356
0.012923266 -0.036000524 0.018456995
0.014050751 -0.036531951 0.018436521
0.015646951 -0.038139444 0.017137021
0.015926184 -0.036536537 0.015422016
0.016736181 -0.036261726 0.013079494
0.017577138 -0.036079388 0.010688543
0.018657122 -0.036381386 0.0066919923
-0.013990297 -0.035442084 0.0085652173
-0.013348854 -0.036232606 0.013269752
-0.012188046 -0.035626598 0.01710999
-0.011413747 -0.036143534 0.018033355
-0.010286349 -0.035534658 0.017853945
-0.0096237017 -0.036570068 0.017989635
-0.0084736636 -0.035777692 0.018419325
-0.00754864 -0.035856038 0.018652409
-0.0065720817 -0.035677016 0.018716276
-0.0056535616 -0.035805888 0.018749028
-0.0047260961 -0.035918329 0.017953724
-0.0037731784 -0.035845198 0.018437803
-0.0028003131 -0.035470635 0.018498451
-0.0018790992 -0.035702884 0.018292218
-0.00094529003 -0.035921022 0.018281788
0 -0.036187597 0.018234611
0.00093650969 -0.035587367 0.018150359
0.0018630021 -0.035397038 0.017778009
0.0027825697 -0.035245884 0.017138243
0.0037961041 -0.036062989 0.016830206
0.0046386039 -0.035253391 0.016846806
0.0055599143 -0.035212792 0.017138243
0.0066561536 -0.036133405 0.016889811
0.0074740211 -0.035501599 0.017082125
0.0084720179 -0.035770744 0.016761363
0.0094597312 -0.035946976 0.016388476
0.010254166 -0.03542348 0.01610285
0.0113194 -0.035844766 0.016480088
0.012248258 -0.035802599 0.016731679
0.013219179 -0.035880629 0.016593009
0.014099974 -0.035719935 0.017014742
0.014595951 -0.034665383 0.014268696
0.015802793 -0.035323892 0.012288034
0.017011231 -0.035912599 0.010692745
0.018286349 -0.036572699 0.0069223642
-0.012197364 -0.034715574 0.0060091615
-0.011251207 -0.034691222 0.013858259
-0.01037804 -0.034907956 0.013845146
-0.0092133256 -0.034089305 0.013870358
-0.0084351283 -0.034677748 0.015796155
-0.0075646159 -0.034986351 0.015850574
-0.0065382663 -0.034559406 0.015972227
-0.0056501813 -0.034842785 0.015909195
-0.0047327289 -0.035022192 0.015737116
-0.0037601939 -0.034781791 0.015954107
-0.0028423399 -0.035055526 0.01605469
-0.0019076054 -0.035290699 0.015788436
-0.00093320257 -0.034528494 0.015873343
0 -0.034485735 0.016291201
0.00094722648 -0.035047378 0.01568228
0.0019029714 -0.035204969 0.015535891
0.0028275237 -0.034872793 0.015398562
0.0037358054 -0.034556199 0.015826583
0.0047168769 -0.03490489 0.016068667
0.0057507767 -0.035463125 0.016077369
0.006478521 -0.03424361 0.015242308
0.0075621777 -0.034975071 0.014938653
0.0085552773 -0.035171695 0.013622224
0.0093742469 -0.034684714 0.013496578
0.010352562 -0.034822255 0.013307422
0.011367492 -0.03504977 0.01439479
0.012130815 -0.034526166 0.014336228
0.013462964 -0.035580687 0.013979226
0.014082388 -0.034736559 0.013903022
0.015261513 -0.035292249 0.011332482
0.016110126 -0.035063215 0.0079867244
0.016832249 -0.034599625 0.0051409304
0.011832377 -0.035497133 0.0052681267
0.012742147 -0.035285946 0.0081367791
0.013441343 -0.034563452 0.0081802309
0.014391909 -0.034540582 0.0080076158
0 0 0 1 0 0 0 1 0 0 0 1 0 0 0 0 0 1278 1 0 0
