ply
format ascii 1.0
comment PCL generated
element vertex 1284
property float x
property float y
property float z
element camera 1
property float view_px
property float view_py
property float view_pz
property float x_axisx
property float x_axisy
property float x_axisz
property float y_axisx
property float y_axisy
property float y_axisz
property float z_axisx
property float z_axisy
property float z_axisz
property float focal
property float scalex
property float scaley
property float centerx
property float centery
property int viewportx
property int viewporty
property float k1
property float k2
end_header
0.0023046201 -0.076052465 0.0050770342
0.003273427 -0.072015397 0.0050418675
0.0045555253 -0.075166166 0.0050213039
0.0056553073 -0.074650057 0.005148232
0.0079547418 -0.075001851 0.0051600635
-0.0010634096 -0.069121622 0.005592227
0 -0.069719143 0.0070396662
0.0010794149 -0.070161961 0.010528654
0.0020656998 -0.067135237 0.011203706
0.0032551426 -0.07052809 0.011991292
0.0042848401 -0.069628648 0.012459099
0.0051021469 -0.066327907 0.012445629
0.0064995149 -0.070411414 0.01227349
0.0078929663 -0.073291823 0.011761278
0.0081653642 -0.066343583 0.0091020167
0.0094472887 -0.06823042 0.0067158937
0.010450739 -0.067929804 0.0054976344
-0.0046437257 -0.059439689 0.0052411258
-0.0037221445 -0.059554312 0.0052963793
-0.0028831486 -0.061507169 0.0075474381
-0.0018734366 -0.059949972 0.010942519
-0.00094001385 -0.060160886 0.011473864
0 -0.059175532 0.01352334
0.00090209435 -0.057734039 0.014529794
0.0018696629 -0.059829213 0.015435338
0.002782905 -0.05936864 0.015654117
0.0036622554 -0.058596086 0.015412092
0.0046784165 -0.059883732 0.01559633
0.0057183425 -0.060995653 0.015430063
0.0064125485 -0.058629014 0.015430063
0.0075137676 -0.060110141 0.013373196
0.0083665587 -0.059495531 0.010462195
0.0094252322 -0.060321484 0.0079098344
0.011059777 -0.064347796 0.0055027604
-0.0056015817 -0.058816608 0.0056366622
-0.0046848841 -0.059029542 0.0059613883
-0.0037679784 -0.059345659 0.010990202
-0.0028510641 -0.059872344 0.014058113
-0.0018427868 -0.058047786 0.014592707
-0.00095847482 -0.060383912 0.015297025
0 -0.058198076 0.016011238
0.00093929924 -0.059175853 0.016520977
0.001881381 -0.059263505 0.017031103
0.0027873297 -0.058533922 0.017947435
0.0037241504 -0.058655366 0.017662287
0.0046973624 -0.059186768 0.017769665
0.0056103468 -0.058908641 0.017784297
0.0065025333 -0.058522798 0.018050313
0.0074593602 -0.058742464 0.015643954
0.0084893815 -0.059425667 0.014884889
0.0093243718 -0.058743544 0.011389047
0.010424152 -0.059701961 0.0077628195
0.011146095 -0.058516998 0.0051014423
-0.0065856865 -0.058330365 0.0056701303
-0.0059142988 -0.061114423 0.0095871687
-0.004983847 -0.061799701 0.011909276
-0.0039543142 -0.061291866 0.015787184
-0.0027731091 -0.05731092 0.018133909
-0.0018848109 -0.058429137 0.019298494
-0.00092451449 -0.057319898 0.019283354
0 -0.059150849 0.019310921
0.00096354075 -0.059739526 0.019250423
0.0018627712 -0.057745907 0.019178271
0.0028686328 -0.059285078 0.019847363
0.0037982163 -0.058872353 0.019209117
0.0046313587 -0.057428844 0.019224793
0.0056958734 -0.058857359 0.019183427
0.0065013142 -0.057583068 0.020124376
0.0074311872 -0.057591703 0.017830551
0.0086434102 -0.059543494 0.016449094
0.0095587904 -0.0592645 0.013403863
0.010276991 -0.057924859 0.010167271
0.01121046 -0.057920709 0.0073829293
-0.0076362509 -0.058226414 0.0054295063
-0.0066713775 -0.058136288 0.0062708557
-0.0056801974 -0.057748672 0.011948615
-0.0046538981 -0.056777559 0.016869605
-0.003784599 -0.057715133 0.01817432
-0.0028993404 -0.058953252 0.019822299
-0.0018537652 -0.056539841 0.019688725
-0.00094625482 -0.057721544 0.020452768
0 -0.058494318 0.020339161
0.00092719583 -0.056558944 0.02030158
0.001885794 -0.057516716 0.020513535
0.0028122065 -0.057181533 0.020604074
0.0037212747 -0.056749441 0.020438015
0.0047580148 -0.058047783 0.020438015
0.0055227494 -0.056147952 0.020397514
0.0066236458 -0.057720341 0.020487189
0.0076221265 -0.058118716 0.019682914
0.008592519 -0.058238186 0.017733783
0.0097140791 -0.059255879 0.015818208
0.010205385 -0.0565935 0.01227659
0.011255053 -0.057213187 0.0074643195
-0.0088303331 -0.058868889 0.0053295493
-0.0075027873 -0.056270905 0.0075471103
-0.0069266898 -0.059371628 0.011933148
-0.0064784959 -0.064784959 0.016815752
-0.0054491698 -0.065390036 0.018006682
-0.004466149 -0.066992238 0.019740522
-0.0028266334 -0.056532666 0.020585626
-0.0018396302 -0.055188905 0.020707905
-0.0009648283 -0.057889696 0.020660788
0 -0.055229783 0.020605385
0.00095477991 -0.057286795 0.02058959
0.0018924903 -0.056774709 0.02060771
0.0028204219 -0.056408439 0.021225125
0.0037504933 -0.056257401 0.020906001
0.004771715 -0.057260584 0.020884961
0.005653522 -0.056535222 0.020890325
0.0066419677 -0.056931149 0.020931214
0.0075247064 -0.056435298 0.020098299
0.0083174454 -0.055449639 0.019299775
0.0094529241 -0.056717545 0.017262936
0.010376777 -0.056600604 0.014808387
0.011152764 -0.055763818 0.0099167526
0.012848758 -0.059301961 0.0057196915
-0.0097907837 -0.057765622 0.0058288574
-0.0090473294 -0.059310269 0.0074952543
-0.0075670294 -0.055806845 0.012996495
-0.0064752451 -0.054577064 0.016648114
-0.0061416538 -0.060392927 0.01810953
-0.0054193814 -0.063948698 0.01958707
-0.0039287889 -0.057949636 0.020275027
-0.0028275254 -0.055607997 0.021184802
-0.0019050235 -0.056198191 0.021347374
-0.00093132508 -0.054948177 0.021511316
0 -0.055052564 0.021445096
0.00094015646 -0.05546923 0.021142989
0.0018279162 -0.053923529 0.021277905
0.0028669918 -0.056384172 0.021566182
0.0037706825 -0.055617567 0.021495283
0.0046261302 -0.054588336 0.021512985
0.0056194961 -0.055258378 0.021351129
0.0065707327 -0.05538189 0.021358907
0.0073970114 -0.054552957 0.021116048
0.008659876 -0.056770299 0.020231992
0.0092805419 -0.0547552 0.019244909
0.010237396 -0.054909669 0.017424375
0.011569073 -0.056881279 0.013008416
0.01275298 -0.057878911 0.0076268911
-0.011728226 -0.056686427 0.0058639348
-0.010647825 -0.056143079 0.0065987408
-0.0094527267 -0.054825813 0.0081552565
-0.0088839466 -0.057252098 0.012302458
-0.0074222255 -0.053811137 0.016479552
-0.0065288581 -0.054096252 0.017696887
-0.0056091808 -0.054222081 0.018753648
-0.0046120458 -0.053499728 0.01958707
-0.0036651322 -0.053144418 0.020244807
-0.0028561756 -0.055219397 0.020872563
-0.0019233953 -0.055778466 0.0208745
-0.00092497567 -0.053648587 0.02075395
0 -0.054341223 0.020635098
0.00094593002 -0.054863941 0.02063328
0.0018873347 -0.054732706 0.020896077
0.0027991617 -0.054117125 0.0211097
0.0037089882 -0.053780328 0.021090299
0.004718028 -0.054729123 0.021097392
0.0057370858 -0.055458494 0.021098912
0.0065446324 -0.054226954 0.021139383
0.0075172326 -0.054499935 0.020924658
0.0085485168 -0.055090442 0.019842267
0.0092736958 -0.053787433 0.019024879
0.010324311 -0.05443728 0.017234474
0.011228467 -0.054270927 0.013549984
0.01264602 -0.056420706 0.0074320734
-0.021526869 -0.061351575 0.0052136779
-0.020176679 -0.06053004 0.0053449869
-0.020112727 -0.063690305 0.0053988695
-0.018355897 -0.061546244 0.0052233934
-0.018201223 -0.064841852 0.0051870048
-0.01675299 -0.063661359 0.0054721236
-0.014788579 -0.060210645 0.0059604645
-0.01417905 -0.062169682 0.0067354143
-0.013456195 -0.063916929 0.0075156987
-0.011858778 -0.061450034 0.0093016922
-0.011515887 -0.065640561 0.012260556
-0.0087391092 -0.055347688 0.01324749
-0.0075916299 -0.054090362 0.016917109
-0.0066246525 -0.053943601 0.017902136
-0.0056258743 -0.053445809 0.019340336
-0.0046058483 -0.05250667 0.019550711
-0.0037841995 -0.053924844 0.0201689
-0.0027899637 -0.053009313 0.020787865
-0.0018891247 -0.053840056 0.020884395
-0.00094170793 -0.05367735 0.020584077
0 -0.052691337 0.020650983
0.00092702609 -0.052840486 0.020710677
0.001887297 -0.053787965 0.020829141
0.002784664 -0.052908614 0.021083623
0.0038068607 -0.054247767 0.021060079
0.0048071756 -0.054801803 0.021097273
0.0057073771 -0.05422008 0.021098912
0.0067278366 -0.05478381 0.021237463
0.0075677535 -0.053920243 0.020924658
0.0083515681 -0.052893266 0.019842267
0.0093289092 -0.053174786 0.019024879
0.010289264 -0.053317096 0.016680479
0.011238462 -0.053382695 0.013744801
0.012996473 -0.056984536 0.0078074038
0.013544974 -0.055147395 0.0050899386
-0.022111244 -0.056283168 0.0053036213
-0.020688644 -0.055169716 0.0063668191
-0.019337229 -0.054144241 0.0072257817
-0.018859403 -0.055585608 0.0078814626
-0.017575245 -0.054678541 0.0079350173
-0.016460951 -0.054224312 0.0075070858
-0.016023163 -0.056081071 0.0073671043
-0.014199403 -0.053011104 0.0074457824
-0.013938496 -0.055753984 0.0076518655
-0.012810192 -0.055182364 0.0094639659
-0.01170221 -0.054610316 0.010863751
-0.010838336 -0.055176985 0.012236238
-0.0098067783 -0.054917958 0.013163209
-0.0085563594 -0.053239573 0.016508162
-0.0076119043 -0.05328333 0.017770529
-0.0065984698 -0.052787758 0.018942177
-0.005725875 -0.053441498 0.019546688
-0.0047568004 -0.053276166 0.0196549
-0.0037533962 -0.052547548 0.020740449
-0.0028406973 -0.053026348 0.020884395
-0.0018638521 -0.05218786 0.021349758
-0.00095045648 -0.053225562 0.021249712
0 -0.054273184 0.02063328
0.00093894138 -0.052580718 0.020822078
0.0018149894 -0.050819702 0.020822078
0.0028284513 -0.052797757 0.021022081
0.0038603784 -0.054045297 0.020941734
0.0046306918 -0.051863745 0.02098608
0.0055899015 -0.052172411 0.021051466
0.0067097656 -0.053678125 0.021094859
0.0076304222 -0.053412955 0.020840734
0.0083167944 -0.051748946 0.019835293
0.0094468128 -0.052902155 0.018848211
0.010248787 -0.052175641 0.017056942
0.01123231 -0.052417446 0.014132351
0.0124405 -0.053589847 0.0072975755
0.013854955 -0.055419821 0.0050120056
-0.022403127 -0.053572696 0.0053321421
-0.021556558 -0.053891394 0.0071876943
-0.020438908 -0.053530473 0.0082123876
-0.019569132 -0.053815115 0.0099801421
-0.018439129 -0.053376425 0.010491282
-0.017432313 -0.0532654 0.010215372
-0.016661247 -0.053904034 0.010041118
-0.015455809 -0.053129345 0.0098080635
-0.014818201 -0.054333404 0.010296911
-0.013780418 -0.054137357 0.01070413
-0.012201023 -0.051619712 0.011917979
-0.011821009 -0.054179627 0.012718737
-0.010935195 -0.054675974 0.013294816
-0.0096134115 -0.052873764 0.016232699
-0.0086054327 -0.052588757 0.017543435
-0.0075151669 -0.051666774 0.018557161
-0.0065185064 -0.051216833 0.018918842
-0.0057794345 -0.052978151 0.019527495
-0.0046673911 -0.051341303 0.019643456
-0.0037403547 -0.051429879 0.020787865
-0.0028625417 -0.05247993 0.020884395
-0.0018652511 -0.051294405 0.021267235
-0.00094463793 -0.051955085 0.020646632
0 -0.052317191 0.020377427
0.00091447623 -0.050296195 0.020339459
0.0019369071 -0.053264946 0.020339459
0.0028391439 -0.052050974 0.020965904
0.0037111086 -0.051027745 0.020859778
0.0047136969 -0.051850665 0.020985126
0.0056467382 -0.051761765 0.020874232
0.0065594469 -0.051538512 0.021094173
0.0077067013 -0.052983571 0.02068001
0.0083269188 -0.050886728 0.019786149
0.0094331065 -0.051882088 0.01904282
0.010334868 -0.05167434 0.018050432
0.011397108 -0.052236747 0.014878303
0.012804305 -0.054172061 0.0072530508
0.013699426 -0.053819176 0.0053201616
-0.023240099 -0.05229022 0.0052008331
-0.022265222 -0.052274868 0.0073837638
-0.021518348 -0.052817762 0.0091786981
-0.02059794 -0.052966129 0.010861039
-0.019202074 -0.051845599 0.010975957
-0.018310107 -0.052039251 0.01159808
-0.017168708 -0.051506124 0.01141277
-0.016314987 -0.051824074 0.01141277
-0.015900483 -0.053664129 0.011804223
-0.01412533 -0.050851189 0.012414783
-0.013281179 -0.051227402 0.012546659
-0.012535466 -0.052070394 0.013608962
-0.011906138 -0.053577617 0.015599579
-0.010435644 -0.051229522 0.016637772
-0.0096234195 -0.051966466 0.017646402
-0.0085574128 -0.051344477 0.018575966
-0.0074739298 -0.050449029 0.018945903
-0.006637237 -0.051201545 0.01937902
-0.0056384746 -0.050746273 0.019642383
-0.0046352148 -0.050060317 0.02009204
-0.0037850542 -0.051098235 0.021135509
-0.0027777941 -0.050000295 0.021698058
-0.0019181917 -0.051791176 0.021940231
-0.00092857482 -0.050143041 0.021349758
0 -0.050386705 0.021215379
0.00093619205 -0.050554372 0.02104643
0.001904298 -0.051416043 0.02153483
0.0027766973 -0.049980551 0.021508127
0.003792854 -0.05120353 0.021177143
0.0047141234 -0.050912533 0.02122587
0.0055302605 -0.049772345 0.021116167
0.0066700783 -0.051454887 0.021319509
0.0074295755 -0.050149638 0.021039367
0.0084559759 -0.050735857 0.020299822
0.009437616 -0.050963122 0.019411594
0.010406161 -0.051084787 0.018262565
0.011196402 -0.05038381 0.014878303
0.012710449 -0.05279725 0.0072523654
0.01362734 -0.052562598 0.0054057539
-0.023258109 -0.051361658 0.0067824125
-0.021827683 -0.050298575 0.0096435845
-0.021340763 -0.051411837 0.01097551
-0.019829005 -0.050044633 0.01175946
-0.018988218 -0.050318778 0.012132317
-0.018474732 -0.051534776 0.013030469
-0.017081389 -0.0502952 0.013756156
-0.016359834 -0.051004186 0.013261646
-0.015436097 -0.051132072 0.013779938
-0.014290038 -0.050491467 0.013825178
-0.01349888 -0.051102903 0.013776749
-0.012427246 -0.050664924 0.015971899
-0.011229509 -0.049596999 0.016426235
-0.010587299 -0.051011536 0.017633706
-0.0096492097 -0.051140808 0.018557161
-0.0084736869 -0.049900599 0.018697172
-0.0075642499 -0.050113153 0.019231111
-0.0065170862 -0.049343653 0.01962927
-0.0056056785 -0.049516827 0.020138681
-0.0047693653 -0.050555274 0.021143407
-0.0037921984 -0.050246626 0.021572083
-0.0027851586 -0.049204465 0.022008538
-0.0018502194 -0.049030814 0.021922916
-0.00094827684 -0.050258674 0.021570206
0 -0.051453929 0.021215379
0.00093547878 -0.049580377 0.021010965
0.0018363245 -0.048662599 0.021053493
0.0027888149 -0.049269065 0.021496624
0.0038324189 -0.050779551 0.021159232
0.0046374332 -0.049156792 0.021126807
0.0056411433 -0.049830101 0.02101934
0.0066834367 -0.050603162 0.021243066
0.0074306885 -0.049228311 0.021002382
0.0085082334 -0.050104041 0.020262837
0.0093671288 -0.049645782 0.019479662
0.010208009 -0.049184043 0.018283337
0.011425416 -0.050462253 0.015541852
0.012788328 -0.052137028 0.0069465637
0.013767476 -0.052119728 0.0052569807
-0.02262914 -0.049029805 0.0078486502
-0.022252029 -0.050308935 0.01073584
-0.020825634 -0.049224224 0.011671811
-0.020110464 -0.049797341 0.012874991
-0.019571634 -0.050886247 0.014310688
-0.017864268 -0.048891682 0.01470989
-0.016853662 -0.04868836 0.015533775
-0.016283469 -0.04980826 0.015515268
-0.015116726 -0.049129359 0.015990734
-0.014648361 -0.050780986 0.015405089
-0.01347435 -0.050047588 0.015911281
-0.012246077 -0.048984308 0.016580075
-0.011660242 -0.050527714 0.016862303
-0.010771084 -0.050917849 0.017740279
-0.0092661073 -0.048183758 0.018672824
-0.0085664792 -0.049495209 0.018818378
-0.0074122571 -0.048179671 0.0192298
-0.0065487344 -0.048647739 0.019588381
-0.005683633 -0.04925815 0.020034939
-0.0046944725 -0.048822515 0.020730138
-0.0036601215 -0.04758158 0.021310687
-0.0028376679 -0.049186245 0.021572083
-0.0018805939 -0.048895441 0.021534592
-0.00093530805 -0.048636016 0.020785362
0 -0.049380951 0.020578712
0.000922387 -0.047964126 0.021003902
0.0018647475 -0.048483435 0.021529913
0.0027939691 -0.0484288 0.021152735
0.0036869375 -0.047930185 0.021050543
0.0046932534 -0.048809838 0.020982891
0.0056445086 -0.048919078 0.020770609
0.0065141818 -0.048391063 0.021419585
0.0074975672 -0.048734184 0.02087763
0.0084584448 -0.048871018 0.020167649
0.0093197254 -0.048462573 0.01936993
0.010467494 -0.049482699 0.018092632
0.01120626 -0.048560459 0.015332997
0.012582638 -0.050330553 0.0068052709
0.013746378 -0.051057976 0.0052701235
-0.024216475 -0.049401611 0.0067074001
-0.023298087 -0.049508434 0.0099687874
-0.022122061 -0.049053267 0.011249334
-0.021369392 -0.049538136 0.012538493
-0.020377779 -0.049488891 0.014536768
-0.018892435 -0.048175711 0.014910489
-0.017929172 -0.048125673 0.016067684
-0.017115727 -0.048494559 0.016953409
-0.016015468 -0.048046406 0.016934901
-0.015263004 -0.048650827 0.016804367
-0.014456633 -0.049152549 0.016293049
-0.013074494 -0.047628514 0.016786367
-0.01232536 -0.048353333 0.017650396
-0.011601128 -0.049304795 0.017652363
-0.010322806 -0.047860283 0.017967939
-0.0094757751 -0.048326455 0.018884122
-0.0087212045 -0.049420156 0.019007444
-0.0074537401 -0.047517594 0.019424647
-0.0065513374 -0.047731172 0.019633234
-0.0056204139 -0.047773518 0.020183027
-0.0047176653 -0.048120186 0.020861596
-0.0037618044 -0.047963005 0.02164197
-0.0028760878 -0.048893493 0.02180922
-0.0018925535 -0.048260115 0.021845073
-0.00093647232 -0.047760088 0.021252483
0 -0.046902269 0.021572024
0.00094195799 -0.048039857 0.021508127
0.0019193724 -0.048943993 0.021486759
0.0027830158 -0.047311269 0.02101934
0.0038254354 -0.048774302 0.021010518
0.0047417399 -0.048365746 0.020769686
0.0056335782 -0.047885414 0.020967513
0.0065035578 -0.047383063 0.021314919
0.0075141932 -0.047902979 0.020595253
0.0082934247 -0.046996072 0.020236224
0.0094684632 -0.048289161 0.019471407
0.010308061 -0.047791921 0.018360883
0.011305031 -0.048046384 0.015479624
0.012957348 -0.05083267 0.0065207183
-0.024266727 -0.048533455 0.0078957975
-0.022781193 -0.047460821 0.010928929
-0.021500645 -0.046740532 0.012132317
-0.021374807 -0.048579104 0.0144113
-0.0194242 -0.046248093 0.014941394
-0.019218775 -0.048046939 0.015926361
-0.017740618 -0.046685841 0.016934901
-0.017008331 -0.047245365 0.017366618
-0.015770109 -0.046382673 0.017080218
-0.015384844 -0.048077635 0.017185658
-0.013835345 -0.04611782 0.016872257
-0.01335509 -0.047696751 0.017659664
-0.012422001 -0.047776926 0.017894119
-0.011171241 -0.046546835 0.017971605
-0.010504455 -0.047747523 0.018987119
-0.0099060051 -0.049530026 0.019461274
-0.0084661879 -0.047034379 0.019615084
-0.0076531521 -0.047832198 0.019825727
-0.0065398216 -0.046713013 0.019934475
-0.0055129011 -0.045940842 0.02080375
-0.0047329077 -0.047329076 0.021030128
-0.0037942342 -0.04742793 0.021398008
-0.0028731679 -0.047886129 0.021839708
-0.0019030401 -0.047576003 0.02173841
-0.0009419588 -0.04709794 0.021363556
0 -0.047247436 0.021547437
0.00094226358 -0.04711318 0.021203339
0.0018462292 -0.046155732 0.021355689
0.0028433609 -0.047389347 0.021507323
0.0038369016 -0.047961272 0.021448433
0.0046411753 -0.046411753 0.021314919
0.0056770998 -0.047309164 0.02122581
0.0066166148 -0.047261536 0.021256864
0.007511761 -0.046948504 0.020676583
0.0085501038 -0.047500581 0.020353734
0.0093453797 -0.046726897 0.019744098
0.010397882 -0.047263101 0.018375963
0.011243625 -0.046848439 0.016030967
0.012664358 -0.048709068 0.0062488616
-0.024380719 -0.04778621 0.0080857873
-0.022544492 -0.046028338 0.011115015
-0.022324983 -0.047561921 0.013308108
-0.020607427 -0.045898359 0.015131027
-0.019838274 -0.046289306 0.015809923
-0.018987333 -0.046518967 0.016906947
-0.017609779 -0.04541469 0.017553329
-0.016972071 -0.046201747 0.0183236
-0.016226614 -0.04677083 0.018063962
-0.015162577 -0.046435393 0.018019825
-0.014165119 -0.046272721 0.017801583
-0.013198093 -0.046193324 0.01788342
-0.011891262 -0.044820912 0.01805222
-0.01141466 -0.04660986 0.018734932
-0.010519825 -0.046861038 0.019148439
-0.0093380129 -0.045756262 0.019704521
-0.0084573664 -0.046045661 0.019595891
-0.00755999 -0.046304941 0.020038694
-0.0065035168 -0.045524616 0.020057738
-0.0056873113 -0.046446376 0.021133482
-0.0047563519 -0.046612248 0.021144211
-0.0037890954 -0.04641642 0.021633744
-0.0028150012 -0.045978352 0.021974027
-0.0018720637 -0.045865562 0.022094071
-0.00093012751 -0.045576248 0.021728605
0 -0.046009511 0.021612674
0.00091830129 -0.044996765 0.021574676
0.00187755 -0.045999974 0.021523476
0.0027961649 -0.045670692 0.021507323
0.003734478 -0.045747355 0.021448433
0.0046719285 -0.045784898 0.021314919
0.0056101438 -0.045816176 0.021170497
0.0064587179 -0.045211025 0.021266401
0.0074575967 -0.045677781 0.020715237
0.0083498601 -0.045460347 0.020427227
0.0092130834 -0.045144107 0.020072669
0.010324095 -0.045989148 0.018688649
0.011247217 -0.045926135 0.015849203
0.012744315 -0.048036262 0.0064409971
-0.024045842 -0.046168014 0.0091915429
-0.023163473 -0.046326946 0.011002541
-0.021742428 -0.0453755 0.014284879
-0.021077229 -0.045986678 0.015594274
-0.020262498 -0.046314284 0.016099453
-0.019130817 -0.045913961 0.017131209
-0.017430218 -0.044034235 0.017553329
-0.017039839 -0.045439571 0.018327266
-0.01610115 -0.045462068 0.018291622
-0.015254023 -0.04576207 0.018159002
-0.014340408 -0.045889307 0.017869502
-0.012924991 -0.044314254 0.017971605
-0.012226162 -0.045142747 0.018125445
-0.011734083 -0.046936333 0.018650144
-0.010465414 -0.045667261 0.019203871
-0.0097169727 -0.046641469 0.019805402
-0.0086739361 -0.046260994 0.019813269
-0.0075325971 -0.045195583 0.02007699
-0.0065217824 -0.044720791 0.020181209
-0.0055852062 -0.04468165 0.020986646
-0.0046703476 -0.044835337 0.02112928
-0.0038195327 -0.045834392 0.021477491
-0.0028060062 -0.0448961 0.021953464
-0.001883868 -0.045212831 0.021910459
-0.00093730958 -0.04499086 0.021717846
0 -0.044048753 0.021503747
0.00094450323 -0.045336157 0.021491736
0.0019100818 -0.045841966 0.021379471
0.0028253919 -0.045206271 0.021312416
0.0037797866 -0.04535744 0.021456897
0.004656632 -0.044703666 0.021342039
0.005595813 -0.044766504 0.021439493
0.006593891 -0.045215253 0.021433592
0.0075111422 -0.045066852 0.021280169
0.008514313 -0.045409672 0.020684749
0.0093714176 -0.044982802 0.020352453
0.010297158 -0.044933051 0.019358903
0.011138129 -0.044552516 0.016098469
0.012714892 -0.046947293 0.0061412752
-0.024045443 -0.045205433 0.0091962516
-0.022364167 -0.043796495 0.011398584
-0.021649649 -0.044240586 0.014487445
-0.021150531 -0.045185227 0.015697449
-0.01994637 -0.044641878 0.016369969
-0.019296113 -0.045345869 0.017117798
-0.017715668 -0.04382297 0.017737269
-0.017066946 -0.044563696 0.018511772
-0.016059447 -0.044399649 0.018491358
-0.01537657 -0.045168672 0.018335074
-0.014055043 -0.044039138 0.018185288
-0.013151641 -0.044151939 0.018585026
-0.012218021 -0.044172846 0.018469065
-0.01100629 -0.043107972 0.018828481
-0.010575846 -0.045187708 0.019203871
-0.0095760301 -0.045007341 0.019623727
-0.0083874464 -0.04380111 0.019320965
-0.0076650986 -0.045032453 0.019813269
-0.006616815 -0.044427186 0.019917488
-0.0056560589 -0.044305794 0.020741612
-0.0047906605 -0.045032207 0.020791084
-0.0038333677 -0.045042071 0.021244258
-0.0027715708 -0.043421276 0.021756738
-0.0019129758 -0.044954933 0.021703273
-0.00093381747 -0.043889422 0.021676034
0 -0.044333696 0.021710843
0.00094911997 -0.044608638 0.021698833
0.001871885 -0.043989301 0.02183494
0.002833389 -0.044389762 0.021315932
0.0037467999 -0.0440249 0.021309018
0.0047604842 -0.044748552 0.021255761
0.0056070471 -0.043921869 0.021302879
0.0064371754 -0.043221034 0.021305501
0.0074827233 -0.043961 0.021146894
0.0083901891 -0.04381543 0.020691931
0.0094925324 -0.044614904 0.020247132
0.010285573 -0.043947451 0.019351274
0.011245415 -0.044044539 0.01610893
0.012631519 -0.045667801 0.0061320961
-0.023839526 -0.043864727 0.0089052618
-0.023422563 -0.044893246 0.010886163
-0.021740125 -0.043480251 0.01356408
-0.020892903 -0.043685164 0.014794052
-0.019812927 -0.043399744 0.015594274
-0.019200686 -0.044161581 0.016259313
-0.018256754 -0.044200562 0.016872317
-0.016800135 -0.042933676 0.018148959
-0.016466029 -0.044555135 0.018146515
-0.015225138 -0.043772269 0.017957628
-0.014439448 -0.044280972 0.017838627
-0.013309135 -0.043730017 0.017951876
-0.012091769 -0.042786259 0.018121779
-0.011304374 -0.043333434 0.018505335
-0.010548789 -0.044113118 0.018898159
-0.0095581328 -0.043967411 0.019461274
-0.0083614551 -0.042736329 0.019347489
-0.0074557192 -0.042870387 0.019890904
-0.0065022972 -0.042729381 0.01990822
-0.00572359 -0.043880858 0.020924032
-0.0045997328 -0.042317543 0.021020919
-0.0037459766 -0.043078728 0.021462739
-0.0028534404 -0.043752752 0.021920145
-0.0018709855 -0.043032669 0.021879792
-0.00092361268 -0.042486183 0.021765649
0 -0.043437067 0.02192077
0.00092282012 -0.042449728 0.021698833
0.0018759849 -0.043147653 0.02159667
0.0028940442 -0.044375345 0.021309018
0.0037410993 -0.043022644 0.021375477
0.0046799006 -0.043055087 0.021270871
0.005650436 -0.043320008 0.021274388
0.0065914812 -0.043315448 0.02143687
0.0076059164 -0.043734021 0.021250188
0.0084272847 -0.04307279 0.021114498
0.0092546036 -0.042571176 0.020200402
0.010290684 -0.043033771 0.019279182
0.011146415 -0.042727921 0.016325891
0.0128277 -0.045390323 0.0060576797
-0.023872292 -0.042970125 0.0076247454
-0.022982243 -0.043091707 0.010652125
-0.021273263 -0.041621599 0.013094127
-0.021011483 -0.042978033 0.014771253
-0.020289253 -0.043476973 0.015310913
-0.019304864 -0.043435942 0.015887916
-0.017835023 -0.042240843 0.016103297
-0.017228292 -0.04307073 0.016710639
-0.015968485 -0.042269517 0.016895771
-0.015353354 -0.043181308 0.016702026
-0.014711375 -0.044134129 0.016367823
-0.013156893 -0.042290013 0.017071694
-0.012358363 -0.04277895 0.01723063
-0.011451758 -0.042944092 0.017816961
-0.010271595 -0.042020164 0.018309832
-0.0096852416 -0.043583587 0.019360691
-0.0084945038 -0.042472519 0.019461274
-0.0075691147 -0.042576268 0.019697607
-0.0065643964 -0.042199694 0.019805431
-0.0056853797 -0.042640347 0.020846397
-0.0046690875 -0.042021785 0.020924002
-0.0037553725 -0.04224794 0.021713734
-0.0028884737 -0.043327104 0.021974027
-0.0018375164 -0.041344121 0.021942168
-0.00094541092 -0.042543493 0.021871567
0 -0.041734237 0.022163153
0.00095461751 -0.042957786 0.022163153
0.0018875119 -0.042469017 0.021787852
0.002790984 -0.04186476 0.021455884
0.0037109877 -0.041748613 0.021455884
0.0046386044 -0.04174744 0.021274388
0.0055185822 -0.041389368 0.021404862
0.0065272711 -0.041961029 0.021364063
0.0074837725 -0.04209622 0.021149933
0.0083365077 -0.041682538 0.020997345
0.0093945013 -0.042275257 0.020321995
0.01034199 -0.042308141 0.019319803
0.01136985 -0.042636938 0.016325891
0.012829724 -0.044410583 0.0051153302
-0.024639716 -0.043365899 0.0053650141
-0.023038393 -0.042237055 0.0095220506
-0.021740079 -0.041589715 0.012230605
-0.021538446 -0.043076891 0.013761222
-0.019724656 -0.041327849 0.014665782
-0.019177524 -0.042190552 0.015207171
-0.01802993 -0.041753519 0.015432388
-0.016910823 -0.041337565 0.016137928
-0.016175017 -0.041864749 0.016296566
-0.015399599 -0.042348895 0.015997142
-0.014401962 -0.042245757 0.01590696
-0.013371388 -0.042024367 0.016344905
-0.012117081 -0.041011658 0.016708255
-0.011166857 -0.040945143 0.017679662
-0.010724434 -0.042897735 0.017882645
-0.0096653989 -0.042527754 0.018951118
-0.0085446667 -0.041773926 0.019307256
-0.0075659133 -0.041612525 0.019732207
-0.0065504988 -0.041174565 0.019883007
-0.0056087226 -0.041130632 0.020657092
-0.0046670851 -0.04107035 0.020735532
-0.0037252372 -0.040977608 0.022044003
-0.0028020372 -0.041096546 0.022000968
-0.0019219529 -0.042282965 0.022067875
-0.00092738972 -0.040805146 0.022067875
0 -0.041516218 0.022288442
0.00094434002 -0.04155096 0.022288442
0.0018592739 -0.040904026 0.021840543
0.0028256329 -0.041442614 0.02147907
0.0038049854 -0.04185484 0.021455884
0.00462014 -0.04065723 0.021270871
0.0056368886 -0.041337185 0.021319419
0.0065897591 -0.041421343 0.021364063
0.007406441 -0.040735424 0.021230072
0.0085715493 -0.041905351 0.021206349
0.0093508791 -0.041143868 0.02055645
0.010310099 -0.041240398 0.019497573
0.011263394 -0.041299112 0.016426891
0.012643118 -0.042792093 0.0052016973
-0.023405543 -0.04193493 0.0087222755
-0.022069572 -0.041260503 0.010260373
-0.021099592 -0.041240111 0.012743086
-0.020447547 -0.041868784 0.013590515
-0.019279033 -0.041449923 0.01425153
-0.018000238 -0.040737379 0.014555961
-0.01669739 -0.039888207 0.015057921
-0.016279968 -0.041178741 0.014903754
-0.015247866 -0.04097864 0.014943898
-0.01439405 -0.041262947 0.014834464
-0.013522681 -0.041533947 0.015247434
-0.01233759 -0.04080895 0.01593712
-0.011384314 -0.040793791 0.016530842
-0.010574485 -0.041336622 0.017414987
-0.009458364 -0.040670965 0.018213481
-0.008590389 -0.041042972 0.01916483
-0.0075670546 -0.040672917 0.019473612
-0.0065911836 -0.040488698 0.019883007
-0.0057346812 -0.04109855 0.020194173
-0.0047223638 -0.040612329 0.020629406
-0.0037260505 -0.04005504 0.02169615
-0.00286429 -0.041054823 0.021981031
-0.0018639487 -0.040074896 0.022005498
-0.0009345439 -0.040185388 0.021995604
0 -0.040355939 0.022171199
0.00091997127 -0.039558765 0.022118509
0.0019118736 -0.041105282 0.021556109
0.0027688076 -0.039686244 0.021320641
0.003687273 -0.039638184 0.021320641
0.0046705403 -0.040166646 0.021094143
0.0056926142 -0.04079707 0.021221131
0.0065463744 -0.040213443 0.021230072
0.0074895113 -0.04025612 0.021060169
0.0085503394 -0.040851623 0.020859271
0.009302929 -0.040002596 0.020234615
0.010235232 -0.040010456 0.018987477
0.011159055 -0.039986614 0.016375214
0.012717075 -0.042064171 0.0052358806
-0.023270056 -0.040722597 0.0053903461
-0.022137122 -0.04042431 0.009152323
-0.020881595 -0.03986486 0.01037243
-0.020414619 -0.040829238 0.012221396
-0.019008942 -0.03991878 0.013079643
-0.018027132 -0.039849453 0.013389528
-0.017350031 -0.040483404 0.013769776
-0.016268829 -0.04019358 0.013657391
-0.015445017 -0.040543169 0.013821274
-0.014813793 -0.041478623 0.013666004
-0.013307904 -0.039923713 0.014362454
-0.012300546 -0.039740227 0.014929801
-0.011398388 -0.039894357 0.015669316
-0.010364793 -0.039574664 0.016269386
-0.0095523838 -0.040120009 0.01747036
-0.0085159084 -0.039740905 0.01892966
-0.007500357 -0.039376877 0.019330472
-0.0066134776 -0.039680868 0.019685298
-0.0057066032 -0.039946225 0.019875944
-0.004640433 -0.038979638 0.020294785
-0.0037953723 -0.039851408 0.021624088
-0.0027942767 -0.039119873 0.021973729
-0.0018665387 -0.039197311 0.021787345
-0.00093254633 -0.039166946 0.022005498
0 -0.039640848 0.022243798
0.00092596113 -0.038890369 0.022108763
0.0019028791 -0.039960463 0.021661758
0.0028065322 -0.039291453 0.021747887
0.0037473266 -0.03934693 0.021597087
0.0046590292 -0.039135844 0.021463573
0.0055833263 -0.039083283 0.02151683
0.0066011013 -0.039606608 0.021433592
0.0074935295 -0.039341029 0.021200866
0.0084314188 -0.03934662 0.020818949
0.0093981652 -0.039472293 0.020226985
0.010479444 -0.040012423 0.018647671
0.011206037 -0.03922113 0.01631856
0.012739456 -0.04115824 0.0054012239
-0.022274541 -0.039706789 0.0060431659
-0.021621158 -0.040293977 0.0091404617
-0.020495368 -0.040014766 0.0099036098
-0.019241756 -0.039445601 0.010437906
-0.018376783 -0.039655164 0.011310875
-0.017209847 -0.039200205 0.012054265
-0.016358048 -0.039451763 0.012090623
-0.015606983 -0.039992895 0.01241079
-0.014542476 -0.039749436 0.012583733
-0.013406993 -0.039263338 0.013262779
-0.012270556 -0.038699444 0.014153272
-0.011530143 -0.039394654 0.01485157
-0.010549942 -0.03932251 0.015688002
-0.0097402185 -0.039934896 0.017207891
-0.0085878605 -0.039122473 0.018461585
-0.0074550705 -0.038207237 0.019374967
-0.0065593407 -0.038418997 0.019677371
-0.0056130094 -0.038355563 0.020171911
-0.0047627222 -0.039054323 0.020661414
-0.0037295579 -0.038227968 0.02166906
-0.0028140584 -0.038458798 0.02183795
-0.0018909459 -0.038764395 0.021905452
-0.00093651842 -0.038397256 0.021995604
0 -0.03839488 0.02212435
0.00096877443 -0.039719749 0.021641374
0.0018647269 -0.038226902 0.021180034
0.002777657 -0.037961312 0.021362931
0.0037912617 -0.038860433 0.021409988
0.0046182219 -0.03786942 0.021321088
0.0057267766 -0.039132971 0.021493614
0.0066399989 -0.03889142 0.021479875
0.0074482425 -0.038172245 0.021281481
0.0084101008 -0.038312685 0.020533025
0.0093592405 -0.038372889 0.019995481
0.010202635 -0.038028006 0.018699944
0.011193709 -0.038245175 0.016178191
-0.021360036 -0.038836427 0.0061208904
-0.020371396 -0.038802657 0.0088171065
-0.019694909 -0.039389819 0.0090543628
-0.018159281 -0.038230069 0.0094931424
-0.017235119 -0.038300265 0.0094414949
-0.01654866 -0.038938019 0.0091724098
-0.015461782 -0.038654454 0.0093488097
-0.014812149 -0.039499063 0.010545105
-0.013625437 -0.03892982 0.010967821
-0.012522534 -0.038530875 0.012396693
-0.011731307 -0.039104357 0.01354304
-0.010546623 -0.038351353 0.014562368
-0.0094183991 -0.037673596 0.016045004
-0.0086564673 -0.038473185 0.018046886
-0.0076555423 -0.038277712 0.019242853
-0.0065162582 -0.037235759 0.019574404
-0.0056807026 -0.03787135 0.019856274
-0.004699328 -0.037594624 0.020392984
-0.0037061563 -0.037061561 0.0217188
-0.0028169937 -0.037559915 0.022105932
-0.0018913178 -0.037826356 0.021910489
-0.00092335074 -0.036934029 0.021813303
0 -0.038607318 0.022008181
0.00092969224 -0.037187688 0.021699995
0.0019064397 -0.038128793 0.021344572
0.0027950432 -0.037267242 0.021505982
0.0037317646 -0.037317645 0.021534294
0.0046889628 -0.037511703 0.021409988
0.0056353421 -0.037568945 0.021567255
0.0064774225 -0.037013844 0.021539479
0.0075575132 -0.037787568 0.02145943
0.0084370105 -0.037497826 0.020796388
0.0093665859 -0.037466343 0.020249993
0.010338104 -0.037593104 0.018783778
0.011251523 -0.037505075 0.01668039
0.012858454 -0.039564475 0.0052818358
-0.02108486 -0.039157599 0.0055900812
-0.019774016 -0.038559332 0.0058869421
-0.018477462 -0.037927423 0.0066604912
-0.017515756 -0.037950806 0.0070270598
-0.016595211 -0.038071364 0.0068942904
-0.015872136 -0.038688332 0.0079600215
-0.014926352 -0.038808513 0.0079603493
-0.013317414 -0.037098508 0.007920593
-0.012782358 -0.038347073 0.010194838
-0.011789781 -0.03831679 0.011413157
-0.010653196 -0.03777042 0.013447881
-0.0099919681 -0.038968675 0.01566574
-0.0085884091 -0.03721644 0.017352879
-0.0075194477 -0.036657307 0.01848346
-0.0066182339 -0.036873017 0.019527584
-0.0056700758 -0.036855493 0.019752026
-0.0046624257 -0.036366921 0.020687222
-0.0037358988 -0.036425013 0.021513969
-0.0028508254 -0.03706073 0.021801263
-0.0018580196 -0.03623138 0.021766216
-0.00094676227 -0.036923729 0.02180171
0 -0.035894156 0.021809191
0.00094914035 -0.037016474 0.021761715
0.0018892387 -0.036840156 0.021311164
0.0028398503 -0.036918055 0.021235794
0.0038095536 -0.037143148 0.02153489
0.0046956548 -0.036626108 0.021628261
0.0055932552 -0.036356159 0.021875441
0.0065593407 -0.0365449 0.021739215
0.0075394437 -0.036754787 0.02160114
0.0085423235 -0.037016734 0.020934701
0.0094427513 -0.03682673 0.020018786
0.010148997 -0.03598281 0.018872976
0.011115452 -0.03612522 0.01668039
0.013128576 -0.039385729 0.0052818358
-0.012864632 -0.037604306 0.0072521567
-0.011453241 -0.036268596 0.0082855821
-0.010536434 -0.03639859 0.012220621
-0.0098565528 -0.037454903 0.014608115
-0.0085049365 -0.035909731 0.016973406
-0.0075105987 -0.035675343 0.018087268
-0.0065157502 -0.035371214 0.019055784
-0.0056228335 -0.035611279 0.019722641
-0.0047629829 -0.036198672 0.020192176
-0.0037951285 -0.036053721 0.021213025
-0.002790984 -0.035352465 0.02169615
-0.0018833674 -0.03578398 0.021478504
-0.00094589981 -0.03594419 0.021686196
0 -0.036275644 0.021686077
0.00093272928 -0.035443712 0.021690518
0.001877636 -0.035675082 0.021323979
0.0027926303 -0.035373319 0.021235794
0.0037363516 -0.035495341 0.021618605
0.0046535418 -0.035366919 0.021661758
0.0056700227 -0.035910144 0.022015989
0.006590433 -0.035776634 0.021962255
0.007500357 -0.035626698 0.021659225
0.0085471813 -0.036088098 0.021032602
0.009346962 -0.035518456 0.020274848
0.010266905 -0.035467487 0.018881679
0.011357431 -0.035965201 0.016964197
0.012753717 -0.037280094 0.005074203
-0.012025714 -0.037079286 0.0051910281
-0.010944579 -0.036813583 0.0097047687
-0.0099204024 -0.03670549 0.014015824
-0.0086441552 -0.035537083 0.016490698
-0.0074500078 -0.034456287 0.017802477
-0.0065749669 -0.034753397 0.018991917
-0.0057478501 -0.035445075 0.019645244
-0.0046985857 -0.034769535 0.02066797
-0.0037228798 -0.034436639 0.021177262
-0.0028306334 -0.034911145 0.021555364
-0.0018969962 -0.035094429 0.021389693
-0.00093960483 -0.034765378 0.02145195
0 -0.034605306 0.021564662
0.00093576347 -0.034623247 0.02160421
0.0018684606 -0.034566522 0.021457821
0.00282039 -0.034784812 0.021198809
0.0037172704 -0.034384754 0.021235794
0.0047205347 -0.034931958 0.021730781
0.0056999302 -0.035149567 0.021767825
0.0065352791 -0.034543619 0.021716654
0.0076577654 -0.035417166 0.021575511
0.0085009625 -0.034948405 0.020822048
0.0092596514 -0.034260713 0.020026863
0.01034787 -0.034806471 0.018871963
0.011259251 -0.034716025 0.017060995
0.012770155 -0.036345825 0.0057041347
-0.01126079 -0.036853492 0.0051565766
-0.010324306 -0.037167501 0.010584086
-0.0086884033 -0.034753613 0.01434049
-0.0075049526 -0.033772286 0.015901089
-0.0065923193 -0.033903357 0.018214852
-0.0055531217 -0.033318728 0.019345522
-0.0046283705 -0.033324268 0.020086348
-0.0037918161 -0.034126345 0.020837486
-0.0028104512 -0.033725414 0.02138254
-0.0018961008 -0.034129817 0.021262556
-0.00094952265 -0.034182813 0.021269888
0 -0.033952449 0.021347612
0.0009569003 -0.034448411 0.021347284
0.0018856137 -0.033941045 0.021296918
0.0027881358 -0.033457629 0.021036386
0.0037613313 -0.033851981 0.021099269
0.0047039702 -0.033868585 0.021244496
0.0056394492 -0.033836696 0.021820486
0.006607682 -0.033982366 0.021848828
0.0074122925 -0.033355318 0.02144897
0.0083350958 -0.033340383 0.020909846
0.0095514162 -0.034385096 0.020152509
0.010376473 -0.033959366 0.018871963
0.011082021 -0.033246063 0.017080635
0.01277859 -0.035386864 0.0059331954
-0.0096736606 -0.033857815 0.0064605772
-0.0088428641 -0.034388915 0.012772292
-0.0074779205 -0.032715902 0.01509285
-0.0065639699 -0.032819849 0.017420441
-0.0057091555 -0.03330341 0.018817008
-0.004755964 -0.03329175 0.019473165
-0.0037519583 -0.032829635 0.020771235
-0.0027995806 -0.032661773 0.021177262
-0.0019023886 -0.033291802 0.021011591
-0.00093449716 -0.032707401 0.021088958
0 -0.033014797 0.021249175
0.00093303388 -0.032656185 0.021309704
0.0018693428 -0.032713499 0.021252513
0.0028127499 -0.032815415 0.020996451
0.0037551285 -0.032857373 0.021032602
0.0047102398 -0.032971676 0.021158695
0.0056092967 -0.032720897 0.021631628
0.0065729311 -0.032864656 0.021697879
0.0075144954 -0.032875918 0.021122515
0.0085137049 -0.033108853 0.020785391
0.0093049025 -0.032567158 0.020228148
0.010221984 -0.032524496 0.018961072
0.01135888 -0.033130065 0.017022073
0.012864581 -0.03463541 0.0055890083
-0.0088639548 -0.03348605 0.0097796321
-0.0075235032 -0.031974889 0.014183968
-0.0065940409 -0.032028198 0.016836017
-0.0056266608 -0.031884413 0.018151015
-0.0047472659 -0.03228141 0.019238412
-0.0038023088 -0.032319624 0.020196974
-0.0028203351 -0.031963799 0.020940781
-0.0018823256 -0.031999536 0.020553052
-0.00094074482 -0.031985324 0.020843387
0 -0.031970918 0.021070242
0.00092781958 -0.031545866 0.021086812
0.0018901295 -0.032132205 0.020929217
0.0028069834 -0.031812478 0.020932645
0.0037072024 -0.031511221 0.02095288
0.0047146501 -0.032059621 0.021144271
0.0056138588 -0.031811867 0.021611691
0.0065074181 -0.03160746 0.021636248
0.0074708369 -0.031751055 0.021096498
0.0083109858 -0.03139706 0.0205594
0.0092728892 -0.031527821 0.019980311
0.010391915 -0.032120466 0.018865138
0.011239289 -0.031844653 0.016850829
0.012831661 -0.033559728 0.0056695044
-0.0074700452 -0.030813936 0.01121664
-0.0066065746 -0.03114528 0.015283704
-0.0056908051 -0.031299431 0.0178518
-0.0046937312 -0.030978628 0.018723905
-0.0038323922 -0.031617235 0.020134419
-0.0028964872 -0.031861357 0.02086091
-0.0018924914 -0.031226108 0.020532399
-0.00093912153 -0.03099101 0.020432413
0 -0.031244604 0.020963103
0.00093747542 -0.030936688 0.021004975
0.0018713974 -0.030878056 0.020932645
0.0028213179 -0.031034498 0.020948768
0.0038021544 -0.031367775 0.021144271
0.0046623363 -0.030771421 0.021481067
0.0055894912 -0.030742202 0.021655977
0.006586093 -0.031048723 0.021662384
0.0075222217 -0.031029165 0.021363616
0.008366053 -0.030675529 0.020818144
0.0094870469 -0.031307258 0.020166725
0.010217195 -0.030651586 0.018794209
0.011203732 -0.030810263 0.016944438
0.01284223 -0.032599509 0.0054759979
-0.0075711184 -0.030284474 0.0099532604
-0.0065913312 -0.030131798 0.014158577
-0.0055409521 -0.029551744 0.01721549
-0.0046989978 -0.030073587 0.018304616
-0.0037034643 -0.029627714 0.020060122
-0.0028162478 -0.030039975 0.020784438
-0.0019108134 -0.030573014 0.02028811
-0.00094175991 -0.030136317 0.020613015
0 -0.029824279 0.020923227
0.00094151602 -0.030128513 0.021200895
0.0018290016 -0.029264025 0.021140128
0.0028676386 -0.030588144 0.021157205
0.0037263855 -0.029811084 0.021433622
0.0046721762 -0.029901929 0.021618605
0.0056517706 -0.030142777 0.021805912
0.0065623168 -0.029999163 0.021876901
0.0075340602 -0.030136241 0.021389842
0.0085379006 -0.030356981 0.021030039
0.0093494784 -0.02991833 0.020332068
0.010266992 -0.029867614 0.019453406
0.011233188 -0.029955169 0.017435521
0.012683207 -0.031220201 0.0053949952
-0.0067194048 -0.029757364 0.012132734
-0.0058153127 -0.030045783 0.016945481
-0.0048362031 -0.029984459 0.017881632
-0.0038220126 -0.029620597 0.019402236
-0.0028740698 -0.029698722 0.02043736
-0.0018684062 -0.028960295 0.019945145
-0.0009554259 -0.029618202 0.020042688
0 -0.029128848 0.020274162
0.00094420929 -0.029270487 0.020624816
0.001891205 -0.029313676 0.020878136
0.002806223 -0.028997637 0.020986557
0.0037688578 -0.029208649 0.021208167
0.0047091111 -0.02919649 0.021272302
0.005612704 -0.028998971 0.021280229
0.0065269829 -0.028905209 0.021506071
0.0075829062 -0.029383762 0.021113783
0.008468884 -0.029170603 0.020624608
0.0093111983 -0.028864715 0.020009398
0.010297283 -0.029019615 0.019112706
0.011174098 -0.02886642 0.016069233
-0.0067787347 -0.029051721 0.0095198154
-0.0056891679 -0.028445838 0.013932019
-0.0048231161 -0.028938698 0.016392708
-0.0038169089 -0.028626816 0.018053353
-0.0027938047 -0.027938047 0.019367933
-0.0018751223 -0.028126834 0.018924981
-0.00094829826 -0.028448949 0.019268721
0 -0.028169246 0.019991219
0.00093653373 -0.028096011 0.020175099
0.0018698801 -0.028048202 0.020473629
0.0028259887 -0.028259886 0.020723581
0.0037664396 -0.028248297 0.020684719
0.0046975557 -0.028185334 0.020958155
0.0055465451 -0.027732726 0.02111128
0.0065846178 -0.028219791 0.021160275
0.007506398 -0.028148992 0.020595729
0.0084321834 -0.028107278 0.019978672
0.0094166771 -0.028250031 0.019508421
0.010288629 -0.028059896 0.017631948
0.011193176 -0.027982939 0.0079002976
-0.005986454 -0.028934527 0.0096024573
-0.0049550571 -0.028739329 0.01432395
-0.0042659789 -0.030928345 0.016971946
-0.0028237919 -0.027296657 0.018139452
-0.0018949916 -0.027477378 0.017754674
-0.00092836563 -0.026922602 0.018297076
0 -0.027057026 0.019250542
0.0009464075 -0.027445817 0.019576788
0.0018613463 -0.026989521 0.019775152
0.0027943528 -0.027012078 0.019932598
0.0037727752 -0.02735262 0.020017862
0.0046625077 -0.027042545 0.020082504
0.0056657572 -0.027384493 0.020769864
0.0066072224 -0.027372779 0.020766854
0.0074703163 -0.027079897 0.019532949
0.0084299855 -0.027163286 0.019253463
0.0093776714 -0.027195249 0.018735051
0.010314764 -0.027193466 0.015540391
0.011264821 -0.027223317 0.0053388774
-0.0066675921 -0.031115429 0.0057459772
-0.0053825234 -0.030142132 0.0098642111
-0.0041423193 -0.028996237 0.014316738
-0.0028471753 -0.026573638 0.017011762
-0.0019272796 -0.026981914 0.016829103
-0.00092793326 -0.025982132 0.01700291
0 -0.026359361 0.017779768
0.00092945702 -0.026024796 0.018466324
0.0018823004 -0.026352206 0.019395083
0.0028427874 -0.026532682 0.019489616
0.0037103402 -0.025972381 0.019483328
0.0046417564 -0.025993835 0.019527465
0.005627689 -0.02626255 0.019370496
0.006525273 -0.026101092 0.019360512
0.0075034173 -0.026261959 0.01902315
0.0083915405 -0.026107015 0.018218488
0.0092569683 -0.025919512 0.015880793
0.010256387 -0.026107168 0.010653883
-0.0047532166 -0.025667369 0.005671978
-0.0037344268 -0.025207382 0.011146128
-0.0026922834 -0.024230551 0.014383554
-0.0019256665 -0.025996497 0.015052497
-0.00093066419 -0.025127934 0.01647985
0 -0.025050675 0.016775668
0.00093681947 -0.025294125 0.017960876
0.0018764248 -0.025331734 0.018418849
0.0027774798 -0.024997318 0.018812239
0.0037785477 -0.025505196 0.018923968
0.0046855751 -0.025302105 0.019105196
0.0056144535 -0.02526504 0.018990576
0.0065503563 -0.025265658 0.01902315
0.0074872333 -0.025269412 0.018218488
0.0084698489 -0.025409546 0.017476529
0.0093579907 -0.025266575 0.014260799
0.010165121 -0.024950752 0.0070929229
-0.0037784732 -0.024560077 0.0064277053
-0.0029788851 -0.025817003 0.010822535
-0.0018928417 -0.024606941 0.011848003
-0.00092412636 -0.024027286 0.014401078
0 -0.024909867 0.015608549
0.00094405317 -0.024545381 0.016323715
0.0018739511 -0.024361363 0.017125279
0.0028547572 -0.024741229 0.017838836
0.0038384337 -0.024949819 0.01764977
0.0046748212 -0.024309071 0.017741442
0.0056973342 -0.024688449 0.017741442
0.0066095148 -0.024549626 0.017807126
0.0073632882 -0.023930686 0.016241401
0.008649528 -0.024987526 0.014698893
0.0093639027 -0.024346147 0.010618716
0.010537494 -0.024906803 0.0051113665
-0.0029254225 -0.02437852 0.0077266693
-0.0020300113 -0.025375141 0.010533422
-0.0009801616 -0.024504039 0.012800068
0 -0.025079932 0.014990389
0.00097181386 -0.024295347 0.015679657
0.0019416597 -0.024270747 0.016071886
0.0029009283 -0.024174402 0.016418755
0.003776669 -0.023604181 0.016922057
0.0048117908 -0.024058953 0.017398179
0.0058693611 -0.024455672 0.017338485
0.0067820614 -0.024221648 0.016843051
0.0079767015 -0.024927193 0.014899492
0.0088219941 -0.024505539 0.013907999
0.0098966602 -0.024741651 0.010096133
-0.0029340954 -0.023472764 0.0050315857
-0.0020457774 -0.02454933 0.0082438588
-0.00097732514 -0.023455804 0.01065439
0 -0.022811025 0.013920575
0.00095277175 -0.022866521 0.015203029
0.0018977271 -0.022772726 0.01536417
0.0028249787 -0.022599829 0.015467733
0.0037938496 -0.022763098 0.015549183
0.0048335623 -0.023201099 0.015549183
0.0055606593 -0.022242637 0.015543878
0.0067285285 -0.02306924 0.015101582
0.0076845144 -0.023053544 0.014148831
0.0087306881 -0.023281837 0.010549903
0.0098347962 -0.02360351 0.0074930489
-0.0020199805 -0.023229776 0.0070200562
-0.00097155897 -0.022345856 0.0099781454
0 -0.022275867 0.011642575
0.00096296915 -0.022148291 0.014086187
0.0018998466 -0.021848235 0.014460295
0.0028458873 -0.02181847 0.01485005
0.0037639749 -0.021642856 0.01484558
0.004752351 -0.021860816 0.014621854
0.0057684127 -0.022112248 0.01449576
0.0066655851 -0.021901207 0.014133841
0.0076203789 -0.021908589 0.01267305
0.0088777896 -0.022687685 0.010037988
-0.0019835776 -0.021819353 0.0066293478
-0.00094946305 -0.020888187 0.0093486607
0 -0.021633351 0.010563135
0.00093179801 -0.020499557 0.012139112
0.0019249792 -0.02117477 0.013460606
0.0028766424 -0.021095376 0.014171958
0.0036946132 -0.020320373 0.01416716
0.004703714 -0.020696342 0.013945311
0.0057030995 -0.020911366 0.013799936
0.0066601681 -0.020931957 0.013149232
0.0076093157 -0.020925619 0.010681987
0.0087107513 -0.021292947 0.0088623464
-0.00098132947 -0.020607919 0.0077454448
0 -0.020189736 0.0099686384
0.00096415373 -0.020247228 0.011355251
0.0019415672 -0.020386456 0.012543827
0.0028605969 -0.020024179 0.013943523
0.0038379203 -0.02014908 0.013787031
0.0047634649 -0.020006552 0.013189673
0.0056520165 -0.019782057 0.012771755
0.0067284578 -0.020185372 0.01113382
0.007531954 -0.01977138 0.0097990632
0.0086522037 -0.020188475 0.0069766045
-0.00095752033 -0.019150406 0.0065273941
0 -0.019263741 0.0088391006
0.00095069967 -0.019013993 0.010524571
0.001852297 -0.01852297 0.011815578
0.0028374123 -0.018916082 0.013210237
0.0037370962 -0.018685481 0.01323235
0.004669412 -0.018677648 0.013024658
0.0057032104 -0.019010702 0.01268369
0.0066036065 -0.018867448 0.011283576
0.0075997203 -0.018999301 0.0099644959
0.0086374525 -0.01919434 0.0062744319
-0.00096488761 -0.018332865 0.0061351359
0 -0.018351434 0.0092300177
0.00094290578 -0.01791521 0.010586411
0.0019032089 -0.018080484 0.011685818
0.002822984 -0.017878899 0.013133317
0.0037044694 -0.01759623 0.013060778
0.0047394442 -0.018009888 0.01295805
0.0057287836 -0.018141147 0.011995345
0.0065379841 -0.017745957 0.010983616
0.0078052529 -0.018537475 0.009773016
0.0088056475 -0.0185897 0.0060633421
-0.00097955309 -0.017631955 0.0050399303
0 -0.017222142 0.0076609254
0.00093955273 -0.01691195 0.0099686384
0.0019084333 -0.0171759 0.010663956
0.0028178573 -0.016907144 0.012044072
0.0037405016 -0.016832257 0.012056828
0.0047610304 -0.017139709 0.011572331
0.0055537871 -0.016661361 0.011067361
0.006682415 -0.017183352 0.010405064
0.0076303589 -0.017168308 0.0088396668
0 -0.0163469 0.0058980882
0.00096157938 -0.01634685 0.0080091655
0.0019048785 -0.016191468 0.010055214
0.0028373676 -0.016078416 0.011026591
0.0037833182 -0.016079102 0.011084944
0.0047816681 -0.016257672 0.010943472
0.0057776128 -0.016369903 0.010178834
0.0068152612 -0.016551349 0.0091283917
0.0075494377 -0.016042555 0.0059530139
0.00094762217 -0.015161955 0.0060294569
0.0019015565 -0.015212452 0.0075999796
0.0028690889 -0.015301808 0.009778738
0.0037136236 -0.014854494 0.010370672
0.0047201067 -0.015104341 0.010281324
0.0057501108 -0.015333629 0.008872658
0.0065416261 -0.014952288 0.0062448382
0.0019206187 -0.014404641 0.0057037473
0.0028089525 -0.014044762 0.0073743463
0.0038145615 -0.014304606 0.0090959966
0.0047866283 -0.014359885 0.0075999796
0.0056773089 -0.014193272 0.0060841739
0 0 0 1 0 0 0 1 0 0 0 1 0 0 0 0 0 1284 1 0 0
