ply
format ascii 1.0
comment PCL generated
element vertex 1289
property float x
property float y
property float z
element camera 1
property float view_px
property float view_py
property float view_pz
property float x_axisx
property float x_axisy
property float x_axisz
property float y_axisx
property float y_axisy
property float y_axisz
property float z_axisx
property float z_axisy
property float z_axisz
property float focal
property float scalex
property float scaley
property float centerx
property float centery
property int viewportx
property int viewporty
property float k1
property float k2
end_header
0 -0.0625256 0.0052653253
0.00094250939 -0.060320601 0.0058938265
0.0021564609 -0.069006748 0.006624788
0.0033887497 -0.072293326 0.0062499344
0.0044673528 -0.071477644 0.0056645572
0.0056972369 -0.072924629 0.0061921477
0.0063675893 -0.067920953 0.0053633451
0.0067495131 -0.061709832 0.0050001442
-0.0018628753 -0.058680572 0.0052003264
-0.00094885664 -0.059777968 0.0069963932
0 -0.057914279 0.0077063143
0.00094167335 -0.059325423 0.0099588633
0.0018839379 -0.059344042 0.010977358
0.0027884254 -0.058556937 0.010977358
0.0038833916 -0.061163418 0.010322362
0.0051517598 -0.06491217 0.010317296
0.0061669261 -0.06475272 0.010235161
0.0078889336 -0.071000397 0.0092521608
0.0089848293 -0.070755526 0.00569731
0.0097864233 -0.068504967 0.0056920946
-0.0027232468 -0.056280434 0.0074346662
-0.0018632583 -0.057761006 0.0079361796
-0.00092914165 -0.057606783 0.009996444
0 -0.060460694 0.012545824
0.00095349504 -0.059116691 0.013425291
0.0018581442 -0.057602469 0.015016943
0.0028560304 -0.059024628 0.013979822
0.003797973 -0.05886858 0.013273627
0.0045604347 -0.056549389 0.013904303
0.0056984304 -0.058883779 0.014900059
0.0066006002 -0.05846246 0.012981504
0.007871896 -0.061007194 0.01267457
0.0099669294 -0.068661071 0.011868984
0.011093188 -0.068777762 0.0090873539
0.012534434 -0.070648625 0.0065274835
0.013885459 -0.071741536 0.0052462518
-0.005918745 -0.060173906 0.0050252974
-0.0048755268 -0.059481423 0.0058101416
-0.003920259 -0.059783947 0.0077029765
-0.0028655462 -0.058266107 0.0096173584
-0.0018605852 -0.056747846 0.011823595
-0.00097103778 -0.059233304 0.013596535
0 -0.058613181 0.015912026
0.00096080796 -0.058609284 0.01661849
0.0018848197 -0.057487 0.016621917
0.0028392419 -0.057731252 0.016546994
0.0037300426 -0.056883153 0.016407341
0.0046992586 -0.057330959 0.016471475
0.0055815638 -0.056745898 0.016591877
0.006569521 -0.057248686 0.01643011
0.0075534545 -0.057595089 0.015887111
0.0085716993 -0.058097072 0.015367955
0.0093865832 -0.057258159 0.012945622
0.010931854 -0.060622104 0.012242168
0.012747205 -0.064798295 0.011181593
0.014389912 -0.067521892 0.0062381327
0.015934289 -0.069427967 0.0058103502
-0.017634172 -0.058780573 0.0050286353
-0.016493913 -0.058213811 0.0074094236
-0.015974117 -0.059902936 0.0053940117
-0.01513784 -0.06055136 0.0067937672
-0.0076971399 -0.057728548 0.0051641762
-0.0068810834 -0.058980715 0.0058340132
-0.0058917343 -0.058917344 0.0064620972
-0.0050679683 -0.060815621 0.0083870888
-0.0038737478 -0.058106218 0.0095891356
-0.0027818736 -0.055637471 0.011815429
-0.0018797015 -0.056391045 0.015179366
-0.00099868828 -0.059921298 0.016266137
0 -0.056431942 0.017120987
0.0010135478 -0.060812864 0.018009126
0.0018815284 -0.056445852 0.017966539
0.0027877197 -0.055754397 0.017999947
0.0037901979 -0.05685297 0.017557889
0.0047765868 -0.057319045 0.017647028
0.005612602 -0.056126021 0.018146753
0.0066445246 -0.056953069 0.017369241
0.0075188614 -0.056391459 0.017210782
0.0083163502 -0.055442333 0.016270936
0.0094565777 -0.056739464 0.016041219
0.010299099 -0.056176901 0.015796453
0.011073873 -0.055369366 0.014044285
0.012196747 -0.056292679 0.011881173
0.013347724 -0.05720453 0.0083312392
0.014818341 -0.059273366 0.0057314932
-0.019294411 -0.056918517 0.0051606596
-0.018479876 -0.057384878 0.0072546005
-0.017199319 -0.056375545 0.00823915
-0.016375916 -0.056834064 0.0093227625
-0.01559922 -0.057522126 0.0090283751
-0.014384657 -0.056579653 0.0090233088
-0.013999555 -0.058998127 0.008493036
-0.01280442 -0.058112368 0.0082054138
-0.011374746 -0.055925835 0.0068230331
-0.0097394828 -0.063847721 0.0057397485
-0.008672392 -0.063958891 0.0082499683
-0.00675915 -0.056969978 0.0091971755
-0.0057250964 -0.056296784 0.0093987584
-0.0050990358 -0.060168624 0.01066345
-0.0037611814 -0.055477425 0.013751268
-0.0028562115 -0.056172162 0.015991181
-0.0019213462 -0.056679714 0.016844094
-0.0010712887 -0.063206032 0.017770261
0 -0.066160098 0.018481553
0.0010575238 -0.0623939 0.018853635
0.0017991684 -0.05307547 0.018768579
0.0028699154 -0.056441668 0.018921047
0.0037611814 -0.055477425 0.018485039
0.0046453145 -0.054814711 0.019071043
0.0056165727 -0.05522963 0.01943031
0.0065617808 -0.055306438 0.018287092
0.0074277022 -0.054779302 0.017653763
0.0085875373 -0.056296077 0.01744622
0.00939014 -0.055401828 0.017406106
0.010354598 -0.055538297 0.017389685
0.011546426 -0.056769926 0.016258627
0.012159451 -0.055185199 0.014288247
0.012696578 -0.053507008 0.011907011
0.013921783 -0.054759014 0.0081846416
0.01474136 -0.054358765 0.0053424239
-0.020201396 -0.055794336 0.0054994226
-0.019378157 -0.056196656 0.0078471899
-0.018012639 -0.054985955 0.0098300874
-0.016854076 -0.054307576 0.010605454
-0.01657024 -0.056533758 0.010704726
-0.015179342 -0.055025112 0.010703772
-0.014815458 -0.057286438 0.01051566
-0.013489803 -0.055886328 0.0095537305
-0.012658684 -0.056477204 0.009552598
-0.011936458 -0.057692878 0.0091529489
-0.010836039 -0.057135478 0.0091069043
-0.0093626017 -0.054303091 0.0091762543
-0.0089272447 -0.057531133 0.0092740357
-0.0079182107 -0.057407025 0.0095891356
-0.0072314539 -0.059917759 0.011190653
-0.0066865059 -0.064636223 0.013720304
-0.0049659279 -0.057604767 0.015259564
-0.0037024098 -0.053684942 0.016426891
-0.0028022684 -0.054177187 0.017526209
-0.0019090199 -0.055361576 0.018226475
-0.00092095538 -0.05341541 0.018720359
0 -0.055969946 0.02046898
0.00091644778 -0.053153969 0.020647109
0.001894157 -0.054930553 0.020384729
0.0028093951 -0.054314971 0.020290434
0.0037085006 -0.053773262 0.020156831
0.0047110235 -0.05464787 0.02019605
0.005734893 -0.0554373 0.020185441
0.0065326951 -0.054128043 0.019950837
0.0075342851 -0.054623567 0.019487262
0.0083698407 -0.05393897 0.0182814
0.0091866162 -0.053282373 0.018905461
0.010320292 -0.054416087 0.018263817
0.011385556 -0.055030186 0.017439723
0.012080915 -0.053899467 0.016063809
0.013475315 -0.055826306 0.013498634
0.01382843 -0.05346993 0.0096404254
0.016149292 -0.058541182 0.0074175596
0.015554257 -0.053067464 0.0054301023
-0.020511493 -0.05567405 0.0079978704
-0.01957497 -0.055788662 0.010233074
-0.0180516 -0.054154802 0.012536287
-0.0169074 -0.053540096 0.013490796
-0.016098144 -0.053976126 0.013738543
-0.015908539 -0.056674171 0.013579041
-0.014450892 -0.05491339 0.013038546
-0.013116234 -0.053401809 0.012685537
-0.012588033 -0.055193685 0.012684017
-0.011690047 -0.055527724 0.011037201
-0.010435296 -0.054073811 0.010754853
-0.0097223343 -0.055417307 0.010904849
-0.0088536721 -0.056073256 0.011127472
-0.0077495044 -0.055215221 0.013281673
-0.0068084216 -0.055440005 0.015352488
-0.0058305445 -0.055390175 0.016295999
-0.0046893032 -0.053458057 0.016960204
-0.0037481363 -0.053410944 0.017165631
-0.0027972742 -0.05314821 0.018211186
-0.0018921706 -0.053926863 0.018939406
-0.00094865286 -0.054073211 0.019242197
0 -0.052187826 0.02088967
0.00092739164 -0.052861325 0.02094692
0.0018788901 -0.05354837 0.020685256
0.0027826536 -0.052870415 0.020445615
0.0038127091 -0.054331105 0.020408422
0.0047733672 -0.054416385 0.020445615
0.0057168799 -0.054310359 0.020654857
0.0067146183 -0.054676179 0.020425946
0.0076237894 -0.054319497 0.020527303
0.0083395094 -0.052816894 0.020284683
0.009503088 -0.054167602 0.020393461
0.010190791 -0.052806832 0.02007252
0.011211426 -0.053254273 0.019360572
0.012348985 -0.054145548 0.017641455
0.012986673 -0.052874312 0.015951604
0.014712972 -0.055909291 0.011908084
0.014640452 -0.052156612 0.0080945492
0.015585958 -0.052258801 0.0055283904
-0.021048576 -0.053578194 0.0079850256
-0.020183949 -0.053823866 0.010153383
-0.018975774 -0.053132169 0.012959272
-0.018482447 -0.054474581 0.013808459
-0.017252052 -0.053673048 0.014267832
-0.015875243 -0.052294914 0.014683038
-0.015305286 -0.053568501 0.014293581
-0.014190271 -0.052977011 0.014250487
-0.013536138 -0.05414455 0.014146149
-0.012385877 -0.053354546 0.013944507
-0.011299542 -0.052731197 0.012741715
-0.010602516 -0.053976446 0.012592614
-0.0097245527 -0.054457497 0.012677044
-0.0085634869 -0.053283915 0.013546109
-0.0078628734 -0.05504011 0.015275329
-0.0067003844 -0.053603075 0.016709298
-0.005984663 -0.055856857 0.01722917
-0.0047555822 -0.053262517 0.017676026
-0.0037107498 -0.051950496 0.017807424
-0.0028578781 -0.053347059 0.018736154
-0.0018615369 -0.052123033 0.019786775
-0.00095210149 -0.053317685 0.020466208
0 -0.053130195 0.020871967
0.00094405917 -0.052867316 0.020909727
0.0018424061 -0.051587373 0.02060765
0.0028233335 -0.052702226 0.020451993
0.0038218747 -0.053506248 0.020357609
0.0046995338 -0.052634779 0.020401955
0.0055566388 -0.051861964 0.020574391
0.006689724 -0.053517792 0.020385206
0.0074934857 -0.052454401 0.020472497
0.0081835818 -0.050920062 0.020395905
0.0094449855 -0.052891921 0.02043435
0.010227349 -0.052066501 0.020540714
0.01139747 -0.05318819 0.02014187
0.011990853 -0.051652905 0.018075407
0.013331548 -0.053326193 0.016881615
0.013761951 -0.051377948 0.015142828
0.014779299 -0.051727545 0.0085711479
0.015876276 -0.052298322 0.0055344701
-0.022205848 -0.05310094 0.0063353181
-0.021209886 -0.053024713 0.010020941
-0.019803826 -0.051867161 0.012935489
-0.018970301 -0.052168328 0.014335632
-0.017848197 -0.051665835 0.015533268
-0.017117852 -0.052304547 0.016048372
-0.016175868 -0.05233369 0.016473264
-0.015075891 -0.051823378 0.016240209
-0.014324078 -0.052521624 0.016347647
-0.013473504 -0.052931622 0.016076267
-0.012121852 -0.05128476 0.015488565
-0.011604673 -0.053188086 0.01502794
-0.01057406 -0.0528703 0.014640719
-0.0094599091 -0.052029502 0.015011877
-0.0086290082 -0.052732829 0.016147226
-0.0075361235 -0.051810849 0.017088264
-0.0065880199 -0.051763013 0.017804086
-0.0060031549 -0.055028919 0.01813373
-0.0046436293 -0.051079925 0.018251121
-0.0037306061 -0.051295832 0.018281877
-0.0028437139 -0.052134756 0.019548386
-0.001859036 -0.051123492 0.020340472
-0.00095371687 -0.052454427 0.020985663
0 -0.052280325 0.020956188
0.00091033289 -0.050068308 0.021004558
0.0019157028 -0.052681826 0.02060765
0.0028616276 -0.05246317 0.020527422
0.0037101337 -0.051014338 0.020471543
0.0047079083 -0.051786993 0.020401001
0.0056551457 -0.051838838 0.020617753
0.0065935641 -0.051806577 0.020470858
0.0075794989 -0.052109055 0.020617098
0.0086213322 -0.05268592 0.020358771
0.0094988942 -0.052243918 0.020580381
0.010463509 -0.052317545 0.020490706
0.011367143 -0.052099403 0.020219684
0.012075141 -0.051087137 0.019130796
0.013510164 -0.053075645 0.017260849
0.01386649 -0.050843798 0.015989065
0.015171358 -0.052151546 0.011297405
0.01648324 -0.053328127 0.0060546994
-0.021900013 -0.051417422 0.0087727904
-0.021142194 -0.051894475 0.013037413
-0.020401135 -0.052460063 0.014731437
-0.018973231 -0.051227726 0.016422749
-0.01782668 -0.050665304 0.017026365
-0.01686956 -0.050608676 0.017404556
-0.016146278 -0.05128818 0.017569602
-0.015651079 -0.052822389 0.017404586
-0.013951778 -0.050226402 0.01770857
-0.013027952 -0.050250672 0.017629534
-0.012453913 -0.051731639 0.017126173
-0.011678817 -0.052554678 0.016808331
-0.010383379 -0.05097295 0.016237438
-0.0092834895 -0.050130844 0.01682058
-0.00857112 -0.05142672 0.01772967
-0.0076640197 -0.051732134 0.018278331
-0.0068061324 -0.05250445 0.01894179
-0.0057298713 -0.051568843 0.018848538
-0.0046382612 -0.050093222 0.019214064
-0.0037982163 -0.05127592 0.019724637
-0.002800097 -0.050401744 0.019972712
-0.0018972291 -0.051225185 0.0210585
-0.00092479668 -0.049939018 0.021350414
0 -0.050212301 0.021261781
0.00093856867 -0.050682709 0.021159977
0.0018944261 -0.051149502 0.021004558
0.002780902 -0.050056234 0.020862848
0.0038101594 -0.051437151 0.020786315
0.0047564721 -0.051369898 0.020617753
0.0055536581 -0.049982924 0.02114898
0.0066909767 -0.051616106 0.020630896
0.0075548398 -0.050995167 0.020630896
0.0083940178 -0.050364107 0.020218194
0.0095643271 -0.051647365 0.020400912
0.01031235 -0.050624266 0.020400912
0.011494623 -0.051725801 0.020219684
0.012725493 -0.052859742 0.019130111
0.012925639 -0.049856037 0.01750499
0.013990142 -0.050364513 0.016311675
0.014984702 -0.050573368 0.011403084
0.016620317 -0.05279395 0.0060945451
-0.021609379 -0.049795523 0.010138988
-0.020940483 -0.050447527 0.013097376
-0.019550391 -0.049341459 0.015479535
-0.019073432 -0.050544593 0.016833305
-0.018342877 -0.05116697 0.017780304
-0.016653996 -0.049036767 0.017996281
-0.015879545 -0.049506817 0.018039763
-0.015278257 -0.050609227 0.018320471
-0.014333886 -0.050646398 0.018119216
-0.01336245 -0.050586417 0.017986149
-0.012224534 -0.049838483 0.017986059
-0.011206849 -0.049496915 0.017885178
-0.010648951 -0.051308583 0.017290264
-0.0095706163 -0.050724264 0.017794907
-0.0083036972 -0.048899554 0.018476397
-0.0076061706 -0.050390881 0.018978119
-0.0066488865 -0.050341573 0.019437045
-0.0056363903 -0.049788114 0.019767523
-0.0047172629 -0.050002985 0.019897819
-0.0037609967 -0.049833208 0.020316541
-0.0027805879 -0.049123719 0.020666569
-0.0018548511 -0.049153555 0.021360546
-0.00094657036 -0.050168231 0.02161181
0 -0.050946817 0.021477431
0.00093797746 -0.049712803 0.021351725
0.0018577763 -0.049231075 0.02115643
0.0027708982 -0.048952535 0.020640194
0.0038390004 -0.050866757 0.020890355
0.004587159 -0.048623886 0.020740658
0.0056210347 -0.049652472 0.021314979
0.006556754 -0.049643993 0.020925343
0.0074272766 -0.049205709 0.021450549
0.0086875446 -0.051159985 0.020154774
0.0093774861 -0.049700677 0.02027458
0.010191256 -0.049103323 0.020269334
0.011553339 -0.051027246 0.019914061
0.012013109 -0.048976526 0.018824309
0.01326098 -0.050202284 0.01720044
0.01428821 -0.050485011 0.016043961
0.014802791 -0.049034245 0.010843605
0.016562713 -0.051636696 0.0055149198
-0.023779726 -0.051522739 0.0050908029
-0.022028109 -0.049802683 0.010220438
-0.020940771 -0.049496371 0.014035016
-0.019781979 -0.048983946 0.016172677
-0.019262403 -0.050082248 0.016957104
-0.018065536 -0.049442519 0.017793804
-0.016925994 -0.048897319 0.017886341
-0.015891135 -0.048608176 0.018039763
-0.014933539 -0.048534002 0.018210351
-0.014561571 -0.050480112 0.018102527
-0.013530632 -0.050256632 0.017961025
-0.012213609 -0.048854437 0.018039018
-0.011475286 -0.04972624 0.018272519
-0.01056534 -0.049945243 0.017885178
-0.0093319109 -0.048525937 0.018486083
-0.0085374136 -0.04932728 0.018841326
-0.0073493705 -0.04777091 0.019083291
-0.006607601 -0.049085036 0.019705832
-0.005673395 -0.049169421 0.019912332
-0.0046594301 -0.048458073 0.020019025
-0.0036679225 -0.047682993 0.020416647
-0.0028076821 -0.048666492 0.020822704
-0.0018935147 -0.049231384 0.021305948
-0.00093670981 -0.048708912 0.021368861
0 -0.049907058 0.021288574
0.00092116807 -0.04790074 0.021265954
0.0018554834 -0.048242569 0.020990789
0.0028067681 -0.048650645 0.02051875
0.0036803554 -0.047844619 0.020765692
0.0047069658 -0.048952445 0.020427793
0.005688752 -0.049302518 0.020964742
0.0064902939 -0.048213612 0.021060646
0.0076096896 -0.049462982 0.021204174
0.0082867974 -0.047879275 0.020170003
0.0094860625 -0.049327523 0.020502985
0.010348202 -0.048918772 0.020145357
0.011312993 -0.049022969 0.01938054
0.012108284 -0.048433136 0.018683016
0.013085494 -0.048603263 0.017184287
0.014115743 -0.048934579 0.015853733
0.01541294 -0.050092056 0.0083224475
0.016690297 -0.051052675 0.0052068233
-0.023173967 -0.049244683 0.0059631765
-0.022399182 -0.04966775 0.010242164
-0.020412054 -0.04731885 0.013648778
-0.019986637 -0.048538975 0.015891314
-0.018898522 -0.048191234 0.016823977
-0.018069144 -0.048501387 0.017339855
-0.017304245 -0.049028695 0.017652214
-0.015992692 -0.047978077 0.017800093
-0.015062265 -0.048010971 0.017669559
-0.014480388 -0.049233317 0.018063277
-0.013113723 -0.04777142 0.017916501
-0.012482169 -0.048968509 0.017986059
-0.011590161 -0.049258187 0.018276483
-0.010172676 -0.047164224 0.018292546
-0.0094763841 -0.048329562 0.018841326
-0.0087711113 -0.049702965 0.019512683
-0.0075878086 -0.04837228 0.019902796
-0.0066558551 -0.048492659 0.020004243
-0.0056302869 -0.047857441 0.020339549
-0.0047009047 -0.047949225 0.02023524
-0.0037486393 -0.04779515 0.020535976
-0.0028612767 -0.048641704 0.0207614
-0.0018884088 -0.048154425 0.021284819
-0.00093964185 -0.047921732 0.021305948
0 -0.046998635 0.02118656
0.00094128755 -0.048005667 0.021353126
0.0018899936 -0.048194833 0.021085322
0.0028044097 -0.047674965 0.02061376
0.00385396 -0.049137991 0.021118134
0.0047316831 -0.048263166 0.020899326
0.0056043239 -0.047636755 0.020964652
0.0066584144 -0.048511308 0.02093181
0.0076214485 -0.048586734 0.020967275
0.0083817234 -0.047496431 0.020905614
0.0094142314 -0.048012581 0.020905644
0.010458191 -0.048487976 0.02016744
0.011196098 -0.047583416 0.019072205
0.012393468 -0.048620529 0.01840806
0.013062554 -0.047585018 0.016902477
0.013902962 -0.047270074 0.014829636
0.015676176 -0.049967814 0.0067108572
0.016551733 -0.049655199 0.0051095188
-0.022937451 -0.047786355 0.0059122443
-0.021780582 -0.047349095 0.010103106
-0.021319907 -0.048454333 0.013510466
-0.019552033 -0.046552457 0.014528662
-0.01945621 -0.048640523 0.016376346
-0.017733678 -0.046667576 0.016781151
-0.017154112 -0.047650315 0.017386854
-0.015883995 -0.046717633 0.017404556
-0.015350737 -0.047971051 0.017498761
-0.013830777 -0.046102591 0.017508775
-0.013287714 -0.047456123 0.017891377
-0.012627134 -0.048565898 0.018039018
-0.01115735 -0.046488956 0.018399566
-0.010338228 -0.046991948 0.01892513
-0.0095111299 -0.047555652 0.01952064
-0.008467285 -0.047040474 0.019957036
-0.0077540758 -0.048462972 0.020339549
-0.0066153356 -0.047252394 0.020356447
-0.0055816523 -0.04651377 0.020438373
-0.0047664312 -0.047664311 0.020552784
-0.003771072 -0.0471384 0.020710617
-0.0028607331 -0.047678884 0.020943075
-0.0018786578 -0.046966445 0.021302342
-0.00094976119 -0.04748806 0.02140516
0 -0.047235243 0.021424353
0.00094232452 -0.047116224 0.021262676
0.0018373297 -0.045933243 0.020957619
0.0027963647 -0.046606079 0.020770848
0.0037844817 -0.04730602 0.021065325
0.0046561086 -0.046561085 0.02093181
0.0055970117 -0.046641767 0.020891517
0.0066387998 -0.047419999 0.020857692
0.0073294155 -0.045808844 0.02103743
0.008568204 -0.04760113 0.020905614
0.0094763963 -0.047381982 0.020927131
0.01024372 -0.046562366 0.02004841
0.011333557 -0.047223151 0.019072205
0.011990352 -0.046116736 0.018293291
0.013171724 -0.047041871 0.01604712
0.014308646 -0.047695488 0.013013035
0.015419926 -0.048187271 0.0058181584
-0.022842417 -0.0466366 0.0051806867
-0.022259194 -0.047421765 0.0095861554
-0.020488247 -0.045632917 0.012978941
-0.020004468 -0.04667709 0.014223516
-0.019452488 -0.047658596 0.014530391
-0.017791418 -0.04588313 0.016126603
-0.016808739 -0.045757126 0.016628146
-0.016142748 -0.046529096 0.016768336
-0.015253214 -0.046712968 0.016833127
-0.01426289 -0.046592109 0.016961366
-0.013244151 -0.046354529 0.017275363
-0.011797799 -0.044468626 0.01759398
-0.011375906 -0.046451617 0.018276483
-0.010515132 -0.046840135 0.018822432
-0.0092581799 -0.04536508 0.019690663
-0.0083185947 -0.045290127 0.019829094
-0.0075829062 -0.046445303 0.020460814
-0.0065696486 -0.045987539 0.020479858
-0.0056723165 -0.046323918 0.02048102
-0.0047179498 -0.046235908 0.020828575
-0.0037522775 -0.0459654 0.021111757
-0.0028327401 -0.046268087 0.021289438
-0.0018798666 -0.046056733 0.021668196
-0.00092116639 -0.045137152 0.021555781
0 -0.046087176 0.021644771
0.00091897184 -0.045029618 0.021682292
0.0018746239 -0.045928288 0.021429479
0.0027857411 -0.045500439 0.021165013
0.0037359409 -0.045765277 0.021402001
0.0046749762 -0.045814764 0.021093845
0.0056884079 -0.046455331 0.021141827
0.0064181853 -0.044927299 0.021228194
0.0075468253 -0.046224304 0.021354645
0.0083591836 -0.045511112 0.021142304
0.0090729184 -0.044457298 0.021045595
0.010309348 -0.04592346 0.019895047
0.011190183 -0.045693249 0.018902451
0.012281749 -0.046292748 0.018371582
0.013234768 -0.046321686 0.01586926
0.014263806 -0.046595097 0.010821521
0.015613809 -0.047817294 0.005097121
-0.022338763 -0.04662003 0.0080475509
-0.021224536 -0.046308082 0.010427117
-0.020080956 -0.045899328 0.013554782
-0.019504664 -0.046811197 0.014203936
-0.017894177 -0.045206338 0.014852613
-0.017366517 -0.046310715 0.015633762
-0.015917877 -0.044944596 0.0161134
-0.015172153 -0.045516457 0.016140014
-0.014563377 -0.046602804 0.016061544
-0.013041846 -0.044714902 0.016894251
-0.0122523 -0.045239262 0.017445266
-0.01166096 -0.046643838 0.018331915
-0.01037894 -0.045289919 0.018877864
-0.0097334273 -0.046720453 0.019913644
-0.0088302679 -0.047094762 0.020163655
-0.0074570179 -0.044742107 0.020632356
-0.0064974618 -0.044554025 0.020660192
-0.0056364099 -0.045091279 0.020692766
-0.0046834536 -0.044961154 0.021116138
-0.0038227027 -0.045872431 0.02126804
-0.00279357 -0.044697121 0.021363169
-0.0018974016 -0.045537639 0.021555185
-0.00094121124 -0.045178138 0.021516293
0 -0.044402827 0.021505445
0.0009554766 -0.045862876 0.021629661
0.0019177631 -0.046026316 0.021174073
0.0028144189 -0.045030702 0.020736516
0.0037668629 -0.045202356 0.021213621
0.0046907687 -0.04503138 0.021103948
0.0056279977 -0.045023981 0.021249831
0.006612665 -0.045343988 0.02133134
0.0074984645 -0.044990789 0.021465212
0.0083848601 -0.044719253 0.021259665
0.0093513057 -0.044886269 0.020945191
0.010260289 -0.04477217 0.019884765
0.011246351 -0.044985402 0.01887098
0.012114475 -0.044730365 0.018185705
0.013203911 -0.045270551 0.016028941
0.014551498 -0.046564795 0.0081050694
-0.021942232 -0.044838473 0.0066090226
-0.021430433 -0.045783196 0.0091791153
-0.020078059 -0.044936609 0.011586249
-0.019147541 -0.044996724 0.013244092
-0.018274527 -0.045205407 0.014166415
-0.017250028 -0.045041736 0.01419881
-0.016147465 -0.044642989 0.014650464
-0.015294697 -0.044928171 0.01564157
-0.014095253 -0.044165127 0.015302509
-0.01338963 -0.044950902 0.015979528
-0.012499232 -0.04518953 0.017080635
-0.011028959 -0.04319676 0.018365264
-0.010515512 -0.044929914 0.018964499
-0.0095333671 -0.044806827 0.019752294
-0.0085284263 -0.044537336 0.019671351
-0.0076143844 -0.044734508 0.020368636
-0.0065912134 -0.04425529 0.02048102
-0.0056662997 -0.044386014 0.020822316
-0.0047479873 -0.044631079 0.021076977
-0.0037987407 -0.044635203 0.021096468
-0.0027843735 -0.043621853 0.021157324
-0.001894808 -0.044527989 0.021481723
-0.00093473203 -0.043932404 0.021481723
0 -0.044419661 0.021429926
0.0009460107 -0.044462502 0.021417916
0.00185957 -0.043699898 0.021035969
0.0028209523 -0.044194918 0.020726234
0.0038299537 -0.045001958 0.021062225
0.0046534967 -0.043742869 0.021060675
0.0056289923 -0.044093773 0.021200627
0.0066189487 -0.044441514 0.021107107
0.0073764198 -0.043336466 0.0213328
0.0084296856 -0.044021692 0.021190315
0.0094230529 -0.044288348 0.020765692
0.010228591 -0.043703981 0.019685298
0.011257846 -0.044093229 0.018858969
0.012023154 -0.043468326 0.017940283
0.01309449 -0.043960076 0.0157592
0.014705706 -0.046077881 0.0057976246
-0.02236871 -0.044737421 0.0050622523
-0.021495584 -0.044945315 0.0070330501
-0.020037957 -0.043892667 0.0095005333
-0.019665908 -0.045231588 0.010621965
-0.018303039 -0.044312619 0.012998611
-0.017142188 -0.043807816 0.013528973
-0.016648283 -0.045048293 0.013867676
-0.015378168 -0.044212233 0.013992071
-0.014459553 -0.04434263 0.013973057
-0.013482301 -0.044298992 0.015069097
-0.012241489 -0.04331604 0.016000509
-0.01151645 -0.044146392 0.017549068
-0.010511917 -0.043958925 0.018491
-0.0094014928 -0.043246865 0.019512683
-0.0084942114 -0.043414861 0.019623995
-0.0076268855 -0.043854591 0.02024129
-0.006544115 -0.043004185 0.020478904
-0.0056720166 -0.043485459 0.020887434
-0.0046670982 -0.042937305 0.02101922
-0.0037496344 -0.043120794 0.021158695
-0.0028708158 -0.044019174 0.021101922
-0.0018783017 -0.04320094 0.021239966
-0.00091690611 -0.042177681 0.021302342
0 -0.043344516 0.021457434
0.00091952784 -0.04229828 0.021364182
0.0018807405 -0.043257032 0.020860195
0.0028658777 -0.043943457 0.02071932
0.0037540239 -0.043171275 0.021054536
0.0046847779 -0.043099958 0.020873219
0.0055780136 -0.042764768 0.021026045
0.0066102562 -0.043438826 0.021097481
0.0074723 -0.042965725 0.021180958
0.0084091816 -0.042980261 0.020949572
0.0092600891 -0.042596411 0.020648539
0.010281969 -0.042997323 0.01950103
0.011332165 -0.043439962 0.018685937
0.012130585 -0.042923607 0.017210454
0.013387615 -0.043987878 0.014508396
0.014636848 -0.044886336 0.0051214397
-0.021160148 -0.043282121 0.0053814352
-0.020720152 -0.044400323 0.0077129304
-0.019605685 -0.04411279 0.0090169311
-0.018098852 -0.042865701 0.010410994
-0.017302845 -0.043257114 0.012379199
-0.016353717 -0.043289252 0.012903571
-0.015539531 -0.043704931 0.013218641
-0.014800941 -0.044402823 0.013458461
-0.013156039 -0.042287268 0.014386654
-0.012535817 -0.043393213 0.015544564
-0.011472235 -0.043020878 0.016970932
-0.010377523 -0.042453501 0.017912328
-0.0097224219 -0.043750901 0.019588977
-0.0084807882 -0.042403944 0.019897819
-0.0075574107 -0.042510435 0.02044493
-0.0065673832 -0.042218894 0.020578623
-0.0055877152 -0.041907866 0.02109614
-0.0046709166 -0.042038251 0.021306813
-0.0037404965 -0.042080585 0.021331757
-0.0028705485 -0.043058228 0.021325558
-0.001846418 -0.041544408 0.021548629
-0.00095766602 -0.04309497 0.021544099
0 -0.041728754 0.02163434
0.00095260551 -0.042867247 0.021493435
0.0018865364 -0.042447068 0.021118134
0.0027712299 -0.041568447 0.020807385
0.0037304976 -0.0419681 0.021134943
0.0046934742 -0.042241264 0.020873219
0.0056780637 -0.042585481 0.021065474
0.0064965463 -0.041763511 0.021024674
0.007459389 -0.041959066 0.021077752
0.0084034363 -0.04201718 0.0207102
0.0093085589 -0.041888516 0.020432144
0.010374171 -0.042439789 0.019432783
0.011293792 -0.042351723 0.018772602
0.012230027 -0.042334709 0.017235547
0.013706269 -0.044055864 0.010574102
-0.019915177 -0.041727036 0.0054986477
-0.019630594 -0.043187305 0.0071071982
-0.018952196 -0.043889299 0.0088616014
-0.017342802 -0.042393517 0.0099128783
-0.016287895 -0.042156909 0.010380894
-0.015433717 -0.04244272 0.012613595
-0.014632276 -0.042921342 0.012586892
-0.013557362 -0.042608853 0.013346642
-0.012378516 -0.041896515 0.014533639
-0.011219514 -0.041138217 0.015886039
-0.010656718 -0.042626873 0.016809642
-0.0096775889 -0.042581394 0.018935293
-0.0086181806 -0.042133328 0.019525558
-0.0075605484 -0.041583017 0.020218343
-0.0065364158 -0.041086044 0.020550758
-0.0056632254 -0.041530322 0.021075487
-0.0046399543 -0.040831596 0.021179676
-0.0037632822 -0.041396104 0.021613479
-0.0028164871 -0.041308478 0.021481276
-0.0019125633 -0.042076394 0.021783412
-0.00093299913 -0.041051961 0.021744013
0 -0.041274764 0.021639943
0.00094805931 -0.041714609 0.021629661
0.0018639078 -0.041005969 0.021254361
0.0028056954 -0.041150197 0.020807385
0.0037984008 -0.041782409 0.020953029
0.0045972764 -0.040456034 0.020750999
0.0055900672 -0.040993825 0.021054536
0.0066337129 -0.041697625 0.020832419
0.0074278987 -0.040853441 0.020981729
0.0085507007 -0.041803427 0.02084741
0.0093520973 -0.041149229 0.02015996
0.010230316 -0.040921263 0.019510835
0.011389184 -0.04176034 0.018744439
0.012135302 -0.04107333 0.017166853
0.013693858 -0.043037839 0.0057683289
-0.019688265 -0.042329773 0.0051414073
-0.018352024 -0.04153353 0.00565207
-0.017492294 -0.041787148 0.0074674487
-0.016735639 -0.042331327 0.0080792606
-0.015362893 -0.041287776 0.0086455047
-0.014428781 -0.041362505 0.010008216
-0.013750462 -0.042233564 0.012282312
-0.012537235 -0.041469317 0.013458461
-0.011394553 -0.040830482 0.015011489
-0.010593928 -0.041412629 0.01566115
-0.0094163055 -0.040490113 0.017941833
-0.0084784692 -0.04050824 0.01898393
-0.0075270636 -0.040457968 0.019634873
-0.0066189226 -0.040659096 0.020233393
-0.0057489476 -0.041200794 0.020396382
-0.0046842583 -0.040284622 0.020880908
-0.0037214167 -0.040005229 0.021289229
-0.0028472787 -0.040810995 0.021182746
-0.0018579732 -0.039946426 0.021452606
-0.00092521502 -0.039784245 0.021442711
0 -0.04019076 0.021373272
0.00092216633 -0.039653152 0.021358937
0.0018989472 -0.040827364 0.020948321
0.0028289871 -0.040548816 0.020662218
0.0036345939 -0.039071884 0.020873964
0.0047430932 -0.040790603 0.020548463
0.0056735924 -0.040660746 0.020689368
0.0064947377 -0.039896246 0.020648539
0.0075758328 -0.040720101 0.02061817
0.0084192185 -0.040225152 0.020227253
0.0092834234 -0.039918721 0.019911468
0.01042028 -0.040733822 0.019179016
0.0111181 -0.039839856 0.018347591
0.012205286 -0.040371332 0.015603036
0.013743637 -0.042212598 0.0051867962
-0.017923467 -0.04182142 0.0050677359
-0.016721403 -0.0413117 0.0056822598
-0.015626334 -0.041019127 0.0066236854
-0.014895136 -0.041706383 0.0079498887
-0.013400895 -0.040202685 0.010851204
-0.012508909 -0.040413398 0.012591124
-0.011772118 -0.041202411 0.013540417
-0.010353396 -0.039531149 0.015415579
-0.009578594 -0.040230095 0.017008454
-0.0083792992 -0.039103396 0.01898393
-0.0075388853 -0.039579149 0.019530624
-0.0065827509 -0.039496507 0.020118326
-0.0055664992 -0.038965493 0.020333737
-0.0046849409 -0.039353505 0.02071318
-0.0037865923 -0.039759219 0.021049649
-0.0028133004 -0.039386205 0.021049649
-0.0018809285 -0.039499499 0.021187574
-0.00093346101 -0.039205361 0.02118358
0 -0.039451338 0.021358937
0.00095126563 -0.039953154 0.021257102
0.0018943428 -0.039781198 0.020789444
0.0027359254 -0.038302954 0.020736068
0.0038097617 -0.040002499 0.020635009
0.0046523223 -0.039079506 0.02047503
0.0055730836 -0.039011586 0.020510495
0.0065537314 -0.039322387 0.020395309
0.0074150092 -0.038928799 0.020356238
0.0084829908 -0.039587289 0.020088524
0.0094170617 -0.039551657 0.019712687
0.010213267 -0.038996112 0.019291162
0.011368401 -0.039789405 0.017879128
0.012516039 -0.040436435 0.011204183
-0.015968645 -0.04091965 0.0052180886
-0.014790167 -0.040426455 0.0061955452
-0.013532403 -0.03963061 0.009097755
-0.012505066 -0.039439052 0.01089105
-0.011570369 -0.039532091 0.012786001
-0.010679344 -0.039804827 0.014689982
-0.0097073028 -0.03979994 0.01767081
-0.0085039185 -0.038740072 0.019278347
-0.007550661 -0.038697138 0.019700259
-0.0066032978 -0.038676459 0.020313799
-0.0056404453 -0.038543042 0.020374119
-0.0047877203 -0.039259307 0.020653695
-0.0037861401 -0.038807936 0.021049649
-0.0027975955 -0.038233805 0.020906568
-0.0019003361 -0.038956892 0.021279842
-0.00093529897 -0.038347259 0.021476358
0 -0.038142379 0.021358937
0.0009535306 -0.039094754 0.021146566
0.0018885069 -0.03871439 0.020857096
0.0027847909 -0.03805881 0.020761698
0.0037507762 -0.038445454 0.020709604
0.0046334644 -0.037994411 0.020581096
0.0056576384 -0.03866053 0.0206213
0.0065977499 -0.038643964 0.020345747
0.007496038 -0.038417194 0.020345747
0.0084358873 -0.038430151 0.02000457
0.0094061773 -0.038565326 0.019341707
0.010356845 -0.038602788 0.018281013
0.011120573 -0.03799529 0.016162127
0.01269204 -0.04002874 0.0056963563
-0.014017027 -0.040048648 0.0059112012
-0.012761006 -0.039264634 0.0092171431
-0.011743741 -0.039145805 0.011966586
-0.010744413 -0.039070595 0.014561653
-0.0092458921 -0.036983568 0.017693073
-0.008515466 -0.037846517 0.019300222
-0.0075292261 -0.03764613 0.019857168
-0.0064787026 -0.037021156 0.020337045
-0.0057436223 -0.038290817 0.020825028
-0.0046551242 -0.037240993 0.020930707
-0.0037193263 -0.037193265 0.021203727
-0.0028102256 -0.037469674 0.020931482
-0.0018759522 -0.037519045 0.021157354
-0.00092944829 -0.037177932 0.021031678
0 -0.038407318 0.021433413
0.00093457021 -0.037382808 0.021095932
0.0018983909 -0.037967816 0.020948768
0.0027729098 -0.036972132 0.020823121
0.0037751771 -0.037751772 0.020840585
0.0046974984 -0.037579987 0.020700842
0.0056576561 -0.037717707 0.02068007
0.0065397304 -0.037369888 0.020478934
0.0075336155 -0.037668079 0.020455062
0.0084589561 -0.037595361 0.01996392
0.0093019716 -0.037207887 0.019553334
0.010289829 -0.037417561 0.018121868
0.0112976 -0.037658665 0.015870392
-0.013336941 -0.040010821 0.0068778098
-0.012170097 -0.039552815 0.010435015
-0.01080137 -0.038295768 0.014237016
-0.0094860308 -0.036995519 0.017655909
-0.0084325951 -0.036541246 0.018924534
-0.0075189602 -0.036654931 0.019637614
-0.0067031598 -0.037346177 0.020281106
-0.0055991085 -0.036394205 0.020217359
-0.0047365054 -0.03694474 0.020478934
-0.0037549224 -0.036610492 0.02069813
-0.0028449721 -0.036984637 0.020321786
-0.0018518002 -0.036110103 0.020653695
-0.00094700622 -0.036933243 0.020671338
0 -0.035884641 0.021097541
0.00093432341 -0.036438614 0.021050066
0.0018999702 -0.03704942 0.020962596
0.0028133267 -0.036573246 0.020872891
0.0037624827 -0.036684208 0.020777941
0.0047014467 -0.036671285 0.020770371
0.0055892318 -0.036330007 0.020741314
0.0065806792 -0.036663782 0.020613104
0.007524325 -0.036681086 0.020530522
0.0084945923 -0.036809899 0.019977003
0.0095171183 -0.037116762 0.019400567
0.010242864 -0.036315609 0.01780194
0.011415317 -0.037099779 0.0122554
-0.012984263 -0.037953999 0.0050813556
-0.011750177 -0.037208892 0.0092916787
-0.010779143 -0.037237041 0.014266163
-0.0094591212 -0.035944659 0.017615527
-0.0083820419 -0.035390843 0.018900156
-0.0076252087 -0.036219742 0.0194408
-0.0066506057 -0.03610329 0.020152003
-0.0056996532 -0.036097802 0.020280004
-0.0047666412 -0.036226474 0.020172834
-0.0037868361 -0.035974942 0.020412087
-0.0028034225 -0.035510018 0.020194709
-0.001893733 -0.035980929 0.020043999
-0.0009570581 -0.03636821 0.020235926
0 -0.035884064 0.02057004
0.00095175335 -0.036166627 0.020560145
0.0018339785 -0.034845591 0.020812362
0.0028248243 -0.035781108 0.020768017
0.0037319616 -0.035453636 0.020776153
0.0046739667 -0.035522148 0.020698309
0.0057164803 -0.036204375 0.020715386
0.0065750694 -0.035693236 0.020573527
0.0075505902 -0.035865303 0.020445436
0.0085120685 -0.035939846 0.019840628
0.0093920697 -0.035689864 0.019093513
0.010223995 -0.035319254 0.016246825
0.011930825 -0.037780944 0.0067201555
-0.011932832 -0.0367929 0.0068802536
-0.010661645 -0.035861898 0.012750059
-0.0092047919 -0.034057733 0.017175883
-0.0084274476 -0.034646172 0.018608928
-0.0075353547 -0.034851015 0.019319147
-0.0065728333 -0.034742121 0.020088136
-0.0056662764 -0.034942038 0.020145088
-0.004718096 -0.034913909 0.020022631
-0.0037316596 -0.034517851 0.020143896
-0.0028476445 -0.035120949 0.019959003
-0.0018918745 -0.034999676 0.019978225
-0.00093381229 -0.034551054 0.020065665
0 -0.035070047 0.020516038
0.00092722708 -0.034307402 0.020560145
0.0019088249 -0.03531326 0.020871282
0.0028359378 -0.034976568 0.020665467
0.0037540968 -0.034725398 0.020715386
0.0046961475 -0.03475149 0.020632923
0.0056545706 -0.034869853 0.020635962
0.0065796613 -0.034778208 0.020446658
0.0075353547 -0.034851015 0.020049304
0.008583257 -0.035286725 0.019726843
0.0092968335 -0.034398284 0.019085586
0.010403518 -0.034993652 0.015593857
0.011777785 -0.036314834 0.0059698522
-0.012343585 -0.037030756 0.0060792863
-0.010384518 -0.033985697 0.012455136
-0.0094374325 -0.033974759 0.016808867
-0.0084963888 -0.033985555 0.017762989
-0.0075932234 -0.034169506 0.019118607
-0.0066196308 -0.034043815 0.019775778
-0.0055271504 -0.033162903 0.020168066
-0.0046198349 -0.033262812 0.019979358
-0.0037908405 -0.034117565 0.020022333
-0.0028512406 -0.034214888 0.019994766
-0.0018876868 -0.033978362 0.019983262
-0.00094177923 -0.033904053 0.020086646
0 -0.034022689 0.020650625
0.00094330346 -0.033958927 0.020711273
0.0018592739 -0.033466931 0.020983666
0.0028080733 -0.033696879 0.02073732
0.003787426 -0.034086835 0.020749927
0.0046929959 -0.033789571 0.02065742
0.0057126079 -0.034275647 0.020716965
0.0066947378 -0.034430079 0.020590097
0.0074318 -0.033443101 0.020114124
0.0083531998 -0.033412799 0.019823849
0.0096074929 -0.034586973 0.018434495
0.010467653 -0.034257773 0.012968719
-0.012209407 -0.035610769 0.0055616498
-0.010315172 -0.032821003 0.011746943
-0.0093603684 -0.032761291 0.016243726
-0.0084648794 -0.032918975 0.017629415
-0.0074632899 -0.032651894 0.018845737
-0.006531538 -0.03265769 0.019778758
-0.0056564831 -0.032996152 0.019949466
-0.0047526108 -0.033268277 0.019932956
-0.0037390331 -0.032716542 0.019959003
-0.0027893379 -0.032542273 0.019959003
-0.0018899506 -0.033074137 0.019988149
-0.00095333706 -0.033366799 0.019989461
0 -0.03372328 0.020596623
0.00093693601 -0.032792758 0.020522565
0.0018687331 -0.03270283 0.020808727
0.0028292115 -0.033007465 0.020622104
0.0037704925 -0.032991808 0.02065742
0.0047114589 -0.032980211 0.020648718
0.0056071021 -0.032708097 0.02062726
0.0065025203 -0.032512601 0.020256549
0.0074906 -0.032771375 0.019950837
0.0084352549 -0.03280377 0.01921916
0.009403035 -0.032910623 0.015981078
0.010706702 -0.034066781 0.0072082877
-0.010257835 -0.031706031 0.0087716281
-0.0093697989 -0.031857315 0.015971631
-0.0085112173 -0.032153491 0.01738745
-0.0075503243 -0.032088879 0.018502772
-0.0066478075 -0.032289352 0.019694626
-0.005662872 -0.032089606 0.019853026
-0.0047506187 -0.032304209 0.019864559
-0.0037976753 -0.03228024 0.019921601
-0.0028318579 -0.032094389 0.019930184
-0.0019370748 -0.032930274 0.019838095
-0.00092288107 -0.031377956 0.019913405
0 -0.031583276 0.020491689
0.00094550039 -0.032147013 0.020480752
0.0018890322 -0.032113548 0.020478815
0.0028190548 -0.031949285 0.020540476
0.0036974477 -0.031428307 0.020641625
0.0047643357 -0.032397483 0.020612836
0.0056127612 -0.031805646 0.020470291
0.0065778261 -0.031949442 0.020075321
0.0074898549 -0.031831883 0.019643277
0.0084607489 -0.031962827 0.017949909
0.0092984876 -0.031614859 0.015202552
0.010777396 -0.033311952 0.0058739185
-0.010166917 -0.030500751 0.0087020993
-0.0096345395 -0.031793982 0.015902102
-0.0084604053 -0.031021485 0.017314792
-0.0075236848 -0.0310352 0.018283844
-0.0066142553 -0.031181488 0.019694626
-0.0056608133 -0.031134473 0.019894153
-0.0047586556 -0.031407125 0.019887745
-0.0038560459 -0.031812377 0.019921601
-0.002886428 -0.031750709 0.019934565
-0.0018504251 -0.030532015 0.019910634
-0.00094735197 -0.031262614 0.019697994
0 -0.030637015 0.020480752
0.00094174308 -0.031077523 0.020413756
0.0018938326 -0.031248238 0.020479918
0.0028044917 -0.03084941 0.020653307
0.00380313 -0.031375822 0.020733804
0.0046461816 -0.030664798 0.020618647
0.005676541 -0.031220976 0.020337313
0.0065771323 -0.031006481 0.019895762
0.0074578542 -0.030763648 0.01925984
0.008423103 -0.030884711 0.017510027
0.0095930956 -0.031657215 0.01276052
-0.010607528 -0.030858262 0.0061768591
-0.0096188523 -0.030780327 0.015888661
-0.0084462957 -0.030031273 0.017253399
-0.0076803435 -0.030721374 0.019044906
-0.0066561857 -0.030428279 0.019830525
-0.0056071505 -0.029904803 0.019949436
-0.0046682139 -0.029876569 0.019855231
-0.0036561589 -0.029249271 0.020081609
-0.0027994225 -0.029860506 0.020418614
-0.0018976454 -0.030362327 0.020041555
-0.0009281651 -0.029701283 0.02007705
0 -0.030204693 0.020418257
0.00094761234 -0.030323595 0.020423591
0.0018474122 -0.029558595 0.020633578
0.0028438633 -0.030334543 0.020752817
0.0037839317 -0.030271454 0.020737916
0.004631029 -0.029638587 0.02055198
0.0056473818 -0.030119369 0.019954681
0.006594318 -0.030145453 0.01962617
0.0075472258 -0.030188903 0.018371671
0.0085274791 -0.030319924 0.016229898
0.0096310405 -0.03081933 0.0080296993
-0.0095372899 -0.029565597 0.013027906
-0.0086636031 -0.029841298 0.01691255
-0.0077706259 -0.030111175 0.017588407
-0.0066468734 -0.029436152 0.01968497
-0.0056584189 -0.029235166 0.019906998
-0.0046621757 -0.028905489 0.019662529
-0.0038164044 -0.029577134 0.020021647
-0.0028296313 -0.029239522 0.020429641
-0.0018573116 -0.028788328 0.020015717
-0.00094372156 -0.029255368 0.020015717
0 -0.029147744 0.020425409
0.00092921313 -0.028805606 0.020339578
0.0018684062 -0.028960295 0.020732641
0.0028223163 -0.029163934 0.020663857
0.0037481324 -0.029048026 0.020652294
0.0046917386 -0.02908878 0.020343214
0.0056423275 -0.029152026 0.019572526
0.0065265563 -0.02890332 0.01935637
0.0075351228 -0.029198602 0.017788351
0.0083860606 -0.02888532 0.015380114
0.0099132964 -0.03073122 0.0055474341
-0.0097768176 -0.029330455 0.0076525509
-0.0088007553 -0.029335849 0.015464038
-0.008261133 -0.030979248 0.016849756
-0.0066515985 -0.028506851 0.019114375
-0.0055509335 -0.027754668 0.019562602
-0.0049066204 -0.029439721 0.019353628
-0.003709143 -0.027818574 0.01982373
-0.0028318404 -0.028318403 0.02035442
-0.0018832904 -0.028249355 0.019912839
-0.0009464086 -0.028392259 0.019926101
0 -0.028044896 0.020535231
0.00095000502 -0.028500151 0.020480007
0.0018859725 -0.028289586 0.020726293
0.0028069711 -0.02806971 0.020654082
0.0037908209 -0.028431157 0.020404994
0.0046847556 -0.028108533 0.020156652
0.0055275289 -0.027637646 0.019437432
0.0065794983 -0.028197849 0.019144326
0.0076707043 -0.02876514 0.017441183
0.0084360223 -0.028120074 0.01471585
-0.010715163 -0.031073973 0.0052860379
-0.0092498949 -0.029805215 0.01132682
-0.0085935695 -0.031151688 0.015229374
-0.0064562052 -0.026747135 0.016633064
-0.0056493017 -0.027304959 0.01742965
-0.0046960288 -0.027236968 0.01906094
-0.0037749694 -0.027368529 0.019237041
-0.0028139178 -0.027201207 0.019513279
-0.001883167 -0.027305922 0.019625753
-0.00093464373 -0.027104668 0.01968959
0 -0.027627969 0.020219237
0.0009464075 -0.027445817 0.019971937
0.0018548854 -0.026895838 0.020404994
0.0028067869 -0.027132273 0.020406783
0.0037903287 -0.027479883 0.020222276
0.0047051706 -0.02728999 0.019884765
0.0057206084 -0.027649608 0.019265503
0.006536406 -0.027079396 0.018584847
0.0074985921 -0.027182397 0.0166758
0.0087393019 -0.028159974 0.010655761
-0.0089898398 -0.02796839 0.0083949268
-0.0076847626 -0.026896669 0.012041032
-0.0063576302 -0.025430521 0.015861362
-0.0057044751 -0.026620883 0.016660392
-0.0046387091 -0.025976771 0.018197
-0.0037573897 -0.026301729 0.019256294
-0.0028800867 -0.026880808 0.019596398
-0.0018670635 -0.026138889 0.019583523
-0.00094000105 -0.026320029 0.01964736
0 -0.026320111 0.019969225
0.0009301274 -0.026043568 0.019824415
0.0018691358 -0.026167899 0.020222276
0.0028296229 -0.026409814 0.020222276
0.0037191163 -0.026033815 0.019989818
0.0046515074 -0.02604844 0.019333601
0.0056236666 -0.026243778 0.018769443
0.0065146084 -0.026058434 0.017276376
0.0074829427 -0.0261903 0.016430885
0.0088033853 -0.02738831 0.0050387681
-0.0082894405 -0.024868321 0.0056112409
-0.0072293719 -0.024399132 0.0098414123
-0.0068988381 -0.026609804 0.01515311
-0.0055471789 -0.024962306 0.015932739
-0.0046709497 -0.025223127 0.017072976
-0.0037683095 -0.025436088 0.018930882
-0.0027809534 -0.025028583 0.01934731
-0.0018689898 -0.025231361 0.018989742
-0.00092956721 -0.025098315 0.019367188
0 -0.025025994 0.019273221
0.00094206061 -0.025435636 0.019316107
0.0018621642 -0.025139218 0.019917399
0.0028292194 -0.025462974 0.019934595
0.0037987798 -0.025641764 0.019216567
0.0047331071 -0.025558777 0.018769443
0.0056535741 -0.025441084 0.017951965
0.0065704035 -0.025342984 0.016657352
0.007493082 -0.025289152 0.010254353
-0.0082898522 -0.02694202 0.007114619
-0.006698654 -0.024880715 0.012472481
-0.0055799801 -0.024179915 0.015476197
-0.0046659862 -0.024263127 0.016582876
-0.0037090071 -0.024108546 0.018018335
-0.0028011941 -0.024277015 0.018987089
-0.0019029572 -0.024738444 0.018615067
-0.00093277957 -0.024252269 0.018775225
0 -0.024548626 0.018972397
0.00093436398 -0.024293464 0.01888442
0.001856523 -0.024134798 0.019279927
0.0028258732 -0.0244909 0.019060194
0.0037843229 -0.024598099 0.018509239
0.004613583 -0.023990631 0.018079638
0.0056307972 -0.024400121 0.01635462
0.0065425537 -0.024300912 0.011827499
-0.0081823692 -0.025569905 0.005882144
-0.006955632 -0.024841543 0.0095739067
-0.0059600193 -0.024833413 0.014321566
-0.0048681493 -0.024340747 0.01546824
-0.0037871487 -0.023669681 0.017344803
-0.0028327464 -0.02360622 0.017863035
-0.0018723193 -0.023403991 0.018311262
-0.00093080621 -0.023270154 0.018311262
0 -0.023654107 0.018127739
0.00092495669 -0.023123916 0.018181801
0.0018634232 -0.023292789 0.018262357
0.0028444452 -0.023703709 0.01822257
0.0036752818 -0.022970511 0.01723209
0.0047353259 -0.02367663 0.01617083
0.0056851213 -0.023688005 0.013914019
0.006469463 -0.023105225 0.0055989325
-0.00790527 -0.023715809 0.00626266
-0.0068590138 -0.02351662 0.0093096197
-0.0058165239 -0.023266096 0.014788806
-0.0047717267 -0.022904288 0.015223652
-0.0038759748 -0.023255849 0.017056584
-0.0029298917 -0.023439134 0.01767534
-0.0019861918 -0.023834301 0.017979056
-0.00096739409 -0.023217458 0.017950714
0 -0.022328487 0.017633975
0.00094259693 -0.022622326 0.01767543
0.0018393599 -0.022072319 0.017633975
0.0027893372 -0.022314698 0.017241329
0.003795312 -0.022771871 0.016086519
0.0047217705 -0.022664499 0.014019161
0.0055442112 -0.022176845 0.0061852932
-0.0080433264 -0.023124564 0.0062350631
-0.0068139648 -0.022388741 0.0093173087
-0.005713956 -0.021903496 0.013641536
-0.0048784469 -0.022440856 0.015047252
-0.0037647057 -0.021647058 0.015953571
-0.0028497253 -0.021847894 0.016953647
-0.0018771844 -0.02158762 0.016867787
-0.00094030675 -0.021627055 0.016820639
0 -0.022455217 0.016908556
0.00098349934 -0.022620484 0.016762584
0.0019271387 -0.022162095 0.016628891
0.0028595943 -0.021923555 0.016238004
0.0037571522 -0.021603625 0.01455313
0.0046088942 -0.021200914 0.0059318841
-0.0079031065 -0.021733543 0.0058809519
-0.006663579 -0.020942677 0.0083194375
-0.005801769 -0.021273153 0.012822747
-0.0047067595 -0.020709742 0.01437366
-0.0038069328 -0.020938132 0.014852256
-0.0028444806 -0.020859525 0.015041947
-0.0018859946 -0.020745941 0.015681446
-0.00094544271 -0.020799739 0.015721738
0 -0.021439034 0.015930802
0.00093910762 -0.020660369 0.015616059
0.0020018516 -0.022020366 0.015183896
0.003036537 -0.022267938 0.014128536
0.0040094005 -0.022051703 0.0096218288
-0.0077945325 -0.020460647 0.0059335232
-0.0068516531 -0.02055496 0.0082139373
-0.0058007347 -0.020302571 0.010477364
-0.0047357543 -0.019890169 0.013705581
-0.0037828633 -0.019860031 0.014513314
-0.0027997526 -0.019598268 0.014554024
-0.0018924767 -0.019871006 0.014559656
-0.00094502902 -0.01984561 0.014550418
0 -0.019783 0.014463037
0.00095593132 -0.020074558 0.014232844
0.0019630061 -0.020611564 0.013868034
0.0029486658 -0.02064066 0.010639608
0.0038920029 -0.020433016 0.0053299665
-0.0079255896 -0.019813973 0.0062081814
-0.0065942295 -0.018840656 0.0081958771
-0.0056469454 -0.018823152 0.010256946
-0.0048143417 -0.019257367 0.012739539
-0.0038562096 -0.019281048 0.013866007
-0.0029075667 -0.019383779 0.014377177
-0.0019159971 -0.019159971 0.014247119
-0.00093462219 -0.018692445 0.014039665
0 -0.01904572 0.013717592
0.00095124776 -0.019024955 0.012784183
0.00190467 -0.0190467 0.010743707
0.0030149904 -0.020099936 0.0061585307
-0.0077190474 -0.018332737 0.0060742795
-0.0065516219 -0.017782973 0.008572042
-0.0057159979 -0.01810066 0.011960775
-0.0047193519 -0.017933536 0.012668759
-0.0037280943 -0.017708447 0.013519675
-0.0028217055 -0.017870802 0.013595372
-0.0018641168 -0.01770911 0.013790309
-0.00095100439 -0.018069083 0.013031811
0 -0.018704301 0.01198566
0.00095252669 -0.018098008 0.010288477
0.0019733552 -0.018746875 0.0081896186
0.002983734 -0.018896982 0.0050325692
-0.0077452837 -0.017426888 0.0060200691
-0.006699034 -0.017226087 0.0092254281
-0.0056947772 -0.017084332 0.012101531
-0.0046803658 -0.016849317 0.013036668
-0.0037685067 -0.01695828 0.013790309
-0.0027632462 -0.016579477 0.013866007
-0.0019073373 -0.017166037 0.013866007
-0.00095593039 -0.017206747 0.012880415
0 -0.016859397 0.011693805
0.0009489287 -0.017080717 0.0095353425
0.001955922 -0.017603297 0.005946964
-0.0077700047 -0.01651126 0.0056628883
-0.0066269427 -0.016094003 0.007812947
-0.0056370068 -0.015971519 0.010149628
-0.0048711472 -0.016561901 0.012033194
-0.0037263418 -0.015836952 0.012968332
-0.0028590995 -0.016201563 0.01288566
-0.0019164446 -0.01628978 0.012885273
-0.00095555285 -0.016244398 0.011648536
0 -0.016189599 0.0096494257
0.00096103153 -0.016337536 0.0066945851
-0.0066557936 -0.015213243 0.0068256855
-0.005813648 -0.015503061 0.0093811452
-0.004739278 -0.01516569 0.010399014
-0.003729935 -0.01491974 0.011968881
-0.0028566725 -0.015235587 0.012032956
-0.0019289459 -0.015431567 0.011825711
-0.00093800528 -0.015008084 0.0096995831
0 -0.015462923 0.0085832477
0.00095869973 -0.015339196 0.0055814981
-0.0067165382 -0.014392583 0.0059714913
-0.0057817278 -0.014454319 0.0074467361
-0.0047026523 -0.014107957 0.0094002783
-0.0037746415 -0.014154905 0.010158926
-0.0028321382 -0.014160691 0.010242164
-0.0019108816 -0.014331613 0.0097438693
-0.00095843174 -0.014376476 0.0081989765
0 -0.014432205 0.0054112971
-0.0057297042 -0.01336931 0.0059862733
-0.0047125532 -0.013195149 0.0068276823
-0.0037533555 -0.013136744 0.0083685219
-0.0028736722 -0.01341047 0.008405894
-0.0019309012 -0.013516309 0.0063853562
-0.00094957853 -0.013294099 0.0050864816
-0.004677102 -0.012160465 0.0055987537
-0.0037395961 -0.012153688 0.0056977272
-0.0028877987 -0.012513795 0.0056357682
0 0 0 1 0 0 0 1 0 0 0 1 0 0 0 0 0 1289 1 0 0
