ply
format ascii 1.0
comment PCL generated
element vertex 1291
property float x
property float y
property float z
element camera 1
property float view_px
property float view_py
property float view_pz
property float x_axisx
property float x_axisy
property float x_axisz
property float y_axisx
property float y_axisy
property float y_axisz
property float z_axisx
property float z_axisy
property float z_axisz
property float focal
property float scalex
property float scaley
property float centerx
property float centery
property int viewportx
property int viewporty
property float k1
property float k2
end_header
-0.013967161 -0.083802968 0.0051098466
-0.011101871 -0.072666794 0.0066919923
-0.0095105553 -0.068475999 0.0071215332
-0.0085868016 -0.068694413 0.0073092282
-0.0076428382 -0.068785548 0.0070365369
-0.0066529121 -0.068429954 0.0067493916
-0.005819778 -0.069837332 0.0051713586
-0.011486987 -0.067964673 0.0073456168
-0.010546533 -0.068073079 0.0081702769
-0.0094704805 -0.067240417 0.0096406341
-0.0085824644 -0.067706108 0.0098639131
-0.0078038238 -0.069258936 0.010032743
-0.0066380454 -0.067328744 0.0095036626
-0.0057253605 -0.067750104 0.0074440241
-0.004953966 -0.070346318 0.0063385963
-0.011872842 -0.06393069 0.0069794059
-0.011529276 -0.067254111 0.0082702637
-0.010206875 -0.064952843 0.010138035
-0.0094601167 -0.06622082 0.010925531
-0.0087411096 -0.067986406 0.011505246
-0.007486748 -0.065509044 0.011686385
-0.006792082 -0.067920819 0.011686385
-0.0057906476 -0.067557558 0.010635197
-0.004918729 -0.068862207 0.0081553757
-0.0039037194 -0.068315089 0.006272316
-0.012717363 -0.067499854 0.0072987378
-0.011510963 -0.066188037 0.0092994273
-0.010420731 -0.06536641 0.010599554
-0.0094138216 -0.064955369 0.011617988
-0.0085812854 -0.065789856 0.014688373
-0.0075231437 -0.064887114 0.014248043
-0.0067099007 -0.066140451 0.01356566
-0.0058336682 -0.067087181 0.012183726
-0.0047013182 -0.064878196 0.010939837
-0.0039564911 -0.068249471 0.0080279708
-0.0029738185 -0.068397827 0.0057955384
-0.012601854 -0.065917395 0.0072987378
-0.011500598 -0.065170057 0.010159552
-0.010684764 -0.066051267 0.012151927
-0.0094118407 -0.064000517 0.014741749
-0.0083491085 -0.063082151 0.015454412
-0.0076426999 -0.064962946 0.015400857
-0.0066216877 -0.064324968 0.015294909
-0.0056653786 -0.064207628 0.014741749
-0.0048444751 -0.065884866 0.012586892
-0.0037392003 -0.063566402 0.011428297
-0.002902268 -0.065784737 0.0094257295
-0.0019663833 -0.066857032 0.0059450269
-0.01263879 -0.065138377 0.0074018538
-0.011680616 -0.065216772 0.010631323
-0.01032134 -0.062866345 0.013726234
-0.0094475085 -0.063298307 0.015207499
-0.0085246079 -0.063460968 0.016109556
-0.0076513067 -0.064079694 0.016203135
-0.0064946557 -0.062163133 0.016175747
-0.0056455438 -0.063041903 0.016058087
-0.0047056931 -0.06305629 0.015104413
-0.0037829103 -0.063363746 0.012995541
-0.0030513245 -0.068146251 0.011292368
-0.0019792519 -0.066304937 0.0084436536
-0.00098038791 -0.065685995 0.0059095621
-0.012715187 -0.064554028 0.0068668723
-0.01159569 -0.063776292 0.010572672
-0.010336421 -0.062018532 0.013143212
-0.0095105013 -0.062769309 0.014741749
-0.0084778331 -0.062170777 0.016126275
-0.007453029 -0.061487488 0.016314954
-0.00669205 -0.063096471 0.016582817
-0.0057249591 -0.06297455 0.016668916
-0.0048378888 -0.063860133 0.015991896
-0.003813226 -0.062918231 0.015119076
-0.0028687436 -0.063112356 0.012459695
-0.0019787264 -0.065297976 0.010747999
-0.00096375583 -0.063607886 0.0062882602
0 -0.063250668 0.0051153004
-0.012835021 -0.064175107 0.005517453
-0.011367592 -0.061574459 0.010248661
-0.010748934 -0.063516423 0.011981636
-0.0095132273 -0.061835978 0.013737679
-0.008414017 -0.060767904 0.016136944
-0.007662056 -0.062254205 0.016582817
-0.0066807601 -0.062035631 0.016786993
-0.0056681815 -0.061405301 0.016917169
-0.0047513344 -0.061767343 0.016362876
-0.0038128577 -0.061958935 0.015928328
-0.0028947582 -0.062719762 0.014986068
-0.0019789189 -0.064314865 0.012563646
-0.0010615839 -0.069002949 0.010947227
0 -0.071669303 0.0068145096
0.0010725381 -0.069714971 0.0059441328
0.0019057698 -0.061937518 0.0050595701
-0.01162996 -0.062026449 0.0097855031
-0.010587269 -0.061598651 0.011704922
-0.0095073758 -0.060847208 0.013700038
-0.008929003 -0.063495137 0.016299427
-0.0076125949 -0.060900759 0.016786993
-0.0066298074 -0.060615383 0.017113537
-0.0056785406 -0.060571097 0.017301142
-0.004752059 -0.060826354 0.017090529
-0.0038019971 -0.060831953 0.017005116
-0.002905973 -0.061994091 0.016763538
-0.0019318676 -0.061819762 0.016518056
-0.0010017928 -0.064114742 0.014715165
0 -0.064648613 0.01244083
0.00090885052 -0.058166433 0.011546195
0.0018521338 -0.059268281 0.010456651
0.0027489427 -0.058644108 0.0067257285
0.0036376666 -0.058202665 0.0059404671
0.0046154251 -0.059077438 0.0050502717
-0.01175798 -0.061729394 0.0072907805
-0.010602875 -0.060725555 0.010919452
-0.0098294783 -0.061925713 0.012982905
-0.0086394614 -0.060476229 0.016200483
-0.0076137092 -0.059957959 0.016784251
-0.0066358903 -0.059723012 0.017219365
-0.0057268487 -0.060131911 0.017830104
-0.0047506238 -0.05985786 0.017707199
-0.0037872137 -0.059648618 0.017638028
-0.0030409889 -0.063860767 0.017590344
-0.0019555259 -0.061599068 0.017782927
-0.00096188387 -0.060598683 0.016495645
0 -0.060944028 0.015813887
0.00093223777 -0.058730979 0.015244663
0.0019237497 -0.060598116 0.01384604
0.0029936903 -0.062867492 0.012922376
0.0040192581 -0.063303314 0.012094051
0.0047907983 -0.06036406 0.0087603331
0.0055993907 -0.058793601 0.0070955455
0.0065340614 -0.058806553 0.0056427121
0.020880459 -0.062641382 0.0052545667
0.021629807 -0.061939903 0.0052810609
0.021937467 -0.060089584 0.0051453114
-0.01160992 -0.059984591 0.0070564449
-0.010586954 -0.05967192 0.010850251
-0.0096312193 -0.059713561 0.013266772
-0.0085957507 -0.059215173 0.016626686
-0.0076829512 -0.059542872 0.017090529
-0.0065861121 -0.058334138 0.017856538
-0.0056286654 -0.058162879 0.018220514
-0.0046794531 -0.058025215 0.018288285
-0.004062925 -0.062975332 0.018377572
-0.0027917388 -0.057695936 0.018305331
-0.0018884637 -0.058542375 0.018745691
-0.00090643211 -0.056198791 0.017810941
0 -0.061608233 0.017571121
0.0009523991 -0.059048746 0.016865581
0.0019775962 -0.061305482 0.016518354
0.0027950266 -0.057763882 0.016150117
0.0037163929 -0.057604089 0.015756011
0.0049022692 -0.06078814 0.01433292
0.0056213601 -0.058087386 0.012742996
0.0064944965 -0.057522684 0.0082505047
0.0080900602 -0.062697962 0.0071747303
0.0089101959 -0.061381351 0.0066693723
0.0098643312 -0.061158851 0.0059538782
0.010829302 -0.061037879 0.0055609941
0.011872089 -0.061339129 0.0050513744
0.018183935 -0.059337053 0.0059347451
0.020038622 -0.06211973 0.006393373
0.021159168 -0.062469926 0.0067402124
0.020784901 -0.058575634 0.0069001317
0.022092916 -0.059554815 0.0070288479
0.02279632 -0.058890492 0.0064341426
0.02339923 -0.058030091 0.0054541528
0.025836753 -0.061610717 0.0052812994
-0.011858341 -0.060279902 0.0066615343
-0.010838785 -0.060105994 0.011514485
-0.0094255414 -0.057495803 0.013523966
-0.0085826572 -0.058171343 0.016752064
-0.0077380417 -0.059002571 0.01725623
-0.0065315911 -0.056918152 0.017912239
-0.006219394 -0.063230507 0.018327624
-0.0049065794 -0.059860267 0.018438071
-0.0037229795 -0.056775436 0.018943071
-0.0028202441 -0.057344966 0.019087702
-0.0018554702 -0.056591842 0.0192146
-0.00094808161 -0.057832979 0.018833756
0 -0.058405176 0.018577397
0.00091392145 -0.055749208 0.019128919
0.0020235293 -0.061717644 0.019134134
0.0033567464 -0.068253845 0.018821746
0.0043126261 -0.065767542 0.018542558
0.0056128683 -0.068476997 0.016637146
0.0055410145 -0.05633365 0.015053391
0.0065439506 -0.057025857 0.011580735
0.007631381 -0.05818928 0.0084805191
0.0092351912 -0.062594071 0.0075356364
0.0097207744 -0.059296723 0.0073557496
0.010769152 -0.059719846 0.0069603026
0.011745864 -0.059708141 0.0064873397
0.012684927 -0.059521582 0.0057865083
0.013592238 -0.05922332 0.0059028864
0.015582237 -0.063367769 0.0055396557
0.016804412 -0.06406682 0.0053578615
0.017174402 -0.061625794 0.0060279965
0.0173987 -0.058962259 0.0063693225
0.018730676 -0.060135324 0.0081431568
0.019309076 -0.058892682 0.0083000362
0.020003783 -0.058106225 0.0094482005
0.021354824 -0.059211101 0.0096463263
0.022853695 -0.060611974 0.0097685158
0.023384335 -0.059435185 0.0094898045
0.024787989 -0.060482692 0.0080130994
0.024124473 -0.056599725 0.0071510375
0.028294479 -0.063924566 0.0056801736
0.027301541 -0.059478354 0.005122155
-0.012112596 -0.060562983 0.006359458
-0.01050267 -0.057287291 0.011418253
-0.0096635707 -0.057981424 0.014294446
-0.0087015638 -0.058010425 0.016853273
-0.0080502862 -0.060377151 0.017802536
-0.0067945584 -0.058239069 0.01840511
-0.0056995568 -0.056995567 0.018943071
-0.0047223908 -0.056668688 0.019234389
-0.0037492756 -0.056239132 0.019570738
-0.0028103737 -0.056207474 0.019483209
-0.0018615536 -0.055846609 0.020096242
-0.00095380552 -0.057228331 0.019872904
0 -0.055332094 0.019829065
0.00094771554 -0.056862932 0.020239919
0.0018531496 -0.055594489 0.020398974
0.0029954421 -0.059908845 0.020299882
0.0041587437 -0.062381152 0.019811392
0.0047400501 -0.056880597 0.018719256
0.0055676633 -0.055676632 0.017700732
0.0066070165 -0.056631569 0.015325755
0.0075144772 -0.05635858 0.014412761
0.0090549961 -0.060366642 0.010968477
0.0096970554 -0.058182333 0.0094670355
0.010736375 -0.058562044 0.0088103414
0.011436915 -0.057184573 0.0078411102
0.013273674 -0.06126311 0.0071734786
0.015016935 -0.064358294 0.0069490075
0.014736186 -0.058944743 0.0067431927
0.015784262 -0.059190981 0.0068474412
0.016146369 -0.056987185 0.0073724687
0.018407302 -0.061357673 0.0088840127
0.018182905 -0.057419702 0.0093982816
0.018715464 -0.056146391 0.011236072
0.020306457 -0.05801845 0.012054861
0.021642489 -0.059024971 0.012739539
0.021711327 -0.056638248 0.012275189
0.023274971 -0.058187429 0.012100995
0.02341597 -0.056198329 0.01016742
0.024483057 -0.056499362 0.008590281
0.025597712 -0.056883805 0.0074781477
0.029150633 -0.062465645 0.0059258938
-0.011600488 -0.057035733 0.0061673224
-0.011177018 -0.059949461 0.011417627
-0.010626775 -0.062697969 0.014123917
-0.0087261871 -0.057205003 0.016780138
-0.0075733629 -0.055853549 0.018092424
-0.0065003955 -0.054789048 0.018775433
-0.0055796672 -0.054866727 0.019570738
-0.0047698594 -0.056284338 0.019624829
-0.0037731186 -0.055653498 0.019839585
-0.0028390365 -0.055834383 0.020519674
-0.0019044144 -0.056180224 0.020796567
-0.00093412673 -0.055113479 0.020553142
0 -0.054757893 0.020619482
0.00094277551 -0.055623755 0.020773858
0.0018225564 -0.053765412 0.02088967
0.0028130908 -0.055324119 0.020473331
0.0037161123 -0.054812655 0.020302027
0.0045935474 -0.05420386 0.019960195
0.0056001297 -0.055067942 0.018589914
0.0065242681 -0.054990258 0.017218381
0.0073692435 -0.054348171 0.015849173
0.0085278023 -0.055904482 0.015210003
0.010500737 -0.061954349 0.014097989
0.010706872 -0.057427768 0.011154652
0.013981367 -0.068741724 0.009460479
0.012992767 -0.058967173 0.0083784759
0.013289692 -0.056006558 0.0081345141
0.014392874 -0.05661197 0.008303076
0.015245754 -0.056218721 0.0087091923
0.016704883 -0.057975773 0.0095970333
0.017319793 -0.056770429 0.01145947
0.017556287 -0.054516889 0.011713505
0.019609516 -0.057848077 0.013118565
0.020053461 -0.056340676 0.013734013
0.020250985 -0.054309461 0.014531761
0.02153215 -0.055234645 0.014391959
0.023077888 -0.056733143 0.014226049
0.023218201 -0.054794956 0.013256758
0.024833677 -0.056353346 0.011753231
0.025312034 -0.055311482 0.0093968213
0.028128311 -0.059270371 0.0079571605
0.028609809 -0.058206163 0.0054153204
-0.012689747 -0.061333776 0.0063545704
-0.010890293 -0.057421543 0.011493891
-0.0092931818 -0.053900454 0.014685005
-0.0086088069 -0.055478975 0.017076522
-0.0074714343 -0.054167897 0.018680871
-0.0065791653 -0.054513082 0.019623965
-0.0056862896 -0.054967463 0.020532787
-0.0046884865 -0.054386444 0.021117002
-0.0036853545 -0.053437643 0.020989776
-0.0028139635 -0.054403294 0.02082032
-0.0019191314 -0.055654809 0.021165311
-0.00093277259 -0.054100811 0.020718336
0 -0.053804208 0.020599484
0.00094434625 -0.054772083 0.020687222
0.0018841672 -0.054640848 0.020741612
0.0027858219 -0.053859223 0.020526946
0.0037199522 -0.053939309 0.020284683
0.0047110235 -0.05464787 0.019958526
0.0057345279 -0.055433769 0.019222051
0.0065842811 -0.054555472 0.017947108
0.0075440295 -0.054694213 0.017047584
0.0082744732 -0.053324383 0.015843421
0.0096165342 -0.055775899 0.015599519
0.011679988 -0.061585393 0.015327781
0.011711421 -0.056605205 0.014211386
0.012333392 -0.055025905 0.012080908
0.013707133 -0.056786694 0.01176846
0.014521449 -0.056149602 0.011564285
0.015468574 -0.05607358 0.01177296
0.016211232 -0.055308908 0.013135493
0.016813548 -0.054176986 0.013734013
0.018248478 -0.055705879 0.014235944
0.019127505 -0.055469763 0.014923781
0.019520523 -0.053913824 0.015326828
0.020545017 -0.054164138 0.016430408
0.022053547 -0.055613291 0.016602546
0.022426767 -0.054198023 0.016341507
0.023828829 -0.05528288 0.015192419
0.02421068 -0.054008439 0.014397085
0.025303459 -0.054355577 0.012076974
0.026493059 -0.054878481 0.0099685788
0.030341506 -0.060683012 0.0065198541
-0.011725852 -0.055697799 0.0067557693
-0.010152609 -0.052608978 0.011499465
-0.0093222111 -0.053136602 0.015857756
-0.0085165612 -0.053938221 0.017299175
-0.0076174554 -0.054274369 0.018963069
-0.006609729 -0.053822082 0.02044034
-0.0056905649 -0.054060366 0.021055818
-0.0046350881 -0.052840006 0.021344215
-0.0037988196 -0.054133181 0.021118104
-0.0028619701 -0.054377433 0.021043092
-0.0018629291 -0.053093478 0.021345407
-0.00093786989 -0.053458586 0.021246374
0 -0.052548964 0.021111995
0.00094365736 -0.053788468 0.02095592
0.0018920489 -0.053923391 0.02092579
0.0027808261 -0.052835692 0.020729184
0.003786149 -0.053952623 0.020691991
0.0047812862 -0.054506663 0.020590901
0.0056858137 -0.05401523 0.019759089
0.0066822134 -0.054412309 0.019514829
0.0075770114 -0.053986207 0.018254131
0.0083882948 -0.053125866 0.017677546
0.0094866445 -0.054073878 0.017071307
0.01052573 -0.054542415 0.015941799
0.011437949 -0.054330256 0.015836865
0.012584867 -0.055179801 0.015465379
0.013414563 -0.054616433 0.014703423
0.014253647 -0.054163858 0.014238864
0.014991076 -0.053405706 0.014357179
0.015890164 -0.053278785 0.015027344
0.0175351 -0.055527817 0.015320569
0.017695496 -0.053086486 0.015891284
0.018646481 -0.053142466 0.016473442
0.020193378 -0.054810595 0.017106533
0.020978166 -0.054352518 0.0176377
0.020673865 -0.051235233 0.017789781
0.02328592 -0.055304062 0.017620206
0.023729574 -0.05410343 0.017223179
0.024213312 -0.053083029 0.015758753
0.025225792 -0.053254448 0.013881713
0.026402351 -0.053747643 0.011606395
0.027793307 -0.054628223 0.0080503225
0.02980349 -0.056626633 0.0056244731
-0.010477237 -0.053338662 0.011402488
-0.0094261039 -0.052786183 0.016168445
-0.0085108588 -0.052956454 0.018175423
-0.0076718447 -0.053702913 0.019561797
-0.006666271 -0.053330168 0.020421624
-0.0056531364 -0.052762605 0.021035731
-0.0047443113 -0.053136289 0.021381378
-0.0037480348 -0.052472487 0.021114588
-0.0028003037 -0.052272338 0.02113688
-0.0018832267 -0.052730348 0.021264583
-0.00094253605 -0.052782018 0.021070808
0 -0.052700296 0.021094292
0.0009584988 -0.053675935 0.020900518
0.001838385 -0.05147478 0.020878047
0.0028233335 -0.052702226 0.020640194
0.0038645214 -0.0541033 0.020441949
0.0046666358 -0.052266318 0.020390868
0.005582225 -0.052100766 0.019959956
0.0067174416 -0.053739533 0.019774884
0.0075305221 -0.052713655 0.018500775
0.0083063785 -0.051684137 0.018114597
0.0093347421 -0.052274555 0.017951727
0.010620605 -0.054068536 0.017494738
0.011672247 -0.054470487 0.017137796
0.012393001 -0.053385239 0.017006636
0.013208793 -0.052835174 0.016817182
0.014120863 -0.052717887 0.016383052
0.015027682 -0.052596886 0.015705794
0.016111182 -0.053072128 0.016314834
0.017019788 -0.052950453 0.016504914
0.017830288 -0.052552428 0.01698786
0.019152241 -0.053626277 0.017253488
0.019879853 -0.053012945 0.018085063
0.020229492 -0.051493254 0.018756658
0.022020437 -0.053614974 0.018368691
0.022100175 -0.051567078 0.018124789
0.023348916 -0.052301571 0.017885476
0.024241084 -0.052211564 0.016912997
0.02542205 -0.052727211 0.016246796
0.026187224 -0.052374449 0.013131469
0.027068341 -0.052269898 0.0095042586
0.031412337 -0.05863636 0.0071976185
-0.011388337 -0.052196547 0.0056988895
-0.010427329 -0.052136645 0.011548668
-0.0094166603 -0.051791631 0.016353905
-0.0084436974 -0.051600374 0.018544525
-0.0074937227 -0.051519342 0.019612521
-0.006588873 -0.051769715 0.020439863
-0.0057355678 -0.052576039 0.021022797
-0.0046963324 -0.051659655 0.021321833
-0.0037306061 -0.051295832 0.021241635
-0.00288338 -0.05286197 0.021208227
-0.0018747564 -0.051555801 0.021495372
-0.00094055542 -0.051730547 0.021207988
0 -0.051469311 0.021057934
0.00092715025 -0.050993264 0.020918727
0.0019142404 -0.052641612 0.020900518
0.0028508429 -0.052265454 0.020798177
0.0037164702 -0.051101465 0.020693868
0.0047322796 -0.052055076 0.020629525
0.0057322779 -0.052545879 0.020209759
0.0065150945 -0.051190026 0.020346373
0.0075419717 -0.051851057 0.019816726
0.0085489629 -0.052243661 0.019393384
0.009414224 -0.051778235 0.019371539
0.0104883 -0.052441496 0.01834324
0.011630985 -0.053308681 0.017938375
0.012350656 -0.052252773 0.017902583
0.013607353 -0.053457458 0.01729095
0.014589863 -0.053496163 0.017067909
0.015647715 -0.053789023 0.016912162
0.016042363 -0.051901761 0.016919702
0.016957883 -0.051815752 0.017080486
0.018044788 -0.052234914 0.017917842
0.018585686 -0.051110636 0.018189132
0.019010292 -0.049788862 0.018779278
0.021156346 -0.052890867 0.01904273
0.021295004 -0.050922833 0.018996328
0.022673072 -0.051959123 0.018735886
0.02391978 -0.052623514 0.018115461
0.024145404 -0.051076815 0.017391741
0.025019059 -0.05096475 0.016424626
0.02773002 -0.054469679 0.014245003
0.026966963 -0.051144239 0.012460411
0.029125832 -0.053397357 0.0092237294
0.031025102 -0.055044539 0.0052141249
-0.01039678 -0.051038735 0.013894409
-0.0093559837 -0.050522309 0.01714462
-0.0085168388 -0.051101029 0.018502831
-0.0075918827 -0.051245209 0.019573838
-0.0065502306 -0.050530352 0.020448267
-0.0055847331 -0.050262596 0.020979434
-0.0046891407 -0.050642721 0.021486312
-0.0038221029 -0.051598389 0.021349192
-0.0028147218 -0.050664995 0.021374226
-0.0018810198 -0.050787535 0.021596044
-0.00092534511 -0.049968634 0.021264583
0 -0.050386705 0.021263301
0.00095563132 -0.051604092 0.020918727
0.0018868697 -0.050945483 0.021051824
0.0027723101 -0.049901579 0.020880729
0.0038211278 -0.051585227 0.020989567
0.0047037648 -0.050800659 0.020861179
0.0055339164 -0.049805246 0.02033183
0.0066696517 -0.051451597 0.020462513
0.0075504528 -0.050965559 0.020222902
0.008398952 -0.050393712 0.019634277
0.0093785236 -0.050644025 0.019594729
0.010160245 -0.049877565 0.019319862
0.011953647 -0.053791415 0.01937294
0.012653441 -0.052560449 0.019447982
0.013060351 -0.05037564 0.019018233
0.013993796 -0.050377667 0.018397897
0.015131811 -0.051069863 0.01780808
0.015958941 -0.050693106 0.017844528
0.017382385 -0.052147157 0.018049717
0.017996689 -0.051148485 0.018378317
0.018878285 -0.05097137 0.018375218
0.019987082 -0.051395353 0.018918693
0.020855729 -0.051191334 0.019171387
0.021422859 -0.050297149 0.019287705
0.023216741 -0.052237667 0.018996328
0.023579823 -0.050932419 0.018701673
0.023978405 -0.049801301 0.017795563
0.02527412 -0.050548241 0.016780466
0.026597206 -0.05129461 0.015123457
0.027041655 -0.050353426 0.012565941
0.028176829 -0.050718293 0.0096041262
0.032180566 -0.056056466 0.0058079362
-0.010516937 -0.050672513 0.013910472
-0.0094243977 -0.049949311 0.017208904
-0.0084336568 -0.04966487 0.018382311
-0.0075418269 -0.049964603 0.01987958
-0.0065704035 -0.04974734 0.020807326
-0.0056374874 -0.049797807 0.021118104
-0.0047126925 -0.049954541 0.021694839
-0.0038119431 -0.050508246 0.02180022
-0.0028069147 -0.049588826 0.021644086
-0.0018866631 -0.049996573 0.0216479
-0.000941573 -0.04990337 0.02139768
0 -0.050378338 0.021359295
0.00093316287 -0.049457632 0.02092579
0.0018589952 -0.049263373 0.020907581
0.0027612085 -0.048781347 0.020798177
0.0038555763 -0.051086385 0.020621598
0.0046490114 -0.049279522 0.020458728
0.005676243 -0.050140146 0.020131975
0.0065601664 -0.049669832 0.020177245
0.0074068033 -0.049070071 0.020143062
0.0086491592 -0.050933938 0.019799352
0.0093555534 -0.049584433 0.019696862
0.010242186 -0.049348712 0.019548029
0.011249977 -0.0496874 0.019562006
0.012405074 -0.050574534 0.019482374
0.012983858 -0.049153175 0.019182146
0.014332972 -0.050643172 0.019017994
0.014888531 -0.049318258 0.018478632
0.015852632 -0.049422912 0.018491507
0.016787693 -0.04943043 0.018374532
0.017491603 -0.048792366 0.018641382
0.018974828 -0.050283294 0.018378317
0.019781718 -0.04992529 0.018755287
0.020692816 -0.049850874 0.018851072
0.021906048 -0.050479155 0.018769443
0.022119295 -0.048846774 0.018487036
0.023262473 -0.04931644 0.018500179
0.025335502 -0.051645447 0.017618239
0.025863985 -0.050770044 0.016424626
0.026017265 -0.049246967 0.01448676
0.027220197 -0.049747258 0.012503505
0.028197423 -0.049815446 0.0098077953
0.029734574 -0.05083653 0.0066659153
-0.010497651 -0.049625259 0.011498332
-0.0092600146 -0.048152078 0.016402304
-0.008405799 -0.048566841 0.018444061
-0.0075175543 -0.0488641 0.019612521
-0.0066417269 -0.049338542 0.020441175
-0.0057289731 -0.049651101 0.021094501
-0.0047261631 -0.049152095 0.021408975
-0.0036745046 -0.047768559 0.021599233
-0.0028307198 -0.04906581 0.02153036
-0.0018863229 -0.049044397 0.021512181
-0.00093549083 -0.048645522 0.021246374
0 -0.049051344 0.021136403
0.00093104161 -0.048414163 0.020900518
0.0018714517 -0.048657745 0.02091381
0.0028128016 -0.048755229 0.020518422
0.0036925443 -0.048003078 0.020647556
0.0046984339 -0.048863713 0.020579904
0.0056766858 -0.049197942 0.020105422
0.0065393494 -0.048578024 0.020201325
0.0076759877 -0.049893919 0.020179182
0.0083866054 -0.048455942 0.019942135
0.0093721244 -0.048735049 0.020210296
0.010419911 -0.049257759 0.019923985
0.011177017 -0.048433743 0.020224929
0.012219151 -0.048876606 0.019911915
0.013670483 -0.050776079 0.019911915
0.014274706 -0.04948565 0.019776016
0.015288218 -0.049686708 0.018861145
0.016140614 -0.049371291 0.018781692
0.016978601 -0.049049295 0.018699765
0.017826097 -0.048787214 0.018877625
0.018732816 -0.048705321 0.018797368
0.019986484 -0.04949034 0.018827587
0.020636857 -0.048778024 0.018688172
0.021671237 -0.048995841 0.018701673
0.02217504 -0.048045918 0.01841706
0.02422691 -0.050391972 0.017818153
0.024094556 -0.048189111 0.017106533
0.02480863 -0.047779586 0.016163677
0.026764931 -0.049706303 0.013267308
0.027446194 -0.049213868 0.01143384
0.028152203 -0.048797153 0.0093646348
0.029459968 -0.049416721 0.0059197545
-0.010698132 -0.04960043 0.0084879994
-0.0094520105 -0.048205256 0.015819401
-0.0086471653 -0.049000602 0.018305749
-0.0074839671 -0.047710288 0.019531101
-0.0065479246 -0.047706306 0.020215452
-0.0056237048 -0.047801491 0.020994037
-0.0046622027 -0.047554467 0.021287769
-0.0037839899 -0.048245873 0.021694839
-0.0028226951 -0.047985815 0.021496713
-0.0018923096 -0.048253898 0.021512181
-0.00093830086 -0.047853343 0.021273673
0 -0.047349904 0.021133959
0.00094207993 -0.048046079 0.021013826
0.0019244922 -0.049074553 0.021137893
0.0027747874 -0.047171388 0.0206016
0.0038298238 -0.048830256 0.020913899
0.0046996856 -0.047936793 0.020789623
0.0056536901 -0.048056368 0.020533502
0.0065999702 -0.048085496 0.020499527
0.0075483201 -0.04812054 0.020363063
0.0083921431 -0.04755548 0.020292431
0.0093520796 -0.047695607 0.020473361
0.01027857 -0.047655191 0.020661622
0.011256048 -0.047838204 0.020522743
0.012330904 -0.048375081 0.019937903
0.013017355 -0.047420368 0.020090222
0.014033615 -0.047714289 0.019663632
0.015068112 -0.048029605 0.019048661
0.015758723 -0.047276169 0.018873543
0.016931592 -0.047972847 0.01861009
0.017967345 -0.048228137 0.018831283
0.018689109 -0.047657229 0.018705428
0.020091452 -0.048793528 0.018500179
0.020880681 -0.048405215 0.018353343
0.021409666 -0.047473606 0.017735034
0.022713995 -0.048267238 0.017571777
0.024170851 -0.049308535 0.017409325
0.023742039 -0.046570923 0.016175807
0.02565931 -0.048467584 0.015191466
0.0266 -0.048450001 0.012955964
0.026813475 -0.047154732 0.010547489
0.02878331 -0.048931628 0.0079543293
0.029377298 -0.048330393 0.0053562224
-0.0095464746 -0.047732372 0.014373064
-0.0083998237 -0.046665687 0.016645074
-0.0076443758 -0.047777351 0.018510938
-0.0065637128 -0.046883661 0.019957781
-0.0056021316 -0.046684429 0.020609766
-0.0047441837 -0.047441836 0.021265358
-0.0037730224 -0.047162782 0.021357536
-0.0028194056 -0.046990093 0.021401644
-0.0018863382 -0.047158457 0.021443158
-0.00093939865 -0.046969932 0.021191031
0 -0.047049325 0.021109819
0.00092952367 -0.046476185 0.020669729
0.0018623215 -0.046558037 0.020814478
0.0028221486 -0.047035813 0.020800173
0.0038113012 -0.047641266 0.020828038
0.0046411753 -0.046411753 0.020745188
0.0055706813 -0.046422347 0.020545334
0.0066247215 -0.047319438 0.020576388
0.0073196646 -0.045747902 0.020443112
0.0086603463 -0.048113037 0.020363063
0.0092935832 -0.046467919 0.020621419
0.010229644 -0.046498384 0.020667553
0.011299924 -0.047083016 0.020633042
0.012084601 -0.046479236 0.020238012
0.013199016 -0.047139339 0.020371079
0.014400017 -0.048000056 0.019911736
0.01458086 -0.045565188 0.019368768
0.016027905 -0.047140896 0.019230247
0.017132191 -0.047589421 0.018877625
0.017718639 -0.046627995 0.018933147
0.0189302 -0.047325503 0.018332809
0.019474056 -0.0463668 0.018189132
0.021092273 -0.047936983 0.017609239
0.022262076 -0.048395816 0.016848445
0.023009006 -0.04793543 0.01651749
0.023538195 -0.047076389 0.01616624
0.024961373 -0.048002642 0.015580654
0.02553783 -0.047292277 0.013237685
0.026237376 -0.046852458 0.011345565
0.027471105 -0.047363974 0.0091980994
0.028533533 -0.04755589 0.0068317652
-0.0098103061 -0.048070502 0.0055047274
-0.008479855 -0.0461681 0.015699238
-0.0075907074 -0.046493083 0.01834777
-0.0065184501 -0.045629147 0.019918084
-0.0056953565 -0.046512078 0.020431906
-0.0047493419 -0.04654355 0.020737112
-0.0037769042 -0.046267074 0.02112329
-0.0028588914 -0.046695225 0.021307319
-0.00187755 -0.045999974 0.021514505
-0.00093506527 -0.045818198 0.021157205
0 -0.045898989 0.021096766
0.00093640637 -0.045883913 0.021013826
0.0018803542 -0.04606868 0.020982265
0.0028051259 -0.045817055 0.020824552
0.0037673949 -0.046150587 0.020878702
0.0047164257 -0.046220973 0.021142811
0.0056829224 -0.046410531 0.020976722
0.0065030903 -0.045521632 0.021073341
0.0075107436 -0.046003304 0.021096647
0.0082714232 -0.045033306 0.020995945
0.009217958 -0.045167994 0.021260053
0.010386433 -0.046266839 0.021142811
0.011278658 -0.04605452 0.021004111
0.012213632 -0.046035998 0.020665467
0.013221974 -0.046276912 0.020718068
0.014049071 -0.045893632 0.020344347
0.015128466 -0.046330929 0.019659907
0.016259747 -0.046866331 0.019472986
0.016618006 -0.045237903 0.01886487
0.018222958 -0.046996046 0.018543661
0.018687783 -0.045785069 0.01788038
0.020157875 -0.047035042 0.017507046
0.021212701 -0.047246471 0.016666859
0.021779072 -0.046398893 0.016083568
0.022459788 -0.045855399 0.016028315
0.024599748 -0.048215505 0.015577823
0.024557946 -0.046282284 0.013544202
0.025399752 -0.046095844 0.012274474
0.027131151 -0.047479514 0.0094384253
0.027943505 -0.047214888 0.0080942214
0.028159535 -0.045993906 0.0062981546
-0.0086695477 -0.046237588 0.013598531
-0.0075618536 -0.045371123 0.0169864
-0.0065665836 -0.045028001 0.019737989
-0.0056367754 -0.045094203 0.020366848
-0.0046801013 -0.044928972 0.02050069
-0.0037549147 -0.045058977 0.020920545
-0.0028105783 -0.044969253 0.021218032
-0.0018906958 -0.045376696 0.021393806
-0.00093901652 -0.045072794 0.021150172
0 -0.044511098 0.020987093
0.00093907746 -0.045075718 0.020975083
0.0019562915 -0.046950996 0.02094546
0.0028381941 -0.045411106 0.020482391
0.0037612547 -0.045135055 0.020816535
0.0046523646 -0.044662703 0.021088153
0.0056631085 -0.045304868 0.020945251
0.006612665 -0.045343988 0.021073341
0.0074477531 -0.044686519 0.021137625
0.008498406 -0.045324832 0.020943433
0.0094152978 -0.045193426 0.021145791
0.01037961 -0.045292843 0.020991683
0.011078168 -0.044312671 0.02111432
0.012066948 -0.044554885 0.020636648
0.013168938 -0.045150649 0.020754933
0.013917314 -0.044535406 0.020340979
0.01519262 -0.045577861 0.019663632
0.016050413 -0.045318816 0.019502997
0.017153848 -0.045743596 0.01876086
0.018060785 -0.045627244 0.018294901
0.01882638 -0.045183312 0.016753465
0.019881515 -0.045443464 0.016376585
0.020778593 -0.04533511 0.015988171
0.021420464 -0.044703577 0.015582502
0.023487704 -0.046975408 0.01515457
0.023931758 -0.045948975 0.01297009
0.024537103 -0.045299269 0.012362748
0.02596768 -0.046164766 0.010549903
0.027474849 -0.047099739 0.0086066127
0.027676957 -0.045810133 0.0065338314
-0.0088509778 -0.046221774 0.0054165423
-0.0076236497 -0.044788942 0.015985459
-0.0066398568 -0.044581898 0.018382311
-0.0056622764 -0.044354498 0.019504011
-0.0047940128 -0.045063723 0.019931316
-0.0037792323 -0.044405978 0.020312518
-0.0027938839 -0.043770846 0.020955205
-0.001887736 -0.044361796 0.021187365
-0.00093211042 -0.04380919 0.021087795
0 -0.043941136 0.021033138
0.00094448659 -0.044390868 0.021048039
0.0018774939 -0.044121105 0.020936608
0.0028383271 -0.044467125 0.020455211
0.0038150784 -0.044827174 0.020458519
0.0046751383 -0.0439463 0.020486712
0.0056483778 -0.044245627 0.020445675
0.0065540904 -0.044006038 0.020458519
0.0073973876 -0.043459654 0.020537376
0.0083616646 -0.043666471 0.020315379
0.0093950173 -0.044156581 0.020500243
0.010211832 -0.043632373 0.020573169
0.011244683 -0.044041675 0.020541698
0.012071474 -0.04364302 0.020278335
0.013008337 -0.043670848 0.0202519
0.014043164 -0.044001911 0.020116985
0.014922368 -0.043834459 0.019606799
0.015891699 -0.043935873 0.01944223
0.017309226 -0.045196313 0.018470526
0.017657816 -0.043679859 0.017481685
0.019230353 -0.045191329 0.016327232
0.019837694 -0.044398651 0.015717477
0.020744743 -0.044318315 0.015319288
0.022467198 -0.04591123 0.013416976
0.022466408 -0.043996714 0.012131929
0.024057614 -0.045228314 0.011543751
0.025544265 -0.046176169 0.010196894
0.026151191 -0.045522444 0.008280158
0.02721048 -0.045674734 0.0066695511
-0.0075688548 -0.043520916 0.013676167
-0.006537288 -0.042959321 0.016829461
-0.0056423889 -0.043258313 0.019526958
-0.0047003236 -0.043242976 0.019772887
-0.0037827997 -0.043502197 0.020340919
-0.0028664262 -0.043951869 0.021035522
-0.0018707417 -0.043027058 0.021054029
-0.00093537965 -0.043027464 0.02098915
0 -0.04357449 0.021091849
0.00093452609 -0.0429882 0.020920962
0.0018691566 -0.042990603 0.020599782
0.0028596588 -0.043848101 0.020226032
0.0037493906 -0.043117993 0.020351857
0.004671366 -0.042976566 0.020319849
0.0055856942 -0.042823657 0.020216018
0.0065210732 -0.042852767 0.020248026
0.0075556883 -0.043445207 0.020455897
0.0084475819 -0.043176532 0.020292372
0.0094063682 -0.043269295 0.020460993
0.010331579 -0.043204784 0.020576388
0.011221007 -0.04301386 0.020578146
0.012132961 -0.042932019 0.020553052
0.013217859 -0.043430109 0.02037853
0.014083945 -0.043190766 0.020151764
0.015305065 -0.04400206 0.01951766
0.016170902 -0.043756556 0.019369483
0.016942656 -0.043297898 0.018301576
0.017854083 -0.043225672 0.017305821
0.019004611 -0.043710604 0.01585865
0.019974027 -0.043752629 0.01555717
0.021566568 -0.04509373 0.013896257
0.021852121 -0.043704242 0.012208581
0.022829549 -0.043756638 0.010996997
0.024300463 -0.044712853 0.0093918741
0.025127688 -0.044456679 0.008294493
0.025638172 -0.043679848 0.0060862303
-0.008043129 -0.0452426 0.0055810213
-0.0065784785 -0.042290218 0.016135663
-0.0057300054 -0.042975042 0.018381625
-0.0046608569 -0.041947711 0.019520819
-0.0037629325 -0.042332992 0.020112783
-0.0028614032 -0.042921048 0.020499378
-0.0018560513 -0.041761152 0.020982414
-0.00094766682 -0.042645007 0.020982414
0 -0.041506514 0.020824969
0.00095303223 -0.042886451 0.020975083
0.0018834879 -0.042378478 0.020761073
0.0027629992 -0.041444987 0.020432264
0.0037304976 -0.0419681 0.020456642
0.004705362 -0.042348258 0.020413667
0.0056257569 -0.042193178 0.020257086
0.0066143237 -0.042520653 0.020175219
0.0074491478 -0.041901458 0.020352691
0.0083984993 -0.041992497 0.020175219
0.0093658548 -0.042146344 0.02038309
0.010439202 -0.042705826 0.020541698
0.011279898 -0.042299617 0.020455331
0.012252209 -0.042411491 0.020455331
0.013178219 -0.042358559 0.020311922
0.013929061 -0.041787181 0.020075709
0.015240282 -0.042863291 0.019572735
0.015790366 -0.041798029 0.018970966
0.016742602 -0.041856509 0.017915696
0.018618409 -0.044096231 0.016108155
0.019185511 -0.043167397 0.015595526
0.020207422 -0.04330162 0.014084846
0.020682007 -0.042304106 0.012428313
0.02188367 -0.042815879 0.011080295
0.024006175 -0.04501158 0.0088661909
0.024073103 -0.043331586 0.0074215829
0.025288319 -0.043768246 0.0050622821
-0.0067553348 -0.042462107 0.01446569
-0.0056551783 -0.04147131 0.017245859
-0.0046841558 -0.041220572 0.018409938
-0.0037749885 -0.041524872 0.019756079
-0.0028620325 -0.041976478 0.020205677
-0.0018768338 -0.041290347 0.020866901
-0.00094616914 -0.041631442 0.020891279
0 -0.041768402 0.020770341
0.00095037633 -0.041816559 0.020824969
0.0018356168 -0.04038357 0.020672739
0.002802769 -0.041107278 0.020265073
0.0037847436 -0.041632179 0.020432264
0.0045957523 -0.040442623 0.020150155
0.0056207939 -0.041219153 0.020135075
0.0066844956 -0.04201683 0.020109355
0.0074488693 -0.040968779 0.020175219
0.0086505488 -0.042291574 0.020309508
0.0092198281 -0.040567245 0.020419806
0.010306747 -0.041226987 0.020432919
0.011213663 -0.041116763 0.020350873
0.012060042 -0.040818602 0.020378739
0.012998587 -0.040852703 0.020312876
0.01407934 -0.041299395 0.020062
0.014790361 -0.040673491 0.019623548
0.016126342 -0.041738771 0.018978626
0.017119138 -0.041846778 0.017697066
0.017761465 -0.041131813 0.016108155
0.019181177 -0.042198591 0.015500128
0.02033202 -0.042600423 0.013205945
0.021132614 -0.042265229 0.011269331
0.022364503 -0.042784266 0.0084703267
0.023264803 -0.042652141 0.006695807
-0.005690054 -0.040778719 0.015727311
-0.0047034635 -0.040449787 0.017944992
-0.0037094662 -0.039876763 0.019456744
-0.0028053909 -0.040210605 0.02001214
-0.0018894355 -0.04062286 0.020287633
-0.00093088549 -0.040028077 0.020671487
0 -0.040224843 0.020574093
0.000932044 -0.040077891 0.020598173
0.0018818749 -0.040460307 0.02043736
0.0027931356 -0.040034942 0.020097524
0.0036814199 -0.039575264 0.020292342
0.0047946121 -0.041233666 0.019908249
0.0056677395 -0.0406188 0.019908249
0.0065485081 -0.040226549 0.020109355
0.007585099 -0.040769909 0.02014482
0.0084718866 -0.040476792 0.020111859
0.009241974 -0.039740488 0.020333439
0.010453803 -0.040864866 0.020432919
0.011286313 -0.040442619 0.020341694
0.012141114 -0.040159069 0.020378739
0.013355471 -0.041020375 0.020316154
0.014057711 -0.040298771 0.019966304
0.015095796 -0.04056995 0.019623846
0.015561245 -0.039360799 0.018998653
0.017073462 -0.040786602 0.017460257
0.018076612 -0.040910225 0.016040206
0.019008648 -0.040868592 0.015084505
0.020002563 -0.040957626 0.012490511
0.02125898 -0.041551646 0.010749161
0.022059772 -0.041242182 0.006939441
-0.005741355 -0.040189486 0.01367107
-0.0047139018 -0.039596777 0.016371369
-0.0037970797 -0.039869335 0.01844424
-0.0028127516 -0.03937852 0.019623876
-0.0018660508 -0.039187066 0.019930184
-0.00095120457 -0.039950591 0.020201385
0 -0.039669015 0.020466805
0.00093961944 -0.039464016 0.020413786
0.0018644654 -0.039153773 0.020438641
0.0027628148 -0.038679406 0.020385265
0.0038343943 -0.040261138 0.020479023
0.004694087 -0.039430328 0.020345509
0.0055397949 -0.038778566 0.020345509
0.0066070762 -0.039642457 0.020315379
0.0075159636 -0.039458808 0.020354271
0.0085224928 -0.039771631 0.020366967
0.0095115425 -0.039948478 0.020605594
0.010397647 -0.039700106 0.020733416
0.011294533 -0.039530866 0.020621419
0.012074755 -0.039010745 0.020741224
0.013275485 -0.039826456 0.020541698
0.014100889 -0.039482489 0.02028501
0.014937137 -0.039209984 0.019767225
0.015610165 -0.038566288 0.019477218
0.016895007 -0.039421685 0.016753465
0.018470347 -0.040829189 0.01567477
0.019103944 -0.040118285 0.01366362
0.020500291 -0.041000582 0.011427045
0.021504426 -0.041053902 0.0085654855
0.022978587 -0.041960899 0.0051849484
-0.0047834525 -0.039224308 0.015365005
-0.0037366305 -0.038300462 0.017798245
-0.0028297896 -0.038673792 0.018749118
-0.0019049702 -0.039051887 0.019509375
-0.00093206728 -0.038214758 0.020028323
0 -0.038634878 0.020319283
0.00095505494 -0.039157253 0.020409375
0.0018819218 -0.038579397 0.020199746
0.0027811325 -0.038008809 0.020105004
0.0037976028 -0.038925428 0.020137548
0.0045938338 -0.037669439 0.020046353
0.0057432381 -0.03924546 0.02006951
0.0066067115 -0.038696453 0.020094544
0.0075335917 -0.038609657 0.020302773
0.0084013222 -0.03827269 0.02010268
0.0093476595 -0.038325403 0.020289391
0.010332708 -0.038512819 0.020315707
0.011370703 -0.038849901 0.020169586
0.012168353 -0.038377114 0.020224065
0.013017964 -0.038124036 0.020089865
0.014340485 -0.039197326 0.019875288
0.01489341 -0.038164362 0.019611895
0.01592204 -0.038400214 0.017977476
0.016750434 -0.038153768 0.01662609
0.018299248 -0.03948785 0.015593201
0.01907002 -0.039093543 0.013371766
0.021036267 -0.041070808 0.010857493
0.021989504 -0.040980436 0.0071113706
-0.004753897 -0.038031176 0.013330966
-0.0037788353 -0.037788354 0.016603768
-0.0028162622 -0.037550163 0.018306255
-0.0018826594 -0.037653189 0.019431025
-0.00093780196 -0.037512079 0.019912094
0 -0.038517073 0.020199567
0.00092341175 -0.036936469 0.020096868
0.0019091225 -0.038182449 0.020216763
0.0028824797 -0.038433064 0.02021426
0.0037107901 -0.0371079 0.020192653
0.0047261552 -0.037809242 0.020174861
0.0056935055 -0.037956703 0.020236373
0.0064710206 -0.036977261 0.020307332
0.0075916527 -0.037958264 0.02053386
0.0084457891 -0.037536837 0.020332873
0.0093098963 -0.037239585 0.020362794
0.01033341 -0.037576038 0.020454645
0.011171072 -0.037236907 0.020558536
0.012299907 -0.037845869 0.020778269
0.013309777 -0.038027935 0.020207107
0.013860685 -0.036961824 0.019883752
0.015060152 -0.03765038 0.019120485
0.015994584 -0.037634317 0.017789483
0.016812984 -0.037362188 0.016627133
0.018275006 -0.038473696 0.015071094
0.019758243 -0.039516486 0.012566596
0.020651437 -0.03933607 0.0094616413
0.021771243 -0.039584078 0.0054370761
-0.0037895546 -0.036948156 0.01496622
-0.0028579596 -0.037153475 0.017935216
-0.0018820437 -0.036699854 0.019179732
-0.00093810383 -0.03658605 0.019650936
0 -0.035768121 0.020022869
0.00094072579 -0.036688305 0.019976944
0.0018839948 -0.0367379 0.020306468
0.002814973 -0.036594648 0.020364285
0.0037717507 -0.036774568 0.020295769
0.0047005326 -0.036664154 0.020393133
0.0054824147 -0.035635695 0.020451337
0.0066502416 -0.037051346 0.020408332
0.0076243049 -0.037168488 0.020609319
0.0085554905 -0.037073791 0.020415872
0.0094305603 -0.036779184 0.020371646
0.010370255 -0.036767267 0.020543844
0.01118859 -0.036362916 0.020531416
0.012385434 -0.037156302 0.02047047
0.01324319 -0.036891744 0.020240754
0.014066287 -0.036572348 0.019762129
0.015180008 -0.037001271 0.018617123
0.015550243 -0.035674088 0.017053097
0.016924771 -0.036670335 0.016248792
0.017489187 -0.035898861 0.014583975
0.019778889 -0.038568832 0.011749417
0.020129655 -0.037383646 0.008172065
-0.0038404914 -0.03648467 0.012340218
-0.0028039715 -0.035516974 0.017116487
-0.0018909283 -0.035927638 0.018210053
-0.00095998496 -0.036479428 0.019466609
0 -0.035833091 0.019828916
0.00094346085 -0.035851512 0.020012975
0.0018465391 -0.035084244 0.020052224
0.0028218974 -0.035744034 0.020216763
0.0036963541 -0.035115365 0.020295769
0.0046346411 -0.035223272 0.020361602
0.0057472084 -0.036398984 0.020458341
0.0065601328 -0.035612147 0.020329714
0.0073701409 -0.03500817 0.020439535
0.0085828425 -0.036238667 0.020229071
0.0094060889 -0.03574314 0.020257801
0.010350044 -0.035754696 0.020286769
0.011498585 -0.036412187 0.020279825
0.012161902 -0.035550177 0.020279825
0.01313472 -0.035651382 0.019999892
0.014443631 -0.036590531 0.018854111
0.014604724 -0.034686219 0.018022537
0.016129019 -0.036053102 0.017048866
0.016684491 -0.035222817 0.016189337
0.017250638 -0.034501277 0.014548182
0.018966313 -0.036035996 0.010671467
0.021589752 -0.039067172 0.0053369403
-0.0028476445 -0.035120949 0.014797807
-0.0018930938 -0.035022236 0.017061472
-0.00093929993 -0.034754097 0.018138528
0 -0.034609821 0.019329727
0.00093808043 -0.034708977 0.019396961
0.0018957767 -0.035071868 0.019751698
0.0028390475 -0.03501492 0.019925535
0.0036972722 -0.034199767 0.020069063
0.0047357772 -0.035044752 0.020364285
0.0057489476 -0.035451844 0.020467043
0.0065711262 -0.034733094 0.020329714
0.0075397436 -0.034871314 0.020439535
0.0085997162 -0.035354387 0.020383447
0.0091889435 -0.033999093 0.020418197
0.01056711 -0.035543915 0.020448953
0.011059591 -0.034100406 0.020299315
0.012206079 -0.034740377 0.020240754
0.013340969 -0.035258275 0.019642889
0.013970884 -0.034461513 0.018950969
0.015318051 -0.035422992 0.017938823
0.01590818 -0.034623682 0.016896218
0.016893648 -0.034725834 0.016185135
0.018176131 -0.035395622 0.01383993
0.01861403 -0.034435954 0.0084756315
-0.0028700805 -0.034440964 0.012340218
-0.001895857 -0.034125425 0.016253293
-0.00094452291 -0.034002826 0.017675012
0 -0.034167558 0.018754184
0.00095062016 -0.034222323 0.019319832
0.0018804921 -0.033848856 0.019726872
0.0027985619 -0.033582743 0.019717425
0.0037827925 -0.034045134 0.020109147
0.0047527445 -0.03421976 0.020372987
0.0057363845 -0.034418307 0.020548046
0.0066495026 -0.034197442 0.020482212
0.0074947109 -0.0337262 0.020552546
0.008243477 -0.032973908 0.020668298
0.0095130149 -0.034246854 0.020706058
0.010345632 -0.033858433 0.020487726
0.011357737 -0.034073211 0.020338088
0.012286617 -0.034024477 0.020240754
0.013078777 -0.033631142 0.019750059
0.014022674 -0.033654418 0.01882562
0.015191969 -0.034181934 0.017729938
0.01616466 -0.034231044 0.016775519
0.017338416 -0.034676831 0.015978068
0.017963972 -0.034036998 0.013338268
0.018499138 -0.033298448 0.0093632638
-0.0018893409 -0.033063468 0.013315558
-0.00094297208 -0.033004023 0.016969323
0 -0.033627249 0.018338412
0.00093089993 -0.032581497 0.018886536
0.0018817808 -0.032931164 0.019533366
0.002806348 -0.032740727 0.019649506
0.0037514707 -0.032825369 0.019958407
0.0047565736 -0.033296015 0.020315886
0.0057139108 -0.033331148 0.020392507
0.0065554348 -0.032777175 0.020392507
0.0074540246 -0.032611355 0.020465553
0.0084401928 -0.03282297 0.020383447
0.0093292836 -0.032652494 0.020529509
0.010263551 -0.032656752 0.020299315
0.01139764 -0.033243116 0.020141155
0.012310039 -0.033142414 0.019842505
0.013078409 -0.032696024 0.01889506
0.014303768 -0.033375461 0.018473268
0.01500634 -0.032826368 0.017655373
0.016142461 -0.033234477 0.016575724
0.016988188 -0.033032589 0.015454799
0.018717922 -0.034480385 0.012785017
0.018873731 -0.033029027 0.0073646009
-0.0019279297 -0.032774806 0.011573523
-0.00093873293 -0.03191692 0.016080052
0 -0.031875558 0.018031985
0.00094415905 -0.032101408 0.018544048
0.0018890322 -0.032113548 0.019166291
0.0027810114 -0.031518131 0.019598335
0.0037471957 -0.031851165 0.019770175
0.0047591538 -0.032362245 0.020277649
0.0056021539 -0.031745538 0.020353347
0.0065219263 -0.031677928 0.020285785
0.0074952194 -0.031854682 0.019746065
0.0085040862 -0.032126546 0.019705355
0.009292393 -0.031594135 0.020332873
0.01043482 -0.032253083 0.019500494
0.011462335 -0.032476615 0.019325912
0.012204258 -0.031918827 0.018989742
0.013289515 -0.032274537 0.017986417
0.013809778 -0.031302165 0.017621577
0.015509755 -0.032958232 0.016940266
0.016975511 -0.033951022 0.016013414
0.017123552 -0.032344487 0.01513207
0.018930187 -0.033875071 0.011788607
0.019267669 -0.032755036 0.0058113337
-0.00095131475 -0.031393386 0.012898505
0 -0.03086637 0.017045289
0.00096667826 -0.031900384 0.017901659
0.0018632279 -0.03074326 0.018603086
0.0028458259 -0.031304084 0.01934129
0.0038345868 -0.03163534 0.019602984
0.004657764 -0.030741243 0.020295769
0.0055957087 -0.030776398 0.020441324
0.0066185221 -0.031201605 0.020447105
0.0075475788 -0.031133763 0.020397067
0.0084137777 -0.030850517 0.0204494
0.0094718104 -0.031256974 0.020524234
0.010285573 -0.030856721 0.01991567
0.011377042 -0.031286865 0.019846171
0.012260004 -0.031121548 0.018796235
0.013145671 -0.030986223 0.017482311
0.014057786 -0.030927129 0.017022878
0.015058823 -0.031058822 0.01626128
0.017555734 -0.034078781 0.015093982
0.019873433 -0.036434628 0.013294101
0.020232262 -0.035140246 0.00818488
-0.00096047559 -0.030735219 0.010117441
0 -0.030510971 0.016319364
0.00095023384 -0.030407483 0.017494529
0.0018822829 -0.030116526 0.018249065
0.0028314271 -0.03020189 0.019027054
0.0038227027 -0.030581621 0.019587308
0.0046971692 -0.030061884 0.020219147
0.0056912708 -0.030353444 0.020506084
0.0065657306 -0.030014768 0.020397067
0.0075218696 -0.030087478 0.020350873
0.0085428376 -0.030374533 0.020338088
0.0092800017 -0.029696004 0.020297319
0.010121527 -0.029444443 0.019437015
0.011420384 -0.030454356 0.019077659
0.012060611 -0.029687658 0.018117636
0.012999198 -0.029712453 0.017022878
0.014263648 -0.030429114 0.016463786
0.014972352 -0.029944705 0.015435427
0.016164312 -0.030426942 0.01378423
0.018026449 -0.032047022 0.0094948411
0.01800872 -0.030330475 0.0050101578
0 -0.02941609 0.012544006
0.00092829874 -0.02877726 0.016227335
0.0018870598 -0.029249426 0.01784718
0.0028155497 -0.029094014 0.018826008
0.003842494 -0.029779328 0.019116104
0.0046774144 -0.028999969 0.019759685
0.0056394017 -0.029136909 0.019996762
0.0064868769 -0.028727598 0.019996762
0.0076175244 -0.029517908 0.019787878
0.0084540751 -0.02911959 0.019274175
0.0094416123 -0.029268999 0.019437015
0.010480276 -0.029535325 0.018743664
0.01117556 -0.028870195 0.017805308
0.012190662 -0.029070042 0.017244935
0.013656111 -0.030238532 0.016103745
0.013884594 -0.028694827 0.015288353
0.015158678 -0.029369939 0.014537632
0.015882866 -0.028962873 0.0094469786
0.016395481 -0.028236663 0.0062256753
0 -0.029142113 0.0080736279
0.00095671025 -0.028701307 0.01524803
0.0018748785 -0.028123178 0.017715007
0.0028232457 -0.028232459 0.01872164
0.0037888703 -0.028416527 0.018868804
0.0046765269 -0.028059162 0.01959458
0.0056178565 -0.028089283 0.019837439
0.0065965634 -0.028270986 0.019837439
0.007599521 -0.028498204 0.019656986
0.0083866604 -0.027955534 0.018958509
0.0094977235 -0.028493172 0.018715233
0.010401905 -0.028368829 0.017915368
0.01113834 -0.027845848 0.017405927
0.012415665 -0.028651534 0.016084284
0.013231426 -0.028353054 0.015197128
0.013987935 -0.02797587 0.013937026
0.014889785 -0.027918348 0.0094235539
0.015845688 -0.027962979 0.0061995685
0.00093043805 -0.026982702 0.012013495
0.0018693918 -0.027106181 0.016187221
0.0028371401 -0.02742569 0.017480284
0.0037713125 -0.027342016 0.018387169
0.0045975982 -0.026666069 0.018669963
0.0056789215 -0.027448121 0.018710822
0.0066102082 -0.027385149 0.018792391
0.0075839092 -0.02749167 0.018477768
0.0085122501 -0.027428363 0.018255711
0.0092728669 -0.026891313 0.017793566
0.010263827 -0.027059179 0.017321974
0.011511202 -0.027818739 0.016312778
0.012300808 -0.027440265 0.014877975
0.012961922 -0.026849696 0.013085604
0.014227307 -0.027506128 0.0086671114
0.015277622 -0.02769069 0.0061163008
0.00097090163 -0.027185246 0.0057929158
0.0018940023 -0.026516031 0.012003362
0.0027846443 -0.025990015 0.016100049
0.00372838 -0.026098659 0.01719436
0.0046277395 -0.025915341 0.017804384
0.0056573059 -0.026400762 0.018143713
0.0065653706 -0.026261482 0.018066972
0.0075229169 -0.026330208 0.017964035
0.0083641214 -0.02602171 0.01745528
0.009394668 -0.026305072 0.017040461
0.010326756 -0.026286287 0.016342312
0.011263281 -0.02628099 0.015188634
0.01202751 -0.025905406 0.013103068
0.013494816 -0.026989631 0.0070804954
0.0018578982 -0.025081625 0.0063738525
0.0027985047 -0.025186542 0.011899531
0.0037512463 -0.025320912 0.014832437
0.0048708282 -0.026302474 0.016612768
0.0055727726 -0.025077477 0.017292768
0.0066220146 -0.025542056 0.017404854
0.0074862577 -0.02526612 0.017095178
0.0084013045 -0.025203913 0.016435891
0.0094170868 -0.025426134 0.015303671
0.010390284 -0.025503423 0.014247298
0.011339159 -0.025513107 0.011380851
0.013128823 -0.027267555 0.0062187016
0.0028582306 -0.024771331 0.005353272
0.0037889541 -0.024628201 0.0091357827
0.0047205212 -0.024546711 0.013439208
0.0056640659 -0.024544286 0.015386641
0.0065847775 -0.024457745 0.016167253
0.0073667001 -0.023941776 0.015303671
0.0085968906 -0.024835464 0.013144225
0.0094010644 -0.024442768 0.0071931481
0.010832324 -0.025603674 0.006813556
0.0049007456 -0.024503728 0.0062484443
0.0056079892 -0.023366623 0.0072357357
0.0064511253 -0.023039734 0.010774821
0.0076384698 -0.023870219 0.0071300864
0.0087353699 -0.024264915 0.0052441657
0 0 0 1 0 0 0 1 0 0 0 1 0 0 0 0 0 1291 1 0 0
