ply
format ascii 1.0
comment PCL generated
element vertex 1319
property float x
property float y
property float z
element camera 1
property float view_px
property float view_py
property float view_pz
property float x_axisx
property float x_axisy
property float x_axisz
property float y_axisx
property float y_axisy
property float y_axisz
property float z_axisx
property float z_axisy
property float z_axisz
property float focal
property float scalex
property float scaley
property float centerx
property float centery
property int viewportx
property int viewporty
property float k1
property float k2
end_header
-0.0030038278 -0.061077829 0.0061236024
-0.0020922143 -0.063812539 0.0069458485
-0.00107364 -0.065492041 0.0068048239
0 -0.068957776 0.0066665113
0.0010565295 -0.064448297 0.0061807334
-0.0046733702 -0.056080442 0.0053264201
-0.0037141989 -0.055712987 0.0069240034
-0.0027729217 -0.05545843 0.011652529
-0.0018303735 -0.054911204 0.013173401
-0.00095301378 -0.057180829 0.013002813
0 -0.05812373 0.012777358
0.0010775529 -0.064653181 0.0098937452
0.0022625113 -0.067875333 0.0068825185
0.0032568765 -0.065137528 0.006488651
0.0044980589 -0.067470886 0.0057921112
-0.005524857 -0.054327764 0.0053507686
-0.0050548818 -0.059647605 0.010023654
-0.0037134327 -0.05477313 0.014202654
-0.0028516438 -0.056082327 0.016777098
-0.0018841935 -0.055583708 0.017451108
-0.00093437039 -0.055127852 0.017348379
0 -0.054448854 0.017282158
0.00091774284 -0.054146826 0.016315877
0.0018067209 -0.053298265 0.013952583
0.0029892286 -0.058788162 0.012693852
0.0042693634 -0.062973112 0.010145724
0.0053137159 -0.062701844 0.0094402134
0.006787682 -0.066745535 0.0061596036
0.0078538451 -0.066196695 0.0053183734
-0.0056468216 -0.054585941 0.0079339147
-0.0046336683 -0.053750556 0.015449464
-0.0038105876 -0.055253517 0.017171413
-0.0028072023 -0.054272577 0.018207133
-0.0018580963 -0.053884793 0.019941598
-0.00092515838 -0.053659189 0.020350158
0 -0.054662727 0.020231307
0.00094056956 -0.054553036 0.01876229
0.0018652842 -0.054093242 0.017544687
0.0027673657 -0.053502399 0.017544687
0.0036510008 -0.052939512 0.014221728
0.0046921414 -0.054428838 0.013768584
0.0060016662 -0.058016106 0.013195932
0.0071201809 -0.058995787 0.010608524
0.0087148054 -0.063182339 0.0092660487
0.0099549089 -0.064153858 0.0066006184
0.010807031 -0.062680781 0.0060000122
0.011509858 -0.060688347 0.005605489
0.011633242 -0.056227338 0.005106926
-0.0066553517 -0.054193575 0.0065323114
-0.0055966354 -0.05316804 0.015979528
-0.0046073715 -0.052524034 0.017082036
-0.0037720159 -0.053751227 0.018364519
-0.0028067774 -0.053328771 0.020470709
-0.0018994811 -0.054135211 0.021321625
-0.00093116867 -0.053076614 0.021240711
0 -0.052875377 0.021337569
0.00093220436 -0.053135648 0.020913929
0.0018540348 -0.052839991 0.02029103
0.0027771709 -0.052766249 0.019912004
0.0037683609 -0.053699143 0.018978119
0.0046804701 -0.053357363 0.018960387
0.0055761687 -0.052973602 0.018761069
0.0064660395 -0.052652035 0.017712742
0.0075502121 -0.053795259 0.015909821
0.008640442 -0.054722801 0.013401926
0.010930014 -0.062301081 0.010816544
0.011665855 -0.060450338 0.0093975365
0.013195328 -0.062677808 0.0078996718
0.014763215 -0.064731017 0.0062690675
0.014156975 -0.057639111 0.0056026578
0.014456371 -0.054934211 0.0051725805
-0.0081416182 -0.056991331 0.0061134398
-0.0066031599 -0.05282528 0.015523672
-0.0056929779 -0.05313446 0.017374992
-0.0047753816 -0.053484272 0.018381268
-0.0037268335 -0.052175667 0.020671576
-0.0028569642 -0.053329997 0.021478415
-0.0018341201 -0.051355366 0.022555828
-0.00096587098 -0.054088775 0.02253598
0 -0.052191921 0.022556871
0.00093723543 -0.052485183 0.022209972
0.0018552006 -0.051945616 0.021751374
0.0028494704 -0.053190116 0.021088094
0.0038338157 -0.05367342 0.020804107
0.00464379 -0.052010447 0.020250738
0.0056048874 -0.052312285 0.020519197
0.006638553 -0.053108424 0.019405425
0.0074622976 -0.052236084 0.018717498
0.0081660394 -0.050810911 0.01853025
0.0092330268 -0.051704947 0.017645031
0.010077951 -0.051305931 0.015710384
0.011975527 -0.055885792 0.01556471
0.013944602 -0.060069051 0.011808544
0.015016 -0.060063999 0.0090031028
0.017076179 -0.063751072 0.0074978769
0.017092673 -0.059824355 0.0067521036
0.017300194 -0.056988876 0.0059980154
-0.0076779467 -0.052785885 0.011312991
-0.0064647719 -0.050794639 0.016919345
-0.0057538459 -0.052743584 0.018141985
-0.0046868883 -0.051555771 0.019338906
-0.0037605835 -0.05170802 0.02065286
-0.0028481008 -0.052215181 0.02150923
-0.0018654948 -0.051301107 0.022534966
-0.00093379192 -0.051358555 0.02253598
0 -0.054374892 0.022502303
0.00091532938 -0.050343115 0.022228509
0.0018979106 -0.052192543 0.022226781
0.0027945426 -0.05123328 0.022081912
0.0037362115 -0.051372908 0.021814883
0.0047158292 -0.05187412 0.021402299
0.0057187523 -0.052421898 0.021222144
0.0065133888 -0.05117663 0.020641476
0.0075639035 -0.052001838 0.020249099
0.0085094878 -0.052002426 0.019898772
0.0093728025 -0.051550414 0.019667476
0.010267197 -0.051335987 0.018644392
0.011213661 -0.051395949 0.018589467
0.011826545 -0.050035384 0.018149316
0.013347329 -0.052435935 0.017383218
0.015016398 -0.055060126 0.015335321
0.017762588 -0.061058898 0.011256695
0.018788015 -0.060784757 0.0086174905
0.018932303 -0.057848703 0.0076494217
0.021781186 -0.063050799 0.0075019598
0.020053554 -0.055147275 0.0065902174
0.019802548 -0.051863816 0.0062450767
-0.007653784 -0.051663041 0.014535189
-0.0066538709 -0.051329862 0.01707992
-0.005655292 -0.050897628 0.018247068
-0.0046449639 -0.050165612 0.020085812
-0.0037855417 -0.051104814 0.020905107
-0.0027960751 -0.050329354 0.021798611
-0.0019055167 -0.051448949 0.022622615
-0.00092997641 -0.050218727 0.022708952
0 -0.049932595 0.022750735
0.0009574595 -0.051702812 0.022685051
0.0018439697 -0.049787182 0.022685051
0.0027783427 -0.050010167 0.022647053
0.0037891979 -0.051154174 0.022418857
0.0046918825 -0.05067233 0.021839976
0.0055478085 -0.049930278 0.021682292
0.0066018375 -0.050928462 0.021377712
0.0074866028 -0.050534569 0.021112472
0.0083320588 -0.049992356 0.02075243
0.0094254315 -0.05089733 0.020462006
0.010273487 -0.050433483 0.020382434
0.01135136 -0.051081121 0.020435512
0.01221242 -0.050728511 0.019693732
0.012925639 -0.049856037 0.018899441
0.013788274 -0.049637787 0.018230855
0.014576497 -0.049195677 0.017977178
0.015612209 -0.049591724 0.016573131
0.018174635 -0.054523908 0.015199989
0.020196401 -0.057400294 0.01263994
0.020878224 -0.056371201 0.0095598996
0.023902711 -0.061464112 0.0086501241
0.02468285 -0.060585175 0.006808728
0.02315376 -0.054361001 0.0065893531
0.023250319 -0.052313216 0.005793184
0.023706023 -0.051205009 0.0051793754
0.025180014 -0.052296951 0.005048275
-0.0088196974 -0.051938217 0.0076193213
-0.0076149446 -0.05044901 0.015831858
-0.0065396931 -0.049514819 0.017457575
-0.0056254216 -0.049691223 0.01907438
-0.0047011143 -0.049831811 0.020317018
-0.0037624594 -0.049852587 0.021048546
-0.0027964937 -0.049404722 0.021538049
-0.0018457096 -0.048911307 0.022538751
-0.00094906904 -0.050300658 0.022574365
0 -0.051121239 0.022750735
0.00093352853 -0.049477011 0.022546321
0.001846441 -0.048930686 0.022692114
0.0027712637 -0.048958991 0.022647053
0.0037500276 -0.049687866 0.022416919
0.0046371287 -0.049153563 0.021840006
0.0055976347 -0.049445774 0.02181688
0.0065861852 -0.049866829 0.021807462
0.0074472623 -0.049338114 0.021799922
0.0086162584 -0.05074019 0.021340728
0.0093878433 -0.049755566 0.021095812
0.010173162 -0.049016144 0.021052629
0.011353048 -0.050142623 0.021085203
0.012070123 -0.049208961 0.020842761
0.013091296 -0.049559906 0.020258129
0.01421787 -0.050236475 0.020138234
0.014644952 -0.048511401 0.019796044
0.015839176 -0.049380962 0.019000977
0.016415097 -0.048333339 0.018490523
0.017054399 -0.047572799 0.017546326
0.018652229 -0.049428407 0.017293572
0.021335831 -0.053847574 0.015434712
0.022719659 -0.054733723 0.012394965
0.025817344 -0.059492141 0.0090567172
0.026610313 -0.058764443 0.0078200996
0.027468512 -0.058233246 0.007693857
0.027455887 -0.055967771 0.0066998899
0.026300689 -0.051627278 0.006056726
0.026830943 -0.050787143 0.005526036
0.027953496 -0.051087424 0.0054065883
-0.0087035773 -0.050287336 0.011212528
-0.0074254191 -0.048265226 0.016108125
-0.0065764613 -0.04885371 0.017812729
-0.0057534715 -0.04986342 0.018606782
-0.0046783225 -0.048654553 0.020438224
-0.0037035146 -0.048145689 0.020925492
-0.0028319999 -0.049087998 0.021506578
-0.0018981467 -0.049351811 0.02240482
-0.00093287008 -0.048509244 0.022440434
0 -0.049872193 0.022367716
0.00091641414 -0.047653537 0.022363096
0.0018662103 -0.048521467 0.022534341
0.0027800736 -0.048187941 0.022213757
0.0037347183 -0.04855134 0.022331715
0.0046999576 -0.048879556 0.022117138
0.0056499932 -0.048966609 0.021940202
0.0065606781 -0.048736464 0.021996647
0.0075628906 -0.049158789 0.022135526
0.0083794761 -0.048414752 0.021604896
0.0094750952 -0.049270496 0.021648139
0.010347531 -0.048915602 0.021616966
0.011316648 -0.049038809 0.021584421
0.011998209 -0.047992837 0.021556139
0.013091464 -0.048625436 0.021422029
0.014113916 -0.048928242 0.021155298
0.015024158 -0.048828512 0.020973712
0.016030883 -0.049035646 0.020621747
0.0166805 -0.048188113 0.020400345
0.017920947 -0.049046803 0.019477338
0.018567242 -0.04827483 0.019392699
0.019392142 -0.048018634 0.019201279
0.020109354 -0.047531199 0.017662585
0.021549482 -0.048720565 0.016255826
0.023016075 -0.049868163 0.014205486
0.027680511 -0.057575464 0.011626542
0.02834514 -0.056690279 0.0092687607
0.029778564 -0.05735131 0.0077438056
0.033109728 -0.061489496 0.006490618
0.029961815 -0.053724635 0.0058122277
0.028907062 -0.050105575 0.0051306784
-0.010181385 -0.051925067 0.0060516596
-0.0086482614 -0.049006816 0.013549805
-0.0076136477 -0.048537005 0.016055197
-0.0065470715 -0.047700092 0.017811418
-0.005631018 -0.047863655 0.019484043
-0.0046841437 -0.047778267 0.020327657
-0.003749127 -0.047801368 0.020897537
-0.0028673108 -0.048744284 0.021053672
-0.0018853613 -0.048076712 0.021835417
-0.00093190087 -0.047526944 0.02198571
0 -0.046871182 0.022157103
0.00093689898 -0.047781847 0.022081912
0.0019136429 -0.048797894 0.022162735
0.0027855758 -0.047354788 0.02181688
0.0037313297 -0.047574453 0.021993697
0.0048093917 -0.049055792 0.021432638
0.0054821889 -0.046598606 0.021835089
0.0065811994 -0.047948737 0.021863878
0.007512731 -0.047893658 0.021973819
0.0083416877 -0.047269564 0.021837711
0.0093496423 -0.047683176 0.021973819
0.010241709 -0.047484286 0.022423863
0.011379604 -0.048363321 0.022284985
0.012298433 -0.048247699 0.02215147
0.01304294 -0.047513567 0.022303164
0.013855454 -0.047108542 0.022125304
0.015001848 -0.047818393 0.022121578
0.015559954 -0.046679862 0.0215334
0.017005028 -0.048180912 0.021467149
0.017545115 -0.047094785 0.021532416
0.018644059 -0.047542349 0.021052778
0.019658128 -0.047741167 0.021338493
0.02091817 -0.048492122 0.02023536
0.021014979 -0.046598431 0.019433945
0.021875817 -0.046486113 0.01930815
0.023500156 -0.047940318 0.01687941
0.023582313 -0.046257615 0.01276204
0.026311178 -0.049698893 0.010600775
0.028719623 -0.052310742 0.0086207688
0.029775316 -0.052363485 0.0065187216
0.034408681 -0.058494762 0.0057896674
-0.010358162 -0.051790807 0.0076047778
-0.0084239561 -0.046799753 0.013788015
-0.0076243863 -0.047652412 0.016216993
-0.0065986966 -0.047133546 0.018235296
-0.0055494709 -0.04624559 0.019461602
-0.004747536 -0.047475364 0.020070642
-0.0038515308 -0.048144136 0.020444542
-0.0028636591 -0.047727648 0.020723581
-0.0018920681 -0.047301702 0.021477878
-0.00094470184 -0.047235094 0.021664381
0 -0.047198668 0.021983534
0.00093775283 -0.04688764 0.021639436
0.001861956 -0.046548899 0.021793276
0.002824526 -0.047075432 0.021671593
0.0038037433 -0.047546789 0.021799982
0.0046030805 -0.046030805 0.021297395
0.0056540607 -0.047117174 0.021752357
0.006505691 -0.046469223 0.021783412
0.0074288766 -0.04643048 0.021943569
0.0084650917 -0.047028285 0.021837711
0.0093715834 -0.046857916 0.021999985
0.010339568 -0.046998039 0.022426426
0.011212185 -0.046717439 0.022289783
0.011976887 -0.046064951 0.022156268
0.013131639 -0.046898711 0.022324026
0.014110371 -0.047034573 0.022146165
0.014682211 -0.045881908 0.02214244
0.015922302 -0.0468303 0.022303164
0.017044501 -0.047345839 0.0222148
0.017619148 -0.046366177 0.021889627
0.018686678 -0.046716698 0.021884084
0.01968498 -0.046868999 0.021784067
0.02052051 -0.046637524 0.021467149
0.021784781 -0.047358219 0.021378458
0.022925766 -0.047762014 0.021214247
0.023230962 -0.046461925 0.020163715
0.024232283 -0.046600547 0.01748383
0.024647815 -0.045644101 0.012846619
0.025501844 -0.045539007 0.010624439
0.026921013 -0.046415541 0.0084625483
0.028870894 -0.048118155 0.0064828694
0.029714568 -0.04792672 0.00557217
0.031326257 -0.048947278 0.0051685572
-0.0095476499 -0.046783485 0.0082982481
-0.008411292 -0.045794811 0.014103442
-0.0075955838 -0.046522949 0.01695022
-0.0065751951 -0.046026364 0.018012494
-0.0057494836 -0.046954114 0.019362837
-0.0047289217 -0.046343431 0.020152539
-0.0037366725 -0.045774236 0.020486891
-0.0028581598 -0.046683278 0.020491809
-0.0018729172 -0.045886468 0.021629781
-0.00092476304 -0.045313388 0.021718949
0 -0.046284318 0.022021532
0.00091903278 -0.045032606 0.022081912
0.0018830363 -0.04613439 0.021961063
0.0027928732 -0.045616928 0.021784753
0.0037544719 -0.045992281 0.021996647
0.0046786335 -0.045850608 0.02154687
0.0056704879 -0.046308987 0.021697789
0.006408799 -0.044861592 0.021784157
0.007559502 -0.04630195 0.021931201
0.0082993973 -0.045185607 0.021807462
0.0092258807 -0.045206815 0.022014856
0.010217516 -0.04551439 0.022156268
0.011100247 -0.045326006 0.022124082
0.012055219 -0.045438904 0.022127867
0.013296179 -0.046536624 0.022306919
0.014029882 -0.045830946 0.022339165
0.014960838 -0.045817569 0.022372097
0.015933599 -0.045926258 0.022384495
0.016577447 -0.045127496 0.022387475
0.01823684 -0.04703185 0.022293419
0.01888383 -0.046265382 0.022466928
0.019512281 -0.045528654 0.022367239
0.020535115 -0.045737304 0.021925747
0.021669889 -0.046166286 0.021735251
0.022223199 -0.045372363 0.021725684
0.023253631 -0.045577116 0.021211416
0.024325447 -0.045844112 0.019981742
0.025217468 -0.045765035 0.017152578
0.026250843 -0.045938976 0.013786256
0.026802702 -0.045287322 0.010736823
0.027867746 -0.045517318 0.0084825456
0.029972559 -0.047375981 0.00639081
0.030997533 -0.047464974 0.005371809
0.032290567 -0.047946598 0.0051409304
-0.0097315991 -0.046711676 0.008020252
-0.0084890807 -0.0452751 0.013664395
-0.0075535644 -0.045321386 0.016359508
-0.0064744214 -0.044396032 0.018135965
-0.0056225117 -0.044980094 0.019643635
-0.004675529 -0.044885077 0.020179003
-0.0038200205 -0.045840245 0.020581335
-0.002788998 -0.044623967 0.020807296
-0.0018945973 -0.045470335 0.02151677
-0.00094175991 -0.045204476 0.021828443
0 -0.044437945 0.021905065
0.0009562691 -0.045900919 0.021983117
0.001919592 -0.046070207 0.02181688
0.0027862545 -0.044580072 0.021408975
0.0037641809 -0.045170169 0.021610051
0.0046423064 -0.04456614 0.021380782
0.0056770067 -0.045416053 0.021656066
0.0065845046 -0.045150887 0.021487772
0.0073994799 -0.044396877 0.021943569
0.0085834283 -0.045778286 0.021815628
0.0092281988 -0.044295352 0.021939367
0.01037894 -0.045289919 0.021999985
0.011214176 -0.044856705 0.022071749
0.012137446 -0.044815186 0.022064745
0.013118614 -0.044978105 0.022341102
0.013938331 -0.044602662 0.022353739
0.014912901 -0.044738699 0.022427619
0.01596033 -0.04506446 0.022433549
0.017143982 -0.045717284 0.022695899
0.017675502 -0.0446539 0.022295564
0.018448878 -0.044277307 0.022422731
0.019647554 -0.044908691 0.022414774
0.020608518 -0.044964038 0.022392511
0.021340672 -0.044537053 0.022363096
0.022720944 -0.045441888 0.02237612
0.023044946 -0.044246297 0.021901101
0.024306174 -0.044872936 0.021188229
0.025192525 -0.04478671 0.019352108
0.026204551 -0.044922087 0.016679585
0.026832329 -0.044412132 0.012257636
0.028629735 -0.045807578 0.0099875033
0.029286403 -0.045346688 0.008692652
0.031232525 -0.046848789 0.00730744
0.03187523 -0.046363972 0.0060800016
0.032753773 -0.046240624 0.0051348805
-0.0095120361 -0.044706568 0.0078567266
-0.0084461421 -0.044107631 0.01317209
-0.0076451055 -0.044914994 0.016011
-0.0066074277 -0.044364158 0.017872244
-0.0056589846 -0.044328712 0.019229561
-0.0048031574 -0.04514968 0.019862831
-0.0037970336 -0.044615142 0.020159066
-0.0027816303 -0.043578874 0.020242304
-0.0019016362 -0.044688452 0.021106899
-0.00093631708 -0.044006903 0.021615773
0 -0.044359487 0.021806687
0.00094137725 -0.044244729 0.021794677
0.0018638376 -0.043800183 0.021671712
0.0028319259 -0.044366837 0.021172523
0.0037943511 -0.044583626 0.021225899
0.0046623363 -0.043825962 0.021089584
0.0056128995 -0.043967713 0.021119505
0.0066108415 -0.04438708 0.021122128
0.0073403348 -0.043124467 0.021694779
0.0082782842 -0.043231037 0.021467149
0.0094462121 -0.044397198 0.021401405
0.010098539 -0.043148302 0.021498621
0.011266621 -0.044127598 0.021698833
0.012067514 -0.043628704 0.021870852
0.013085107 -0.043928575 0.022085518
0.014161965 -0.044374157 0.022127867
0.014925292 -0.043843046 0.022267133
0.015861668 -0.043852847 0.022353739
0.016934298 -0.044217333 0.022393763
0.017403265 -0.043050181 0.022064745
0.018981922 -0.044607516 0.022363096
0.019601166 -0.043869276 0.02240175
0.020413952 -0.043611627 0.022311926
0.02162445 -0.044189095 0.022181004
0.022183057 -0.043441821 0.022273272
0.023534324 -0.044244528 0.021976411
0.024109585 -0.043582711 0.02118203
0.025183845 -0.043838546 0.020693153
0.026743887 -0.044891525 0.018785954
0.027320281 -0.044277698 0.016297579
0.028849933 -0.045198228 0.013114274
0.034703262 -0.052614626 0.010921568
0.034543876 -0.050736319 0.0092247725
0.032620598 -0.046459641 0.0082021356
0.038263742 -0.052893996 0.0069487095
0.036464259 -0.048966292 0.0055050552
-0.0094520804 -0.043479569 0.0082982481
-0.0084420964 -0.043148492 0.013603628
-0.0077107619 -0.044336881 0.01677531
-0.0065432619 -0.042998578 0.018232763
-0.0057100565 -0.043777101 0.019680887
-0.0046387501 -0.042676501 0.020367503
-0.0037559748 -0.043193713 0.020570934
-0.0028678894 -0.043974306 0.020361781
-0.0018719611 -0.043055106 0.02141428
-0.00093422126 -0.042974178 0.02167815
0 -0.043417431 0.021796256
0.0009222714 -0.042424485 0.021681249
0.0018825695 -0.043299098 0.021460921
0.0028689867 -0.04399113 0.021165609
0.0037432942 -0.043047883 0.021223277
0.0046923985 -0.043170065 0.021087497
0.0055835 -0.04280683 0.021191269
0.0065014437 -0.042723771 0.021357059
0.0076239598 -0.043837767 0.021791339
0.0084574567 -0.043227002 0.021697789
0.0094862124 -0.043636575 0.021716744
0.01020152 -0.042660903 0.021920264
0.011066703 -0.042422362 0.021897018
0.012098898 -0.042811487 0.02198115
0.013182885 -0.043315191 0.022086591
0.013983417 -0.04288248 0.022221327
0.014924923 -0.042909153 0.022141904
0.01588613 -0.042985998 0.022266418
0.016655419 -0.042563848 0.022338718
0.017854083 -0.043225672 0.022212088
0.018579582 -0.042733036 0.022344708
0.0193846 -0.042461507 0.022409171
0.020608976 -0.043091495 0.02248475
0.02149233 -0.042984661 0.022418946
0.022173729 -0.042499647 0.022553086
0.023358811 -0.042980213 0.022177815
0.024306709 -0.043004178 0.021719247
0.02507975 -0.042728461 0.021046549
0.026016099 -0.042740736 0.019837886
0.026760601 -0.042447846 0.018765688
0.028964182 -0.044411745 0.017042428
0.030140691 -0.044724897 0.014179051
0.030708203 -0.04414304 0.011236042
0.032906648 -0.045869872 0.0099074841
0.033237882 -0.044968899 0.0087729394
0.033891406 -0.044542991 0.0069736242
0.037927818 -0.048463322 0.0052633882
-0.0094012069 -0.042305429 0.008374542
-0.0088143367 -0.044071686 0.014320821
-0.0076807905 -0.043204449 0.016905308
-0.0067756278 -0.043557607 0.018291295
-0.005688672 -0.042665038 0.019634634
-0.0047285291 -0.042556763 0.020367503
-0.0037717118 -0.042431757 0.020488799
-0.0028513432 -0.042770151 0.020442903
-0.0018411746 -0.041426428 0.020761758
-0.00095272739 -0.042872734 0.020857573
0 -0.042110123 0.021448612
0.00094894716 -0.042702623 0.021448612
0.0018933649 -0.04260071 0.021305948
0.0027694008 -0.041541014 0.021003664
0.0037153775 -0.041797996 0.021003664
0.0046675634 -0.042008068 0.020891249
0.0055964943 -0.04197371 0.021087497
0.0065635429 -0.042194203 0.021284252
0.0075252242 -0.042329386 0.021688133
0.00832773 -0.04163865 0.021580637
0.0093262354 -0.041968063 0.021704376
0.010400988 -0.042549498 0.021907896
0.011396178 -0.042735666 0.021897018
0.012298948 -0.042573284 0.022006243
0.01301187 -0.041823868 0.022054821
0.013885193 -0.041655578 0.022266418
0.015018038 -0.042238232 0.02221632
0.015757227 -0.04171031 0.022279829
0.016934467 -0.04233617 0.022347689
0.018072236 -0.042802665 0.022127569
0.018756812 -0.042202827 0.022422194
0.019685743 -0.042183734 0.022663862
0.020436909 -0.041802768 0.0227108
0.021312464 -0.041698299 0.022636384
0.022745613 -0.042648025 0.022920161
0.023301801 -0.041943241 0.022642881
0.0240924 -0.041698385 0.022180825
0.025016548 -0.041694246 0.021649987
0.026241789 -0.042174302 0.020801038
0.027050732 -0.041975275 0.019591957
0.029459476 -0.044189215 0.018686682
0.029534925 -0.042873278 0.016773224
0.031183796 -0.043852214 0.014311612
0.032304198 -0.044051182 0.012907982
0.03248715 -0.042997699 0.011018932
0.0339287 -0.043622613 0.0095347464
0.034628075 -0.043285094 0.0072760284
0.035150621 -0.042750757 0.0055779517
-0.0094654709 -0.041648075 0.0062281489
-0.0085600279 -0.041849025 0.013407379
-0.0077541587 -0.042647872 0.016829014
-0.0066507831 -0.041804921 0.018425137
-0.0057539428 -0.042195581 0.01944533
-0.0046658656 -0.041059617 0.020099759
-0.003794011 -0.041734118 0.020939201
-0.0028141092 -0.041273605 0.020903707
-0.0019125633 -0.042076394 0.021476656
-0.00093080412 -0.040955383 0.02169618
0 -0.041137941 0.021681249
0.00094452291 -0.041559007 0.021681249
0.0018539084 -0.040785983 0.021460921
0.0027941719 -0.040981188 0.02107662
0.0037864505 -0.041650955 0.021003664
0.0046116044 -0.040582117 0.020629346
0.0056196963 -0.041211106 0.020923257
0.0066990051 -0.042108033 0.021263629
0.00739181 -0.040654957 0.021716744
0.0087586269 -0.042819951 0.021698833
0.0092289718 -0.040607475 0.02182287
0.010290655 -0.041162621 0.021778554
0.011334334 -0.041559223 0.021894187
0.012001416 -0.040620178 0.022092611
0.013123139 -0.041244149 0.022184998
0.013779566 -0.040420059 0.022279829
0.01463537 -0.040247269 0.022281766
0.015906796 -0.041170534 0.022310197
0.016830785 -0.04114192 0.022364467
0.01753813 -0.04061462 0.022284836
0.018674519 -0.041083943 0.022344708
0.019562265 -0.040987603 0.022614211
0.020449538 -0.040899076 0.022553086
0.021583272 -0.041289739 0.022247016
0.022611864 -0.041455086 0.022256494
0.023510877 -0.041379143 0.022177815
0.024480654 -0.041428801 0.021750987
0.025575707 -0.041678932 0.020985037
0.025849117 -0.04062004 0.020277262
0.028233085 -0.042836405 0.019460678
0.028183464 -0.041335747 0.018752009
0.029383108 -0.041705057 0.017437071
0.030949334 -0.042555332 0.015592456
0.031212222 -0.041616295 0.014256418
0.032595471 -0.042182375 0.013575166
0.033013374 -0.041502528 0.010908544
0.033424456 -0.040852115 0.0095124841
0.035580665 -0.042312142 0.006631583
-0.0099038007 -0.047318161 0.008379221
-0.0087272776 -0.046909116 0.014300227
-0.0077310381 -0.047490664 0.017941982
-0.0060843881 -0.043604784 0.019137323
-0.0047013294 -0.040431432 0.020072907
-0.0037031253 -0.039808597 0.020471215
-0.002883862 -0.041335355 0.020806998
-0.0018602903 -0.03999624 0.021106899
-0.0009349098 -0.040201124 0.021605879
0 -0.040067531 0.021636605
0.00092198339 -0.039645284 0.021636605
0.0018974839 -0.040795904 0.02142036
0.0028063054 -0.040223714 0.02115348
0.0036706887 -0.039459903 0.021080524
0.0047519342 -0.040866632 0.020678103
0.0056567658 -0.040540155 0.020891249
0.0064879097 -0.039854303 0.020923406
0.0075748572 -0.040714856 0.021673977
0.0084450031 -0.040348351 0.021284252
0.0091816299 -0.039481007 0.021380782
0.010357927 -0.040490076 0.021375746
0.011238773 -0.040272273 0.021661788
0.012073773 -0.039936326 0.021836013
0.013330731 -0.040944386 0.021885008
0.014201204 -0.040710118 0.022226721
0.015057779 -0.04046778 0.022267133
0.015671022 -0.039638467 0.022315592
0.016650245 -0.039775584 0.02237612
0.017612575 -0.039860036 0.022286862
0.018572617 -0.03993113 0.022344708
0.019323576 -0.039567325 0.022614211
0.020577226 -0.040219121 0.022428423
0.02141433 -0.040035486 0.022005886
0.022489656 -0.040293965 0.022183865
0.023362296 -0.040183149 0.021941215
0.023849973 -0.03944419 0.021446258
0.024994798 -0.03980653 0.020521879
0.026777869 -0.041123156 0.019964486
0.02799914 -0.041515965 0.01908657
0.028749546 -0.041207682 0.018507242
0.030211061 -0.041905664 0.01727286
0.029691622 -0.039898116 0.015940368
0.031804468 -0.041442186 0.01541388
0.031953759 -0.040412106 0.014899492
0.03188733 -0.039175864 0.013309717
0.03349733 -0.040010698 0.011191189
0.035558973 -0.04132529 0.008908689
0.035932578 -0.040660549 0.006418854
-0.0092483358 -0.0431589 0.0058948696
-0.0084781982 -0.04451054 0.010944068
-0.0073180562 -0.043908335 0.01548484
-0.0055672307 -0.038970616 0.017961711
-0.0046193982 -0.038802948 0.019083023
-0.0037956161 -0.039853968 0.019983441
-0.0028039715 -0.0392556 0.020245343
-0.0018740994 -0.039356086 0.02080065
-0.0009348024 -0.039261699 0.021267921
0 -0.039638285 0.021529675
0.00094108284 -0.039525479 0.021515995
0.0018919039 -0.039729983 0.021421641
0.0027311696 -0.038236376 0.021441221
0.0038097617 -0.040002499 0.021267205
0.0046318974 -0.038907938 0.020920545
0.0055463794 -0.038824659 0.021133691
0.0065622665 -0.039373599 0.02105397
0.0076047252 -0.039924808 0.021633297
0.0084747616 -0.039548885 0.021480918
0.0094298627 -0.03960542 0.021312714
0.010296405 -0.039313547 0.021467388
0.011336221 -0.039676774 0.021567494
0.012058116 -0.038956992 0.021898359
0.013265247 -0.039795741 0.021836013
0.014117341 -0.039528552 0.021894187
0.01502877 -0.039450519 0.021965981
0.015730297 -0.038863089 0.022450775
0.016757954 -0.039101891 0.022372425
0.017956542 -0.039693408 0.022286862
0.018569253 -0.038995434 0.022296876
0.019936379 -0.039872758 0.022432208
0.020619068 -0.039363675 0.022475272
0.021585478 -0.039416961 0.022177815
0.022552818 -0.039467432 0.02190572
0.023079678 -0.038773861 0.021787435
0.02427749 -0.039217483 0.020955712
0.025124952 -0.039083261 0.02019614
0.025695097 -0.038542647 0.019537896
0.027020754 -0.039133504 0.019003481
0.028552987 -0.039974183 0.018063307
0.029489741 -0.039953843 0.016566187
0.029631788 -0.038891722 0.015276164
0.031139186 -0.039631691 0.015171528
0.031315953 -0.038684413 0.014642924
0.033093266 -0.039711919 0.013240695
0.03425429 -0.039963339 0.012559533
0.033773571 -0.038337566 0.010328829
0.036182251 -0.039990909 0.0087805092
0.036971726 -0.039815702 0.0058448315
-0.0074867718 -0.038369704 0.0076057613
-0.0064880713 -0.03800156 0.013347208
-0.0056243497 -0.038433056 0.016614467
-0.004807536 -0.039421797 0.018120587
-0.003739801 -0.038332961 0.018693566
-0.0028411306 -0.038828786 0.019085526
-0.0018778973 -0.038496897 0.020251662
-0.00093285996 -0.038247257 0.021042049
0 -0.03810988 0.021418303
0.00094578671 -0.038777255 0.021446496
0.0018789949 -0.038519394 0.021311373
0.0027791203 -0.037981313 0.02142036
0.0037532151 -0.038470455 0.021155119
0.0045920047 -0.037654441 0.021026611
0.0056539802 -0.038635533 0.02104035
0.0066664582 -0.039046399 0.021239758
0.0074784807 -0.038327213 0.02167356
0.0084133931 -0.038327679 0.021326452
0.0093305921 -0.038255427 0.021312237
0.010238171 -0.038160454 0.021476209
0.011250026 -0.03843759 0.021246463
0.012161224 -0.038354632 0.02175498
0.013011992 -0.038106546 0.021786481
0.014276505 -0.039022449 0.021894187
0.014911932 -0.038211826 0.021940917
0.01591479 -0.038382731 0.022034973
0.017294273 -0.039392509 0.022341132
0.017373467 -0.037490111 0.022240132
0.018747253 -0.038431872 0.022286147
0.019753709 -0.038566764 0.022315741
0.020522822 -0.038247075 0.022207409
0.021449869 -0.038236722 0.021888644
0.022352902 -0.038186207 0.021771848
0.023583483 -0.038676914 0.021522254
0.024445409 -0.038548529 0.020576984
0.025136685 -0.03817052 0.020122439
0.026298247 -0.038508147 0.019824982
0.027126824 -0.038351718 0.018704057
0.027832719 -0.038038049 0.017936647
0.028811563 -0.038105614 0.016153276
0.030398397 -0.038947944 0.015289485
0.030281177 -0.037622068 0.015629917
0.032202438 -0.038832348 0.014839858
0.033608072 -0.039369453 0.013922721
0.033336375 -0.037966426 0.013236851
0.034407396 -0.038127113 0.012362123
0.035841201 -0.038670771 0.0092378855
0.0364419 -0.038310714 0.0061301291
-0.0064915055 -0.037094317 0.0098466277
-0.0057520363 -0.038346909 0.01417312
-0.0046334793 -0.037067834 0.016551435
-0.0037232284 -0.037232284 0.018086165
-0.0028296155 -0.037728205 0.018581837
-0.0018841227 -0.037682455 0.019110858
-0.00093432638 -0.037373055 0.020159513
0 -0.038282923 0.021179855
0.00092713127 -0.03708525 0.021096826
0.0019096102 -0.038192205 0.021315783
0.0028303473 -0.037737962 0.021350265
0.0037339597 -0.037339598 0.021508008
0.004730423 -0.037843384 0.021457165
0.0056700939 -0.037800625 0.02150926
0.006468887 -0.036965068 0.021531105
0.0076170131 -0.038085066 0.022234172
0.0083399015 -0.037066229 0.021950662
0.0092678359 -0.037071344 0.02162078
0.010271726 -0.037351731 0.021615148
0.011119143 -0.037063811 0.021929324
0.012219097 -0.03759722 0.02211079
0.013165597 -0.037615992 0.021986008
0.014073645 -0.037529718 0.021921664
0.015128391 -0.037820976 0.021893561
0.015882734 -0.03737114 0.021888793
0.016522426 -0.036716502 0.021995962
0.018167382 -0.03824712 0.021905839
0.018491535 -0.036983069 0.021971107
0.019450713 -0.037048977 0.022191852
0.020647453 -0.037540823 0.022122085
0.021353327 -0.037136219 0.021553993
0.022323756 -0.037206259 0.021517277
0.023315785 -0.037305258 0.020780355
0.024080038 -0.037046213 0.020178258
0.025325662 -0.0375195 0.019589454
0.026620226 -0.038028896 0.019081265
0.026872942 -0.037066128 0.018192023
0.028104601 -0.037472803 0.017450094
0.028762653 -0.0371131 0.015950292
0.030342083 -0.037927605 0.015271515
0.03089291 -0.037445951 0.015289485
0.032351267 -0.038060315 0.014839858
0.032313425 -0.03692963 0.014614761
0.033708144 -0.037453495 0.013742924
0.034722015 -0.037537314 0.012482613
0.035400733 -0.03726393 0.010092854
0.037384007 -0.038342573 0.0066843927
-0.0069545228 -0.038746629 0.0058780909
-0.0056788553 -0.03691256 0.010944068
-0.0046288921 -0.036105357 0.014057666
-0.0037205338 -0.036275204 0.016080916
-0.0028429599 -0.036958478 0.018146396
-0.0018554587 -0.036181446 0.018984616
-0.0009360307 -0.036505196 0.019934922
0 -0.036155738 0.020780146
0.00094121357 -0.036707327 0.020680368
0.001900214 -0.037054174 0.020405233
0.0028001564 -0.036402032 0.020803303
0.0037527273 -0.03658909 0.021219045
0.0046929112 -0.036604706 0.021324635
0.0054955841 -0.035721295 0.021422178
0.0066182339 -0.036873017 0.021379173
0.0075730961 -0.036918841 0.022026122
0.008509405 -0.036874089 0.022013038
0.0095238239 -0.037142914 0.021589816
0.010254933 -0.036358397 0.021704346
0.011154216 -0.036251199 0.021929324
0.012393356 -0.03718007 0.022161722
0.013045264 -0.036340378 0.022230893
0.014172311 -0.036848009 0.02200529
0.015182934 -0.037008401 0.021926761
0.015508817 -0.035579052 0.021798968
0.016929155 -0.036679838 0.02188158
0.017757665 -0.036449943 0.02170682
0.018593786 -0.036257885 0.02181235
0.019643739 -0.036481231 0.021946162
0.020234842 -0.035870858 0.02172941
0.021589881 -0.036608931 0.02072528
0.022577863 -0.036689028 0.020391524
0.023075329 -0.035997514 0.019837886
0.024002442 -0.036003664 0.019173712
0.026350565 -0.038061928 0.018910795
0.02648389 -0.036888275 0.018307358
0.027276738 -0.036682509 0.017210543
0.029271966 -0.038053554 0.016103357
0.029233709 -0.036777891 0.015375644
0.03027975 -0.036903445 0.015098602
0.030397486 -0.035924301 0.014976978
0.031431925 -0.036054265 0.014670044
0.032791682 -0.036539301 0.01454547
0.033941973 -0.036770474 0.01362142
0.034553416 -0.036421169 0.012418151
0.035377558 -0.036308546 0.0098010302
0.036950763 -0.036950763 0.0064509213
-0.0062117847 -0.039341301 0.0084263384
-0.0050849048 -0.038645279 0.010820776
-0.0039012192 -0.037061583 0.014041901
-0.002766473 -0.035041992 0.015964329
-0.0018808066 -0.035735324 0.01812622
-0.00093986333 -0.035714809 0.019131094
0 -0.036027718 0.019931197
0.00093602191 -0.035568833 0.020085663
0.0018545876 -0.035237163 0.019919157
0.0027800091 -0.035213448 0.019924104
0.0037258642 -0.035395712 0.020002306
0.004624276 -0.0351445 0.020166487
0.0057962262 -0.036709435 0.020651639
0.0065951268 -0.035802118 0.020597905
0.0073540467 -0.034931723 0.021419793
0.0085071307 -0.035918996 0.021484613
0.0093402574 -0.035492979 0.021190137
0.010342668 -0.035729215 0.021038115
0.011345729 -0.035928141 0.021622151
0.012127834 -0.035450593 0.02175051
0.013101447 -0.035561074 0.022069603
0.014325728 -0.036291845 0.021749437
0.014713903 -0.034945522 0.021606624
0.015960209 -0.035675764 0.021446496
0.016895007 -0.035667237 0.021522909
0.017272625 -0.03454525 0.021154404
0.01910029 -0.036290552 0.021046311
0.019474765 -0.03524005 0.02173999
0.020814624 -0.035952531 0.021335006
0.021346061 -0.035267405 0.020367295
0.022066381 -0.034938436 0.020110309
0.023435686 -0.035622243 0.019356281
0.024305966 -0.035524104 0.018867254
0.026266547 -0.036967732 0.017976373
0.026357614 -0.035771046 0.017656118
0.027482828 -0.036011983 0.016001105
0.028425299 -0.036005378 0.015454412
0.029461473 -0.036114063 0.014851868
0.03001884 -0.035647374 0.013993621
0.031042928 -0.035746403 0.014614761
0.032834239 -0.03669709 0.014398009
0.032731846 -0.035537433 0.013251394
0.033014685 -0.034848835 0.012736797
0.034995656 -0.035941485 0.010740757
0.035953894 -0.035953894 0.0070354939
0.036474697 -0.035539448 0.0057777464
-0.0062391227 -0.03847459 0.0083410442
-0.0050436715 -0.037323169 0.010786951
-0.0038892084 -0.035975177 0.012904376
-0.0029723935 -0.03665952 0.015023738
-0.0019599204 -0.036258526 0.016533226
-0.00095612864 -0.035376761 0.018232524
0 -0.034454152 0.019028485
0.00093070266 -0.034435999 0.019718289
0.0018852893 -0.034877852 0.019731253
0.0028545954 -0.035206679 0.019530028
0.0036958086 -0.034186229 0.019690782
0.0047165719 -0.034902632 0.019816637
0.0057628481 -0.035537563 0.020101309
0.0064341393 -0.034009021 0.019959867
0.0076011927 -0.035155516 0.021072119
0.0086167231 -0.035424307 0.021233022
0.0091432277 -0.033829942 0.020650804
0.010418938 -0.035045519 0.020595521
0.011306791 -0.034862604 0.021027267
0.012084072 -0.034393128 0.021223933
0.013307697 -0.035170343 0.021553189
0.013884972 -0.034249596 0.021560282
0.015161108 -0.035060063 0.021116078
0.015948568 -0.034711588 0.020982832
0.016709449 -0.034347203 0.020940065
0.018136784 -0.035319004 0.0208745
0.019128006 -0.035386812 0.0205881
0.019447612 -0.034264836 0.020914316
0.020550437 -0.0345621 0.020540267
0.022460194 -0.036131617 0.019502282
0.021769507 -0.033561323 0.018922508
0.023525083 -0.034817122 0.017976373
0.023827827 -0.033908829 0.017696917
0.026542088 -0.03637249 0.016485095
0.027460814 -0.036287501 0.015779793
0.02780867 -0.035480026 0.015425056
0.028891824 -0.035633251 0.014179289
0.029983031 -0.035786197 0.013589203
0.02973441 -0.034380414 0.013267726
0.031271052 -0.035061482 0.013331056
0.032211967 -0.035054199 0.012998223
0.033415899 -0.035325378 0.012606949
0.034277812 -0.035229973 0.010799915
0.0352557 -0.0352557 0.0070354939
0.035113726 -0.034189682 0.0056692362
-0.0060758418 -0.03645505 0.0074298382
-0.0047920691 -0.034502897 0.010085732
-0.0039318018 -0.035386216 0.012355238
-0.0028918472 -0.034702163 0.014145434
-0.0019078074 -0.034340534 0.015392512
-0.00096854602 -0.034867659 0.017271757
0 -0.035381399 0.018936843
0.00097537501 -0.035113499 0.01901859
0.0019043931 -0.034279075 0.019009531
0.0028122803 -0.033747364 0.018886238
0.0037966934 -0.03417024 0.01930365
0.0046792785 -0.033690806 0.01943621
0.005614575 -0.03368745 0.019906342
0.0066358466 -0.034127213 0.019906342
0.0073688892 -0.033160001 0.019972444
0.0083158938 -0.033263575 0.02071318
0.0094801001 -0.03412836 0.02042371
0.010363064 -0.033915482 0.019828141
0.011113469 -0.033340406 0.020470768
0.012296124 -0.034050804 0.02094999
0.013126551 -0.033753987 0.020960242
0.01397515 -0.033540361 0.021047175
0.01492878 -0.033589754 0.0208745
0.015656183 -0.033154268 0.02060926
0.017103788 -0.034207575 0.020540267
0.017747579 -0.033626992 0.020706862
0.018618494 -0.033513293 0.02041772
0.020129992 -0.034508556 0.02041772
0.020685265 -0.033848617 0.020296305
0.020807641 -0.032568481 0.019325376
0.023070529 -0.034605794 0.018164277
0.023179224 -0.033378083 0.016762882
0.024308221 -0.033657536 0.015813559
0.027113106 -0.036150809 0.014882803
0.026901608 -0.034587782 0.011873811
0.028360063 -0.035205595 0.011524737
0.029310729 -0.035172876 0.0094484985
0.029019399 -0.033699948 0.0079506636
0.030605083 -0.03443072 0.0079066455
0.030929476 -0.033741247 0.0096719563
0.032172017 -0.03406449 0.0098063648
0.033885002 -0.034853145 0.0074644983
0.034148082 -0.034148082 0.0065388381
0.034720294 -0.033781908 0.0055458546
-0.0059249685 -0.034562316 0.0053472221
-0.0049675163 -0.034772616 0.0085309148
-0.0038802347 -0.033952054 0.011040539
-0.0028365278 -0.033092823 0.012904376
-0.0019462871 -0.034060024 0.014659137
-0.00095949508 -0.03358233 0.015752435
0 -0.034079656 0.017624527
0.00092766847 -0.032468397 0.018465519
0.0019123878 -0.033466786 0.018699974
0.0028784135 -0.033581492 0.018481344
0.0037422033 -0.032744277 0.018628061
0.0046465299 -0.032525711 0.018742412
0.0056970851 -0.033232994 0.019369006
0.0065016667 -0.032508332 0.019263566
0.0073852632 -0.032310527 0.019397408
0.0084017906 -0.032673631 0.019771069
0.0093359882 -0.032675955 0.019301862
0.010288357 -0.032735679 0.018536657
0.011349373 -0.033102337 0.019506752
0.012152391 -0.032717973 0.01952818
0.012998221 -0.032495555 0.020020455
0.014102705 -0.032906312 0.020016372
0.015035584 -0.032890338 0.019934237
0.015809007 -0.032547954 0.019738317
0.016911443 -0.032883361 0.019844562
0.017748239 -0.032694124 0.019721657
0.018670341 -0.032673094 0.019358605
0.020032251 -0.033387084 0.019119024
0.020762367 -0.033031039 0.018945932
0.022733482 -0.034594428 0.016869307
0.022278197 -0.032489039 0.013344705
0.023584763 -0.033018667 0.011580527
0.025962211 -0.034949131 0.0082939267
0.027168194 -0.035218026 0.0063609481
0.028549377 -0.035686724 0.0059717298
0.029188126 -0.035227049 0.0061522126
0.029406583 -0.034307677 0.0058853924
0.030316973 -0.034228839 0.0051409602
0.031174073 -0.034096643 0.0055453181
0.031285543 -0.033181638 0.0065070391
0.03295397 -0.033923205 0.0062851012
0.033862799 -0.033862799 0.005907625
0.0338214 -0.032881916 0.0056156218
-0.004962469 -0.03374479 0.0081218481
-0.0038876606 -0.033045117 0.010027975
-0.0028625855 -0.032442633 0.011878848
-0.0019334168 -0.032868087 0.013371021
-0.00095616991 -0.032509778 0.015414
0 -0.031699363 0.01642707
0.00094519556 -0.032136649 0.017469496
0.0019219548 -0.032673232 0.018119514
0.0028781318 -0.032618828 0.018024057
0.003720127 -0.03162108 0.018561572
0.0048484663 -0.032969572 0.018604934
0.0057104225 -0.03235906 0.018640339
0.0066443938 -0.032272767 0.018589258
0.0077156383 -0.032791462 0.018597841
0.0084207021 -0.031811543 0.018597841
0.0092661837 -0.031505026 0.018391669
0.010216269 -0.031577557 0.018134534
0.011289748 -0.031987622 0.018122107
0.012204258 -0.031918827 0.018125951
0.013085638 -0.031779405 0.018434167
0.013864611 -0.031426452 0.018217474
0.01512864 -0.032148357 0.017728537
0.016085988 -0.032171976 0.017716795
0.016796846 -0.031727374 0.017693043
0.017655062 -0.031593267 0.01771301
0.019383365 -0.03295172 0.017631501
0.019759225 -0.031991128 0.01734221
0.020737547 -0.032048937 0.015087575
0.02377148 -0.035140447 0.011805415
0.022763822 -0.032248747 0.0097443759
0.023594605 -0.032088663 0.0056113303
-0.0048784446 -0.032197736 0.0079646111
-0.0039826054 -0.032856494 0.0095136762
-0.0029294081 -0.032223489 0.011616081
-0.0019257786 -0.031775348 0.013168424
-0.00094546197 -0.031200245 0.014441013
0 -0.031073593 0.016213864
0.00096966553 -0.031998962 0.017251313
0.0019106591 -0.031525876 0.018015772
0.0028116247 -0.030927872 0.017980278
0.00381264 -0.03145428 0.018377215
0.0046952553 -0.030988686 0.018557221
0.0056622764 -0.03114252 0.018663585
0.0066317497 -0.031263962 0.01852262
0.0076655862 -0.031620543 0.018413603
0.0085898638 -0.031496167 0.018351912
0.0099197729 -0.032735251 0.018091768
0.010591265 -0.031773794 0.017347515
0.011501357 -0.031628732 0.017697185
0.01217366 -0.030902369 0.017673582
0.01277376 -0.030109577 0.01745519
0.013937158 -0.030661747 0.017155707
0.014938938 -0.030811558 0.017002165
0.015932081 -0.030926982 0.016936898
0.016833439 -0.030861305 0.015014768
0.017704099 -0.030749224 0.014929533
0.019238878 -0.031744149 0.013569236
0.023158042 -0.036391206 0.013130099
0.024402194 -0.036603291 0.0099981427
0.022514794 -0.032303836 0.0060111284
-0.0048373742 -0.030959196 0.0080159307
-0.0037827126 -0.030261701 0.0098911226
-0.0028842811 -0.030765666 0.011669964
-0.0019132519 -0.030612031 0.012955189
-0.00095194078 -0.030462105 0.014656901
0 -0.030827006 0.015787661
0.00095431833 -0.030538186 0.017091632
0.0018370486 -0.029392777 0.017794907
0.0028489844 -0.030389167 0.017759413
0.0037673505 -0.030138804 0.017945588
0.0046581561 -0.029812198 0.01789552
0.0056598173 -0.030185692 0.017887235
0.0067240279 -0.030738413 0.017769933
0.0076662023 -0.030664809 0.017732024
0.0086344415 -0.030700238 0.01767242
0.0094244396 -0.030158207 0.017251492
0.010298498 -0.029959267 0.016916484
0.011819636 -0.031519029 0.016860843
0.012738654 -0.031356689 0.015861958
0.013757486 -0.031445682 0.015425086
0.014725122 -0.031413592 0.012990534
0.015134143 -0.030268285 0.01180625
0.016056625 -0.030224238 0.011501491
0.016666025 -0.029628487 0.007517904
0.017643107 -0.029714705 0.0074948967
0.01858283 -0.029732529 0.0071427822
0.021171492 -0.032261319 0.0055269003
-0.0057878839 -0.029904068 0.0062529147
-0.00479963 -0.029757706 0.0082200766
-0.0038471266 -0.029815232 0.010566205
-0.0029170455 -0.030142803 0.0119856
-0.0018749898 -0.029062342 0.012898207
-0.00094896415 -0.029417889 0.014971048
0 -0.02982617 0.015957922
0.00092848158 -0.028782928 0.017167598
0.0019087613 -0.029585801 0.017740399
0.0028376777 -0.029322669 0.017641336
0.0037812931 -0.02930502 0.017755091
0.004654556 -0.028858246 0.017670184
0.0056770705 -0.029331531 0.017496794
0.0066285268 -0.029354904 0.017312616
0.00766287 -0.029693622 0.017263502
0.0084776608 -0.029200831 0.017016649
0.0095836055 -0.029709175 0.016314805
0.010976305 -0.030933226 0.015644372
0.011351777 -0.029325424 0.013091296
0.012821145 -0.0305735 0.012185901
0.013887253 -0.030750344 0.011481702
0.014414576 -0.029790124 0.0082949698
0.015525122 -0.030079925 0.0069329441
0.016715318 -0.030480875 0.00562644
-0.0058189905 -0.029094953 0.0070788264
-0.0048660873 -0.029196525 0.0088463724
-0.0038556755 -0.028917566 0.010972768
-0.0028402521 -0.02840252 0.012480825
-0.0019046249 -0.028569372 0.013895839
-0.00096262305 -0.028878691 0.015404254
0 -0.028244223 0.016670316
0.00095366238 -0.028609872 0.017184615
0.0019191324 -0.028786987 0.017684191
0.0028102624 -0.028102623 0.017570913
0.0037642452 -0.028231839 0.017507792
0.0048136688 -0.028882012 0.017360181
0.0057037957 -0.028518979 0.017236441
0.0065718186 -0.028164938 0.016672432
0.0075965952 -0.028487232 0.016410112
0.0084820939 -0.028273648 0.015836716
0.0096726147 -0.029017843 0.013505936
0.010647892 -0.029039707 0.012240469
0.011509032 -0.02877258 0.01181224
0.013045319 -0.030104583 0.0094978213
0.013624598 -0.029195568 0.0075629652
0.014853214 -0.029706428 0.0061891377
-0.0057911836 -0.027990719 0.0075740516
-0.0048416941 -0.028081827 0.010325789
-0.0038334811 -0.027792739 0.011597514
-0.0028501227 -0.027551187 0.013359666
-0.0019478978 -0.02824452 0.014644921
-0.00093702093 -0.027173607 0.016358137
0 -0.028013311 0.016942412
0.00095920754 -0.027817018 0.017516077
0.0018507406 -0.02683574 0.017516077
0.0028340316 -0.02739564 0.017362893
0.0037876468 -0.027460439 0.01742062
0.0047664233 -0.027645256 0.017001927
0.0056928173 -0.027515283 0.016568601
0.0065760803 -0.027243761 0.015730888
0.0076663005 -0.02779034 0.014463335
0.0086850068 -0.027985023 0.013457209
0.0094398241 -0.027375491 0.012166739
0.01039452 -0.027403735 0.011132538
0.012044907 -0.029108524 0.0088801086
0.013137915 -0.029307658 0.0067224503
-0.0068051042 -0.027220417 0.0052312016
-0.0058675543 -0.027381919 0.0076717436
-0.0047477977 -0.026587667 0.010628074
-0.0038580713 -0.027006499 0.012007684
-0.0029448117 -0.027484909 0.014537901
-0.0018663321 -0.02612865 0.016264379
-0.00093421096 -0.026157906 0.016830206
0 -0.026512949 0.017443836
0.00093597843 -0.026207395 0.01766187
0.0018860792 -0.026405109 0.017722219
0.002809145 -0.026218686 0.01743719
0.003699614 -0.025897296 0.017325073
0.0046700947 -0.026152531 0.016898096
0.005607578 -0.026168697 0.016287059
0.0066310624 -0.026524249 0.014699221
0.0076408889 -0.02674311 0.013858885
0.0085001225 -0.026444826 0.012216717
0.009561005 -0.026770815 0.011132538
0.010693343 -0.02721942 0.0088151097
0.011974594 -0.027940717 0.0066724122
-0.0056594247 -0.025467411 0.0077629387
-0.0047495603 -0.025647627 0.010794938
-0.0038938466 -0.026283465 0.012919039
-0.0027926543 -0.025133889 0.015073299
-0.0018795938 -0.025374517 0.015848637
-0.00094748457 -0.025582084 0.016642362
0 -0.025113203 0.017049313
0.00094510778 -0.025517909 0.017275095
0.0018998268 -0.025647663 0.017506987
0.002875474 -0.025879266 0.017325073
0.0037870791 -0.025562784 0.016935706
0.0047919126 -0.025876328 0.01635766
0.0055694822 -0.025062669 0.015863836
0.0067738625 -0.026127756 0.014548242
0.0075613251 -0.025519473 0.012987643
0.0085318116 -0.025595436 0.011978269
0.0095700072 -0.02583902 0.0097888112
0.01069251 -0.026245251 0.0069954693
-0.0057711829 -0.025008461 0.0071615577
-0.0048676757 -0.025311915 0.01046735
-0.0037404497 -0.024312923 0.012801021
-0.0027796223 -0.024090061 0.015019089
-0.0019512197 -0.025365857 0.015902102
-0.00093418115 -0.02428871 0.016729206
0 -0.024664287 0.016962439
0.00092875771 -0.024147701 0.017008394
0.0018695635 -0.024304325 0.017160475
0.0028154531 -0.024400594 0.016937196
0.0037938291 -0.024659889 0.01656881
0.0045928657 -0.023882901 0.015979797
0.0057894625 -0.025087671 0.015532941
0.0066918298 -0.024855368 0.014048815
0.007314547 -0.023772279 0.012652278
0.0088003119 -0.025423124 0.011355639
0.0094869593 -0.024666095 0.009105742
0.010744545 -0.025396196 0.0066903532
-0.005813797 -0.024224153 0.0059971809
-0.00473167 -0.023658352 0.008724153
-0.0036977038 -0.023110649 0.012247652
-0.0028959927 -0.024133272 0.014567167
-0.0019175307 -0.023969134 0.015842855
-0.00092142256 -0.023035564 0.016660988
0 -0.02388108 0.016675264
0.00093689945 -0.023422487 0.016708463
0.00190571 -0.023821374 0.016748935
0.0028199507 -0.023499589 0.016499192
0.0036813749 -0.023008592 0.016294271
0.0047526909 -0.023763454 0.015736312
0.0057571358 -0.023988066 0.014977992
0.0064796982 -0.023141779 0.013487935
0.0076501672 -0.023906773 0.012287319
0.0085780201 -0.023827834 0.010028034
0.0097090462 -0.024272617 0.0082467794
0.011116766 -0.025265379 0.0057109594
-0.0046538422 -0.022338443 0.0070429444
-0.0038228494 -0.022937095 0.010109812
-0.0028332034 -0.022665627 0.013373226
-0.0018989455 -0.022787347 0.014508247
-0.00093095994 -0.02234304 0.016112238
0 -0.022424994 0.016186267
0.00094271888 -0.022625253 0.016467631
0.0018504484 -0.022205381 0.016415626
0.0027739843 -0.022191875 0.016259104
0.0038299167 -0.0229795 0.015902936
0.0048186365 -0.023129454 0.015291125
0.0054700105 -0.021880042 0.013947308
0.0066820486 -0.02290988 0.01264739
0.0076201889 -0.022860566 0.011642873
0.0086731268 -0.02312834 0.0092589855
0.0096599897 -0.023183977 0.0067550242
-0.0048994627 -0.022537529 0.0056894422
-0.003788342 -0.021782966 0.0076766014
-0.0028248704 -0.02165734 0.012001961
-0.0018623199 -0.021416679 0.013251007
-0.00093458028 -0.021495346 0.015341043
0 -0.021838699 0.015603721
0.00094737357 -0.021789592 0.01581198
0.0018682901 -0.021485336 0.015711695
0.0028383944 -0.021761023 0.015526086
0.0038270855 -0.022005742 0.015248746
0.0046475758 -0.021378849 0.013590544
0.0056481687 -0.021651313 0.01233542
0.0067171766 -0.022070723 0.011379093
0.0076335347 -0.021946413 0.0090530217
0.0087528126 -0.022368299 0.0074474812
0.0097071091 -0.02232635 0.0053671002
-0.0038147294 -0.020981012 0.0059325695
-0.0028389983 -0.020819321 0.0084169507
-0.0018976899 -0.02087459 0.011440903
-0.00094245787 -0.020734074 0.013155669
0 -0.021042364 0.013744593
0.00092412287 -0.020330703 0.014005274
0.0019219334 -0.021141268 0.014005274
0.0029194027 -0.021408953 0.013612241
0.003730916 -0.020520037 0.013372809
0.0046915323 -0.020642743 0.012208432
0.0057908059 -0.021232953 0.010963589
0.0066959802 -0.021044509 0.0093635619
0.0076911678 -0.021150712 0.0074474812
0.0085572861 -0.02091781 0.0054410994
-0.0028436042 -0.01990523 0.0053064823
-0.0019412016 -0.020382619 0.0070126057
-0.00094977976 -0.019945376 0.010857016
0 -0.019901952 0.012164652
0.0009195091 -0.019309692 0.012437195
0.0019135502 -0.020092277 0.012438685
0.0027999352 -0.019599548 0.012424767
0.0037331656 -0.019599119 0.012187153
0.0047448892 -0.019928535 0.010678679
0.0056436122 -0.019752642 0.0087730587
0.0067642652 -0.020292796 0.006881088
0.0075285439 -0.019762427 0.0052470863
-0.00095520617 -0.019104123 0.0062176585
0 -0.019072514 0.0081583261
0.00095953007 -0.019190602 0.0091026127
0.0018900542 -0.018900542 0.010119587
0.0028310181 -0.018873455 0.010675848
0.0037638906 -0.018819453 0.0098822713
0.0046895072 -0.018758029 0.0084773302
0.0057755508 -0.019251836 0.0064601302
0.0066415407 -0.018975832 0.0055954754
0.00096756691 -0.018383771 0.005961448
0.0019578889 -0.018599944 0.006283313
0.0028794291 -0.018236386 0.0065677166
0.0037843555 -0.017975688 0.0058991909
0.0048517808 -0.018436767 0.0056232512
0 0 0 1 0 0 0 1 0 0 0 1 0 0 0 0 0 1319 1 0 0
