ply
format ascii 1.0
comment PCL generated
element vertex 1299
property float x
property float y
property float z
element camera 1
property float view_px
property float view_py
property float view_pz
property float x_axisx
property float x_axisy
property float x_axisz
property float y_axisx
property float y_axisy
property float y_axisz
property float z_axisx
property float z_axisy
property float z_axisz
property float focal
property float scalex
property float scaley
property float centerx
property float centery
property int viewportx
property int viewporty
property float k1
property float k2
end_header
0.01701308 -0.062735736 0.0072648227
0.019615926 -0.068078801 0.0088307858
0.020176124 -0.066132851 0.0086176991
0.019469352 -0.060457464 0.0080405474
0.019844325 -0.058540758 0.0076860487
0.019809498 -0.055655256 0.0078067482
0.021200918 -0.056857008 0.0078021288
0.022175485 -0.056884937 0.0059758127
0.023385769 -0.057490014 0.0058099031
0.02370907 -0.055953406 0.0068117678
0.028032109 -0.063611321 0.0068948865
0.028198138 -0.061618153 0.0065198243
0.027759144 -0.058492482 0.0065387785
0.028363172 -0.057704385 0.0065198243
0.029126303 -0.057281729 0.0074806809
0.029519213 -0.056181729 0.0064667761
0.031015318 -0.057184491 0.005721122
0.013533636 -0.065412574 0.0055449307
0.013993884 -0.062434252 0.0089870989
0.015535262 -0.064360373 0.01053381
0.015387039 -0.059496548 0.012608975
0.015810395 -0.057312679 0.012802064
0.015892573 -0.05422172 0.014073044
0.016300926 -0.052525207 0.012885869
0.017209176 -0.052533273 0.012608975
0.018553192 -0.053804256 0.010873735
0.019211384 -0.05306001 0.01066342
0.020757774 -0.05472504 0.010706812
0.022452181 -0.056618545 0.010249704
0.024602609 -0.059456304 0.0099886656
0.028371777 -0.065822519 0.0099586248
0.025501894 -0.056888841 0.0094001591
0.025708774 -0.055226255 0.0089608431
0.027478192 -0.056919109 0.0087800026
0.027908336 -0.055816673 0.0097637177
0.028677709 -0.055443574 0.0098089278
0.030083645 -0.05628553 0.0083107352
0.029911336 -0.054214295 0.0070474446
0.031969752 -0.056189265 0.0058003962
0.0091323704 -0.065068133 0.0050027966
0.0094889738 -0.060096834 0.008022666
0.011342318 -0.064651206 0.011049658
0.011262591 -0.0583607 0.01328668
0.011635242 -0.055267401 0.013553351
0.012332362 -0.054072663 0.015246361
0.012901437 -0.052527282 0.016874582
0.013849114 -0.052626632 0.018069088
0.014687202 -0.052323155 0.018608272
0.015618034 -0.052366346 0.018675208
0.016710214 -0.052915677 0.018390626
0.017723244 -0.053169731 0.018534124
0.018398233 -0.052434962 0.016370654
0.019833101 -0.053832699 0.015869856
0.020962106 -0.05431091 0.015172392
0.022691034 -0.0562343 0.013196111
0.024193713 -0.05746007 0.012996405
0.024279833 -0.055358019 0.011814356
0.025057355 -0.054933432 0.011819482
0.026028303 -0.054948639 0.010973364
0.027363766 -0.05570481 0.010973364
0.026915791 -0.052903451 0.011514038
0.029114582 -0.055317707 0.011840254
0.02906261 -0.053437702 0.010068685
0.030987259 -0.055196054 0.0078555048
0.031265952 -0.054004826 0.0069052577
0.031566922 -0.052921012 0.0063512325
0.0035096556 -0.065513574 0.0050323308
0.0045263977 -0.063369572 0.0059767365
0.0052402173 -0.058690436 0.008220315
0.0066945031 -0.062482029 0.011111259
0.0074705048 -0.059764039 0.013167948
0.0077595613 -0.05431693 0.014873892
0.008299252 -0.051639792 0.015478373
0.0092945434 -0.052049443 0.017074406
0.010017656 -0.050998975 0.017713517
0.011040841 -0.051523924 0.018751979
0.011868942 -0.051127747 0.019006193
0.013148271 -0.052593082 0.019309014
0.013930904 -0.052008707 0.019473106
0.014769557 -0.051693451 0.019488126
0.015777968 -0.051974483 0.019687533
0.016797388 -0.05225854 0.019559532
0.017655686 -0.052037809 0.019160628
0.018855289 -0.05279481 0.018833816
0.019612815 -0.052300837 0.018619418
0.020225478 -0.051483035 0.018368185
0.022676572 -0.055212524 0.016544759
0.022498652 -0.052496858 0.015952975
0.023955481 -0.053660277 0.015417039
0.024631534 -0.053052533 0.015457004
0.026088415 -0.054109305 0.0140903
0.026369317 -0.052738633 0.013706416
0.027552962 -0.053205721 0.013943464
0.02745891 -0.051256631 0.013587862
0.028664483 -0.051780999 0.012308896
0.030214991 -0.052876234 0.010456771
0.030319354 -0.051451024 0.0075161159
0.031487588 -0.051861908 0.0066668689
0.035106797 -0.056170877 0.0058942139
-0.0011210378 -0.061657079 0.0065342486
0 -0.06388589 0.0068472326
0.0010462125 -0.057541691 0.0084260106
0.0022610654 -0.062179301 0.011411548
0.0031517204 -0.057781544 0.013336599
0.0037418171 -0.051449984 0.01502794
0.0046631265 -0.05129439 0.018256843
0.0055692401 -0.051051367 0.01850751
0.0063935523 -0.050235055 0.01868698
0.0074625313 -0.051304903 0.018990159
0.0082693519 -0.05053493 0.019334912
0.0094184875 -0.051801682 0.01990813
0.010367698 -0.051838491 0.020049423
0.011508199 -0.052745912 0.020049423
0.012072766 -0.051077086 0.020552248
0.013296177 -0.052234981 0.02059716
0.013849135 -0.050780162 0.020798117
0.015114858 -0.051957324 0.020726502
0.016063061 -0.051968724 0.020814896
0.016673004 -0.050945293 0.020573318
0.017664326 -0.051133577 0.020741999
0.018680623 -0.051371712 0.020512551
0.019239025 -0.050387923 0.019810915
0.020450957 -0.051127389 0.019342542
0.022281403 -0.053281613 0.018947303
0.022855544 -0.052377287 0.018576026
0.024225371 -0.053295817 0.017712116
0.02406952 -0.050916292 0.017093718
0.02578726 -0.052529607 0.015946925
0.027379414 -0.053780992 0.015430868
0.027046273 -0.051294655 0.015800089
0.028218042 -0.05173308 0.015519559
0.029716227 -0.052722339 0.013776809
0.029588154 -0.050854638 0.012365192
0.031664938 -0.052774895 0.009439826
0.031845663 -0.051515043 0.007299006
0.033610243 -0.052816097 0.0063905418
-0.0055940035 -0.060415238 0.0056481957
-0.0047683055 -0.064372122 0.0070379674
-0.0033324389 -0.059983902 0.0080456138
-0.0022074012 -0.059599835 0.0098485649
-0.0010419197 -0.056263663 0.012923568
0 -0.051554892 0.015446067
0.000925467 -0.04997522 0.01732704
0.0018286136 -0.049372565 0.018957675
0.0027423291 -0.049361926 0.019353777
0.0036995013 -0.049943268 0.019863218
0.0046790866 -0.050534133 0.020117462
0.0055459808 -0.049913827 0.020255595
0.0065758205 -0.050727759 0.020130605
0.0074641821 -0.050383229 0.020428151
0.0083430251 -0.050058149 0.020428151
0.0094571095 -0.051068392 0.020629674
0.010332453 -0.050722949 0.020629674
0.011323585 -0.050956134 0.021027774
0.012107905 -0.050294373 0.021250486
0.0130271 -0.050247386 0.02183041
0.014025766 -0.05049276 0.021770775
0.014998341 -0.050619401 0.02167055
0.015965151 -0.050712831 0.021941096
0.017101865 -0.051305596 0.021927893
0.017953899 -0.05102687 0.021696121
0.018779689 -0.050705161 0.021634191
0.019481014 -0.050094038 0.020910174
0.02058265 -0.05052105 0.020748764
0.021874825 -0.051358286 0.019885451
0.02307805 -0.051925614 0.019638062
0.023473389 -0.05070252 0.019446641
0.024168132 -0.050195351 0.018836468
0.025430072 -0.050860144 0.017712116
0.026062742 -0.050263859 0.017039597
0.026689136 -0.049697015 0.017256618
0.028716449 -0.051689606 0.016761899
0.028711256 -0.050013155 0.014714181
0.029952362 -0.050544608 0.013148695
0.031264946 -0.05116082 0.01121226
0.031642079 -0.050255068 0.0085137188
0.033458158 -0.051621158 0.0067212582
-0.0098094726 -0.057766896 0.0050652921
-0.008990529 -0.059562255 0.0060532987
-0.0078355176 -0.05932606 0.007473141
-0.0063756732 -0.056318447 0.0098957717
-0.0053059305 -0.056242865 0.012205869
-0.0039311424 -0.052087635 0.013207555
-0.002746948 -0.048529416 0.015708297
-0.0018274268 -0.048426811 0.017997116
-0.00093023764 -0.049302597 0.018646598
0 -0.049764637 0.019753039
0.00092645915 -0.049102336 0.020511329
0.0018490006 -0.048998516 0.020890236
0.0028052693 -0.049559757 0.020909518
0.0038148679 -0.050547 0.021188289
0.0046188473 -0.04895978 0.021448404
0.0056246906 -0.049684767 0.021329224
0.0065614465 -0.049679521 0.021379709
0.0074779717 -0.049541563 0.021549255
0.0085959695 -0.050620709 0.021457076
0.009351288 -0.049561828 0.021770775
0.010193266 -0.049113009 0.021749377
0.011290913 -0.0498682 0.021749377
0.012097045 -0.049318723 0.021923482
0.013150984 -0.049785867 0.022066653
0.014265373 -0.050404318 0.021995008
0.014720949 -0.048763145 0.021848202
0.015966494 -0.049777891 0.022356153
0.01663975 -0.048994821 0.022239178
0.017500855 -0.048818175 0.022182107
0.018586492 -0.049254205 0.022266477
0.019770216 -0.049896259 0.021706641
0.020429086 -0.049215525 0.021266192
0.02149043 -0.049521424 0.02071473
0.022098854 -0.048801638 0.020142317
0.023376519 -0.049558222 0.019680202
0.024911741 -0.050781626 0.018769979
0.025772046 -0.050589573 0.018059134
0.026247071 -0.049681954 0.016877919
0.027096804 -0.049521748 0.016815484
0.028160959 -0.049751028 0.016097218
0.028920857 -0.049445335 0.014811367
0.029822681 -0.049393818 0.013017774
0.030429753 -0.048872028 0.011315763
0.031723183 -0.049450845 0.0088177323
0.032623738 -0.049401663 0.006832093
-0.012628144 -0.059696678 0.0051979125
-0.010567554 -0.054951284 0.0074292123
-0.0094181364 -0.0544159 0.0095691383
-0.0078417333 -0.05097127 0.010338426
-0.0064689652 -0.048055172 0.013008267
-0.005613063 -0.048646547 0.013617843
-0.0045908685 -0.04774503 0.015721887
-0.0036335494 -0.047236145 0.017864555
-0.0028301715 -0.049056306 0.018696636
-0.0018857134 -0.049028549 0.020118862
-0.00092512969 -0.048106745 0.02032584
0 -0.049121071 0.020990133
0.00092970073 -0.048344437 0.021440148
0.0018635286 -0.048451744 0.021862805
0.002779342 -0.048175264 0.021577805
0.00372838 -0.04846894 0.021912396
0.004719764 -0.049085543 0.021868706
0.0056119659 -0.048637036 0.021738172
0.0065295384 -0.048505142 0.021834075
0.0075585037 -0.049130272 0.022055298
0.0084672188 -0.048921712 0.0220505
0.0092740282 -0.048224948 0.022129953
0.010478886 -0.049536552 0.022069931
0.011174093 -0.04842107 0.022069931
0.012019591 -0.048078366 0.022132516
0.013013011 -0.04833404 0.022227794
0.014176953 -0.049146771 0.022104532
0.015101135 -0.049078688 0.022142947
0.016022604 -0.049010318 0.02272284
0.016603785 -0.047966488 0.022589713
0.017989194 -0.049233582 0.022324532
0.018569676 -0.048281159 0.022359967
0.019738521 -0.048876338 0.021976948
0.020454774 -0.048347648 0.021266192
0.021507496 -0.048625641 0.020886421
0.022656882 -0.049089912 0.020454288
0.02381479 -0.049534764 0.019850641
0.024143577 -0.048287153 0.019162029
0.025072971 -0.048288684 0.018559158
0.027345445 -0.050784398 0.017194182
0.026878549 -0.048196018 0.016780257
0.027690902 -0.047997564 0.015841514
0.029081335 -0.048781596 0.013916612
0.029648079 -0.048178129 0.012295187
0.032011651 -0.050442599 0.010690838
0.032989297 -0.050454222 0.0075086951
0.032428633 -0.048179686 0.0064302385
-0.011723953 -0.049826801 0.0057154596
-0.010157261 -0.047092754 0.0086781681
-0.0091869505 -0.046853445 0.012906492
-0.0084360186 -0.047804102 0.013396174
-0.007333322 -0.046749927 0.015114486
-0.0065295808 -0.047572661 0.01682362
-0.005589697 -0.047512423 0.018147975
-0.0046417853 -0.047346212 0.018861115
-0.0037610729 -0.04795368 0.020186096
-0.0027910615 -0.047448047 0.020512283
-0.0018784127 -0.047899522 0.021325618
-0.00092995039 -0.047427472 0.021257758
0 -0.04729395 0.021601081
0.00093811809 -0.047844023 0.021829724
0.0018585424 -0.047392834 0.022079259
0.0027905127 -0.047438718 0.021866441
0.0037822835 -0.048224114 0.022193581
0.0046899337 -0.047837324 0.022053152
0.0056288242 -0.047845006 0.021890849
0.0066178874 -0.048216037 0.021919638
0.0075731836 -0.048279043 0.021985412
0.0083192019 -0.047142144 0.021840185
0.0093709696 -0.047791943 0.022115588
0.010193453 -0.047260556 0.022414148
0.011377411 -0.048353996 0.022306353
0.012227948 -0.047971178 0.022172838
0.01318536 -0.048032384 0.022442728
0.013903877 -0.047273181 0.022146672
0.014813778 -0.047218915 0.022550941
0.015564094 -0.046692282 0.022699773
0.017094903 -0.048435558 0.022598386
0.017624935 -0.047309034 0.022556454
0.018404206 -0.046930723 0.022569507
0.019788509 -0.048057806 0.022154719
0.020774907 -0.048160009 0.021532416
0.021007981 -0.046582915 0.021324039
0.023419289 -0.049765989 0.020601571
0.023395218 -0.047726244 0.020328492
0.023909671 -0.04689974 0.019434005
0.025102677 -0.047416169 0.018440664
0.026630646 -0.048505817 0.016766131
0.026642464 -0.046853986 0.015780061
0.02867208 -0.048742536 0.014613867
0.029337736 -0.048265308 0.013030708
0.031061737 -0.049504645 0.011507452
0.0311359 -0.04811912 0.0091670156
0.03183528 -0.047752921 0.0067790449
0.033223655 -0.048411611 0.0050137043
-0.012048168 -0.04633911 0.0055310726
-0.011014774 -0.045894895 0.0097598732
-0.010231656 -0.046507526 0.013109177
-0.0093228333 -0.046614166 0.01741308
-0.0084140841 -0.046744909 0.018088341
-0.0076463264 -0.04778954 0.018298984
-0.006554327 -0.046816621 0.019025922
-0.0056057884 -0.046714906 0.019938886
-0.0047685644 -0.047685646 0.020303786
-0.003764489 -0.047056112 0.020725876
-0.0028720708 -0.047867846 0.020864904
-0.0018886545 -0.047216363 0.021716863
-0.00093513174 -0.046756588 0.021679729
0 -0.047021896 0.021837443
0.00093787472 -0.046893734 0.02159071
0.0018650036 -0.046625093 0.021979153
0.002812274 -0.046871234 0.02215752
0.0037620508 -0.047025636 0.022145092
0.0046582418 -0.046582416 0.022011578
0.005600669 -0.04667224 0.021900803
0.0065841912 -0.047029939 0.021873116
0.0074571543 -0.046607215 0.021955162
0.0085012903 -0.047229391 0.021908522
0.0093094269 -0.046547133 0.022062212
0.01034292 -0.047013272 0.022227794
0.011259709 -0.046915457 0.022084117
0.012168556 -0.046802137 0.02185756
0.013065968 -0.046664171 0.021934599
0.014052807 -0.046842691 0.021750033
0.014640307 -0.045750957 0.021753013
0.016079672 -0.047293153 0.022415549
0.016870223 -0.046861727 0.022442728
0.01759601 -0.046305291 0.022569507
0.018826704 -0.047066759 0.022549331
0.019651745 -0.046789866 0.022241712
0.020566037 -0.04674099 0.021805078
0.021611219 -0.046980914 0.021440804
0.023302533 -0.048546944 0.021208078
0.023244651 -0.046489302 0.020572424
0.024420487 -0.046962474 0.019242257
0.025606798 -0.047419995 0.017820239
0.026613655 -0.047524381 0.015614152
0.027458763 -0.047342695 0.014219612
0.028035697 -0.04672616 0.013173997
0.029582687 -0.04771401 0.011625975
0.030845989 -0.048196856 0.0092268586
0.030600656 -0.046364632 0.0071492493
0.032382537 -0.047621377 0.0063850284
-0.012914071 -0.045199245 0.0050269365
-0.01199027 -0.045194093 0.0075147748
-0.011239173 -0.045893289 0.013081163
-0.010215504 -0.045505431 0.017708957
-0.0093185119 -0.045660704 0.018679619
-0.0084705297 -0.046117332 0.018947303
-0.0075185453 -0.046051089 0.020063877
-0.0065589822 -0.045912877 0.020213842
-0.0057019396 -0.046565838 0.020602942
-0.0047164257 -0.046220973 0.020961612
-0.0037905588 -0.046434343 0.021303624
-0.0028484673 -0.046524964 0.021403968
-0.0018971791 -0.046480887 0.022277683
-0.0009259822 -0.045373127 0.022060364
0 -0.045901977 0.021972805
0.0009318954 -0.045662872 0.022105306
0.0018777939 -0.046005949 0.022298902
0.0028137208 -0.045957442 0.02217257
0.0037688578 -0.04616851 0.022195727
0.004672233 -0.045787886 0.022062212
0.0056492761 -0.046135757 0.021896124
0.0064915703 -0.045440994 0.021873116
0.0075424369 -0.046197426 0.021896422
0.0083613778 -0.045523059 0.021809936
0.0092545236 -0.045347165 0.021904588
0.010384423 -0.046257883 0.021952838
0.011133882 -0.04546335 0.021904588
0.012068684 -0.045489658 0.021873116
0.013271444 -0.046450056 0.021924436
0.01404633 -0.045884676 0.021902353
0.015076814 -0.046172742 0.021844476
0.015940849 -0.045947149 0.022246361
0.016614717 -0.045228951 0.022264868
0.017789103 -0.045877162 0.022293925
0.018735273 -0.045901418 0.022254407
0.019418957 -0.0453109 0.022113979
0.020742675 -0.046199597 0.021655947
0.021459924 -0.045718968 0.020824045
0.022373622 -0.04567948 0.020572424
0.024120621 -0.047276419 0.02019155
0.024591161 -0.04634488 0.018541038
0.025494998 -0.046268702 0.016027302
0.02669866 -0.046722654 0.014472932
0.027386326 -0.046273448 0.012424529
0.028139474 -0.045961142 0.011842012
0.030062998 -0.047518931 0.0091572404
0.030680576 -0.046979632 0.0076342523
0.031939715 -0.047425635 0.0061990023
-0.012821034 -0.047339201 0.01003024
-0.012061675 -0.0482467 0.01695326
-0.010664506 -0.046536028 0.019030929
-0.0096279941 -0.046214368 0.019779086
-0.0085795885 -0.045757808 0.020189643
-0.0075672176 -0.045403305 0.020824522
-0.0064842347 -0.044463325 0.021038026
-0.005545706 -0.044365648 0.021408796
-0.0046163993 -0.044317432 0.021518886
-0.0037432103 -0.044918526 0.021646142
-0.0027924727 -0.044679563 0.021929115
-0.0018633845 -0.044721227 0.022167474
-0.00093639514 -0.044946969 0.022112876
0 -0.044116054 0.02175796
0.00094066258 -0.045151804 0.021748751
0.0018941096 -0.04545863 0.021866441
0.0028023487 -0.044837579 0.02171874
0.0037627176 -0.045152612 0.021801144
0.0046514506 -0.044653922 0.02175355
0.0056173909 -0.044939127 0.021711826
0.0065345829 -0.044808567 0.021777838
0.0074048438 -0.044429064 0.021863222
0.0084078982 -0.044842128 0.021727949
0.0093671521 -0.044962328 0.02180931
0.010296487 -0.044930127 0.021782905
0.011195896 -0.044783585 0.021873116
0.012168338 -0.044929247 0.021845251
0.013127143 -0.045007348 0.022086352
0.014001384 -0.044804428 0.022242785
0.015065918 -0.045197751 0.021924436
0.015829865 -0.044696085 0.022661895
0.017232778 -0.045954071 0.022679746
0.017867565 -0.045139112 0.022409171
0.018441571 -0.044259772 0.022261471
0.019567011 -0.044724595 0.022131443
0.020530846 -0.044794571 0.021807164
0.021231484 -0.044309184 0.021184593
0.02291519 -0.04583038 0.020183921
0.024342461 -0.046737522 0.019216239
0.024701603 -0.045602959 0.017588764
0.025823161 -0.04590784 0.01456812
0.027088309 -0.046437103 0.012265921
0.027890319 -0.046163287 0.0098230839
0.028808465 -0.046093546 0.0083051622
0.03006647 -0.046554532 0.0067723393
0.03144449 -0.047166731 0.0061348379
-0.012904271 -0.043321479 0.005305171
-0.012059592 -0.043600064 0.014914304
-0.010974845 -0.04298481 0.019069403
-0.010233955 -0.043726895 0.019887894
-0.009284093 -0.043635238 0.020662397
-0.0082404334 -0.043033376 0.020633787
-0.0075978045 -0.044637103 0.021128893
-0.0065984675 -0.044303995 0.021365464
-0.0057646884 -0.045156725 0.021535873
-0.0048065102 -0.045181196 0.021322846
-0.0038499497 -0.045236908 0.021350652
-0.0028732598 -0.045014404 0.021387279
-0.0019333384 -0.04543345 0.022053093
-0.00094162114 -0.044256192 0.021957189
0 -0.043783538 0.021745056
0.00093826797 -0.044098597 0.021733046
0.0018499374 -0.043473531 0.021417737
0.0028070523 -0.043977153 0.021434337
0.0037316808 -0.043847252 0.021492749
0.004658069 -0.043785851 0.021492749
0.0055840043 -0.043741368 0.021565109
0.0065139807 -0.04373673 0.021492749
0.0073603275 -0.043241926 0.021649748
0.0084225545 -0.04398445 0.021695822
0.0093560107 -0.043973252 0.021616817
0.010307025 -0.044039108 0.021727294
0.011243952 -0.04403881 0.021777838
0.011986715 -0.043336585 0.021740794
0.013108138 -0.044005893 0.021791607
0.013903345 -0.043563813 0.021873116
0.014833673 -0.043573912 0.021856606
0.01585442 -0.043832809 0.022217095
0.017011037 -0.044417705 0.022225082
0.017574508 -0.043473784 0.022042304
0.018767588 -0.044103831 0.022099346
0.019606281 -0.043880723 0.021823823
0.020434041 -0.043654542 0.021304339
0.021702845 -0.04434929 0.019613862
0.022051606 -0.043184396 0.018633574
0.024504842 -0.046069104 0.018047571
0.025300669 -0.045735825 0.015188724
0.026208675 -0.045622505 0.012109458
0.027557869 -0.04625785 0.0085965395
0.028796243 -0.046669774 0.0071194172
0.029156344 -0.045678269 0.006418556
-0.013273308 -0.043612298 0.0074144304
-0.012251788 -0.043352481 0.01787886
-0.011303643 -0.043330632 0.019515991
-0.010453592 -0.043715019 0.020165652
-0.0094216056 -0.043339387 0.020603657
-0.0085441321 -0.04367001 0.020852268
-0.0076795518 -0.044157423 0.021287233
-0.006473707 -0.042541504 0.021460414
-0.0056851842 -0.043586414 0.021569192
-0.0046631354 -0.042900845 0.021484822
-0.0037525608 -0.043154448 0.021535873
-0.0028543549 -0.043766774 0.021254987
-0.0018373313 -0.04225862 0.021906078
-0.00091117516 -0.041914057 0.021607995
0 -0.042705078 0.021870524
0.00092641718 -0.04261519 0.021648586
0.0018828133 -0.043304704 0.021357745
0.0028479532 -0.043668617 0.021015614
0.0037532926 -0.043162864 0.0214248
0.0047036763 -0.043273825 0.021264791
0.005629587 -0.043160167 0.021373242
0.0065381411 -0.042964928 0.021296799
0.0076146945 -0.043784492 0.021565765
0.0085062804 -0.043476544 0.021508962
0.0093301814 -0.042918835 0.021492958
0.010176715 -0.042557172 0.02162084
0.011140564 -0.042705495 0.021691471
0.012012552 -0.04250595 0.021666378
0.013430267 -0.044128019 0.021736562
0.01400535 -0.04294974 0.021784514
0.014855718 -0.042710189 0.021731377
0.015868526 -0.042938363 0.021829605
0.016640071 -0.042524625 0.022144347
0.017760357 -0.042998757 0.021829605
0.01874521 -0.04311398 0.022156268
0.019454923 -0.042615544 0.021819264
0.020566119 -0.043001883 0.021070957
0.02141113 -0.04282226 0.018958271
0.022163507 -0.042480052 0.018193245
0.023798453 -0.043789152 0.015723735
0.025349148 -0.044848494 0.011834979
0.026038922 -0.044362608 0.0087710321
0.028166939 -0.046274256 0.0073457062
0.029243561 -0.046386339 0.0059117675
0.029290667 -0.044912357 0.0052286386
-0.013269498 -0.042651959 0.0099157989
-0.012297363 -0.042567797 0.017385751
-0.011331821 -0.042494327 0.019239843
-0.010242096 -0.041899484 0.019895196
-0.0094493581 -0.042522114 0.020354033
-0.0084555531 -0.042277765 0.020861715
-0.0076100784 -0.042806692 0.020967245
-0.0065938407 -0.042388976 0.021130413
-0.0056981826 -0.042736366 0.021268547
-0.0047230422 -0.04250738 0.021108449
-0.0037514707 -0.042204045 0.021191984
-0.0028345159 -0.042517737 0.020959735
-0.0018612948 -0.041879132 0.021169275
-0.00096083648 -0.043237641 0.021173716
0 -0.042373516 0.02156657
0.00095693435 -0.043062046 0.021589994
0.0019072661 -0.042913489 0.021357745
0.0027737906 -0.041606858 0.021353245
0.0037570796 -0.042267147 0.021570534
0.0046782326 -0.042104091 0.021458119
0.0056572147 -0.042429108 0.021615118
0.0065695168 -0.04223261 0.021492302
0.0074393949 -0.041846596 0.021605998
0.0082871336 -0.041435666 0.021499664
0.0093152644 -0.041918691 0.021651447
0.010238074 -0.041883029 0.021696478
0.011382282 -0.042683557 0.021786749
0.012479571 -0.043198515 0.021786749
0.012896706 -0.041453701 0.021829605
0.014090824 -0.042272471 0.02183184
0.01552101 -0.043652844 0.021805793
0.015905313 -0.042102303 0.021843016
0.017152643 -0.042881608 0.02188465
0.018223822 -0.043161687 0.021826118
0.018610664 -0.041873991 0.021913081
0.019609025 -0.042019337 0.021458268
0.020249402 -0.04141923 0.020724773
0.020871459 -0.040835463 0.018561333
0.022462243 -0.042116705 0.01678279
0.023300281 -0.041940503 0.013577402
0.025832497 -0.044710089 0.0090017021
0.026448788 -0.044081315 0.007437557
0.027358968 -0.043969769 0.0062043667
-0.013592339 -0.042718779 0.0064773858
-0.012135302 -0.04107333 0.015359044
-0.011239992 -0.0412133 0.01843217
-0.010534697 -0.042138789 0.019074202
-0.0095764073 -0.042136189 0.019818813
-0.0085463123 -0.041781973 0.020255536
-0.0075751795 -0.041663487 0.020603657
-0.0066281655 -0.041662753 0.020931453
-0.0055231266 -0.040502928 0.020936787
-0.0046527572 -0.040944263 0.020716935
-0.0037886454 -0.041675102 0.02109164
-0.0028247184 -0.041429203 0.02086252
-0.00190671 -0.041947618 0.021026194
-0.00092799944 -0.040831976 0.021201611
0 -0.041387442 0.021588624
0.0009424499 -0.041467793 0.021589994
0.0018376899 -0.040429179 0.021357745
0.0027808193 -0.04078535 0.021353245
0.0037859629 -0.041645594 0.021505207
0.0046237977 -0.040689424 0.021373242
0.0055977488 -0.041050155 0.021565109
0.0067019919 -0.042126805 0.021492302
0.0073952242 -0.040673733 0.021651447
0.0087290015 -0.042675119 0.021777838
0.0092722485 -0.040797893 0.021873116
0.010322168 -0.04128867 0.021775544
0.011337991 -0.04157263 0.02191329
0.012102821 -0.040963393 0.022085398
0.012987496 -0.040817846 0.022085398
0.014151541 -0.041511185 0.022304863
0.014726024 -0.040496565 0.022622108
0.015857087 -0.041041873 0.022679746
0.016481034 -0.040286973 0.022679746
0.017352983 -0.040185858 0.022607774
0.018871823 -0.04151801 0.022609681
0.019649213 -0.041169781 0.021843344
0.020324975 -0.040649951 0.021014631
0.021889884 -0.041876301 0.01804319
0.023307165 -0.042729802 0.015053242
0.024651887 -0.043387324 0.011224777
0.026763406 -0.045291919 0.0076541007
0.025892712 -0.042195532 0.0059490204
-0.012275003 -0.040601932 0.014496326
-0.0112907 -0.040458344 0.017600477
-0.010428996 -0.040767893 0.01845637
-0.0092511177 -0.039779808 0.019240201
-0.0085124848 -0.04067076 0.019799769
-0.0075631528 -0.040651947 0.020363539
-0.0066278842 -0.040714145 0.020739943
-0.005798331 -0.041554704 0.020701647
-0.0047013294 -0.040431432 0.02057448
-0.0037172704 -0.03996066 0.020993948
-0.0028663022 -0.041083664 0.020759583
-0.0018528515 -0.039836306 0.020794272
-0.00093539763 -0.040222097 0.02112934
0 -0.040329721 0.02154398
0.00092265412 -0.039674126 0.021545351
0.0018976058 -0.040798526 0.021319777
0.0028288043 -0.040546194 0.021151841
0.0036911748 -0.039680131 0.021562517
0.0047345576 -0.040717196 0.021373242
0.005660058 -0.040563751 0.021609247
0.0065190624 -0.040045667 0.021568447
0.0076445979 -0.041089714 0.021573097
0.0084279962 -0.040267091 0.021499664
0.0091773625 -0.03946266 0.0216856
0.010330438 -0.04038262 0.021700561
0.011313372 -0.040539585 0.021833837
0.011977913 -0.039619248 0.021873116
0.01338277 -0.041104224 0.021836072
0.013983681 -0.040086553 0.022170037
0.015097746 -0.040575191 0.022346497
0.015820151 -0.040015675 0.022699773
0.01668204 -0.039851539 0.022702813
0.018077768 -0.040912844 0.022656411
0.018586017 -0.039959934 0.022650927
0.019581873 -0.040096216 0.02218464
0.021276394 -0.041585676 0.020920545
0.022371991 -0.041825894 0.017462969
0.022412235 -0.040155254 0.013118386
0.023094533 -0.039722595 0.0089065135
0.025523713 -0.042212296 0.0066072643
-0.012265687 -0.039627604 0.014366925
-0.0113194 -0.0396179 0.017490715
-0.010087219 -0.038514838 0.018389404
-0.0093366001 -0.039213717 0.018991441
-0.0084374538 -0.039374787 0.019799769
-0.0075813155 -0.039801907 0.020212263
-0.0065874453 -0.039524671 0.020597458
-0.0056553907 -0.039587732 0.020418257
-0.0046511027 -0.039069265 0.020310104
-0.0037607404 -0.039487775 0.020484924
-0.0028175074 -0.039445102 0.020455688
-0.0018827576 -0.03953791 0.020685434
-0.00093205849 -0.039146457 0.020935863
0 -0.039599869 0.021129131
0.00093126594 -0.039113168 0.021110803
0.0018969037 -0.03983498 0.020864934
0.0027295232 -0.038213328 0.021120667
0.0037997623 -0.039897505 0.021020979
0.0046550659 -0.039102554 0.021033108
0.0055196756 -0.038637727 0.021392345
0.0065742163 -0.039445296 0.021315187
0.0075637582 -0.039709728 0.021706432
0.008498352 -0.039658979 0.021594554
0.0094780168 -0.039807674 0.021766573
0.010278973 -0.039246988 0.021669865
0.011255771 -0.039395198 0.02185756
0.012091391 -0.039064493 0.022140682
0.013391511 -0.040174533 0.022085398
0.014251695 -0.039904747 0.022237569
0.014999526 -0.039373755 0.022284299
0.015607057 -0.038558614 0.022565991
0.016658178 -0.038869079 0.022261471
0.017905625 -0.039580856 0.022230178
0.018609447 -0.039079838 0.022571295
0.020256057 -0.040512115 0.021705806
0.020836055 -0.039777923 0.020579249
0.021630282 -0.039498776 0.015768111
0.024451816 -0.042790681 0.0099235475
0.023011215 -0.038658842 0.0071692765
0.025634851 -0.041410144 0.0052388012
-0.012383849 -0.039056756 0.012652844
-0.011301222 -0.038612507 0.016590834
-0.010438643 -0.038907669 0.017597079
-0.0094311694 -0.038667794 0.018639654
-0.0084232679 -0.038372666 0.019122422
-0.0075296899 -0.03858966 0.020000339
-0.0066045774 -0.038683955 0.020457715
-0.0056645889 -0.038708024 0.02045247
-0.0048066215 -0.039414294 0.02033934
-0.00376419 -0.038582947 0.020720065
-0.0028010709 -0.038281303 0.020576984
-0.0018986288 -0.038921893 0.020758003
-0.00093517709 -0.03834226 0.02100268
0 -0.038087379 0.020777136
0.00095767691 -0.039264753 0.020736426
0.001885946 -0.038661893 0.020482183
0.0027743643 -0.037916314 0.02077198
0.0037610193 -0.038550448 0.020758361
0.004643525 -0.038076904 0.020629853
0.0057564075 -0.039335448 0.020961553
0.0066515212 -0.038958911 0.020970106
0.0074472674 -0.038167246 0.021106988
0.0084188795 -0.038352672 0.02100727
0.0093854526 -0.038480356 0.021120727
0.010240182 -0.038167953 0.021328151
0.01130561 -0.038627502 0.021660507
0.012172315 -0.038389612 0.022192478
0.012869518 -0.037689302 0.022085398
0.014397152 -0.039352216 0.022207201
0.014873913 -0.038114402 0.022200614
0.016090851 -0.038807347 0.021895617
0.017106781 -0.038965445 0.021861702
0.017614169 -0.038009524 0.021814972
0.018671738 -0.038277064 0.021784455
0.021499166 -0.041974563 0.020889133
0.021436317 -0.039949499 0.01731053
0.022082724 -0.039364856 0.013021857
0.024018195 -0.041031081 0.0086574554
0.023096628 -0.037878472 0.0059490204
-0.012638997 -0.038889222 0.0079892874
-0.01151555 -0.038385168 0.014647782
-0.010273067 -0.037356608 0.016483665
-0.009158724 -0.036634896 0.017891556
-0.0086070895 -0.038253732 0.018928796
-0.0076131118 -0.03806556 0.019753367
-0.0065256469 -0.037289411 0.020142734
-0.0057933726 -0.038622484 0.020364851
-0.0047322521 -0.037858017 0.020389438
-0.0037142045 -0.037142046 0.020523429
-0.0028308958 -0.037745278 0.020501554
-0.001883757 -0.037675139 0.020735115
-0.00092975318 -0.037190128 0.020967931
0 -0.038195122 0.021051168
0.00092292397 -0.03691696 0.02082178
0.0019110737 -0.038221475 0.021040678
0.0028072991 -0.037430655 0.020915031
0.0037400569 -0.03740057 0.020951301
0.0047868211 -0.038294569 0.021009743
0.0056342445 -0.037561629 0.021348864
0.0064513898 -0.036865085 0.021386653
0.0076023825 -0.038011912 0.021516621
0.0082499236 -0.03666633 0.021405011
0.0092806369 -0.037122548 0.021375239
0.010283125 -0.037393183 0.021307915
0.011152787 -0.037175957 0.021566957
0.012257917 -0.037716668 0.021998852
0.013262855 -0.037893869 0.021413267
0.013877137 -0.037005696 0.021594554
0.015210276 -0.038025688 0.021241277
0.015848558 -0.037290726 0.020832628
0.016730752 -0.037179448 0.02033776
0.017819054 -0.0375138 0.019893467
0.018554868 -0.037109736 0.019028038
0.019859904 -0.03782839 0.017151207
0.02480909 -0.045107435 0.014837414
0.02516447 -0.043764297 0.0088418424
0.024684386 -0.041140646 0.0066056252
-0.013121446 -0.039364338 0.005921185
-0.011446766 -0.037201989 0.013337582
-0.010256944 -0.036365528 0.014962882
-0.0096335448 -0.037570823 0.016879767
-0.0084430194 -0.036586419 0.018518001
-0.0076130875 -0.037113804 0.019096851
-0.0066745668 -0.037186872 0.01955992
-0.0056345924 -0.036624849 0.020106465
-0.0046264529 -0.036086332 0.020018756
-0.0037727263 -0.036784083 0.020369768
-0.002835643 -0.036863361 0.020501554
-0.0018594831 -0.036259919 0.020939946
-0.00094389648 -0.036811963 0.021113873
0 -0.035960741 0.021139234
0.0009534086 -0.037182935 0.021091759
0.0019019215 -0.03708747 0.021168858
0.0028124121 -0.036561359 0.020726591
0.0037180947 -0.036251426 0.021037728
0.0046288921 -0.036105357 0.021228015
0.0055072899 -0.035797384 0.021563828
0.0066335974 -0.036958616 0.021480471
0.0075818747 -0.036961637 0.021520823
0.0085061127 -0.036859822 0.021325737
0.0094671343 -0.036921822 0.021224916
0.010285775 -0.036467746 0.021330535
0.011200292 -0.036400951 0.021495283
0.012226189 -0.036678568 0.021597087
0.013064032 -0.036392663 0.021496177
0.013968491 -0.036318079 0.021139175
0.015158562 -0.036948994 0.020940065
0.015737696 -0.036104124 0.019996256
0.016682455 -0.036145322 0.018673599
0.017639628 -0.036207657 0.017663389
0.018534105 -0.036141504 0.017141432
0.019235827 -0.035723679 0.015225172
0.020959478 -0.037155438 0.0092619359
0.021437267 -0.03635015 0.0070588291
0.022057824 -0.035843965 0.0055100918
-0.011313549 -0.03582624 0.0097954273
-0.010321883 -0.035657413 0.013903588
-0.0095322682 -0.036222618 0.01637432
-0.0083600963 -0.035298184 0.017680556
-0.0076725152 -0.036444448 0.019118607
-0.0066348156 -0.036017571 0.019436657
-0.0056788023 -0.035965748 0.020169109
-0.0046965256 -0.035693597 0.020099699
-0.0038290287 -0.036375772 0.020106524
-0.0027935449 -0.035384901 0.020453185
-0.0019027572 -0.036152385 0.02089116
-0.00095504598 -0.036291748 0.021134108
0 -0.036222354 0.021139234
0.00094144861 -0.035775047 0.02112934
0.0018692215 -0.035515208 0.021181673
0.0028134831 -0.035637453 0.021030396
0.0037383027 -0.035513878 0.021037728
0.0046123867 -0.03505414 0.021035612
0.0057534268 -0.036438368 0.021460891
0.0065635471 -0.035630684 0.021407157
0.0073837964 -0.035073031 0.02150017
0.0085362075 -0.036041766 0.021141052
0.009346962 -0.035518456 0.020970732
0.010294394 -0.035562452 0.020967782
0.011246995 -0.035615485 0.020970732
0.012198346 -0.035656702 0.021204889
0.013152635 -0.035700008 0.020832062
0.014551481 -0.036863752 0.020424247
0.014632019 -0.034751046 0.019992024
0.015937425 -0.035624836 0.01778838
0.016892815 -0.03566261 0.017049879
0.017401079 -0.034802157 0.015725106
0.019133175 -0.036353033 0.015088141
0.01949011 -0.035267819 0.0094214976
0.020384669 -0.035209883 0.0075183213
0.021155646 -0.034952804 0.0060301721
-0.011691484 -0.036048744 0.0058760047
-0.010371336 -0.034885403 0.011279315
-0.0091926008 -0.034012623 0.01526469
-0.0085475966 -0.035140119 0.016853482
-0.007672396 -0.035484832 0.018646061
-0.0065600304 -0.034674447 0.019184679
-0.0057460214 -0.035433799 0.020237952
-0.0047315094 -0.035013169 0.020217359
-0.0037567795 -0.034750212 0.020222247
-0.0028516687 -0.035170581 0.020333588
-0.0018862648 -0.034895897 0.020884097
-0.00093186111 -0.034478862 0.021016449
0 -0.034578234 0.021111339
0.00094399485 -0.034927808 0.021101445
0.001881387 -0.034805659 0.021034926
0.0028763625 -0.035475139 0.020749241
0.0036684938 -0.033933569 0.020726591
0.0047373013 -0.035056029 0.020658106
0.0056863953 -0.035066105 0.021141052
0.0065856362 -0.034809791 0.021276802
0.0076148482 -0.035218671 0.021358818
0.008615626 -0.035419796 0.021079153
0.0093108537 -0.034450158 0.020833433
0.010280824 -0.034580953 0.020670474
0.011183922 -0.034483761 0.020581871
0.012299563 -0.035006449 0.02052331
0.013124278 -0.034685593 0.020100802
0.013975455 -0.03447279 0.020024598
0.015132839 -0.034994692 0.019028038
0.015797367 -0.034382503 0.017088443
0.01676427 -0.034459889 0.01572749
0.017996766 -0.035046332 0.011994749
0.019006209 -0.035161488 0.0098802745
0.019993611 -0.035226837 0.0075227022
0.021833584 -0.036720119 0.0061471164
-0.010480392 -0.034299463 0.010364085
-0.0095885973 -0.03451895 0.014462441
-0.0085177841 -0.034071136 0.016308755
-0.0076244352 -0.034309957 0.017680556
-0.0066913236 -0.034412522 0.019147545
-0.0055992119 -0.033595271 0.019619673
-0.0046164817 -0.033238668 0.019864887
-0.0037893772 -0.034104396 0.019913018
-0.0028099024 -0.033718828 0.020106524
-0.0018942717 -0.034096893 0.020563185
-0.00093903544 -0.033805277 0.02090615
0 -0.033858065 0.020950645
0.00093586481 -0.033691134 0.020860165
0.001883053 -0.033894952 0.020861417
0.0028146582 -0.033775896 0.020615071
0.0037835243 -0.034051716 0.020628005
0.0047201267 -0.033984914 0.020598114
0.0057067554 -0.034240533 0.020816296
0.0066132299 -0.034010895 0.021101713
0.0073001259 -0.032850567 0.02102071
0.0082593877 -0.033037551 0.020912081
0.0094837574 -0.034141526 0.020787627
0.010338928 -0.033836491 0.020666003
0.011282409 -0.033847224 0.020520836
0.012220862 -0.033842389 0.020404071
0.013031857 -0.033510488 0.020056367
0.01393128 -0.033435073 0.019194365
0.014859569 -0.03343403 0.017470717
0.015838446 -0.033540238 0.015555739
0.017486431 -0.034972861 0.011876613
0.018561073 -0.03516835 0.0092212856
0.019250602 -0.034651082 0.0074304044
0.020315398 -0.034826398 0.0058946013
0.021278607 -0.03481954 0.0051142573
-0.010512278 -0.03344816 0.0073214173
-0.0093719494 -0.032801822 0.012162358
-0.0087106517 -0.033874754 0.015142798
-0.0077266316 -0.033804014 0.016703695
-0.0067862961 -0.033931483 0.017627299
-0.0056985482 -0.033241529 0.018957883
-0.0047721202 -0.033404838 0.018902123
-0.0037434229 -0.03275495 0.018954456
-0.0028045191 -0.032719389 0.019389451
-0.0019134852 -0.03348599 0.019984871
-0.00094102102 -0.032935735 0.020466
0 -0.033763826 0.020683259
0.00093346072 -0.032671124 0.020586342
0.0018744642 -0.032803126 0.02066943
0.0028107378 -0.032791942 0.020450801
0.0037517145 -0.0328275 0.020443559
0.0046501881 -0.032551318 0.020471245
0.0055979574 -0.032654751 0.020589411
0.0064956923 -0.032478463 0.020787627
0.0075218109 -0.032907922 0.020696491
0.0084714629 -0.032944579 0.020722121
0.009298807 -0.032545827 0.020596474
0.010114716 -0.032183189 0.02045235
0.011193601 -0.032648005 0.020393789
0.012363117 -0.033285316 0.020000756
0.013211489 -0.033028722 0.019608021
0.014764383 -0.034450229 0.017667592
0.01564773 -0.034229409 0.016942382
0.01704962 -0.035102159 0.014729053
0.017393844 -0.033821367 0.010722131
0.018554766 -0.034179833 0.0074920058
0.019482678 -0.034094688 0.0061315298
-0.0093112867 -0.031658374 0.0075867772
-0.0086445222 -0.032657083 0.013163298
-0.0077346568 -0.032872293 0.015206099
-0.0066644489 -0.03237018 0.016620725
-0.0058666067 -0.033244107 0.017319709
-0.0047558011 -0.032339446 0.017530024
-0.0037857261 -0.032178674 0.018314064
-0.0028110072 -0.031858083 0.018859565
-0.0018897637 -0.032125983 0.019073725
-0.00093641604 -0.031838145 0.019582748
0 -0.032169919 0.01993075
0.00093038019 -0.031632926 0.019866198
0.0018817161 -0.031989172 0.020313025
0.002796558 -0.031694323 0.020209283
0.0037328079 -0.031728867 0.020341307
0.0047052004 -0.031995364 0.020346671
0.0056423889 -0.031973537 0.020406216
0.0065803863 -0.031961877 0.020559311
0.007479127 -0.031786289 0.020533293
0.0083795581 -0.031656109 0.020601988
0.0093606561 -0.031826232 0.020485908
0.01061717 -0.032816708 0.020287722
0.01167441 -0.033077493 0.020148814
0.01264946 -0.033083204 0.019711196
0.013694709 -0.03325858 0.018249005
0.01404282 -0.031830393 0.016931176
0.015593582 -0.03313636 0.014583915
0.017529523 -0.035059046 0.01178813
0.017370226 -0.032810424 0.0090505779
0.018702239 -0.033467162 0.0068480074
0.01946496 -0.033090431 0.005305618
-0.0097709093 -0.035826668 0.0072690248
-0.0087905545 -0.036261037 0.013166875
-0.007731779 -0.036449816 0.015085042
-0.0062946696 -0.034620684 0.016184479
-0.0046507535 -0.030694973 0.016158462
-0.00392213 -0.032357574 0.016618907
-0.0028511297 -0.031362426 0.016959131
-0.0018785913 -0.030996757 0.018201113
-0.00093765836 -0.030942725 0.018371731
0 -0.030480089 0.019528657
0.00094040181 -0.031033261 0.01944682
0.0018823711 -0.031059124 0.019822627
0.0028317431 -0.031149173 0.020037293
0.0037665521 -0.031074055 0.020260006
0.0046797101 -0.030886088 0.020235866
0.0055891252 -0.030740188 0.020332336
0.0064222408 -0.030276278 0.020487636
0.0074178684 -0.030598707 0.020383656
0.0084636966 -0.031033553 0.02045235
0.0097271791 -0.03209969 0.020393789
0.010348589 -0.031045767 0.020029932
0.011458213 -0.031510085 0.019999206
0.012361398 -0.031378932 0.019481927
0.013440811 -0.03168191 0.017277122
0.014449828 -0.031789623 0.015105665
0.015636809 -0.032250922 0.012998223
0.01687438 -0.03275615 0.010101974
0.01747367 -0.03203506 0.0071605742
0.018435357 -0.032019302 0.0056482852
-0.0087769777 -0.035107911 0.0062023997
-0.007573972 -0.034623872 0.010635048
-0.0055171787 -0.029424952 0.013902485
-0.0047148475 -0.030175025 0.013759017
-0.0037027325 -0.02962186 0.014241457
-0.0028047259 -0.029917076 0.015479982
-0.0019072776 -0.030516442 0.015929341
-0.00093505398 -0.029921727 0.016956896
0 -0.030042771 0.018197298
0.00094078452 -0.030105105 0.018484354
0.0018548496 -0.029677594 0.019088894
0.0029086047 -0.031025117 0.019336402
0.0037983183 -0.030386547 0.020002604
0.0047212481 -0.030215986 0.020041317
0.0057966034 -0.030915219 0.020177692
0.0067807762 -0.030997833 0.020126849
0.0075442996 -0.030177198 0.019987255
0.0085477745 -0.030392086 0.02015534
0.0092751263 -0.029680403 0.020130813
0.010193255 -0.029653104 0.019808143
0.011428428 -0.030475808 0.019690812
0.012094672 -0.029771501 0.018475026
0.012965933 -0.029636418 0.016158998
0.014612723 -0.031173809 0.014268577
0.015282287 -0.030564575 0.011211485
0.016796969 -0.031617824 0.0091308951
0.017550685 -0.031201215 0.0064736605
-0.005631356 -0.029095339 0.0073279142
-0.0046219449 -0.028656058 0.0086183548
-0.0037732467 -0.029242663 0.010109514
-0.0028804706 -0.029764863 0.011269033
-0.0018688939 -0.028967854 0.013088852
-0.00095890061 -0.02972592 0.015047342
0 -0.030825855 0.016368747
0.00096932473 -0.030049067 0.016921401
0.0019494821 -0.030216973 0.01783675
0.0028455413 -0.029403929 0.018736333
0.0037964105 -0.029422181 0.019313067
0.0047048442 -0.029170034 0.0197272
0.0056507392 -0.029195486 0.019760311
0.0065751951 -0.02911872 0.019760311
0.0076999268 -0.029837215 0.019711196
0.0084540751 -0.02911959 0.019833088
0.0093459347 -0.028972397 0.019956201
0.010627074 -0.029949028 0.019733131
0.011253797 -0.029072311 0.019022048
0.012277789 -0.029277805 0.017717868
0.013514526 -0.029925022 0.014831066
0.014054554 -0.029046077 0.012589812
0.015369189 -0.029777804 0.010048985
0.016553799 -0.030186338 0.0082152486
0.017859971 -0.030758841 0.005990833
-0.0039293072 -0.029469807 0.0059445202
-0.0029466792 -0.029466793 0.0071552098
-0.0019916699 -0.029875048 0.0088163316
-0.00099048007 -0.029714402 0.011744469
0 -0.029259151 0.013938129
0.00097524101 -0.02925723 0.015564471
0.0019240088 -0.028860133 0.016451448
0.0028620132 -0.028620131 0.017122537
0.0038454353 -0.028840765 0.018710524
0.0047633834 -0.028580301 0.019063056
0.0055545908 -0.027772954 0.019648373
0.0065513407 -0.028077174 0.019684136
0.0076828925 -0.028810848 0.019544542
0.0083932411 -0.027977472 0.01966992
0.0094136298 -0.028240891 0.019558579
0.010277234 -0.02802882 0.019099921
0.011158811 -0.027897028 0.018396318
0.01238636 -0.028583908 0.016910166
0.013384089 -0.02868019 0.014591247
0.014114026 -0.028228052 0.012540221
0.015188964 -0.028479308 0.0096956789
0.016080707 -0.028377717 0.0076848269
0.017970715 -0.029951192 0.0053826571
-0.0020623654 -0.029904297 0.0063277185
-0.00097724947 -0.028340233 0.0085377395
0 -0.028886518 0.010174185
0.00096597325 -0.028013226 0.012381077
0.0018681728 -0.027088506 0.014678985
0.0029000414 -0.028033733 0.015915275
0.0038778523 -0.028114429 0.016788065
0.0047161416 -0.02735362 0.018488586
0.0056990338 -0.027545329 0.018798441
0.0065585896 -0.027171301 0.018928319
0.0075410069 -0.027336149 0.018690854
0.0086510042 -0.027875459 0.019170225
0.0093398932 -0.027085692 0.018974543
0.01024305 -0.027004402 0.018646747
0.011441017 -0.027649123 0.018261909
0.01217251 -0.027154062 0.016845167
0.013012238 -0.026953923 0.014755368
0.014389936 -0.027820544 0.013428599
0.015016466 -0.027217345 0.010637254
0.016380914 -0.027943913 0.0086325705
0.018233685 -0.029376494 0.0062040389
-0.00099070976 -0.027739871 0.0063843131
0 -0.027299671 0.0084640682
0.00095206872 -0.026657924 0.0097439289
0.0019041195 -0.026657674 0.011903107
0.002827246 -0.026387628 0.013871998
0.0037103402 -0.025972381 0.015262276
0.0047362186 -0.026522825 0.016414374
0.0057348236 -0.026762512 0.017979711
0.0065431888 -0.026172755 0.018138438
0.0074488181 -0.026070863 0.018374026
0.0084047019 -0.026147962 0.018491566
0.0095128706 -0.026636038 0.018635511
0.010405837 -0.026487585 0.018498778
0.011249391 -0.02624858 0.018160254
0.011980787 -0.025804773 0.017295033
0.013452178 -0.026904356 0.015768677
0.014074632 -0.026272647 0.01394096
0.015299912 -0.026774844 0.011977166
0.016276224 -0.026807897 0.009552151
0.016943531 -0.026356604 0.0065622628
0 -0.026227187 0.0059175491
0.00098673196 -0.026641764 0.008022964
0.0019402927 -0.02619395 0.0096507967
0.0028789479 -0.02591053 0.011799276
0.003803655 -0.025674671 0.013387084
0.0048498046 -0.026188944 0.01529339
0.0056612524 -0.025475636 0.016489357
0.0067201182 -0.025920456 0.017861724
0.0074428753 -0.025119703 0.018079162
0.0083557917 -0.025067374 0.018313468
0.0093378844 -0.02521229 0.01847735
0.010390284 -0.025503423 0.018407583
0.011304071 -0.025434161 0.018285215
0.012515141 -0.025992984 0.017834067
0.012988121 -0.025048519 0.016467005
0.013989493 -0.025181089 0.015052825
0.015390304 -0.025971137 0.013127655
0.016199391 -0.025728446 0.010228455
0.017264398 -0.025896598 0.0081909299
0.00096690492 -0.025139527 0.007157743
0.0019114886 -0.024849351 0.0090214014
0.0028821786 -0.024978882 0.010891825
0.0038635386 -0.025113001 0.011473775
0.0045971307 -0.023905082 0.014535218
0.0056980653 -0.024691617 0.016457617
0.0067477017 -0.025062891 0.017602146
0.0074188528 -0.024111271 0.017896175
0.008686265 -0.025093654 0.018160254
0.009168352 -0.023837715 0.018390119
0.01020983 -0.024132326 0.018632382
0.011550174 -0.025025377 0.018492788
0.012130866 -0.024261732 0.018031001
0.012921376 -0.023996841 0.016734093
0.014173741 -0.02456782 0.015568614
0.01504413 -0.024446713 0.013514638
0.016340863 -0.024991907 0.010573417
0.017627841 -0.025462436 0.0082350075
0.0019560398 -0.024450496 0.0076715946
0.002930175 -0.024418127 0.010203004
0.003752297 -0.023451857 0.011236936
0.0047213128 -0.023606563 0.014424175
0.0056635537 -0.02359814 0.015989006
0.0065419618 -0.023364149 0.016976655
0.0076823328 -0.024007291 0.017670751
0.0083833896 -0.023287194 0.017967373
0.0094629545 -0.023657387 0.018312216
0.010301367 -0.023412198 0.018565357
0.011292594 -0.02352624 0.018199921
0.012262776 -0.023582263 0.018020183
0.013705394 -0.024473919 0.016558886
0.014028152 -0.023380253 0.015397906
0.015008676 -0.023451056 0.013763696
0.016168622 -0.023777386 0.011333853
0.017125523 -0.023785448 0.008888185
0.0018960212 -0.022752253 0.0073491335
0.0028869393 -0.023095515 0.0088636279
0.0038818237 -0.023290943 0.010605514
0.004887783 -0.023461359 0.013660878
0.0055178939 -0.022071576 0.01541391
0.0065686195 -0.022520982 0.016569406
0.0074813031 -0.022443909 0.017393231
0.0084829004 -0.022621069 0.017522097
0.0094918851 -0.022780523 0.018021584
0.010359998 -0.022603631 0.01818946
0.011097844 -0.022195688 0.017798156
0.012377169 -0.02285016 0.017447025
0.013195155 -0.022620266 0.015842021
0.014214929 -0.022743886 0.014866024
0.015264376 -0.022896564 0.013299376
0.015876276 -0.022413567 0.010262638
0.017094288 -0.022792384 0.00796175
0.0019114214 -0.021981345 0.0069122016
0.002861239 -0.021936165 0.0085542798
0.0038650981 -0.022224315 0.010272086
0.0048108301 -0.022129819 0.013251424
0.0057717022 -0.022124859 0.014594764
0.0065291431 -0.0214529 0.015870541
0.0074547073 -0.021432284 0.016337305
0.0084513314 -0.021597847 0.0171085
0.0094440142 -0.021721233 0.017316997
0.010419889 -0.021787042 0.017397672
0.011631589 -0.022293879 0.017050266
0.011981705 -0.021198401 0.016544491
0.012941498 -0.021261033 0.01546222
0.0142226 -0.021807987 0.014264733
0.014968675 -0.02151747 0.012826294
0.016578251 -0.022429399 0.0092729032
0.017038854 -0.021771869 0.0066854954
0.0019850396 -0.021835435 0.0056604743
0.0029014943 -0.021277625 0.0077531338
0.003764539 -0.020704964 0.0093506277
0.0047603594 -0.020945583 0.010936201
0.0058211377 -0.021344172 0.013277084
0.0066750897 -0.020978853 0.014964849
0.0075045647 -0.020637553 0.015237361
0.0083769653 -0.020477027 0.016117007
0.0092627341 -0.020378016 0.016554862
0.010411385 -0.020822771 0.016669244
0.011317606 -0.020748945 0.016025931
0.012037384 -0.020370958 0.015436053
0.013077302 -0.020550046 0.01431185
0.014314182 -0.020994134 0.012987792
0.015156942 -0.020840796 0.010100961
0.016183296 -0.02094309 0.007782191
0.016909938 -0.020667702 0.0054309964
0.0028730216 -0.020111151 0.0066322982
0.0037865173 -0.019879216 0.00820297
0.0047174837 -0.019813431 0.0096773505
0.0055975718 -0.019591503 0.011256397
0.0067412457 -0.020223737 0.012881696
0.0075329281 -0.019773936 0.01441133
0.0083946316 -0.019587474 0.014833093
0.0094345883 -0.019812636 0.015208721
0.010213956 -0.019499371 0.015120536
0.011352099 -0.019866172 0.014781743
0.012342258 -0.019937495 0.014268398
0.013129483 -0.019694224 0.013076037
0.013721845 -0.019210583 0.01178959
0.014897157 -0.01955252 0.0078075528
0.015850397 -0.019579902 0.0062800944
0.0038669275 -0.019334638 0.0067366064
0.0046974239 -0.018789696 0.0083080232
0.0056476761 -0.018825587 0.0097368658
0.0065741967 -0.018783418 0.012551606
0.0076036169 -0.019009043 0.013474733
0.0085092308 -0.018909402 0.014124185
0.0094894534 -0.018978907 0.014553607
0.010442402 -0.018986186 0.014598131
0.011221427 -0.018702378 0.013754576
0.012273501 -0.018882308 0.013413996
0.013143227 -0.018776037 0.012137353
0.014057935 -0.018743914 0.008132726
0.014815513 -0.01851939 0.006118685
0.0037928796 -0.018016178 0.0051077008
0.004841126 -0.018396279 0.0069895983
0.005772986 -0.018281123 0.0077596307
0.0064442246 -0.017491467 0.0095615685
0.007714177 -0.01832117 0.0095352829
0.0086736064 -0.018310947 0.012407243
0.0095205028 -0.018088955 0.012570828
0.010233507 -0.017676057 0.012426287
0.011254322 -0.017819343 0.012305498
0.01203379 -0.017587846 0.012057424
0.013600757 -0.018458171 0.0079996288
0.014390203 -0.01822759 0.0057644248
0.0056867423 -0.017060226 0.0064529479
0.0066777281 -0.017171301 0.0072387457
0.0076181842 -0.017140914 0.0077725649
0.0084626321 -0.016925264 0.0082266033
0.0095758326 -0.017236499 0.0085092485
0.010374064 -0.01697574 0.008433938
0.011385725 -0.017078588 0.0075414181
0.012679274 -0.017555919 0.0060061514
0.0076210122 -0.016194651 0.0056631267
0.0086356271 -0.016311741 0.0053789318
0.0095428461 -0.016222838 0.0054173172
0.010659772 -0.016474193 0.005296886
0 0 0 1 0 0 0 1 0 0 0 1 0 0 0 0 0 1299 1 0 0
