ply
format ascii 1.0
comment PCL generated
element vertex 1298
property float x
property float y
property float z
element camera 1
property float view_px
property float view_py
property float view_pz
property float x_axisx
property float x_axisy
property float x_axisz
property float y_axisx
property float y_axisy
property float y_axisz
property float z_axisx
property float z_axisy
property float z_axisz
property float focal
property float scalex
property float scaley
property float centerx
property float centery
property int viewportx
property int viewporty
property float k1
property float k2
end_header
0.025081281 -0.07419879 0.0051223636
0.019900074 -0.066333577 0.0060875714
0.021122742 -0.067208722 0.006499052
0.02199881 -0.066952899 0.0068873465
0.022296419 -0.065031223 0.0079412758
0.025356581 -0.07099843 0.0076397359
0.028188827 -0.075892992 0.0059125125
0.018690109 -0.06787461 0.0053624213
0.019207362 -0.066265397 0.0067465305
0.019926671 -0.065473348 0.0085549355
0.02107851 -0.066109873 0.0094130039
0.021695605 -0.065086812 0.0098784864
0.023138253 -0.066522479 0.0096957088
0.023412801 -0.064619333 0.0094814301
0.025421601 -0.067465015 0.0086300075
0.031198585 -0.079729721 0.007738322
0.017584706 -0.066431113 0.0054509342
0.017880708 -0.06399411 0.0065696537
0.019384507 -0.065907322 0.0090576708
0.020587133 -0.066663094 0.010897517
0.020372724 -0.062970236 0.012256265
0.021813968 -0.06449347 0.012470931
0.022393322 -0.063447744 0.012374848
0.02325302 -0.063248217 0.012008548
0.02414776 -0.063155681 0.010510117
0.026276784 -0.066178568 0.0085181594
0.030352853 -0.07371407 0.0067971647
0.017297499 -0.068172492 0.0058868825
0.01738642 -0.064716116 0.0074427724
0.018907899 -0.066675223 0.0092482567
0.01915206 -0.064159401 0.012016773
0.019341607 -0.061708935 0.012503773
0.021128597 -0.064346179 0.012861788
0.021386029 -0.062298436 0.013395011
0.023267256 -0.064954422 0.0132761
0.023449767 -0.062845379 0.012518644
0.024238687 -0.062461235 0.012159884
0.024943924 -0.061897885 0.010265946
0.026740208 -0.063985497 0.0079615712
0.032364041 -0.07477209 0.0059249103
0.014371483 -0.063234523 0.005191803
0.015766827 -0.065038167 0.005864501
0.016522139 -0.064144783 0.009613961
0.017778797 -0.065188922 0.011116475
0.017656896 -0.06133448 0.012201905
0.018784504 -0.061988864 0.012838304
0.020130828 -0.063268319 0.013545066
0.020915536 -0.062746607 0.014178574
0.021399325 -0.061406758 0.015571445
0.022686532 -0.062387966 0.015118659
0.023505239 -0.062053829 0.013774574
0.024013754 -0.060957994 0.012880176
0.025565982 -0.062494624 0.011845738
0.02620583 -0.061770886 0.0084561706
0.028034547 -0.063802764 0.0064846873
0.015677391 -0.072787881 0.0054806173
0.015368073 -0.066594988 0.0067496002
0.015556255 -0.063197292 0.0095642209
0.016452404 -0.06290625 0.012496442
0.017671086 -0.063812256 0.012799233
0.017975003 -0.06149343 0.013323098
0.019367332 -0.062943824 0.013666034
0.020151883 -0.062374875 0.015343696
0.020540522 -0.060687907 0.016189635
0.021840099 -0.061722022 0.016288221
0.022404363 -0.060678482 0.015996993
0.023202226 -0.060325786 0.01495412
0.024947558 -0.062368892 0.013576835
0.025330668 -0.060981236 0.011979312
0.026135175 -0.060670942 0.0088491142
0.027382402 -0.061374348 0.0066620708
0.011243754 -0.059966687 0.005485028
0.012021617 -0.059183348 0.0062898695
0.014130707 -0.064597517 0.009752661
0.014737243 -0.062878899 0.01097846
0.015641335 -0.062565342 0.012889326
0.016371172 -0.061632648 0.013611495
0.016897785 -0.060081013 0.014632255
0.018185668 -0.06125699 0.014655918
0.01952347 -0.062475104 0.015282691
0.01915805 -0.058386441 0.016288221
0.020837795 -0.060619041 0.016542345
0.021709248 -0.060408346 0.016576648
0.022336317 -0.059563514 0.015987515
0.02399092 -0.061416756 0.01498425
0.024300717 -0.05981715 0.013741761
0.025931355 -0.061466914 0.01205194
0.026681477 -0.060986236 0.008600533
0.027722815 -0.061181385 0.0067833364
0.01022334 -0.058551859 0.0058144331
0.011284828 -0.059245348 0.0072325468
0.012165748 -0.058957085 0.010542572
0.012896059 -0.058032267 0.013981879
0.014322389 -0.060154032 0.0146842
0.015694229 -0.061796028 0.014798969
0.016200896 -0.060038615 0.015433788
0.016829101 -0.058901854 0.016189635
0.018228762 -0.060442735 0.016347855
0.018759033 -0.059090953 0.016361862
0.01990895 -0.059726845 0.016824991
0.02056269 -0.058884069 0.016788542
0.021372745 -0.05854274 0.016830117
0.022966683 -0.060287543 0.016266853
0.02366633 -0.059639148 0.015009075
0.0242474 -0.058753315 0.013780773
0.025885934 -0.060400512 0.012125432
0.027593352 -0.062085044 0.0085333586
0.027895886 -0.060601406 0.006685853
0.010376695 -0.071483895 0.0054317713
0.0094413217 -0.058536194 0.0075750947
0.010266948 -0.057868253 0.01079309
0.011400332 -0.058901712 0.014638811
0.012132645 -0.057863384 0.015680224
0.012897866 -0.05711912 0.016771585
0.014283326 -0.059037749 0.016829669
0.015765535 -0.061091449 0.016527861
0.01645031 -0.059995249 0.016406327
0.017097492 -0.058891363 0.016547859
0.018059144 -0.058929838 0.016467839
0.019502297 -0.060457122 0.016508728
0.019616792 -0.057916243 0.016655922
0.020961443 -0.059073154 0.016451657
0.021893 -0.059015911 0.0165582
0.022622747 -0.058442097 0.015890568
0.023178956 -0.057483807 0.013875097
0.025342325 -0.060431696 0.012677729
0.025622204 -0.058836173 0.01136145
0.026520725 -0.058724467 0.0082312226
0.02835588 -0.060622916 0.0062206089
0.0088182492 -0.059768129 0.0084764659
0.0091339611 -0.055717163 0.01562506
0.01037947 -0.057558879 0.017148942
0.011233872 -0.057105515 0.0175578
0.012233166 -0.05740178 0.018479019
0.013344316 -0.05814309 0.019353658
0.013836172 -0.056267101 0.019520253
0.015057968 -0.0574085 0.01955086
0.016697623 -0.059914999 0.019008994
0.017361471 -0.058836099 0.01794675
0.017743755 -0.056966789 0.017415076
0.018869985 -0.057553455 0.017241657
0.019758603 -0.057394039 0.017363012
0.021031123 -0.058313567 0.016660541
0.022460798 -0.059569944 0.0165582
0.022811033 -0.057978041 0.015531659
0.02419393 -0.059033185 0.013683885
0.0244989 -0.057478189 0.012434095
0.025643669 -0.057935696 0.0094435513
0.027915535 -0.060815986 0.0069120228
0.028340286 -0.059612326 0.005264312
0.0078763338 -0.067511432 0.0051054358
0.0077945599 -0.0584592 0.0093345046
0.0082730614 -0.055153739 0.017081738
0.0094827553 -0.056896534 0.0178563
0.010269634 -0.056016184 0.018285125
0.011232384 -0.056161918 0.018824965
0.012200703 -0.056310937 0.019785881
0.013111699 -0.056192998 0.020086348
0.014115444 -0.056461778 0.019845724
0.014756123 -0.055335462 0.019970775
0.015904328 -0.056132924 0.019872218
0.017761201 -0.059204005 0.019694746
0.018143609 -0.057295609 0.018731952
0.018261719 -0.054785158 0.017963827
0.020013994 -0.057182841 0.017410457
0.021115407 -0.057587478 0.016655922
0.021739297 -0.056711208 0.016509414
0.023512784 -0.058781963 0.014308751
0.02363478 -0.056723475 0.012787312
0.024693206 -0.056984324 0.012084395
0.026591893 -0.059093095 0.0080555975
0.027505733 -0.058940858 0.0057468116
0.0065885382 -0.064787291 0.0050486326
0.006897266 -0.058134098 0.0093402565
0.0072995797 -0.053834397 0.017249703
0.0086012371 -0.05638589 0.018963695
0.009427282 -0.055620965 0.01940003
0.010340533 -0.05546286 0.020248383
0.011463143 -0.056360453 0.020323932
0.01229794 -0.05581373 0.020744056
0.012924109 -0.054465886 0.020755082
0.014092508 -0.055430532 0.020491779
0.014841655 -0.054728601 0.020390034
0.015884535 -0.055128682 0.02036804
0.016698804 -0.054734968 0.020101666
0.017747015 -0.055109154 0.019778609
0.019787144 -0.058372077 0.018379986
0.019557873 -0.054948308 0.018209368
0.020446325 -0.054833323 0.016691267
0.021453829 -0.055033736 0.016256034
0.022991799 -0.056521505 0.013898581
0.023613328 -0.055727452 0.012101889
0.025301432 -0.057414789 0.0082024336
0.0262686 -0.057401754 0.0064007342
0.028698228 -0.060471267 0.0051860213
0.0055433479 -0.064302832 0.0050363243
0.0061741555 -0.059683502 0.009128511
0.0064180116 -0.053177811 0.016949505
0.0075367214 -0.054641228 0.018686026
0.0084542455 -0.054482918 0.019513667
0.0092225438 -0.053490754 0.020077258
0.010370527 -0.054680962 0.020332515
0.011525839 -0.055708222 0.020515978
0.012061128 -0.053811185 0.020658344
0.013302303 -0.055109542 0.020634055
0.014173569 -0.054804467 0.020450473
0.015154995 -0.054936856 0.020608485
0.015874984 -0.054161709 0.020410627
0.016667865 -0.053707566 0.020734549
0.017376805 -0.053044982 0.020032614
0.019129938 -0.055476818 0.019778609
0.0205693 -0.05681045 0.018901885
0.020273386 -0.053448018 0.017020702
0.021828353 -0.055045415 0.016378731
0.022772625 -0.055033844 0.01370284
0.024578134 -0.057021268 0.01033479
0.026197286 -0.0584401 0.0072008669
0.027284086 -0.05861026 0.0054010749
0.0052229259 -0.059541356 0.0093278289
0.0056021181 -0.053220123 0.017037958
0.0065845726 -0.053617235 0.017814428
0.0075984513 -0.054138966 0.019103914
0.0084524276 -0.053532045 0.019731253
0.0093794586 -0.053462915 0.020193398
0.010151939 -0.052605506 0.020723104
0.011246501 -0.053420879 0.020754874
0.012352942 -0.054162901 0.021140605
0.013187832 -0.053693317 0.021171778
0.014228079 -0.054066699 0.020790875
0.014876149 -0.052996282 0.021013081
0.015721506 -0.052713282 0.02064833
0.016899729 -0.053515811 0.020795435
0.017863141 -0.053589426 0.020170271
0.01820353 -0.051880062 0.019845724
0.020171657 -0.054751642 0.019103914
0.02209693 -0.057251137 0.01697731
0.021090729 -0.05226833 0.01626116
0.023941224 -0.05686041 0.013087451
0.024840733 -0.056636874 0.0082662702
0.0249641 -0.054728985 0.0065484643
0.0043197442 -0.060476419 0.0088038743
0.0045883511 -0.05138953 0.016846865
0.0055840528 -0.052117825 0.018398672
0.0066364207 -0.053091366 0.019045889
0.0075261365 -0.052682955 0.019878358
0.0083721634 -0.052093461 0.020129114
0.0094730034 -0.053048819 0.020532995
0.010364687 -0.052765679 0.020653725
0.011292965 -0.052700505 0.0207403
0.012027268 -0.051809769 0.021216303
0.013142303 -0.052569211 0.021343023
0.013933644 -0.052018937 0.020985961
0.014748129 -0.051618449 0.020917743
0.015980793 -0.052642614 0.020917743
0.016938716 -0.052698229 0.020877838
0.017710032 -0.052197989 0.020486325
0.018754277 -0.052511975 0.020032614
0.019548928 -0.052130476 0.019778609
0.020360652 -0.051827118 0.018270254
0.023019331 -0.056047067 0.01536727
0.022942377 -0.053532213 0.012321651
0.024285367 -0.054399222 0.0078878105
0.024972981 -0.053787958 0.0059152544
0.0033036214 -0.060566396 0.0074623525
0.0036548094 -0.05025363 0.015351295
0.0046887165 -0.05157588 0.018787652
0.0056887767 -0.05214712 0.019838184
0.0066165933 -0.051987518 0.020079285
0.007616539 -0.052363705 0.020608515
0.0084426012 -0.051593672 0.020662159
0.0094532091 -0.051992647 0.020714551
0.010414599 -0.052072994 0.021044701
0.011497967 -0.052699018 0.021125495
0.012118685 -0.05127136 0.021436721
0.013281683 -0.052178044 0.021476656
0.013779721 -0.050525647 0.021394789
0.015184022 -0.052195076 0.021525353
0.016004071 -0.051777877 0.021525353
0.016746415 -0.051169604 0.021947622
0.017779969 -0.051468331 0.021005094
0.018799903 -0.051699731 0.020418257
0.01930036 -0.050548565 0.019859046
0.0203586 -0.050896499 0.01853174
0.021080934 -0.050410926 0.014591306
0.022921234 -0.052527826 0.010832489
0.02907379 -0.06396234 0.0072892308
0.025440177 -0.05381576 0.0053387582
0.0022930794 -0.061913144 0.0070064366
0.0027860205 -0.050148372 0.017014563
0.0037324061 -0.050387483 0.018643349
0.0047257007 -0.051037569 0.019883364
0.0055858297 -0.050272468 0.020166308
0.006685432 -0.051573332 0.020338863
0.0074286014 -0.050143059 0.020548224
0.0083956625 -0.050373975 0.020548224
0.0094467532 -0.051012468 0.020559192
0.01030498 -0.050588083 0.020991623
0.011311159 -0.050900217 0.021125495
0.012109488 -0.050300948 0.021436036
0.013051826 -0.050342754 0.021610618
0.014232202 -0.051235925 0.021524012
0.014839542 -0.050083455 0.021387905
0.015755042 -0.050045427 0.021424353
0.016945168 -0.050835509 0.022029847
0.01791689 -0.050921686 0.021095604
0.018704219 -0.050501391 0.020572186
0.019597307 -0.050393075 0.020418257
0.020778088 -0.051000763 0.01913467
0.022164473 -0.052038331 0.014569402
0.023745222 -0.05342675 0.010443151
0.02430662 -0.052502297 0.0071790516
0.028677326 -0.059560601 0.0051746964
0.0018446126 -0.048882235 0.016357005
0.0027648651 -0.048845947 0.018979013
0.0037924419 -0.050249856 0.019911021
0.0046621133 -0.049418405 0.020442039
0.0056177438 -0.049623404 0.020399779
0.0066232947 -0.050147802 0.020526677
0.0075033186 -0.049709488 0.021048576
0.0086557399 -0.050972689 0.021048576
0.0093342299 -0.049471416 0.021066546
0.010189916 -0.049096867 0.021209866
0.011388866 -0.050300825 0.021209866
0.012127928 -0.049444627 0.021362931
0.013215788 -0.050031196 0.021306068
0.014136569 -0.04994921 0.021326572
0.01486125 -0.04922789 0.021081597
0.016000653 -0.049884386 0.020804793
0.016761392 -0.049352989 0.02114293
0.017312326 -0.048292279 0.020393431
0.018441627 -0.04887031 0.020468056
0.020382402 -0.051441304 0.020290196
0.020862836 -0.050260466 0.019147307
0.021204954 -0.04886359 0.017018288
0.021697348 -0.047914978 0.010832489
0.023060231 -0.048887689 0.0068853199
0 -0.059890371 0.005348444
0.00092439825 -0.04806871 0.017580003
0.0018448785 -0.047966845 0.018737853
0.0027956148 -0.048457321 0.019168168
0.0037349621 -0.048554506 0.020212263
0.0047209826 -0.04909822 0.020384312
0.00569314 -0.049340546 0.020567447
0.0065022376 -0.048302338 0.020663351
0.0076014022 -0.049409114 0.02129975
0.0083789276 -0.048411582 0.021241546
0.0094044171 -0.048902966 0.021238983
0.010495641 -0.049615759 0.021314383
0.01138098 -0.04931758 0.021314383
0.012084528 -0.048338111 0.021302313
0.013141776 -0.048812311 0.021444052
0.014023473 -0.048614703 0.021311224
0.015066057 -0.048964683 0.02128005
0.015902521 -0.048643008 0.020929188
0.016646525 -0.048089962 0.021586955
0.018004231 -0.049274739 0.020850629
0.019347623 -0.050303821 0.020591885
0.019559579 -0.048433244 0.020465732
0.020729236 -0.048996378 0.01958555
0.022487145 -0.050840501 0.017382205
0.02392428 -0.051835939 0.012101889
0.023582116 -0.049050801 0.0074788034
-0.0011644342 -0.059386145 0.0051861703
0 -0.047856599 0.015402734
0.00093080371 -0.047470991 0.018704772
0.0018713423 -0.047719229 0.019380003
0.0027804559 -0.04726775 0.019938022
0.0037508334 -0.047823124 0.020266652
0.0047106561 -0.048048694 0.020578802
0.0055977418 -0.047580805 0.020998567
0.0066835843 -0.048694685 0.020907372
0.0074591031 -0.047551785 0.021083772
0.008353753 -0.047337934 0.02102682
0.0093551269 -0.047711145 0.021069825
0.010351625 -0.047993898 0.021441489
0.011286023 -0.047965601 0.021293044
0.012287346 -0.048204202 0.021169096
0.013050615 -0.047541525 0.021479845
0.014174317 -0.048192676 0.02114293
0.014703663 -0.046867926 0.02143684
0.015663479 -0.046990439 0.021090269
0.017589215 -0.04983611 0.021584272
0.017767221 -0.047690958 0.021122187
0.018469952 -0.04709838 0.020776331
0.019998141 -0.048566911 0.020386636
0.02151132 -0.049867149 0.0196715
0.021416664 -0.047489122 0.018473446
0.022435088 -0.047674563 0.013802826
0.0249769 -0.050952878 0.0084658861
0.023707248 -0.04650268 0.0051108301
-0.0022696282 -0.056740709 0.0050289035
-0.00097969081 -0.048984539 0.014922082
0 -0.046125833 0.018704772
0.00093848433 -0.046924215 0.019568563
0.0018808523 -0.047021307 0.020040393
0.0028077022 -0.046795037 0.020260721
0.0037625388 -0.047031734 0.020617038
0.0046515367 -0.046515368 0.020966589
0.0056218794 -0.046848994 0.020999163
0.0065871775 -0.047051266 0.020973265
0.0074322894 -0.046451807 0.021131635
0.0085852062 -0.047695592 0.021083772
0.0093709743 -0.046854872 0.02115953
0.010313429 -0.046879221 0.021444052
0.01126629 -0.046942875 0.021461666
0.011976095 -0.046061903 0.021437228
0.01301309 -0.046475321 0.021506011
0.013980625 -0.046602085 0.021328151
0.014881989 -0.046506215 0.02143684
0.016072424 -0.047271837 0.021098375
0.016996274 -0.047211874 0.021764815
0.017580971 -0.046265714 0.021227747
0.018719554 -0.046798885 0.020779103
0.019426757 -0.046254184 0.020486325
0.022575909 -0.051308885 0.019609421
0.025342794 -0.055093031 0.018516839
0.024984837 -0.052051745 0.012232751
0.025078915 -0.05015783 0.0082704127
0.02410418 -0.046354193 0.0050854385
-0.0019642345 -0.048123743 0.010505944
-0.00090866961 -0.044524811 0.018106252
0 -0.046024445 0.019536555
0.00093482144 -0.045806248 0.020252079
0.0018829145 -0.046131406 0.020313948
0.0028181102 -0.046029132 0.020532727
0.0037886081 -0.046410449 0.02064231
0.0047121588 -0.046179157 0.021109939
0.005671585 -0.046317942 0.021235228
0.0065649552 -0.045954689 0.021274596
0.0075502382 -0.04624521 0.021380812
0.0083926432 -0.045693278 0.0213449
0.0092514753 -0.045332231 0.021353066
0.010292591 -0.045848813 0.021466732
0.011201152 -0.045738034 0.021564871
0.012188286 -0.045940462 0.021600306
0.013330296 -0.046656035 0.021586955
0.014219944 -0.046451818 0.021564871
0.015121644 -0.046310037 0.021631151
0.01592014 -0.045887463 0.021310657
0.016565388 -0.045094669 0.021599203
0.01823684 -0.04703185 0.021362484
0.018801028 -0.046062518 0.020963043
0.019467538 -0.045424256 0.020863354
0.020833734 -0.04640241 0.019403964
0.024789985 -0.052813448 0.017380595
0.024551107 -0.050125178 0.010697126
0.024441561 -0.047905456 0.0072574914
-0.0030194332 -0.048310932 0.007888943
-0.0018670422 -0.044809014 0.018256754
-0.00093493197 -0.044876736 0.019143164
0 -0.044203844 0.020055324
0.00094669795 -0.045441501 0.02030611
0.0019038637 -0.045692731 0.020322591
0.0028317932 -0.045308691 0.020094931
0.003768326 -0.045219913 0.020743132
0.0046456591 -0.04459833 0.021021962
0.0056495764 -0.045196611 0.021155447
0.0065038619 -0.044597909 0.021079808
0.0075179688 -0.045107812 0.021306843
0.008426548 -0.044941593 0.021306068
0.0092848763 -0.044567406 0.021315008
0.010266992 -0.044801421 0.021401316
0.011271213 -0.045084853 0.021468222
0.012172298 -0.044943869 0.021505535
0.013284942 -0.045548376 0.021735281
0.014071748 -0.045029592 0.021553516
0.014899256 -0.044697765 0.0215756
0.015985182 -0.045134626 0.021514177
0.017067246 -0.045512658 0.021564245
0.01801219 -0.045504477 0.02129063
0.018422088 -0.044213012 0.020917118
0.019817591 -0.045297351 0.020793557
0.020391572 -0.044490702 0.019640148
0.020992111 -0.043809623 0.017347544
0.022605566 -0.045211133 0.012179643
0.02300996 -0.044179123 0.0070216656
-0.0041501326 -0.048764057 0.00743559
-0.0027267621 -0.042719271 0.01790449
-0.0018906625 -0.044430569 0.019204259
-0.0009424137 -0.044293445 0.020247787
0 -0.044557199 0.020318121
0.00094594975 -0.044459637 0.020352811
0.0018699341 -0.04394345 0.020397156
0.0028125392 -0.044063114 0.020094931
0.0037933758 -0.044572167 0.020300984
0.0046754428 -0.043949164 0.020902127
0.0056728837 -0.044437587 0.020949095
0.0065033138 -0.043665104 0.020699561
0.007419819 -0.043591436 0.020961285
0.0082667638 -0.043170877 0.021030217
0.0096485578 -0.04534822 0.021003008
0.010265462 -0.04386152 0.021120846
0.011258578 -0.044096094 0.021357507
0.01195186 -0.043210573 0.021431178
0.012978482 -0.043570619 0.021481991
0.01409434 -0.044162266 0.021468222
0.014859013 -0.043648351 0.021511465
0.015919657 -0.044013169 0.021492094
0.017002266 -0.044394806 0.021511465
0.017443761 -0.043150354 0.020839095
0.018980702 -0.044604652 0.020329118
0.019553861 -0.043763403 0.0201222
0.020653674 -0.044123761 0.018916577
0.021537656 -0.044011731 0.016501009
0.022327654 -0.043724988 0.0088206828
0.02370926 -0.044573408 0.0062737465
-0.005114269 -0.047051277 0.0076708794
-0.0036847671 -0.04237482 0.01756981
-0.0028455756 -0.043632157 0.018824846
-0.0018603771 -0.042788673 0.019891053
-0.00093074603 -0.042814318 0.020626873
0 -0.043302447 0.020691156
0.0009341602 -0.042971369 0.020618409
0.0019087857 -0.043902069 0.020363629
0.002845027 -0.043623745 0.020237476
0.0037642661 -0.043289062 0.020298362
0.0047146501 -0.043374781 0.020810544
0.0056080068 -0.042994719 0.020810544
0.0065121115 -0.042793877 0.020662516
0.0074879047 -0.043055452 0.020937085
0.0085688187 -0.043796185 0.02094385
0.0093082394 -0.042817902 0.020876288
0.010251801 -0.042871166 0.021079808
0.011169085 -0.042814825 0.021162063
0.012283475 -0.043464605 0.021246046
0.013457564 -0.044217709 0.021419346
0.014057443 -0.043109491 0.021374255
0.015222212 -0.043763861 0.021349162
0.01597208 -0.043218568 0.021120399
0.016719006 -0.042726349 0.021419346
0.017935079 -0.043421771 0.020825684
0.018603938 -0.042789057 0.020236641
0.019406337 -0.04250912 0.020020843
0.020777727 -0.043444339 0.018497199
0.021583328 -0.043166656 0.016105175
0.022275975 -0.042695615 0.0083233416
0.024107266 -0.044357371 0.0060346425
-0.0064242631 -0.048181973 0.0079278946
-0.0046462254 -0.041816026 0.017036527
-0.0037641518 -0.042346708 0.018631369
-0.0028579279 -0.04286892 0.019502252
-0.0018667821 -0.042002596 0.020075738
-0.0009458987 -0.042565443 0.020685941
0 -0.041876908 0.020480633
0.00094035041 -0.042315766 0.020618409
0.0018832439 -0.04237299 0.020363629
0.002790618 -0.041859269 0.020164818
0.0037278149 -0.041937917 0.020165801
0.0046221432 -0.041599292 0.020266354
0.0056352676 -0.042264506 0.020630509
0.0065827458 -0.042317651 0.020367056
0.0074379314 -0.041838367 0.02084589
0.008333765 -0.041668825 0.020864278
0.0093689021 -0.042160057 0.020885855
0.010478757 -0.042867642 0.021079808
0.011449564 -0.042935867 0.021162063
0.011943249 -0.041342016 0.021188229
0.013235374 -0.042542275 0.021419346
0.013929974 -0.041789923 0.02131623
0.015191544 -0.042726219 0.021211386
0.015719948 -0.041611627 0.021108299
0.016810577 -0.042026445 0.021149933
0.018238867 -0.043197315 0.020124495
0.018673996 -0.042016488 0.020017087
0.019747116 -0.042315248 0.018836021
0.020499857 -0.041931525 0.018248379
0.021242464 -0.041561343 0.014190078
0.023874715 -0.044765089 0.0085472763
0.024243487 -0.043638278 0.0057296455
-0.0076660034 -0.048186306 0.007997632
-0.0055501955 -0.040701434 0.016670614
-0.0046237977 -0.040689424 0.018307596
-0.003779622 -0.041575842 0.019604683
-0.0028170361 -0.041316528 0.02007544
-0.0018879306 -0.041534472 0.020626873
-0.00094147428 -0.041424867 0.020692766
0 -0.041754983 0.020480633
0.00094757153 -0.041693147 0.020618409
0.0018472015 -0.040638432 0.020380348
0.0028192308 -0.041348718 0.020007998
0.0038144966 -0.041959461 0.020007998
0.0046853754 -0.041231304 0.020053387
0.0054774024 -0.040167619 0.020234853
0.006730584 -0.042306527 0.020202935
0.0074157068 -0.040786386 0.020734817
0.0087794736 -0.042921871 0.020938337
0.0093399072 -0.041095592 0.020973265
0.010295349 -0.041181397 0.020946681
0.011279483 -0.041358106 0.02106151
0.012140848 -0.041092101 0.02124843
0.01295252 -0.04070792 0.021460623
0.014105843 -0.041377142 0.021220565
0.014705555 -0.040440276 0.021149933
0.015818771 -0.040942699 0.020869851
0.016767194 -0.040986475 0.020634413
0.017449029 -0.040408276 0.020006359
0.018747594 -0.041244708 0.019613028
0.019575052 -0.041014396 0.018636137
0.020170948 -0.040341895 0.017553061
0.022633314 -0.043298516 0.01199618
0.023250196 -0.04262536 0.0082435906
0.02454235 -0.043194536 0.006121397
-0.0090174554 -0.048468821 0.0079263747
-0.0066009988 -0.040548991 0.015327722
-0.0056790793 -0.040700071 0.017761588
-0.0046995007 -0.040415704 0.019403189
-0.0037397079 -0.040201858 0.020206869
-0.0028165488 -0.040370531 0.020248592
-0.0018952889 -0.040748712 0.020564497
-0.00093478785 -0.040195875 0.020776778
0 -0.040185515 0.020665467
0.0009243004 -0.039744917 0.020665467
0.0018900451 -0.040635969 0.020339787
0.0028853256 -0.041356333 0.020084858
0.0036267897 -0.03898799 0.019999951
0.0047385208 -0.040751278 0.020053387
0.0057156598 -0.040962227 0.020266354
0.0065019922 -0.039940808 0.020225555
0.0075675421 -0.04067554 0.02083388
0.0084203156 -0.040230393 0.020864278
0.0092102783 -0.039604194 0.020981431
0.0103472 -0.040448144 0.020946681
0.011327268 -0.040589377 0.02109912
0.012175974 -0.040274374 0.021136165
0.01351415 -0.041507747 0.021320462
0.014049485 -0.04027519 0.021207154
0.015281983 -0.041070331 0.020952106
0.015685521 -0.039675143 0.020468682
0.01678291 -0.040092509 0.020342141
0.017794253 -0.040271208 0.019976616
0.018566528 -0.039918035 0.019674093
0.019269872 -0.039457358 0.018716693
0.02110629 -0.041253202 0.017553061
0.021660745 -0.040496178 0.013691068
0.023347113 -0.041830242 0.0099495053
0.024520066 -0.042174511 0.0064132512
-0.010386754 -0.048471514 0.0066873729
-0.0076169176 -0.039988816 0.012475312
-0.0065110554 -0.039066333 0.017747551
-0.0056462451 -0.039523717 0.019059747
-0.0046754912 -0.039274126 0.019779265
-0.0038012255 -0.039912868 0.02007544
-0.0028220806 -0.039509129 0.020311058
-0.0018588558 -0.039035972 0.020724833
-0.0009431559 -0.039612547 0.020796925
0 -0.039187558 0.02064696
0.00097230182 -0.040836677 0.020584524
0.0018534901 -0.038923293 0.020295531
0.0027626315 -0.038676843 0.020242155
0.0038368329 -0.040286746 0.020122588
0.0047166455 -0.039619822 0.020053118
0.0055577196 -0.038904037 0.020138025
0.0066258535 -0.039755121 0.020216107
0.0075564426 -0.039671324 0.020727694
0.0084901229 -0.039620575 0.020806998
0.0094548538 -0.039710388 0.020979017
0.010363452 -0.039569546 0.020619184
0.011298922 -0.039546225 0.020907372
0.012019296 -0.038831573 0.021137863
0.013427342 -0.040282026 0.021136165
0.014236158 -0.039861239 0.021108299
0.015093109 -0.039619409 0.020864189
0.015705444 -0.038801681 0.020619184
0.016664756 -0.038884431 0.020028174
0.017774859 -0.039291795 0.019720823
0.018420661 -0.038683388 0.01874882
0.019940216 -0.039880432 0.017710775
0.021890178 -0.04179034 0.016161501
0.024601312 -0.044924136 0.012855023
0.023585582 -0.041274767 0.0085200071
0.024270937 -0.040775172 0.0068002641
-0.0085516507 -0.038957518 0.01125747
-0.0074228821 -0.038042273 0.016881824
-0.0066609103 -0.039013904 0.018804371
-0.0056598331 -0.038675524 0.01966694
-0.0047502234 -0.038951833 0.019929856
-0.0037573611 -0.038512953 0.020188749
-0.0028003394 -0.038271304 0.020167977
-0.0018771657 -0.038481899 0.020766526
-0.00095871347 -0.039307252 0.02078703
0 -0.037502382 0.020587891
0.00093822583 -0.038467258 0.02056095
0.0019081408 -0.039116889 0.020157516
0.0027908273 -0.038141306 0.020053357
0.0037856521 -0.038802937 0.019884855
0.0046078572 -0.037784427 0.020113647
0.005689098 -0.038875505 0.020127386
0.0066263424 -0.038811434 0.020142466
0.0075009153 -0.038442191 0.020401895
0.0083996775 -0.038265195 0.020257831
0.0094165402 -0.038607813 0.02033031
0.01032131 -0.038470335 0.020465255
0.011312192 -0.038649991 0.020379663
0.012288778 -0.038756914 0.021045417
0.013056355 -0.038236465 0.020938337
0.014196988 -0.038805101 0.020936698
0.014832971 -0.038009487 0.020823687
0.01593654 -0.038435183 0.020298421
0.016982881 -0.038683232 0.019996881
0.017471829 -0.03770237 0.019674093
0.018806934 -0.038554214 0.018788397
0.020848297 -0.040703818 0.017661393
0.020999661 -0.039135732 0.01597324
0.022896195 -0.040814959 0.012665242
0.024281135 -0.041480273 0.0099011362
0.025120113 -0.041196987 0.0066894889
-0.0092970952 -0.037188381 0.0084066391
-0.0083700763 -0.037200339 0.015006036
-0.0075111808 -0.037555907 0.017713904
-0.0065678963 -0.037530836 0.019907892
-0.0057022856 -0.038015239 0.020183176
-0.0046779881 -0.037423905 0.02038002
-0.0036556707 -0.036556706 0.02040267
-0.002907906 -0.03877208 0.020812243
-0.0018238797 -0.036477592 0.020826221
-0.00092511903 -0.037004761 0.020788074
0 -0.038829267 0.020710021
0.00092560687 -0.037024274 0.020407468
0.0019157077 -0.038314153 0.020099878
0.0028307131 -0.037742838 0.019638687
0.0037405447 -0.037405446 0.019918829
0.0047380445 -0.037904356 0.020113468
0.005640829 -0.037605528 0.020218164
0.006498334 -0.03713334 0.020255953
0.007630669 -0.038153343 0.020521194
0.0084271356 -0.037453935 0.020419568
0.0093196491 -0.037278596 0.020512342
0.010317319 -0.037517522 0.02050364
0.01120764 -0.037358802 0.020994753
0.012114518 -0.037275441 0.021308213
0.013256029 -0.037874367 0.021137863
0.013928319 -0.037142187 0.020952106
0.015150812 -0.037877027 0.020900309
0.016080543 -0.037836574 0.020298421
0.01694127 -0.037647266 0.020046622
0.017702175 -0.037267737 0.019618392
0.019238161 -0.038476322 0.018660873
0.01997499 -0.038047601 0.017218292
0.021214036 -0.038570974 0.015829146
0.022262009 -0.038716536 0.012732327
0.023286413 -0.038810689 0.010777533
0.025321018 -0.040513631 0.0074118972
0.026168315 -0.040258944 0.0051713586
-0.0092976755 -0.036260933 0.011319727
-0.0084742922 -0.036721934 0.017431408
-0.0075487108 -0.036799964 0.019059747
-0.0066156737 -0.036858752 0.019899964
-0.005636421 -0.036636736 0.020229518
-0.0048480816 -0.037815034 0.02022329
-0.003715656 -0.036227647 0.02038002
-0.0028001564 -0.036402032 0.020443261
-0.0018726536 -0.036516745 0.020381063
-0.00096060371 -0.037463542 0.020483643
0 -0.036013056 0.020564824
0.00095212815 -0.037132997 0.019994617
0.001893385 -0.036921006 0.019632906
0.0028155218 -0.036601782 0.019486278
0.0037744334 -0.036800724 0.019504666
0.0046773637 -0.036483437 0.019984514
0.0055358233 -0.035982851 0.020265609
0.0066613369 -0.037113164 0.020337522
0.0075604152 -0.036857024 0.020447701
0.0084858136 -0.036771856 0.020604193
0.0094604287 -0.036895674 0.020593673
0.01027974 -0.036446352 0.020765871
0.011228085 -0.036491275 0.020778686
0.012322052 -0.03696616 0.021175236
0.013086214 -0.036454454 0.021175593
0.014297527 -0.037173569 0.020806998
0.015058156 -0.036704253 0.020572066
0.015545065 -0.035662208 0.020117193
0.016687937 -0.036157198 0.019892216
0.018147651 -0.037250441 0.019275755
0.018904373 -0.036863528 0.018054008
0.020170573 -0.037459638 0.017148525
0.021148337 -0.037490234 0.015933245
0.021731293 -0.036848713 0.013844252
0.023368146 -0.03797324 0.011835814
0.024312243 -0.037927099 0.0084520578
0.025685715 -0.038528573 0.005651921
-0.010099288 -0.03488845 0.0054389834
-0.0094158426 -0.035780203 0.012475312
-0.0083579021 -0.035288919 0.017181516
-0.007520353 -0.035721678 0.017791569
-0.0067922897 -0.036872428 0.019723386
-0.005652464 -0.035798937 0.019991666
-0.0046459204 -0.035308994 0.020068616
-0.0038329309 -0.036412843 0.020025879
-0.0027984837 -0.03544746 0.020157307
-0.0018998305 -0.036096778 0.019936979
-0.00095400942 -0.036252357 0.019891471
0 -0.035559677 0.019881636
0.00094535103 -0.035923339 0.019760042
0.0018809285 -0.035737641 0.019407839
0.0028215316 -0.035739403 0.019305319
0.0037063535 -0.03521036 0.019446462
0.0046422621 -0.035281193 0.019509017
0.0057468428 -0.036396671 0.019895822
0.006533674 -0.035468515 0.020046473
0.0074091572 -0.035193495 0.020061821
0.0086382544 -0.03647263 0.020203918
0.0093542775 -0.035546254 0.020361215
0.01027495 -0.035495285 0.020442963
0.011497123 -0.036407556 0.020663679
0.012148433 -0.035510805 0.020846575
0.013167138 -0.035739377 0.020923972
0.01417218 -0.035902854 0.02030009
0.014645667 -0.034783456 0.019991577
0.015997494 -0.035759103 0.019618392
0.017298497 -0.036519047 0.019279957
0.017513327 -0.035026655 0.018539131
0.019039391 -0.036174845 0.017689824
0.019733066 -0.035707451 0.016944587
0.021062417 -0.036380537 0.015987039
0.021782894 -0.035989128 0.014583141
0.022570347 -0.035736382 0.013459682
0.02338548 -0.03554593 0.01110217
0.025761414 -0.037651297 0.0078091025
0.027360506 -0.03850738 0.0055594742
-0.01037804 -0.034907956 0.0056317449
-0.0091846772 -0.033983305 0.012339622
-0.0086370222 -0.035507761 0.017127097
-0.0078825923 -0.036456987 0.017605603
-0.0064576105 -0.034133084 0.019108415
-0.0057778461 -0.035630051 0.019752979
-0.0047504101 -0.035153035 0.019977003
-0.0037626328 -0.034804355 0.019893378
-0.0028611806 -0.035287894 0.019903988
-0.0019026056 -0.035198204 0.01981622
-0.00093106844 -0.034449533 0.019808769
0 -0.035178341 0.019784868
0.00094545825 -0.034981955 0.019760042
0.0018727288 -0.034645483 0.019563675
0.0028575221 -0.03524277 0.019407839
0.0037445852 -0.034637414 0.019486278
0.0047238884 -0.034956776 0.019601405
0.0057328525 -0.035352588 0.019773036
0.0066330056 -0.035060171 0.020046473
0.0075938776 -0.035121683 0.020044088
0.0085360752 -0.035092752 0.020195216
0.0092377076 -0.03417952 0.020308614
0.010560405 -0.035521366 0.020238638
0.011222684 -0.034603275 0.020462185
0.012306693 -0.03502674 0.020671457
0.013317082 -0.035195146 0.020446807
0.014037604 -0.034626089 0.02023825
0.015210822 -0.035175025 0.019907862
0.016319321 -0.03551852 0.019573241
0.016887071 -0.034712311 0.019388914
0.018015279 -0.035082385 0.018521428
0.019121917 -0.035375547 0.017797798
0.019220002 -0.033863813 0.017338961
0.021066107 -0.035429362 0.016615927
0.022026168 -0.0354334 0.014836103
0.022754049 -0.035079159 0.013661563
0.024229482 -0.035859633 0.012325346
0.024705827 -0.035158291 0.010304391
0.026936304 -0.036912713 0.0073102713
0.028799452 -0.038056418 0.005072087
-0.010056111 -0.036201999 0.010346323
-0.0083921524 -0.03356861 0.017030776
-0.0075995633 -0.034198035 0.017596006
-0.0065735425 -0.03380679 0.018903613
-0.005678955 -0.034073729 0.01966694
-0.0046250168 -0.03330012 0.019768119
-0.0037769396 -0.033992454 0.019774944
-0.0028411804 -0.034094166 0.019817024
-0.0018946376 -0.034103476 0.019658774
-0.00094434002 -0.033996239 0.019743353
0 -0.033974398 0.019850522
0.00095025433 -0.034209155 0.019710064
0.0018790287 -0.033822518 0.019556999
0.0028040491 -0.033648591 0.019449145
0.0038108383 -0.034297545 0.019641489
0.0047146399 -0.033945408 0.020028442
0.0057100477 -0.034260284 0.020189911
0.0066000004 -0.03394286 0.020284921
0.0074995882 -0.033748146 0.020203918
0.008319186 -0.033276744 0.020669162
0.0095782345 -0.034481645 0.020789325
0.010368427 -0.033933036 0.020637274
0.01123926 -0.033717778 0.020660341
0.012192342 -0.033763409 0.020707905
0.013129964 -0.033762764 0.020532727
0.014032727 -0.033678547 0.020088702
0.014920007 -0.033570014 0.019714862
0.015983431 -0.033847265 0.019353002
0.016888894 -0.033777788 0.019205213
0.01791884 -0.033951487 0.018512428
0.01861484 -0.033506714 0.017859936
0.019947141 -0.034195103 0.017505169
0.020620976 -0.033743415 0.017194599
0.021387264 -0.033475716 0.016317487
0.022560738 -0.033841107 0.014267534
0.023834925 -0.034322292 0.01343742
0.024632521 -0.034106568 0.01222381
0.02680267 -0.035736896 0.010254771
0.026891392 -0.034574647 0.0073847175
0.028661635 -0.035579961 0.0050832927
-0.0092317602 -0.032311164 0.0093733072
-0.0085016359 -0.033061918 0.01363647
-0.0075149834 -0.032878052 0.017496556
-0.0065998151 -0.032999076 0.018260866
-0.0056092967 -0.032720897 0.018975943
-0.0047501726 -0.033251207 0.019379556
-0.0037648836 -0.032942731 0.019334793
-0.0028145791 -0.032836754 0.019334793
-0.0019227526 -0.033648171 0.019263625
-0.00094638643 -0.033123527 0.019246161
0 -0.033706207 0.019557834
0.00093327777 -0.03266472 0.019276381
0.0018821465 -0.032937564 0.019167572
0.0028273824 -0.032986127 0.019182563
0.0037821981 -0.033094235 0.019551903
0.0047081057 -0.032956738 0.019601405
0.0056930608 -0.033209521 0.019764334
0.0066010952 -0.033005476 0.020100206
0.0075071803 -0.032843914 0.020070106
0.0084670736 -0.032927509 0.020195216
0.0093311118 -0.032658894 0.020419061
0.01024679 -0.03260342 0.020338953
0.011409341 -0.033277247 0.020403624
0.01219517 -0.032833148 0.020353764
0.012965804 -0.032414511 0.020219594
0.014083513 -0.032861531 0.019784629
0.01512916 -0.033095036 0.019433767
0.015904279 -0.032744102 0.019082725
0.017344508 -0.033725433 0.018521547
0.017757496 -0.032711174 0.018292755
0.018927315 -0.033122804 0.017682254
0.020061659 -0.033436097 0.017279238
0.020257438 -0.03222774 0.017119855
0.021563068 -0.032813363 0.016159356
0.022861008 -0.033338968 0.015551388
0.023167927 -0.032435097 0.014205337
0.025335778 -0.034105856 0.013623565
0.025491225 -0.033044182 0.012084603
0.026943432 -0.033679292 0.0093715489
0.028498586 -0.034394845 0.0068858266
-0.0093307914 -0.031724691 0.0052125454
-0.0084832404 -0.032047797 0.011601418
-0.0075430088 -0.032057788 0.014784276
-0.0066158036 -0.032133903 0.0174326
-0.0057074963 -0.032342479 0.018200666
-0.0048164604 -0.032751929 0.018510342
-0.0037991386 -0.032292679 0.018622309
-0.0028347843 -0.032127555 0.018849373
-0.0018963483 -0.032237921 0.018770665
-0.00092873408 -0.031576958 0.018889368
0 -0.031800937 0.019112617
0.00093623321 -0.031831928 0.019048065
0.0019015914 -0.032327056 0.018921256
0.0028538061 -0.032343134 0.018891096
0.0037220777 -0.031637661 0.019314021
0.004733549 -0.032188132 0.019528776
0.0056822579 -0.032199461 0.019571304
0.0065261931 -0.031698652 0.019684821
0.0075176512 -0.031950019 0.019549638
0.0083406093 -0.031508967 0.019549638
0.0092125488 -0.031322666 0.019847542
0.010323534 -0.031909104 0.019304067
0.011278779 -0.031956542 0.019859195
0.012289813 -0.032142587 0.019809037
0.013152175 -0.031940997 0.019615531
0.014082116 -0.031919464 0.019245595
0.015206618 -0.032314062 0.018292755
0.016463958 -0.032927915 0.018281013
0.016853854 -0.031835061 0.018283397
0.017844826 -0.031932846 0.01799798
0.019041147 -0.032369953 0.017906427
0.019102035 -0.030927103 0.017516792
0.020783082 -0.032119308 0.017297536
0.021803124 -0.032230705 0.016952902
0.022705397 -0.032165978 0.016349345
0.023860823 -0.032450721 0.0152753
0.024055194 -0.031456791 0.014188796
0.02503212 -0.031521928 0.01353687
0.027157083 -0.03297646 0.011712313
0.027705818 -0.032482684 0.0083325207
0.028800027 -0.032640029 0.0057830811
-0.0087116444 -0.031942695 0.0063817501
-0.0076080454 -0.031383187 0.012178153
-0.0066961814 -0.031567711 0.015955657
-0.0056622764 -0.03114252 0.017461419
-0.0047196401 -0.031149626 0.017480284
-0.0038726279 -0.031949181 0.01808846
-0.0028739914 -0.031613905 0.018250167
-0.0018945643 -0.031260312 0.018225968
-0.0009514367 -0.03139741 0.018204987
0 -0.030733585 0.018919021
0.00095759425 -0.031600609 0.018708795
0.0018968809 -0.031298537 0.018697977
0.002840156 -0.031241717 0.018855602
0.0038162977 -0.031484455 0.019240916
0.0046513635 -0.030698998 0.01917854
0.0057087275 -0.031398002 0.019440681
0.0066266293 -0.031239824 0.019480735
0.0075090555 -0.030974854 0.019337445
0.0084384624 -0.03094103 0.019337445
0.0095674973 -0.031572741 0.019341439
0.010225239 -0.030675719 0.018677622
0.011296603 -0.031065658 0.019524902
0.012370904 -0.031403065 0.018993407
0.0132105 -0.031139035 0.018432438
0.014043164 -0.030894959 0.017760962
0.015436024 -0.0318368 0.0177477
0.015931046 -0.030924972 0.017987877
0.01711957 -0.031385876 0.017995924
0.018004933 -0.031271726 0.017936826
0.018683558 -0.030827872 0.018408179
0.020051211 -0.031509046 0.018408179
0.020385828 -0.030578742 0.017936826
0.021007089 -0.030140605 0.017396688
0.022892892 -0.031477727 0.01697138
0.023818785 -0.031440798 0.016441226
0.024326289 -0.030875675 0.01571092
0.026092065 -0.031890303 0.014752716
0.025970776 -0.030608414 0.013176024
0.026851218 -0.030554835 0.009737581
0.028981252 -0.031879377 0.0070924461
-0.0077559226 -0.03102369 0.0072971582
-0.0066497861 -0.030399021 0.01277557
-0.0055983728 -0.029857988 0.016429812
-0.0047419737 -0.030348632 0.016900659
-0.0036924912 -0.02953993 0.017321765
-0.0028341706 -0.030231154 0.017787308
-0.001905083 -0.030481327 0.017395318
-0.00093999197 -0.030079743 0.017615706
0 -0.03007984 0.018138796
0.00094395457 -0.030206546 0.018239796
0.0018621653 -0.029794645 0.018440545
0.002846241 -0.030359903 0.018569946
0.003736383 -0.029891064 0.019062757
0.0046602893 -0.029825851 0.018993735
0.0056905388 -0.030349541 0.018754274
0.0066147982 -0.030239077 0.018645257
0.0075579528 -0.030231811 0.018585622
0.0084973089 -0.030212654 0.018794596
0.0093214428 -0.029828617 0.018969774
0.010132923 -0.029477594 0.018222839
0.011399909 -0.030399758 0.018406659
0.012159625 -0.029931383 0.018048495
0.013087054 -0.029913267 0.017495632
0.014637396 -0.031226443 0.016884416
0.014929468 -0.029858936 0.017005682
0.016305134 -0.030692015 0.017387599
0.016911579 -0.030065032 0.01761815
0.017724097 -0.029851111 0.017595142
0.019206317 -0.030730106 0.017597467
0.019661617 -0.02996056 0.017775416
0.020659406 -0.030050045 0.017927438
0.021654239 -0.030127637 0.017504901
0.022043273 -0.029391032 0.017071247
0.023609281 -0.030219879 0.016748548
0.024408987 -0.030041829 0.015907317
0.025307486 -0.029994057 0.014739871
0.026666014 -0.030475443 0.013494939
0.02762053 -0.030477827 0.010528207
0.028507542 -0.030408045 0.0079308748
-0.0068252156 -0.030225955 0.0075399876
-0.0056737796 -0.029314527 0.012872696
-0.0046978346 -0.029126573 0.016142905
-0.0037437433 -0.029014012 0.017147839
-0.0028941862 -0.02990659 0.017163157
-0.0018688939 -0.028967854 0.01718685
-0.00093665026 -0.029036157 0.017272919
0 -0.029879084 0.017634362
0.00093311456 -0.028926551 0.017825723
0.001888279 -0.029268324 0.018069714
0.0028204874 -0.029145038 0.018286973
0.0037895835 -0.02936927 0.018872261
0.0047091111 -0.02919649 0.01878497
0.0056094127 -0.028981965 0.018281281
0.006488157 -0.028733267 0.018049955
0.0076145991 -0.029506572 0.018072546
0.008452978 -0.029115813 0.018323004
0.0092697581 -0.02873625 0.0184623
0.010474914 -0.029520212 0.01774931
0.011499478 -0.029706985 0.017543018
0.012261948 -0.029240029 0.016196668
0.013979368 -0.030954314 0.016183436
0.013809665 -0.028539976 0.015991956
0.01533118 -0.029704161 0.016514689
0.016004007 -0.029183777 0.016870916
0.016555523 -0.02851229 0.017155051
0.018336337 -0.029917181 0.017297715
0.0184686 -0.02862633 0.017650932
0.01982549 -0.029266201 0.018033355
0.020746695 -0.029233977 0.018251389
0.021616699 -0.029135549 0.018230438
0.022988459 -0.029693425 0.017870486
0.023440717 -0.02906649 0.016938835
0.024355499 -0.029039249 0.016694874
0.025941676 -0.029784886 0.015530348
0.026181031 -0.028986143 0.013495415
0.027379274 -0.029267501 0.011327296
0.028194185 -0.029133992 0.0078855455
0.030198652 -0.030198652 0.0052533746
-0.0057864431 -0.028932216 0.0074152946
-0.00472986 -0.028379161 0.011553019
-0.0038459231 -0.028844424 0.014412731
-0.0028356807 -0.028356805 0.01603508
-0.0019032839 -0.028549258 0.016046494
-0.00094774965 -0.02843249 0.016632378
0 -0.02858619 0.017246246
0.00094793254 -0.028437978 0.017462134
0.0018969446 -0.028454168 0.017914563
0.0027910615 -0.027910616 0.017844141
0.003811789 -0.028588418 0.018292278
0.0047533265 -0.02851996 0.01805824
0.0055637332 -0.027818667 0.01752907
0.0065602995 -0.028115571 0.017376393
0.0076151229 -0.02855671 0.017272562
0.0084162774 -0.028054258 0.017405838
0.0094934581 -0.028480375 0.017128944
0.010729666 -0.029262723 0.01598236
0.011384737 -0.028461842 0.015624046
0.01264535 -0.029181577 0.015114278
0.01322119 -0.028331121 0.015283465
0.01447494 -0.028949881 0.015145838
0.015007703 -0.028139442 0.014970779
0.015797026 -0.027877105 0.015419692
0.017478561 -0.029130936 0.01629135
0.017855149 -0.028192341 0.016369224
0.019045874 -0.028568812 0.016761839
0.020271732 -0.028959617 0.016907394
0.020720026 -0.02825458 0.017769754
0.021828171 -0.028471528 0.017800838
0.022296363 -0.027870456 0.017560333
0.023522984 -0.028227583 0.016863823
0.024278149 -0.02801325 0.016604275
0.025527978 -0.02836442 0.014875501
0.027049525 -0.028981633 0.013246983
0.026963327 -0.027893098 0.011183918
0.029044135 -0.029044135 0.0076239407
0.029505443 -0.028553655 0.0050022006
-0.0049474384 -0.028695144 0.0067481399
-0.0038171466 -0.027674312 0.0095690489
-0.0028131865 -0.027194137 0.013670057
-0.0019127895 -0.027735448 0.014545262
-0.00093013328 -0.026973866 0.015666217
0 -0.028075179 0.016614199
0.00094945513 -0.0275342 0.016818494
0.0019088886 -0.027678885 0.01718089
0.0029402692 -0.028422602 0.017188221
0.0038593237 -0.027980097 0.017376393
0.0046722591 -0.027099105 0.017101049
0.0056621009 -0.027366821 0.01671356
0.0065462179 -0.027120046 0.016447335
0.0074815294 -0.027120544 0.015913129
0.0084305331 -0.027165052 0.015900433
0.0096920896 -0.028107058 0.015253633
0.010579502 -0.027891414 0.014606565
0.011783172 -0.028476 0.012000233
0.012320608 -0.027484432 0.01251483
0.013296225 -0.027542181 0.013187945
0.014233704 -0.027518492 0.014215052
0.01517238 -0.027499938 0.014550328
0.016656294 -0.028413678 0.014896423
0.017117918 -0.027578868 0.015171647
0.017827375 -0.027210204 0.01533407
0.018791381 -0.027247502 0.016167194
0.019866481 -0.027434666 0.016869098
0.020408038 -0.026901504 0.01712063
0.021574818 -0.027203031 0.017529249
0.022981217 -0.02776897 0.01712063
0.022712355 -0.026346333 0.016680926
0.024695642 -0.027545139 0.016275972
0.025509888 -0.02739951 0.014446586
0.025927508 -0.026853491 0.012500018
0.027631506 -0.027631506 0.0099638999
0.028057573 -0.027122321 0.0072868764
-0.0029129977 -0.027187977 0.0082354844
-0.0018801063 -0.026321488 0.010744184
-0.00094865565 -0.026562357 0.013243049
0 -0.026393492 0.014648259
0.00095779786 -0.026818339 0.015116662
0.0019126522 -0.02677713 0.016398042
0.0028791726 -0.026872277 0.016411543
0.0037756735 -0.026429715 0.016627491
0.0046387091 -0.025976771 0.015823632
0.0056752232 -0.026484374 0.01505208
0.0065483078 -0.026193231 0.014529765
0.0074166441 -0.025958255 0.014060438
0.0088170953 -0.027430963 0.01218006
0.009805331 -0.027454928 0.010653526
0.010700715 -0.027238185 0.010322481
0.01152646 -0.026895072 0.0098965764
0.012506615 -0.026937325 0.010231286
0.013517841 -0.027035682 0.010822684
0.014242731 -0.02658643 0.011126757
0.015572741 -0.027252296 0.012059063
0.015911838 -0.026207734 0.014198542
0.01706847 -0.026550954 0.014813751
0.017955648 -0.026460955 0.014953882
0.019005522 -0.026607731 0.015033901
0.019642659 -0.026190212 0.016584754
0.020549832 -0.02615433 0.016704857
0.021826582 -0.026571492 0.016878158
0.021925356 -0.025579583 0.016743153
0.023355525 -0.026158189 0.016664147
0.024056602 -0.02590711 0.01543048
0.025054911 -0.02598287 0.013901651
0.026523193 -0.026523193 0.011718363
0.02740036 -0.02645552 0.0090251267
0.028272545 -0.026387708 0.0065670013
-0.0019121373 -0.025813853 0.0054103434
-0.00094297482 -0.02546032 0.0076255798
0 -0.025007892 0.011221677
0.0010450546 -0.028216476 0.013277799
0.001983562 -0.026778087 0.014490873
0.0029365378 -0.026428839 0.01494056
0.0042336504 -0.02857714 0.014559478
0.0047693653 -0.025754573 0.013277799
0.005652478 -0.02543615 0.010984421
0.0065921573 -0.025426893 0.0097578764
0.0078498954 -0.026493398 0.0086935163
0.0091536436 -0.027460931 0.0085287988
0.0099769821 -0.026937854 0.0075961649
0.010614775 -0.026054448 0.007439971
0.01164983 -0.026212119 0.0074040294
0.012835047 -0.026657406 0.0082851052
0.013484384 -0.026005598 0.0089867711
0.014433458 -0.025980227 0.009213537
0.015103855 -0.025487756 0.010610729
0.016142461 -0.025638027 0.011741132
0.016907144 -0.025360717 0.013718873
0.018213335 -0.025882108 0.014225811
0.018665621 -0.025198588 0.014906406
0.019586176 -0.025182225 0.015022129
0.020995371 -0.025767045 0.0162386
0.021245537 -0.024940414 0.016385019
0.023179268 -0.026076676 0.016373307
0.023560515 -0.025445355 0.015897721
0.024443708 -0.025383851 0.014373958
0.025801599 -0.025801599 0.013038516
0.026260687 -0.025322806 0.010943979
0.027295994 -0.025413511 0.007520318
0.00097226741 -0.025278954 0.0068016946
0.0021079513 -0.027403366 0.008412689
0.0031951489 -0.027691292 0.0097612441
0.0041535906 -0.026998339 0.0080525875
0.0046525802 -0.024193419 0.0059399009
0.0055624321 -0.024103872 0.0051930547
0.012536258 -0.025072517 0.0057303011
0.01344147 -0.024962731 0.0056994855
0.014584787 -0.025280297 0.0069850385
0.015355886 -0.024953313 0.0086416006
0.016169049 -0.024729135 0.010089725
0.017601542 -0.025424449 0.011041969
0.017612724 -0.024101621 0.01169759
0.018879503 -0.024543354 0.013873249
0.020090595 -0.024874071 0.01419884
0.020243978 -0.023924703 0.014229774
0.022308599 -0.025218416 0.014527589
0.022091161 -0.023932092 0.014501274
0.02316777 -0.024094481 0.01419884
0.024433751 -0.024433751 0.013059437
0.025201889 -0.024268486 0.011286646
0.026139338 -0.024272241 0.0077270865
0.028233165 -0.025312493 0.0055243671
0.015343782 -0.023974661 0.0060031712
0.01639941 -0.024116781 0.0084353089
0.016999518 -0.023610443 0.0091982186
0.018032068 -0.023726406 0.010416329
0.019513145 -0.024391431 0.011652857
0.019440923 -0.023143955 0.01239118
0.021181779 -0.024070201 0.013033122
0.022000173 -0.023913233 0.013057053
0.02212128 -0.023043001 0.013033122
0.024170637 -0.024170637 0.011719137
0.024908988 -0.023950951 0.01128903
0.02529154 -0.023418093 0.0078800321
0.027353885 -0.024423111 0.0059399307
0.016465092 -0.023244835 0.0051303804
0.017186316 -0.022915088 0.0073405802
0.018695207 -0.023614999 0.0084725916
0.018596064 -0.022315277 0.0089347959
0.020362828 -0.023271803 0.010593235
0.02088931 -0.022788338 0.011150897
0.021413267 -0.022344278 0.011361271
0.023200732 -0.023200732 0.010968179
0.023269866 -0.02233907 0.0090236366
0.024882875 -0.022968808 0.0077270865
0.026467556 -0.023526715 0.0059885979
0.017444177 -0.022289781 0.005060792
0.017866611 -0.021628002 0.0065745413
0.019618778 -0.022561595 0.0073135197
0.019503485 -0.02136096 0.0077866316
0.020919282 -0.021870159 0.008028537
0.022353906 -0.022353906 0.0078541338
0.022513859 -0.021575781 0.0072855055
0.023750855 -0.021850787 0.0062834918
0.025564728 -0.022614952 0.0054908991
0.019479148 -0.021427063 0.0051454604
0.019787507 -0.020729769 0.0062486529
0.020967854 -0.020967854 0.0062092543
0.021989206 -0.021033153 0.0053472817
0 0 0 1 0 0 0 1 0 0 0 1 0 0 0 0 0 1298 1 0 0
