ply
format ascii 1.0
comment PCL generated
element vertex 862
property float x
property float y
property float z
element camera 1
property float view_px
property float view_py
property float view_pz
property float x_axisx
property float x_axisy
property float x_axisz
property float y_axisx
property float y_axisy
property float y_axisz
property float z_axisx
property float z_axisy
property float z_axisz
property float focal
property float scalex
property float scaley
property float centerx
property float centery
property int viewportx
property int viewporty
property float k1
property float k2
end_header
-0.0072793611 -0.066554159 0.020540506
-0.0061811819 -0.065932609 0.020271569
-0.0052134697 -0.066732414 0.02148506
-0.0041251332 -0.066002131 0.021271855
-0.0020587884 -0.06588123 0.020714998
-0.012323342 -0.064697549 0.021609396
-0.011263411 -0.064508632 0.02108258
-0.010160035 -0.064008221 0.022175789
-0.0092198933 -0.064539254 0.020929784
-0.0082681514 -0.065111689 0.02202782
-0.007245081 -0.06520573 0.02202782
-0.0062157358 -0.065265231 0.021842688
-0.0051522478 -0.064918332 0.021882385
-0.0041416674 -0.065231264 0.022289574
-0.0030884279 -0.064856991 0.022242576
-0.0020610313 -0.064922489 0.021903902
-0.0010346209 -0.065181121 0.022046924
0 -0.064820826 0.021948874
0.0010320911 -0.065021738 0.020601332
0.0020342881 -0.064080074 0.019595921
-0.014433546 -0.063919991 0.021095395
-0.013442828 -0.064111955 0.021514475
-0.012312137 -0.063612714 0.021943241
-0.011338599 -0.063908473 0.021964043
-0.010334981 -0.064076886 0.022896081
-0.0092727449 -0.063878916 0.021505892
-0.0083368486 -0.064610578 0.02195701
-0.0071951267 -0.063728265 0.022038341
-0.006189547 -0.06395866 0.021842688
-0.0051536099 -0.06390477 0.021605909
-0.0040943208 -0.063461982 0.022647321
-0.0030789408 -0.063631445 0.022270501
-0.0020847144 -0.06462615 0.022429347
-0.0010253143 -0.063569486 0.022407115
0 -0.064051613 0.022407115
0.0010271822 -0.063685298 0.021089315
0.0020342204 -0.063060835 0.021146744
0.0030776754 -0.063605294 0.021021932
0.0040873317 -0.063353643 0.018785864
-0.016440827 -0.062680654 0.020586252
-0.015349677 -0.062422018 0.021441013
-0.014390044 -0.062699474 0.023002326
-0.013367983 -0.062726691 0.022753805
-0.012355078 -0.062804982 0.022815406
-0.011372681 -0.063066684 0.0225043
-0.010324398 -0.062978826 0.022796333
-0.0092897853 -0.062964104 0.022129297
-0.0082724802 -0.063077658 0.021701485
-0.007241704 -0.063106276 0.021544576
-0.0062547955 -0.063590422 0.022068322
-0.0051440937 -0.062757947 0.021089852
-0.004129854 -0.062980272 0.021242201
-0.0031140933 -0.063319899 0.021971107
-0.0020668111 -0.063037738 0.02238667
-0.0010334754 -0.063042 0.022030175
0 -0.063428275 0.022204131
0.0010260008 -0.062586047 0.021482646
0.0020821218 -0.063504711 0.021816969
0.0030956487 -0.062944859 0.021536618
0.0041296133 -0.062976599 0.020787448
0.0051236004 -0.062507927 0.021285027
-0.018580247 -0.061934154 0.022512943
-0.017399324 -0.06140938 0.022225142
-0.016482567 -0.061809629 0.02328968
-0.015584933 -0.062339731 0.022977203
-0.014325329 -0.061394271 0.023639411
-0.013470858 -0.062173195 0.023016334
-0.012380618 -0.061903089 0.023513556
-0.011279412 -0.061524063 0.022428066
-0.010245627 -0.061473761 0.022813082
-0.0092378752 -0.061585836 0.021732271
-0.008310264 -0.062326979 0.02004233
-0.0072199022 -0.06188488 0.019979626
-0.0062552989 -0.062552989 0.019932717
-0.0051969457 -0.062363353 0.019845426
-0.0041817902 -0.062726855 0.0194287
-0.0031119885 -0.06223977 0.020328939
-0.0020603391 -0.061810177 0.0205881
-0.0010380785 -0.062284708 0.020328939
0 -0.062520064 0.021003425
0.0010360283 -0.062161691 0.021124095
0.0020745702 -0.062237103 0.021542072
0.0030645933 -0.061291866 0.022099644
0.0041219746 -0.061829619 0.021509737
0.0050691175 -0.060829412 0.023348778
0.0061199982 -0.061199982 0.022229671
0.0072131502 -0.061827 0.020997286
-0.019757064 -0.061350886 0.023002744
-0.018478518 -0.060568482 0.024054557
-0.017473267 -0.060642518 0.022880524
-0.016386328 -0.060424585 0.023276508
-0.015444112 -0.060746841 0.023542732
-0.014554201 -0.06133556 0.023029327
-0.01335897 -0.060629174 0.02252534
-0.012228108 -0.060121533 0.022428066
-0.01144337 -0.06137808 0.022129297
-0.010307245 -0.060812749 0.021544904
-0.0093649877 -0.061392702 0.020497948
-0.0084020644 -0.061965227 0.019678533
-0.0072706598 -0.061281275 0.019812673
-0.0062297089 -0.061258804 0.019462734
-0.0052416627 -0.061851621 0.018997848
-0.004174626 -0.061575729 0.018833101
-0.0031219881 -0.061399098 0.019554406
-0.0021024698 -0.062022861 0.020080477
-0.0010363449 -0.061144348 0.019618243
0 -0.061030649 0.020179152
0.0010418342 -0.061468221 0.020267814
0.0020679657 -0.061004989 0.02099964
0.0031149304 -0.061260298 0.021421641
0.0040957271 -0.060411975 0.021175742
0.0050643268 -0.059759058 0.022990614
0.0061500911 -0.060475897 0.023905575
0.0071870647 -0.060576688 0.024391621
0.0082196835 -0.06062017 0.02392751
0.0090778619 -0.059510428 0.02137062
-0.020584887 -0.059696175 0.0237073
-0.019515596 -0.059573926 0.023707628
-0.018557826 -0.059797443 0.023039907
-0.017479515 -0.059635989 0.022585362
-0.016425952 -0.059544075 0.02339679
-0.015540089 -0.060088344 0.022890419
-0.014456398 -0.059890792 0.022585362
-0.013415498 -0.059853759 0.022007614
-0.012537932 -0.060600005 0.021029472
-0.011442819 -0.060334865 0.020617276
-0.010449079 -0.060604662 0.01944524
-0.0093547655 -0.060286269 0.019459307
-0.0083288113 -0.060383882 0.018668473
-0.0072943792 -0.060439143 0.019148171
-0.0062833461 -0.060739014 0.018366843
-0.005186216 -0.060160108 0.017983317
-0.0041864985 -0.060704231 0.017640471
-0.0031475446 -0.060852535 0.017929137
-0.0020977918 -0.060835961 0.018437803
-0.0010384056 -0.060227524 0.018807679
0 -0.060280211 0.019815803
0.0010430521 -0.060497023 0.019648015
0.0020690679 -0.060002975 0.020158291
0.0030914259 -0.05976757 0.019886255
0.0041041928 -0.059510801 0.021343142
0.0050914823 -0.059061199 0.022955447
0.0062210774 -0.060137082 0.023880184
0.0071507809 -0.05924933 0.024469703
0.0082868198 -0.060079444 0.024773985
0.0092445426 -0.059575945 0.024187207
0.010250607 -0.059453521 0.022141695
-0.022595128 -0.05854192 0.0221636
-0.021516472 -0.058401853 0.023707628
-0.020595735 -0.058697842 0.02462104
-0.019497249 -0.058491748 0.024568617
-0.018639248 -0.059024289 0.023622274
-0.017557429 -0.058869027 0.023022294
-0.016426902 -0.058520839 0.022624224
-0.015460497 -0.058749888 0.022624224
-0.014368576 -0.058500629 0.022120416
-0.01337394 -0.058639586 0.020824313
-0.012490211 -0.0593285 0.019929111
-0.011403037 -0.059088465 0.019391835
-0.010361632 -0.059061304 0.018768668
-0.0094178049 -0.0596461 0.018772036
-0.0083578164 -0.05954944 0.01791653
-0.0073349723 -0.059727632 0.017490029
-0.0062522404 -0.059396286 0.017607778
-0.0052254661 -0.059570313 0.017384499
-0.0041843513 -0.059627004 0.017096788
-0.0031303626 -0.05947689 0.01720053
-0.0020819902 -0.059336722 0.016966432
-0.0010411859 -0.059347592 0.016775489
0 -0.059953365 0.018633395
0.001047464 -0.05970544 0.019519359
0.0020667785 -0.058903184 0.019661069
0.0030937819 -0.058781859 0.020148933
0.0041428213 -0.059035204 0.020086884
0.0051765735 -0.059012938 0.022463173
0.0061493884 -0.058419187 0.023585409
0.0071494961 -0.058217328 0.024447262
0.0082197264 -0.05856555 0.024651706
0.0092092333 -0.058325145 0.024770796
0.010289819 -0.058651969 0.024000973
0.011260989 -0.058352396 0.023505837
0.012359878 -0.05870942 0.022248536
-0.022885481 -0.058253955 0.023208857
-0.02156443 -0.057505142 0.023936599
-0.020435179 -0.057218503 0.024264067
-0.019588796 -0.057735398 0.023984075
-0.01857728 -0.057795983 0.023039907
-0.017563498 -0.057856228 0.022624224
-0.016419066 -0.05746673 0.02275309
-0.015495714 -0.057850666 0.022465527
-0.014534922 -0.058139689 0.021517038
-0.013460952 -0.057985637 0.021107316
-0.012312727 -0.057459392 0.020040989
-0.011403663 -0.058055013 0.01968345
-0.010429812 -0.058406949 0.019055456
-0.0093487995 -0.058170311 0.01859346
-0.0084481314 -0.05913692 0.01800105
-0.007251292 -0.058010336 0.017120034
-0.0062826625 -0.058638185 0.016842574
-0.0052318042 -0.058596209 0.016190201
-0.004253671 -0.059551395 0.0156461
-0.0031548154 -0.058889892 0.016028136
-0.0020975664 -0.058731854 0.016028136
-0.0010520536 -0.058915004 0.016028136
0 -0.058164462 0.016601205
0.0010463774 -0.058597133 0.017704129
0.002075586 -0.058116406 0.019087672
0.0031347072 -0.058514535 0.019601077
0.0041058515 -0.057481922 0.019554138
0.005191952 -0.058149863 0.021139026
0.0061424603 -0.057329629 0.022191554
0.0072014201 -0.057611361 0.022603184
0.008295021 -0.05806515 0.023828536
0.0093064187 -0.057906609 0.02518937
0.010293983 -0.057646308 0.024796665
0.011225709 -0.057149064 0.024582922
0.012398922 -0.057861637 0.024304688
-0.0238293 -0.05698311 0.02248019
-0.022736663 -0.05684166 0.022966355
-0.021528676 -0.056384631 0.024109602
-0.020612258 -0.056683712 0.024940372
-0.019445261 -0.056288913 0.024220139
-0.018430429 -0.056315199 0.023285955
-0.017449422 -0.056454014 0.023135424
-0.016493214 -0.056695428 0.022312075
-0.015535389 -0.056963094 0.021344572
-0.014551695 -0.057167377 0.020765215
-0.013506343 -0.05714222 0.020240009
-0.012553847 -0.057538468 0.019583732
-0.011432118 -0.05716059 0.018029332
-0.010418262 -0.057300445 0.017144173
-0.0094992761 -0.058051135 0.015767545
-0.0084051061 -0.057785105 0.015187413
-0.0073556509 -0.057794403 0.014702141
-0.0063156048 -0.057893045 0.015477031
-0.0052619735 -0.057881713 0.015107095
-0.0041893995 -0.057604242 0.015090257
-0.0031711115 -0.058137044 0.015090257
-0.0021089118 -0.057995077 0.016021252
-0.0010469147 -0.057580311 0.016193807
0 -0.057929337 0.015853852
0.0010594794 -0.058271367 0.016601205
0.0020748426 -0.05705817 0.017011106
0.0031330558 -0.057439361 0.018103004
0.0041306866 -0.056796938 0.019432843
0.005185564 -0.057041209 0.020287454
0.0062652309 -0.057431284 0.021897286
0.0071675107 -0.056316156 0.023106694
0.0082683712 -0.05684505 0.024476856
0.0091514178 -0.055925332 0.025149912
0.010251589 -0.056383744 0.024896801
0.01126141 -0.056307051 0.025319636
0.012367634 -0.056684993 0.024476856
0.013407447 -0.056723818 0.024022311
-0.023755377 -0.055773497 0.023108274
-0.022521235 -0.0552794 0.023077697
-0.021478832 -0.055231284 0.024754614
-0.020720528 -0.055945434 0.025081873
-0.019583637 -0.055658761 0.024252713
-0.018568061 -0.055704191 0.023345292
-0.01750554 -0.055605832 0.023229003
-0.01657794 -0.055950552 0.022423059
-0.015763402 -0.056748249 0.020986795
-0.014496529 -0.055915188 0.020781904
-0.013644332 -0.056676459 0.020127296
-0.012481214 -0.056165464 0.01932779
-0.011562849 -0.056763083 0.01803416
-0.010435035 -0.056349196 0.016040325
-0.0094366632 -0.056619983 0.014965236
-0.0082924012 -0.055973709 0.014081389
-0.0073775658 -0.056912653 0.013711452
-0.0063093784 -0.05678441 0.014289021
-0.0052598058 -0.056805909 0.014550984
-0.0042355149 -0.057179451 0.014160305
-0.003163652 -0.056945741 0.014437437
-0.0020945105 -0.056551784 0.014662147
-0.0010490173 -0.056646936 0.015554011
0 -0.056369748 0.0162929
0.0010488965 -0.056640409 0.016407847
0.0021018826 -0.056750834 0.016816139
0.0031324723 -0.056384504 0.017702222
0.0041221585 -0.055649139 0.017747432
0.0052108634 -0.056277327 0.019708216
0.0061980835 -0.055782754 0.020597875
0.0072680269 -0.056067638 0.022870958
0.0082547022 -0.055719238 0.023654342
0.0092528891 -0.055517338 0.024879694
0.01029247 -0.055579342 0.025149912
0.011259194 -0.055272408 0.025531054
0.012328279 -0.055477258 0.025007397
0.013290229 -0.055205569 0.023711115
-0.024817389 -0.054805066 0.022619426
-0.023761768 -0.054755375 0.023390383
-0.022503383 -0.054212697 0.024307311
-0.021616438 -0.054555774 0.025563717
-0.020511186 -0.054354642 0.025563717
-0.01952352 -0.054460343 0.024289578
-0.018524149 -0.054543331 0.023664027
-0.017661178 -0.055061322 0.023520917
-0.016597874 -0.054980457 0.022363335
-0.015564704 -0.054995287 0.020728797
-0.014585862 -0.055217903 0.020055681
-0.013479946 -0.054956704 0.01889655
-0.012436007 -0.054925695 0.017898023
-0.011515466 -0.055483613 0.015855521
-0.010410665 -0.055176523 0.014926612
-0.0094647808 -0.055737045 0.01426658
-0.0084271161 -0.05582964 0.013974547
-0.0073436047 -0.055601578 0.015149891
-0.006287517 -0.055539731 0.014153093
-0.0052999151 -0.056179099 0.013912052
-0.0042093438 -0.055773802 0.012917459
-0.0031617901 -0.055858292 0.014265418
-0.0021089807 -0.055887982 0.014289588
-0.0010486366 -0.055577736 0.015342623
0 -0.055606741 0.015909195
0.0010488784 -0.055590551 0.016768545
0.0021023315 -0.05571178 0.016201049
0.0031365845 -0.055412989 0.017962754
0.0041856491 -0.05545985 0.017600656
0.0051660342 -0.054759964 0.018218368
0.0062360214 -0.055084858 0.019708216
0.0073216055 -0.055435009 0.022023529
0.0083265509 -0.055163398 0.022081435
0.0092804022 -0.05465126 0.024139345
0.01025778 -0.054366231 0.025504202
0.011293466 -0.054413971 0.024999231
0.012365677 -0.054615077 0.025010765
0.013337003 -0.054373935 0.025313348
0.014342284 -0.054295786 0.022411942
-0.024823919 -0.05378516 0.023242801
-0.023648612 -0.053466424 0.02380693
-0.022517264 -0.053222626 0.02527228
-0.021490244 -0.053213939 0.026069492
-0.020666352 -0.053732514 0.025697052
-0.019494228 -0.053352624 0.024404377
-0.018571431 -0.053650804 0.02361095
-0.017529245 -0.053618871 0.023561031
-0.016611921 -0.053988744 0.021803826
-0.015412917 -0.053431448 0.020781904
-0.014589715 -0.054190367 0.019416422
-0.013533788 -0.054135151 0.017862499
-0.012521972 -0.054261882 0.017449766
-0.011635534 -0.055004343 0.015937269
-0.010475074 -0.054470383 0.01416871
-0.009457496 -0.054643314 0.013243973
-0.0084636882 -0.055013973 0.013024598
-0.0073586693 -0.054664399 0.012038559
-0.0063562924 -0.055087868 0.011922032
-0.0053001125 -0.055121172 0.01177302
-0.0042305333 -0.054996934 0.012332857
-0.0032036242 -0.055529486 0.013409436
-0.0021171586 -0.055046126 0.013363153
-0.0010538728 -0.054801382 0.015294254
0 -0.055263758 0.015510678
0.00105351 -0.054782517 0.016241342
0.0021155865 -0.055005249 0.016016185
0.0031814938 -0.055145893 0.01664862
0.0041722464 -0.054239202 0.017193764
0.0052169771 -0.054256562 0.018586904
0.0062841037 -0.054462232 0.019846469
0.0072266296 -0.053683534 0.021633804
0.0083190808 -0.054074023 0.022323608
0.009145746 -0.052842092 0.023398489
0.010254438 -0.053323075 0.02460596
0.011261202 -0.053234778 0.024950206
0.012273926 -0.053187016 0.024950206
0.01332716 -0.05330864 0.025886655
0.014398513 -0.053480193 0.022759527
-0.024789726 -0.052678172 0.023288101
-0.023528295 -0.052171435 0.024810791
-0.022610741 -0.052415807 0.025229126
-0.021528745 -0.052284095 0.026069492
-0.020635424 -0.052620336 0.02548787
-0.019591076 -0.05258657 0.024093151
-0.018599054 -0.052697323 0.023536056
-0.017516294 -0.052548882 0.02333644
-0.016456649 -0.052455571 0.021446645
-0.015462219 -0.052571543 0.020542651
-0.014639184 -0.053328454 0.01878649
-0.013688964 -0.053702861 0.017524153
-0.012533189 -0.053266056 0.016239524
-0.011542111 -0.053513426 0.01416871
-0.010555183 -0.053831432 0.012126565
-0.0095192669 -0.053942516 0.011304855
-0.0085399039 -0.054441888 0.010749072
-0.0075197509 -0.054786757 0.011047274
-0.0063956813 -0.054363292 0.0092978776
-0.0052948357 -0.054007325 0.010437429
-0.0042710658 -0.054456092 0.010391504
-0.0031937514 -0.054293778 0.011059433
-0.0021494024 -0.05480976 0.011059433
-0.001064852 -0.05430745 0.011777937
0 -0.054048494 0.012482971
0.0010461619 -0.053354256 0.013590336
0.0020976269 -0.053489488 0.01498875
0.0031333277 -0.053266574 0.015909195
0.0042130025 -0.05371578 0.017468601
0.005219839 -0.053242359 0.018397003
0.0062476275 -0.053104836 0.018641829
0.0072272248 -0.052655496 0.020902932
0.0082830098 -0.052804191 0.021582305
0.0093042934 -0.052724332 0.022849888
0.010244381 -0.05224634 0.024519056
0.0111936 -0.0518976 0.024775028
0.012257496 -0.052094359 0.024799526
0.013200914 -0.051788207 0.025700986
0.014395451 -0.052440573 0.022389799
-0.024803199 -0.051673334 0.023627639
-0.023732871 -0.051593196 0.02527228
-0.02244496 -0.051011276 0.026162922
-0.02137427 -0.050891116 0.026486725
-0.020508874 -0.051272187 0.02610454
-0.01967179 -0.051767867 0.023962677
-0.018379606 -0.051054467 0.023526043
-0.017589552 -0.051733982 0.02333644
-0.016515924 -0.051612265 0.022451758
-0.01575361 -0.052512031 0.019810289
-0.014592933 -0.052117623 0.0180507
-0.01358158 -0.052236848 0.017082155
-0.012579899 -0.052416246 0.014839321
-0.011626197 -0.052846354 0.012392461
-0.010553622 -0.052768108 0.011317492
-0.0085198116 -0.053248823 0.0081893206
-0.0074589895 -0.053278498 0.0086723566
-0.00641364 -0.053447004 0.0082166493
-0.0053439727 -0.053439733 0.0091475546
-0.0042631966 -0.053289961 0.009193331
-0.0031900245 -0.053167075 0.0094823837
-0.0021317981 -0.053294953 0.009850353
-0.0010695391 -0.053476956 0.0099646449
0 -0.053449895 0.010307074
0.001075287 -0.053764354 0.012395084
0.0021026351 -0.052565876 0.013681054
0.0031637056 -0.052728429 0.01498875
0.0042147953 -0.052684944 0.0162853
0.0052281152 -0.052281156 0.017924786
0.0062775193 -0.052312665 0.017925709
0.0072544538 -0.051817529 0.020800233
0.0082396083 -0.051497549 0.021599978
0.0092696184 -0.051497888 0.023234189
0.010289902 -0.051449511 0.02479136
0.011238989 -0.051086321 0.025383264
0.012297588 -0.051239952 0.025448173
0.013275766 -0.051060643 0.024971128
0.014440553 -0.051573407 0.022766978
-0.024620784 -0.050267432 0.023703843
-0.023701167 -0.050493788 0.025448114
-0.022641901 -0.050429691 0.026331842
-0.021266531 -0.049621902 0.026355386
-0.020604573 -0.050481204 0.025905162
-0.019522704 -0.050348025 0.024762809
-0.018596333 -0.05062335 0.023461968
-0.017623687 -0.050797686 0.022515237
-0.01658191 -0.050782096 0.020891875
-0.015666775 -0.051178131 0.018229872
-0.014619393 -0.051167876 0.016825825
-0.013576278 -0.051172122 0.014962614
0.0021320845 -0.052236065 0.012277305
0.0032018903 -0.05229754 0.014882982
0.0041771047 -0.05116953 0.013738215
0.005290227 -0.051844228 0.016546339
0.0062137111 -0.050745305 0.01781407
0.0072481921 -0.050737344 0.020017803
0.0082295313 -0.050405879 0.020881474
0.0092898691 -0.050578177 0.022847176
0.010219825 -0.050077144 0.024058312
0.011185844 -0.049827851 0.025259256
0.012188082 -0.049768001 0.026418477
0.013212964 -0.049802709 0.025458783
0.014451724 -0.050581031 0.021630675
-0.024889192 -0.049778383 0.024106979
-0.023400994 -0.048836853 0.026624322
-0.022483736 -0.049055424 0.026443332
-0.021515369 -0.049177986 0.026279271
-0.020378523 -0.048908453 0.026115924
-0.01948601 -0.049227815 0.025089949
-0.018580103 -0.049546946 0.023902267
-0.017575473 -0.049624864 0.021918982
-0.016545236 -0.049635705 0.020215958
-0.015673265 -0.050154444 0.017473906
-0.014661874 -0.05026928 0.016945839
0.0031703373 -0.050725397 0.012205005
0.0041974825 -0.050369788 0.011802584
0.0052591176 -0.050487529 0.0162853
0.0061625382 -0.049300306 0.017287582
0.0073245089 -0.050225202 0.020457834
0.0083152782 -0.049891669 0.022173077
0.0091635408 -0.048872218 0.023067266
0.010219244 -0.049052376 0.025237381
0.011171876 -0.048750006 0.026345134
0.012323158 -0.049292631 0.026606321
0.013236574 -0.048873503 0.025338501
0.01434507 -0.049183097 0.021630675
-0.024781834 -0.048531093 0.024889499
-0.023445368 -0.047910098 0.026250869
-0.022571448 -0.048220821 0.026294231
-0.021533083 -0.04819309 0.026121229
-0.020407459 -0.047957528 0.025911599
-0.019322749 -0.047798377 0.025574207
-0.018417833 -0.048091009 0.024762809
-0.017536379 -0.048482932 0.022702157
-0.016608164 -0.04878648 0.020968556
0.0052391603 -0.049248107 0.014620513
0.0062210201 -0.048731323 0.017475933
0.0072931689 -0.048968419 0.020706743
0.0082794456 -0.048641745 0.020982653
0.0092719309 -0.048420087 0.023013473
0.010302755 -0.048422948 0.025697023
0.011257716 -0.048101149 0.025781512
0.01236744 -0.048439141 0.025700182
0.013264838 -0.047957491 0.024990857
0.014299273 -0.048004702 0.02263245
-0.024698939 -0.047339637 0.02493906
-0.023581432 -0.047162864 0.027009189
-0.022564596 -0.047180519 0.028195143
-0.02136647 -0.046802741 0.027315587
-0.020449597 -0.047034077 0.02673617
-0.019569712 -0.0473793 0.026308209
-0.018391512 -0.047000535 0.025271207
-0.017451888 -0.047222756 0.023140639
-0.01648121 -0.047383476 0.021578431
0.0052988115 -0.048749071 0.014356345
0.0063056629 -0.048343416 0.016543448
0.0072253048 -0.047480576 0.019234151
0.0083302706 -0.04789906 0.022413313
0.0091388719 -0.046709795 0.025084853
0.010191252 -0.046879765 0.025952011
0.011119064 -0.046497907 0.026463807
0.012215493 -0.046826061 0.025856346
0.01318442 -0.046652567 0.025006562
0.014290657 -0.046955016 0.023545265
-0.024734883 -0.046377908 0.025433272
-0.023554638 -0.046085164 0.02703318
-0.022355281 -0.045726713 0.028040558
-0.021410573 -0.045879804 0.028161228
-0.020337919 -0.045760319 0.026893079
-0.019486643 -0.046152577 0.026710808
-0.018494731 -0.046236832 0.025671393
-0.017424876 -0.046124674 0.024883687
0.0062114634 -0.046585977 0.016032577
0.0073066372 -0.046971243 0.019107461
0.008280267 -0.046576504 0.021835178
0.0091774194 -0.045887101 0.024245888
0.010221371 -0.045996174 0.026847273
0.011142839 -0.045584343 0.026967764
0.012222555 -0.045834582 0.026637971
0.013259763 -0.045899179 0.025443614
0.01434214 -0.046099741 0.025135607
-0.024671957 -0.04523192 0.025433272
-0.023293871 -0.044562187 0.027557492
-0.022559786 -0.045119572 0.028569192
-0.021468556 -0.044981733 0.028489947
-0.020374972 -0.044824939 0.028092027
-0.019394208 -0.044912901 0.027472496
-0.018472556 -0.045155138 0.026603431
-0.017379211 -0.044981483 0.025092125
-0.016594036 -0.045633595 0.023486108
0.0073311278 -0.046081372 0.019545794
0.0082500605 -0.045375332 0.023620784
0.0092295678 -0.045122333 0.025996953
0.010138744 -0.044610474 0.027645558
0.011131236 -0.044524945 0.02771017
0.012193195 -0.044708382 0.027381808
0.013200399 -0.044678275 0.026221275
0.014290107 -0.044911765 0.025068611
-0.024550747 -0.043986756 0.025131047
-0.023467166 -0.043873396 0.027405471
-0.022187604 -0.043366682 0.028810948
-0.02127724 -0.04356768 0.029412776
-0.020640805 -0.044377733 0.029170752
-0.019236021 -0.043534152 0.027488798
-0.018390294 -0.043932371 0.02739206
-0.017392112 -0.043991812 0.025713682
-0.01639688 -0.044066615 0.024641663
0.0082018459 -0.044084921 0.023749828
0.0091594951 -0.043762036 0.026462466
0.010112981 -0.043485824 0.027442455
0.011188223 -0.043735784 0.027396709
0.012195014 -0.043698803 0.02723825
0.013155893 -0.043515645 0.026114553
0.01430497 -0.043936696 0.024623245
-0.025786858 -0.043321919 0.023658454
-0.024759116 -0.043328457 0.025222003
-0.023299249 -0.042546455 0.027633816
-0.022329293 -0.042628653 0.02914086
-0.021444326 -0.042888653 0.030335873
-0.020339742 -0.042713463 0.030335873
-0.019264081 -0.04258376 0.028551579
-0.018318783 -0.042743832 0.028136224
-0.01745641 -0.043127604 0.026718259
0.0081884777 -0.042989511 0.02439943
0.0091264332 -0.042590022 0.027647018
0.010150192 -0.04263081 0.027976483
0.011144483 -0.042551666 0.027906835
0.012179304 -0.042627566 0.027426779
0.013232623 -0.042751554 0.026963741
0.014291753 -0.04287526 0.02394256
-0.025731396 -0.042199489 0.023678392
-0.024640474 -0.042094145 0.024978697
-0.023413852 -0.041737735 0.027792662
-0.022376312 -0.041701313 0.029496193
-0.021275539 -0.041537955 0.030598462
-0.020300118 -0.041615248 0.030393362
-0.01938759 -0.041836381 0.029774189
-0.018217672 -0.041495811 0.029120952
-0.017354768 -0.041855618 0.028752834
-0.016337501 -0.04186485 0.025961846
0.0080862679 -0.041442126 0.027421623
0.0090141594 -0.041064508 0.027306169
0.010084273 -0.041345522 0.027886271
0.011177355 -0.041661054 0.02671209
0.012169329 -0.041578546 0.026914448
0.013169024 -0.041533079 0.026509732
0.014175752 -0.041514702 0.024421573
-0.025748413 -0.04119746 0.022848248
-0.024666976 -0.041111626 0.024811924
-0.023500508 -0.040870443 0.027462393
-0.022289939 -0.040527161 0.028924048
-0.021165067 -0.040314414 0.029672503
-0.020293074 -0.040586147 0.030215055
-0.019266924 -0.040561941 0.029466391
-0.018180769 -0.040401708 0.029466391
-0.017043769 -0.040102985 0.029526234
-0.016253321 -0.040633298 0.028302073
0.0070758867 -0.040433638 0.027179807
0.0081115868 -0.040557932 0.027478039
0.0091141369 -0.040507276 0.028549135
0.010182632 -0.040730529 0.027306169
0.011100762 -0.040366407 0.02711159
0.012175287 -0.040584289 0.026914448
0.013113984 -0.040350717 0.026954263
0.014216651 -0.040619001 0.02471742
-0.02475586 -0.040228274 0.024628013
-0.02366231 -0.040123045 0.026027203
-0.022362029 -0.039641779 0.027449101
-0.021469316 -0.039871585 0.029004812
-0.020304086 -0.039592966 0.029260516
-0.019257803 -0.039529171 0.029098809
-0.018192844 -0.039417829 0.029648662
-0.017219037 -0.039502494 0.029932022
-0.015917704 -0.038799401 0.029583812
-0.015237209 -0.039616745 0.027802527
0.0061155595 -0.039751135 0.028413624
0.0070066829 -0.039037231 0.02774778
0.0080829896 -0.039404571 0.028549135
0.0091283778 -0.039556306 0.028073817
0.010104432 -0.039407283 0.027812749
0.011089462 -0.039317183 0.02671209
0.012207379 -0.03967398 0.027187347
0.013322204 -0.039966613 0.026954263
0.014195499 -0.039544605 0.024676919
-0.024610499 -0.038966626 0.024227619
-0.0234937 -0.038815677 0.025186777
-0.022480691 -0.038830284 0.027417004
-0.021277105 -0.038501427 0.0288513
-0.02045563 -0.0388657 0.029181182
-0.019345334 -0.038690668 0.029695928
-0.018114217 -0.038241126 0.029695928
-0.017216951 -0.03848495 0.030002773
-0.016217487 -0.038516529 0.029604852
-0.015034289 -0.038086865 0.028739065
-0.014325428 -0.038883306 0.02838397
0.0049969302 -0.037976671 0.028483421
0.0060339859 -0.038215246 0.028721005
0.0070567857 -0.038308267 0.02864185
0.008051415 -0.038244221 0.028742701
0.009168786 -0.038712654 0.028452516
0.010104411 -0.038396765 0.028128475
0.011032031 -0.038110655 0.026923269
0.01219791 -0.038626716 0.027194947
0.013270167 -0.038789719 0.026640564
0.014281263 -0.03876343 0.02464062
-0.023748701 -0.038204432 0.023637265
-0.022587264 -0.037987672 0.026418835
-0.021424646 -0.037748188 0.02679795
-0.020376688 -0.037696876 0.027742535
-0.019326771 -0.037636343 0.029181182
-0.018215587 -0.037443157 0.029788196
-0.01719413 -0.037422519 0.029943019
-0.016163979 -0.037379202 0.029958457
-0.015144262 -0.037355848 0.029844135
-0.014220865 -0.037583716 0.030213833
-0.01299161 -0.036976125 0.030275196
0.0040017418 -0.037016112 0.02768898
0.005029358 -0.037217252 0.028700024
0.0060670781 -0.037413649 0.028933644
0.0070320782 -0.037169557 0.028907925
0.0080829095 -0.037383456 0.028880119
0.0090993494 -0.037408438 0.028074622
0.01017656 -0.037653275 0.028213441
0.011143415 -0.037482399 0.026824057
0.012256819 -0.037791859 0.026433289
0.013205402 -0.037584607 0.024888396
-0.022456285 -0.036746647 0.02468425
-0.021339055 -0.036581237 0.026139647
-0.020264829 -0.03647669 0.026919514
-0.019228553 -0.036433049 0.027681857
-0.018350748 -0.036701497 0.028383523
-0.017245462 -0.036519799 0.029670328
-0.016225884 -0.036508236 0.030316621
-0.015130388 -0.036312927 0.030851126
-0.014119564 -0.036307447 0.030745596
-0.012986656 -0.035963047 0.031089574
-0.011956559 -0.035869677 0.031072944
-0.011077153 -0.036252502 0.029527038
-0.010073224 -0.036263607 0.029426634
0.0020208312 -0.03637496 0.028629512
0.0029911194 -0.035893429 0.029147923
0.0040043471 -0.036039125 0.029139042
0.0050687524 -0.036495019 0.029604405
0.0060535125 -0.036321074 0.029335588
0.0070804241 -0.03641361 0.029026479
0.0081099961 -0.036494978 0.02875638
0.0090839202 -0.036335681 0.028213441
0.010102972 -0.036370702 0.027925551
0.011088506 -0.036289655 0.027122587
0.012180189 -0.036540564 0.025578409
0.01318866 -0.036522441 0.024100393
-0.020524086 -0.035917152 0.02462694
-0.019481791 -0.03588751 0.026714444
-0.018354779 -0.035689849 0.027542412
-0.017092433 -0.035190303 0.028977901
-0.016158558 -0.035346847 0.030316621
-0.015025362 -0.03505918 0.031008035
-0.014052127 -0.035130318 0.030836284
-0.01313947 -0.035375498 0.031683445
-0.012029863 -0.035087101 0.032549679
-0.011039515 -0.035125732 0.031854033
-0.0099126976 -0.034694441 0.031336337
-0.0089607583 -0.034847394 0.029832423
-0.0010031761 -0.035111163 0.029087663
0 -0.034794495 0.030761153
0.0010022649 -0.035079274 0.030015856
0.0020139872 -0.035244774 0.029454589
0.0030074492 -0.035086907 0.03036958
0.0040640258 -0.035560224 0.02936253
0.0049811895 -0.034868326 0.029335588
0.0060872789 -0.035509128 0.02897191
0.0071423519 -0.035711762 0.029009789
0.008082144 -0.035359379 0.028262317
0.0090984898 -0.035383016 0.028003186
0.010133735 -0.035468075 0.026552051
0.011201154 -0.035640035 0.026333272
0.012308187 -0.035898879 0.024599999
-0.01736645 -0.034732901 0.027062625
-0.016356278 -0.034757093 0.028471857
-0.015278109 -0.034630381 0.030418187
-0.014095086 -0.034230921 0.030658752
-0.013138332 -0.034361791 0.031336337
-0.011933326 -0.033811092 0.032270551
-0.011128058 -0.034395814 0.031795353
-0.01000714 -0.03402428 0.031795353
-0.0091080908 -0.034408342 0.031560093
-0.0079711303 -0.033877306 0.029517233
-0.0069763395 -0.033885077 0.030577123
-0.0060200556 -0.034113649 0.030244201
-0.0049752691 -0.033831831 0.030244201
-0.0040194518 -0.034165341 0.030935705
-0.0030013493 -0.03401529 0.031142831
-0.0020006874 -0.034011684 0.031270385
-0.0009985303 -0.033950031 0.03165406
0 -0.03428065 0.031706721
0.0009968899 -0.033894256 0.031494707
0.0020202508 -0.034344263 0.03054297
0.003035068 -0.034397438 0.030583501
0.0040374347 -0.034318198 0.029785067
0.0050281235 -0.034191243 0.028861731
0.0061181062 -0.034669269 0.028003186
0.0070588342 -0.034285769 0.027793139
0.0082335463 -0.034992572 0.027326524
0.0091436245 -0.034542583 0.025480062
-0.015233914 -0.033514611 0.028708905
-0.013860792 -0.032671869 0.029783487
-0.013148958 -0.033378124 0.030132562
-0.01202619 -0.033072021 0.031425208
-0.011045507 -0.033136521 0.031329006
-0.010042025 -0.033138681 0.032129049
-0.0090514775 -0.033188753 0.03204456
-0.0081254095 -0.033517312 0.031503409
-0.0071551478 -0.033731412 0.031154841
-0.0060665146 -0.033365831 0.031497866
-0.0050619813 -0.033409078 0.031535357
-0.0040426496 -0.033351857 0.031380564
-0.0030444493 -0.033488944 0.031427115
-0.0020211567 -0.033349086 0.031662881
-0.0010163002 -0.033537906 0.031870097
0 -0.033275302 0.03188774
0.0010013509 -0.03304458 0.031494707
0.0020402381 -0.033663929 0.030507773
0.0030325998 -0.033358596 0.02913335
0.0040253918 -0.03320948 0.029265106
0.0050352453 -0.033232618 0.027389765
0.0060574003 -0.0333157 0.026344806
0.0071028336 -0.033484787 0.02547732
-0.014109358 -0.032249961 0.026734859
-0.013153188 -0.032377079 0.029428482
-0.012060692 -0.032161847 0.029695183
-0.011178731 -0.032519944 0.029558629
-0.01001063 -0.032034017 0.029977322
-0.0091178371 -0.032418977 0.03058061
-0.0081746913 -0.032698765 0.031037003
-0.0069774962 -0.031897128 0.031163067
-0.0060856058 -0.032456566 0.031909496
-0.0050572292 -0.032366268 0.031997085
-0.0040480844 -0.032384675 0.031545609
-0.0030266477 -0.032284241 0.031510562
-0.0020226587 -0.032362539 0.031662881
-0.0010037413 -0.032119721 0.031972677
0 -0.032184005 0.031591862
0.0010135878 -0.03243481 0.03070581
0.0020047894 -0.032076631 0.029794604
0.0030244596 -0.032260902 0.028071553
0.0040544057 -0.032435246 0.026981205
0.0050857943 -0.032549083 0.025428504
-0.013218951 -0.031522118 0.026734859
-0.012273057 -0.031705402 0.027227134
-0.011122091 -0.031344075 0.028709382
-0.010070324 -0.031218005 0.028795987
-0.0091322009 -0.03145536 0.029186726
-0.0080673713 -0.031261064 0.029419452
-0.0070209843 -0.031092932 0.030544162
-0.0061473404 -0.031761263 0.030766726
-0.0050956034 -0.031592742 0.030992746
-0.0040153204 -0.031118732 0.031091332
-0.0030398238 -0.031411514 0.030719012
-0.0020222038 -0.031344157 0.030995697
-0.0010146979 -0.03145564 0.030953944
0 -0.03164608 0.030953944
0.0010042415 -0.031131489 0.029514521
0.0020180696 -0.031280082 0.028490812
0.0030896121 -0.031925995 0.026065439
-0.011107483 -0.030293135 0.026389897
-0.010213255 -0.030639766 0.027791858
-0.0091065755 -0.030355254 0.02822417
-0.0081306649 -0.030489994 0.028232157
-0.0070623183 -0.030267078 0.029913455
-0.0060573076 -0.030286539 0.030265301
-0.0050655613 -0.030393368 0.030222923
-0.0040552379 -0.030414281 0.030217618
-0.0030331034 -0.030331034 0.030147552
-0.0020168712 -0.030253069 0.030082613
-0.0010163496 -0.03049049 0.029701173
0 -0.030215139 0.029326618
0.0010198156 -0.030594466 0.027279586
-0.010195672 -0.02956745 0.025406659
-0.0091202836 -0.029387582 0.026896596
-0.0081326421 -0.029480828 0.026938528
-0.007138527 -0.029573899 0.028800815
-0.0061456189 -0.029703826 0.028336167
-0.0050476384 -0.029276304 0.028926224
-0.0040518455 -0.029375883 0.029265285
-0.0030644925 -0.029623428 0.029172033
-0.0020385266 -0.029558634 0.029202044
-0.0010103937 -0.029301418 0.027742416
-0.0082299262 -0.028804742 0.025057495
-0.0071295747 -0.028518299 0.026374966
-0.0061536413 -0.028716993 0.027013063
-0.0051215193 -0.028680511 0.027233392
-0.0040535373 -0.028374759 0.02725479
-0.0030502551 -0.028469048 0.027153403
-0.0020311021 -0.02843543 0.027148277
0 0 0 1 0 0 0 1 0 0 0 1 0 0 0 0 0 862 1 0 0
