ply
format ascii 1.0
comment PCL generated
element vertex 852
property float x
property float y
property float z
element camera 1
property float view_px
property float view_py
property float view_pz
property float x_axisx
property float x_axisy
property float x_axisz
property float y_axisx
property float y_axisy
property float y_axisz
property float z_axisx
property float z_axisy
property float z_axisz
property float focal
property float scalex
property float scaley
property float centerx
property float centery
property int viewportx
property int viewporty
property float k1
property float k2
end_header
-0.007134675 -0.087654576 0.023880601
-0.0061060167 -0.087519579 0.023880601
-0.0051147421 -0.087973572 0.024008721
-0.0040904731 -0.087945171 0.023650557
-0.0030310792 -0.086890936 0.023650557
-0.011129032 -0.085997067 0.023737729
-0.010073814 -0.085627422 0.025040358
-0.0091839395 -0.086737216 0.025099844
-0.0081243208 -0.086320907 0.024755269
-0.0071303891 -0.086583301 0.025315195
-0.0061030542 -0.086459935 0.025287628
-0.005109007 -0.086853117 0.02530551
-0.0040830215 -0.086764209 0.02530551
-0.0030709184 -0.087009355 0.025694609
-0.0020506496 -0.087152608 0.02459681
-0.0010182961 -0.086555168 0.024689734
0 -0.087493323 0.024028569
0.001023843 -0.087026648 0.024164289
-0.014173212 -0.085039273 0.023690879
-0.013106851 -0.084690422 0.024201065
-0.012236966 -0.085658766 0.024964601
-0.011290825 -0.086220853 0.025370449
-0.010266225 -0.086236291 0.025671214
-0.0091891186 -0.085765116 0.025719523
-0.0081532476 -0.085609101 0.025711834
-0.0072108433 -0.086530119 0.026244193
-0.0061401501 -0.085962109 0.026115626
-0.0051593254 -0.086676672 0.025728106
-0.0041624196 -0.087410815 0.026115626
-0.003057613 -0.085613169 0.026131749
-0.0020387971 -0.085629486 0.025454015
-0.0010194674 -0.08563526 0.025262207
0 -0.085515216 0.025459915
0.0010173788 -0.085459821 0.025100768
0.0020587281 -0.086466581 0.024537623
0.0030284331 -0.084796131 0.024525285
-0.01731859 -0.084555469 0.025886357
-0.016177369 -0.083920099 0.025941074
-0.015205278 -0.084135875 0.02730608
-0.014454292 -0.085693307 0.026960999
-0.013182443 -0.084164828 0.024851352
-0.012151416 -0.084047295 0.025791556
-0.011320103 -0.085415326 0.026222467
-0.010381179 -0.086163796 0.025671214
-0.0091587938 -0.084464438 0.025744736
-0.0082896026 -0.08600463 0.026165336
-0.007179766 -0.085131519 0.026090086
-0.0061750989 -0.08542221 0.025315195
-0.0051851887 -0.086074136 0.025358051
-0.0041086217 -0.085253902 0.025619656
-0.0030763363 -0.085111976 0.025454015
-0.0020543847 -0.085256964 0.025454015
-0.0010288135 -0.085391529 0.025262207
0 -0.085570179 0.025936961
0.0010198581 -0.084648214 0.026524723
0.0020357571 -0.084483922 0.026705861
0.0030892321 -0.085468754 0.026733726
0.0040759058 -0.084575042 0.024527788
-0.019361457 -0.083559968 0.027664095
-0.018251011 -0.083143502 0.028060287
-0.017424542 -0.084047794 0.027251363
-0.016215919 -0.083106585 0.027562499
-0.015403508 -0.084205851 0.027014285
-0.014392901 -0.084301285 0.027416825
-0.013240959 -0.083519898 0.025519788
-0.012393148 -0.084686518 0.024952501
-0.011346717 -0.084584631 0.025443971
-0.010122966 -0.083008327 0.024900168
-0.0092783412 -0.084536009 0.024379313
-0.008232546 -0.084383599 0.025370449
-0.0071724467 -0.084020093 0.024308145
-0.0061319247 -0.083802976 0.023960233
-0.0051417621 -0.084324904 0.024045348
-0.0040772045 -0.083582699 0.024729341
-0.0030590429 -0.083613843 0.023949504
-0.0020500249 -0.08405102 0.023964256
-0.0010235283 -0.083929323 0.024175555
0 -0.084287137 0.024578393
0.0010173758 -0.083424821 0.025261372
0.0020576706 -0.084364504 0.026189208
0.0030579676 -0.083584458 0.025982678
0.0040473393 -0.082970463 0.02633369
0.0051196627 -0.08396247 0.026670516
0.0060806791 -0.083102621 0.027309179
-0.021275725 -0.082063504 0.02680558
-0.02024837 -0.082005896 0.028234988
-0.019360699 -0.082537711 0.028197944
-0.018323328 -0.082454972 0.028437942
-0.017255411 -0.082216956 0.02829361
-0.016263971 -0.082336344 0.028031766
-0.015237243 -0.082281113 0.02666828
-0.014250256 -0.082447909 0.025849223
-0.013287032 -0.08278843 0.02399233
-0.012337556 -0.0832785 0.02379173
-0.011310208 -0.083284251 0.023762822
-0.010249197 -0.083018497 0.023701787
-0.0093248216 -0.083923399 0.023733139
-0.0082442211 -0.083472729 0.024398804
-0.0072211283 -0.083558768 0.024091721
-0.0061438871 -0.082942478 0.024091721
-0.0051021478 -0.082654789 0.024333358
-0.0041439785 -0.083915561 0.024511129
-0.0030899416 -0.08342842 0.023485422
-0.0020425415 -0.082722932 0.023843169
-0.0010313799 -0.083541766 0.023878574
0 -0.08293692 0.023706436
0.0010267184 -0.083164185 0.024139076
0.002041705 -0.082689047 0.02552703
0.0030691449 -0.082866907 0.025261164
0.0041140988 -0.083310492 0.026212305
0.0050498596 -0.081807725 0.027345628
0.0062037627 -0.083750792 0.028330177
0.007123251 -0.08242619 0.028764784
0.0081476634 -0.082495086 0.028649569
0.009174794 -0.082573146 0.027554125
-0.022347961 -0.081265308 0.026995063
-0.02131859 -0.081213675 0.029029757
-0.020291582 -0.081166327 0.028778732
-0.019349616 -0.081472062 0.028468877
-0.018346149 -0.081538446 0.028722763
-0.017263742 -0.081241138 0.02807492
-0.016246013 -0.081230067 0.027186602
-0.015311822 -0.08166305 0.026364952
-0.014350839 -0.082004793 0.02549088
-0.013303553 -0.081868015 0.02407074
-0.012332044 -0.082213625 0.024806976
-0.011366299 -0.082663991 0.023762822
-0.010324684 -0.082597472 0.023303807
-0.0092217308 -0.081970938 0.024308145
-0.0082955528 -0.082955524 0.024392128
-0.0072392663 -0.082734473 0.02403909
-0.0061500869 -0.082001157 0.023861021
-0.0051497542 -0.082396068 0.024594456
-0.0040921727 -0.081843451 0.024766415
-0.0030821087 -0.082189567 0.023539811
-0.0020727073 -0.082908295 0.023854703
-0.0010272748 -0.082181975 0.023926735
0 -0.082540974 0.024331301
0.0010353465 -0.082827725 0.02458033
0.0020418554 -0.081674211 0.025291055
0.0030799562 -0.082132168 0.025418937
0.0040840418 -0.081680827 0.025573432
0.0050798031 -0.081276849 0.027519763
0.0060973559 -0.081298076 0.028569251
0.0071250219 -0.081428818 0.029018432
0.0081128646 -0.081128642 0.029018432
0.009072707 -0.080646284 0.028206676
0.010150146 -0.081201166 0.027882814
-0.022344157 -0.080235839 0.029017866
-0.021486834 -0.080831416 0.030283004
-0.020487675 -0.080926321 0.029258192
-0.019333869 -0.080388188 0.029092133
-0.018430205 -0.080888122 0.027919084
-0.017364444 -0.080693588 0.027233303
-0.016415397 -0.081051022 0.026710093
-0.015153245 -0.079807088 0.025545031
-0.014279014 -0.080574438 0.024456292
-0.013304465 -0.080850214 0.023836315
-0.012411839 -0.081711277 0.023913592
-0.011317791 -0.081282318 0.022928298
-0.01023214 -0.080833912 0.022883236
-0.0092325965 -0.081041679 0.022241354
-0.0082846843 -0.081811257 0.022354513
-0.0072469143 -0.081786603 0.02281478
-0.0061968099 -0.08159133 0.022762895
-0.0051686652 -0.081664912 0.02323404
-0.0041226023 -0.08142139 0.023102313
-0.0031060141 -0.081791706 0.022739738
-0.0020739376 -0.081920527 0.022739738
-0.0010295007 -0.081330553 0.023283213
0 -0.081231557 0.024173617
0.0010225616 -0.080782361 0.024220943
0.0020379263 -0.080498084 0.025127202
0.0030816081 -0.081149012 0.025662482
0.0040955646 -0.0808874 0.025653303
0.0050642868 -0.080015734 0.026074558
0.0061673815 -0.081203856 0.02852571
0.007032969 -0.079372078 0.029418468
0.0081487997 -0.080469392 0.029623181
0.0091136433 -0.07999754 0.029242963
0.010076057 -0.079600856 0.028936863
0.011088225 -0.079633616 0.028288305
-0.02217851 -0.078632899 0.029081106
-0.02139529 -0.07946822 0.030289799
-0.020154217 -0.07860145 0.029264987
-0.01929755 -0.079221517 0.029242665
-0.018311903 -0.079351582 0.027919084
-0.017263865 -0.079210676 0.027457118
-0.016261438 -0.079274513 0.026458442
-0.015503093 -0.080616087 0.024573207
-0.014104042 -0.078579664 0.023706347
-0.013357404 -0.08014442 0.023617357
-0.012346631 -0.080253102 0.022948176
-0.011240215 -0.079703346 0.022832215
-0.010185518 -0.079447046 0.021599501
-0.0092498818 -0.080165647 0.021695971
-0.0083053522 -0.080977179 0.021642804
-0.0071648862 -0.0798373 0.02264151
-0.0061986605 -0.080582589 0.022462487
-0.0050879247 -0.079371624 0.022691429
-0.0041283802 -0.080503419 0.022521615
-0.0030634946 -0.079650857 0.022777021
-0.0020786282 -0.081066497 0.022167236
-0.001028072 -0.080189615 0.022250801
0 -0.079947107 0.023764104
0.0010389045 -0.081034556 0.024173617
0.0020497816 -0.079941481 0.02478534
0.003074626 -0.079940274 0.0256432
0.0040761949 -0.079485804 0.02565068
0.0051145549 -0.079787061 0.02639991
0.0061972244 -0.080563918 0.028366923
0.0070543028 -0.078605086 0.029600501
0.0081378091 -0.079343632 0.029903024
0.0090490198 -0.078424841 0.029842198
0.010143638 -0.079120375 0.030154586
0.010961842 -0.077729426 0.029598504
0.012193725 -0.079259217 0.028958768
-0.023287782 -0.077963442 0.028595865
-0.022458484 -0.078604698 0.031100243
-0.021029791 -0.077109233 0.031072736
-0.020291585 -0.078122608 0.030403435
-0.01908835 -0.077358052 0.029313803
-0.018208457 -0.077891737 0.028567791
-0.017397005 -0.078798197 0.028487474
-0.01621254 -0.078022853 0.026709825
-0.015380181 -0.078951597 0.025660664
-0.014335143 -0.078843288 0.023775101
-0.013304507 -0.078803621 0.023992985
-0.012363165 -0.07933031 0.023896933
-0.011366606 -0.07956624 0.0227063
-0.010332135 -0.079557441 0.021599501
-0.0092520444 -0.079156376 0.021659493
-0.0082646897 -0.079547636 0.021404296
-0.0072306725 -0.079537399 0.022119224
-0.0062435828 -0.08012598 0.022477925
-0.0052306992 -0.080552772 0.022119224
-0.0041370136 -0.079637513 0.022046953
-0.003103185 -0.079648413 0.022270143
-0.0020779222 -0.080000006 0.021483183
-0.0010241811 -0.078861944 0.021483183
0 -0.080102399 0.022915542
0.0010225645 -0.07873746 0.023942173
0.0020477448 -0.078838177 0.02436009
0.0030900724 -0.079311863 0.025372654
0.0041046818 -0.079015128 0.026030123
0.0050627589 -0.077966489 0.025624037
0.0061376137 -0.078766041 0.026822001
0.0072084619 -0.07929308 0.029018432
0.0081277182 -0.078229293 0.029880524
0.0090408521 -0.077349514 0.030970961
0.010198053 -0.078525007 0.030746996
0.01102753 -0.077192709 0.030433148
0.012187205 -0.078201234 0.029864609
-0.023587368 -0.077940866 0.028766781
-0.022166142 -0.076573946 0.031359345
-0.021258064 -0.07693395 0.031041592
-0.020278189 -0.077057123 0.030188233
-0.019167628 -0.076670513 0.029924065
-0.018313792 -0.077324905 0.028324962
-0.017425368 -0.077901639 0.028130561
-0.016278429 -0.077322535 0.025756747
-0.01538996 -0.077975802 0.024955988
-0.014453225 -0.078460366 0.023425072
-0.013212566 -0.077242695 0.024031818
-0.012350899 -0.078222364 0.023332179
-0.011356037 -0.078459896 0.022830069
-0.01042074 -0.079197623 0.022696584
-0.0093506351 -0.078960925 0.021420985
-0.008269459 -0.078559868 0.019278705
-0.0071874694 -0.078035384 0.019588441
-0.006232806 -0.078948878 0.020617932
-0.0051744105 -0.078651048 0.020846486
-0.0041477876 -0.078807965 0.020882726
-0.0031076714 -0.078727677 0.02153644
-0.002056597 -0.078150682 0.020789593
-0.0010320818 -0.078438215 0.020789593
0 -0.078534052 0.022169828
0.001044961 -0.079417035 0.022770375
0.0020467727 -0.077777363 0.023190022
0.0030981468 -0.07848639 0.024510443
0.0041029816 -0.077956647 0.024901509
0.0051606335 -0.078441635 0.024950653
0.006132897 -0.077683367 0.026822001
0.0071040355 -0.077129528 0.028683275
0.0081606945 -0.077526599 0.029880524
0.0090089068 -0.076075219 0.02991733
0.010133287 -0.077012986 0.031314492
0.011077407 -0.076534815 0.031480998
0.012080012 -0.076506741 0.030358672
0.013018756 -0.076109655 0.029171973
-0.023176959 -0.075577043 0.031291217
-0.022281542 -0.075959809 0.031909019
-0.021100562 -0.075359151 0.031525105
-0.020222761 -0.075835362 0.030890018
-0.019236628 -0.07593406 0.030423731
-0.01822944 -0.075956002 0.029435754
-0.017424133 -0.076871179 0.028501123
-0.016350033 -0.076640777 0.026148796
-0.015492192 -0.07746096 0.025020212
-0.014307189 -0.076645657 0.023992985
-0.013355635 -0.077051744 0.023355126
-0.012368027 -0.077300169 0.022573382
-0.01120832 -0.076420367 0.021604478
-0.010400921 -0.078006916 0.021880627
-0.0093597481 -0.077997908 0.020736456
-0.0083547169 -0.078325473 0.020364732
-0.0072956081 -0.07816723 0.020038873
-0.0062845452 -0.078556813 0.02044028
-0.0052124248 -0.078186378 0.020260125
-0.0041983393 -0.078718871 0.02067849
-0.0031236508 -0.078091271 0.02133292
-0.0020825851 -0.078096941 0.02044943
-0.0010371667 -0.077787511 0.020244896
0 -0.077909105 0.020524174
0.001030814 -0.077311054 0.021920681
0.0020749141 -0.077809274 0.022113413
0.0030824791 -0.077061981 0.023317933
0.0041211518 -0.077271596 0.024436593
0.0051584905 -0.077377364 0.024820656
0.0061425231 -0.076781549 0.026668698
0.0071630599 -0.076747075 0.028566986
0.0081140799 -0.076069497 0.029439479
0.0090836529 -0.075697109 0.030075192
0.010103153 -0.075773656 0.031671673
0.011065976 -0.075449839 0.032079905
0.012178247 -0.076114051 0.031439275
0.013188991 -0.076090336 0.029795021
-0.024526782 -0.07562425 0.031677365
-0.023172213 -0.074554078 0.031788617
-0.022246759 -0.074830011 0.031772435
-0.021117579 -0.074414328 0.031525105
-0.02018992 -0.07470271 0.030729473
-0.019471725 -0.075837247 0.030481607
-0.018315258 -0.075296067 0.028900862
-0.017220136 -0.074958242 0.027296126
-0.016476246 -0.076202646 0.026104033
-0.015385911 -0.075903825 0.025426805
-0.014501539 -0.076650992 0.023978561
-0.013349954 -0.075992048 0.022777289
-0.01245126 -0.076782778 0.022120982
-0.011493564 -0.077320345 0.021049231
-0.010349256 -0.076584503 0.020393908
-0.0093439985 -0.076828435 0.019832402
-0.00835416 -0.077275984 0.019806057
-0.0072716139 -0.07687135 0.019745886
-0.0062237042 -0.076759025 0.01992926
-0.0052057775 -0.077045515 0.0202806
-0.0041529844 -0.076830208 0.020176023
-0.0031351293 -0.077333197 0.020655483
-0.0020965931 -0.077573948 0.020430595
-0.0010447087 -0.077308446 0.019243121
0 -0.077122323 0.020141065
0.0010331367 -0.076452121 0.020789593
0.0020549826 -0.07603436 0.022319168
0.0030932198 -0.076299421 0.023238301
0.0041088574 -0.076013863 0.024056643
0.0050639873 -0.074947014 0.024779707
0.0060751438 -0.074926779 0.026209861
0.0071897833 -0.076006286 0.027816832
0.0081551373 -0.075435027 0.029890031
0.0090958318 -0.074787959 0.030333936
0.010143063 -0.075058669 0.032194525
0.011053811 -0.074362002 0.032683164
0.012007523 -0.074046396 0.032222092
0.013199595 -0.075136155 0.03125158
-0.024149621 -0.073455103 0.032327324
-0.023254108 -0.073806517 0.03206858
-0.022134067 -0.073444866 0.031997323
-0.021130715 -0.073454395 0.031931162
-0.020186892 -0.073682159 0.030775696
-0.019392699 -0.074508794 0.030562609
-0.018294258 -0.074193388 0.029105127
-0.017280756 -0.0742056 0.027356714
-0.016242845 -0.074107982 0.026532173
-0.01544669 -0.0751739 0.023984134
-0.014459299 -0.075394921 0.022777289
-0.013482925 -0.075711809 0.021743238
-0.012424412 -0.075581841 0.021132827
-0.011456455 -0.076029204 0.0197981
-0.010311278 -0.075272337 0.019275397
-0.0093740551 -0.076034009 0.019340396
-0.0083401203 -0.076103598 0.019214034
-0.0072601507 -0.075713001 0.019384652
-0.0062923259 -0.076556638 0.019462019
-0.0052227862 -0.076252684 0.019375354
-0.0041596289 -0.075913228 0.019236267
-0.0031395818 -0.076396495 0.019430637
-0.0020768906 -0.075806506 0.019187629
-0.0010328761 -0.075399958 0.018920392
0 -0.076188385 0.018971741
0.0010464927 -0.076393969 0.019366354
0.0020842087 -0.076073617 0.020282567
0.0031014322 -0.07546819 0.023922741
0.0041425936 -0.075602338 0.024573386
0.0050887302 -0.074295469 0.024979323
0.0061750086 -0.075129278 0.026209861
0.0071165683 -0.074215643 0.027777284
0.0082192132 -0.075000323 0.029798329
0.0091257794 -0.074020222 0.031314492
0.0099574737 -0.072689563 0.031998873
0.011035635 -0.073236495 0.032527149
0.01209344 -0.073568426 0.032248825
0.013205457 -0.074153721 0.031384319
0.014186529 -0.07397262 0.02949211
-0.02430827 -0.072924808 0.032502353
-0.023182973 -0.072572783 0.033258826
-0.022291405 -0.072953686 0.032963455
-0.02120289 -0.07269562 0.032761723
-0.020249672 -0.07289882 0.031677425
-0.019282736 -0.07307142 0.029805034
-0.018386444 -0.073545776 0.028751612
-0.017357638 -0.0735147 0.027174711
-0.016384283 -0.073729277 0.024233103
-0.015574899 -0.074759513 0.022020012
-0.014516856 -0.074658111 0.022120208
-0.013439711 -0.074435323 0.020882487
-0.012548629 -0.075291775 0.020848304
-0.011501071 -0.075279735 0.018924296
-0.010431586 -0.075107418 0.018643767
-0.0095007401 -0.076005921 0.017814666
-0.0083336979 -0.075003281 0.018101037
-0.0073246583 -0.07533934 0.018103451
-0.0062896865 -0.075476237 0.018749058
-0.0052130762 -0.075068295 0.018781722
-0.0042224219 -0.076003589 0.017941087
-0.0031481604 -0.075555854 0.017926067
-0.0020937645 -0.07537552 0.017914355
-0.0010468318 -0.075371884 0.018306971
0 -0.074944355 0.018814564
0.0010416708 -0.075000294 0.018937171
0.0020583584 -0.074100904 0.019928455
0.003133218 -0.075197227 0.022720754
0.0041165678 -0.074098215 0.024056643
0.00515607 -0.074247405 0.025090843
0.0060866307 -0.073039562 0.026212096
0.0071654725 -0.073702 0.027908534
0.0081647392 -0.073482648 0.029286951
0.0090288082 -0.072230466 0.030357778
0.010066828 -0.072481163 0.032900602
0.010968547 -0.071794122 0.033206403
0.012108099 -0.072648592 0.0329687
0.013125473 -0.072694927 0.031184375
-0.025311818 -0.071885563 0.03237617
-0.024274172 -0.071811087 0.032911599
-0.023118535 -0.071365908 0.03449595
-0.022285204 -0.071920432 0.033090413
-0.020962747 -0.07087405 0.033372968
-0.020106113 -0.071376696 0.032705635
-0.019485919 -0.072815798 0.030313909
-0.018219495 -0.071865782 0.028965294
-0.017288664 -0.072205588 0.027982563
-0.016591016 -0.073622629 0.024354488
-0.015475443 -0.073250428 0.022714317
-0.014660059 -0.074347444 0.021666765
-0.013528216 -0.073884867 0.020559669
-0.012384829 -0.0732769 0.019291937
-0.011457196 -0.073950998 0.01759842
-0.010502122 -0.074565068 0.017301887
-0.0094032949 -0.074181549 0.017235011
-0.0042141648 -0.074801423 0.015767515
-0.0031147634 -0.073716067 0.016782224
-0.0020867467 -0.074079506 0.017211765
-0.0010471051 -0.074344464 0.017068803
0 -0.07398662 0.018707603
0.0010431426 -0.074063122 0.020028055
0.002084225 -0.073989987 0.020201445
0.0031165646 -0.073758692 0.021600425
0.0041586934 -0.073816806 0.023759484
0.0051411935 -0.073004954 0.024652243
0.0061281659 -0.072516628 0.026523232
0.0071240338 -0.072258055 0.028204829
0.0080573466 -0.071508951 0.030201167
0.0092352927 -0.072856195 0.033087075
0.010059183 -0.071420193 0.034561694
0.010925762 -0.070520826 0.034462482
0.012029084 -0.071172081 0.034447044
0.013012581 -0.071068704 0.031441778
0.014145967 -0.071740255 0.030367404
-0.025393037 -0.071100503 0.031452686
-0.024319047 -0.070930555 0.033108562
-0.023077354 -0.070235424 0.034613609
-0.022168035 -0.070534654 0.033602178
-0.021115283 -0.070384271 0.033632219
-0.020049894 -0.070174634 0.033515036
-0.019442931 -0.071631849 0.03120935
-0.018406559 -0.071581066 0.028965294
-0.01758883 -0.072424591 0.027678579
-0.015524363 -0.072447024 0.021723688
-0.014469669 -0.072348349 0.020249188
-0.0052992422 -0.074189395 0.0092469752
-0.001040165 -0.072811544 0.015914917
0 -0.072517455 0.016991168
0.0010419668 -0.072937675 0.01854074
0.0020763469 -0.072672136 0.019055545
0.0031344735 -0.073137715 0.020472735
0.0041136243 -0.071988419 0.023850769
0.0051181661 -0.071654327 0.024716288
0.0060565555 -0.070659816 0.027150184
0.0071182498 -0.071182497 0.028927028
0.00819002 -0.071662672 0.031138659
0.0091846548 -0.071436204 0.03330344
0.010034657 -0.070242599 0.035276353
0.010985246 -0.069906108 0.035355777
0.011993156 -0.069960073 0.03467235
0.013122711 -0.070660755 0.031682312
-0.025177304 -0.069489352 0.031406969
-0.024183869 -0.069528624 0.034584999
-0.023220897 -0.06966269 0.033833146
-0.022007076 -0.069022194 0.033806145
-0.020977983 -0.068927661 0.033876359
-0.019977912 -0.068923794 0.03366074
-0.019341631 -0.070240662 0.033017159
-0.015713746 -0.072283231 0.021159828
-0.010658208 -0.073541641 0.0085083544
-0.0096232174 -0.073778003 0.0096724331
-0.008551049 -0.073752791 0.0095898509
-0.0075094234 -0.074021459 0.0080414116
-0.0064278897 -0.073920734 0.008092761
-0.005422845 -0.074835263 0.007109493
-0.0043518543 -0.075069487 0.0071972609
-0.0032372812 -0.074457474 0.0086771846
0 -0.072286956 0.015253305
0.0010496168 -0.072423562 0.016258001
0.0020976523 -0.072369002 0.017903328
0.0031110998 -0.071555294 0.020016074
0.0051431563 -0.070975557 0.024893075
0.0061171479 -0.070347197 0.027836382
0.007084663 -0.069834538 0.029020965
0.0090041608 -0.069031902 0.034202576
0.010008853 -0.069061086 0.037174523
0.010936356 -0.068600781 0.037343711
0.011929017 -0.068591848 0.035388738
-0.025388733 -0.069057353 0.032140404
-0.023943299 -0.067839354 0.033753663
-0.02302761 -0.068081632 0.034783244
-0.0220994 -0.068307236 0.034624785
-0.020825321 -0.067434371 0.035259455
-0.020095475 -0.068324618 0.034787953
-0.019100944 -0.068361275 0.03366074
-0.01753105 -0.070124201 0.027699322
-0.013942104 -0.072927929 0.0089598298
-0.012945599 -0.073358394 0.0099162459
-0.011780376 -0.072824143 0.0086750984
-0.010568892 -0.071868464 0.0080128312
-0.0095752934 -0.072346665 0.0085398853
-0.0085180625 -0.072403535 0.0076908469
-0.0075003444 -0.072860487 0.0070956349
-0.0064132526 -0.072683528 0.0073780119
-0.0053962488 -0.073388986 0.0070267916
-0.0043608774 -0.074134924 0.0060249269
-0.0032222176 -0.073036931 0.0064386427
-0.0021571948 -0.073344618 0.0073796213
-0.0010690492 -0.072695345 0.0074382424
0 -0.072188698 0.010330379
0.0010636389 -0.07232745 0.013324499
0.0020926339 -0.071149558 0.015523851
0.0031199681 -0.070719279 0.01892671
0.0090084458 -0.068063818 0.037323266
0.010047268 -0.068321422 0.038791448
0.010968666 -0.067806304 0.038753957
0.011994544 -0.067969084 0.038281143
-0.025184527 -0.067494534 0.032884628
-0.024107253 -0.067299418 0.033018976
-0.02315855 -0.067461863 0.034568399
-0.022039743 -0.067121036 0.035029233
-0.021145359 -0.067463763 0.035693854
-0.020028017 -0.067093864 0.035722047
-0.018877067 -0.066566505 0.03594929
-0.017774183 -0.070051193 0.028644651
-0.013811075 -0.071180157 0.0077538192
-0.012822508 -0.071592338 0.0079257488
-0.011788512 -0.071802758 0.0080626607
-0.010588856 -0.070945337 0.0075876415
-0.0096165566 -0.071589924 0.0078385174
-0.0085744672 -0.071811162 0.0081366599
-0.007431868 -0.071133591 0.0070956349
-0.0064573744 -0.072107352 0.0069308877
-0.0053795208 -0.072085582 0.0065443218
-0.0042746291 -0.071600042 0.0062101483
-0.0032276888 -0.072085053 0.007168144
-0.0021365506 -0.071574442 0.0082768202
-0.0010788693 -0.072284244 0.0083525181
0 -0.071079716 0.010163307
0.0021062414 -0.070559092 0.014095217
0.0088308686 -0.065740913 0.038124114
0.0099515896 -0.066675656 0.039668977
0.011923721 -0.066574112 0.040326893
-0.025166154 -0.066438638 0.03276062
-0.024059316 -0.066163123 0.033826649
-0.022980003 -0.065942615 0.034435719
-0.021985194 -0.065955579 0.035099477
-0.020833416 -0.065476447 0.036283225
-0.01985343 -0.065516315 0.03620103
-0.018770503 -0.065202802 0.036447078
-0.017920891 -0.065709934 0.035709471
-0.012658829 -0.06962356 0.0060535669
-0.011617969 -0.069707811 0.0075209737
-0.010543218 -0.069585234 0.0079336762
-0.0095516965 -0.070045777 0.0084567964
-0.0085995886 -0.070946604 0.0096724331
-0.007570459 -0.071378611 0.0082492828
-0.0064350814 -0.070785895 0.0081914365
-0.0053669577 -0.070843846 0.0081914365
-0.0042624013 -0.070329621 0.0083762407
-0.0032394626 -0.071268179 0.0093342364
-0.0021529365 -0.071046904 0.008529067
-0.0010667319 -0.070404299 0.0083525181
0 -0.069534935 0.0087171793
0.0010706424 -0.070662394 0.0080555975
0.00213561 -0.070475131 0.010108978
0.0079350462 -0.065464132 0.0381549
0.0088376878 -0.06480971 0.038301557
0.0099231349 -0.06549269 0.039318413
0.010963705 -0.065782234 0.040095508
0.011967507 -0.06582129 0.040326893
-0.025227211 -0.065590747 0.032110244
-0.024119345 -0.065323234 0.033191741
-0.02306377 -0.06518022 0.034217685
-0.021996578 -0.064989895 0.035637021
-0.020998215 -0.064994477 0.036391914
-0.019888978 -0.064639181 0.036628813
-0.018979013 -0.064928204 0.0371373
-0.017950753 -0.064822167 0.0371373
-0.016751861 -0.064051233 0.036343217
-0.011760915 -0.069496311 0.0070850551
-0.010570885 -0.068710752 0.0061672032
-0.0095647098 -0.06907846 0.0066903234
-0.0085852044 -0.069754787 0.0078385174
-0.0073540104 -0.068287238 0.0069284439
-0.0063813184 -0.06913095 0.0069310069
-0.0053426181 -0.069454037 0.0081913173
-0.0042672302 -0.069342494 0.0081914365
-0.0031706996 -0.068698496 0.0087721348
-0.0021104615 -0.06859 0.00851354
-0.0010516293 -0.068355903 0.0062230527
0 -0.069478877 0.0083525181
0.0010491015 -0.068191588 0.0082349181
0.0069302428 -0.064352252 0.037328005
0.007964205 -0.064709164 0.039024651
0.0089646811 -0.06474492 0.039292991
0.0098609049 -0.064095885 0.039026111
0.010880054 -0.064291231 0.03941229
0.011989602 -0.064943679 0.040052623
0.013027631 -0.065138154 0.038087904
-0.024127347 -0.064339593 0.032313734
-0.023215212 -0.064598851 0.034237176
-0.022083236 -0.064242147 0.035371006
-0.020838505 -0.063507825 0.03663677
-0.02000382 -0.064012222 0.037155002
-0.01906416 -0.064216122 0.037700623
-0.01794805 -0.063815288 0.037978202
-0.01683411 -0.063375473 0.03705585
-0.015518175 -0.062072698 0.036254644
-0.011921118 -0.069359235 0.0091718733
-0.010715283 -0.068577811 0.0064477026
-0.0095462548 -0.067884482 0.0055060089
-0.0084922602 -0.067938082 0.0066463649
-0.0074778427 -0.068368852 0.007147342
-0.0063744341 -0.067993969 0.0068784058
-0.0053004664 -0.06784597 0.0062951446
-0.0010863621 -0.069527172 0.0061614513
0 -0.068760544 0.0083525181
0.0010841343 -0.069384597 0.0083970726
0.0022117195 -0.070775025 0.011401445
0.0059546977 -0.063516773 0.036954165
0.0069317012 -0.063375555 0.038197756
0.0079302518 -0.063442014 0.039385289
0.0089129433 -0.063380934 0.039024651
0.0099376086 -0.063600697 0.039253652
0.01093994 -0.063650556 0.038677573
0.012021031 -0.064112164 0.039831549
0.012916178 -0.063587338 0.037696451
-0.023265664 -0.063727692 0.032369882
-0.022034865 -0.063099839 0.033730596
-0.021018347 -0.063055038 0.035190225
-0.02005847 -0.063184179 0.036108047
-0.018790307 -0.062304702 0.037009746
-0.017973399 -0.062906899 0.037700623
-0.0169951 -0.062981844 0.037570864
-0.015857363 -0.062438365 0.03735438
-0.014680785 -0.061659299 0.037301391
-0.0137471 -0.061861951 0.037179589
-0.011066868 -0.069721274 0.010485113
-0.0099488348 -0.069641851 0.0071765184
-0.0089657549 -0.070605323 0.010230571
-0.007670444 -0.069033995 0.008346498
-0.0065839607 -0.06913159 0.008349061
-0.0054940446 -0.069224969 0.0089097023
-0.0043707825 -0.068839826 0.010230571
-0.0033339914 -0.070013821 0.0089097023
-0.0022130578 -0.06971132 0.0089312196
0.0011294878 -0.071157731 0.014615268
0.0039084558 -0.061558183 0.035800666
0.0049236808 -0.062038381 0.037659556
0.0058800336 -0.061740354 0.03844595
0.0069756983 -0.062781289 0.038473904
0.0079468098 -0.062581129 0.03902027
0.0088654486 -0.062058147 0.038659632
0.0099908309 -0.062942237 0.038379103
0.010971328 -0.06283579 0.038486868
0.011934648 -0.062656902 0.038414627
0.012954827 -0.062781088 0.036625713
-0.021150181 -0.062443394 0.033499062
-0.019836206 -0.061492242 0.035015047
-0.019037614 -0.062122744 0.036342204
-0.017787369 -0.061267611 0.037556529
-0.016939139 -0.061778039 0.037616491
-0.015910605 -0.061653595 0.038419336
-0.014888698 -0.061539955 0.037967891
-0.013833272 -0.061261639 0.038067877
-0.012951151 -0.061767031 0.037537247
-0.011925464 -0.061614897 0.03692168
-0.0078066345 -0.06914448 0.010832876
0.0019428734 -0.060229074 0.037197202
0.0029305341 -0.060564373 0.037818313
0.0039366991 -0.061018836 0.037252367
0.0048972401 -0.060725778 0.037873268
0.0059947004 -0.061945241 0.038089156
0.0069576935 -0.061625287 0.03844595
0.0079170661 -0.061357267 0.039215237
0.0089447321 -0.061619271 0.039174795
0.0099127144 -0.061458834 0.038543552
0.010974184 -0.061854497 0.03828916
0.011949314 -0.061738126 0.037842661
-0.020204866 -0.061624844 0.03383103
-0.019114535 -0.061367717 0.035366327
-0.017962048 -0.060871389 0.036828458
-0.016913751 -0.060690515 0.037145585
-0.015819237 -0.060310841 0.038213849
-0.01482019 -0.060268771 0.037357688
-0.013913524 -0.06062321 0.038307339
-0.012776652 -0.059951983 0.038505465
-0.011794733 -0.059956558 0.039222479
-0.010807294 -0.059931364 0.038743585
-0.009792299 -0.059733026 0.039226294
-0.00876531 -0.059409324 0.040411085
-0.0078776116 -0.060066786 0.040060371
-0.0069071474 -0.060190853 0.038413405
-0.0049343398 -0.060198944 0.039388567
-0.0039569833 -0.060343996 0.038681746
-0.0029462823 -0.059907738 0.038919538
-0.0019556587 -0.059647586 0.039335102
-0.00097807939 -0.059662841 0.038801134
0 -0.059824809 0.038611531
0.00097862189 -0.059695937 0.038175821
0.0019947188 -0.060838919 0.038210064
0.0029712368 -0.060415149 0.039082855
0.0039569833 -0.060343996 0.038333684
0.0049391617 -0.060257774 0.038339853
0.0059810397 -0.060807239 0.038556337
0.0068797246 -0.059951887 0.037618011
0.0079166638 -0.060364563 0.0381248
0.0089518866 -0.060673896 0.037168652
0.0099098068 -0.060449824 0.037361473
0.010995536 -0.060975242 0.036750406
-0.018027229 -0.060090769 0.034474939
-0.016921017 -0.059721239 0.035033762
-0.01600343 -0.060012858 0.037108749
-0.014963958 -0.059855834 0.037276268
-0.0137727 -0.059025858 0.038576424
-0.012925536 -0.059656322 0.038671643
-0.011876482 -0.059382409 0.040318072
-0.010816592 -0.058999594 0.039619476
-0.0097808484 -0.05868509 0.040619195
-0.0088694673 -0.059129782 0.041137218
-0.0078843804 -0.059132855 0.04066211
-0.0068548345 -0.058755726 0.040698707
-0.0059257299 -0.059257302 0.039918929
-0.0049023977 -0.058828775 0.040110677
-0.0039442163 -0.059163243 0.039486051
-0.002956959 -0.059139177 0.039843053
-0.0019668739 -0.059006214 0.039951473
-0.00099224981 -0.059534993 0.039088726
0 -0.059857178 0.038641423
0.00098664197 -0.059198514 0.038772792
0.0019859287 -0.059577864 0.038613349
0.0029584062 -0.059168123 0.039156824
0.0039656819 -0.059485231 0.038492948
0.0049036038 -0.058843248 0.037873268
0.0059467121 -0.059467122 0.037841469
0.0070126788 -0.060108677 0.037476659
0.0079620332 -0.059715252 0.037012756
0.0089828651 -0.05988577 0.036468804
0.0099237179 -0.059542309 0.035869628
-0.015870366 -0.058521979 0.034610957
-0.014989289 -0.058957871 0.036723703
-0.014041039 -0.059172954 0.037336022
-0.012848721 -0.058313426 0.038235277
-0.011774438 -0.057890989 0.039335579
-0.010905429 -0.058492754 0.039759964
-0.0098097324 -0.057877425 0.041981786
-0.0088178739 -0.057806063 0.04176566
-0.0079673417 -0.058759145 0.041226864
-0.0068932152 -0.058099959 0.041287184
-0.0058667255 -0.057689466 0.040757418
-0.0049617854 -0.058549069 0.040770829
-0.0039586802 -0.058390535 0.040292531
-0.002957311 -0.05816045 0.040292531
-0.0019937693 -0.058816198 0.040628314
-0.00098929321 -0.058368295 0.039123178
0 -0.058471687 0.038641423
0.00099249033 -0.058556929 0.038281858
0.0019760346 -0.058293018 0.037817121
0.0029904272 -0.058811739 0.037814736
0.0039902879 -0.058856744 0.037111819
0.0049159438 -0.058008138 0.036522657
0.0059271618 -0.058283761 0.036263138
0.006975966 -0.05879743 0.036021709
-0.012906633 -0.057583444 0.037517846
-0.012023299 -0.058112614 0.038235277
-0.010931226 -0.057637379 0.039222479
-0.0099447528 -0.057679571 0.039329857
-0.0089008454 -0.057361007 0.039598823
-0.0079195146 -0.05741648 0.039515913
-0.0068834345 -0.057034172 0.04037109
-0.0059741745 -0.057750355 0.040389627
-0.004910463 -0.056961372 0.03986299
-0.0039552697 -0.057351414 0.039815217
-0.0029733949 -0.05748564 0.039962143
-0.0019857937 -0.057588018 0.038937449
-0.00097769918 -0.056706555 0.038382649
0 -0.057644721 0.038287461
0.00099477661 -0.057697047 0.03742227
0.0019756558 -0.057294019 0.035845935
-0.011962363 -0.056821227 0.037713438
-0.010886618 -0.056412473 0.038075715
-0.0098408349 -0.056092761 0.03807953
-0.0089534055 -0.056704901 0.03859055
-0.0079324413 -0.05651864 0.038486987
-0.0070020445 -0.057016648 0.039091527
-0.0059429598 -0.056458119 0.039314806
-0.0049447864 -0.056370564 0.039152324
-0.0039600427 -0.056430608 0.038827807
-0.0029766152 -0.056555688 0.03880769
-0.0019721261 -0.056205593 0.038182527
-0.0009931348 -0.056608684 0.03678751
-0.011829605 -0.055204827 0.036803812
-0.010961434 -0.055803664 0.037188351
-0.009925737 -0.055584129 0.037856817
-0.0089016259 -0.055387899 0.037995815
-0.0080255074 -0.056178555 0.038174063
-0.006881902 -0.055055216 0.038035065
-0.0059642186 -0.055666041 0.037454009
-0.0049721613 -0.055688206 0.03546679
-0.0080016647 -0.055011444 0.034245491
-0.0070072743 -0.055057157 0.033921003
-0.0060206088 -0.055188917 0.034537792
-0.0050230813 -0.055253893 0.034358412
-0.0090843383 -0.054506034 0.033252656
-0.0079453746 -0.05363128 0.032989562
-0.0070235743 -0.054181863 0.032490194
-0.0059979702 -0.053981733 0.033376902
0 0 0 1 0 0 0 1 0 0 0 1 0 0 0 0 0 852 1 0 0
