ply
format ascii 1.0
comment PCL generated
element vertex 849
property float x
property float y
property float z
element camera 1
property float view_px
property float view_py
property float view_pz
property float x_axisx
property float x_axisy
property float x_axisz
property float y_axisx
property float y_axisy
property float y_axisz
property float z_axisx
property float z_axisy
property float z_axisz
property float focal
property float scalex
property float scaley
property float centerx
property float centery
property int viewportx
property int viewporty
property float k1
property float k2
end_header
-0.0071904613 -0.021571385 0.022475749
-0.0061751916 -0.021613171 0.022998035
-0.0051428205 -0.021599848 0.023103505
-0.0041199741 -0.021629862 0.022078246
-0.011238607 -0.02043383 0.022489935
-0.010263245 -0.020526489 0.022665292
-0.0091607515 -0.020357227 0.023158848
-0.0082387943 -0.020596985 0.023734748
-0.0071760355 -0.020502958 0.023586482
-0.0061726933 -0.020575643 0.023575455
-0.0051501761 -0.020600704 0.02385062
-0.0040929751 -0.020464875 0.023393035
-0.0030654136 -0.020436091 0.023538172
-0.0020425448 -0.020425446 0.024337262
-0.0010170799 -0.020341597 0.024522841
-0.014348947 -0.019473571 0.022522539
-0.013246797 -0.019360704 0.022697508
-0.012092151 -0.019145906 0.022995353
-0.011229927 -0.019397147 0.023434013
-0.010111663 -0.019212158 0.023492098
-0.0092237927 -0.019472452 0.023579568
-0.0081701316 -0.019404061 0.023204803
-0.0071483464 -0.019402655 0.024045557
-0.0061895205 -0.019600149 0.023979813
-0.0051148701 -0.019436507 0.024101913
-0.0041063847 -0.019505328 0.023749262
-0.0030645076 -0.019408548 0.02387026
-0.0020548527 -0.0195211 0.025065124
-0.0010192135 -0.019365055 0.02536869
0 -0.019382477 0.025041074
0.0010215888 -0.019410187 0.024936765
0.0020404789 -0.019384548 0.024428219
-0.016231095 -0.018259982 0.023479432
-0.015391603 -0.018469924 0.023361385
-0.014114521 -0.018147239 0.023135602
-0.013086867 -0.018120276 0.022723496
-0.01222433 -0.018336494 0.023727685
-0.01123524 -0.018384937 0.02388975
-0.010241317 -0.01843437 0.02403599
-0.0092423949 -0.01848479 0.02388975
-0.008156945 -0.018353125 0.024062961
-0.007180294 -0.018463612 0.02439934
-0.0061361492 -0.018408448 0.023956865
-0.005139519 -0.018502269 0.023495376
-0.0041002799 -0.018451259 0.023848176
-0.0030643127 -0.018385876 0.023724198
-0.0020538715 -0.018484842 0.024183989
-0.0010206712 -0.018372081 0.02475968
0 -0.018407224 0.024720132
0.0010145189 -0.01826134 0.025213033
0.0020583789 -0.01852541 0.024870306
0.0030332475 -0.018199485 0.024928451
-0.018345742 -0.017326536 0.023681432
-0.017151486 -0.017151486 0.024633765
-0.016352661 -0.017374702 0.024146825
-0.015333926 -0.017378449 0.023727387
-0.014349609 -0.017424526 0.023758084
-0.013324967 -0.017424956 0.023480147
-0.01217159 -0.017243085 0.023608655
-0.011273977 -0.017423421 0.023578525
-0.010281411 -0.017478399 0.023832142
-0.0092187375 -0.017413171 0.023760945
-0.0082182558 -0.017463794 0.023691952
-0.0071205315 -0.017292719 0.02405557
-0.0061159865 -0.017328629 0.0231947
-0.0051473905 -0.017501129 0.02270481
-0.0040992652 -0.017421877 0.023146898
-0.0030845676 -0.017479217 0.022254497
-0.0020555577 -0.017472239 0.022177756
-0.0010190159 -0.017323272 0.022298336
0 -0.017539777 0.023974389
0.0010268138 -0.017455835 0.024928093
0.0020140104 -0.017119089 0.02506873
0.0030598952 -0.017339407 0.025456131
0.0040919548 -0.017390808 0.025519758
0.005081601 -0.017277444 0.024771541
-0.020583456 -0.016466767 0.024536788
-0.019421369 -0.016354838 0.024763793
-0.018355297 -0.01631582 0.025985718
-0.017433686 -0.016408175 0.025572985
-0.016321223 -0.016321223 0.025657535
-0.015361986 -0.016386118 0.024316728
-0.014358756 -0.016410006 0.023968846
-0.01327013 -0.016332468 0.023480147
-0.012316077 -0.016421435 0.023178667
-0.011296577 -0.016431384 0.023104429
-0.010213034 -0.016340856 0.023578525
-0.0092613483 -0.016464621 0.023380399
-0.0081825536 -0.016365107 0.023110986
-0.0071788309 -0.016408756 0.022570103
-0.0061787544 -0.01647668 0.022264868
-0.005180818 -0.016578618 0.021963626
-0.0041264938 -0.016505975 0.021824002
-0.0031292997 -0.016689599 0.022453725
-0.002055282 -0.016442256 0.022503734
-0.0010276507 -0.016442411 0.022108048
0 -0.016348876 0.022438973
0.001026493 -0.016423889 0.024442554
0.0020365168 -0.016292134 0.025074631
0.0030521685 -0.016278233 0.025855631
0.0040314524 -0.016125809 0.025605708
0.0050885212 -0.016283268 0.025759935
0.0060800635 -0.016213503 0.0251261
0.0070952522 -0.01621772 0.024797261
-0.021521231 -0.015372307 0.024385065
-0.020449122 -0.015336842 0.02588889
-0.019373516 -0.015294881 0.025935858
-0.018425001 -0.015354168 0.026230961
-0.017461244 -0.01540698 0.025967807
-0.016344231 -0.015322716 0.025801748
-0.01530319 -0.01530319 0.024307638
-0.014168322 -0.015180346 0.023758084
-0.013335541 -0.015387163 0.023050159
-0.012293149 -0.015366436 0.023121268
-0.011250098 -0.015341043 0.022985488
-0.010236559 -0.01535484 0.023642004
-0.0092277043 -0.015379507 0.023217618
-0.0081916293 -0.015359306 0.02243045
-0.0071957316 -0.015419425 0.022228956
-0.0061888564 -0.015472142 0.021432519
-0.0050841388 -0.015252417 0.021070778
-0.0041710064 -0.015641274 0.020921141
-0.0031204626 -0.015602314 0.020921141
-0.0020612085 -0.015459063 0.020965874
-0.0010347572 -0.015521359 0.022294849
0 -0.015468395 0.022438973
0.0010180008 -0.015270011 0.023493618
0.0020385417 -0.015289063 0.024531692
0.0030447862 -0.015223932 0.025206208
0.0040864358 -0.015324134 0.025508076
0.0050524566 -0.01515737 0.026365131
0.0061329268 -0.015332318 0.025442749
0.0071338941 -0.015286916 0.026176542
0.0081448425 -0.015271579 0.025442749
0.0091388859 -0.015231478 0.026118547
-0.022488847 -0.014311085 0.023951352
-0.021415826 -0.014277217 0.025464207
-0.02052157 -0.014365098 0.025832623
-0.019468946 -0.014345539 0.025858194
-0.018388312 -0.014302022 0.02609992
-0.017180262 -0.014148451 0.026275665
-0.016351553 -0.014307609 0.025714725
-0.015241546 -0.014225443 0.024290979
-0.014231844 -0.014231844 0.02368167
-0.01331141 -0.014335365 0.022931516
-0.012123954 -0.014144613 0.023112237
-0.011455487 -0.014579711 0.022787154
-0.010188749 -0.014264249 0.02263689
-0.0092170248 -0.014337595 0.022466272
-0.00835614 -0.014623245 0.022264868
-0.007195103 -0.014390206 0.021448821
-0.0062285345 -0.014533248 0.020864218
-0.005154368 -0.014432231 0.021288067
-0.0041275104 -0.014446286 0.020707995
-0.0030744944 -0.014347641 0.020284146
-0.002082723 -0.01457906 0.020508111
-0.0010237602 -0.014332643 0.021079957
0 -0.014479427 0.021991313
0.0010389338 -0.014545072 0.022450536
0.0020483541 -0.014338479 0.024074674
0.0030596869 -0.014278539 0.024479032
0.0040897303 -0.014314056 0.025222778
0.0051083635 -0.014303418 0.025815219
0.0061261696 -0.014294396 0.025960058
0.0071328334 -0.014265667 0.026527554
0.0081665386 -0.014291442 0.026527435
0.0090662409 -0.014103042 0.026587009
0.010147325 -0.014206255 0.026064157
0.011165348 -0.014210443 0.025350511
-0.023697268 -0.013394107 0.024017304
-0.022409072 -0.013241725 0.02532357
-0.021317938 -0.013196819 0.025929302
-0.020451471 -0.013293456 0.026275665
-0.019383837 -0.013262625 0.026601285
-0.018365752 -0.013264154 0.026123345
-0.017302813 -0.013231563 0.026644051
-0.016132733 -0.013107846 0.025968999
-0.015402693 -0.013349 0.024290979
-0.014227075 -0.013210854 0.023753077
-0.013321241 -0.013321241 0.022869974
-0.012266789 -0.01328902 0.022803009
-0.011369335 -0.013436487 0.022454411
-0.010209713 -0.013272628 0.02074939
-0.0092496052 -0.013360541 0.020715415
-0.0082608163 -0.013423826 0.020166636
-0.0072097848 -0.0133896 0.020379424
-0.0062031006 -0.013440051 0.020077527
-0.0051715607 -0.013446058 0.020686209
-0.0041380958 -0.013448811 0.020623624
-0.0030999833 -0.013433262 0.02045995
-0.0020640062 -0.013416041 0.020569682
-0.0010359131 -0.013466871 0.021265149
0 -0.013345697 0.021092325
0.001024334 -0.013316342 0.022404522
0.0020329256 -0.013214015 0.022782385
0.0030908422 -0.013393649 0.023809671
0.004085687 -0.013278482 0.024261057
0.0050895982 -0.013232956 0.024599582
0.0061438703 -0.013311719 0.025139421
0.0070118713 -0.013022047 0.026368946
0.0081438283 -0.01323372 0.026369065
0.0090752291 -0.013108664 0.027089179
0.010150007 -0.01319501 0.026578277
0.011179689 -0.01321236 0.026474088
0.012254361 -0.013275558 0.025449187
-0.023405217 -0.012211417 0.026092619
-0.022270238 -0.012147402 0.026061505
-0.021579063 -0.012330892 0.026432514
-0.020466454 -0.012279873 0.02662468
-0.019401539 -0.012253604 0.026653081
-0.018348549 -0.012232367 0.026490748
-0.017338324 -0.012238817 0.026612997
-0.01636005 -0.012270037 0.026128143
-0.015495251 -0.012396201 0.024206668
-0.014206012 -0.012176582 0.023330212
-0.013346038 -0.01231942 0.022817761
-0.012357663 -0.012357663 0.022638053
-0.011340063 -0.012370978 0.021577924
-0.010218429 -0.012262116 0.019425392
-0.0092980377 -0.012397383 0.019436032
-0.0082848603 -0.012427291 0.019551486
-0.0071915784 -0.01232842 0.019791126
-0.0062002935 -0.012400587 0.019890398
-0.0051692217 -0.012406132 0.020410001
-0.0041469513 -0.012440854 0.020484895
-0.0030909004 -0.012363601 0.020581603
-0.0020656302 -0.012393781 0.020592719
-0.0010349581 -0.012419496 0.021060079
0 -0.012468536 0.021155953
0.001026608 -0.012319297 0.021443903
0.0020401543 -0.012240925 0.022616774
0.0030954713 -0.012381885 0.023434669
0.0040913695 -0.012274108 0.024159968
0.0051491102 -0.012357865 0.024499208
0.0060821888 -0.012164378 0.025284261
0.0071267388 -0.012217266 0.026368946
0.0081566507 -0.012234977 0.027426034
0.0091313254 -0.012175101 0.027623057
0.010195277 -0.012234333 0.027850568
0.011199326 -0.012217447 0.027525485
0.012228997 -0.012228997 0.02613157
0.01320983 -0.012193689 0.025791705
-0.023216547 -0.011103566 0.026750326
-0.022417776 -0.011208888 0.026780069
-0.021257212 -0.01113473 0.028290331
-0.020475227 -0.011261375 0.027107507
-0.019149592 -0.011086605 0.026983559
-0.018299447 -0.011182996 0.026870161
-0.017285731 -0.011184885 0.026701301
-0.016382661 -0.01126308 0.026445746
-0.015241455 -0.011177067 0.024142206
-0.014398062 -0.011312762 0.023019373
-0.013328779 -0.011278197 0.022783041
-0.012422887 -0.011387646 0.022107005
-0.011342888 -0.011342888 0.020202845
-0.010334938 -0.011368431 0.019273996
-0.009331611 -0.011405302 0.019518644
-0.0083307941 -0.011454842 0.019682288
-0.0072223833 -0.011349459 0.0195252
-0.0062343804 -0.011429697 0.019796073
-0.0052110376 -0.011464283 0.019743472
-0.0041379849 -0.011379458 0.019865602
-0.0031382982 -0.011507093 0.019971818
-0.002089306 -0.011491182 0.020205528
-0.0010391771 -0.011430947 0.021032721
0 -0.01134315 0.021093637
0.0010249751 -0.011274726 0.020777911
0.0020356684 -0.011196177 0.022156864
0.0031002651 -0.011367639 0.022362739
0.0040797167 -0.011219221 0.022675842
0.0051055979 -0.011232316 0.023996085
0.0061568581 -0.011287573 0.024927288
0.0071575399 -0.011247562 0.026265919
0.0081094587 -0.011150505 0.027020931
0.0091303354 -0.011159299 0.027701437
0.010128982 -0.01114188 0.027885616
0.011149193 -0.011149193 0.0275971
0.012237918 -0.011218091 0.026411593
0.013255127 -0.011215877 0.026089042
-0.024495624 -0.01020651 0.026118308
-0.023299247 -0.010130107 0.027572095
-0.022324173 -0.010147351 0.027952731
-0.021207469 -0.010098794 0.028427839
-0.020441255 -0.010220627 0.027923644
-0.019251494 -0.010132364 0.02755186
-0.018351065 -0.010195035 0.026768535
-0.017297216 -0.010174833 0.026462346
-0.016323313 -0.010202071 0.025365382
-0.015398697 -0.010265797 0.024464399
-0.01435636 -0.010254542 0.023573041
-0.013306684 -0.01023591 0.022113472
-0.012300868 -0.010250723 0.021049023
-0.011472993 -0.010429993 0.019284636
-0.010346583 -0.010346583 0.01858592
-0.0094073629 -0.010452625 0.018257946
-0.0082742963 -0.010342871 0.018627673
-0.007289412 -0.010413446 0.017371505
-0.0062044361 -0.010340727 0.01752159
-0.0052037602 -0.01040752 0.017796099
-0.0041899444 -0.010474861 0.017346114
-0.0031386872 -0.010462291 0.018258154
-0.0020522599 -0.010261299 0.018457323
-0.0010373555 -0.010373555 0.018942863
0 -0.010233997 0.020508111
0.0010338201 -0.0103382 0.020532489
0.0020623785 -0.010311892 0.020572037
0.0030909593 -0.010303197 0.021214992
0.0041387435 -0.010346859 0.022242159
0.0051595699 -0.01031914 0.023977906
0.0061236173 -0.010206029 0.024892032
0.0071174796 -0.010167828 0.026190042
0.0081143789 -0.010142973 0.026378363
0.0091139311 -0.010126591 0.027206331
0.010152802 -0.010152802 0.027960867
0.011083568 -0.01007597 0.02783972
0.012175109 -0.010145924 0.027395517
0.013089672 -0.010068978 0.026411593
0.014261692 -0.010186923 0.024890155
-0.024546728 -0.0092050219 0.026169419
-0.023272632 -0.0091066808 0.027949333
-0.022353614 -0.0091446601 0.028390527
-0.021299491 -0.0091283526 0.028674126
-0.020275641 -0.0091240387 0.028113693
-0.01918206 -0.0090862382 0.028003007
-0.018394904 -0.0091974521 0.02717936
-0.017479436 -0.0092538185 0.026462346
-0.016449029 -0.009252578 0.025385171
-0.015368542 -0.0092211245 0.024149776
-0.014322242 -0.0092071546 0.023316443
-0.013457173 -0.009316504 0.022307068
-0.012299404 -0.0092245517 0.020388931
-0.011359721 -0.0092943171 0.018687457
-0.010360604 -0.0093245441 0.018210709
-0.0093706232 -0.0093706232 0.016767472
-0.0083937589 -0.0094429776 0.016924977
-0.0073022167 -0.0093885642 0.017379045
-0.0062578339 -0.0093867509 0.01683262
-0.0052080313 -0.0093744555 0.016476542
-0.0041960455 -0.0094411019 0.016301125
-0.0031509432 -0.0094528291 0.016699553
-0.0020883477 -0.0093975645 0.016673863
-0.001040709 -0.0093663801 0.017768741
0 -0.0093686031 0.019115925
0.0010244936 -0.0092204418 0.019818902
0.0020544543 -0.0092450436 0.020555764
0.0031141853 -0.009342555 0.02104035
0.0041250912 -0.0092814555 0.022242159
0.0051571331 -0.0092828395 0.023942649
0.006123615 -0.0091854222 0.023947865
0.0071221679 -0.0091570728 0.026154786
0.008132413 -0.0091489647 0.02688694
0.0090535879 -0.0090535879 0.027422488
0.0101272 -0.0091144796 0.02770859
0.011079532 -0.0090650721 0.028253555
0.012048604 -0.0090364525 0.027710766
0.01300728 -0.0090050399 0.027442664
0.014278743 -0.0091791917 0.02537486
-0.024247162 -0.008082387 0.026380569
-0.023341054 -0.0081186276 0.028615028
-0.02236551 -0.0081329131 0.028484643
-0.021272492 -0.0081038056 0.028674126
-0.02031325 -0.0081252996 0.028113693
-0.019333486 -0.008140415 0.027892411
-0.01822377 -0.0080994535 0.027122796
-0.017380958 -0.0081792744 0.026241899
-0.016373878 -0.0081869392 0.02537784
-0.015518308 -0.0082764309 0.0237993
-0.014407446 -0.0082328264 0.022124916
-0.013444421 -0.0082734898 0.020034254
-0.012490908 -0.0083272718 0.019274503
-0.011424006 -0.0083083687 0.017831624
-0.010313008 -0.0082504069 0.01701206
-0.0093689254 -0.0083279349 0.016411185
-0.0084059061 -0.0084059061 0.016029984
-0.0072543896 -0.0082907304 0.015964538
-0.0062823058 -0.0083764074 0.015201181
-0.0052439682 -0.0083903493 0.015700579
-0.0041862703 -0.0083725406 0.015700579
-0.0031361138 -0.0083629703 0.016043425
-0.0021036991 -0.0084147966 0.016168803
-0.001041069 -0.0083285524 0.016487479
0 -0.0082607875 0.017288238
0.0010420444 -0.008336355 0.018344015
0.0020605377 -0.0082421508 0.019637346
0.0031125217 -0.0083000576 0.020751864
0.0040919036 -0.0081838071 0.021214992
0.0050559109 -0.0080894576 0.024063587
0.006142593 -0.0081901243 0.024891883
0.007122119 -0.0081395647 0.026154786
0.0081367455 -0.0081367455 0.027020931
0.0090831406 -0.0080739036 0.027553618
0.010056432 -0.0080451462 0.028384686
0.011098218 -0.0080714319 0.029242486
0.012133335 -0.0080888905 0.029051453
0.013169561 -0.0081043448 0.028874964
0.014113172 -0.0080646696 0.02723819
-0.024273124 -0.0070796614 0.027709991
-0.023469536 -0.0071429019 0.028922915
-0.022373252 -0.007118762 0.029156357
-0.021190381 -0.0070634601 0.028983563
-0.020593075 -0.0072075767 0.028791815
-0.01924761 -0.0070912247 0.028715789
-0.018332059 -0.0071291341 0.026837081
-0.017447008 -0.0071840622 0.025588095
-0.016339555 -0.007148555 0.024751961
-0.015401147 -0.0071872021 0.021626204
-0.014507067 -0.0072535337 0.020509958
-0.013482281 -0.0072596902 0.018915325
-0.012348895 -0.0072035221 0.017966926
-0.011509009 -0.0073239151 0.01693216
-0.010332995 -0.0072330968 0.015982419
-0.0093874671 -0.0073013636 0.015756011
-0.0083560739 -0.0073115649 0.014507085
-0.0073729251 -0.0073729251 0.014477223
-0.0062957662 -0.0073450608 0.014477223
-0.0051972736 -0.007276183 0.01468721
-0.004182321 -0.007319062 0.01468721
-0.0031338832 -0.0073123942 0.015043259
-0.0021016032 -0.0073556108 0.015943229
-0.0010465438 -0.0073258062 0.0160411
0 -0.0073791747 0.017069757
0.0010344725 -0.0072413078 0.017289966
0.0020873372 -0.0073056803 0.018162459
0.0030852335 -0.0071988781 0.020034045
0.0040689297 -0.0071206265 0.021958053
0.0051189377 -0.0071665128 0.023396373
0.0061300788 -0.0071517588 0.025362164
0.0070614354 -0.0070614354 0.025670856
0.008120547 -0.007105479 0.026555508
0.0091592669 -0.0071238745 0.026897758
0.010136135 -0.007095295 0.027898669
0.011126895 -0.007080751 0.028946012
0.012112696 -0.0070657395 0.029732764
0.013121064 -0.0070651881 0.029315025
0.014239224 -0.0071196118 0.028130352
-0.024373429 -0.0060933572 0.028272569
-0.023277292 -0.0060723368 0.030037493
-0.02220005 -0.0060545593 0.030143023
-0.021191239 -0.0060546394 0.029165864
-0.02035643 -0.0061069289 0.029038668
-0.01933633 -0.0061062095 0.02816388
-0.018440241 -0.0061467467 0.027450383
-0.017411472 -0.0061452254 0.025147796
-0.016585847 -0.0062196925 0.023090839
-0.015664972 -0.006265989 0.021057636
-0.014468417 -0.0062007499 0.019108921
-0.013525606 -0.0062425872 0.018189579
-0.012465673 -0.0062328363 0.017570496
-0.011415619 -0.0062267017 0.016257703
-0.010326709 -0.0061960253 0.015507966
-0.0010459156 -0.0062754937 0.015391916
0 -0.0062382007 0.015013158
0.0010462814 -0.0062776883 0.016894937
0.0020781548 -0.0062344642 0.018154204
0.0031010883 -0.0062021767 0.019376367
0.0041490817 -0.0062236227 0.021214992
0.0051371302 -0.0061645564 0.023990422
0.0060805827 -0.0060805827 0.025924355
0.0071952837 -0.0061673857 0.026367247
0.0081667164 -0.0061250376 0.027400851
0.0091355015 -0.0060903346 0.027655035
0.010110946 -0.0060665677 0.028664917
0.010995947 -0.0059977891 0.030124128
0.012108068 -0.006054034 0.030139029
0.013150907 -0.0060696495 0.029484868
0.014191179 -0.0060819336 0.028467119
0.015253723 -0.0061014891 0.026654363
-0.024165388 -0.005034456 0.029874206
-0.023086287 -0.0050187577 0.030727744
-0.022207508 -0.0050471607 0.030413032
-0.021208588 -0.0050496636 0.030289292
-0.020267002 -0.0050667506 0.029237717
-0.019279135 -0.0050734566 0.028141439
-0.018255588 -0.0050709965 0.027450383
-0.017412068 -0.0051211966 0.025046349
-0.016538654 -0.005168329 0.022442013
-0.015583256 -0.0051944186 0.019843936
-0.01455678 -0.0051988498 0.017913312
-0.013585485 -0.0052251862 0.01715979
0.0020750558 -0.0051876395 0.016832054
0.0031332034 -0.0052220058 0.018154204
0.004132885 -0.0051661059 0.019686908
0.0060778656 -0.0050648879 0.02456677
0.0071025039 -0.0050732167 0.026188433
0.0081274956 -0.0050796848 0.027256966
0.009180801 -0.0051004449 0.027987152
0.010021086 -0.0050105429 0.028813869
0.010935317 -0.0049705985 0.030155629
0.012141393 -0.005058914 0.031451046
0.013076891 -0.0050295731 0.030594349
0.014230907 -0.0050824666 0.028857142
-0.024119323 -0.0040198872 0.031190842
-0.023221338 -0.0040384936 0.031275868
-0.022102321 -0.0040186038 0.031579226
-0.021054465 -0.0040103742 0.030964434
-0.020123854 -0.004024771 0.030727744
-0.019320179 -0.0040674061 0.028629541
-0.018173872 -0.004038638 0.027748853
-0.015583694 -0.0041556517 0.018069327
-0.014561454 -0.0041604154 0.01715979
0.0031095131 -0.0041460176 0.016832054
0.0041308063 -0.0041308063 0.018181562
0.0051706787 -0.0041365433 0.019821942
0.0061661927 -0.004110795 0.024483085
0.0070779524 -0.0040445444 0.026367247
0.0081218714 -0.0040609357 0.027570844
0.0091881901 -0.0040836404 0.029194951
0.010132303 -0.0040529212 0.029336125
0.011090496 -0.0040329075 0.031057656
0.01208469 -0.00402823 0.031601697
0.013047153 -0.0040145088 0.031251341
0.014212538 -0.0040607252 0.029606283
-0.025003865 -0.0030004636 0.030524611
-0.024292216 -0.003036527 0.031581879
-0.023259645 -0.0030338666 0.031977743
-0.022168433 -0.0030229683 0.032243282
-0.021208368 -0.0030297667 0.031432241
-0.020113332 -0.0030169999 0.030923784
-0.019314814 -0.0030497075 0.028770834
-0.018283909 -0.0030473184 0.027822882
0.0041633332 -0.0031224997 0.017347902
0.0051903017 -0.0031141811 0.019294381
0.0070764003 -0.003032743 0.026188433
0.0080864485 -0.003032418 0.027396142
0.0091494387 -0.0030498132 0.029279739
0.010068522 -0.0030205566 0.030089051
0.010987488 -0.0029965874 0.031421602
0.011991341 -0.0029978352 0.032191604
0.013032387 -0.0030074739 0.031708479
0.01409512 -0.0030203827 0.030359894
-0.025206599 -0.002016528 0.030890673
-0.024099773 -0.0020083145 0.031922758
-0.023091996 -0.0020079995 0.033039719
-0.022171458 -0.0020155872 0.032954395
-0.02086856 -0.001987482 0.032020628
-0.0201173 -0.0020117301 0.031474233
-0.019274613 -0.0020289065 0.030481637
0.0070620007 -0.0020177145 0.025642455
0.0080870613 -0.0020217653 0.028340697
0.009179756 -0.0020399459 0.030117005
0.010033324 -0.0020066649 0.030987233
0.010953465 -0.0019915393 0.032187611
0.012107085 -0.0020178475 0.032516718
0.013000107 -0.0020000166 0.032191604
0.014085101 -0.0020121573 0.030889422
-0.025162715 -0.0010065086 0.030560493
-0.024107302 -0.001004471 0.032093227
-0.023214024 -0.0010093054 0.033033788
-0.022193097 -0.0010087771 0.033154726
-0.021056728 -0.0010027013 0.03239131
-0.020151591 -0.0010075796 0.031979978
-0.019341912 -0.0010179953 0.030589998
0.0081495643 -0.0010186955 0.029193014
0.0091408892 -0.0010156544 0.030919015
0.0099383267 -0.00099383271 0.032325536
0.011061516 -0.0010055923 0.032662004
0.012031866 -0.0010026555 0.032886267
0.013054895 -0.0010042227 0.032710403
0.01403234 -0.00100231 0.031257182
-0.02509585 0 0.031248957
-0.024117602 0 0.033079535
-0.023022277 0 0.033203721
-0.021968139 0 0.033919215
-0.020964725 0 0.033648729
-0.019873952 0 0.033401012
-0.019129043 0 0.032211214
0.0081076473 0 0.029832482
0.0090443566 0 0.031986505
0.0099578639 0 0.033956736
0.010925442 0 0.033974797
0.011919271 0 0.033745438
0.013047805 0 0.032710403
0.014047738 0 0.031418294
-0.025101857 0.0010040744 0.031826198
-0.024005046 0.0010002103 0.032640964
-0.023110414 0.0010048005 0.03326574
-0.0219962 0.00099982729 0.033919215
-0.021010695 0.0010005092 0.033528984
-0.02006755 0.0010033776 0.033290833
-0.019282892 0.0010148891 0.032828987
-0.018119898 0.0010066611 0.031281948
0.0089965966 0.00099962193 0.03342846
0.01000294 0.001000294 0.034623057
0.010873782 0.00098852569 0.034623057
0.011971162 0.00099759689 0.034195632
0.013079455 0.001006112 0.032993138
0.014024662 0.0010017615 0.031815618
-0.025373954 0.0020299163 0.03217122
-0.023969764 0.0019974804 0.032749057
-0.02302059 0.0020017903 0.033381343
-0.02204957 0.0020045065 0.033412486
-0.020892857 0.0019897958 0.033240199
-0.020072235 0.0020072237 0.033706278
-0.019037383 0.0020039349 0.033171743
-0.01801776 0.0020019733 0.03230083
0.0089229951 0.001982888 0.034822434
0.0099278707 0.0019855741 0.035920888
0.010934693 0.001988126 0.035548478
0.011996648 0.0019994413 0.035307646
0.012950195 0.0019923376 0.033314109
0.014138849 0.0020198354 0.031815618
-0.024944531 0.0029933434 0.031674802
-0.024102319 0.0030127899 0.03315568
-0.023080435 0.0030104914 0.034196466
-0.021828225 0.0029765761 0.033892602
-0.021072827 0.0030104038 0.033781379
-0.020135256 0.0030202884 0.03382057
-0.019062545 0.0030098755 0.033290833
-0.017901259 0.0029835431 0.0327622
-0.01733423 0.0030589816 0.031568438
0.0079401396 0.0029775524 0.034996927
0.0089766216 0.0029922074 0.035920888
0.0099466126 0.0029839836 0.036761224
0.010837975 0.0029558113 0.03566274
0.011837024 0.0029592561 0.035395652
0.013072791 0.0030167978 0.033506393
0.014031989 0.0030068548 0.031815618
-0.025237605 0.0040380168 0.031478405
-0.024157301 0.0040262169 0.032914937
-0.023061732 0.004010736 0.033653229
-0.022090266 0.004016412 0.033653229
-0.020890797 0.0039791991 0.033526778
-0.02010924 0.0040218481 0.034994543
-0.01910726 0.004022581 0.034727395
-0.017876746 0.0039726105 0.033518553
-0.016884401 0.0039728004 0.033107102
0.006984069 0.0039908965 0.035588056
0.0078868084 0.0039434042 0.036468595
0.0089369258 0.0039719669 0.036468595
0.0099165263 0.0039666109 0.03686741
0.010875954 0.0039548925 0.036332726
0.011963287 0.0039877626 0.035839736
0.013017841 0.0040054894 0.034167081
0.013983909 0.0039954027 0.031932145
-0.025166919 0.0050333836 0.031040251
-0.024012018 0.0050025037 0.032210946
-0.023012085 0.0050026271 0.032712907
-0.02196241 0.0049914569 0.033230066
-0.020905552 0.0049775122 0.033361107
-0.020074574 0.0050186436 0.036110103
-0.018778093 0.0049416032 0.036164224
-0.017781956 0.0049394323 0.036191046
-0.016982308 0.0049947961 0.035897344
-0.015677948 0.0048993584 0.036227673
0.0059571574 0.0049642976 0.036919773
0.0068895649 0.0049211178 0.036658287
0.0079216994 0.0049510621 0.036919773
0.0089246044 0.0049581137 0.036658287
0.0099644009 0.0049822005 0.036975235
0.011031188 0.005014176 0.03589797
0.011894207 0.0049559195 0.035731226
0.012944593 0.0049786898 0.033205003
0.014056027 0.0050200098 0.031995803
-0.02411928 0.0060298201 0.03142938
-0.022904899 0.0059751906 0.032763928
-0.021894693 0.0059712799 0.033230066
-0.021094067 0.0060268762 0.034460723
-0.019770643 0.0059311925 0.035419077
-0.018929031 0.0059775882 0.036164224
-0.017910713 0.0059702382 0.036355853
-0.016839856 0.005943479 0.036221743
-0.015788525 0.005920697 0.037208438
-0.014854353 0.0059417412 0.035617799
0.0049578962 0.0059494753 0.036521465
0.0058417344 0.0058417344 0.037250102
0.0069588833 0.0059647569 0.037125707
0.0079058232 0.0059293672 0.037414491
0.00887712 0.00591808 0.037469923
0.0099555254 0.0059733153 0.037276685
0.010923544 0.0059582968 0.036798507
0.011988136 0.005994068 0.035572827
0.012872062 0.0059409514 0.033570051
-0.022128172 0.0070407824 0.032879144
-0.020902712 0.0069675706 0.034310669
-0.019800285 0.0069300998 0.035209358
-0.019045126 0.0070166248 0.035488993
-0.017852983 0.0069428268 0.037106156
-0.01674391 0.0068945508 0.036913931
-0.015980871 0.0069916314 0.036973357
-0.014610667 0.0068183108 0.036079317
-0.013848548 0.0069242739 0.036951125
-0.01276856 0.0068753785 0.036355913
0.0029683646 0.0069261841 0.036366969
0.003905304 0.0068342821 0.03797546
0.0048955139 0.0068537197 0.037167132
0.005907333 0.0068918886 0.037994742
0.0069372659 0.0069372659 0.037994742
0.0079254946 0.0069348072 0.038356364
0.0089694653 0.0069762515 0.038046449
0.0099636549 0.0069745583 0.037366748
0.010907682 0.0069412524 0.036798477
0.012050538 0.0070294808 0.035823852
0.01303472 0.0070186956 0.032919347
-0.019969845 0.0079879379 0.033685774
-0.018987542 0.0079947542 0.034534127
-0.017959578 0.0079820352 0.03550896
-0.016859096 0.0079336921 0.03652072
-0.015784224 0.0078921122 0.037149191
-0.014931642 0.0079635428 0.037225038
-0.013858135 0.0079189343 0.03764838
-0.012694296 0.0078118746 0.038139015
-0.011788194 0.007858796 0.037500352
-0.010779135 0.0078393715 0.038283855
0 0.0079081748 0.03747189
0.00098358071 0.0078686457 0.037808836
0.0019572671 0.0078290682 0.037509024
0.0029481081 0.0078616217 0.037232697
0.0038773231 0.0077546462 0.038819104
0.0049650823 0.0079441322 0.038978696
0.0059242467 0.0078989957 0.039362043
0.0069258469 0.0079152538 0.038807631
0.0079694958 0.0079694958 0.038562238
0.0089465566 0.0079524945 0.037871808
0.009885788 0.0079086311 0.037108719
0.010897115 0.0079251751 0.036667138
0.011910309 0.0079402057 0.03589797
-0.018762091 0.0088873059 0.032884628
-0.017824892 0.008912446 0.03412661
-0.016846813 0.008918901 0.035251468
-0.015814574 0.0088956971 0.036944389
-0.014768201 0.0088609206 0.036937535
-0.013882988 0.0089247776 0.037246913
-0.012768077 0.0088394377 0.039066643
-0.011797074 0.0088478057 0.039066643
-0.010831518 0.0088621508 0.039776891
-0.0097798351 0.0088018514 0.039345056
-0.008771657 0.008771657 0.038539708
-0.0078242607 0.0088022929 0.038069904
-0.0069288928 0.0089085763 0.038322747
-0.0058690738 0.0088036107 0.038450032
-0.0049002059 0.0088203708 0.038066775
-0.0038985747 0.008771793 0.039703459
-0.0029406366 0.0088219093 0.039433867
-0.0019448493 0.0087518217 0.040186048
-0.00097761536 0.0087985378 0.039043754
0 0.008781557 0.038671851
0.00097596942 0.0087837242 0.038696259
0.0019788647 0.0089048902 0.04015851
0.0029614842 0.0088844523 0.039095432
0.0039612385 0.0089127859 0.039935201
0.0049273316 0.0088691963 0.040318638
0.0058738282 0.0088107418 0.040318429
0.0069003068 0.0088718226 0.038520336
0.0078832582 0.0088686645 0.038356364
0.0088786157 0.0088786157 0.037476033
0.00988892 0.0089000277 0.036362916
0.010953515 0.0089619663 0.035799563
-0.017030103 0.010017707 0.034621269
-0.015981255 0.0099882837 0.036485016
-0.014671387 0.0097809248 0.0369187
-0.013842932 0.0098878089 0.037246913
-0.012807714 0.0098520871 0.038294435
-0.011726184 0.0097718202 0.038503826
-0.010859027 0.0098718423 0.039776891
-0.0097768176 0.0097768176 0.039762944
-0.0088989316 0.0098877018 0.039540023
-0.0079120435 0.0098900544 0.039931536
-0.0068905116 0.0098435879 0.039927274
-0.0058778678 0.0097964462 0.039774239
-0.0049602576 0.0099205151 0.039728194
-0.0039380849 0.0098452112 0.040176719
-0.0029371704 0.0097905677 0.039815098
-0.0019667998 0.009833999 0.039915264
-0.0009822509 0.0098225093 0.03944537
0 0.0098176636 0.039573342
0.00099023629 0.0099023618 0.039573342
0.0019627768 0.0098138833 0.039924532
0.0029757547 0.0099191824 0.038743287
0.0039041946 0.009760486 0.038743287
0.0048974776 0.0097949551 0.038477749
0.0058913985 0.0098189972 0.037852556
0.0068913652 0.009844807 0.036130577
0.0079432465 0.0099290581 0.036787391
0.0089559713 0.0099510793 0.036324978
0.0098901615 0.0098901615 0.035640091
-0.014944521 0.010959315 0.035690457
-0.013875286 0.01090201 0.036623806
-0.012844097 0.010868082 0.036914527
-0.011776593 0.01079521 0.038103938
-0.010833517 0.010833517 0.039104253
-0.0097737396 0.010751113 0.039395571
-0.008787564 0.010740357 0.039474905
-0.0078691095 0.010820026 0.040246367
-0.0068614776 0.010782322 0.040503889
-0.005938916 0.010888012 0.040503889
-0.0049062986 0.010793856 0.040805042
-0.0039266115 0.010798182 0.040470541
-0.0029591026 0.010850043 0.040026665
-0.0019682557 0.010825406 0.040026665
-0.00098761136 0.010863725 0.039212257
0 0.01079604 0.039212257
0.00098968367 0.01088652 0.038998157
0.0019744728 0.010859599 0.038063914
0.0029450231 0.010798418 0.037449121
0.0039251489 0.010794159 0.0374991
0.004942867 0.010874308 0.037351608
0.0059820656 0.01096712 0.037365466
-0.013843592 0.011865936 0.037375927
-0.012825754 0.011839157 0.037534386
-0.011872977 0.011872977 0.037882537
-0.010892386 0.011882602 0.038327485
-0.0098412791 0.011809535 0.038523346
-0.0088368366 0.01178245 0.038698763
-0.0079548312 0.011932246 0.039326459
-0.0069164392 0.011856752 0.039685041
-0.0058865673 0.011773135 0.039791912
-0.0048980229 0.011755256 0.039864033
-0.0039541209 0.011862362 0.039970905
-0.0029623643 0.011849457 0.039480597
-0.001955681 0.011734086 0.039419949
-0.00098845467 0.011861456 0.038316339
0 0.011810296 0.037818819
0.00098869845 0.011864381 0.037478864
0.0019476359 0.011685816 0.036989897
0.0029347555 0.011739022 0.036834002
-0.01284059 0.01284059 0.036086947
-0.011910795 0.012903362 0.037280858
-0.010864061 0.012839345 0.037920862
-0.0099197133 0.012895627 0.037920862
-0.0088520497 0.012786294 0.038014442
-0.0079137515 0.012859846 0.038657486
-0.0068668481 0.012752717 0.038868397
-0.0059281546 0.012844335 0.039166391
-0.0049153133 0.012779815 0.039438576
-0.0039189542 0.012736601 0.039733946
-0.002952992 0.012796299 0.039062321
-0.001978077 0.0128575 0.038539857
-0.000978139 0.012715807 0.037381351
0 0.012800619 0.036956161
-0.011056126 0.014071434 0.036890894
-0.0097263725 0.013616922 0.036753953
-0.0088721402 0.013801107 0.03633526
-0.0079593901 0.013928932 0.037430376
-0.0068893004 0.013778601 0.037271082
-0.0059024296 0.013772336 0.037580013
-0.0049258671 0.013792429 0.038071483
-0.0039247181 0.013736513 0.038575083
-0.0029390324 0.013715484 0.037160844
-0.0019885136 0.013919596 0.037129194
-0.0097687412 0.014653113 0.035543263
-0.0089223245 0.014870542 0.036009908
-0.0079240659 0.014857624 0.036395907
-0.0069991318 0.01499814 0.03686136
-0.0059114001 0.0147785 0.036921889
-0.0049190237 0.014757072 0.03707397
-0.0039455662 0.014795873 0.03675738
-0.0078950357 0.015790071 0.036128491
-0.0069302269 0.015840519 0.035759032
-0.0059367795 0.015831413 0.035759032
0 0 0 1 0 0 0 1 0 0 0 1 0 0 0 0 0 849 1 0 0
