ply
format ascii 1.0
comment PCL generated
element vertex 313
property float x
property float y
property float z
element camera 1
property float view_px
property float view_py
property float view_pz
property float x_axisx
property float x_axisy
property float x_axisz
property float y_axisx
property float y_axisy
property float y_axisz
property float z_axisx
property float z_axisy
property float z_axisz
property float focal
property float scalex
property float scaley
property float centerx
property float centery
property int viewportx
property int viewporty
property float k1
property float k2
end_header
-0.0095762573 0.038305029 0.0043280125
-0.008521907 0.038348582 0.0041348636
-0.0073932582 0.03802247 0.0040024221
-0.0042227218 0.038004495 0.0041594803
-0.011723586 0.039433885 0.0042133331
-0.010745903 0.039759848 0.0045477748
-0.009713402 0.039932881 0.004466325
-0.008615165 0.039845139 0.0042923987
-0.0053529511 0.039611842 0.0043680966
-0.0043269224 0.040024035 0.0043680966
-0.0032071942 0.039555397 0.0042861998
-0.0021428985 0.039643623 0.0041539669
-0.012861212 0.040727172 0.0042298734
-0.011824992 0.040849973 0.0046257377
-0.010774964 0.040944867 0.0051801801
-0.009640689 0.040705133 0.0051007271
-0.0086723976 0.041193888 0.0045251548
-0.0074829119 0.040621523 0.0041971803
-0.0064637102 0.040936835 0.0043995082
-0.0053832708 0.040912859 0.0047748387
-0.0042797858 0.040657967 0.0048192441
-0.0032242951 0.040841073 0.0048116744
-0.0021540553 0.040927049 0.0050037205
-0.0010673254 0.040558364 0.0049778521
0 0.040800691 0.0043400526
-0.012906919 0.041947488 0.0043244064
-0.011752107 0.04166656 0.0047712922
-0.010691708 0.041697662 0.005189389
-0.0097415959 0.042213585 0.0048374534
-0.0086654769 0.0422442 0.0046091974
-0.0076195979 0.042452045 0.00441131
-0.0065710316 0.042711705 0.0043976307
-0.0054138461 0.042227998 0.0047672689
-0.0042947866 0.04187417 0.0049842894
-0.0032390014 0.04210702 0.0049304366
-0.0021505074 0.041934896 0.0055407584
-0.0010719865 0.041807473 0.0055343211
0 0.042141326 0.0049842894
0.0010596063 0.041324645 0.004534632
-0.015025659 0.042930454 0.0041821301
-0.014030819 0.043171749 0.0049102604
-0.012895035 0.042983446 0.0051755011
-0.011886002 0.043221824 0.0051932931
-0.010933532 0.04373413 0.00552544
-0.0098221954 0.0436542 0.0048879981
-0.0087463437 0.043731716 0.0047535002
-0.0076669944 0.043811396 0.0044342577
-0.0065264744 0.04350983 0.0044450462
-0.005495335 0.04396268 0.0045066774
-0.0044315793 0.044315793 0.0049214363
-0.0032787987 0.043717317 0.0049304366
-0.0021526513 0.043053024 0.0053997338
-0.00107943 0.043177195 0.0055343211
0 0.042842414 0.0053932965
0.0010783985 0.043135941 0.005025506
0.0021297173 0.042594343 0.0046547353
-0.016076175 0.04394155 0.0041791499
-0.015116954 0.044271082 0.0053308904
-0.013967409 0.044051062 0.0052959621
-0.012869251 0.043969944 0.0054732263
-0.012037101 0.04486556 0.0055124164
-0.01086106 0.044530347 0.0053496361
-0.0097193113 0.044276867 0.005168438
-0.0086941812 0.044557683 0.0047259033
-0.0075895055 0.04445282 0.0045066774
-0.006513922 0.044511802 0.0044687986
-0.0054511977 0.044699825 0.0047642589
-0.0043390016 0.044474766 0.0049705207
-0.0032643299 0.044612508 0.0049691796
-0.0021994247 0.045088205 0.0056902468
-0.0010722446 0.043962028 0.005833149
0 0.044138741 0.005833149
0.0010745496 0.044056535 0.0057239234
0.0021373117 0.043814894 0.0057694912
0.0032241147 0.044062905 0.004766494
-0.016234767 0.045457348 0.004686892
-0.015060473 0.04518142 0.0053134561
-0.013926797 0.044994269 0.0052905679
-0.013065984 0.045730941 0.0053636134
-0.011820633 0.04513333 0.005340606
-0.0108316 0.045492724 0.0051656663
-0.0098668709 0.0460454 0.004624635
-0.0086832205 0.04558691 0.0043109059
-0.0065824674 0.046077274 0.0040425658
-0.0054349434 0.045653526 0.0042954087
-0.0043529267 0.045705732 0.0045628846
-0.0032780459 0.045892645 0.0047351122
-0.0021793335 0.045766003 0.0052504838
-0.0010899195 0.045776621 0.0056902468
0 0.045341231 0.0057049692
0.0010680883 0.044859711 0.0058428943
0.0021467085 0.045080878 0.0058074892
0.0032120086 0.044968121 0.0055652261
0.0044092 0.0462966 0.0044390559
-0.016038761 0.045977782 0.0051755607
-0.015001387 0.046075691 0.0056432784
-0.014116925 0.046694443 0.0053189397
-0.013103277 0.04695341 0.0052839518
-0.011972192 0.04680039 0.0050266981
-0.010879667 0.046782572 0.004624635
-0.0098184589 0.04691042 0.0044342577
-0.0043476615 0.046737362 0.0042488575
-0.0032609985 0.046740979 0.0043372512
-0.0021627562 0.046499256 0.0048925281
-0.0010973933 0.047187913 0.0055377185
0 0.046544153 0.0055856109
0.0010729611 0.046137325 0.0058732629
0.0021414161 0.046040446 0.0058506131
0.0031835202 0.045630459 0.005528152
0.0043078926 0.046309847 0.004766494
-0.017182214 0.04725109 0.0044677854
-0.016029008 0.04701842 0.0050851405
-0.015080469 0.047395758 0.0055295527
-0.014139123 0.047855493 0.0051876009
-0.013051052 0.047853854 0.0051375031
-0.011990304 0.047961216 0.0046391487
-0.0032523037 0.047700454 0.0040378869
-0.0021844795 0.048058547 0.0046010613
-0.001081037 0.047565624 0.0050927401
0 0.048173811 0.0056370795
0.0010698242 0.047072262 0.005733341
0.002126052 0.046773143 0.0058506131
0.0032126659 0.0471191 0.0055778325
0.0042424919 0.046667408 0.0050067902
-0.018254386 0.048320435 0.0042647719
-0.017100973 0.048096485 0.0051045418
-0.016234422 0.048703268 0.0051479042
-0.015064462 0.048421487 0.0055706799
-0.014037618 0.048591759 0.0053545237
-0.013090351 0.049088817 0.0050586462
-0.011949036 0.048882421 0.0044429302
-0.002165338 0.048720106 0.0042831898
-0.0010812854 0.048657842 0.0050829947
0 0.049271502 0.0054054856
0.0010706816 0.048180673 0.0055707693
0.0021480087 0.048330195 0.0057512522
0.0032243263 0.048364896 0.0057199001
0.0042694407 0.048031207 0.0052965283
0.0053124167 0.047811754 0.0041469336
-0.018277051 0.04945555 0.0044871867
-0.017289871 0.049708378 0.0051479042
-0.016143609 0.049507067 0.005628705
-0.014957684 0.049146678 0.0056557655
-0.014286336 0.050551649 0.0055706799
-0.012919563 0.049524993 0.0056123435
-0.012010961 0.050227657 0.0048333108
-0.010913101 0.050200265 0.0042602122
-0.003250316 0.049838182 0.004114151
-0.00217103 0.049933691 0.0048060119
-0.0010858886 0.049950875 0.0055055022
0 0.049399301 0.005561024
0.0010803761 0.049697302 0.0057745576
0.0021480112 0.04940426 0.0058010519
0.0031907107 0.04892423 0.0057503581
0.0043174275 0.04965042 0.0053628683
-0.017249098 0.050669227 0.0051338673
-0.015959252 0.050005652 0.0054980218
-0.015083039 0.050635919 0.0056242347
-0.01416028 0.051194862 0.0054781735
-0.012941286 0.050686702 0.0055587888
-0.011960241 0.051102851 0.00480178
-0.010825823 0.050881367 0.004175812
-0.0032768168 0.051336799 0.0042826831
-0.0021880907 0.05142013 0.0048925281
-0.0010726176 0.050413027 0.0057503581
0 0.051227216 0.0058506131
0.0010785523 0.050691962 0.0059169531
0.0021270479 0.049985625 0.0059568286
0.0032194084 0.050437402 0.0058238208
0.004294632 0.050461926 0.0052122772
0.0053196978 0.05000516 0.004086256
-0.017146301 0.051438902 0.0054860413
-0.0161987 0.051835842 0.0059561729
-0.015010018 0.051462919 0.0061319768
-0.014009829 0.051728599 0.0062481761
-0.012941858 0.051767431 0.0062675476
-0.011962068 0.052198116 0.005346626
-0.010791789 0.051800586 0.0047673285
-0.0098384684 0.052471831 0.0042826831
-0.0043217069 0.051860485 0.0042792559
-0.0032693194 0.052309111 0.0047721863
-0.0021695301 0.052068725 0.005561024
-0.0010828984 0.051979117 0.0060946941
0 0.052112956 0.0062865317
0.0010665522 0.051194508 0.0063582361
0.0021541528 0.051699668 0.0064123869
0.0032299084 0.051678535 0.0058574677
0.0042807832 0.051369399 0.0053423941
-0.017178925 0.052610453 0.0056312978
-0.016145786 0.052742902 0.0059846044
-0.014904769 0.052166693 0.0065597892
-0.014014298 0.052823123 0.0066360533
-0.013290085 0.054267846 0.0066896081
-0.011816745 0.052638225 0.0061390996
-0.010874484 0.053284973 0.0056123435
-0.0098191937 0.053460054 0.0048073232
-0.0087421825 0.053545866 0.0046530068
-0.0076421387 0.053494968 0.0043360591
-0.0065190769 0.053239126 0.0043504238
-0.0054415232 0.053326927 0.0044294
-0.0043819048 0.053678334 0.0046356618
-0.0032539994 0.053148653 0.0054289103
-0.0021492729 0.052657183 0.0060337782
-0.0011246989 0.055110242 0.0062979758
0 0.052402787 0.0064921677
0.0010662336 0.052245446 0.006359458
0.0021537517 0.052766912 0.0061884224
0.0031975328 0.052226368 0.0058166981
0.0043262262 0.05299627 0.0046117902
-0.017159188 0.053622466 0.0051479042
-0.015972182 0.053240612 0.0060117245
-0.015033143 0.053689796 0.0065869093
-0.013916481 0.05352493 0.0067632794
-0.012973247 0.054055199 0.0070019066
-0.012239608 0.055634584 0.0068348646
-0.010832462 0.054162312 0.0065703988
-0.0096801016 0.053778343 0.0059275329
-0.0087579107 0.054736946 0.0051794052
-0.0075957701 0.0542555 0.0049290061
-0.0065345154 0.054454297 0.004812181
-0.0054425877 0.05442588 0.0048751235
-0.0043249084 0.054061357 0.0054289103
-0.0032219701 0.053699505 0.0060289204
-0.0022430045 0.056075111 0.0071351528
-0.0010686921 0.053434603 0.006844461
0 0.053700991 0.006844461
0.0010751056 0.05375528 0.0063841045
0.0021380906 0.053452265 0.0062211752
0.0032237852 0.053729754 0.0056944788
0.0043251505 0.054064382 0.0042508543
-0.016079655 0.054670826 0.0057694912
-0.015012399 0.054688025 0.0065394938
-0.013836715 0.054282501 0.0067847967
-0.012843708 0.054585759 0.0071508884
-0.011895943 0.055153921 0.0071184635
-0.011113296 0.056677811 0.007037431
-0.0098283943 0.055694237 0.0068710744
-0.0086047323 0.054855168 0.0064148903
-0.007537955 0.054919384 0.006005764
-0.0065070838 0.055310212 0.0058603585
-0.0053671109 0.054744534 0.006107837
-0.0043344521 0.055264264 0.0064305067
-0.0034173012 0.058094122 0.0069839358
-0.0021596849 0.055071965 0.0071640015
-0.0010760418 0.054878131 0.0073182285
0 0.054551315 0.0068390965
0.0010663641 0.054384567 0.0063759983
0.0021541202 0.054930069 0.0057489872
0.0032213321 0.05476265 0.0046266317
-0.014943354 0.055503882 0.0060065687
-0.013909334 0.055637337 0.0066360533
-0.012793227 0.055437319 0.006973356
-0.011661465 0.055126924 0.0070647001
-0.010788196 0.056098618 0.00697577
-0.010005915 0.057811953 0.0068573356
-0.0089313677 0.058053892 0.0065461099
-0.0079228003 0.058855083 0.0064032078
-0.0067709279 0.058681376 0.006603688
-0.0056341663 0.05859533 0.0067918003
-0.0044663423 0.058062449 0.0068930984
-0.0031579123 0.054737147 0.0069426298
-0.0021420706 0.055693835 0.0069312155
-0.0010770315 0.056005634 0.0066325068
0 0.055584475 0.0065450966
0.0010799338 0.056156557 0.0058967173
0.0021499312 0.055898212 0.0051620901
-0.013917419 0.056740247 0.0058813095
-0.012847833 0.056744598 0.0067305267
-0.011772695 0.056722987 0.0068303049
-0.010620352 0.056287866 0.0069473088
-0.0094974143 0.055929217 0.006782949
-0.008506407 0.056354947 0.0065407753
-0.0073969113 0.056005184 0.0063600242
-0.0063705621 0.0562733 0.0064010322
-0.0053222785 0.056416154 0.0066090226
-0.0042415 0.056199871 0.0068384707
-0.003189716 0.056351651 0.0069488287
-0.0021474245 0.056906749 0.0068212748
-0.0010707602 0.056750286 0.0063124001
0 0.057096463 0.0059186816
0.0010714252 0.056785531 0.0053079724
0.0021464573 0.056881119 0.0043819845
-0.01292842 0.058177892 0.0055706799
-0.011795409 0.057904735 0.0060500205
-0.010673651 0.057637718 0.0067486167
-0.0096247876 0.057748731 0.0065461099
-0.0084673651 0.057154715 0.0058889985
-0.0074304319 0.057320479 0.0061823428
-0.0064188614 0.057769753 0.006195873
-0.0053301984 0.057566147 0.0065594018
-0.0042529171 0.057414383 0.0065866411
-0.0032396072 0.058312934 0.006747514
-0.0021389846 0.057752583 0.0059907138
-0.0010716171 0.057867326 0.0052401423
0 0.057785925 0.0049230158
-0.011703789 0.058518946 0.0045963824
-0.010703297 0.05886814 0.0057168305
-0.009634072 0.05887489 0.0058404505
-0.0085490886 0.058774982 0.0054398775
-0.0074977078 0.05891056 0.0054798722
-0.0063946089 0.058617249 0.005672574
-0.005341101 0.058752112 0.0058889985
-0.0043022349 0.059155729 0.005672574
-0.0032035494 0.058731738 0.0055971444
-0.0021441893 0.058965202 0.0052003562
-0.0010762122 0.05919167 0.0042872429
-0.0096427491 0.059999332 0.0051198304
-0.0086055892 0.060239125 0.0047574043
-0.0074605006 0.059684005 0.0053490698
-0.0064319219 0.060031272 0.0052508116
-0.0053658523 0.060097545 0.0053783953
-0.0042676805 0.059747525 0.0047574043
-0.0031952132 0.05964398 0.0041049123
0 0 0 1 0 0 0 1 0 0 0 1 0 0 0 0 0 313 1 0 0
