ply
format ascii 1.0
comment PCL generated
element vertex 227
property float x
property float y
property float z
element camera 1
property float view_px
property float view_py
property float view_pz
property float x_axisx
property float x_axisy
property float x_axisz
property float y_axisx
property float y_axisy
property float y_axisz
property float z_axisx
property float z_axisy
property float z_axisz
property float focal
property float scalex
property float scaley
property float centerx
property float centery
property int viewportx
property int viewporty
property float k1
property float k2
end_header
-0.0099580595 -0.054216105 0.0042494833
-0.0089450162 -0.054788224 0.0044130981
-0.00783657 -0.054855991 0.0046060979
-0.0067565436 -0.055178437 0.0046060979
-0.0058606146 -0.057434022 0.0046447515
-0.0047045988 -0.057631332 0.004694283
-0.0035770028 -0.058424376 0.004599452
-0.0023889416 -0.058529068 0.004116863
-0.0096962918 -0.051713556 0.0043797791
-0.0085670808 -0.051402483 0.0044319332
-0.0075139143 -0.051523983 0.0047172308
-0.0064436607 -0.051549286 0.0047172308
-0.0054137884 -0.051972371 0.0047127604
-0.0042497874 -0.050997447 0.0047369301
-0.0032188294 -0.05150127 0.0046245754
-0.0021602069 -0.051844966 0.0042777359
-0.0010653415 -0.051136389 0.0041437149
-0.011820402 -0.050505355 0.0042072833
-0.010922082 -0.051333785 0.0048201978
-0.0097552529 -0.050944101 0.0048484802
-0.0087250723 -0.051259801 0.0049751699
-0.0076597985 -0.051430073 0.0049102306
-0.0065207537 -0.05107924 0.0048385859
-0.0054208231 -0.050955739 0.0047623515
-0.0043903105 -0.051586147 0.0048890114
-0.0032521093 -0.050949715 0.0047990978
-0.0021763423 -0.051144041 0.0047129691
-0.0010861828 -0.051050588 0.0046002269
0 -0.050353408 0.0041678846
-0.012886866 -0.049399655 0.0042809546
-0.011990978 -0.050144095 0.0048833489
-0.010831348 -0.049824201 0.0051217377
-0.0097046345 -0.049601469 0.0050224364
-0.0086723389 -0.04986595 0.0050742626
-0.0076056062 -0.049979702 0.0049574971
-0.0065386132 -0.050129373 0.0048938096
-0.0054420633 -0.050066985 0.0047990978
-0.0043443227 -0.049959708 0.0049003065
-0.0032486806 -0.049813103 0.0047081411
-0.0021755125 -0.050036792 0.0046890676
-0.0010818299 -0.049764179 0.00477314
0 -0.049730893 0.0046495795
-0.013901414 -0.048120286 0.0042925477
-0.012966794 -0.04862548 0.0048980713
-0.011915722 -0.048746139 0.0055268109
-0.010805917 -0.048626631 0.005566448
-0.0098289382 -0.049144696 0.005158335
-0.0087581333 -0.049264502 0.0051364601
-0.0076403958 -0.049116831 0.0049574971
-0.0066044279 -0.049533214 0.0047438741
-0.0054793386 -0.049314048 0.0045347512
-0.0043780184 -0.049252711 0.0047081411
-0.0032772229 -0.049158346 0.0044878125
-0.0021681252 -0.048782822 0.0045985281
-0.0010831638 -0.048742373 0.0049594641
0 -0.04900701 0.0047932565
0.0010753473 -0.048390631 0.0043876469
-0.015124566 -0.04753435 0.0043773353
-0.014118647 -0.047786191 0.0053653121
-0.012975443 -0.047576625 0.0058005154
-0.011913662 -0.047654647 0.0061112046
-0.010946427 -0.048164278 0.0059529245
-0.0098376377 -0.048095115 0.0052284598
-0.0087668411 -0.048217624 0.0050401986
-0.0076365559 -0.048001207 0.0047320127
-0.0065571535 -0.048085794 0.0043700337
-0.0054696319 -0.048132759 0.0040763915
-0.0043799486 -0.048179433 0.0046060979
-0.0032792138 -0.048095137 0.0042876303
-0.0021934495 -0.048255887 0.0044867396
-0.0010895829 -0.047941647 0.0046822131
0 -0.047576439 0.004783541
0.0010856433 -0.047768306 0.004782021
0.0021774487 -0.047903869 0.0041674376
-0.016046032 -0.045998625 0.0042633414
-0.015157466 -0.046555072 0.0057661533
-0.014074387 -0.046553742 0.0062667131
-0.012933115 -0.046343662 0.0064487755
-0.011938194 -0.046667486 0.0067537427
-0.010998458 -0.047293372 0.0061527789
-0.0098222783 -0.046928663 0.0058078468
-0.0088569652 -0.047606189 0.0052284598
-0.0077268654 -0.04746503 0.0048703551
-0.0066291136 -0.047508646 0.004434973
-0.0055244486 -0.047510259 0.0041448772
-0.0044119223 -0.047428165 0.0046751201
-0.003290826 -0.047168504 0.0044851601
-0.0022121056 -0.047560267 0.0047708154
-0.0010947865 -0.047075819 0.0052182078
0 -0.046992544 0.0052518845
0.0010858745 -0.046692602 0.0052218437
0.0021551175 -0.046335027 0.004960984
0.0032502681 -0.046587177 0.0042749047
-0.0172369 -0.045246862 0.0041023791
-0.016280217 -0.045584612 0.0048311949
-0.015080838 -0.045242514 0.0059759021
-0.014058383 -0.045419391 0.0062667131
-0.013126356 -0.045942247 0.0064004362
-0.011980003 -0.04574183 0.0062866509
-0.01098619 -0.046142001 0.0059194267
-0.0099858204 -0.046600502 0.0051926374
-0.0087399706 -0.045884844 0.0047307611
-0.0077068247 -0.046240952 0.0042615235
-0.0021938875 -0.046071641 0.0040826797
-0.0010882216 -0.045705307 0.0046072006
0 -0.046255596 0.0049558282
0.001084401 -0.045544848 0.0051332712
0.0021642945 -0.045450184 0.004960984
0.0032496662 -0.045495328 0.0044462085
-0.017278166 -0.044275302 0.004602313
-0.016269842 -0.044470906 0.0051911473
-0.015129684 -0.044308364 0.0060532987
-0.014123461 -0.044543225 0.0063068271
-0.013050416 -0.044588923 0.0064505339
-0.011975737 -0.044636842 0.0063015819
-0.011042977 -0.04527621 0.005373776
-0.0098322891 -0.044791546 0.0048865974
-0.0088707823 -0.045462761 0.0042318106
-0.0011099736 -0.045508921 0.0043669343
0 -0.044713233 0.00479123
0.00109766 -0.045004066 0.0051332712
0.0021730994 -0.044548541 0.0047132671
0.0032492266 -0.044406097 0.0045214295
-0.0172951 -0.043237749 0.004602313
-0.016289374 -0.04343833 0.0048035383
-0.01521157 -0.043461628 0.0054886639
-0.014121477 -0.043450698 0.0056683123
-0.012945977 -0.043153256 0.00574705
-0.012245597 -0.044529442 0.0054351687
-0.010974171 -0.043896683 0.004781276
-0.0099330172 -0.044146743 0.0044309795
0 -0.044043742 0.0044492185
0.0010995127 -0.043980505 0.0048546791
0.0021462201 -0.0429244 0.0045963824
0.003278981 -0.043719746 0.0044919848
0.0043311096 -0.043311097 0.004311353
-0.017125649 -0.04174377 0.0046437979
-0.016343385 -0.042492803 0.0049128532
-0.01521189 -0.042375978 0.0052712858
-0.014088655 -0.042265967 0.0054886639
-0.01323376 -0.043009721 0.005407393
-0.012013695 -0.042594008 0.00507164
-0.010970785 -0.042786062 0.0044195354
0 -0.04279457 0.0041606724
0.0010915886 -0.042571958 0.0043460429
0.0021847349 -0.04260233 0.0044118464
-0.017450951 -0.041446008 0.00472188
-0.01632271 -0.041350864 0.0047596097
-0.01510595 -0.041001864 0.0053373873
-0.01402418 -0.040993761 0.005449295
-0.013086195 -0.041439619 0.0053910017
-0.012061946 -0.041668542 0.0048745275
0.001116312 -0.042419855 0.0042538941
-0.017423937 -0.040292855 0.0044751465
-0.016119901 -0.039762426 0.0046797991
-0.015390646 -0.040675279 0.0051892996
-0.01420494 -0.040429447 0.0053373873
-0.013080494 -0.040331528 0.0052172244
-0.012048722 -0.040527523 0.0048466027
0.0010955028 -0.040533606 0.0041606724
-0.016299235 -0.03911816 0.0046643913
-0.01522758 -0.039156634 0.0051023066
-0.01407953 -0.038989466 0.0051892996
-0.013219669 -0.039659005 0.0049262345
-0.012056121 -0.039456397 0.0048311949
-0.010944432 -0.039399952 0.0040887296
0.0010910138 -0.039276492 0.0042559206
0.0021828574 -0.03929143 0.004304409
-0.016288251 -0.038005918 0.004634887
-0.015154439 -0.037886098 0.0048983097
-0.014238899 -0.038335495 0.0051892996
-0.013189789 -0.03847022 0.0052206516
-0.012090166 -0.038468711 0.0046911836
-0.010989954 -0.038464837 0.004376471
0 -0.038100459 0.0042327046
0.0011008513 -0.038529798 0.0049974918
0.0021641431 -0.037872504 0.0048629045
0.0032293999 -0.037676331 0.0040539503
-0.015298791 -0.037154209 0.0046797991
-0.014058008 -0.036767099 0.0047060549
-0.012831149 -0.036354922 0.0049877465
-0.012340606 -0.038143694 0.0049622953
-0.010952826 -0.037239607 0.0046543479
-0.0098969368 -0.037388433 0.0044726431
-0.0011002364 -0.037408039 0.0042952597
0 -0.037848152 0.0054005086
0.0010826171 -0.036808979 0.0053893924
0.0021415192 -0.036405828 0.0049548149
-0.015175281 -0.035770305 0.0041835308
-0.014081458 -0.035745237 0.0046041608
-0.012975952 -0.035683867 0.004686743
-0.01197365 -0.035920952 0.0048856437
-0.011107584 -0.036655031 0.0047060549
-0.0097622983 -0.035795093 0.0045108795
-0.0087786699 -0.036212012 0.0044486225
-0.0077140173 -0.036366083 0.0041227043
-0.0021661501 -0.035741478 0.0044287741
-0.001121552 -0.037011214 0.0054778755
0 -0.035782032 0.0054005086
0.0010769475 -0.035539269 0.0049852729
0.0021950761 -0.036218755 0.0041367114
-0.01300773 -0.034687281 0.0044674873
-0.011839055 -0.034440886 0.0045505166
-0.010802974 -0.034569521 0.0048256218
-0.010250457 -0.036446068 0.0048318207
-0.009019142 -0.036076568 0.0045297444
-0.0076798405 -0.035107844 0.0045846403
-0.0065384987 -0.034871992 0.0045010448
-0.0054261438 -0.03472732 0.0043937564
-0.0043697241 -0.034957793 0.0044267774
-0.0033727272 -0.035975758 0.0043582022
-0.0022378224 -0.035805158 0.0055343211
-0.001085492 -0.034735743 0.0053493977
0 -0.03437797 0.0051577091
0.0010878018 -0.034809656 0.0040680766
-0.011963701 -0.033715889 0.0041761398
-0.010767407 -0.033378962 0.0044389367
-0.0096753743 -0.033326291 0.0044921935
-0.0088337008 -0.034230594 0.0043917596
-0.0077077225 -0.034134202 0.0042046607
-0.0067458446 -0.034853533 0.0041311383
-0.0057183825 -0.035453971 0.0040302575
-0.0043822504 -0.03396244 0.0040671825
-0.0032617741 -0.033705 0.0043045282
-0.0021768599 -0.033741329 0.0043349266
-0.0010709317 -0.033198882 0.0041271746
0 -0.034048937 0.0041095316
0 0 0 1 0 0 0 1 0 0 0 1 0 0 0 0 0 227 1 0 0
