ply
format ascii 1.0
comment PCL generated
element vertex 396
property float x
property float y
property float z
element camera 1
property float view_px
property float view_py
property float view_pz
property float x_axisx
property float x_axisy
property float x_axisz
property float y_axisx
property float y_axisy
property float y_axisz
property float z_axisx
property float z_axisy
property float z_axisz
property float focal
property float scalex
property float scaley
property float centerx
property float centery
property int viewportx
property int viewporty
property float k1
property float k2
end_header
-0.0096893832 0.013995777 0.0042666793
-0.0086205546 0.0140084 0.0045812726
-0.0075198789 0.013965489 0.0045964122
-0.01405215 0.016394176 0.0042809546
-0.013271372 0.016890837 0.0040870309
-0.01192434 0.016694076 0.0046797991
-0.010637686 0.016547512 0.004806757
-0.0095771002 0.016759925 0.0052154362
-0.0082890829 0.016578166 0.0052154362
-0.0071245926 0.01662405 0.0050638914
-0.0060001253 0.016800351 0.0051881373
-0.0046861647 0.016401576 0.0050638914
-0.0035019035 0.016342217 0.0050993264
-0.0023963077 0.016774153 0.0042238533
-0.012804023 0.01600503 0.004558295
-0.011805534 0.016098456 0.0048596561
-0.010515545 0.015773317 0.0055667758
-0.0096070971 0.01601183 0.0065748692
-0.0084236152 0.015794277 0.0066149831
-0.0074328459 0.015927527 0.0066679418
-0.0063895471 0.015973868 0.006513834
-0.0052605257 0.015781578 0.0065455437
-0.0042314483 0.015867932 0.006513834
-0.0031948597 0.015974298 0.006513834
-0.0021307927 0.015980946 0.0057787597
-0.0010589474 0.015884211 0.0052030683
0 0.016024102 0.0048657656
0.0010481015 0.015721522 0.0040429235
-0.015430292 0.017634619 0.0040643513
-0.01394935 0.017168432 0.004607141
-0.012860519 0.017147359 0.0053859055
-0.011695863 0.017012164 0.006318152
-0.01072466 0.017159456 0.0070742369
-0.0095749218 0.017022083 0.0076556504
-0.0084983353 0.016996671 0.0076026917
-0.0074786064 0.017093958 0.0067527592
-0.0064137839 0.017103424 0.0065639019
-0.0053130193 0.017001662 0.0064925551
-0.0042831898 0.017132759 0.006592989
-0.0031983887 0.017058074 0.0072586238
-0.0021359483 0.017087586 0.0064306259
-0.0010715788 0.017145261 0.006290555
0 0.017026385 0.0060426891
0.0010652425 0.017043879 0.0053558648
0.0021319271 0.017055416 0.0048657656
-0.015011899 0.018228734 0.0046183765
-0.013940002 0.018229233 0.0055680871
-0.01273059 0.018035004 0.0064889193
-0.011871506 0.018346872 0.0071316957
-0.010668745 0.018136866 0.0076579452
-0.00966438 0.018254941 0.0076049864
-0.0086251246 0.018328391 0.0074059069
-0.0074629136 0.018124219 0.0065242648
-0.0064346874 0.018231615 0.0065419674
-0.005384353 0.018306801 0.0064306259
-0.0042669103 0.018134369 0.0064145029
-0.0032163351 0.018225899 0.0070801377
-0.0021543696 0.018312141 0.006592989
-0.0010663511 0.018127969 0.0064549744
0 0.01820777 0.0066237748
0.0010718949 0.018222213 0.0059680343
0.0021348754 0.01814644 0.0055634379
0.0033559613 0.019017115 0.0050228834
-0.016437069 0.019724481 0.0046797991
-0.014991511 0.019274799 0.0058324039
-0.013826885 0.019144917 0.0064889193
-0.012932319 0.019398479 0.0072216392
-0.011785816 0.019285882 0.0077908933
-0.01062191 0.019119438 0.007684201
-0.0096638734 0.019327747 0.0074082017
-0.0085652312 0.019271769 0.0072586238
-0.0075332974 0.019371336 0.0064880848
-0.0065428871 0.019628661 0.0061378777
-0.0053374744 0.019214908 0.0062876642
-0.0042781397 0.019251628 0.0061899424
-0.0032225628 0.019335376 0.0068555772
-0.0021275764 0.019148188 0.0073579252
-0.0010671484 0.019208672 0.0065696836
0 0.019390741 0.0066954494
0.001066052 0.019188935 0.0069902837
0.0021456068 0.019310459 0.0066078603
0.0032344407 0.019406643 0.00591892
0.0044637965 0.020087082 0.0049858987
0.0054270108 0.019537238 0.0042253435
-0.016034381 0.020310218 0.005110234
-0.014870479 0.020181365 0.0063197911
-0.013941623 0.020376218 0.0069722533
-0.012865079 0.020369709 0.0072205961
-0.011700742 0.020210372 0.0072205961
-0.010791781 0.020504385 0.0070317686
-0.009793737 0.020675668 0.0065419674
-0.0086343931 0.020506686 0.0061065853
-0.0076198163 0.020682359 0.0054356456
-0.0064906105 0.020553602 0.0046356618
-0.0054391744 0.020668864 0.004648298
-0.004353167 0.020677544 0.0051540732
-0.0032576381 0.020631708 0.005743742
-0.0021629003 0.020547552 0.0062928498
-0.0010756131 0.02043665 0.0062928498
0 0.020226099 0.0064821243
0.0010742731 0.02041119 0.0069902837
0.0021513281 0.020437617 0.0063860714
0.0031633566 0.020034593 0.0060913563
0.0043928763 0.020866163 0.0050500333
0.0054327794 0.020644562 0.0041874349
-0.017326469 0.021658085 0.0048602223
-0.015963972 0.021285295 0.0063860416
-0.015017787 0.02145398 0.0068322122
-0.013856846 0.021318223 0.0074215233
-0.012813113 0.021355188 0.0076666474
-0.011935034 0.021700062 0.0077269375
-0.01083613 0.02167226 0.0076020658
-0.0097136404 0.021585869 0.0066583455
-0.0087268669 0.021817168 0.0061065853
-0.0075421683 0.021549052 0.0054137111
-0.006520512 0.02173504 0.0046356618
-0.0054850979 0.021940392 0.004648298
-0.004333151 0.021665754 0.0052212477
-0.0032872036 0.021914691 0.0053720772
-0.0021859005 0.021859005 0.0060924292
-0.0010809633 0.021619266 0.00641343
0 0.021674141 0.0064885616
0.0010731682 0.021463363 0.0064925551
0.0021237838 0.021237837 0.0069902837
0.0032216166 0.021477444 0.0063860714
0.0042688441 0.02134422 0.0054974854
0.0056068869 0.022427548 0.0048007369
-0.016983535 0.022290889 0.0052462816
-0.016149959 0.022609944 0.0065608323
-0.014922154 0.022383232 0.0070194304
-0.0139247 0.022493748 0.0073302984
-0.012982385 0.022719175 0.0073184967
-0.011891998 0.022702908 0.0069381893
-0.01090475 0.022899976 0.0063793957
-0.0098066377 0.022882154 0.0053727627
-0.0086999396 0.022837341 0.0041526854
-0.0076021482 0.022806445 0.00402987
-0.0032462308 0.022723617 0.0041891038
-0.0021628481 0.022709904 0.0050301552
-0.0010892891 0.022875072 0.0056631863
0 0.022916062 0.0061666965
0.0010701083 0.022472275 0.0063281357
0.002143241 0.022504032 0.0071139932
0.0032069569 0.022448698 0.0066453218
0.0042093587 0.022099134 0.0063304603
0.0054058526 0.022704581 0.0058404803
0.0066139284 0.023148749 0.0040523112
-0.018176205 0.023522148 0.0047842562
-0.01710196 0.023515197 0.0059304833
-0.016042847 0.023529507 0.0062246323
-0.014901417 0.023416512 0.0069389939
-0.014054154 0.023783954 0.0070388317
-0.013006938 0.023846053 0.0068854094
-0.011937269 0.023874538 0.0059994757
-0.01094346 0.024075612 0.0048548281
-0.0098387403 0.024050254 0.0040157735
-0.0021766832 0.023943514 0.0041334033
-0.0010868906 0.023911592 0.0047173798
0 0.023954527 0.0054954588
0.0010857946 0.023887482 0.0057248473
0.00216268 0.02378948 0.0065221786
0.0032034223 0.023491763 0.0063682795
0.004259204 0.02342562 0.0057504475
0.005325377 0.023431659 0.0054565072
0.0067178723 0.024632199 0.004603833
-0.018164357 0.024575308 0.005210638
-0.017193969 0.024716331 0.0059880912
-0.015967602 0.024483658 0.0062128305
-0.015130149 0.024856674 0.0068924725
-0.014041113 0.02484197 0.0068924725
-0.013035783 0.024985252 0.0057675838
-0.01202864 0.025150795 0.004747808
-0.001085825 0.024973975 0.0041478872
0 0.025093064 0.0050754249
0.0010833901 0.024917971 0.0054645836
0.0021704121 0.024959741 0.0063874722
0.0032172173 0.024665333 0.0062414706
0.0042946432 0.024694199 0.0057504475
0.0053322399 0.024528304 0.0059375465
0.006457998 0.024755659 0.0049421489
-0.01835089 0.025907138 0.0056017041
-0.017068848 0.025603272 0.0057756603
-0.01617055 0.025872879 0.0063158274
-0.015068326 0.025831416 0.0065072775
-0.013971047 0.025792703 0.0061911643
-0.013084981 0.026169961 0.0051115155
-0.012081761 0.026360206 0.0041500032
0 0.026164165 0.0043474734
0.0010840836 0.026018007 0.0051422715
0.0021732596 0.026079115 0.0055417418
0.0032202159 0.025761727 0.0055434704
0.0042553055 0.025531834 0.0054050088
0.0053454577 0.025658196 0.0053842664
0.0064143292 0.025657317 0.0049342513
-0.019426376 0.026981078 0.0050654709
-0.018122761 0.02665112 0.0057756603
-0.017282242 0.027003502 0.0061051846
-0.016048586 0.026747644 0.0061051846
-0.01504389 0.026864091 0.0063158274
-0.014120737 0.027155265 0.0057819188
-0.013212189 0.027525395 0.004904896
-0.011990919 0.027252089 0.0042053163
0 0.027228883 0.0045071244
0.0010830053 0.027075134 0.0053600371
0.0021691551 0.027114438 0.005723089
0.0032208201 0.026840169 0.0055962801
0.0043215957 0.027009973 0.0054463446
0.005340687 0.026703436 0.0053297281
0.0063921753 0.026634064 0.0051257908
-0.019213222 0.027752433 0.0054218471
-0.018156061 0.027768094 0.0059334338
-0.017197788 0.027946405 0.0059867799
-0.016020505 0.027768875 0.0059867799
-0.015049168 0.027948454 0.0059867799
-0.014174632 0.028349264 0.0055838823
-0.013133461 0.028455831 0.0046227574
0 0.028467 0.0043551326
0.0010838679 0.028180564 0.0051048398
0.0021664987 0.028164482 0.0056374371
0.0032622921 0.028273199 0.0054273307
0.0043029003 0.02796885 0.0052525699
0.0053474447 0.027806712 0.0051422715
0.0064824214 0.028090494 0.0049542785
-0.019345714 0.029018572 0.0054481328
-0.01825537 0.028993824 0.0058633387
-0.016966391 0.028630786 0.0059493184
-0.016117265 0.02901108 0.005985111
-0.015026261 0.028979219 0.0063846409
-0.014082974 0.029249255 0.0058135688
-0.013049569 0.029361533 0.0046863258
0 0.029446956 0.0042597651
0.001080769 0.029180765 0.0051662624
0.0021751451 0.029364459 0.005720973
0.0032542716 0.029288445 0.0055319965
0.0042613097 0.028763842 0.005409658
0.0053581209 0.028933855 0.0052986145
0.0064466796 0.029010059 0.0049100518
-0.019435382 0.030232817 0.0052009225
-0.01820473 0.029984262 0.0057996511
-0.017214388 0.030125178 0.0059493184
-0.016020602 0.029905122 0.0058691502
-0.014944545 0.02988909 0.0065002143
-0.014248908 0.030689957 0.0057512224
-0.013041502 0.030430172 0.0047502816
0 0.03035864 0.0044688582
0.0011050364 0.030941019 0.0052115917
0.0021689339 0.030365074 0.005723089
0.0032278036 0.030126167 0.0054640174
0.004318729 0.030231101 0.0054040253
0.0053544678 0.02998502 0.0052619278
0.0063178549 0.029483324 0.0048381686
-0.018156059 0.030972103 0.005391866
-0.017148145 0.031081012 0.005915612
-0.01592296 0.030784389 0.0058691502
-0.015009972 0.031092087 0.0068686903
-0.014336469 0.031981353 0.0066162348
-0.012943632 0.031280447 0.0050795078
0 0.031539597 0.0047203004
0.0010991847 0.031876359 0.0054721832
0.0021403313 0.031034803 0.0057805181
0.0032337995 0.031260066 0.0056199431
0.0042590965 0.030878449 0.0054040253
0.0053139916 0.030821152 0.0051766038
0.0064630425 0.03123804 0.0043514073
-0.01827357 0.032247473 0.004293859
-0.017021548 0.0319154 0.0054481328
-0.016123293 0.032246586 0.0057512224
-0.014998716 0.032140106 0.0068730116
-0.013904055 0.032086283 0.0069750249
-0.013137452 0.032843631 0.0057193339
-0.01193588 0.032552402 0.0045672357
-0.0010820795 0.032462385 0.0044330657
0 0.032789007 0.0052515566
0.0010772151 0.032316454 0.0058533549
0.0021609769 0.032414652 0.0062473416
0.0032021969 0.03202197 0.005657047
0.0042736377 0.032052282 0.0056199431
0.0054151616 0.032490972 0.0052481294
-0.017319622 0.033556767 0.0052095354
-0.016062833 0.033196524 0.0056782067
-0.014943141 0.033088386 0.0072178543
-0.013806636 0.03292352 0.0081073642
-0.013466747 0.0347891 0.0080932081
-0.011922924 0.033600967 0.0056145191
-0.010871938 0.033703014 0.00458318
-0.0021694433 0.03362637 0.0043705106
-0.001077862 0.033413723 0.0048491955
0 0.034067784 0.005741924
0.0010727554 0.033255421 0.0062821507
0.0021480443 0.033294685 0.0064334273
0.0032070614 0.033139639 0.0054042041
0.0042672353 0.033071075 0.0051939189
-0.017167564 0.034335129 0.0047383904
-0.016022339 0.034180991 0.0056087077
-0.014947874 0.034166571 0.0071951747
-0.013946881 0.034330785 0.0081392527
-0.012614042 0.033637445 0.0084909797
-0.012602304 0.036661249 0.0081343353
-0.010823025 0.034633685 0.0071448386
-0.0096494183 0.034309044 0.0054360628
-0.0086623048 0.034649219 0.0041747689
-0.0043247477 0.034597982 0.0040554106
-0.0032212036 0.034359504 0.0046193302
-0.0021827552 0.034924082 0.0058394074
-0.0011222647 0.035912469 0.0062182844
0 0.03403176 0.0073780119
0.0010775905 0.034482896 0.0074164867
0.0021206373 0.033930197 0.0067614019
0.0032013285 0.034147505 0.0054040253
0.0042894962 0.03431597 0.0048381686
-0.01608743 0.035392344 0.0047091544
-0.014977173 0.035303336 0.0067748725
-0.013807472 0.035049736 0.0081392527
-0.013029162 0.035830196 0.0086675584
-0.011650905 0.034952715 0.0086675584
-0.011192635 0.036935695 0.0086442828
-0.010292132 0.03773782 0.0080837309
-0.0086294496 0.035596479 0.0069010258
-0.007469459 0.035213161 0.0053824484
-0.0064817648 0.035649706 0.0051720738
-0.0053332946 0.035199746 0.0051720738
-0.0043452648 0.035848431 0.005975455
-0.0034363994 0.037800394 0.0066206157
-0.0022018822 0.036331054 0.0073873401
-0.0010505131 0.034666933 0.0072070658
0 0.035515316 0.0074802935
0.0010641861 0.03511814 0.0074064732
0.0021329706 0.035194013 0.0061250031
0.0031935726 0.035129298 0.0051700175
-0.014958762 0.03632842 0.0051113963
-0.013979855 0.036562696 0.0071997643
-0.012874145 0.036476746 0.0082643628
-0.01173667 0.036276981 0.0085006058
-0.010579896 0.035971649 0.0086210072
-0.0095262937 0.035988223 0.0082734823
-0.0087783029 0.037307788 0.0076129138
-0.0079526696 0.038627252 0.0065154433
-0.0069210958 0.039219543 0.0063298643
-0.0056559932 0.038460754 0.0063351691
-0.0043966095 0.037371181 0.0069539249
-0.0031703082 0.03593016 0.0070557892
-0.0021145437 0.035947241 0.0073759854
-0.0010764807 0.036600344 0.0073748529
0 0.036119144 0.0074498951
0.0010663344 0.036255371 0.0064592659
0.0021282744 0.036180668 0.0055390894
0.0031901752 0.036155317 0.0042840838
-0.013890838 0.037398409 0.0054840147
-0.012833505 0.037431058 0.0072933137
-0.011748855 0.037382722 0.007632345
-0.01065536 0.037293762 0.0084704757
-0.0096751051 0.03762541 0.0080932081
-0.0085621644 0.03745947 0.0077388883
-0.0073978612 0.036989305 0.0064826012
-0.006307024 0.036790974 0.006450057
-0.0052867057 0.037006941 0.006450057
-0.0042630117 0.03730135 0.0070280731
-0.0032250264 0.037625309 0.0070280731
-0.0021715539 0.038002193 0.0072070658
-0.0010610038 0.037135132 0.0070516169
0 0.037483912 0.0060741007
0.001064952 0.037273321 0.0054595172
0.0021321925 0.037313368 0.0048626363
-0.012915181 0.038745541 0.0056551695
-0.011708207 0.03831777 0.0067142546
-0.010604448 0.038176011 0.0076712072
-0.0095451111 0.038180444 0.007632345
-0.00849762 0.038239289 0.0073192716
-0.0074021844 0.038068376 0.0063824654
-0.0064134807 0.038480885 0.0063275993
-0.0053201555 0.038305119 0.0063298643
-0.0042105764 0.037895188 0.0069407225
-0.0032028186 0.038433824 0.0069093108
-0.0021297799 0.038336035 0.0069407225
-0.0010669647 0.038410727 0.0059621036
0 0.038104765 0.0050038993
-0.011748957 0.039519217 0.0055570304
-0.010735585 0.039721671 0.0069183409
-0.0096358266 0.039613955 0.0068413019
-0.0085471757 0.039530687 0.0069528222
-0.0075084479 0.039687511 0.0062021911
-0.0063909031 0.039410572 0.0061632097
-0.0053068106 0.039270401 0.0061632097
-0.0042669377 0.039469175 0.0062961876
-0.0031796903 0.039216183 0.0059819818
-0.0021370696 0.039535791 0.0059364736
-0.0010720663 0.039666455 0.0047360957
-0.01071428 0.040714268 0.0045608282
-0.0096155647 0.040599056 0.0048561394
-0.0086053954 0.040875632 0.0063076615
-0.0074489242 0.040437017 0.005979687
-0.0064407676 0.040791526 0.0059935153
-0.0053565637 0.040709883 0.005975455
-0.0042574485 0.040445764 0.0055601299
-0.0032301224 0.040914886 0.005035311
-0.0021533268 0.040913209 0.0042903721
0 0 0 1 0 0 0 1 0 0 0 1 0 0 0 0 0 396 1 0 0
