ply
format ascii 1.0
comment PCL generated
element vertex 322
property float x
property float y
property float z
element camera 1
property float view_px
property float view_py
property float view_pz
property float x_axisx
property float x_axisy
property float x_axisz
property float y_axisx
property float y_axisy
property float y_axisz
property float z_axisx
property float z_axisy
property float z_axisz
property float focal
property float scalex
property float scaley
property float centerx
property float centery
property int viewportx
property int viewporty
property float k1
property float k2
end_header
-0.004393978 -0.047235262 0.0040453672
-0.010912836 -0.045833912 0.0040519536
-0.009869053 -0.046055585 0.0043698847
-0.0086909812 -0.04562765 0.0045458376
-0.0076058102 -0.045634862 0.004786551
-0.0065493602 -0.045845523 0.0046769679
-0.0054103849 -0.045447234 0.0045900345
-0.0043255179 -0.045417938 0.0050007403
-0.0032556695 -0.045579378 0.0043140054
-0.0021615049 -0.045391604 0.0040685236
-0.001078155 -0.045282509 0.0040607452
-0.012106467 -0.045124106 0.0042263269
-0.011335864 -0.046477046 0.0047392547
-0.010333864 -0.047076494 0.0046053827
-0.0091759516 -0.047026753 0.0047521889
-0.0081125395 -0.047516305 0.0048353672
-0.0070146569 -0.047933493 0.0049495995
-0.0057714465 -0.047325864 0.0051629841
-0.0047395658 -0.04858055 0.0055666268
-0.0035716745 -0.048812885 0.0054342747
-0.0023342047 -0.047851197 0.0051595271
-0.0011668098 -0.047839206 0.0043119788
0 -0.045989044 0.0040794909
0.0010887434 -0.044638485 0.0040539801
-0.013360795 -0.044535983 0.0046676397
-0.01221691 -0.044425126 0.0052454174
-0.010973563 -0.043894254 0.0057135224
-0.0095208474 -0.042314876 0.0059161186
-0.0085391263 -0.04269563 0.0059035122
-0.0075659286 -0.043233875 0.0057511032
-0.0063939793 -0.042626526 0.0057545304
-0.0054019056 -0.043215245 0.0057740211
-0.0042653433 -0.04265343 0.0060716271
-0.0032085415 -0.042780552 0.0059323609
-0.0021514378 -0.043028753 0.0058623552
-0.0010418128 -0.041672513 0.0053657591
0 -0.042602152 0.0045525134
0.0011300311 -0.045201242 0.0042108297
-0.013707007 -0.041121021 0.0042000115
-0.012913471 -0.041968782 0.005019784
-0.011730085 -0.041588485 0.0056499839
-0.010708088 -0.041761544 0.0058911443
-0.0096848067 -0.041967496 0.0059186518
-0.0087115914 -0.042469006 0.0057740211
-0.0074959956 -0.041763403 0.0056497455
-0.0064843791 -0.042148463 0.0057592392
-0.0053382954 -0.041638706 0.0057969987
-0.0042964858 -0.041890733 0.0060623586
-0.0032322651 -0.042019449 0.006875515
-0.0021355783 -0.04164378 0.0068664253
-0.001080058 -0.042122263 0.0060855746
0 -0.04195198 0.0051575005
0.0010607594 -0.041369613 0.0046177804
-0.013985533 -0.040880792 0.0049103796
-0.012837912 -0.040653389 0.0052758157
-0.011797626 -0.040755436 0.0059465766
-0.010805306 -0.041060165 0.0060439408
-0.0097308094 -0.041085642 0.0060431957
-0.0085835475 -0.040771849 0.0060864091
-0.007586576 -0.041184273 0.005761236
-0.0064425883 -0.04080306 0.005761236
-0.0054224203 -0.041210398 0.0059993565
-0.0043392712 -0.041223079 0.0066897869
-0.0032354032 -0.040981777 0.0072700679
-0.0021555119 -0.040954728 0.0073551536
-0.0010806798 -0.041065831 0.0068643987
0 -0.040773008 0.0060835481
0.0010906956 -0.041446432 0.0051597059
0.0021470138 -0.040793262 0.0042678714
-0.015291252 -0.040412597 0.0043634772
-0.014005347 -0.039861374 0.0050750673
-0.012859828 -0.039651137 0.0055796504
-0.011855776 -0.039878525 0.0063425303
-0.010792641 -0.039932776 0.0062863231
-0.0096811699 -0.039800368 0.0062608719
-0.0087351166 -0.040399913 0.0061842203
-0.0075356448 -0.039831266 0.0055049062
-0.0064626625 -0.039853089 0.0055708587
-0.0054197339 -0.040106036 0.0059287846
-0.0042989943 -0.039765701 0.0068219602
-0.0032571016 -0.040170923 0.007250905
-0.002169492 -0.040135603 0.0073771775
-0.0010778344 -0.039879873 0.007353127
0 -0.040113632 0.0068643987
0.0010749199 -0.039772037 0.0062711537
0.0021152121 -0.039131425 0.0054649711
0.0033060983 -0.040775213 0.0043033063
-0.015045743 -0.038689051 0.0046693683
-0.013917769 -0.038541514 0.0054318905
-0.012955246 -0.038865734 0.0059465766
-0.011922564 -0.039019302 0.0064761043
-0.010745298 -0.038683075 0.0061956048
-0.0098789828 -0.039515931 0.005726397
-0.0087506929 -0.039378118 0.004953295
-0.007672939 -0.039460827 0.0043661594
-0.0066444725 -0.039866835 0.0043337643
-0.0054798638 -0.039455019 0.0043368936
-0.0044075754 -0.039668176 0.0051757693
-0.0033123121 -0.039747745 0.0063269734
-0.0021550432 -0.038790777 0.0067513883
-0.0010818435 -0.038946364 0.0068944395
0 -0.039112642 0.006562382
0.0010761349 -0.038740855 0.0065122545
0.0021534644 -0.038762353 0.0060530901
0.0032030009 -0.038436007 0.0050316453
0.0044670878 -0.040203791 0.0041570663
-0.016155316 -0.037695736 0.0046693683
-0.015021856 -0.03755464 0.0055751801
-0.014083416 -0.037916891 0.0063957274
-0.012937695 -0.037734944 0.0065488815
-0.011981962 -0.038124423 0.0070964694
-0.010957162 -0.038350068 0.0065023899
-0.009821035 -0.038192913 0.0059112906
-0.0087409578 -0.038241692 0.0052263439
-0.0076708011 -0.038354006 0.0044878125
-0.0065231253 -0.038051564 0.0044727027
-0.0054746927 -0.038322847 0.0045002401
-0.0043942109 -0.038449343 0.0053998828
-0.0032625648 -0.038063258 0.0061259568
-0.0021971872 -0.038450774 0.0069090128
-0.001104496 -0.038657356 0.0075441599
0 -0.037585963 0.0074251592
0.0010843292 -0.037951522 0.0073554516
0.0021550318 -0.037713055 0.0065102279
0.0031995149 -0.037327673 0.0058270991
0.0043108752 -0.037720155 0.0046615899
0.0055949553 -0.039164688 0.0042004883
-0.017273217 -0.036705587 0.0044213235
-0.016139641 -0.036583189 0.0057448745
-0.015192531 -0.036896147 0.0067377687
-0.014036694 -0.036711354 0.0067123175
-0.012991474 -0.036809176 0.0067377687
-0.01203797 -0.037208274 0.0067123175
-0.010955255 -0.037247866 0.0058813989
-0.0098925633 -0.037371907 0.0049571097
-0.0087919096 -0.037365615 0.0043661594
-0.004433305 -0.037683092 0.0040650368
-0.0032933368 -0.037324484 0.0043789446
-0.0022026396 -0.037444871 0.0051496923
-0.001084136 -0.036860622 0.006405741
0 -0.037356511 0.0065213442
0.0010794578 -0.036701564 0.0065603554
0.0021482024 -0.036519442 0.0065298975
0.0032607114 -0.036954731 0.0060853362
0.0042889542 -0.036456112 0.0051501691
0.0054700929 -0.037196632 0.0045325756
-0.016898876 -0.034853932 0.0049311221
-0.016132064 -0.035490539 0.0052464008
-0.015065599 -0.035511769 0.0063093007
-0.014107513 -0.03581138 0.0062034726
-0.013015313 -0.035792109 0.0057518482
-0.012103283 -0.036309849 0.0051629841
-0.011055946 -0.036484625 0.0050299466
-0.0098568918 -0.036141936 0.0042420924
-0.0021937392 -0.036196694 0.0041697323
-0.0011007083 -0.036323372 0.004512459
0 -0.035964523 0.0057884157
0.0010847868 -0.035797965 0.0064281821
0.0021829223 -0.036018219 0.0065298975
0.0032382368 -0.035620604 0.005874306
0.0042621368 -0.035162628 0.005202651
0.00540287 -0.035658944 0.0045280457
0.0067599346 -0.037179641 0.0041095018
-0.01839146 -0.03461922 0.0045726597
-0.017342476 -0.034684952 0.0048932731
-0.016228246 -0.034620259 0.005687654
-0.015036318 -0.034368727 0.006147325
-0.014184593 -0.034915924 0.0057258606
-0.013151353 -0.035070274 0.0049705803
-0.01210773 -0.035222486 0.0047501326
-0.010989515 -0.03516645 0.0043061376
0 -0.035006206 0.0042007864
0.0010895035 -0.034864113 0.0058572292
0.0021757046 -0.034811273 0.0064991415
0.0032129982 -0.034271982 0.0058709383
0.0043060281 -0.034448225 0.005692035
0.0053668865 -0.034348074 0.0050881803
0.0064075901 -0.034173813 0.0044776201
-0.018360978 -0.033481784 0.0046145022
-0.017301155 -0.033520989 0.0048676133
-0.016157605 -0.033392385 0.0058581233
-0.01520087 -0.033659071 0.0060901046
-0.014114696 -0.033658121 0.0051852465
-0.013233406 -0.0341863 0.0048608482
-0.012119456 -0.034154832 0.0042490661
0.0010853396 -0.033645529 0.0050148666
0.0021704161 -0.03364145 0.0059563518
0.0032688866 -0.033778496 0.0058208108
0.0043355636 -0.033600617 0.0057308674
0.0053117066 -0.032932583 0.0052649379
0.0064679286 -0.033417635 0.0050466955
-0.018335534 -0.032356825 0.0045667589
-0.017132366 -0.032123189 0.0047199428
-0.016351152 -0.032702304 0.005037576
-0.015249688 -0.032677904 0.0058687031
-0.013952249 -0.032197498 0.0047178864
-0.0131834 -0.0329585 0.004435569
0.0010929027 -0.032787081 0.0046468079
0.0021899196 -0.032848794 0.0062423646
0.003254731 -0.03254731 0.0058023334
0.0042741243 -0.032055933 0.0058010519
0.0054051299 -0.032430779 0.0054891706
0.0064837453 -0.032418728 0.0051723421
0.0074542672 -0.03194686 0.0041409135
-0.018383309 -0.031359762 0.0045375228
-0.017353294 -0.03145285 0.0051754415
-0.016352324 -0.031614494 0.0057283044
-0.014994656 -0.03106036 0.0058560669
-0.014354642 -0.032021895 0.0045375228
-0.013213534 -0.031932708 0.0042951703
0.0010995497 -0.031886939 0.0046468079
0.0021687928 -0.031447496 0.0058572292
0.0032334346 -0.031256534 0.0058023334
0.0043116389 -0.031259384 0.0058010519
0.0054118978 -0.031389009 0.0054891706
0.0064057605 -0.030961178 0.0051947534
0.0075875851 -0.031434283 0.0041409135
-0.018391727 -0.030292256 0.0045141578
-0.017338863 -0.030343007 0.0045901239
-0.016265865 -0.030362949 0.0050476789
-0.015489221 -0.030978441 0.0051773787
-0.014230731 -0.030650804 0.0045375228
-0.013131971 -0.030641267 0.0042951703
0.0010956691 -0.030678734 0.0050504208
0.0021582285 -0.030215198 0.005874306
0.0033051732 -0.030848283 0.0058843791
0.0042929393 -0.030050576 0.0058023334
0.00538792 -0.030172352 0.005874306
0.0065094382 -0.030377379 0.0053353906
0.0075161303 -0.030064521 0.0041579306
-0.018392799 -0.029212093 0.0041919649
-0.017236779 -0.029087065 0.0042738318
-0.016125472 -0.029025853 0.0047313869
-0.01533014 -0.029565271 0.0049614608
-0.014169135 -0.029428205 0.004591465
-0.013308619 -0.029944394 0.0041189194
0.0010856967 -0.029313814 0.0048647821
0.0021815938 -0.029451517 0.005823791
0.0032475188 -0.029227672 0.0058526993
0.0043036505 -0.029049641 0.0058129132
0.0054037455 -0.029180227 0.0058208108
0.0064631039 -0.029083969 0.0052185953
0.0076179034 -0.029383343 0.0040591061
-0.01835759 -0.028076313 0.0040557086
-0.01719195 -0.027936921 0.0042738318
-0.016152754 -0.027998108 0.0047333241
-0.015021925 -0.027897861 0.0055400133
-0.014295592 -0.028591184 0.0047333241
-0.013131271 -0.028451087 0.0042870939
0.0010912303 -0.028371988 0.0047061741
0.0021539642 -0.028001534 0.0062145293
0.0032402053 -0.02808178 0.0062285662
0.0043182331 -0.028068513 0.0057438016
0.0054137623 -0.028151564 0.0053064823
0.0064473776 -0.027938636 0.0048448443
-0.01725208 -0.026956376 0.0041757524
-0.016100582 -0.026834304 0.0046748221
-0.015387036 -0.027476851 0.0058623552
-0.014380095 -0.027654029 0.0054652989
-0.013008532 -0.027101109 0.0042842031
0.0011005321 -0.027513305 0.0046760738
0.0021308158 -0.026635196 0.0071424246
0.0032418151 -0.027015127 0.0062865913
0.0043237866 -0.027023666 0.0051330924
0.0053939326 -0.026969666 0.0050960779
-0.016148653 -0.025837842 0.0043669343
-0.015100687 -0.025886891 0.0054871738
-0.014210672 -0.026235087 0.0055004656
-0.013333933 -0.026667867 0.0043688715
0 -0.02619338 0.0043711364
0.0010761102 -0.025826642 0.0067332983
0.0021761812 -0.026114173 0.0072999895
0.003199948 -0.025599584 0.0060661137
0.0042988835 -0.025793301 0.0049809813
-0.015062862 -0.024746131 0.0050090253
-0.013986536 -0.024745412 0.0059071481
-0.013332233 -0.025553448 0.0055890679
-0.0120601 -0.025216576 0.0042550564
-0.001099948 -0.025298804 0.004235059
0 -0.025562108 0.0056195855
0.0010752936 -0.024731755 0.0069693029
0.0021611594 -0.024853334 0.0069838166
0.0032027904 -0.024554726 0.0048827529
0.0043036523 -0.024746001 0.0040003359
-0.01513312 -0.023780618 0.0049600303
-0.014024884 -0.023734421 0.0061996281
-0.01269584 -0.023275705 0.0062764585
-0.012131414 -0.024262829 0.0061383545
-0.011141879 -0.024512133 0.0049751103
-0.0021911731 -0.024102904 0.0041577816
-0.0011376065 -0.02502734 0.0055973828
0 -0.023555374 0.0070533454
0.001084029 -0.023848636 0.0070675015
0.0021414929 -0.023556421 0.0060780942
0.0032249745 -0.023649812 0.0048523545
-0.014969864 -0.022454796 0.004104495
-0.013873274 -0.022410674 0.0050699115
-0.012922495 -0.022614367 0.0061383545
-0.011909407 -0.022736141 0.0060974061
-0.010752567 -0.022580393 0.0050480962
-0.010472869 -0.024436696 0.0046658814
-0.0092035355 -0.024159281 0.0042898953
-0.0076059839 -0.022817953 0.004073292
-0.0043849614 -0.02302105 0.0040144026
-0.0035160345 -0.024612242 0.0041733086
-0.0021968251 -0.023066664 0.0045064986
-0.0010659677 -0.022385322 0.0048908591
0 -0.022711467 0.0059009492
0.0010618879 -0.022299647 0.0056195855
0.0021585857 -0.022665149 0.0047061741
-0.012994269 -0.021657115 0.0047678053
-0.011733472 -0.021333585 0.0048211217
-0.010767335 -0.02153467 0.0047470331
-0.0096122688 -0.021360599 0.0045711398
-0.0085539473 -0.021384867 0.0043863952
-0.0077940715 -0.022268774 0.004073292
-0.0031777702 -0.021185134 0.0041070282
-0.0021214695 -0.021214694 0.0041733086
-0.0010826684 -0.021653369 0.0041747093
0 -0.021235665 0.0041747093
0.0010839474 -0.021678947 0.004219532
-0.010665743 -0.020264912 0.0043863952
0 0 0 1 0 0 0 1 0 0 0 1 0 0 0 0 0 322 1 0 0
