ply
format ascii 1.0
comment PCL generated
element vertex 391
property float x
property float y
property float z
element camera 1
property float view_px
property float view_py
property float view_pz
property float x_axisx
property float x_axisy
property float x_axisz
property float y_axisx
property float y_axisy
property float y_axisz
property float z_axisx
property float z_axisy
property float z_axisz
property float focal
property float scalex
property float scaley
property float centerx
property float centery
property int viewportx
property int viewporty
property float k1
property float k2
end_header
-0.0097099617 0.025893232 0.0042186379
-0.011665672 0.029164182 0.0046702623
-0.010593908 0.029427525 0.0049257576
-0.009321901 0.029130941 0.0051327348
-0.0082490453 0.029460879 0.0045731068
-0.0070113856 0.029214108 0.0055281818
-0.0057839947 0.028919974 0.0055281818
-0.0047064354 0.029415222 0.0048756301
-0.0034249283 0.028541069 0.0043577552
-0.012835686 0.027810654 0.0044439435
-0.01168593 0.027621292 0.0046437085
-0.010596287 0.027550345 0.0050475299
-0.0094720693 0.027363757 0.0049584508
-0.0085135065 0.027668895 0.004877001
-0.0073470315 0.027288973 0.0045636892
-0.0063864151 0.027674466 0.0047430992
-0.005344098 0.02778931 0.0055504143
-0.0042194221 0.027426243 0.0048769712
-0.0032208562 0.027914088 0.0048472583
-0.0021498266 0.027947746 0.0044576526
-0.01380473 0.028671363 0.0044285953
-0.012797816 0.028795088 0.0050242543
-0.011711433 0.028746244 0.005851388
-0.010583593 0.028575702 0.0058794022
-0.0097080786 0.029124239 0.0061686933
-0.0084940987 0.028667584 0.0059037209
-0.0074620629 0.028782243 0.004771471
-0.0064222263 0.02890002 0.005528599
-0.0053030676 0.028636567 0.0056579709
-0.0042537665 0.028712925 0.0056580305
-0.0032164929 0.028948437 0.005408138
-0.0021359664 0.028835548 0.0048340261
-0.0010653773 0.028765187 0.0044047534
-0.014853482 0.029706964 0.004448384
-0.014026824 0.030211622 0.004997164
-0.01282846 0.029933074 0.0058992505
-0.011794373 0.030022042 0.0064412951
-0.010731978 0.030049542 0.0062776506
-0.0096445736 0.030005341 0.006095022
-0.0085904356 0.030066526 0.0059037209
-0.0074799443 0.029919777 0.005535841
-0.0064123692 0.029924389 0.0056344867
-0.0053727143 0.030087201 0.0059037209
-0.0042970753 0.030079529 0.0061185062
-0.0031914911 0.02978725 0.006095022
-0.0021368177 0.029915448 0.0061185658
-0.0010702435 0.02996682 0.0053526163
0 0.029626284 0.0050626099
0.0010752314 0.030106477 0.0040484667
0.0022012934 0.030818107 0.0040070713
-0.015901081 0.03074209 0.004448384
-0.015051667 0.031178454 0.0051150918
-0.013897121 0.031001272 0.005931139
-0.012775126 0.030873222 0.006896317
-0.011865844 0.031282682 0.0068928599
-0.010728862 0.031113703 0.0065335035
-0.0096423179 0.031069692 0.0063988566
-0.0086531229 0.031367574 0.0056652129
-0.0075492766 0.031275574 0.004804045
-0.0064790966 0.031315636 0.004796803
-0.005381492 0.031212656 0.0056579709
-0.0042532585 0.030836124 0.0058978796
-0.0031936623 0.030872069 0.0059272051
-0.0021498185 0.031172367 0.0062253475
-0.0010698716 0.031026276 0.0059196353
0 0.031066936 0.0056453049
0.0010681687 0.030976893 0.0050307512
0.0021298709 0.03088313 0.0040738285
-0.017055569 0.031979192 0.0044285953
-0.01617069 0.03234138 0.004997164
-0.014946821 0.032028902 0.0057483613
-0.013802139 0.03185109 0.006343931
-0.012893126 0.032232817 0.0066139102
-0.011812857 0.032216884 0.006572783
-0.010727504 0.032182515 0.0057944357
-0.0098003056 0.032667685 0.0049525201
-0.0087205982 0.032702241 0.0041540563
-0.004343438 0.032575786 0.0043261051
-0.0032840988 0.03284099 0.0052900612
-0.0021482082 0.03222312 0.00589782
-0.0010680944 0.032042831 0.0059196353
0 0.032187037 0.0059036016
0.0010652974 0.031958923 0.0050307512
0.0021354393 0.032031588 0.0048623979
0.0032271871 0.032271873 0.0040371418
-0.017210767 0.033345859 0.0050319433
-0.016017269 0.03310236 0.0054813325
-0.014959303 0.033124171 0.0067448914
-0.013940128 0.033241846 0.006896317
-0.012934436 0.033413962 0.0068551898
-0.011939636 0.033648066 0.0065957904
-0.010864645 0.033680405 0.0057321489
-0.009773287 0.033663549 0.005235374
-0.0086897714 0.033672865 0.0046805441
-0.0076358151 0.033815753 0.0042464137
-0.0054199104 0.033603445 0.0041548312
-0.0043776305 0.033926636 0.0048967898
-0.0032750873 0.033842571 0.0054344833
-0.0021698079 0.033632025 0.0062100887
-0.0010799898 0.033479687 0.0061530173
0 0.033050105 0.0064454675
0.001072877 0.033259187 0.0061734617
0.0021261589 0.032955464 0.0056543052
0.003188824 0.032951184 0.0046206117
-0.018200474 0.034259714 0.0046545565
-0.01711412 0.034228239 0.0053057671
-0.016001385 0.034136288 0.006572783
-0.015025263 0.034343459 0.0069282055
-0.01404086 0.034562118 0.0067448914
-0.012952322 0.034539524 0.0063120425
-0.011999457 0.034907512 0.0055224597
-0.010922069 0.034950621 0.0050064027
-0.0097954394 0.034828231 0.0043826997
-0.0043531922 0.034825537 0.0043118
-0.0032429018 0.034590952 0.0049083829
-0.0022026913 0.03524306 0.0054997802
-0.0010876801 0.034805764 0.0059196353
0 0.034714457 0.00637725
0.0010677439 0.034167804 0.0062028468
0.002132064 0.034113023 0.006309092
0.0032100808 0.034240864 0.005279094
-0.019375486 0.035521723 0.0042160749
-0.018199904 0.035329226 0.0048604608
-0.017015461 0.035094388 0.0058970451
-0.016080141 0.03537631 0.006572783
-0.015159126 0.035732225 0.0067448914
-0.014064087 0.035701141 0.0060161054
-0.013190979 0.036275193 0.0052664578
-0.012113306 0.036339916 0.0047249794
-0.010865191 0.035855129 0.0042720139
-0.0021603166 0.03564522 0.0046805441
-0.0010867314 0.035862137 0.0053786635
0 0.035882302 0.0059500337
0.0010703845 0.035322689 0.006164372
0.0021386829 0.035288267 0.0064251423
0.0031972188 0.035169408 0.0062423348
0.0042395317 0.034976136 0.0050027668
-0.019193385 0.036254171 0.0046395957
-0.018080551 0.036161102 0.0053690672
-0.017174141 0.036495049 0.0058581233
-0.016126892 0.036554288 0.0063001215
-0.015057369 0.036567897 0.0064368248
-0.014152738 0.037014853 0.0055543482
-0.013092771 0.037096187 0.0050319433
-0.011921726 0.036848973 0.0043971837
-0.010867793 0.036950499 0.0041627586
-0.0010877814 0.036984567 0.0047756135
0 0.036755387 0.0056512356
0.001084136 0.036860622 0.0061349869
0.0021389674 0.036362447 0.0062094033
0.0031810619 0.036052037 0.0060563385
0.0042816643 0.036394145 0.0049473643
0.0053762314 0.036558375 0.0042339265
-0.019246085 0.03742294 0.004622817
-0.018201526 0.037473731 0.0060715675
-0.017128713 0.037469059 0.006188184
-0.015976854 0.037279326 0.0062515438
-0.015131492 0.037828729 0.0062709153
-0.01403764 0.037793644 0.0050819218
-0.013095801 0.038196087 0.0046468675
-0.012014022 0.038226433 0.0041845739
-0.001085301 0.037985537 0.0041262209
0 0.038043056 0.0050371885
0.0010766756 0.037683643 0.0060250759
0.0021473782 0.037579115 0.0063349903
0.0032151863 0.037510507 0.0060542226
0.0042603388 0.037277963 0.0057269335
0.0053119124 0.037183385 0.0048205853
-0.019162139 0.038324278 0.0046399534
-0.018240849 0.038627677 0.0060076416
-0.016975429 0.038194712 0.006188184
-0.016349301 0.039238323 0.006188184
-0.015180847 0.03903646 0.006228894
-0.014103202 0.03905502 0.0050819218
-0.013151195 0.039453585 0.0046468675
-0.011996021 0.039259702 0.0041845739
-0.0010928356 0.039342079 0.0040201247
0 0.038944297 0.0049251914
0.0010769244 0.038769279 0.0055539012
0.0021760557 0.039168999 0.0056344867
0.0031977175 0.03837261 0.0055542886
0.004259401 0.038334608 0.0056830943
0.0053347298 0.038410056 0.0045027137
-0.019319398 0.039712097 0.0055155158
-0.018238792 0.039696194 0.0059867203
-0.01710555 0.039556585 0.0062515438
-0.016081678 0.039668139 0.0062515438
-0.015102659 0.039914172 0.0063536763
-0.014121315 0.040191438 0.0056595206
-0.013180268 0.040639162 0.0047249794
-0.01193389 0.04014127 0.0040276647
-0.0010915562 0.040387578 0.0040073395
0 0.039911445 0.0051083863
0.0010831774 0.040077563 0.0056692362
0.0021608702 0.039976101 0.0056344867
0.0031944441 0.039398145 0.0055542886
0.0042997226 0.039772436 0.0051265955
0.0053256308 0.039409671 0.0045027137
-0.019284355 0.040711418 0.0054904819
-0.018183013 0.040644381 0.0059182048
-0.017138461 0.040703844 0.0060076416
-0.016101602 0.040790725 0.0061380863
-0.01530384 0.041538995 0.0062117577
-0.014065195 0.041113649 0.0057412982
-0.012944215 0.040990017 0.0047430992
-0.011949142 0.041278858 0.0042847395
-0.010895724 0.041403752 0.0041612387
-0.0010796478 0.041026618 0.0047691762
0 0.041435029 0.0054072738
0.0010817117 0.041105047 0.0059190691
0.0021399723 0.040659476 0.0062258244
0.0032206529 0.040794939 0.0062258244
0.0042644902 0.040512655 0.0059574246
0.0053240904 0.04046309 0.0050969124
-0.019184824 0.041567121 0.0054478645
-0.018295161 0.041971255 0.0059876442
-0.016965559 0.04135355 0.0067861676
-0.016264243 0.042287033 0.0068412125
-0.015327368 0.042697668 0.0068104863
-0.014047652 0.042142957 0.0060031712
-0.013083806 0.042522371 0.0047813654
-0.011973656 0.042452052 0.0040841103
-0.010853088 0.042327043 0.0041198134
-0.0010855199 0.042335276 0.0047695339
0 0.042633627 0.0055603385
0.0010660999 0.041577894 0.006054163
0.0021756319 0.042424824 0.0062370002
0.0031923945 0.041501127 0.0062370002
0.0042445394 0.041384257 0.0060542226
0.0053489152 0.041721538 0.0054692328
-0.019289246 0.042864993 0.0043185055
-0.018146424 0.042697467 0.0058163404
-0.01705551 0.042638775 0.0067575276
-0.016213888 0.043237034 0.007170558
-0.014975574 0.042787354 0.0071948767
-0.014201889 0.043698117 0.0064115822
-0.012933604 0.043112013 0.0056643188
-0.01197073 0.043529928 0.0044976771
-0.010945057 0.043780226 0.0042980015
-0.0021803179 0.043606352 0.0042440295
-0.0010800974 0.043203894 0.0053710938
0 0.04372824 0.0062447786
0.0010756683 0.04302673 0.0064145327
0.0021592039 0.043184076 0.0064361095
0.0031759609 0.042346146 0.0062000453
0.0042651007 0.042651005 0.0057913363
0.0053181835 0.042545468 0.0049676299
-0.018125404 0.04371421 0.0055263937
-0.01706191 0.043721147 0.0067346394
-0.016091634 0.043983798 0.007542938
-0.014902234 0.043642256 0.0078163445
-0.01449231 0.045706518 0.0070275068
-0.01286052 0.043940112 0.0061455667
-0.012040435 0.044877991 0.0048390031
-0.010850751 0.044488084 0.0045126379
-0.0097411433 0.044376321 0.00424999
-0.0032557773 0.044495627 0.0043795705
-0.0021647287 0.044376943 0.0053016245
-0.0010891681 0.044655893 0.0060129166
0 0.044785351 0.0067762434
0.001078189 0.044205751 0.0068099201
0.0021226329 0.043513976 0.0064428747
0.0032082836 0.043846544 0.0061271787
0.0042642746 0.043708816 0.0055989325
-0.01820419 0.044975061 0.0054015219
-0.016977072 0.044564813 0.0070129037
-0.016067512 0.044989035 0.0077569783
-0.015137685 0.045413055 0.007977277
-0.01381885 0.044645514 0.0077340901
-0.013353299 0.04673655 0.0075679719
-0.011728613 0.044781979 0.0061380863
-0.010806139 0.045385785 0.0056892931
-0.0097888438 0.045681275 0.0045351088
-0.0086735198 0.045535978 0.004131943
-0.0043167858 0.045326252 0.0042620897
-0.0032616733 0.045663428 0.0052414238
-0.0021487703 0.045124177 0.0061019659
-0.001101866 0.046278376 0.0067936778
0 0.044854756 0.0073327124
0.0010699077 0.044936124 0.0070540905
0.0021173579 0.044464517 0.0064751804
0.0031818093 0.044545334 0.0060404241
0.004269002 0.044824522 0.005177319
-0.017186822 0.046189588 0.0056613088
-0.015878819 0.045519285 0.0074857175
-0.014855487 0.045627568 0.0079569817
-0.013869577 0.045876294 0.0077982247
-0.013008016 0.046612058 0.0079692602
-0.012257515 0.047915738 0.0077483058
-0.010699662 0.04600855 0.0067372322
-0.0097715463 0.046686277 0.005892694
-0.0086392388 0.046435911 0.0054608285
-0.0076152696 0.046779513 0.0051515996
-0.0064901733 0.046512909 0.0049969852
-0.0053810785 0.046277277 0.0049983263
-0.0043100752 0.046333309 0.0059807897
-0.0032984645 0.047277994 0.006665498
-0.0022529671 0.048438791 0.007565558
-0.0010764775 0.046288528 0.008297801
0 0.045678653 0.0085176528
0.0010676866 0.045910526 0.0075010061
0.0021260171 0.045709368 0.0065744519
0.0031747904 0.04550533 0.0057146251
-0.017101789 0.047029916 0.0042991042
-0.015933612 0.046738595 0.0068166852
-0.014910864 0.046862714 0.007843256
-0.01397217 0.047290418 0.0076668859
-0.012738442 0.046707619 0.008184433
-0.011815025 0.047260102 0.0082955658
-0.011253019 0.04951328 0.0079666674
-0.0099450713 0.048620351 0.0076110363
-0.0087731434 0.048252285 0.0072908401
-0.0075292313 0.047326598 0.0071362257
-0.0065175197 0.047795143 0.006935209
-0.0055905394 0.04919675 0.0069305301
-0.0044909804 0.049400784 0.0073517561
-0.0032677588 0.04792713 0.0074517429
-0.002125446 0.04675981 0.0084477961
-0.0010624297 0.04674691 0.0088737905
0 0.047195081 0.0088203251
0.0010532776 0.046344217 0.0073290467
0.0021220518 0.046685141 0.0059006512
0.0032032109 0.046980426 0.0047759712
-0.016095456 0.048286371 0.0055605471
-0.01490762 0.047917351 0.007289499
-0.013724272 0.047507096 0.0075539052
-0.012907197 0.048401989 0.0080636442
-0.011709176 0.047901176 0.0080993474
-0.010374019 0.046683088 0.007825911
-0.0095677851 0.04783893 0.0076779425
-0.0086161299 0.048465732 0.0071783364
-0.0076382752 0.0491032 0.0071783364
-0.0066335099 0.049751326 0.0070122778
-0.0053387727 0.048048958 0.00699839
-0.0042037605 0.047292307 0.0072278082
-0.0031939698 0.04790955 0.0072823167
-0.0021341934 0.048019353 0.0076818764
-0.0010655312 0.047948904 0.0077845454
0 0.047804534 0.0073286593
0.0010607443 0.047733497 0.0067859888
0.0021397679 0.04814478 0.0052765906
-0.014928867 0.049051993 0.0051576197
-0.013874692 0.049095064 0.0072057545
-0.012663076 0.048541792 0.0078117251
-0.011706557 0.048954695 0.0078555346
-0.010692066 0.049183503 0.0078240037
-0.0096397735 0.049269956 0.0074564219
-0.0084795021 0.048757136 0.0072816014
-0.0074330503 0.048845761 0.0072477758
-0.0063990611 0.049059469 0.0071132481
-0.0052939658 0.048704486 0.0070122778
-0.0043125818 0.049594693 0.0072247982
-0.0032005238 0.049074698 0.0072247982
-0.0021178445 0.048710424 0.0074902475
-0.0010653533 0.04900625 0.0073651969
0 0.048755616 0.0067936778
0.0010610523 0.048808407 0.0053196549
-0.013854194 0.050088238 0.004452318
-0.012782933 0.05006649 0.0067994297
-0.011756475 0.050232213 0.0072593093
-0.010541889 0.049546879 0.0074389875
-0.0095073255 0.049649369 0.0071700513
-0.0084993532 0.049933698 0.0071749091
-0.0074131181 0.049773794 0.0071700513
-0.0063961372 0.050103076 0.0071700513
-0.0053384691 0.050181612 0.0071132481
-0.0042130025 0.049502779 0.0072477758
-0.0031897959 0.049973469 0.0072136223
-0.0021347993 0.050167784 0.0072889328
-0.0010599003 0.049815312 0.0071781874
0 0.04984108 0.0055004358
-0.012777743 0.051110972 0.0044117272
-0.01177434 0.051378939 0.0057802498
-0.010584197 0.050804146 0.0069809258
-0.0096674208 0.051559579 0.0068916678
-0.0085084885 0.051050927 0.0068965256
-0.0074410336 0.051024228 0.0068916678
-0.0063960808 0.051168647 0.0068578422
-0.0052784891 0.0506735 0.0067338943
-0.0042655277 0.051186331 0.0068348646
-0.0032079325 0.051326919 0.0068555176
-0.0021414394 0.051394545 0.0067936778
-0.0010611642 0.050935879 0.0049493909
-0.010715358 0.052505251 0.004488796
-0.0095964633 0.052247413 0.0045091212
-0.0086138994 0.052760128 0.0063241124
-0.0075167534 0.052617274 0.0067183673
-0.0063810996 0.052112311 0.0061456263
-0.0053425757 0.052357242 0.0051138997
-0.0042899144 0.052551448 0.0051138997
-0.0031993485 0.052256025 0.0044729114
0 0 0 1 0 0 0 1 0 0 0 1 0 0 0 0 0 391 1 0 0
