ply
format ascii 1.0
comment PCL generated
element vertex 369
property float x
property float y
property float z
element camera 1
property float view_px
property float view_py
property float view_pz
property float x_axisx
property float x_axisy
property float x_axisz
property float y_axisx
property float y_axisy
property float y_axisz
property float z_axisx
property float z_axisy
property float z_axisz
property float focal
property float scalex
property float scaley
property float centerx
property float centery
property int viewportx
property int viewporty
property float k1
property float k2
end_header
-0.01154437 0.040405296 0.0043866336
-0.010369776 0.040326908 0.0043812096
-0.009336126 0.040845554 0.0045152903
-0.0080402475 0.040201236 0.0044136643
-0.0068678674 0.040062558 0.0041719973
-0.0057534836 0.040274385 0.0041719973
-0.012783334 0.038350001 0.0043702722
-0.011700193 0.038291544 0.0048105419
-0.010581985 0.038095146 0.0053166449
-0.0095150564 0.038060226 0.0055495799
-0.008516564 0.038324539 0.0052365065
-0.0073766815 0.037937216 0.0050525665
-0.0064364341 0.038618606 0.0045929253
-0.0053022415 0.038176138 0.0048669875
-0.0042215073 0.037993565 0.0048647225
-0.0032226769 0.038672123 0.0045615137
-0.0021226136 0.038207047 0.0043326616
-0.013931191 0.039650314 0.0041991174
-0.012805208 0.039482728 0.0049193799
-0.011658826 0.039216053 0.0054782331
-0.010665783 0.039463401 0.0062358379
-0.00965604 0.039697055 0.0055924654
-0.0085369777 0.039483521 0.0052321851
-0.007472327 0.039496586 0.0048990846
-0.0063821613 0.039356664 0.0048333108
-0.0052967928 0.039196268 0.0048333108
-0.004279566 0.039585989 0.0048601031
-0.0031948083 0.039402638 0.0048440993
-0.0021271124 0.039351579 0.0048333108
-0.001066784 0.039471008 0.0043553412
-0.015013373 0.040750585 0.0042784214
-0.013871171 0.040546499 0.0045187771
-0.012753452 0.040385935 0.0056654811
-0.011732212 0.040529463 0.0064559579
-0.010766469 0.040912583 0.0065354109
-0.0095898937 0.040490665 0.0062527955
-0.0086393822 0.041037064 0.0053693056
-0.0074650683 0.040524658 0.0049042106
-0.0064170961 0.04064161 0.0048647225
-0.005373559 0.04083905 0.0048990846
-0.0042807572 0.040667195 0.0050370991
-0.0032079059 0.040633477 0.0050787628
-0.0021442214 0.040740211 0.0050852001
-0.0010601018 0.04028387 0.0048924088
0 0.040860664 0.0045092702
-0.016072299 0.041787978 0.0040970147
-0.014921491 0.041567009 0.004745841
-0.013827652 0.041482955 0.0058395565
-0.012873434 0.041838661 0.0063666105
-0.011739428 0.041621611 0.0064323843
-0.010635286 0.041477617 0.0067185462
-0.0096880831 0.041981693 0.0059530437
-0.0085858703 0.041856118 0.0055266917
-0.0075333733 0.04197165 0.0050905645
-0.0064803739 0.042122431 0.0048824847
-0.0053737951 0.041915603 0.0050787628
-0.0042870189 0.041798435 0.005510956
-0.0032115106 0.041749638 0.0054934919
-0.0021257473 0.041452069 0.0059912503
-0.0010667067 0.041601561 0.005984813
0 0.041959081 0.005197227
0.0010560257 0.041185003 0.0047286451
0.0021411616 0.041752651 0.0041210651
-0.016059279 0.042824745 0.004476577
-0.014947561 0.042707313 0.0057810843
-0.01393543 0.042878244 0.0065679252
-0.012783688 0.042612292 0.0067183077
-0.011783927 0.042850643 0.0066517293
-0.010864386 0.043457545 0.0068302155
-0.0097665116 0.043406717 0.0059126914
-0.0087050945 0.043525472 0.0052455068
-0.0076661455 0.043806542 0.0045589209
-0.0065381224 0.04358748 0.0045191348
-0.0054850215 0.043880172 0.0045852363
-0.0043830434 0.043830432 0.0049363375
-0.0032489486 0.043319311 0.0051433742
-0.002140274 0.042805482 0.0055536032
-0.0010741515 0.042966057 0.0060606003
0 0.042585164 0.0055471659
0.0010695404 0.042781614 0.0048999786
0.0021331147 0.042662296 0.0047288239
-0.017106518 0.043835457 0.0042107403
-0.016032534 0.043822259 0.005205214
-0.01504821 0.04406976 0.0066752136
-0.013946129 0.043983947 0.006867975
-0.012884529 0.044022147 0.0072437823
-0.012055108 0.044932682 0.0067183077
-0.010839229 0.044440843 0.0064882338
-0.009722041 0.044289298 0.0060370266
-0.0087000029 0.044587519 0.0051370561
-0.0075776186 0.044383198 0.0048722923
-0.0064979107 0.044402391 0.0046736598
-0.0054357317 0.044573002 0.0048440993
-0.0043322081 0.044405136 0.0051433742
-0.003262328 0.044585153 0.0054524243
-0.0021795291 0.04468035 0.006610781
-0.0010845581 0.044466883 0.0067309439
0 0.044011906 0.0073435009
0.0010722446 0.043962028 0.0066710711
0.002122754 0.043516461 0.0057452619
0.0032124687 0.043903742 0.004658252
-0.016998401 0.044620801 0.0051439106
-0.016091146 0.045055211 0.0064257681
-0.015037565 0.045112696 0.00687626
-0.013971709 0.045139369 0.0065929592
-0.013091442 0.045820046 0.0064851344
-0.011791294 0.045021307 0.0062828064
-0.010852212 0.045579292 0.005502373
-0.0098723276 0.046070863 0.0048466027
-0.0087074731 0.045714233 0.0044664443
-0.0075905309 0.045543186 0.0040088594
-0.0054197838 0.045526188 0.0042997003
-0.0043439521 0.045611497 0.0047440231
-0.003273498 0.045828976 0.004799962
-0.0021750887 0.045676865 0.0054571033
-0.0010839161 0.045524474 0.006610781
0 0.045649413 0.0072153211
0.0010633583 0.044661049 0.0073532462
0.0021330037 0.044793077 0.0067516565
0.0031705305 0.044387426 0.0055937469
0.0043070838 0.04522438 0.0050464571
-0.017196517 0.046215639 0.0049670935
-0.016022403 0.045930889 0.0057137907
-0.015012415 0.046109561 0.0064898431
-0.014164189 0.046850778 0.0060690343
-0.012976019 0.046497401 0.0056664348
-0.011976859 0.046818633 0.005132556
-0.010885729 0.046808634 0.0045727193
-0.0098473709 0.047048554 0.0043835044
-0.0086882152 0.046699159 0.0041225851
-0.004373366 0.047013681 0.0041981041
-0.0032639084 0.046782687 0.0044158101
-0.0021710012 0.046676528 0.0049321949
-0.0011004247 0.047318261 0.0055662394
0 0.046379916 0.0061667562
0.0010822369 0.046536189 0.0067710578
0.0021164385 0.045503423 0.0068243146
0.0031740628 0.045494903 0.0061739683
0.0042935857 0.046156045 0.0056277514
-0.017058183 0.046910003 0.0049476922
-0.015949966 0.046786565 0.0054782927
-0.015097429 0.04744906 0.0060066283
-0.01409896 0.047719557 0.0051382482
-0.013197904 0.048392314 0.0045281351
-0.011973644 0.047894575 0.0043943226
-0.002182055 0.048005208 0.0044055283
-0.0010758245 0.047336277 0.0048675835
0 0.04812314 0.0055134892
0.0010757033 0.047330946 0.0058568418
0.0021264157 0.046781145 0.0063599944
0.0032210299 0.04724177 0.0058568418
0.0042369161 0.046606075 0.0056277514
0.0053078155 0.046708778 0.0049183071
-0.018142208 0.048023492 0.0048020184
-0.017067067 0.048001125 0.0049711764
-0.016352497 0.049057491 0.0055318475
-0.015110242 0.04856864 0.0058457851
-0.014033682 0.048578132 0.004870832
-0.013042381 0.048908934 0.0043059289
-0.0010837697 0.048769638 0.0044854581
0 0.049069725 0.0047639906
0.001081346 0.048660569 0.0051668584
0.0021507959 0.048392907 0.005779773
0.0031983324 0.047974989 0.005749315
0.0042432654 0.047736738 0.0057270229
0.0053272611 0.04794535 0.0052382946
-0.019302158 0.049327739 0.004070431
-0.018166961 0.049157657 0.0049670935
-0.017142665 0.049285166 0.0050053298
-0.016305234 0.05000272 0.0056745112
-0.015089056 0.049578328 0.0057899952
-0.014213137 0.050292641 0.0050750971
-0.013035818 0.049970638 0.0043409765
-0.0010883117 0.050062336 0.0045571029
0 0.0493575 0.0048962235
0.0010827992 0.049808763 0.0053706467
0.0021624281 0.049735852 0.0058295727
0.0031761727 0.04870132 0.005779773
0.004301921 0.049472094 0.0057933629
0.0053157713 0.048905101 0.0053329468
0.0064074197 0.049123552 0.0043773055
-0.019131109 0.049953457 0.004742533
-0.018172046 0.050240364 0.0048422217
-0.017248129 0.050666381 0.0055178106
-0.016057288 0.050312839 0.0055711269
-0.015300799 0.05136697 0.0057584643
-0.013987172 0.050569009 0.0051512122
-0.013049518 0.05111061 0.004267633
-0.0010797635 0.050748885 0.0046943724
0 0.050444491 0.0051097572
0.001076675 0.050603729 0.0054369867
0.0021460634 0.050432488 0.0058859885
0.0032017864 0.050161321 0.0058004856
0.0042614471 0.050072007 0.0054768622
0.0052994117 0.049814474 0.005505085
0.0064604436 0.050606806 0.0045685172
-0.019201728 0.051204611 0.0041534007
-0.018290132 0.051642723 0.0047900379
-0.016998211 0.050994635 0.0055318475
-0.016412869 0.05252118 0.0059011281
-0.01534715 0.052618798 0.0060393214
-0.014075905 0.051972572 0.0053857863
-0.013010118 0.052040473 0.004373908
-0.0010839276 0.052028522 0.0049009323
0 0.052368682 0.0053652823
0.001072122 0.051461857 0.0060966015
0.0021611757 0.051868215 0.0064080954
0.0031870464 0.050992742 0.006136477
0.0042633484 0.051160179 0.0060161054
0.0053632408 0.051487111 0.005630374
0.0064073401 0.05125872 0.0045685172
-0.019339664 0.05264686 0.0040510297
-0.018189076 0.052427337 0.0048807561
-0.016983468 0.052011866 0.0059037209
-0.016119476 0.052656956 0.0060648918
-0.015308699 0.053580444 0.0064257681
-0.014112596 0.053193633 0.0055175722
-0.01302148 0.053171042 0.0044480264
-0.011971142 0.053325996 0.0040370226
-0.002179292 0.053392652 0.0041369498
-0.0010906245 0.053440597 0.0050278902
0 0.0534111 0.0058984458
0.0010831195 0.053072855 0.0064097941
0.0021699716 0.0531643 0.0064395666
0.0031889994 0.05208699 0.0061770082
0.0042877356 0.052524757 0.0058532357
0.0053262357 0.05219711 0.005382061
-0.018238012 0.053641211 0.0048807561
-0.017024731 0.053202286 0.0058993399
-0.01599667 0.053322237 0.0064528883
-0.015122031 0.054007255 0.007055223
-0.01404541 0.054020811 0.0062207282
-0.01301534 0.054230586 0.0052739084
-0.011969495 0.054406796 0.0043698549
-0.0021971425 0.05492856 0.0045087337
-0.0010834552 0.054172762 0.0057270229
0 0.055056296 0.0063599944
0.0010761342 0.053806707 0.0064673424
0.0021401476 0.053503688 0.0065072179
0.0032063604 0.053439341 0.0061770082
0.0042948998 0.053686246 0.0058004856
0.0053261253 0.053261258 0.0053624511
-0.018233383 0.054700151 0.00434497
-0.01703589 0.054301903 0.0058993399
-0.016165787 0.054963678 0.0065307915
-0.014867683 0.054160845 0.0072680414
-0.014372705 0.05638523 0.0068963766
-0.012969221 0.05511919 0.0059317648
-0.011955802 0.055431448 0.0051286519
-0.01084603 0.055314757 0.0041401982
-0.003264881 0.055502977 0.0042369664
-0.0021607736 0.055099729 0.0049341023
-0.0011041072 0.056309469 0.0063356459
0 0.05523305 0.0064887404
0.0010643076 0.054279689 0.007635504
0.0021593219 0.055062711 0.0065140128
0.0032069974 0.05451896 0.0061989725
0.0042734854 0.054486938 0.0053749681
0.00535441 0.054614983 0.0045923293
-0.018193731 0.055651411 0.0043110549
-0.017147478 0.055729304 0.005849123
-0.016113546 0.055860288 0.0063648224
-0.014914589 0.055397045 0.0075037181
-0.014003614 0.056014456 0.0075100958
-0.013413343 0.058124486 0.0071645677
-0.011813059 0.055843554 0.0061277747
-0.010858315 0.056463242 0.0054250658
-0.0098160347 0.05671487 0.0041665435
-0.0043814513 0.056958865 0.0044578314
-0.0032223077 0.055853333 0.0047127306
-0.0021976994 0.057140186 0.0058707893
-0.001101339 0.057269625 0.007016331
0 0.055354942 0.0078063905
0.0010830177 0.056316916 0.0076617301
0.0021390475 0.055615231 0.0064961016
0.0031909263 0.055309389 0.0060966015
0.0042578634 0.055352222 0.0051058829
-0.017129393 0.056741115 0.004803896
-0.015941635 0.056327108 0.0063340664
-0.01500028 0.056786772 0.007512182
-0.01376505 0.056119047 0.0075637102
-0.012889886 0.05693033 0.0076562166
-0.012418757 0.059835833 0.0074743927
-0.010760547 0.057030901 0.0064525902
-0.0096290354 0.056704324 0.0057965815
-0.008694482 0.057600942 0.0054425895
-0.0075191776 0.056930915 0.0051882267
-0.0064782673 0.057224695 0.0047074854
-0.0054192888 0.057444464 0.0051882267
-0.0042893719 0.056834172 0.0056004524
-0.0033775812 0.059670601 0.0058801174
-0.0022158502 0.058720026 0.0068143308
-0.0010560716 0.05597179 0.0080015957
0 0.057102874 0.0080952644
0.0010722714 0.056830384 0.0075345039
0.0021239715 0.05628524 0.0065019131
0.0032180045 0.056851413 0.0053388178
-0.017013643 0.057421047 0.0043110549
-0.016143832 0.058117796 0.0060875416
-0.014923495 0.057562057 0.0075037181
-0.013702433 0.056917798 0.0076990128
-0.01270373 0.057166785 0.0078732669
-0.011663846 0.057258885 0.0080608726
-0.010960593 0.059187207 0.0076364279
-0.010393596 0.062361579 0.0074968338
-0.0088825403 0.05995715 0.0069949329
-0.0077121025 0.059493363 0.007168889
-0.0067723226 0.060950909 0.0070034862
-0.0055830679 0.060297139 0.0071643591
-0.0043508043 0.058735862 0.0070911348
-0.0032392447 0.058306403 0.0069086552
-0.0021034537 0.056793254 0.0080383718
-0.0010687165 0.057710696 0.0081141591
0 0.057573825 0.007781297
0.0010586857 0.057169028 0.0064673424
0.0021592879 0.058300775 0.0051712394
-0.015975455 0.058576666 0.0044453442
-0.014861037 0.058382649 0.0066027343
-0.013762216 0.058224764 0.0073673725
-0.012728469 0.058338813 0.007763803
-0.011725709 0.058628544 0.0077514648
-0.010471405 0.057592727 0.0074740648
-0.0095172133 0.058160752 0.0074517429
-0.0085172001 0.058555748 0.0069656074
-0.0076012905 0.059724428 0.0068755448
-0.0063967835 0.058637183 0.0068462193
-0.0052809999 0.058091003 0.0068755448
-0.004238206 0.058275331 0.0069338679
-0.0031988376 0.058645356 0.0067477822
-0.0021434643 0.058945272 0.0074327588
-0.001067876 0.05873318 0.007296294
0 0.058088817 0.006123811
0.0010666678 0.058666732 0.005813092
-0.014945547 0.059782188 0.0044440925
-0.013826584 0.059560671 0.0062146783
-0.012732834 0.059419893 0.0073055625
-0.011605522 0.059082657 0.0074326992
-0.01070992 0.059975553 0.0073333681
-0.0096813263 0.060239367 0.0074914992
-0.0086447122 0.060512986 0.0069656074
-0.0073827342 0.059061874 0.0066480637
-0.0063406276 0.059179191 0.0065498054
-0.0053782305 0.060236182 0.0066198409
-0.004265748 0.059720472 0.0065905154
-0.003172931 0.059228048 0.0055592358
-0.0021182185 0.059310112 0.0066681206
-0.0010595417 0.059334334 0.0058268011
0 0.059865434 0.0045790374
-0.012830524 0.060944986 0.0058636367
-0.011752849 0.060901124 0.0066773891
-0.010578883 0.060299631 0.0069146752
-0.0095476201 0.060468264 0.0069120526
-0.0084466571 0.06018243 0.0065262318
-0.0074021495 0.060274646 0.0063464344
-0.0064239018 0.061027069 0.0061968267
-0.0052852235 0.060251549 0.0063962638
-0.0042652376 0.060779631 0.006219089
-0.0032085946 0.060963295 0.0052996874
-0.0021293168 0.060685523 0.005510956
-0.0010621328 0.060541563 0.0042234957
-0.011609369 0.061213039 0.0054300427
-0.010703655 0.062081203 0.005513072
-0.0096257059 0.062032331 0.0063464344
-0.0084958123 0.061594643 0.0054939985
-0.0074514928 0.061740942 0.0055058599
-0.0063539417 0.061421439 0.0049106181
-0.0052755191 0.061196025 0.0051856935
-0.0042656669 0.061852168 0.0051708817
-0.0032045688 0.061954997 0.0048345625
0 0 0 1 0 0 0 1 0 0 0 1 0 0 0 0 0 369 1 0 0
