ply
format ascii 1.0
comment PCL generated
element vertex 455
property float x
property float y
property float z
element camera 1
property float view_px
property float view_py
property float view_pz
property float x_axisx
property float x_axisy
property float x_axisz
property float y_axisx
property float y_axisy
property float y_axisz
property float z_axisx
property float z_axisy
property float z_axisz
property float focal
property float scalex
property float scaley
property float centerx
property float centery
property int viewportx
property int viewporty
property float k1
property float k2
end_header
-0.010773952 0.059256736 0.0040145814
-0.013189879 0.06155277 0.0043043196
-0.012289449 0.06256447 0.0042027831
-0.011277381 0.063153334 0.0042199194
-0.010022004 0.062359139 0.0041362941
-0.0056254952 0.063005544 0.0042910874
-0.0044403779 0.06216529 0.0042617619
0.0021589184 0.060449716 0.0041508079
-0.013094809 0.062200341 0.0044206083
-0.012058186 0.062483329 0.0051924586
-0.010746045 0.061252456 0.0054154098
-0.0097453287 0.061720416 0.0051918328
-0.0085977837 0.061259206 0.0049467087
-0.007494254 0.061024636 0.0047176182
-0.0065492075 0.06221747 0.0045680106
-0.0053993058 0.061552089 0.0052487552
-0.004310389 0.061423041 0.0048723519
-0.0032353962 0.061472528 0.0048159063
-0.0021311275 0.060737133 0.0049553216
-0.0010648492 0.060696401 0.0046023428
0 0.060982179 0.0046933889
-0.013766762 0.06142094 0.0042921901
-0.012787648 0.061806969 0.005494684
-0.011497893 0.060625259 0.0059996247
-0.010707274 0.062102195 0.005782336
-0.0094899638 0.061157551 0.005456537
-0.0084045893 0.060933273 0.0051098764
-0.0074033453 0.061342005 0.0050036311
-0.0063495971 0.06137944 0.0048505962
-0.0052525899 0.060930051 0.0054408312
-0.0042415303 0.061502188 0.0052437782
-0.0031788626 0.061458014 0.005286485
-0.0021177051 0.061413452 0.0052528381
-0.0010594658 0.061449017 0.0048821867
0 0.061060708 0.0050270855
0.00109 0.063220002 0.0049857795
0.0021980831 0.063744411 0.0048030913
-0.014918815 0.062872149 0.0047769547
-0.013866869 0.06293425 0.0052648485
-0.012715061 0.062515721 0.0059221089
-0.011677518 0.062633961 0.0061480701
-0.010628668 0.062709145 0.0059221089
-0.0095473593 0.062588245 0.005758971
-0.0085202744 0.06283702 0.0054089129
-0.0074332058 0.062651306 0.0052479208
-0.0063820677 0.062757 0.005118072
-0.005325505 0.062840961 0.0056822896
-0.004242667 0.062579334 0.0056822896
-0.003182068 0.062580675 0.0056839883
-0.0021296148 0.062823638 0.0056996942
-0.0010538385 0.062176473 0.0055639148
0 0.063084222 0.0056468546
0.0010652998 0.062852696 0.0057769716
0.0022184092 0.065443069 0.005410254
0.0032236897 0.063399233 0.0048713386
-0.016014282 0.064057127 0.004170984
-0.014911707 0.063907318 0.0051263273
-0.013762324 0.06351842 0.0057553649
-0.012865224 0.064326122 0.005975008
-0.011725655 0.063958123 0.0061331689
-0.010629023 0.063774139 0.0059649348
-0.0095910914 0.063940614 0.0056093633
-0.0085109062 0.063831799 0.0053813159
-0.0074478062 0.06383834 0.0052323937
-0.0064155613 0.064155616 0.0050123334
-0.0052795517 0.063354626 0.0054067671
-0.0042536655 0.063804984 0.0054067671
-0.0031894129 0.063788258 0.0058252513
-0.0021265489 0.063796468 0.0059424937
-0.0010634651 0.063807905 0.0060809553
0 0.063619956 0.0058301091
0.001061234 0.06367404 0.006044358
0.0021510308 0.064530924 0.0056523383
0.0033109763 0.066219531 0.0050058663
0.0043170992 0.06475649 0.0040045679
-0.01598217 0.064994149 0.0044791102
-0.014758608 0.064305365 0.0054779053
-0.013822249 0.06485825 0.00593853
-0.012746959 0.064797044 0.0060703754
-0.011639136 0.064544298 0.0061506927
-0.010778158 0.065746762 0.0059221089
-0.0097659901 0.066191711 0.0053688884
-0.0087285805 0.066555426 0.0049830079
-0.0076108561 0.066323176 0.0048229992
-0.0064866017 0.065947115 0.0046188235
-0.0054505873 0.066497169 0.0050919354
-0.0043439534 0.066245288 0.0051994324
-0.0032233156 0.065540746 0.0052554905
-0.0021222669 0.064729139 0.0058327317
-0.0010662669 0.06504228 0.0061436296
0 0.064549759 0.0061775744
0.0010638557 0.064895198 0.0063142776
0.0021199763 0.064659275 0.0060823858
0.0032918504 0.066934295 0.0053869188
0.0043282821 0.066006303 0.0048824251
-0.016934641 0.065621734 0.0049168169
-0.015977081 0.066038601 0.0055772364
-0.014879536 0.065895088 0.0061661601
-0.013758346 0.065616734 0.0065554976
-0.012805779 0.066163197 0.0069007874
-0.011938889 0.067291923 0.0069181025
-0.010884952 0.067486703 0.0061506927
-0.0097048553 0.066855676 0.0055772364
-0.0086621679 0.067131802 0.0053069293
-0.0075278711 0.066675432 0.0048546791
-0.0064791059 0.066950768 0.0048398972
-0.00541721 0.067173414 0.0052277148
-0.0043162936 0.066902556 0.0052345395
-0.0032868183 0.067927584 0.0058581829
-0.0021618414 0.067017086 0.0067853034
-0.001065264 0.066046372 0.0069090128
0 0.066233367 0.0072244108
0.0010588166 0.065646626 0.0071466565
0.002113878 0.065530218 0.0066877902
0.0032212015 0.066571496 0.0059512258
0.0044546346 0.06904684 0.005273968
0.0053623812 0.066493534 0.0041532218
-0.018213566 0.067497335 0.004606843
-0.017022565 0.067026354 0.0053767264
-0.015933076 0.066918924 0.0060759485
-0.014807291 0.066632815 0.0069693327
-0.013821978 0.066983439 0.0075561404
-0.013006086 0.068281956 0.0069007874
-0.011913147 0.068229847 0.0066484213
-0.010648375 0.067084767 0.0060578585
-0.0097613158 0.068329215 0.0055253208
-0.0086651305 0.068237901 0.0051432252
-0.0075705322 0.068134792 0.0049928129
-0.0065431274 0.068702839 0.0048240423
-0.0054305033 0.068424344 0.0050476789
-0.0043093478 0.067872226 0.0053855777
-0.0032566544 0.068389744 0.0056079328
-0.0021795686 0.068656415 0.0067028999
-0.0010891919 0.068619095 0.0072244108
0 0.067693405 0.0077828169
0.0010627497 0.066953234 0.0079200864
0.002125721 0.066960208 0.0075042546
0.0031663072 0.066492453 0.0063152015
0.0042801965 0.067413099 0.0056512356
0.0055307844 0.069687888 0.0049317777
-0.017971314 0.067656711 0.0051262379
-0.016929355 0.067717418 0.0055559278
-0.015947675 0.068043418 0.0062409937
-0.014857168 0.067918487 0.0071375072
-0.014012997 0.068987064 0.0066665113
-0.012928838 0.068953805 0.0062409937
-0.011874774 0.069089592 0.0058924258
-0.010873585 0.069590949 0.0055141449
-0.0098052137 0.069725968 0.0051454604
-0.0086651491 0.069321193 0.0046709776
-0.0076211211 0.069678821 0.0042663813
-0.0064734081 0.069049686 0.0041911304
-0.005435627 0.069576032 0.0045457184
-0.0043780021 0.070048034 0.0048798621
-0.0032292034 0.06888967 0.005058229
-0.0021583743 0.069067977 0.0061256886
-0.0010864222 0.069531024 0.0067525506
0 0.069172859 0.0077828169
0.0010734772 0.068702541 0.0079364181
0.0021315212 0.06820868 0.0078597367
0.003171223 0.067652762 0.0063707232
0.0042575882 0.068121411 0.0056682527
0.0055226237 0.070689581 0.0051645339
0.0064506512 0.068806946 0.0043506324
-0.018972429 0.068511546 0.0050121844
-0.018032759 0.06894879 0.0055295229
-0.017084368 0.069405243 0.005895704
-0.015902625 0.068911381 0.0066401362
-0.015139339 0.070289783 0.006952256
-0.0140857 0.070428498 0.0060577691
-0.01294542 0.070121028 0.0057643354
-0.011995855 0.0708846 0.0055312216
-0.01085247 0.070541054 0.0052301884
-0.0097818673 0.070646822 0.0045387149
-0.0087368442 0.07098686 0.0042879581
-0.005453954 0.070901401 0.0040301085
-0.0043331911 0.070414357 0.004458636
-0.0032429211 0.070263289 0.0046870112
-0.0021743784 0.070667297 0.005132854
-0.0010746805 0.06985423 0.0059924424
0 0.070578173 0.007271409
0.0010800972 0.070206314 0.0077367425
0.0021139521 0.068703443 0.007697016
0.0031983242 0.069297023 0.0063707232
0.0042484533 0.069037363 0.0057206452
0.005304704 0.068961151 0.0053767562
0.0067640604 0.073277324 0.0043016076
-0.019170431 0.070291586 0.0048439205
-0.018086895 0.07021971 0.0056133866
-0.016944833 0.069897436 0.005902797
-0.016134376 0.070991248 0.0065290928
-0.015086171 0.071120523 0.0066862702
-0.01385887 0.070360415 0.005859524
-0.013046345 0.071754895 0.0054718256
-0.011899785 0.071398713 0.005130291
-0.010839125 0.071538225 0.0045615137
-0.0097747231 0.071681306 0.0042649806
-0.004347587 0.071735181 0.0041001141
-0.0032670763 0.071875677 0.0045772493
-0.0021759183 0.071805298 0.0050654113
-0.0010785236 0.071182556 0.0058413148
0 0.071373373 0.0066465735
0.0010737708 0.070868872 0.0073981881
0.0021415059 0.070669688 0.0074833632
0.0031959664 0.070311263 0.0070854127
0.0042364127 0.069900811 0.0059175193
0.005362446 0.070784286 0.0050156415
0.0065325331 0.071857862 0.00430879
-0.019268675 0.071722299 0.0050801933
-0.0180132 0.070993207 0.0057270229
-0.01706779 0.071471371 0.005975008
-0.016074674 0.071800217 0.0075012147
-0.014896647 0.071291097 0.0073495805
-0.014029864 0.072307765 0.0062354803
-0.013033859 0.072772384 0.0055550933
-0.011878445 0.072350532 0.0051040351
-0.010858192 0.07274989 0.0045098662
-0.0097399289 0.072508365 0.0041652322
-0.0032552914 0.072701514 0.0045670569
-0.0021708286 0.072722763 0.0050654113
-0.0010907766 0.07308203 0.0056607425
0 0.071514875 0.0068397522
0.0010863263 0.072783865 0.0077367425
0.0021470145 0.071924984 0.0076389909
0.0031683345 0.070759475 0.007125169
0.0042568292 0.071301892 0.0070180297
0.0052842097 0.070808411 0.0052502453
0.006393515 0.07139425 0.0042734742
-0.020278353 0.072575159 0.0042079687
-0.019067293 0.072031997 0.0050456524
-0.018041564 0.072166257 0.0056600571
-0.017142491 0.072855584 0.0058212578
-0.016039256 0.072711289 0.0075608194
-0.015199224 0.073824801 0.0073495805
-0.014024897 0.073361002 0.0067358315
-0.012984536 0.073579036 0.0056046546
-0.012004456 0.07420937 0.0051636398
-0.010798453 0.073429488 0.0045615137
-0.0096645392 0.073020965 0.0043180287
-0.0087387562 0.074279428 0.0041001141
-0.004309183 0.073256113 0.0041517615
-0.0032384477 0.073404819 0.0046101511
-0.002171261 0.073822871 0.0050883889
-0.00108017 0.073451564 0.0063558817
0 0.073954575 0.00683406
0.0010746396 0.073075496 0.007663697
0.0021474564 0.073013522 0.0076389909
0.00318579 0.072211243 0.0070878267
0.0042577283 0.072381385 0.0068645477
0.0053006765 0.072089203 0.0051708221
0.00642876 0.07285928 0.0042375624
-0.019050736 0.073027827 0.0048661232
-0.017952425 0.072865725 0.0054401755
-0.016840449 0.072624438 0.0063198507
-0.016231652 0.074665606 0.0073542595
-0.015322383 0.075517461 0.0072253942
-0.013936312 0.073969655 0.0064027011
-0.013039682 0.074978173 0.0056133866
-0.011893089 0.074602105 0.0050887167
-0.010744709 0.074138492 0.0045021176
-0.0098329931 0.075386286 0.0041257143
-0.003266844 0.075137407 0.0046554804
-0.0021666328 0.074748829 0.0052213967
-0.0010820644 0.07466244 0.0062126815
0 0.074538283 0.0068142712
0.0010611538 0.073219612 0.0071662664
0.0021603836 0.074533232 0.0076315701
0.0031941994 0.073466584 0.0070370734
0.004225675 0.072892889 0.0068618953
0.0053225057 0.07345058 0.0051681697
-0.019105365 0.074298643 0.0048928559
-0.018136663 0.074680373 0.0058386624
-0.01701005 0.074418969 0.0075012147
-0.016039351 0.074850306 0.0081175268
-0.015033565 0.07516782 0.0074487627
-0.013939808 0.075060509 0.006732583
-0.013025546 0.075982355 0.0061423779
-0.011862982 0.075491704 0.0053339601
-0.010839856 0.075878993 0.0045021176
-0.0097131971 0.075547092 0.0041001737
-0.0032278083 0.075315528 0.0046049058
-0.0021663199 0.075821199 0.005069524
-0.0010815482 0.075708367 0.0063029826
0 0.076242559 0.0067515373
0.0010730793 0.075115547 0.00735116
0.0021515447 0.075304061 0.0074213445
0.0031771769 0.074134126 0.0069380999
0.0042544045 0.07445208 0.0068364143
0.00527672 0.073874086 0.0051048398
-0.018986018 0.074889295 0.0048817396
-0.018064685 0.075446621 0.0063198507
-0.016934643 0.07514748 0.0078302324
-0.016015409 0.075806268 0.0082220435
-0.014850744 0.075314485 0.0082266927
-0.014347304 0.078358345 0.0080160499
-0.012852915 0.076046415 0.0070963204
-0.011894886 0.076776087 0.0062893331
-0.010807619 0.076734096 0.0051965714
-0.0096798781 0.076363482 0.004907012
-0.0087133059 0.077330589 0.0045388341
-0.0064649377 0.076501764 0.0041711032
-0.0054362542 0.07719481 0.0041517615
-0.0043104598 0.07651066 0.0045622587
-0.0032298518 0.076439828 0.0052394271
-0.0021713981 0.077084631 0.0061967075
-0.0010758628 0.076386258 0.0066923499
0 0.078023344 0.007414639
0.0010669173 0.075751126 0.0076902509
0.0021272113 0.075515993 0.0079243183
0.0032051769 0.075855851 0.0073815286
0.004213925 0.074797161 0.0066722333
0.0053359992 0.07577119 0.0050755739
-0.019242205 0.076968819 0.0042864978
-0.018118035 0.076735198 0.0058275461
-0.016900459 0.07605207 0.0078787804
-0.015927525 0.076452114 0.0084252656
-0.014881266 0.076532222 0.0083880723
-0.013846738 0.076689623 0.0082828999
-0.013120886 0.078725316 0.007927984
-0.011765683 0.077011742 0.0070963204
-0.010697355 0.077020951 0.00610286
-0.0097286077 0.077828862 0.0051531494
-0.0086140158 0.077526137 0.0048462152
-0.0075762481 0.07792712 0.0045429468
-0.0065021026 0.078025229 0.0043618381
-0.0054257996 0.078131519 0.0043985844
-0.0042925118 0.07726521 0.0051302612
-0.0032601382 0.078243315 0.0057803094
-0.0021331315 0.076792724 0.0063381493
-0.0011057026 0.079610586 0.0071977973
0 0.076288126 0.0076144636
0.0010653152 0.076702692 0.0078287423
0.0021292907 0.076654464 0.0076401532
0.0031820058 0.076368138 0.0073815286
0.0041801762 0.075243168 0.0066613555
-0.017916519 0.076935649 0.0044490397
-0.017105957 0.078045934 0.0075078607
-0.015826136 0.077020533 0.0082887113
-0.014951123 0.077959433 0.0087299049
-0.013719864 0.077042319 0.0089151263
-0.013006491 0.079122826 0.0081121624
-0.012036236 0.079876848 0.008140713
-0.010844981 0.079168372 0.0071543753
-0.009682782 0.078538127 0.0063174963
-0.008603042 0.078502767 0.0060057938
-0.00758594 0.079110518 0.0056357384
-0.0064769392 0.078802764 0.0052930415
-0.0053862324 0.078638993 0.0054754615
-0.0043177409 0.078798778 0.0057822466
-0.0031888878 0.077596277 0.0061721802
-0.002234289 0.081551544 0.0071099997
-0.0010870423 0.079354092 0.0074498951
0 0.076823331 0.0074696541
0.0010797242 0.078819863 0.0076213479
0.0021115614 0.077071995 0.0072345734
0.0031660344 0.077040173 0.006663233
0.004238565 0.077353813 0.0046702027
-0.016855849 0.077958301 0.0061341226
-0.015798442 0.077938989 0.0082146227
-0.014870663 0.078602083 0.0089284778
-0.013906201 0.079158381 0.0090606809
-0.012626023 0.077860475 0.0091278553
-0.011998587 0.080717772 0.0089152157
-0.011091914 0.082080171 0.0079832077
-0.0097437622 0.080115378 0.0075939894
-0.0086630052 0.080132797 0.0071874857
-0.0075057759 0.079346776 0.0064949691
-0.0064740628 0.079846777 0.0063822269
-0.0054150159 0.080142237 0.0066927373
-0.0044208644 0.081785992 0.0068956316
-0.0032657147 0.080554299 0.0074153543
-0.0021536725 0.079685889 0.0093044639
-0.0010531627 0.077934042 0.0097828805
0 0.079615861 0.0096520185
0.001061257 0.078533024 0.0090164244
0.0021003105 0.077711493 0.0072377026
0.0031971845 0.078863889 0.0062376559
-0.016878936 0.079120018 0.0049909651
-0.016047377 0.080236889 0.0075528324
-0.014860626 0.079610497 0.0085133016
-0.013645315 0.078722976 0.0090416372
-0.012922269 0.080764189 0.0090416372
-0.01149235 0.078356937 0.0092402101
-0.010614213 0.0796066 0.0091543794
-0.0097900685 0.08158391 0.0089509785
-0.0087616909 0.082140855 0.008539319
-0.0076651489 0.082126603 0.0082222223
-0.0066922731 0.083653413 0.0076328516
-0.005451832 0.081777483 0.0083263218
-0.004259706 0.079869494 0.0083795488
-0.0032290069 0.080725171 0.0097626746
-0.002104999 0.078937471 0.0097828805
-0.001063896 0.079792202 0.010034919
0 0.080008194 0.0095182955
0.00105173 0.078879751 0.007582128
0.0021299303 0.079872385 0.0067907572
-0.015934119 0.080732867 0.0047181547
-0.014726466 0.079943672 0.0066556334
-0.013835249 0.080883004 0.0087890029
-0.012723101 0.080579646 0.0090714693
-0.011741378 0.081122257 0.0091637075
-0.010592612 0.080503851 0.0091073215
-0.0094341813 0.079666421 0.0087999105
-0.0084606353 0.080376036 0.008539319
-0.0075077885 0.081513137 0.0082165897
-0.0063668564 0.08064685 0.0076328516
-0.0052256244 0.079429492 0.0083795488
-0.0042278152 0.080328487 0.0083795488
-0.0031838671 0.080657966 0.0097483397
-0.0021339918 0.081091695 0.0096318126
-0.0010640703 0.080869347 0.0096174777
0 0.079740517 0.0069388151
0.001059278 0.080505133 0.0062910616
0.0021263242 0.080800325 0.0042923987
-0.015007039 0.082538709 0.0046865344
-0.013838212 0.081964791 0.0062429905
-0.012679893 0.081362642 0.0079436898
-0.011651692 0.081561849 0.0082838833
-0.010643996 0.081958778 0.008690387
-0.0096334824 0.082419798 0.0084979236
-0.0085367151 0.082165882 0.0084979236
-0.0075168987 0.082685888 0.0077455938
-0.0063757752 0.081822455 0.0077455938
-0.0053378697 0.082203194 0.0083795488
-0.0042486177 0.081785887 0.0076328516
-0.003180603 0.081635475 0.0093177855
-0.0021177994 0.081535272 0.0075796247
-0.0010560352 0.081314713 0.0069388151
0 0.082038797 0.0056375563
0.0010602265 0.081637442 0.0043003559
-0.012819707 0.083328098 0.0060375035
-0.011667317 0.082731888 0.0067232251
-0.010506808 0.081953101 0.006904304
-0.0095331343 0.082620502 0.0071570277
-0.008388645 0.081789285 0.0071156323
-0.0074095102 0.08256311 0.0064949691
-0.0063903937 0.083075121 0.006329
-0.0052536917 0.081957594 0.0069440305
-0.0041997163 0.081894465 0.006329
-0.0032017406 0.083245255 0.0062898099
-0.0021061581 0.082140163 0.0060591996
-0.0010585347 0.08256571 0.0050340295
-0.011647997 0.0836538 0.0042589605
-0.010666303 0.084263802 0.0055863857
-0.0095474729 0.083805598 0.0057043135
-0.0084550194 0.083493315 0.0059047639
-0.007457091 0.084158599 0.0057810545
-0.0063776863 0.083972871 0.0056573749
-0.0053035496 0.083796084 0.0057697296
-0.0042654458 0.084242545 0.0056375563
-0.0031733101 0.083563827 0.0053638518
-0.002114495 0.083522558 0.0045301914
-0.0085174562 0.085174561 0.0045228302
-0.0073823864 0.084370129 0.0054779053
-0.0063692587 0.084923446 0.004270643
0 0 0 1 0 0 0 1 0 0 0 1 0 0 0 0 0 455 1 0 0
