ply
format ascii 1.0
comment PCL generated
element vertex 606
property float x
property float y
property float z
element camera 1
property float view_px
property float view_py
property float view_pz
property float x_axisx
property float x_axisy
property float x_axisz
property float y_axisx
property float y_axisy
property float y_axisz
property float z_axisx
property float z_axisy
property float z_axisz
property float focal
property float scalex
property float scaley
property float centerx
property float centery
property int viewportx
property int viewporty
property float k1
property float k2
end_header
-0.01306753 0.086245701 0.0060126185
-0.012210652 0.08634676 0.005953908
-0.011263994 0.085779645 0.0058296621
-0.01030813 0.085042074 0.0060978234
-0.009501176 0.085510582 0.0058296621
-0.0086817537 0.085949369 0.0057942867
-0.0078566214 0.086422838 0.0060767829
-0.0069958493 0.086573638 0.0058347881
-0.006162236 0.087151632 0.0053601861
-0.014550245 0.085589677 0.0066896677
-0.013623797 0.085148729 0.0080413818
-0.012867467 0.085783117 0.0088075101
-0.012022246 0.085873187 0.008771956
-0.01110291 0.085407004 0.008520484
-0.010268751 0.085572928 0.0087578893
-0.009438375 0.085803419 0.0085442364
-0.0085566249 0.085566252 0.0086374283
-0.0076625361 0.085139297 0.0090160966
-0.0068687359 0.085859202 0.0096255541
-0.0059247054 0.084638648 0.010458529
-0.0051026456 0.085044101 0.010862738
-0.0043120841 0.086241685 0.010829747
-0.0033986515 0.084966287 0.011195391
-0.0025568493 0.085228316 0.011278689
-0.0016991491 0.084957458 0.011211723
-0.00085023273 0.085023277 0.011022121
0 0.085555919 0.011186212
0.00084863557 0.084863558 0.010958254
0.001685662 0.084283099 0.010581136
0.0025699814 0.085666046 0.010767251
0.0033915529 0.084788829 0.0099027753
0.0041991067 0.08398214 0.0083494782
0.0051069045 0.085115083 0.005959183
-0.015083973 0.084637851 0.0086897016
-0.014307691 0.085004516 0.010361314
-0.01338891 0.084517501 0.011132985
-0.012601102 0.08484742 0.011398584
-0.011688408 0.084323518 0.011891872
-0.010739923 0.083440945 0.012565017
-0.010049948 0.084587067 0.012482375
-0.0092637818 0.085058361 0.012495548
-0.008316936 0.084001057 0.01245597
-0.0075175767 0.084363922 0.01266858
-0.0066911359 0.084475592 0.012504011
-0.0058947252 0.08505246 0.012790799
-0.0050464296 0.084948234 0.012836993
-0.0041865772 0.084568866 0.013044268
-0.0033625925 0.08490546 0.012854666
-0.002535298 0.085355036 0.01287806
-0.0016681129 0.084239706 0.013011605
-0.00082915684 0.083744846 0.012714952
0 0.084706441 0.013215035
0.00082620088 0.083446287 0.012883008
0.0016774538 0.084711418 0.012459546
0.0025131283 0.084608659 0.012747943
0.003370869 0.085114442 0.01217705
0.0041647046 0.084127031 0.011854708
0.005070548 0.085354231 0.010488391
0.0058376235 0.084228568 0.007433027
-0.01713578 0.087392487 0.0071587265
-0.01603638 0.086090043 0.010540515
-0.015208881 0.086183667 0.011479586
-0.014355381 0.086132281 0.012596607
-0.013592548 0.086652495 0.012827486
-0.012547548 0.085323326 0.012982935
-0.011745109 0.085571513 0.012849867
-0.010991485 0.08624088 0.012996197
-0.0099844318 0.084867679 0.013277054
-0.0092641134 0.085903592 0.013365269
-0.0083214333 0.084878623 0.013590753
-0.0075747701 0.0858474 0.013464808
-0.0067311018 0.085821547 0.013233483
-0.0058866651 0.085777119 0.013681412
-0.0050739083 0.086256444 0.013657689
-0.0041911723 0.08549992 0.01374954
-0.0033681516 0.085887864 0.013735026
-0.0025192529 0.085654601 0.013732672
-0.0016654646 0.084938698 0.013860315
-0.00084810168 0.086506374 0.013702542
0 0.085313343 0.013780564
0.00083545758 0.085216671 0.013735086
0.0016760997 0.085481092 0.013556749
0.0024970965 0.084901288 0.013245016
0.0033752415 0.08606866 0.01309818
0.0041808337 0.085289009 0.01309818
0.0049994695 0.084990978 0.01280269
0.0058597848 0.085385442 0.011964202
0.0067424439 0.085966162 0.009267956
-0.017705932 0.086843379 0.0085199177
-0.016956821 0.087327637 0.010810435
-0.016206084 0.087854035 0.012184352
-0.015225243 0.087122224 0.01288709
-0.014241454 0.086286455 0.013198674
-0.013462604 0.086665511 0.013246298
-0.012553294 0.086199291 0.013495594
-0.011686007 0.085975625 0.013649553
-0.010900487 0.086365402 0.01376006
-0.010071224 0.086444676 0.013760746
-0.0093436092 0.087490164 0.01376006
-0.0083831418 0.086346366 0.013727546
-0.0075340904 0.086223483 0.013697177
-0.0067638983 0.087085187 0.013320416
-0.0059075127 0.086924829 0.013437361
-0.0050074477 0.085961185 0.013456225
-0.0042364807 0.087271504 0.013520181
-0.0033538463 0.086361535 0.013520181
-0.0025164988 0.086399794 0.013829321
-0.0016860756 0.086832888 0.014081329
-0.00084428524 0.086961381 0.013985336
0 0.085647903 0.01435113
0.00083359733 0.085860521 0.014350116
0.0016739115 0.086206444 0.014322579
0.0025035674 0.085955814 0.014198005
0.0033824248 0.087097436 0.014018625
0.0041248854 0.084972642 0.013869017
0.0051130163 0.08777345 0.012865126
0.0058579179 0.086195081 0.012829065
0.0067001367 0.08626426 0.011889309
0.0075850966 0.086807221 0.010259539
-0.018512195 0.087512195 0.0085199177
-0.017617255 0.087247357 0.011271954
-0.017012589 0.08846546 0.012156844
-0.015974507 0.08743941 0.013118863
-0.015150237 0.087534703 0.01329577
-0.014389208 0.088028096 0.013730228
-0.013495971 0.087723814 0.013731748
-0.01252535 0.086842425 0.013793916
-0.011681409 0.086776175 0.013823241
-0.010843278 0.086746223 0.013756871
-0.010023361 0.086869128 0.013932407
-0.0092581334 0.087531447 0.013811201
-0.0083574159 0.086917125 0.013772666
-0.0075353668 0.087075353 0.013814121
-0.0067385593 0.087601274 0.013320416
-0.0058795633 0.087353513 0.013437361
-0.0050306125 0.087197281 0.013456762
-0.0041645775 0.086623214 0.013821304
-0.0033657402 0.087509237 0.013821304
-0.0025103712 0.087026201 0.01404506
-0.0016930795 0.088040128 0.014113963
-0.00084395055 0.087770849 0.014267832
0 0.086868912 0.014685214
0.00083663285 0.087009817 0.014405519
0.0016674678 0.086708322 0.01435414
0.002510194 0.087020054 0.014235318
0.003338123 0.086791195 0.014068335
0.0041607423 0.086543441 0.014080733
0.0050964644 0.088338718 0.013999045
0.0057754782 0.0858071 0.013983995
0.0067489441 0.087736271 0.01293695
0.0075226231 0.086928092 0.012113392
0.0083774738 0.087125733 0.011215895
0.0094787655 0.089617424 0.0055312216
-0.019794401 0.090365745 0.0072766542
-0.01861234 0.088831626 0.011486262
-0.017811846 0.089059226 0.012341231
-0.016766578 0.088024542 0.01295349
-0.016190881 0.089475915 0.013447464
-0.015188721 0.088600874 0.013673097
-0.014363398 0.088715106 0.013857394
-0.013252001 0.086966254 0.013697177
-0.012534501 0.087741509 0.013842583
-0.011830243 0.088726819 0.013694555
-0.010867311 0.087774433 0.013663232
-0.010113451 0.088492692 0.013811648
-0.0091603883 0.087440073 0.013516068
-0.0083829695 0.088021182 0.013635367
-0.0075705643 0.08832325 0.013649553
-0.0067551979 0.088661969 0.013519347
-0.0059263306 0.088894956 0.013575435
-0.0050264769 0.087963343 0.013348937
-0.0042186468 0.088591583 0.013626724
-0.0033846782 0.088847801 0.013626724
-0.0025056519 0.087697819 0.013901234
-0.0016784801 0.0881202 0.014026672
-0.00083783187 0.087972343 0.014061034
0 0.087508157 0.01440981
0.00084024994 0.088226244 0.014323384
0.0016561868 0.086949803 0.014407337
0.0025136138 0.087976478 0.014263988
0.0033188623 0.087120131 0.014262825
0.0041915188 0.088021897 0.01427719
0.0050254157 0.087944776 0.014138222
0.0058169425 0.087254137 0.01419571
0.0067198183 0.088197611 0.014019102
0.0073837675 0.086143956 0.012981087
0.0084495945 0.088720746 0.012651473
0.0093192756 0.088956721 0.010424286
-0.019514237 0.089935169 0.010806501
-0.018554285 0.089397915 0.012398511
-0.017781118 0.089752302 0.01320228
-0.016712705 0.08857733 0.01335755
-0.016066816 0.089635916 0.013954401
-0.015121081 0.089046367 0.014025241
-0.014245435 0.088824473 0.013991624
-0.013582151 0.08998175 0.013890207
-0.012601888 0.08905334 0.013965726
-0.011722345 0.0887549 0.013406545
-0.011022215 0.089873441 0.013355225
-0.010067631 0.088930741 0.013528109
-0.0092927972 0.089548774 0.013189107
-0.0083825206 0.088854715 0.013211757
-0.007562188 0.089065768 0.013506651
-0.0067383074 0.089282572 0.013317883
-0.0058669876 0.088842958 0.013519347
-0.0050354023 0.088958777 0.013231993
-0.0041683083 0.08836814 0.0134404
-0.0033432215 0.088595368 0.01333952
-0.0024924376 0.088066131 0.013758302
-0.0016842826 0.089266971 0.013840348
-0.00084108772 0.089155294 0.013984591
0 0.089118071 0.014231622
0.00083973206 0.089011595 0.014328003
0.0016272282 0.086243093 0.014237523
0.0025205519 0.089059502 0.014240474
0.0034191343 0.090607055 0.014240474
0.0041270526 0.087493509 0.014409691
0.0050156005 0.088608943 0.014360398
0.0058145965 0.088049605 0.014288068
0.006688335 0.088620432 0.01398927
0.0076237079 0.089790337 0.013875306
0.0083630756 0.088648602 0.012964249
0.0090633621 0.087337852 0.012110054
0.010336289 0.091303892 0.0078796148
-0.020316236 0.090576559 0.0096687376
-0.019642832 0.09138187 0.011915267
-0.018532436 0.090135038 0.012759924
-0.017677441 0.090070769 0.013347685
-0.01692239 0.090534791 0.013561785
-0.015964057 0.089902855 0.013837487
-0.015161488 0.090126634 0.0137465
-0.014442709 0.090904117 0.013698161
-0.013319448 0.089073807 0.013511091
-0.01261879 0.09001404 0.013156146
-0.011800786 0.090191729 0.012900591
-0.01090975 0.089795642 0.012803316
-0.010060675 0.089707687 0.012711674
-0.009296095 0.090425655 0.012306035
-0.0083820252 0.089687683 0.012157708
-0.0076115523 0.090492904 0.012253881
-0.0067345938 0.090075195 0.012248486
-0.0059144646 0.09040682 0.012394965
-0.0050951773 0.090864003 0.012494981
-0.0042001754 0.08988376 0.012490392
-0.0033769566 0.090333588 0.012665063
-0.0025467293 0.090833351 0.012816787
-0.0016596745 0.088792585 0.013030827
-0.00083655969 0.089511886 0.013023317
0 0.090495378 0.01334095
0.00083803223 0.089669451 0.013524652
0.001691247 0.090481713 0.014080495
0.0025294116 0.09021569 0.013856947
0.0033463279 0.08951427 0.013786137
0.0041951686 0.08977662 0.014033079
0.005037928 0.089843057 0.014139235
0.0058625182 0.089612782 0.014161378
0.0066766422 0.089300096 0.014039606
0.0075834622 0.090158947 0.013979763
0.0083048828 0.088862255 0.013875306
0.0091840392 0.089335658 0.012764633
0.010145461 0.090463698 0.012024254
-0.020379717 0.091708727 0.011364609
-0.01959271 0.092000552 0.012497485
-0.018430332 0.090476178 0.012908548
-0.017625654 0.090646222 0.013513207
-0.016945917 0.091507956 0.013672113
-0.015917208 0.090476759 0.013833404
-0.015084257 0.090505548 0.013638824
-0.014258692 0.090584636 0.013492376
-0.013366646 0.090224862 0.013021708
-0.012654136 0.091109782 0.012747049
-0.011679736 0.090100817 0.012491822
-0.010954171 0.091003895 0.012164801
-0.01027751 0.092497595 0.012055337
-0.0092592044 0.090908557 0.011268556
-0.0085845208 0.092712827 0.010660052
-0.0076825321 0.092190392 0.010665506
-0.006845735 0.092417426 0.010233313
-0.0060475497 0.093305059 0.0095089078
-0.0051234183 0.092221536 0.0093050599
-0.0042973179 0.092822075 0.0095427632
-0.0034332355 0.09269736 0.01109162
-0.0025707404 0.092546657 0.011837631
-0.0016965452 0.091613442 0.012039632
-0.00084009743 0.090730526 0.012282968
0 0.090501912 0.012536913
0.00084410043 0.091162853 0.012707263
0.0016571044 0.089483641 0.013174891
0.0024905649 0.089660347 0.013679773
0.0033738995 0.091095291 0.013740301
0.0042266818 0.09129633 0.013935804
0.005040071 0.090721279 0.014125496
0.0058778003 0.09068606 0.01417017
0.0066573941 0.089874826 0.014148653
0.0074865492 0.089838594 0.014213771
0.0084691737 0.091467083 0.01398927
0.0091880001 0.090209454 0.013496161
0.0099943578 0.08994922 0.012726218
0.01096182 0.091067433 0.010995209
-0.021127349 0.092115246 0.010914445
-0.02010612 0.091315299 0.012263
-0.019418254 0.092025638 0.012888968
-0.01869919 0.092645988 0.013207614
-0.017695986 0.091850594 0.013658285
-0.017009281 0.092700586 0.013677478
-0.016057922 0.092121758 0.013770491
-0.015151981 0.091753669 0.013495386
-0.014289674 0.091622032 0.013293207
-0.013335643 0.090849072 0.012415349
-0.012527103 0.091030277 0.012207717
-0.011883098 0.092518404 0.011777937
-0.01110091 0.093076862 0.01105085
-0.010205398 0.092699036 0.010491848
-0.0094273798 0.093416773 0.0090870857
-0.0084550073 0.092159577 0.008530736
-0.0076750368 0.092953227 0.0075214207
-0.006945407 0.094631173 0.0069544315
-0.0060457909 0.094141603 0.0063535273
-0.0051925378 0.094331101 0.0053557158
-0.004379903 0.095481887 0.0064290464
-0.0034574224 0.09421476 0.0064032078
-0.0025809419 0.093774222 0.006965518
-0.0017346545 0.094538674 0.0072052479
-0.00085845147 0.093571208 0.0087668896
0 0.091840103 0.011616677
0.0008452147 0.092128403 0.011849254
0.0016901792 0.092114769 0.012477398
0.0025184655 0.091504253 0.012828946
0.0033312959 0.090777814 0.01355654
0.0041325386 0.090089351 0.013937861
0.0050344178 0.091458596 0.014084637
0.0058856187 0.091647491 0.014266551
0.0066809547 0.091028005 0.01425916
0.0075686374 0.091664612 0.014334053
0.0083938409 0.091492869 0.014320016
0.0092287799 0.091448821 0.014014542
0.010035331 0.09115427 0.01309973
0.010892987 0.091333516 0.012081772
0.012019741 0.093582273 0.0062475801
-0.022043753 0.093262039 0.0093742311
-0.02104206 0.092585064 0.011823893
-0.02034411 0.093243845 0.012756705
-0.019454539 0.093043447 0.01312393
-0.01837733 0.091886647 0.01335755
-0.017667489 0.092543997 0.01376614
-0.016990259 0.093446426 0.013669163
-0.015779905 0.091357343 0.01382634
-0.015261829 0.093266733 0.013368011
-0.014254631 0.092235848 0.012734562
-0.013500127 0.092813373 0.011948198
-0.012728893 0.093345217 0.010768354
-0.011929013 0.093727961 0.010370672
-0.01104114 0.093425035 0.0097387433
-0.010117102 0.092740111 0.0084356368
-0.0095493896 0.095493905 0.0068588257
-0.00086566573 0.095223233 0.0061028302
0 0.094602659 0.0068380237
0.00084332452 0.092765696 0.0081726313
0.0017141491 0.094278201 0.01137203
0.0025734792 0.094360903 0.012204409
0.0033517512 0.092173159 0.012808383
0.0041607725 0.091537006 0.013467252
0.0050798901 0.093131326 0.013937861
0.0058785821 0.092377722 0.014097512
0.006698336 0.092102118 0.014223278
0.0075818081 0.092666551 0.014286637
0.0083003379 0.091303721 0.014296144
0.0092901448 0.092901453 0.014137387
0.010026129 0.09190619 0.013749778
0.0108005 0.091388851 0.012736022
0.011722532 0.092105612 0.011403888
0.013142232 0.096376367 0.0051579773
-0.021986982 0.093867496 0.011514395
-0.020873193 0.092676967 0.01240918
-0.020217074 0.093503974 0.01291272
-0.019311216 0.093197607 0.013132215
-0.01848691 0.093274869 0.013245612
-0.017695619 0.093533985 0.013319433
-0.016833842 0.093427829 0.013368011
-0.015988382 0.093405806 0.013235211
-0.015094624 0.093083516 0.012357086
-0.014362268 0.093777165 0.011619985
-0.013746992 0.095369756 0.010823339
-0.012769181 0.094491936 0.0099987388
-0.012011801 0.095236421 0.0091311038
-0.011176829 0.095432922 0.0077046156
0.00086405291 0.095909871 0.0059716105
0.0017192776 0.095419906 0.006900847
0.0025464469 0.09421853 0.010325432
0.0033590018 0.093212299 0.011699766
0.0042136242 0.093542457 0.012372226
0.0050145932 0.09276998 0.013329089
0.0059093554 0.09370549 0.013855398
0.0066963905 0.092912421 0.013960153
0.0075695459 0.093357734 0.014142066
0.0083232103 0.092387639 0.014207155
0.0092241047 0.093079612 0.01417017
0.010065513 0.093105994 0.014050901
0.010943214 0.093438216 0.013739854
0.011740507 0.093085445 0.012399375
0.01265204 0.093625098 0.010515064
-0.023059657 0.095654875 0.0099722743
-0.021895114 0.094317414 0.012339473
-0.021032652 0.094226278 0.012478083
-0.020140741 0.093990125 0.01301232
-0.019189548 0.09344475 0.01322335
-0.018512402 0.094244957 0.013268113
-0.017632488 0.094039932 0.013214856
-0.016821813 0.094202153 0.012965232
-0.015855476 0.09346386 0.01246801
-0.015341471 0.095458046 0.011725485
-0.014465703 0.095303454 0.010607868
-0.013639547 0.095476829 0.0098807514
-0.012843674 0.095899433 0.009077251
-0.012163432 0.097307459 0.0071021914
0.0025932414 0.096814342 0.0066161156
0.0033800816 0.094642282 0.0099881291
0.0042581647 0.095382892 0.011645347
0.0050592609 0.094439536 0.012401432
0.0058595086 0.093752138 0.013284862
0.0066483854 0.093077399 0.013775647
0.0075535597 0.093999855 0.01388514
0.0083013978 0.092975654 0.014125496
0.0091794068 0.093463048 0.014127702
0.010130147 0.094548047 0.014042526
0.010807972 0.093114838 0.013886362
0.011705815 0.093646519 0.01298961
0.012558495 0.093770087 0.011859894
0.013808528 0.096659698 0.0057489872
-0.022837589 0.095579535 0.011732727
-0.021556579 0.093688205 0.012635827
-0.021117112 0.095449336 0.012750238
-0.020182496 0.095025919 0.012860686
-0.019278152 0.094714396 0.013206393
-0.018533895 0.095196821 0.013368011
-0.017533652 0.094347745 0.013136864
-0.016865976 0.095292762 0.012775153
-0.016020026 0.095276996 0.012096196
-0.015287179 0.095969513 0.010921061
-0.014489187 0.096310474 0.0099657774
-0.013590336 0.095981747 0.0085331202
-0.013028834 0.098150551 0.0066851079
0.0034619051 0.097798809 0.0064663291
0.0042427764 0.095886752 0.0098813474
0.0051450315 0.096898094 0.011551768
0.005856514 0.094540872 0.012298107
0.006752945 0.095385343 0.013620049
0.0075074588 0.09426032 0.013754904
0.0082866075 0.093638666 0.013942868
0.0090889046 0.093367837 0.014139235
0.010063727 0.094766766 0.014048934
0.010851261 0.094322495 0.013978451
0.011821354 0.095415212 0.013654888
0.012521298 0.094327115 0.013112992
0.013466497 0.095107138 0.011632591
-0.023654372 0.096307084 0.011495382
-0.022626746 0.095535152 0.012368828
-0.021968557 0.096323669 0.012841284
-0.020978915 0.095663853 0.012959123
-0.020308396 0.09646488 0.013315678
-0.019299207 0.095656931 0.013442457
-0.018557837 0.096163332 0.01346451
-0.017566448 0.095360719 0.013187975
-0.017031822 0.097081386 0.012919545
-0.016344551 0.098067306 0.011660963
-0.015256072 0.096621796 0.010482252
-0.014559378 0.097633474 0.0094753206
-0.013923637 0.099205911 0.0064542592
0.0043511083 0.09920527 0.0065800846
0.0051617087 0.098072462 0.010055959
0.0060102758 0.09788163 0.01171729
0.0067053628 0.095551424 0.013157904
0.0075057005 0.095072202 0.013702273
0.008467596 0.096530594 0.013934255
0.0090565057 0.093858331 0.014076769
0.0099748308 0.094760887 0.01401639
0.010903578 0.09561599 0.014037967
0.011719245 0.095428139 0.013681889
0.012378599 0.094077349 0.01342836
0.013476422 0.096019506 0.012753963
0.014385068 0.096464567 0.0095267296
-0.023457076 0.096341558 0.011594236
-0.022690795 0.096645974 0.0124726
-0.021756399 0.096230231 0.012975961
-0.021150818 0.097293764 0.0131993
-0.020216381 0.096870162 0.013437778
-0.019341661 0.096708305 0.013464063
-0.018562337 0.097030401 0.013594478
-0.017712185 0.096995294 0.013176113
-0.01712946 0.098494396 0.01257664
-0.016179159 0.09792649 0.011338085
-0.015322936 0.097896539 0.010053992
-0.014886213 0.10070085 0.0079036355
0.0043441295 0.099914983 0.0060513914
0.0052099777 0.099857904 0.0077645481
0.0060067126 0.098681711 0.010881394
0.006864049 0.098670699 0.012298107
0.00752025 0.096092083 0.013352901
0.008269255 0.095096432 0.01377517
0.009204533 0.09622921 0.014109582
0.010066651 0.096472062 0.014037967
0.010920742 0.09660656 0.014050812
0.011522915 0.094652511 0.013611645
0.012485501 0.095722176 0.01320377
0.013286696 0.095498122 0.012577266
0.014262096 0.096478879 0.010735661
-0.024345906 0.097383626 0.0094189644
-0.023616582 0.09784013 0.012281358
-0.022825642 0.098065719 0.012710452
-0.02198359 0.098080643 0.013218015
-0.021339919 0.099017233 0.013292938
-0.020271715 0.097979963 0.013549
-0.019519793 0.098447651 0.013575286
-0.018400762 0.097022213 0.013644844
-0.017933788 0.099062823 0.013176113
-0.017008105 0.098647013 0.012541801
-0.016162848 0.09867844 0.010676891
-0.01541069 0.099313341 0.0097076595
-0.014912125 0.10175332 0.0068734288
0.0052342638 0.10119577 0.0065386593
0.005981809 0.099127121 0.0099936426
0.0067953048 0.098531924 0.011869162
0.0076064039 0.0980381 0.013157904
0.0082947798 0.09621945 0.013736099
0.0091681397 0.096682198 0.014104158
0.010041687 0.097069643 0.013925612
0.010914998 0.097395368 0.013950735
0.011760253 0.097442098 0.013366252
0.012558837 0.097121678 0.012965679
0.013174865 0.095517777 0.012728691
0.014089475 0.096139953 0.011645436
0.015022079 0.096808963 0.0052039027
-0.02457007 0.099127524 0.011416048
-0.023219859 0.097025841 0.012420982
-0.022731548 0.098503374 0.01280725
-0.021733506 0.097800784 0.013315678
-0.021129953 0.098888181 0.013335317
-0.020210482 0.098526105 0.01348272
-0.019254064 0.097944595 0.013477921
-0.018544024 0.098620497 0.01342237
-0.017790448 0.09911821 0.012840807
-0.016925404 0.099013619 0.011613876
-0.016070938 0.098963149 0.010293841
-0.015726626 0.10222308 0.0081698895
0.0051858113 0.10112333 0.0060964227
0.0059945905 0.1001953 0.0081140995
0.0067982371 0.099424221 0.011285275
0.0075575951 0.098248743 0.012318522
0.0084191021 0.0985035 0.013678759
0.0091137271 0.096936919 0.014045179
0.0099752853 0.09725903 0.01443857
0.010927452 0.098347068 0.014475465
0.011778575 0.098435238 0.014110744
0.012481994 0.097359553 0.013530314
0.013421481 0.098144576 0.012852252
0.014129741 0.097245865 0.012080342
0.014992023 0.097448155 0.006875217
-0.024501093 0.099694103 0.012101263
-0.023594731 0.099434942 0.012778431
-0.022741463 0.099388614 0.012841284
-0.021510959 0.097626664 0.01336062
-0.020939127 0.098832674 0.013442457
-0.020153427 0.099087693 0.013726681
-0.019408977 0.099576488 0.013644844
-0.018624038 0.099892564 0.013307571
-0.017725712 0.099601619 0.01272881
-0.017138312 0.10111605 0.011686832
-0.01632873 0.10141001 0.010435998
-0.015640292 0.10253081 0.0079306364
0.0060724057 0.10236341 0.0065852106
0.00676511 0.099785373 0.010097742
0.0076556318 0.10037385 0.011872619
0.0084636975 0.099871635 0.013488322
0.0091416556 0.098065041 0.013987839
0.010019059 0.098520756 0.014100492
0.010915515 0.099079289 0.014533073
0.011710069 0.098699152 0.014236003
0.012495487 0.098297834 0.01355806
0.013370346 0.098606303 0.012814909
0.014204647 0.09859696 0.012447625
0.015026081 0.09850432 0.01017046
-0.025427701 0.10086321 0.009555012
-0.024646813 0.10113692 0.012384415
-0.023585275 0.10023742 0.012652248
-0.022644166 0.099802062 0.01283443
-0.021576757 0.098755151 0.013501734
-0.021108694 0.10047739 0.013552845
-0.020159362 0.099956833 0.013617575
-0.01938507 0.10029666 0.01353237
-0.01867046 0.10099021 0.013281971
-0.017700193 0.10030109 0.012741387
-0.016747223 0.09964598 0.011169136
-0.016464066 0.10311704 0.0089004636
-0.015795728 0.10442732 0.0056149364
0.005974601 0.10156822 0.0062703788
0.0068582068 0.10201583 0.0092695355
0.0075999401 0.1004881 0.011457473
0.0084094442 0.10007239 0.013266265
0.009273611 0.10032362 0.01369676
0.010033978 0.099503614 0.013978094
0.010852656 0.099343546 0.014659971
0.011722553 0.099641696 0.014310032
0.012530798 0.099410996 0.013748914
0.013427602 0.099867791 0.013530314
0.01390909 0.097363628 0.012717217
0.015008517 0.09922298 0.011361241
0 0 0 1 0 0 0 1 0 0 0 1 0 0 0 0 0 606 1 0 0
