ply
format ascii 1.0
comment PCL generated
element vertex 869
property float x
property float y
property float z
element camera 1
property float view_px
property float view_py
property float view_pz
property float x_axisx
property float x_axisy
property float x_axisz
property float y_axisx
property float y_axisy
property float y_axisz
property float z_axisx
property float z_axisy
property float z_axisz
property float focal
property float scalex
property float scaley
property float centerx
property float centery
property int viewportx
property int viewporty
property float k1
property float k2
end_header
-0.0093350196 0.0020744491 0.021303922
-0.0082421508 0.0020605377 0.021729887
-0.0071934424 0.0020552692 0.021661997
-0.0062337327 0.002077911 0.022380114
-0.0051602032 0.0020640814 0.021815091
-0.0041526672 0.0020763336 0.020834208
-0.011176557 0.003048152 0.021433353
-0.010118505 0.0030355516 0.022106111
-0.0091543766 0.0030514591 0.023004234
-0.0082278792 0.0030854545 0.023085952
-0.0071749804 0.0030749915 0.023393989
-0.006184984 0.003092492 0.023908585
-0.0050839107 0.0030503466 0.023615986
-0.0041113864 0.0030835397 0.022510648
-0.0030547061 0.0030547061 0.022589982
-0.0020639405 0.0030959107 0.022655398
-0.0010344189 0.0031032567 0.021068215
-0.0132563 0.0040788618 0.022648185
-0.012135153 0.0040450511 0.023573428
-0.011347947 0.0041265259 0.023337722
-0.010115845 0.0040463381 0.023985863
-0.009175024 0.0040777884 0.024087429
-0.0081994133 0.0040997067 0.024090111
-0.0071658613 0.0040947781 0.024203807
-0.0061409529 0.0040939688 0.024005353
-0.0050978223 0.0040782578 0.024065226
-0.004103736 0.004103736 0.022878677
-0.0030551881 0.0040735845 0.023226559
-0.0020441404 0.0040882807 0.023419052
-0.0010235431 0.0040941723 0.023410529
0 0.0040866248 0.023253947
0.0010270795 0.0041083181 0.022981614
-0.016065899 0.0050205933 0.023455262
-0.015255159 0.0050850529 0.022561371
-0.014478297 0.0051708203 0.023030758
-0.013090358 0.0050347531 0.024942726
-0.012306673 0.0051277801 0.025417924
-0.011222259 0.0051010265 0.025356531
-0.010241731 0.0051208655 0.024391562
-0.0092120701 0.0051178169 0.024584383
-0.0082406346 0.0051503968 0.024445027
-0.0071285344 0.0050918101 0.024842411
-0.0061704093 0.0051420075 0.024249971
-0.0051400503 0.0051400503 0.023693353
-0.0041055712 0.0051319641 0.02342841
-0.0030792458 0.0051320763 0.023911566
-0.00205457 0.0051364247 0.0239546
-0.0010186976 0.0050934884 0.024317116
0 0.0051252088 0.024803549
0.0010110763 0.0050553815 0.024723589
0.0020520091 0.0051300228 0.024178565
0.0030534561 0.0050890935 0.023188949
-0.020406362 0.0061219083 0.024544597
-0.01946014 0.0061453073 0.024734229
-0.01837117 0.0061237239 0.024447262
-0.017278923 0.0060984436 0.023924887
-0.016300254 0.0061125951 0.025847942
-0.015465746 0.0061862981 0.025011659
-0.014222741 0.0060954602 0.025001258
-0.013289538 0.0061336332 0.02500388
-0.012296012 0.0061480058 0.025204003
-0.011187682 0.0061023724 0.025204003
-0.010147517 0.0060885102 0.023913443
-0.0092243711 0.0061495807 0.02419427
-0.0082086548 0.0061564911 0.024299353
-0.007194004 0.0061662891 0.02408877
-0.0061464221 0.0061464221 0.023915559
-0.0051377402 0.0061652884 0.02323553
-0.0041125021 0.0061687534 0.023192137
-0.0030752993 0.0061505986 0.02366659
-0.002043647 0.0061309407 0.02380389
-0.0010256132 0.0061536785 0.024317116
0 0.0061189458 0.024827689
0.0010299418 0.0061796508 0.025366217
0.002047061 0.006141183 0.025095642
0.003001407 0.006002814 0.024285674
0.0040361732 0.0060542598 0.024866015
0.0051103062 0.0061323675 0.024632722
-0.021426911 0.007142303 0.024544597
-0.020221645 0.0070775761 0.025122494
-0.019332075 0.0071223434 0.025387615
-0.01838797 0.0071508768 0.025995433
-0.01716846 0.0070693661 0.0258632
-0.016471136 0.0072061224 0.02569896
-0.015011847 0.0070055285 0.025632501
-0.014356085 0.0071780425 0.025391489
-0.013183643 0.0070988848 0.024856418
-0.012182898 0.0071066902 0.024248689
-0.011144324 0.0070918431 0.023987025
-0.010359202 0.0072514415 0.023441344
-0.0092261909 0.0071759266 0.023529768
-0.0082921935 0.0072556697 0.023817748
-0.007161709 0.007161709 0.023291856
-0.0061907941 0.0072225933 0.02326867
-0.0051460657 0.0072044921 0.022908598
-0.0041235527 0.007216217 0.022878677
-0.0030905374 0.007211254 0.02323553
-0.0020408814 0.0071430849 0.02367571
-0.0010291685 0.0072041792 0.023549646
0 0.0071128742 0.024256617
0.0010175239 0.0071226675 0.02561596
0.0020272252 0.0070952885 0.025088996
0.0030598112 0.0071395594 0.025023848
0.0040711244 0.0071244673 0.024972618
0.0050308486 0.007043188 0.024145007
0.0061333706 0.0071555991 0.024724841
-0.022615936 0.0082239769 0.024367243
-0.021448921 0.0081710173 0.026194364
-0.020353435 0.0081413742 0.026198745
-0.019436458 0.0081837717 0.02635321
-0.018430959 0.0081915371 0.026242167
-0.017309513 0.0081456536 0.025922626
-0.016197469 0.0080987345 0.025924921
-0.015366615 0.0081955278 0.025615156
-0.01428547 0.0081631262 0.024856418
-0.013209958 0.0081292046 0.02410385
-0.012275194 0.0081834625 0.02410385
-0.01145082 0.0083278697 0.023984402
-0.010109453 0.0080875633 0.023233205
-0.009202173 0.0081797093 0.02249679
-0.0082498714 0.0082498714 0.023341864
-0.0071481462 0.0081693102 0.022951841
-0.006173315 0.0082310867 0.022918373
-0.0051220511 0.008195282 0.022744298
-0.0041011698 0.0082023395 0.022773445
-0.0030860032 0.0082293423 0.023466289
-0.0020505399 0.0082021598 0.02366659
-0.0010218655 0.0081749242 0.023458421
0 0.0082212826 0.024187326
0.0010172324 0.0081378594 0.024805993
0.0020331044 0.0081324177 0.02535221
0.003065886 0.0081756962 0.025030792
0.0040238719 0.0080477437 0.02509594
0.0051129069 0.0081806518 0.026169538
0.0060902922 0.0081203897 0.026552886
0.0070926785 0.0081059178 0.024932891
-0.023758352 0.009296746 0.024694651
-0.022290677 0.0091189127 0.02617541
-0.021377474 0.0091617741 0.027257264
-0.020485083 0.0092182877 0.027236342
-0.019242221 0.0091147358 0.026456118
-0.018271036 0.0091355182 0.026532441
-0.017250614 0.0091326777 0.026214242
-0.016259959 0.0091462256 0.025924921
-0.015215944 0.0091295652 0.025167227
-0.014404122 0.009259792 0.023276746
-0.01319896 0.0091377413 0.023236305
-0.012277468 0.0092081008 0.023113251
-0.011361733 0.0092959628 0.023115754
-0.010267974 0.0092411768 0.021941423
-0.0092570828 0.0092570828 0.02204144
-0.0082362685 0.0092658019 0.022300094
-0.0073261093 0.0094192829 0.022565216
-0.0060888715 0.0091333073 0.022564352
-0.0051537808 0.0092768054 0.022309244
-0.0040902239 0.0092030028 0.022774488
-0.0031138195 0.0093414588 0.022513777
-0.0020487241 0.0092192581 0.023548961
-0.0010257128 0.0092314146 0.023145229
0 0.0091760298 0.023892015
0.0010232744 0.009209469 0.024281025
0.0020468952 0.009211028 0.024805993
0.0030593225 0.009177967 0.024497151
0.0040902239 0.0092030028 0.02523163
0.0051178169 0.0092120701 0.02623117
0.0060449848 0.0090674767 0.027392536
0.0070901685 0.0091159306 0.026695192
0.0081450902 0.0091632269 0.026864499
0.0091885198 0.0091885198 0.025740355
-0.023296449 0.01012889 0.02599439
-0.022304086 0.010138221 0.027238309
-0.021363424 0.010173059 0.027384669
-0.020231826 0.010115913 0.027035326
-0.019383376 0.010201776 0.026456118
-0.01831818 0.010176767 0.02653411
-0.017316889 0.010186405 0.026642859
-0.016458772 0.010286732 0.025859147
-0.01515291 0.01010194 0.025167227
-0.014406679 0.010290485 0.023276746
-0.013321732 0.010247487 0.022550434
-0.012237257 0.010197714 0.022111744
-0.011310118 0.010281925 0.022674561
-0.010216177 0.010216177 0.021792501
-0.0092762783 0.010306977 0.021578401
-0.0082811229 0.010351403 0.022028387
-0.0072433357 0.010347622 0.021391749
-0.0061554327 0.010259055 0.021463811
-0.0052061984 0.010412397 0.021417767
-0.004121189 0.010302972 0.022069544
-0.0030783417 0.010261139 0.022098064
-0.00205738 0.0102869 0.023120821
-0.0010240062 0.010240061 0.022451997
0 0.01027301 0.022897661
0.0010340639 0.010340638 0.023403168
0.0020426288 0.010213144 0.023828983
0.0030955311 0.010318437 0.023907423
0.0040595043 0.01014876 0.024145007
0.0050586951 0.01011739 0.025887877
0.006053037 0.010088395 0.026831657
0.0071093733 0.010156248 0.027042985
0.0081290053 0.010161256 0.028227925
0.0091287401 0.010143044 0.028227925
0.010121115 0.010121115 0.026695192
-0.024311492 0.011142767 0.025567055
-0.023250138 0.011119631 0.026963025
-0.022499453 0.011249727 0.028500795
-0.021304509 0.011159504 0.028562933
-0.020346167 0.011190392 0.027611494
-0.019252546 0.01114621 0.027501792
-0.018347673 0.011212467 0.026653945
-0.017177029 0.011114548 0.026584625
-0.016264752 0.011182017 0.025563836
-0.015474436 0.011347919 0.023847431
-0.014363096 0.011285289 0.022114992
-0.013321651 0.011272167 0.021397084
-0.012349046 0.011319959 0.021972537
-0.011325462 0.011325462 0.021700621
-0.010251459 0.011276605 0.021211743
-0.0091901142 0.011232362 0.02093938
-0.0082274387 0.011312729 0.021360844
-0.0071801497 0.011283092 0.020551592
-0.0061846492 0.011338524 0.021419019
-0.0051647173 0.011362378 0.021163732
-0.0040982459 0.011270176 0.021012813
-0.0030909395 0.011333445 0.020808131
-0.0020532224 0.011292723 0.021969438
-0.0010349713 0.011384685 0.021387368
0 0.011266044 0.022495985
0.0010296685 0.011326353 0.022633314
0.0020535882 0.011294735 0.023618728
0.0030697286 0.011255671 0.023751855
0.0040897126 0.011246709 0.023968697
0.0051119975 0.011246394 0.025521189
0.0061623426 0.011297628 0.027039021
0.0070180404 0.011028349 0.028140426
0.0081967255 0.011270498 0.028520942
0.0090497155 0.011060764 0.028336823
0.010124717 0.011137188 0.027769417
0.011179353 0.011179353 0.027571112
0.012226951 0.011208039 0.025344878
-0.024425104 0.012212552 0.02693522
-0.023136513 0.012071224 0.028085232
-0.022145726 0.012079488 0.028624862
-0.021372002 0.012212572 0.028462946
-0.020259488 0.012155694 0.027642697
-0.019250009 0.012157901 0.027539402
-0.01842746 0.012284973 0.026820153
-0.017254474 0.012179629 0.026430875
-0.016252866 0.012189649 0.024908453
-0.015239448 0.012191558 0.02335766
-0.014316017 0.012270872 0.022767633
-0.013343662 0.012317226 0.021751791
-0.012310144 0.012310144 0.02168268
-0.011358829 0.01239145 0.021009982
-0.010343335 0.012412001 0.020561635
-0.0093095535 0.012412738 0.019455343
-0.0083877202 0.01258158 0.019219697
-0.007280305 0.012480523 0.019303232
-0.0062284484 0.012456897 0.019351363
-0.0051421016 0.012341044 0.019454449
-0.0041774241 0.012532271 0.020288825
-0.0031102814 0.012441126 0.020716608
-0.0020452738 0.012271643 0.021460176
-0.0010368474 0.012442168 0.021227062
0 0.012306902 0.021943003
0.0010320324 0.01238439 0.022493333
0.0020458833 0.012275299 0.022847444
0.0030504928 0.012201971 0.023906678
0.0040725982 0.012217795 0.024104685
0.0051195524 0.012286927 0.026113629
0.0061033969 0.012206794 0.027039021
0.0070405714 0.012069551 0.028588921
0.0080864523 0.012129678 0.028644711
0.0090901954 0.012120262 0.028935581
0.010129473 0.012155368 0.028426677
0.011072663 0.012079269 0.028005868
0.012119341 0.012119341 0.027282625
-0.02545521 0.013236709 0.026369393
-0.024183761 0.013099537 0.027462602
-0.023147307 0.013083261 0.028707385
-0.022336781 0.013199008 0.028601587
-0.021246366 0.013152513 0.028239995
-0.02023113 0.013150235 0.027836144
-0.019279741 0.013191401 0.027324468
-0.018301094 0.013217458 0.026948124
-0.01729971 0.013229189 0.025654227
-0.016329546 0.013267756 0.02430889
-0.015347882 0.013301498 0.023051828
-0.014418076 0.013388214 0.021875679
-0.013357666 0.013357666 0.021168411
-0.012515325 0.013558269 0.021101713
-0.011330468 0.013390553 0.019936293
-0.010388222 0.013504689 0.019244224
-0.0092967637 0.013428659 0.01857385
-0.0083607435 0.013586207 0.017644197
-0.0072144768 0.013398315 0.017609656
-0.0062345439 0.013508178 0.017610788
-0.0051764357 0.013458733 0.018179834
-0.0041095759 0.013356121 0.018372893
-0.0030871858 0.013377804 0.018427521
-0.0020905773 0.013588753 0.019655377
-0.0010310378 0.013403491 0.020479083
0 0.01337818 0.021193326
0.0010259185 0.01333694 0.022045344
0.0020445047 0.01328928 0.022756159
0.0030641495 0.013277981 0.023253888
0.0041022627 0.013332354 0.023968697
0.0050484645 0.013126007 0.025521189
0.006146064 0.013316472 0.026629686
0.0070694536 0.013128986 0.027880609
0.0080980081 0.013159263 0.028916299
0.0090988073 0.013142723 0.029230207
0.010085427 0.013111056 0.029158056
0.011142833 0.013168802 0.028103113
0.012200999 0.013217749 0.027730972
0.013177125 0.013177125 0.026210696
-0.025421143 0.014235839 0.026778609
-0.024345241 0.014201391 0.028247774
-0.023282493 0.014171951 0.028960049
-0.0223416 0.014217381 0.028918117
-0.020951932 0.013967954 0.028490633
-0.020252557 0.014176791 0.028187484
-0.019229546 0.014169139 0.027853787
-0.01826668 0.014207418 0.026948124
-0.01735932 0.01429591 0.025845528
-0.016068051 0.014059544 0.024658859
-0.015540238 0.014504222 0.02335766
-0.014542196 0.014542196 0.021846861
-0.013423843 0.014456447 0.020072103
-0.012338848 0.014395324 0.019380033
-0.011484969 0.014617234 0.019219697
-0.010222865 0.014312011 0.017353535
-0.009362326 0.014563618 0.016493976
-0.0082937516 0.014514065 0.016802907
-0.0072552399 0.01451048 0.016386598
-0.006232556 0.014542631 0.016557157
-0.005186663 0.014522657 0.016431093
-0.0041611469 0.014564014 0.01739797
-0.003118003 0.014550681 0.016808957
-0.0020869887 0.014608921 0.018005669
-0.0010241867 0.014338613 0.019303501
0 0.014433357 0.019997627
0.0010250398 0.014350558 0.0210917
0.0020559104 0.014391374 0.022175729
0.0030562135 0.01426233 0.023225367
0.0040902183 0.014315763 0.024493545
0.0050806385 0.014225788 0.025537401
0.0061075245 0.014250891 0.026687026
0.0070709903 0.014141981 0.028041601
0.0080441991 0.014077348 0.02902779
0.0091210715 0.014188333 0.02905798
0.01006813 0.014095382 0.029287219
0.011074889 0.014095312 0.029018015
0.01214442 0.01416849 0.02823329
0.013156221 0.014168238 0.0274674
-0.025020519 0.015012311 0.027898729
-0.024383917 0.015239949 0.028843701
-0.023308376 0.015201114 0.030146778
-0.022158884 0.015108329 0.029367805
-0.021182606 0.015130432 0.02877295
-0.020172833 0.015129625 0.028312922
-0.019149171 0.015117766 0.027884573
-0.018427193 0.015355995 0.026971251
-0.017300831 0.015265439 0.025805444
-0.016303316 0.015284359 0.024442911
-0.015301363 0.015301363 0.021101385
-0.014568162 0.015608746 0.020072103
-0.013457464 0.015527843 0.018156528
-0.01250583 0.015632289 0.017486334
-0.01143033 0.015586814 0.016383797
-0.010270671 0.015406007 0.015470773
-0.0093894387 0.015649065 0.015919477
-0.0083797518 0.015712036 0.01550284
-0.0073505384 0.015751153 0.015171766
-0.006278418 0.015696045 0.015232295
-0.0052337172 0.015701152 0.015232295
-0.0041680816 0.015630305 0.015497684
-0.0031321615 0.015660807 0.01535669
-0.0020754666 0.015566 0.01605016
-0.0010436533 0.0156548 0.016875982
0 0.015504042 0.018971622
0.0010236675 0.015355012 0.020294309
0.002075101 0.015563257 0.021303296
0.0030707431 0.015353716 0.022945732
0.0040588956 0.015220858 0.024161071
0.0050826157 0.015247847 0.025093824
0.0061153802 0.015288451 0.026573688
0.007100204 0.015214723 0.027828246
0.0080629652 0.01511806 0.028902322
0.0089519303 0.014919885 0.029545575
0.010049555 0.015074332 0.030233711
0.011110736 0.015151004 0.030301541
0.012065849 0.015082312 0.029020518
0.01326508 0.015305861 0.027115256
-0.026251821 0.016154967 0.026227444
-0.02503635 0.016023263 0.02873984
-0.0240984 0.016065599 0.029388547
-0.02318861 0.016131207 0.030452043
-0.022261141 0.016189922 0.030125678
-0.021043846 0.016033405 0.02982977
-0.020243907 0.016195126 0.028746247
-0.019250235 0.016210724 0.027952671
-0.018319141 0.016283682 0.026821703
-0.017256733 0.016241631 0.025314569
-0.016475124 0.016475124 0.023159415
-0.015442354 0.016471844 0.019852042
-0.01451305 0.016586343 0.018220365
-0.01336196 0.01644549 0.016996473
-0.012454928 0.016606571 0.016311228
-0.011488181 0.016710082 0.015036613
-0.010442656 0.016708251 0.014696509
-0.0093249409 0.016577672 0.01428014
-0.0083097434 0.016619487 0.01377058
-0.0072760559 0.016630985 0.013264954
-0.0062518585 0.016671624 0.013264954
-0.0052313837 0.016740428 0.013401121
-0.0041411156 0.016564462 0.013640106
-0.0031278376 0.016681802 0.014340788
-0.0021120652 0.016896522 0.015105814
-0.0010404453 0.016647125 0.015847534
0 0.01650485 0.017381817
0.0010391049 0.016625678 0.019309342
0.0020396849 0.016317479 0.020854443
0.0030832402 0.016443949 0.022396803
0.0041121156 0.016448462 0.024161071
0.0050568418 0.016181894 0.02567786
0.0060866429 0.016231049 0.02628082
0.0070833121 0.016190428 0.027535915
0.0080831405 0.016166281 0.028902322
0.0090382304 0.016067965 0.030117095
0.010064418 0.01610307 0.030498832
0.011056738 0.016082527 0.030667156
0.012112185 0.01614958 0.029970616
0.013175926 0.016216526 0.02751261
0.014191675 0.016219057 0.026730418
-0.025428995 0.017291717 0.029342383
-0.023971872 0.016980076 0.029936373
-0.023246383 0.01718211 0.03084287
-0.022199972 0.017154524 0.029885948
-0.021095347 0.017077185 0.029688984
-0.020279551 0.017237619 0.029509574
-0.019236697 0.01721178 0.028101593
-0.018201141 0.017189967 0.025819123
-0.01730359 0.01730359 0.024990976
-0.016499728 0.017530961 0.021209508
-0.01562614 0.017709624 0.018863112
-0.014523492 0.01763567 0.016450942
-0.013513356 0.017671313 0.015045106
-0.0020899165 0.017764291 0.013574123
-0.0010388151 0.017659856 0.014404088
0 0.017784189 0.016760051
0.001029677 0.01750451 0.017464757
0.0020726153 0.017617229 0.020001113
0.0030712264 0.017403616 0.021432459
0.0041226577 0.017521294 0.023674726
0.0050940886 0.017319903 0.025349945
0.006131337 0.017372122 0.02629438
0.0070429305 0.017104259 0.027995408
0.0081261629 0.017268095 0.029607862
0.0090192119 0.017036289 0.030066162
0.010047549 0.017080834 0.030492663
0.011040862 0.01706315 0.030696511
0.011986719 0.016981184 0.030456156
0.012996472 0.016995387 0.028180063
-0.026307916 0.018213172 0.028130591
-0.024968743 0.017977495 0.029906452
-0.024199836 0.018149877 0.031151563
-0.023213083 0.018166758 0.031383276
-0.022107905 0.018088287 0.030506283
-0.021131372 0.018112604 0.02963829
-0.020176353 0.018158717 0.028746247
-0.019171016 0.018162016 0.027800441
-0.018355792 0.018355792 0.025805444
-0.017332742 0.018352315 0.023711681
0.0010450367 0.01881066 0.015836179
0.0020648357 0.018583521 0.018548071
0.0030866067 0.01851964 0.020182282
0.004104909 0.01847209 0.022770017
0.0050904872 0.018325754 0.025479555
0.0060966811 0.018290043 0.025958747
0.0070771216 0.018198311 0.028369516
0.0081194295 0.018268716 0.029643446
0.009028093 0.018056186 0.030437291
0.010040362 0.018072652 0.030780703
0.011055733 0.0180912 0.030826241
0.011969336 0.017954005 0.030384004
0.012991099 0.017987674 0.02960366
-0.025088971 0.019067617 0.031121641
-0.024027795 0.019022005 0.031392008
-0.023014616 0.019012075 0.03146261
-0.022133458 0.01911526 0.030798018
-0.021257946 0.01923338 0.029884428
-0.020082781 0.019078644 0.029378951
-0.019187307 0.019187307 0.028031766
-0.018487295 0.019514367 0.024430186
0.0020642322 0.019610206 0.017456055
0.003077663 0.019491866 0.019491404
0.0040727658 0.019345637 0.021568298
0.0050771111 0.019293021 0.024421692
0.0061076707 0.019340958 0.025503367
0.0070686317 0.019186286 0.027567714
0.0080610076 0.019144895 0.029788047
0.0090610292 0.01912884 0.030761838
0.0099545717 0.018913686 0.031033427
0.010983468 0.018971445 0.031953126
0.01206512 0.019103108 0.03038016
0.013059242 0.019086584 0.02994442
-0.026015716 0.020012088 0.029343784
-0.025102649 0.020082118 0.031338781
-0.023984032 0.019986693 0.031705409
-0.023067761 0.020058922 0.031801015
-0.022149505 0.020135913 0.031262636
-0.021174911 0.020166581 0.030698329
-0.020288365 0.020288365 0.029688984
-0.019306336 0.020322457 0.027247518
0.0031034141 0.020689426 0.018515766
0.0040890779 0.020445388 0.021402359
0.0051309941 0.020523977 0.025479555
0.0060579712 0.020193238 0.025779933
0.007046035 0.020131528 0.028860599
0.0081647541 0.020411886 0.029788047
0.0089201983 0.019822663 0.030885965
0.010043466 0.020086931 0.031222135
0.011041062 0.020074658 0.031674832
0.011920483 0.019867472 0.031243771
0.012948459 0.019920707 0.029740572
-0.026478464 0.021386452 0.030766338
-0.024946 0.020954641 0.031689286
-0.024067046 0.021058667 0.031920522
-0.023105372 0.021096209 0.031863689
-0.022055726 0.021053195 0.031573594
-0.021132626 0.021132626 0.030427814
-0.020048598 0.021051029 0.029276997
-0.019218355 0.021241341 0.026860386
0.0051379497 0.02157939 0.024283051
0.0060791154 0.021276904 0.025779933
0.0070268088 0.021080427 0.028834313
0.0081042936 0.021273771 0.029236376
0.0089864498 0.020968383 0.030455619
0.0099460036 0.020886609 0.032260537
0.010948593 0.020901859 0.032467216
0.012010989 0.021019232 0.031339258
0.013017222 0.02102782 0.02994442
-0.025753032 0.021791028 0.030875802
-0.025030781 0.022027086 0.031731874
-0.023907764 0.021915451 0.031967938
-0.023126053 0.022120571 0.032281935
-0.022070166 0.022070166 0.032235652
-0.020968925 0.021967445 0.031095266
-0.020167533 0.022184288 0.02994445
-0.019360224 0.022417102 0.027301222
0.0060549243 0.022201389 0.027109206
0.0070458958 0.022144243 0.028665125
0.0080749635 0.02220615 0.030210167
0.009024689 0.022060351 0.033176869
0.0099178916 0.021819361 0.033427447
0.010915662 0.021831324 0.03331095
0.012013032 0.022023892 0.031497568
0.01306769 0.022114551 0.030504525
-0.026125342 0.02311088 0.031328171
-0.025028804 0.0230265 0.033061147
-0.023844631 0.022851106 0.033228815
-0.022941107 0.022941107 0.033090502
-0.02185981 0.022853438 0.032281935
-0.021189403 0.023207441 0.031313032
-0.020109994 0.023126494 0.030111223
-0.01906291 0.023076154 0.028030723
0.0060697799 0.023267491 0.02716887
0.0071083908 0.023356142 0.028781712
0.0080952561 0.023273863 0.031286269
0.0088508874 0.022618936 0.034214944
0.009990138 0.022977319 0.0334346
0.010934884 0.022863848 0.033341199
0.011956587 0.022916792 0.032270789
0.013016821 0.02302976 0.031731814
-0.027005337 0.024004743 0.030449122
-0.026183123 0.024169037 0.032773942
-0.024850504 0.023856483 0.033005953
-0.024096334 0.024096334 0.03320241
-0.023050964 0.024053179 0.033287197
-0.022144085 0.024157185 0.034225971
-0.020988461 0.023986813 0.032088459
-0.020265114 0.024318136 0.030656934
-0.019169863 0.024214564 0.029051602
0.0059852712 0.023941085 0.028009504
0.0071307812 0.024448391 0.029794812
0.0079640877 0.023892261 0.033166796
0.0089065488 0.023750797 0.034333378
0.0099497344 0.023879362 0.033512354
0.010775335 0.023509821 0.033427447
0.012008864 0.024017727 0.032570273
0.013044178 0.02408156 0.031469941
-0.026022829 0.025021952 0.033003688
-0.025028946 0.025028946 0.033164173
-0.023948336 0.024946183 0.033287197
-0.02301532 0.025016652 0.034577847
-0.022056498 0.025064202 0.035140872
-0.02084616 0.024816858 0.03252843
-0.019811032 0.024763793 0.031610221
-0.019110352 0.025145201 0.030304492
0.0060964436 0.025401851 0.028057367
0.007971148 0.024909837 0.034262806
0.0089648766 0.024902435 0.035115391
0.0098965056 0.024741266 0.034272343
0.010981136 0.02495713 0.033548564
0.011967616 0.024932534 0.032673448
0.012990793 0.024982296 0.031469941
-0.025852952 0.025852952 0.033090502
-0.025021952 0.026022829 0.033287197
-0.023857085 0.025845176 0.033472419
-0.023050802 0.026057426 0.034679621
-0.021835135 0.02580516 0.035366714
-0.020895177 0.025870219 0.034105629
-0.019959826 0.025947774 0.033680469
-0.019101553 0.026138965 0.032862425
0.0069352197 0.025759388 0.034236401
0.0079849707 0.025951156 0.035141796
0.0090674767 0.026194934 0.03590095
0.0098876366 0.025707856 0.034547329
0.010877698 0.025710922 0.034043461
0.011954039 0.02590042 0.033066988
-0.026178604 0.027185474 0.033003688
-0.024822023 0.026807783 0.033322632
-0.023934785 0.026926633 0.034376472
-0.022935256 0.026923995 0.035255104
-0.02177809 0.026727658 0.035255104
-0.020813916 0.02676075 0.035255104
-0.020024596 0.027033206 0.035061121
-0.018834004 0.026764112 0.03313902
-0.018327229 0.027490845 0.032083601
0.0060554189 0.027249387 0.034262806
0.006902568 0.026624192 0.034943849
0.0079374276 0.02678882 0.035948813
0.0088628987 0.026588697 0.036799371
0.0099419598 0.026843293 0.035360903
0.010825733 0.026572254 0.034543484
0.011938207 0.026860965 0.033519506
-0.026005277 0.028005684 0.031503528
-0.02525186 0.028282084 0.033116907
-0.02377478 0.027737243 0.034735829
-0.022913188 0.027894314 0.035453171
-0.021766359 0.027702639 0.035098791
-0.020883076 0.027844101 0.035255104
-0.019981083 0.027973518 0.035831511
-0.018853879 0.027784662 0.034360766
-0.017967528 0.02794949 0.032726049
0.0049801082 0.027888607 0.03468129
0.0058784918 0.027432961 0.035948813
0.0069226734 0.027690694 0.03717804
0.0079380162 0.027783057 0.037238866
0.0088591939 0.027561938 0.037204474
0.0099360039 0.027820813 0.035776258
0.010789103 0.027463172 0.035199404
0.011890201 0.027743803 0.034781754
-0.025007647 0.029008871 0.032557487
-0.023617599 0.028537933 0.034094274
-0.023011083 0.029013975 0.035285175
-0.021827975 0.028773241 0.034898341
-0.020832198 0.028768273 0.036134303
-0.019910736 0.02887057 0.036021292
-0.018753592 0.028623903 0.03578344
-0.017785003 0.028653618 0.035280049
-0.01697024 0.028949233 0.035182685
0.0049029076 0.028436866 0.036916167
0.0058989767 0.028511724 0.036930412
0.0069027189 0.028596979 0.03778103
0.0079575265 0.028846035 0.03784585
0.0089019481 0.028684057 0.037520051
0.0098418323 0.028541315 0.036168516
0.010888838 0.028706938 0.035643607
0.011912169 0.028787743 0.034781754
-0.024026992 0.030033739 0.032587349
-0.022902163 0.029872384 0.034759581
-0.021898784 0.029861977 0.034847647
-0.020823287 0.029747551 0.035210848
-0.019996973 0.029995462 0.035613686
-0.018618604 0.029397797 0.036403477
-0.017803615 0.029672692 0.036180943
-0.016760582 0.029577497 0.03612119
-0.015708234 0.029452939 0.035169512
0.0039017741 0.029263305 0.037636787
0.0049755769 0.029853463 0.037198782
0.0058610518 0.029305259 0.037198782
0.0069214548 0.029663378 0.037032783
0.0078690136 0.029508799 0.037324846
0.0088806208 0.029602071 0.037169665
0.009936071 0.029808214 0.035907507
0.010815972 0.029498106 0.035808176
0.011899777 0.029749442 0.03436783
-0.023026263 0.031035399 0.032865286
-0.021869272 0.030815795 0.034708887
-0.020755606 0.030639227 0.034997582
-0.019741824 0.030599829 0.03556177
-0.018670466 0.03046234 0.036693066
-0.017816646 0.030684227 0.036981493
-0.016703719 0.030459724 0.036884129
-0.015637228 0.030297128 0.036470532
-0.014616659 0.030207762 0.037559211
-0.013765076 0.030479811 0.036483943
0.0019384315 0.03004569 0.038131565
0.0029139852 0.030111181 0.038615525
0.0039552595 0.030653263 0.038615525
0.0048861867 0.030294359 0.038328469
0.0059113675 0.030542066 0.037811697
0.0069333338 0.030704767 0.037198782
0.00785877 0.030452736 0.036877781
0.0088570584 0.030507648 0.03668949
0.0098649058 0.030581212 0.035907507
0.010796543 0.030426623 0.035479575
0.011994505 0.030985808 0.032950699
-0.020724786 0.031580627 0.034168422
-0.019884877 0.031815805 0.035288006
-0.018741801 0.031565137 0.036693066
-0.017861258 0.03175335 0.037492484
-0.016647806 0.031337049 0.037739784
-0.015863502 0.031727005 0.037390441
-0.014772331 0.031514306 0.037390441
-0.01381256 0.031571567 0.036838233
-0.012647751 0.031132925 0.037172794
-0.011835416 0.03156111 0.03670752
0.00097651128 0.031248361 0.039479643
0.0019622429 0.031395886 0.039112657
0.002937119 0.03132927 0.038934618
0.0039170464 0.031336371 0.038618624
0.0049229125 0.031506643 0.038511157
0.0059138569 0.031540573 0.037775427
0.0068217982 0.031185362 0.037216365
0.0079461988 0.031784795 0.036604255
0.0088750152 0.031555612 0.036353499
0.009821659 0.031429309 0.035399497
0.010888669 0.031676129 0.033908248
-0.0197255 0.032547075 0.034070879
-0.018846441 0.032733291 0.03540954
-0.017857661 0.032739047 0.036188483
-0.016874624 0.032756623 0.036766678
-0.015646568 0.032271046 0.037662446
-0.014839495 0.032646887 0.038064212
-0.013729854 0.032363228 0.037622362
-0.012823649 0.032552339 0.037828237
-0.011811892 0.032482702 0.037541837
-0.010710734 0.032132205 0.036843956
-0.0098038828 0.032352813 0.037257969
-0.0087409038 0.03204998 0.037638873
-0.007787114 0.032121845 0.037650466
-0.0068161683 0.032133367 0.038143188
-0.0058598011 0.032228906 0.038795978
-0.0048502171 0.032011434 0.0392524
-0.0039225752 0.032361247 0.039183199
-0.0029192076 0.032111283 0.039260864
-0.0019431303 0.032061648 0.03942436
-0.00097485568 0.032170236 0.040237337
0 0.032162316 0.039998949
0.00097430876 0.032152187 0.040563554
0.0019793482 0.032659244 0.03905502
0.0029126448 0.032039091 0.039402366
0.0039218464 0.03235523 0.038740128
0.0049106781 0.032410476 0.038477808
0.005884592 0.032365255 0.037689447
0.0068387105 0.032239635 0.036848307
0.0078925882 0.032556925 0.03634724
0.0088797873 0.03255922 0.034987867
0.009907159 0.032693624 0.033700794
-0.017651839 0.033342365 0.035485983
-0.01673181 0.03346362 0.036265522
-0.01583953 0.033659004 0.037295252
-0.014677038 0.033267956 0.037362397
-0.013808611 0.033535197 0.037828237
-0.012817827 0.033523548 0.038027346
-0.011792676 0.033412583 0.039329767
-0.010855485 0.033553317 0.038965374
-0.0096694389 0.032876093 0.039317548
-0.008806874 0.033270415 0.039083332
-0.0078719957 0.033455983 0.039111674
-0.0068028453 0.033042394 0.038955182
-0.0058746212 0.033289518 0.038837194
-0.0049041896 0.033348493 0.039752156
-0.0038809339 0.032987937 0.039479792
-0.0029251627 0.033151843 0.039741665
-0.0019822177 0.033697698 0.039807379
-0.00097726565 0.03322703 0.040603697
0 0.033506006 0.039807379
0.00097605045 0.033185717 0.040203601
0.0019528118 0.033197802 0.038699239
0.002939926 0.033319164 0.038928568
0.003901833 0.033165578 0.038476199
0.0049166437 0.03343318 0.037710488
0.0058943038 0.033401057 0.037018389
0.0069151064 0.033587661 0.036194146
0.0078647062 0.033425003 0.034719706
0.008911835 0.033666935 0.033145308
-0.016832439 0.034655023 0.03538835
-0.015706984 0.03435903 0.035905331
-0.01466753 0.034224235 0.036820382
-0.013704523 0.034261305 0.037868828
-0.012658027 0.034079302 0.038403332
-0.011835328 0.034519706 0.038989961
-0.010745628 0.034190632 0.039310545
-0.0097329523 0.034065332 0.039310545
-0.0088645648 0.034473307 0.039764553
-0.0078494204 0.034341212 0.039608836
-0.0068579335 0.034289666 0.039752156
-0.0059090769 0.034469616 0.039037675
-0.0048937257 0.034256082 0.039780527
-0.003913146 0.034240026 0.039785177
-0.0029340123 0.034230143 0.040020496
-0.0019610194 0.034317836 0.040020496
-0.00097341189 0.034069415 0.040269315
0 0.034377795 0.039807379
0.00097073917 0.033975869 0.040073097
0.0019534873 0.034186028 0.038448572
0.0029622572 0.034559667 0.037929684
0.0038669836 0.033836104 0.03745243
0.0048903851 0.034232698 0.035487622
0.0059309425 0.034597166 0.035059065
-0.015832664 0.035623495 0.034914166
-0.014901897 0.035764549 0.034811288
-0.013576601 0.03491126 0.036643237
-0.012908537 0.035746716 0.037974
-0.011691407 0.035074223 0.038886726
-0.010796686 0.035334606 0.039046556
-0.0097982017 0.035273526 0.03912726
-0.0088418499 0.035367399 0.039871067
-0.0078462362 0.035308063 0.039939672
-0.0067837415 0.034887813 0.039555967
-0.0058917459 0.035350472 0.039396316
-0.0048707873 0.035069667 0.039787263
-0.003917872 0.035260845 0.039483607
-0.0029240751 0.0350889 0.039713591
-0.0019723694 0.035502646 0.039396316
-0.00097842037 0.035223134 0.038789392
0 0.034949955 0.037479013
0.00098667957 0.035520464 0.037475765
0.0019778349 0.035601027 0.036696404
-0.013764676 0.036378074 0.035984129
-0.012761252 0.036320489 0.037934005
-0.011719353 0.036134675 0.03892386
-0.010765538 0.036211353 0.038948596
-0.0097541055 0.036090191 0.039248884
-0.0088147214 0.036238302 0.039871067
-0.007864859 0.036374971 0.03959927
-0.006823428 0.036066692 0.039499044
-0.0058543519 0.036101837 0.039301604
-0.0048924531 0.036204156 0.039416879
-0.0039101858 0.03616922 0.03897965
-0.002917767 0.035985794 0.039270043
-0.0019713161 0.036469348 0.038022012
-0.00097759184 0.0361709 0.036635995
-0.011760321 0.037241016 0.037750661
-0.010783063 0.037250582 0.037750661
-0.0097706513 0.037128478 0.038765311
-0.0088498155 0.037365887 0.038793623
-0.0079339184 0.037686113 0.039074749
-0.0068664527 0.037275027 0.039016098
-0.0058908663 0.03730882 0.038459092
-0.0048970827 0.037217829 0.038228571
-0.003931615 0.037350342 0.036908895
-0.0029553305 0.037434191 0.036479145
-0.011719666 0.038088914 0.036459893
-0.010733782 0.038056139 0.036917299
-0.0097422376 0.037994727 0.037277073
-0.0088711865 0.038441811 0.037837207
-0.0078271804 0.038157504 0.037837207
-0.0068843546 0.038355689 0.038139522
-0.0058756261 0.038191572 0.038114339
-0.0049347524 0.03849107 0.037139416
-0.0098375101 0.03935004 0.036082447
-0.0088624684 0.039388746 0.036418498
-0.007919413 0.039597064 0.036907196
-0.0068847956 0.039341688 0.035526127
0 0 0 1 0 0 0 1 0 0 0 1 0 0 0 0 0 869 1 0 0
