ply
format ascii 1.0
comment PCL generated
element vertex 628
property float x
property float y
property float z
element camera 1
property float view_px
property float view_py
property float view_pz
property float x_axisx
property float x_axisy
property float x_axisz
property float y_axisx
property float y_axisy
property float y_axisz
property float z_axisx
property float z_axisy
property float z_axisz
property float focal
property float scalex
property float scaley
property float centerx
property float centery
property int viewportx
property int viewporty
property float k1
property float k2
end_header
-0.0071351919 0.089699551 0.018019497
-0.0061371946 0.090012185 0.018682748
-0.0051287878 0.09026666 0.018434197
-0.010168957 0.090503708 0.019204557
-0.0092361243 0.091335006 0.021380812
-0.0082345838 0.091609746 0.020602405
-0.0071322643 0.090681642 0.020383835
-0.0061796661 0.091665044 0.02096349
-0.0051412606 0.091514438 0.020647049
-0.0040686 0.090526342 0.018969357
-0.0030820465 0.091434047 0.018332809
-0.012115453 0.09086591 0.020929605
-0.011186397 0.09152507 0.021709442
-0.010085638 0.090770744 0.022259861
-0.0091803577 0.091803588 0.022713035
-0.0081383679 0.091556638 0.022634298
-0.0070943255 0.091212757 0.022406816
-0.0061506797 0.092260197 0.022467017
-0.0050915307 0.091647558 0.021891832
-0.0040895143 0.092014067 0.02151379
-0.0030607746 0.091823243 0.020546615
-0.0020304339 0.091369525 0.0198569
-0.0010140957 0.091268621 0.019804478
-0.014364507 0.093369298 0.021588355
-0.013181942 0.092273593 0.02277723
-0.012098957 0.091750428 0.022797018
-0.0110882 0.091729656 0.022797018
-0.010209196 0.092903696 0.023362339
-0.0090860799 0.091870368 0.023331732
-0.0081863031 0.093119204 0.023444444
-0.0071104853 0.092436314 0.022880256
-0.0060389345 0.091590509 0.023332268
-0.0051003853 0.092827015 0.023076773
-0.0040528309 0.092201911 0.022938222
-0.0030241688 0.09173312 0.022652298
-0.0020415895 0.092892326 0.023528069
-0.0010162852 0.092481956 0.02235043
0 0.092904255 0.023736268
0.0010145609 0.092325047 0.02161181
-0.015246363 0.09351103 0.022567183
-0.014131389 0.092863411 0.023336977
-0.013018817 0.092133164 0.023699313
-0.01210522 0.092806697 0.024920702
-0.011205678 0.09372022 0.023957103
-0.010140684 0.093294293 0.024111748
-0.009146913 0.093501776 0.023850679
-0.0081799552 0.094069488 0.023965925
-0.007109534 0.093439594 0.023694396
-0.0061001824 0.093536139 0.023748726
-0.0050973175 0.09379065 0.023046345
-0.0040309019 0.092710741 0.023114413
-0.0030391046 0.093199216 0.022939146
-0.0020278825 0.093282603 0.023883253
-0.001010682 0.092982739 0.023282588
0 0.093043163 0.023606241
0.0010140097 0.093288898 0.023998648
0.0020085105 0.092391483 0.021956921
-0.017163577 0.093894862 0.023255318
-0.016259033 0.09450563 0.022781819
-0.015230889 0.094431512 0.023669809
-0.01408625 0.093572952 0.023667216
-0.012998562 0.092989713 0.024029553
-0.012220404 0.094708137 0.025146842
-0.011088513 0.093748339 0.025030494
-0.010170748 0.094587959 0.024564922
-0.0091686174 0.09474238 0.024288774
-0.008081411 0.093946405 0.024343103
-0.0071089608 0.09444762 0.023829073
-0.0060907789 0.094407074 0.023694396
-0.0050817532 0.094520621 0.022705734
-0.0040557715 0.094296694 0.023231149
-0.003026569 0.093823642 0.023000926
-0.002010972 0.093510203 0.024046272
-0.0010059702 0.093555219 0.024265796
0 0.093665965 0.024820387
0.0010102463 0.093952909 0.024998307
0.0020292643 0.094360799 0.025009453
0.0030589958 0.094828874 0.023810446
0.0039951955 0.092888288 0.022079915
-0.019278541 0.095378049 0.020913571
-0.018397171 0.096074127 0.024133772
-0.017187359 0.095035978 0.024330676
-0.016214928 0.095262699 0.024065226
-0.015197548 0.09523797 0.024552792
-0.014066828 0.094448708 0.025181204
-0.013211183 0.095527023 0.024065226
-0.012047743 0.094373994 0.024924725
-0.011180934 0.095546164 0.023167133
-0.010115864 0.095089123 0.023177922
-0.0090321517 0.094335809 0.023177922
-0.0080983015 0.095155045 0.023679703
-0.0071071004 0.095438205 0.023137629
-0.0060286471 0.094448805 0.02332899
-0.00507419 0.095394775 0.022391766
-0.0040658712 0.095547967 0.022626072
-0.0030248926 0.094779976 0.022787631
-0.0020347885 0.095635056 0.023952395
-0.0010117643 0.095105842 0.024207503
0 0.095161922 0.024878681
0.0010060065 0.094564609 0.025324583
0.0020013107 0.094061606 0.025328755
0.0030763552 0.09639246 0.025083542
0.0040271711 0.094638519 0.02372995
0.005075674 0.095422678 0.022766888
0.0060428916 0.094671972 0.022403806
-0.021256106 0.096158572 0.020934731
-0.020462049 0.097194731 0.021335453
-0.019256523 0.096282616 0.024481416
-0.018109526 0.095578052 0.024508685
-0.017228145 0.096274927 0.024802506
-0.015977286 0.094865136 0.024431378
-0.015205069 0.096298762 0.02463457
-0.014367758 0.097495504 0.024606526
-0.013066593 0.095486633 0.023775071
-0.01209794 0.095775358 0.02440843
-0.011213826 0.096846677 0.022984922
-0.010110211 0.096046999 0.022835165
-0.0092635769 0.097782202 0.022061169
-0.0082527362 0.098001242 0.022377968
-0.0072019491 0.09774074 0.021369398
-0.0061284914 0.097034447 0.021854907
-0.0051843594 0.098502837 0.021249682
-0.0040937332 0.097226165 0.022625178
-0.0030757026 0.097397253 0.023158044
-0.0020271249 0.096288428 0.023483396
-0.0010128003 0.096216023 0.02445668
0 0.096188121 0.024702936
0.0010097745 0.09592858 0.024878681
0.0020334134 0.096587136 0.02511853
0.0030329896 0.096044667 0.02452606
0.0040505463 0.096200474 0.024385959
0.0049841511 0.094698876 0.024799347
0.0061060688 0.096679419 0.02592513
0.0070499796 0.095678292 0.023067474
-0.023574524 0.098398007 0.019414693
-0.022450933 0.097967707 0.021582067
-0.021378437 0.097729988 0.023331851
-0.020166257 0.09679804 0.023822904
-0.019253554 0.097281113 0.024166107
-0.01821021 0.097121127 0.024543911
-0.01716204 0.096915044 0.024393171
-0.016047908 0.096287452 0.024266303
-0.015289818 0.09785483 0.023644447
-0.014075102 0.096514985 0.023047209
-0.013142427 0.097051769 0.022232294
-0.012367063 0.098936506 0.021469474
-0.011252487 0.098203525 0.021658719
-0.010201123 0.097930782 0.021369398
-0.009177791 0.097896442 0.021354556
-0.0081603434 0.097924121 0.021254063
-0.0071385424 0.097900003 0.020705134
-0.0061083138 0.097733021 0.020347893
-0.0051259999 0.098419197 0.020347893
-0.0041092094 0.098621018 0.020949841
-0.0030456849 0.097461917 0.020890564
-0.0020532545 0.098556213 0.02171576
-0.001036123 0.099467807 0.02225247
0 0.097988173 0.022340506
0.0010134736 0.097293459 0.023235172
0.0020047543 0.096228197 0.024050951
0.0030355463 0.097137481 0.024151891
0.0040216986 0.096520759 0.024987519
0.0050498149 0.096956447 0.026086479
0.0060033784 0.096054055 0.027212262
0.0070323064 0.096443057 0.02741003
0.0081143416 0.0973721 0.025298774
0.0090657566 0.096701406 0.024671674
-0.024424532 0.098715819 0.019085377
-0.023438659 0.098849989 0.022152007
-0.022365274 0.098610528 0.022705317
-0.021166196 0.097767659 0.024759263
-0.020240027 0.098164134 0.024504662
-0.019427059 0.099180244 0.025081336
-0.018253135 0.098364115 0.024623066
-0.017135166 0.097771235 0.024407119
-0.016225418 0.098366596 0.024040967
-0.015117674 0.09776096 0.022788733
-0.014268571 0.098860808 0.02244547
-0.013144186 0.098075844 0.021572798
-0.012121194 0.09797965 0.02097258
-0.011151597 0.098336808 0.020257115
-0.010252185 0.099446192 0.020483702
-0.0091363071 0.098469086 0.019716203
-0.0082855653 0.10046247 0.018263668
-0.0072551672 0.10053589 0.017623752
-0.0061986889 0.10021213 0.017623752
-0.0052267737 0.10139941 0.01901269
-0.0041447915 0.10051119 0.019435883
-0.0030992359 0.10020863 0.019486874
-0.0020417739 0.099026024 0.02076447
-0.0010172812 0.098676272 0.021207601
0 0.099377826 0.022443205
0.0010271181 0.099630445 0.022371531
0.0020235225 0.098140836 0.022710949
0.0030261728 0.097846247 0.024141073
0.0040260442 0.097631566 0.024424165
0.0050119781 0.097232379 0.026272684
0.00607746 0.098252267 0.027754992
0.0070411582 0.09757033 0.02794233
0.0080457339 0.09755452 0.027233899
0.0092264172 0.099440269 0.026341587
0.010185835 0.098802604 0.024802864
-0.024596419 0.10043538 0.02106145
-0.023408901 0.099742264 0.022349507
-0.022054505 0.09824279 0.02397126
-0.021288201 0.099344939 0.024785936
-0.020280471 0.099374309 0.025318056
-0.019256292 0.099321924 0.025619686
-0.018079711 0.098433986 0.02471149
-0.017224919 0.099296592 0.024385959
-0.016094903 0.098581277 0.0238204
-0.015232393 0.099518292 0.023432821
-0.014206512 0.099445581 0.021698713
-0.013124323 0.098937206 0.020417541
-0.012283303 0.10031364 0.020141125
-0.011353583 0.1011501 0.018851221
-0.010152155 0.099491119 0.017307431
-0.0092903906 0.10116203 0.016252041
-0.0082372213 0.10090596 0.016262263
-0.0071361773 0.099906482 0.014302045
-0.0061269067 0.10007281 0.014416516
-0.0051142117 0.10023855 0.014416516
-0.0040675523 0.099655032 0.016332835
-0.0030688497 0.10024908 0.015743196
-0.0020699746 0.10142875 0.018025607
-0.00103778 0.10170243 0.019087195
0 0.10018789 0.020308346
0.001016637 0.099630423 0.021331251
0.0020317163 0.099554092 0.021870315
0.0030549916 0.099796392 0.02260676
0.0039964868 0.097913928 0.024424165
0.0050777914 0.099524714 0.026096791
0.0060792957 0.099295162 0.026947826
0.0070126541 0.098177157 0.027666241
0.0080576884 0.098706678 0.027409822
0.0090292748 0.098318763 0.027297735
0.010114263 0.099119775 0.025883377
0.011274133 0.10044227 0.022632301
-0.025323618 0.10028153 0.019120544
-0.024681466 0.10181105 0.021886379
-0.023266232 0.10014596 0.02397126
-0.022059947 0.09926977 0.024915606
-0.02118526 0.099873379 0.02588588
-0.020237988 0.10017805 0.026191473
-0.019088991 0.099463686 0.026669621
-0.018144812 0.099796474 0.025359184
-0.017112393 0.099654526 0.024665952
-0.016320266 0.10098165 0.023248523
-0.015376173 0.10148275 0.02147761
-0.014267018 0.10088821 0.020522654
-0.013285914 0.10117734 0.019269168
-0.012195244 0.10061077 0.018623084
-0.011186238 0.10067616 0.015422851
-0.010316092 0.10212931 0.015123725
-0.00205954 0.10194723 0.015280217
-0.0010143305 0.10041873 0.016839027
0 0.10121009 0.019204319
0.0010358755 0.10255168 0.020065129
0.002034799 0.10072255 0.021331251
0.0030574803 0.10089686 0.021995306
0.004066613 0.10064868 0.023842275
0.0050192117 0.099380396 0.02589643
0.0060185976 0.099306867 0.026987702
0.0070272279 0.09938509 0.02755481
0.0080790529 0.099978283 0.027427107
0.008961725 0.09857899 0.027377576
0.010114314 0.10013171 0.026761293
0.0110808 0.099727206 0.024514109
-0.025530268 0.10212107 0.019472659
-0.024454467 0.10189361 0.022479773
-0.023248577 0.10108078 0.025021046
-0.022212114 0.10096416 0.025332063
-0.021102173 0.10048654 0.026303113
-0.020113904 0.10056952 0.026387841
-0.019086819 0.10045695 0.025666535
-0.018105488 0.10058605 0.025163412
-0.017365644 0.10215085 0.024282545
-0.016254926 0.10159329 0.023072511
-0.015287377 0.10191585 0.021438986
-0.014334822 0.10239159 0.020171314
-0.013299664 0.10230511 0.019075423
0 0.10387623 0.014703959
0.0010156889 0.10156889 0.018297225
0.0020501709 0.10250855 0.020111144
0.0030776956 0.10258985 0.021548331
0.0041075321 0.10268831 0.022785425
0.0050411164 0.10082234 0.025041491
0.0060118809 0.10019802 0.026667804
0.0070591355 0.10084479 0.027377993
0.0080525596 0.100657 0.027485132
0.0090592084 0.10065788 0.02680099
0.01007587 0.10075871 0.026297688
0.011090579 0.10082345 0.025681406
0.012206558 0.10172132 0.022503912
-0.025509344 0.10305775 0.020032763
-0.024415992 0.10275064 0.023691952
-0.023245748 0.10207915 0.025147438
-0.022178248 0.10181832 0.026375651
-0.021148017 0.10171189 0.026989669
-0.020072527 0.10136627 0.027028322
-0.019232662 0.10223678 0.026980311
-0.018369108 0.10307111 0.025261581
-0.017409632 0.1034337 0.023786604
-0.016061023 0.10138521 0.021585077
-0.015335077 0.10325619 0.020624578
-0.014379306 0.10373642 0.019193381
0.0020373727 0.10288732 0.016483873
0.0031047869 0.10452782 0.018846363
0.0040466986 0.10217913 0.021566778
0.005108783 0.10319742 0.024793386
0.0060668532 0.10212536 0.026106089
0.0069837971 0.10076621 0.026749998
0.0080232155 0.1012931 0.027839541
0.0090097087 0.10110896 0.027203798
0.010012593 0.1011272 0.02680099
0.011073632 0.10167608 0.026367486
0.012205028 0.10272565 0.024816632
-0.025296628 0.10321024 0.020328194
-0.024162248 0.10268956 0.023960948
-0.023253651 0.10312489 0.025605619
-0.022008013 0.10203715 0.026299924
-0.021166429 0.10280837 0.026949465
-0.020224659 0.10314576 0.026930809
-0.019236928 0.10327193 0.02667737
-0.018231746 0.10331323 0.025036633
-0.017246729 0.10348038 0.023305029
-0.016242286 0.10354457 0.02062127
-0.015458805 0.10511987 0.019468307
0.0030212249 0.10272165 0.017903417
0.0041258205 0.10520842 0.020127475
0.0050510895 0.10304223 0.024274379
0.0060334634 0.10256888 0.025441915
0.0070056897 0.10208291 0.026557028
0.0080434848 0.10255443 0.027188569
0.0090479376 0.10254329 0.027368665
0.010036755 0.1023749 0.027473897
0.011029355 0.10227221 0.026534319
0.012076571 0.10265085 0.025977224
-0.02530653 0.1042629 0.022409916
-0.024183147 0.10378601 0.02416414
-0.022959022 0.10281648 0.025803953
-0.022067469 0.10331588 0.026160061
-0.021003891 0.10301908 0.026677758
-0.020121703 0.10362677 0.027044237
-0.019347554 0.1048841 0.026707411
-0.018287705 0.10464632 0.025048465
-0.017117025 0.10370904 0.023301035
-0.016353382 0.10527489 0.019468307
0.0041257031 0.10623685 0.019354016
0.0050430358 0.10388654 0.023984224
0.0061368244 0.10534882 0.025245905
0.0070295846 0.10343532 0.026598066
0.0079966178 0.10295645 0.027267903
0.0090265628 0.103304 0.027670652
0.0099752368 0.10274494 0.027579129
0.010922088 0.10227046 0.026826203
0.012026822 0.10323022 0.025977224
-0.025272103 0.10513195 0.023278266
-0.023996036 0.10398283 0.025182962
-0.023067117 0.10430349 0.026033431
-0.022098213 0.10446428 0.02570039
-0.020902079 0.10351505 0.026376247
-0.020139009 0.10472285 0.026511759
-0.01916784 0.1049187 0.025464922
-0.018125948 0.1047277 0.024468392
-0.017129723 0.10479359 0.023000121
0.0050804014 0.10567234 0.022555232
0.0060700858 0.10521483 0.025032759
0.0069988901 0.10398351 0.026598066
0.0080314223 0.10440849 0.027017325
0.008987641 0.10385719 0.027663767
0.01005061 0.10452634 0.027579129
0.011037471 0.10435427 0.027373552
0.012102359 0.10488711 0.026504636
-0.025203731 0.10585567 0.023464411
-0.02433469 0.10646427 0.025709867
-0.023235906 0.10607696 0.026362091
-0.022150824 0.10571984 0.025992364
-0.021160224 0.10580112 0.02602765
-0.020160893 0.10584469 0.026376247
-0.019315103 0.10674136 0.026196182
-0.0182411 0.10640642 0.024018317
-0.017443845 0.10774139 0.021077991
0.0051327311 0.10778736 0.019724876
0.0060281632 0.10549286 0.02401638
0.0071403263 0.10710489 0.026998252
0.0080024572 0.10503225 0.027275383
0.0089598624 0.10453174 0.028841615
0.010095175 0.10599934 0.02878058
0.010969119 0.10470523 0.027523071
0.01207516 0.10565765 0.025438637
-0.025155894 0.10666099 0.024615914
-0.023996346 0.10598386 0.026221514
-0.023158014 0.10672823 0.027183861
-0.022179939 0.10686698 0.027306378
-0.02109159 0.10646231 0.026680112
-0.020274486 0.10745478 0.026376247
-0.019421807 0.10835323 0.025644481
-0.0182267 0.10733502 0.02286759
0.0060888059 0.1075689 0.022764295
0.007100862 0.10752733 0.026805937
0.0079918699 0.10589227 0.027175039
0.0090376073 0.10644294 0.028841615
0.010001751 0.10601855 0.02878058
0.010893014 0.10496905 0.02686125
0.012083985 0.10674187 0.025438637
-0.025268205 0.10814792 0.025287032
-0.024042172 0.10718802 0.027056634
-0.023320872 0.10849275 0.028021932
-0.021872442 0.10637961 0.027828872
-0.020900618 0.10649363 0.027202606
-0.020204257 0.10809278 0.026898742
-0.019083306 0.10746914 0.024789155
-0.01826624 0.10858266 0.02332437
0.0061747842 0.110117 0.021675467
0.0070329611 0.10750384 0.026741177
0.0080000972 0.1070013 0.027266234
0.0089880023 0.10685737 0.028919846
0.0099696275 0.10667503 0.028954893
0.010959443 0.1066055 0.027632684
0.012102625 0.10791509 0.02578336
-0.025102593 0.10844321 0.027166635
-0.024127305 0.10857288 0.027963936
-0.023102175 0.10847978 0.02930671
-0.021975175 0.10787813 0.029247761
-0.02102584 0.10813289 0.028173685
-0.020326868 0.1097651 0.028078377
-0.019121656 0.10869151 0.024912834
-0.01825482 0.10952892 0.023375958
0.0060670855 0.10920755 0.021714419
0.0071352688 0.11008701 0.024211138
0.0079715457 0.10761587 0.02890566
0.0089092795 0.10691136 0.029344231
0.010077558 0.10883763 0.029729515
0.010975239 0.10775689 0.028942198
0.012071749 0.10864574 0.025854051
-0.024966417 0.10885358 0.027669936
-0.023950022 0.10877302 0.02837345
-0.0229147 0.10859576 0.029795796
-0.022100922 0.10950003 0.02992177
-0.020853428 0.10823923 0.02945435
-0.020138953 0.1097573 0.028493434
-0.019481437 0.11176193 0.027171582
-0.017999986 0.10899992 0.023375958
0.006102785 0.11086727 0.020895004
0.0071192347 0.11085666 0.024465322
0.0079232221 0.10795391 0.029000968
0.0090010567 0.1090128 0.030151457
0.0099982694 0.10898114 0.030552387
0.010967666 0.10867961 0.029420137
0.012090947 0.10982611 0.026103944
-0.025129579 0.11057014 0.027072996
-0.023986951 0.10994019 0.028504282
-0.023001425 0.11000682 0.02933076
-0.021884108 0.10942055 0.030005664
-0.020746477 0.10867202 0.030000895
-0.020254184 0.11139801 0.029496372
-0.018893261 0.10938203 0.027352154
-0.017931458 0.10958114 0.023510009
0.0061020767 0.11187141 0.021711022
0.007089193 0.11140161 0.025188416
0.0079680281 0.10956039 0.029842496
0.0089355512 0.1092123 0.030309916
0.0099008065 0.10890888 0.030545503
0.011010471 0.11010472 0.029420137
0.012046588 0.11042706 0.026649863
-0.024896516 0.11054052 0.027981102
-0.024008218 0.11103801 0.028925687
-0.022793764 0.11000469 0.030546129
-0.021919161 0.11059213 0.031256139
-0.021074545 0.11139403 0.03122738
-0.019825717 0.11003274 0.030596077
-0.019125393 0.11173255 0.029913604
-0.018306695 0.11289129 0.025632799
0.0060403538 0.11174655 0.021749973
0.0071504437 0.1133856 0.028577656
0.007945531 0.11024424 0.031160891
0.0089076189 0.10986064 0.031348109
0.0099391006 0.11032402 0.031519264
0.010895518 0.10994568 0.029274285
0.011998694 0.11098793 0.027770042
-0.025076829 0.11234419 0.027913928
-0.023883011 0.11145405 0.028783053
-0.022868073 0.11135757 0.03029263
-0.02194244 0.11170697 0.031122476
-0.020867616 0.11129395 0.031279802
-0.01978947 0.11082104 0.031072646
-0.019203326 0.11319855 0.031209826
-0.018002391 0.11201488 0.025632799
0.0059864279 0.11174665 0.026732802
0.0070611644 0.11297863 0.029991865
0.0079032946 0.11064612 0.031758964
0.0088780876 0.11048288 0.03289327
0.0099444194 0.11137751 0.032187343
0.010865881 0.11063442 0.03117013
0.012081802 0.11276349 0.028517932
-0.025082517 0.11337297 0.027981102
-0.024024975 0.11311759 0.029922515
-0.022784498 0.11194123 0.03029263
-0.021846971 0.11221399 0.031158417
-0.020745756 0.11163192 0.031327128
-0.019916106 0.11252601 0.030978739
-0.018995939 0.11297584 0.031155646
-0.018271381 0.11470368 0.029989392
0.0050005619 0.1130127 0.026458085
0.0061134873 0.11513735 0.028502762
0.0069000907 0.11138718 0.031543225
0.0079483679 0.1122707 0.032384276
0.008889731 0.11161552 0.033735037
0.0098704845 0.11153647 0.03289327
0.010849775 0.11145678 0.031652242
0.011990179 0.11290752 0.029259771
-0.025003191 0.11401455 0.026678473
-0.023940414 0.11371696 0.029571414
-0.022948697 0.11374571 0.030633152
-0.021928007 0.11362694 0.031657279
-0.020895749 0.11343406 0.03184393
-0.01985855 0.11319374 0.031632245
-0.018825451 0.1129527 0.031327128
-0.018240429 0.11552272 0.030608833
-0.017356308 0.11638936 0.028843969
0.0049931761 0.11384442 0.028916955
0.0060155434 0.11429533 0.031013429
0.0069649257 0.11342879 0.032122612
0.0078732669 0.11219405 0.03234905
0.008924528 0.11304402 0.033699751
0.0099964999 0.11396009 0.032540113
0.010865228 0.11260328 0.031210512
0.011961215 0.11363155 0.029038727
-0.025187068 0.11586051 0.027226537
-0.024027135 0.11513002 0.029853135
-0.022724973 0.11362486 0.030679822
-0.021953458 0.11475672 0.032028288
-0.020794703 0.11387575 0.032368928
-0.019892277 0.11438059 0.03226012
-0.018928707 0.11456848 0.031418234
-0.017823715 0.11387374 0.031066984
-0.016999448 0.11499625 0.028505445
0.0040135682 0.11539008 0.028358161
0.0050138999 0.11531969 0.030499071
0.0059609404 0.11425135 0.032204419
0.0069693453 0.11449638 0.032775283
0.0079519656 0.1143095 0.032872915
0.0088991206 0.11371098 0.032872915
0.0098744808 0.11355653 0.032245368
0.0109212 0.11417618 0.03108862
0.012020794 0.11519927 0.029226065
-0.025510866 0.11837041 0.026653051
-0.024196405 0.11694929 0.027542919
-0.023005757 0.11602904 0.030578941
-0.021733023 0.11459231 0.031736165
-0.020870551 0.11528495 0.032415599
-0.019928193 0.11558352 0.033388227
-0.018799411 0.11477536 0.033062637
-0.017655998 0.11378311 0.031939089
-0.017026937 0.11618381 0.031347096
-0.015878938 0.1151223 0.028432935
0.0029969884 0.11588355 0.02890268
0.0039865337 0.11560949 0.030499071
0.0049200878 0.11414604 0.032044172
0.0059088371 0.11423752 0.032766104
0.006951178 0.11519095 0.034286201
0.0079433918 0.11517918 0.033625066
0.0088410284 0.11395103 0.0330109
0.0098175583 0.11388368 0.032170177
0.010915862 0.11511274 0.030676723
0.011937629 0.11539709 0.029882848
-0.024161993 0.11778972 0.026969403
-0.022925857 0.11662284 0.029628098
-0.021767337 0.11576267 0.031904876
-0.020678604 0.11520936 0.032729596
-0.019790925 0.11577693 0.033245713
-0.018755721 0.11549576 0.032537401
-0.017890444 0.11628789 0.032675534
-0.016790872 0.11556071 0.033088923
-0.01582058 0.11568799 0.032218635
-0.015037522 0.11729267 0.029460639
-0.013997704 0.11698081 0.02740407
0.0019824007 0.11597045 0.028771996
0.0029967329 0.11687259 0.031058013
0.0039810501 0.11644572 0.032670707
0.0049182498 0.11508705 0.03369987
0.005880998 0.11467947 0.033758044
0.0069035068 0.11538719 0.034558356
0.0079235528 0.11588196 0.03366372
0.008926725 0.11604743 0.03257817
0.0099847391 0.11682145 0.031959802
0.010973539 0.11671856 0.030588239
0.011917693 0.11619751 0.029049695
-0.024226993 0.11911605 0.026297152
-0.023191115 0.1189805 0.027380466
-0.021756524 0.11669409 0.031186581
-0.020714955 0.11639832 0.032729596
-0.019707482 0.11627415 0.033468336
-0.01892845 0.11755563 0.033118039
-0.017731134 0.11623745 0.032666177
-0.016821265 0.11675937 0.032912821
-0.015633179 0.11529469 0.032421589
-0.014894115 0.11716704 0.030958176
-0.01405372 0.11845279 0.029004514
0.0020118232 0.11869758 0.030564427
0.0029718997 0.11689473 0.031606376
0.0039704069 0.11712701 0.033458084
0.0048690196 0.11490887 0.035079658
0.0059110587 0.11625082 0.035553813
0.0068845158 0.11605327 0.034836829
0.0078784386 0.11620697 0.03366372
0.0088854376 0.11649796 0.032245368
0.0099680554 0.11762305 0.031144321
0.01096227 0.11759527 0.029792368
-0.0208725 0.1182775 0.033426911
-0.019718615 0.11732577 0.033475637
-0.01884127 0.11800585 0.033400774
-0.017819986 0.11780991 0.033292562
-0.016734388 0.11714072 0.032577425
-0.015681421 0.11663058 0.03339532
-0.014861212 0.11789896 0.032218635
-0.013929679 0.11840227 0.029743195
-0.012997216 0.11897451 0.028220147
0.001960777 0.11666624 0.031774998
0.002964091 0.11757562 0.03364867
0.0039045881 0.1161615 0.034916669
0.0049370034 0.11750069 0.035642713
0.0059754085 0.11851227 0.036058247
0.0068192915 0.11592796 0.035268128
0.0079474049 0.11821765 0.033949405
0.0089551192 0.11840658 0.0330109
0.0099022631 0.11783693 0.031299442
0 0 0 1 0 0 0 1 0 0 0 1 0 0 0 0 0 628 1 0 0
