ply
format ascii 1.0
comment PCL generated
element vertex 1103
property float x
property float y
property float z
element camera 1
property float view_px
property float view_py
property float view_pz
property float x_axisx
property float x_axisy
property float x_axisz
property float y_axisx
property float y_axisy
property float y_axisz
property float z_axisx
property float z_axisy
property float z_axisz
property float focal
property float scalex
property float scaley
property float centerx
property float centery
property int viewportx
property int viewporty
property float k1
property float k2
end_header
-0.079813823 -0.13696446 0.005145818
-0.080965541 -0.14067763 0.0054907203
-0.080118157 -0.1409674 0.0058315098
-0.076730557 -0.13673778 0.0053829849
-0.078146502 -0.14292584 0.0052458644
-0.075596631 -0.14010575 0.0054007173
-0.071522392 -0.15294789 0.005022049
-0.065782622 -0.1498981 0.0053802133
-0.10268751 -0.16103268 0.0052092373
-0.10022472 -0.15897714 0.0057748854
-0.10568232 -0.16958326 0.0071265697
-0.096088216 -0.15600204 0.0080593526
-0.092146747 -0.15138395 0.0077384412
-0.098267883 -0.16338515 0.0076486766
-0.093552426 -0.15744188 0.007778883
-0.088999376 -0.15162857 0.0079861581
-0.093001075 -0.16042686 0.0079438984
-0.085424207 -0.14922203 0.0090791881
-0.091061659 -0.16110909 0.008284241
-0.087020211 -0.15595829 0.0072025955
-0.080155656 -0.1455458 0.0075512826
-0.086590149 -0.15932587 0.0077506602
-0.083513632 -0.15574163 0.0075512826
-0.076029927 -0.14372781 0.00784567
-0.082265243 -0.15767506 0.0079727769
-0.078412697 -0.15240778 0.0076450109
-0.073272891 -0.14445227 0.0076450109
-0.077812679 -0.15562536 0.0078922808
-0.073131062 -0.14841305 0.0079321861
-0.071754552 -0.14779297 0.0084268153
-0.073034048 -0.15270756 0.0087113976
-0.06892398 -0.14633091 0.0094124973
-0.067817643 -0.1462318 0.0093596876
-0.067343019 -0.14751329 0.0092858374
-0.061980732 -0.13795711 0.00944224
-0.065262504 -0.14764303 0.0082347691
-0.063480131 -0.1460043 0.0068284869
-0.05868721 -0.13726839 0.0067490339
-0.060725689 -0.14448527 0.0060097873
-0.058755565 -0.14225031 0.0056618154
-0.085209474 -0.13116515 0.0056251287
-0.083427235 -0.12988102 0.0076088905
-0.084169358 -0.13254255 0.0096384287
-0.081541516 -0.12989753 0.011814624
-0.079492874 -0.1281238 0.012534887
-0.080726594 -0.13166122 0.012393236
-0.077985674 -0.12872334 0.012276143
-0.07645312 -0.12773265 0.012356788
-0.077175826 -0.13053195 0.012320042
-0.073247075 -0.12543562 0.012694985
-0.075899683 -0.13162349 0.01272437
-0.074050546 -0.13006315 0.012817889
-0.069832474 -0.12424739 0.011713505
-0.071183316 -0.1283173 0.01100418
-0.070862889 -0.12944287 0.01186651
-0.066555522 -0.12321766 0.011722118
-0.069312721 -0.13008003 0.010710597
-0.066555001 -0.12663938 0.010609448
-0.066698186 -0.12869932 0.012290359
-0.067159392 -0.13144052 0.010528952
-0.063851215 -0.12677705 0.010528952
-0.064004153 -0.12894954 0.012253672
-0.064098418 -0.13106692 0.011339933
-0.062370371 -0.12946577 0.01268515
-0.060341384 -0.12718107 0.012968481
-0.060023494 -0.1284878 0.013303787
-0.058590624 -0.12741137 0.01312235
-0.058124639 -0.1284367 0.013475478
-0.057457753 -0.12904446 0.011955351
-0.056915563 -0.1299572 0.0097614527
-0.055958536 -0.12993762 0.0091864169
-0.054967452 -0.12983692 0.0080148876
-0.052552197 -0.12630966 0.0067031682
-0.055093125 -0.13478139 0.0059456527
-0.055234786 -0.13758484 0.005351156
-0.086973086 -0.13142599 0.0056104064
-0.084631808 -0.129325 0.007699281
-0.0854626 -0.13207856 0.010848314
-0.083180703 -0.1300296 0.012875766
-0.081436329 -0.12878303 0.014870167
-0.081495754 -0.13039321 0.014936715
-0.081112362 -0.13132478 0.015100211
-0.07852044 -0.12865999 0.014103591
-0.07925579 -0.13144863 0.014320105
-0.076883622 -0.12908855 0.014655322
-0.077789776 -0.13224262 0.014634877
-0.076479606 -0.1316611 0.014655322
-0.07313256 -0.12751317 0.015532285
-0.074529007 -0.13163565 0.013816535
-0.073509052 -0.13154252 0.013551235
-0.070285141 -0.12745039 0.013920158
-0.070267141 -0.1291396 0.015277177
-0.069755889 -0.12995619 0.015372187
-0.068269655 -0.1289538 0.015890956
-0.069244891 -0.1326381 0.016201049
-0.066926561 -0.13002874 0.015750706
-0.06513337 -0.12837882 0.016232818
-0.06599281 -0.13198562 0.015709907
-0.063373365 -0.12863846 0.015266299
-0.062880293 -0.12957151 0.015356004
-0.063420348 -0.13269487 0.015356004
-0.059363235 -0.12614688 0.015730232
-0.060417742 -0.1304256 0.015589386
-0.060308985 -0.13229068 0.015406787
-0.056355685 -0.12564546 0.014159381
-0.057355687 -0.13000622 0.013614535
-0.056031354 -0.12915702 0.012247145
-0.055941433 -0.13117301 0.010547936
-0.054523233 -0.13009052 0.0092933476
-0.054581113 -0.13255413 0.0075924695
-0.056400254 -0.13946246 0.0067387819
-0.053109843 -0.13375813 0.0058729649
-0.052784581 -0.13544722 0.0056492686
-0.051045865 -0.13350457 0.0051765144
-0.089670829 -0.13302815 0.0058839023
-0.086185433 -0.12927815 0.0068856478
-0.085467018 -0.12964098 0.010328859
-0.082736738 -0.12692568 0.013775527
-0.08281666 -0.12850861 0.014967412
-0.083418034 -0.1309469 0.016671419
-0.081204101 -0.12897122 0.016878814
-0.079745308 -0.1281621 0.017039925
-0.079851769 -0.12987939 0.016663969
-0.07788194 -0.12822026 0.016514301
-0.077316746 -0.12886125 0.016643524
-0.07770633 -0.13112943 0.016621709
-0.074155584 -0.12672156 0.016651094
-0.075713806 -0.13104312 0.01731202
-0.075261131 -0.13195133 0.016770869
-0.07234326 -0.12850448 0.016537905
-0.072809793 -0.13105762 0.016521215
-0.070163004 -0.12800008 0.016938329
-0.069772772 -0.12903184 0.016865879
-0.070398144 -0.13199651 0.017130196
-0.066265345 -0.12599748 0.017138481
-0.066795446 -0.12881979 0.017810583
-0.066012882 -0.12915564 0.017802477
-0.065057956 -0.12915917 0.017029047
-0.063945688 -0.1288458 0.016422838
-0.062787347 -0.12842865 0.016443163
-0.061383285 -0.12748836 0.017025769
-0.061444368 -0.12960921 0.017298102
-0.060997851 -0.13070968 0.017099321
-0.057734534 -0.12571229 0.017286569
-0.058946285 -0.1304549 0.015322894
-0.056549117 -0.12723552 0.014740556
-0.056135122 -0.12844478 0.013982296
-0.055553339 -0.12930518 0.013259768
-0.055116169 -0.13053828 0.011797816
-0.055091988 -0.13281104 0.010387897
-0.056053169 -0.13758506 0.0091222823
-0.052802648 -0.13200662 0.0076544583
-0.05106758 -0.13007779 0.006695956
-0.050651889 -0.1315001 0.0063380897
-0.053016577 -0.140338 0.0056258738
-0.053876862 -0.14546753 0.0054813027
-0.092117913 -0.13417174 0.005590409
-0.085968949 -0.12659164 0.0066359639
-0.084843323 -0.12632228 0.0095841885
-0.084929258 -0.12787102 0.012052625
-0.084635109 -0.12887618 0.015514463
-0.084654547 -0.13038746 0.016483545
-0.081983767 -0.12774216 0.017980248
-0.080827706 -0.1274225 0.018707722
-0.079988427 -0.12760058 0.018568903
-0.078759834 -0.12715442 0.01903832
-0.078768715 -0.12871961 0.01807785
-0.078919798 -0.13055868 0.017872006
-0.075837143 -0.12702721 0.017872006
-0.075213298 -0.12757699 0.017970681
-0.075754702 -0.13014269 0.01842609
-0.074079879 -0.12891823 0.017901629
-0.072879232 -0.1284976 0.018094152
-0.071780615 -0.12824804 0.017573923
-0.069595814 -0.12602486 0.017531782
-0.069874614 -0.12826298 0.017537296
-0.068108402 -0.12675731 0.018094152
-0.068232454 -0.12877674 0.018056601
-0.067904949 -0.12998948 0.018154144
-0.06585896 -0.12790002 0.017767578
-0.064484112 -0.12707163 0.017639995
-0.064078681 -0.12815736 0.017623276
-0.06352558 -0.12897618 0.017793089
-0.061733104 -0.12726517 0.018030018
-0.061038755 -0.1277999 0.018066645
-0.058783792 -0.12503219 0.017735898
-0.059960455 -0.12959196 0.017792165
-0.057825278 -0.12702602 0.016798049
-0.056566004 -0.12633073 0.015707999
-0.056422431 -0.12814586 0.015147209
-0.055389509 -0.12796886 0.01430425
-0.054000266 -0.12694798 0.01356864
-0.057055615 -0.13652594 0.011767894
-0.056067802 -0.13660155 0.010522932
-0.055463109 -0.13763067 0.0096610487
-0.061339162 -0.15508392 0.0088410079
-0.057977062 -0.14940242 0.0079475939
-0.050957847 -0.13388924 0.0071807504
-0.049935099 -0.13382606 0.0072622299
-0.047954142 -0.1311399 0.0066355467
-0.047251984 -0.1319118 0.0055813789
-0.090124428 -0.13028857 0.0054648221
-0.089111753 -0.13024026 0.0079211891
-0.085373774 -0.12616347 0.011879504
-0.084519617 -0.1263046 0.014623255
-0.085886024 -0.12980501 0.017061353
-0.083076842 -0.12700252 0.017762721
-0.081087433 -0.12540266 0.019375056
-0.083055682 -0.12995772 0.019700766
-0.081032954 -0.12830217 0.019754261
-0.078883916 -0.12640435 0.019756913
-0.07907337 -0.12825315 0.019544721
-0.077272229 -0.1268791 0.01922366
-0.075938277 -0.12624739 0.019020408
-0.075336434 -0.12683222 0.01957351
-0.072827861 -0.12418084 0.019336671
-0.073782437 -0.12744239 0.018415034
-0.072949365 -0.12766139 0.018585831
-0.069593109 -0.12341178 0.018268794
-0.072414346 -0.13015011 0.018011004
-0.070014603 -0.12756085 0.018156797
-0.067618534 -0.12490646 0.018260419
-0.068194382 -0.12774441 0.018416941
-0.066261217 -0.12589632 0.018389702
-0.064063735 -0.12348516 0.018452853
-0.066491157 -0.13004889 0.018224001
-0.062715143 -0.12449424 0.018521816
-0.062302098 -0.12554817 0.018845707
-0.063306928 -0.12953572 0.019015759
-0.059588276 -0.12383188 0.019194156
-0.060834948 -0.12842934 0.018917799
-0.059628852 -0.1279135 0.018856823
-0.057548452 -0.1254745 0.017945886
-0.058631234 -0.1299659 0.017230809
-0.056272704 -0.12685204 0.016753584
-0.053881306 -0.12355541 0.015227646
-0.054086633 -0.12620215 0.014467508
-0.054746907 -0.13002391 0.013911963
-0.051915321 -0.12554069 0.013104171
-0.053121217 -0.13083559 0.011575401
-0.051335834 -0.12882388 0.010474205
-0.049537025 -0.12670048 0.0097664595
-0.050125986 -0.1307207 0.0088993609
-0.048700709 -0.12954389 0.0089093745
-0.047442868 -0.1287735 0.0079710186
-0.048135772 -0.13337621 0.007065624
-0.044494774 -0.12591074 0.0060421824
-0.091569215 -0.13138191 0.0071902573
-0.087616801 -0.1270925 0.011038065
-0.085617006 -0.12557161 0.014294744
-0.085892268 -0.12739077 0.015388578
-0.083476797 -0.1252152 0.018039525
-0.081117697 -0.12307513 0.018776506
-0.084581353 -0.12982255 0.020028114
-0.080616467 -0.12519263 0.020107657
-0.079999797 -0.12571396 0.020185918
-0.079887547 -0.12705007 0.020205855
-0.078470036 -0.12631762 0.019696116
-0.076614156 -0.1248527 0.019750863
-0.076920994 -0.12691964 0.019677669
-0.072624207 -0.12134677 0.019992024
-0.075853594 -0.12836762 0.019749641
-0.073070534 -0.12526377 0.018985748
-0.071398288 -0.12400756 0.018985748
-0.072598197 -0.12777284 0.01861316
-0.070245765 -0.12530325 0.018389702
-0.068757765 -0.12432911 0.01861316
-0.070625544 -0.12948017 0.018489331
-0.068318032 -0.1270138 0.018875718
-0.066624604 -0.12563497 0.018725008
-0.066661522 -0.12752639 0.018689007
-0.064537413 -0.12527852 0.018933237
-0.06295301 -0.12402683 0.018931121
-0.063648127 -0.12729625 0.019085348
-0.062223025 -0.1263606 0.019394904
-0.060123742 -0.12400522 0.020096242
-0.061171006 -0.12816782 0.019459784
-0.058240097 -0.12399504 0.019787073
-0.058425535 -0.12642902 0.018920809
-0.056754123 -0.12485907 0.01804179
-0.054973822 -0.12299228 0.017294794
-0.056142204 -0.12777191 0.017092466
-0.054337189 -0.12583348 0.015381485
-0.055432554 -0.13066244 0.015202165
-0.054278899 -0.13026936 0.014869094
-0.052462682 -0.12824211 0.013511658
-0.051385414 -0.12797876 0.012706757
-0.051332612 -0.13030586 0.011596739
-0.048565123 -0.12569797 0.010532409
-0.047795039 -0.12617891 0.011462271
-0.0476478 -0.12835734 0.010230482
-0.045198467 -0.12429579 0.0090143085
-0.045545556 -0.12791517 0.0075256526
-0.0454362 -0.13038214 0.0064444542
-0.092096977 -0.13113809 0.007055074
-0.085607447 -0.1232371 0.011247993
-0.087051727 -0.12670863 0.014262885
-0.085440412 -0.1257606 0.015388578
-0.083668537 -0.12455203 0.01788938
-0.085025862 -0.12802744 0.018162191
-0.080982156 -0.12335654 0.019590288
-0.080945507 -0.12475131 0.019660145
-0.082253084 -0.12827563 0.01957351
-0.078410491 -0.12375632 0.019678384
-0.077760458 -0.12422708 0.01957351
-0.079300098 -0.12825078 0.019408405
-0.076172285 -0.12473212 0.01933521
-0.077509806 -0.12852892 0.0195086
-0.073178031 -0.12290157 0.019190669
-0.072510451 -0.12336194 0.01863417
-0.072826497 -0.12552989 0.018652201
-0.071114264 -0.12421291 0.01846227
-0.069481723 -0.12300143 0.017927408
-0.069815286 -0.12528495 0.018457204
-0.068820223 -0.12521458 0.018475324
-0.067809179 -0.12511271 0.018689841
-0.067451604 -0.12623085 0.018918097
-0.065183684 -0.12375454 0.018647969
-0.065329395 -0.12585516 0.018710166
-0.065136872 -0.12735716 0.018922299
-0.062275477 -0.12360739 0.01896891
-0.061423901 -0.12379278 0.019064844
-0.061614424 -0.12611702 0.019259751
-0.059156094 -0.12300712 0.01911658
-0.059105728 -0.12488469 0.019187301
-0.058887091 -0.12646244 0.018332779
-0.05661137 -0.1236015 0.018057257
-0.056569062 -0.1256025 0.017577559
-0.055332158 -0.12497436 0.017129511
-0.054040559 -0.12419848 0.016227692
-0.055554509 -0.12995787 0.016214758
-0.052120142 -0.1241407 0.015040398
-0.051061463 -0.12387133 0.014293104
-0.051869169 -0.12820493 0.013399899
-0.050669953 -0.12764931 0.012628049
-0.047634222 -0.12235457 0.012120157
-0.048015408 -0.12580037 0.012344033
-0.046305045 -0.12379512 0.011375546
-0.045823634 -0.12506033 0.010016918
-0.044795413 -0.12485529 0.0080060363
-0.043452017 -0.12374379 0.0070758164
-0.044069301 -0.12829064 0.0054638386
-0.091177598 -0.12883791 0.007055074
-0.088040106 -0.12577158 0.010462344
-0.086934306 -0.12557177 0.014259487
-0.084744446 -0.12378403 0.015426874
-0.083573394 -0.1234607 0.017769784
-0.083500192 -0.1247704 0.0180282
-0.081870094 -0.12375712 0.019375056
-0.083923355 -0.12835337 0.019534677
-0.079275146 -0.12268773 0.01957351
-0.077792875 -0.12184427 0.019876391
-0.079470083 -0.12598915 0.019692987
-0.077341579 -0.12412845 0.019527882
-0.076057635 -0.12359365 0.019531012
-0.075727217 -0.12461441 0.019538462
-0.072208643 -0.12034774 0.019256443
-0.075028703 -0.12667184 0.018652201
-0.073935732 -0.12646902 0.018652201
-0.070198931 -0.12167814 0.018131942
-0.071289785 -0.12523881 0.017927408
-0.069731995 -0.12418026 0.018113911
-0.068489142 -0.12366094 0.018078685
-0.068348192 -0.12514457 0.018389702
-0.067146182 -0.12470005 0.018452853
-0.065165177 -0.12277498 0.018515348
-0.065946259 -0.12607373 0.018922299
-0.063050836 -0.12233744 0.018892705
-0.062145349 -0.1224075 0.019052833
-0.062640056 -0.12528011 0.019241512
-0.058806714 -0.11945114 0.01944232
-0.060594827 -0.12503694 0.019223869
-0.059815135 -0.12541884 0.019394904
-0.057141405 -0.12177676 0.018736124
-0.057891417 -0.1254314 0.018191278
-0.056866396 -0.12529884 0.017614484
-0.053868424 -0.12073956 0.017271221
-0.055644251 -0.12690794 0.016966671
-0.05454744 -0.12662798 0.016653627
-0.052744374 -0.12466852 0.01549533
-0.05216815 -0.12559 0.014577031
-0.051487003 -0.12628888 0.013702869
-0.049797632 -0.12449408 0.012842685
-0.048637945 -0.12397908 0.012221992
-0.047506459 -0.1235168 0.01215896
-0.04686217 -0.12432821 0.01151368
-0.045414045 -0.12299637 0.0101493
-0.04431643 -0.12257736 0.0082440674
-0.043507751 -0.12295669 0.0070645213
-0.04263185 -0.12315868 0.0053219199
-0.092287086 -0.12940253 0.0073452294
-0.089612901 -0.12703368 0.011353046
-0.085414104 -0.12242688 0.014298111
-0.085874662 -0.12447002 0.015474349
-0.084087089 -0.12326403 0.017905653
-0.081901595 -0.12144029 0.017900735
-0.084071018 -0.12610653 0.019159526
-0.079691134 -0.12094302 0.019251525
-0.078835696 -0.1210691 0.019416988
-0.080432773 -0.12500997 0.019834608
-0.078165993 -0.12296846 0.019766897
-0.076501533 -0.12183578 0.019415855
-0.076017231 -0.12257779 0.019535333
-0.074736521 -0.12203812 0.0195086
-0.073987961 -0.1223647 0.018996865
-0.073761091 -0.12357378 0.018447638
-0.072012387 -0.12223156 0.018518418
-0.072079368 -0.12397651 0.018095791
-0.071326569 -0.12433956 0.017870426
-0.069229029 -0.12233623 0.01786378
-0.070428118 -0.1261837 0.017854005
-0.066822089 -0.12140915 0.018010467
-0.065152131 -0.12006607 0.018389702
-0.06781517 -0.12678488 0.018432021
-0.065341614 -0.12395688 0.018617958
-0.063622728 -0.12249749 0.018809378
-0.062964931 -0.12306782 0.019085348
-0.060819414 -0.12070315 0.019211799
-0.061581012 -0.12412422 0.019212335
-0.060266864 -0.12340358 0.019112289
-0.057978157 -0.12063197 0.019194156
-0.058902126 -0.12456351 0.01848495
-0.057780273 -0.12422759 0.018075436
-0.055696912 -0.121778 0.01783061
-0.055879064 -0.12428274 0.017158478
-0.054087278 -0.12240805 0.016248137
-0.053727247 -0.12376455 0.016243011
-0.053797252 -0.12617901 0.015274614
-0.051153474 -0.12219997 0.013878822
-0.050275102 -0.1223677 0.013246685
-0.050729524 -0.12584823 0.012610257
-0.049335208 -0.12478905 0.012034595
-0.048145857 -0.12421631 0.01201418
-0.047816366 -0.12588389 0.011262298
-0.046167169 -0.12407427 0.0099997818
-0.045926675 -0.12605406 0.0084206164
-0.044556402 -0.12495165 0.0073604286
-0.043442369 -0.12453479 0.0053606629
-0.091296382 -0.12702106 0.0075250268
-0.086065918 -0.12105975 0.011305571
-0.086886168 -0.12357143 0.014298111
-0.085270509 -0.12263624 0.015181392
-0.084180735 -0.1224447 0.016671419
-0.084177874 -0.12384791 0.017575055
-0.08218883 -0.12232757 0.018555999
-0.079557963 -0.11980493 0.018825471
-0.080399595 -0.12251367 0.018740714
-0.07862784 -0.12125739 0.019293189
-0.078751497 -0.12292916 0.019168675
-0.078882709 -0.12465416 0.018870473
-0.075172134 -0.12027542 0.019329876
-0.07635437 -0.12371341 0.019315273
-0.076973319 -0.12631519 0.019315273
-0.072717108 -0.12088039 0.018724501
-0.074047141 -0.12471098 0.018527716
-0.072331421 -0.12344563 0.018427819
-0.069754124 -0.12065578 0.018265188
-0.071382925 -0.12516458 0.018139601
-0.068707399 -0.12214649 0.018070042
-0.067768663 -0.1221745 0.018426836
-0.068148129 -0.12461372 0.018455386
-0.065195918 -0.12094316 0.018504858
-0.064883791 -0.12213419 0.018647701
-0.064647689 -0.12350602 0.018689007
-0.062803283 -0.1218003 0.01881215
-0.060411062 -0.11896332 0.019273192
-0.060995158 -0.12199032 0.019194156
-0.059567418 -0.12102587 0.019099861
-0.060107145 -0.12409217 0.019096076
-0.058034275 -0.12177683 0.018050402
-0.056074254 -0.11962508 0.017809391
-0.057676654 -0.12512901 0.017554611
-0.054799918 -0.12093775 0.016983122
-0.054602761 -0.12261672 0.015615702
-0.054825608 -0.12531568 0.01544562
-0.052114379 -0.12128437 0.014876723
-0.051725172 -0.12260781 0.013787389
-0.051315349 -0.12393141 0.013148665
-0.050279692 -0.12376539 0.012477368
-0.048836425 -0.12256984 0.011665761
-0.048221119 -0.12344606 0.011934698
-0.046351984 -0.12108273 0.011081785
-0.046029367 -0.12274497 0.009668529
-0.045566849 -0.12409695 0.0086070299
-0.042916313 -0.11941931 0.0071280897
-0.044376023 -0.12622513 0.0050516427
-0.088239804 -0.1218093 0.0067817867
-0.087934755 -0.12272213 0.012086451
-0.086484261 -0.12203889 0.014355689
-0.084297389 -0.12028953 0.015267164
-0.085652933 -0.12361275 0.016671419
-0.083804145 -0.12233479 0.017831534
-0.082535811 -0.12188428 0.018567473
-0.083386257 -0.12458888 0.018816411
-0.081513584 -0.12324077 0.018726557
-0.079229489 -0.12123066 0.019476593
-0.07965333 -0.12336552 0.019209206
-0.07710433 -0.12089197 0.01921317
-0.077062465 -0.12233666 0.019332647
-0.075986087 -0.12215485 0.019315273
-0.072894193 -0.1186867 0.019163817
-0.073817849 -0.12175152 0.018565089
-0.07358586 -0.12296584 0.018113911
-0.071211934 -0.12058555 0.018070042
-0.070735246 -0.12139698 0.017683238
-0.071393348 -0.12420487 0.01778996
-0.068560518 -0.12093313 0.017657459
-0.069716185 -0.12470359 0.018031418
-0.066784911 -0.12116691 0.018039793
-0.064300649 -0.11835047 0.01831004
-0.065456331 -0.12224933 0.018367857
-0.064448118 -0.12216286 0.018515348
-0.062369358 -0.12001377 0.018679678
-0.06248052 -0.12207732 0.018785208
-0.059903517 -0.11887105 0.018963367
-0.060777582 -0.12251989 0.019027799
-0.059860233 -0.12261693 0.018629611
-0.057240691 -0.11917324 0.017987013
-0.057754762 -0.12224758 0.017582744
-0.056095179 -0.12074725 0.01710552
-0.053664617 -0.117507 0.016020089
-0.055777762 -0.12427677 0.014793068
-0.05494627 -0.12461029 0.014704674
-0.052180078 -0.12048854 0.014525533
-0.053397667 -0.1255834 0.013361812
-0.050799906 -0.12172808 0.012795419
-0.049687732 -0.12135272 0.011462688
-0.048970085 -0.12194511 0.011065066
-0.047539163 -0.12074948 0.011285275
-0.046668623 -0.12095745 0.010042191
-0.046533115 -0.12311886 0.0091226995
-0.044858638 -0.12121376 0.0080557764
-0.044635274 -0.12323217 0.00643906
-0.089717217 -0.12287358 0.0056661367
-0.087940969 -0.12176442 0.011209369
-0.08629632 -0.12081484 0.013744116
-0.085318819 -0.12078844 0.01489529
-0.082305163 -0.11784603 0.017053396
-0.082830973 -0.1199621 0.017565131
-0.083464675 -0.12228546 0.018379778
-0.079964638 -0.11853582 0.018047959
-0.079729252 -0.11959388 0.018142164
-0.080165885 -0.12169761 0.019144326
-0.078106411 -0.12001716 0.018937171
-0.077957384 -0.12126705 0.018870473
-0.077400357 -0.12190557 0.019315273
-0.073707283 -0.11755846 0.019163817
-0.075186908 -0.12145577 0.018821001
-0.073304333 -0.11995254 0.018361688
-0.072508998 -0.12021229 0.018248647
-0.072826311 -0.1223482 0.018083185
-0.071408756 -0.12158788 0.01778996
-0.068802923 -0.11875574 0.017828584
-0.071042418 -0.12432423 0.017673641
-0.066952921 -0.11881787 0.017987043
-0.06571199 -0.11828158 0.018070042
-0.06744393 -0.12315848 0.018329233
-0.063929684 -0.11845794 0.018609285
-0.063242882 -0.11893438 0.018743902
-0.063806869 -0.12181311 0.018785208
-0.062607676 -0.12136257 0.018785208
-0.063107572 -0.12424304 0.018614888
-0.060199507 -0.12039901 0.018629611
-0.057083953 -0.11600932 0.018413663
-0.058068074 -0.11994389 0.017809391
-0.057302676 -0.12033562 0.01710552
-0.055855516 -0.11928466 0.016999394
-0.055468507 -0.12050055 0.015717417
-0.054779563 -0.12109166 0.014500827
-0.053604819 -0.12061085 0.014500827
-0.053899545 -0.12347896 0.013702869
-0.051790759 -0.1208451 0.011420727
-0.051646646 -0.1227826 0.010985255
-0.050936904 -0.12342404 0.010096639
-0.049230315 -0.12162784 0.010086656
-0.049166955 -0.12390073 0.0096627772
-0.048783526 -0.12544335 0.0092455745
-0.046218637 -0.12132392 0.0083628893
-0.046086773 -0.12355177 0.0066045821
-0.044644415 -0.12228688 0.0053436458
-0.09099216 -0.12363065 0.0056245923
-0.086966589 -0.1194596 0.011305571
-0.087968804 -0.12217889 0.013855845
-0.086205915 -0.12107572 0.01489529
-0.084341399 -0.11980312 0.016111553
-0.085835524 -0.12332691 0.017509788
-0.082963422 -0.12058637 0.01782164
-0.081135526 -0.11931695 0.017925054
-0.082177997 -0.12228869 0.01806888
-0.079147615 -0.11919821 0.019010454
-0.076989114 -0.11736145 0.018460959
-0.078502811 -0.12114631 0.018308491
-0.075556003 -0.11805625 0.019128978
-0.076477766 -0.12100912 0.018791407
-0.074392281 -0.1192184 0.018921405
-0.072356626 -0.11746205 0.018660933
-0.072812222 -0.11975694 0.018444151
-0.071375161 -0.1189586 0.01835537
-0.068842568 -0.11628812 0.018047005
-0.070341483 -0.12044775 0.018237144
-0.067402378 -0.11701802 0.017942011
-0.067945778 -0.11962285 0.018260062
-0.068349555 -0.12205277 0.018443853
-0.065184645 -0.11808813 0.018535107
-0.062953271 -0.11572292 0.01880765
-0.065025307 -0.12131587 0.018785208
-0.062008258 -0.11743988 0.018743426
-0.061494086 -0.11825786 0.018785208
-0.06018991 -0.11755842 0.018577814
-0.059330836 -0.11771992 0.018582642
-0.059938669 -0.12084409 0.018059045
-0.05787041 -0.11858691 0.017455459
-0.056407224 -0.11751505 0.016214758
-0.056468617 -0.1196369 0.015856862
-0.055636726 -0.11990674 0.014811575
-0.054140341 -0.11872882 0.013751566
-0.055723108 -0.12438194 0.012286365
-0.054768655 -0.12447421 0.011383116
-0.052650169 -0.12187538 0.010208994
-0.051493917 -0.12144792 0.0092256665
-0.050599474 -0.12163335 0.0085909069
-0.049873877 -0.1222399 0.0078155696
-0.049319003 -0.12329751 0.0080311298
-0.047989804 -0.12242297 0.0073990226
-0.047293991 -0.12316143 0.0059734285
-0.046143446 -0.12272193 0.0052185059
-0.088224053 -0.11891068 0.0055224001
-0.087326519 -0.11899438 0.011111587
-0.087413296 -0.1204361 0.012988567
-0.084830835 -0.11819127 0.014660031
-0.085639909 -0.12067442 0.016074002
-0.083165467 -0.11853468 0.017485946
-0.082456201 -0.11889033 0.01775676
-0.082967594 -0.12103508 0.017863214
-0.080646664 -0.11904984 0.017955631
-0.077657089 -0.11601781 0.018534243
-0.079737224 -0.12057824 0.018460959
-0.077526353 -0.11868232 0.018823892
-0.077963419 -0.12084331 0.019128978
-0.074797839 -0.11740421 0.018644422
-0.073052391 -0.11613457 0.019118607
-0.075950153 -0.12230933 0.019089073
-0.073663779 -0.12018827 0.018520147
-0.070608906 -0.11674006 0.018709749
-0.070831634 -0.11869085 0.018467993
-0.070967749 -0.12054795 0.018653184
-0.068874113 -0.11861652 0.018261284
-0.0689601 -0.12043735 0.01854974
-0.066139236 -0.11716094 0.018507093
-0.066126153 -0.1188354 0.018601418
-0.06688299 -0.12196309 0.01899004
-0.063025393 -0.11664401 0.018926293
-0.062964186 -0.11829635 0.018890321
-0.063075833 -0.12032928 0.018720984
-0.06096293 -0.11811568 0.018676221
-0.060199868 -0.11848863 0.018500537
-0.061098605 -0.12219721 0.017702281
-0.056314938 -0.11447626 0.01767084
-0.057667926 -0.11918038 0.016767949
-0.05895675 -0.1239091 0.015573174
-0.055492971 -0.11864015 0.014628977
-0.055127304 -0.11992607 0.011836201
-0.055317059 -0.12248777 0.010683537
-0.05346873 -0.12054768 0.0092167854
-0.053040523 -0.12179676 0.0081110597
-0.052102912 -0.12190115 0.0073549151
-0.051308025 -0.1223499 0.0066672266
-0.050865095 -0.12367199 0.0061454773
-0.049402811 -0.12251897 0.0059767962
-0.0478076 -0.12098251 0.0059518814
-0.047343187 -0.12230323 0.0051982403
-0.088025719 -0.11897982 0.011303693
-0.084416687 -0.11536948 0.013433039
-0.084611751 -0.11693534 0.014458597
-0.08353395 -0.11675768 0.016534567
-0.084231488 -0.1190859 0.017109632
-0.082927793 -0.11860603 0.017482132
-0.081462197 -0.11788059 0.017436326
-0.081161872 -0.11884417 0.017541766
-0.080880053 -0.1198584 0.017795384
-0.077125981 -0.11568897 0.018290579
-0.076866344 -0.11672297 0.018150955
-0.077527568 -0.11919863 0.018251359
-0.074227273 -0.11556905 0.018111676
-0.073636562 -0.1161192 0.018296361
-0.07369639 -0.1177228 0.01820311
-0.07133954 -0.11545742 0.018062323
-0.072858371 -0.11948773 0.01835373
-0.070105158 -0.11652614 0.018261284
-0.068136148 -0.11480474 0.018479079
-0.068632349 -0.11724693 0.018243581
-0.066871986 -0.11584865 0.018179417
-0.064577237 -0.11347143 0.018300384
-0.066365473 -0.11830367 0.018781662
-0.064240359 -0.11619947 0.018967599
-0.063316628 -0.11623798 0.018887877
-0.064469196 -0.12014714 0.018849015
-0.062631369 -0.11851782 0.018890321
-0.060048945 -0.11540657 0.018577814
-0.058983952 -0.11515914 0.018411338
-0.056963705 -0.11300864 0.017861336
-0.058867488 -0.11870001 0.017455459
-0.058351845 -0.11962128 0.016100138
-0.055028625 -0.11472069 0.014628977
-0.055489328 -0.11767565 0.012238055
-0.057210341 -0.12345389 0.0099050105
-0.055205088 -0.12125403 0.0086472034
-0.054347642 -0.12154109 0.0072179139
-0.053088967 -0.12092487 0.0059175193
-0.053182911 -0.12342449 0.0053476989
-0.087085679 -0.11675223 0.0069011748
-0.090971753 -0.12331727 0.011850506
-0.090791389 -0.12445561 0.013145208
-0.084878638 -0.11767266 0.014738113
-0.084286593 -0.118195 0.016169757
-0.082027063 -0.11636398 0.016932636
-0.080620997 -0.11571484 0.016622633
-0.080050364 -0.11626362 0.016949743
-0.078751594 -0.11575535 0.017312288
-0.077719718 -0.11563178 0.017515689
-0.078094162 -0.1176233 0.017725229
-0.075829387 -0.11563981 0.018109053
-0.075958349 -0.11730277 0.018269479
-0.074088164 -0.11588149 0.01838997
-0.073812954 -0.1169504 0.018349767
-0.074961975 -0.1203337 0.018154263
-0.074188694 -0.12068027 0.018282682
-0.068364173 -0.1127085 0.018168926
-0.070843019 -0.11839519 0.018274903
-0.067504764 -0.11438307 0.017990321
-0.068308033 -0.11737438 0.017992347
-0.068523429 -0.11942654 0.017961711
-0.066108853 -0.11688811 0.018073469
-0.065008514 -0.11663292 0.018376589
-0.064350255 -0.11717509 0.017987043
-0.061896604 -0.11441493 0.017842412
-0.062228303 -0.11679774 0.017679632
-0.060716223 -0.1157403 0.01767084
-0.059053361 -0.1143573 0.017794669
-0.061784148 -0.12157526 0.016894072
-0.060041964 -0.12008393 0.015815586
-0.05771701 -0.11735792 0.014628977
-0.057584126 -0.11907226 0.011574
-0.054380871 -0.11438735 0.009046644
-0.054968677 -0.11765225 0.0072179139
-0.056504495 -0.12309908 0.0060220063
-0.055621073 -0.12337765 0.0051858127
-0.088997252 -0.11965186 0.0073354244
-0.085470751 -0.1162018 0.011882544
-0.089730248 -0.12337909 0.013542712
-0.083446316 -0.11605752 0.015108645
-0.08209566 -0.11550669 0.016012013
-0.083105564 -0.11830322 0.01605165
-0.078981608 -0.11377113 0.016882896
-0.078574702 -0.11454867 0.017254084
-0.079139963 -0.1167797 0.017432868
-0.078097679 -0.11666443 0.017698348
-0.075311482 -0.11390862 0.018109053
-0.075845838 -0.11616895 0.018269479
-0.073271513 -0.11366478 0.018249184
-0.074078441 -0.11640897 0.018249184
-0.073001482 -0.11622604 0.018104196
-0.071115896 -0.11473364 0.018224835
-0.072047442 -0.1178073 0.018029302
-0.069747142 -0.11560828 0.018151224
-0.068672426 -0.11540783 0.017614514
-0.068444975 -0.11664566 0.017545432
-0.06599962 -0.11408506 0.017644286
-0.065184802 -0.11430959 0.017458081
-0.065043464 -0.11573911 0.01780346
-0.063495845 -0.1146716 0.017484665
-0.063242197 -0.11594403 0.017315626
-0.062350065 -0.11606704 0.016937107
-0.058931477 -0.11141732 0.016916066
-0.059304841 -0.11390295 0.017230421
-0.060795311 -0.11864892 0.015738308
-0.057536051 -0.11412889 0.013755143
-0.058251955 -0.11747478 0.011574
-0.059757892 -0.12255432 0.0074455142
-0.054386359 -0.1134612 0.0066953599
-0.057272311 -0.12157806 0.0052228272
-0.096428394 -0.13001582 0.0075324178
-0.083033957 -0.11322812 0.011834174
-0.08327125 -0.11485689 0.01370886
-0.083079599 -0.11592503 0.015215039
-0.081178807 -0.11460537 0.015367568
-0.08148773 -0.11641104 0.015994191
-0.079773471 -0.11533514 0.016882896
-0.077422291 -0.11330091 0.017143488
-0.076808661 -0.11379062 0.017134458
-0.077407181 -0.11611076 0.017575234
-0.074777506 -0.11358609 0.017954946
-0.073818736 -0.11356729 0.018045187
-0.073855169 -0.11509896 0.018062323
-0.071324632 -0.11261784 0.017917335
-0.072997138 -0.11679542 0.017953873
-0.070422493 -0.11419863 0.017549187
-0.069595084 -0.11440288 0.017570764
-0.070502169 -0.11750361 0.017386258
-0.067799568 -0.11459082 0.017370045
-0.066278137 -0.11361966 0.017381936
-0.067839213 -0.11798123 0.017315626
-0.064380258 -0.11361223 0.017354041
-0.063063234 -0.11294908 0.01718089
-0.063786216 -0.11597494 0.016575307
-0.061746199 -0.11399298 0.015329123
-0.060361821 -0.11317842 0.015369326
-0.058666483 -0.11174569 0.014832258
-0.059640259 -0.11543276 0.012492627
-0.066783205 -0.1313768 0.0097443461
-0.064228162 -0.12845632 0.0059606433
-0.084764816 -0.11462514 0.0096369982
-0.084749728 -0.11592204 0.012470752
-0.080454759 -0.11132693 0.01404807
-0.080797866 -0.11311702 0.014547974
-0.082583226 -0.11699291 0.015532106
-0.078632697 -0.11273845 0.016269475
-0.078910165 -0.11451598 0.016801536
-0.076767951 -0.11278255 0.016769379
-0.075381249 -0.11212961 0.017098933
-0.076398678 -0.11508155 0.017249107
-0.074828938 -0.11416209 0.01796335
-0.071327455 -0.11023334 0.018108755
-0.071987763 -0.11271769 0.018011719
-0.071861595 -0.11402039 0.017856151
-0.070415884 -0.11323635 0.017852426
-0.069227561 -0.11285041 0.017781377
-0.068621971 -0.11341687 0.017593503
-0.067839399 -0.11370266 0.017175853
-0.068999738 -0.11729956 0.017151386
-0.06496089 -0.11203399 0.017075598
-0.064402178 -0.11270382 0.017075598
-0.065161012 -0.11573374 0.015467674
-0.063157275 -0.11387449 0.01497525
-0.062212724 -0.11389714 0.013484895
-0.06239076 -0.11600781 0.011897177
-0.059509534 -0.1124069 0.011243761
-0.059319794 -0.11385573 0.0095809102
-0.057745371 -0.1126508 0.0059606433
-0.08344882 -0.11318345 0.0098999739
-0.08221852 -0.11281146 0.012679964
-0.081541605 -0.11319894 0.013866097
-0.079356208 -0.11147659 0.015010536
-0.078950681 -0.11224314 0.015467167
-0.078921951 -0.11357061 0.016276747
-0.076955006 -0.11210729 0.01657933
-0.076904871 -0.11343469 0.016733944
-0.075853266 -0.11329981 0.016788602
-0.073207878 -0.11075038 0.017327905
-0.073660336 -0.11288207 0.017857879
-0.073581152 -0.11424442 0.017762959
-0.071656056 -0.11273886 0.017638117
-0.071925297 -0.11469169 0.017522782
-0.069865622 -0.11293348 0.017599016
-0.068203628 -0.11177816 0.017189205
-0.068351924 -0.11359897 0.016508579
-0.065600276 -0.11058333 0.016424894
-0.065788761 -0.11250832 0.016270399
-0.065090112 -0.11295049 0.015617013
-0.064213678 -0.11309274 0.01499179
-0.062776946 -0.11223757 0.013498962
-0.062552564 -0.11355696 0.011360526
-0.059695106 -0.11006285 0.0098875761
-0.061251048 -0.11472418 0.0084290504
-0.088467501 -0.12035695 0.0075046122
-0.085857786 -0.11818072 0.012215763
-0.083618239 -0.11646826 0.013866097
-0.084508292 -0.11912614 0.014945596
-0.080661282 -0.11508989 0.015810788
-0.079915032 -0.11543282 0.015969008
-0.077005252 -0.11262019 0.016312689
-0.075116545 -0.11124855 0.016678333
-0.07441055 -0.11161582 0.016824543
-0.073621064 -0.11186577 0.017154485
-0.070290618 -0.10821056 0.017098933
-0.070482716 -0.10995304 0.016863227
-0.071042314 -0.11232366 0.017086327
-0.070486665 -0.11297178 0.017229408
-0.070518471 -0.11459251 0.016967833
-0.067775629 -0.1116866 0.016067356
-0.067728475 -0.11320331 0.015767336
-0.068095677 -0.11546658 0.01565066
-0.068167843 -0.11728879 0.014447302
-0.067710541 -0.1182408 0.012858808
-0.067330629 -0.11935885 0.010792464
-0.064756379 -0.11656148 0.0084964037
-0.065290995 -0.1193601 0.0072796047
-0.084031589 -0.1146784 0.0090101957
-0.085000619 -0.11738181 0.011671066
-0.081018515 -0.1132307 0.013761759
-0.077384025 -0.10947008 0.014504373
-0.078037404 -0.11175726 0.015148044
-0.075205527 -0.10904802 0.015851945
-0.077156916 -0.1132937 0.016073614
-0.075448669 -0.11220571 0.016769886
-0.072670355 -0.10947742 0.016958594
-0.073530816 -0.11223125 0.017081141
-0.070995778 -0.10980681 0.016795069
-0.069499567 -0.10894527 0.017081887
-0.070518173 -0.11205628 0.017135054
-0.068885125 -0.11098158 0.016874224
-0.06738279 -0.11009019 0.016011298
-0.067680307 -0.11215593 0.01553297
-0.06781242 -0.11400349 0.014592737
-0.065787748 -0.11222616 0.013246298
-0.065931097 -0.11414936 0.011003524
-0.064683631 -0.11368638 0.0087099373
-0.06545455 -0.1168112 0.0070365071
-0.08918947 -0.12066811 0.0061949193
-0.084554613 -0.11575929 0.010219485
-0.080249764 -0.11118943 0.012542725
-0.080000117 -0.11219529 0.013302714
-0.078143023 -0.1109438 0.013980418
-0.078371704 -0.11265932 0.015157282
-0.075015634 -0.10919997 0.015658885
-0.074559025 -0.10992677 0.01636824
-0.07498306 -0.11198769 0.016700298
-0.074154213 -0.11220703 0.016880095
-0.071455851 -0.10956564 0.016820252
-0.071502462 -0.1111187 0.016704351
-0.069111027 -0.10887353 0.016120523
-0.06893681 -0.1101074 0.016033053
-0.069474958 -0.11252987 0.014694422
-0.067387775 -0.11070848 0.01450941
-0.066003703 -0.11000618 0.01341483
-0.06813623 -0.11523039 0.011003524
-0.065389819 -0.11223625 0.0091764927
-0.065782174 -0.11462045 0.0072796047
-0.083377734 -0.1131555 0.0073618293
-0.082785875 -0.1137059 0.01075837
-0.079494931 -0.11051735 0.011802614
-0.078238778 -0.11011384 0.012930274
-0.076673672 -0.10925998 0.013988376
-0.075903736 -0.10953197 0.015157282
-0.074917503 -0.10949481 0.015891969
-0.07256154 -0.10742877 0.016020179
-0.071543664 -0.1073155 0.01635617
-0.072154731 -0.10967519 0.016055286
-0.071546718 -0.11022063 0.01601693
-0.068421707 -0.10685033 0.015823662
-0.069987118 -0.11081294 0.015462071
-0.068905622 -0.1106372 0.014510304
-0.067847408 -0.11049435 0.014098614
-0.068655282 -0.11343047 0.011495858
-0.066038765 -0.11071204 0.0096843243
-0.066286542 -0.11278605 0.0073939264
-0.084158391 -0.11321307 0.0053548813
-0.081128478 -0.11045203 0.0098999143
-0.078448817 -0.10810629 0.011281312
-0.078629605 -0.10969315 0.012557268
-0.076372169 -0.10787569 0.013645679
-0.07662937 -0.1096091 0.014733255
-0.075726181 -0.10970588 0.015550673
-0.072869509 -0.10693837 0.015958577
-0.073698498 -0.10957803 0.015958577
-0.072247684 -0.10885318 0.015920877
-0.070018426 -0.10692003 0.016036183
-0.070239812 -0.10872738 0.015535086
-0.06910719 -0.1084599 0.014795154
-0.068125613 -0.10842527 0.014336675
-0.067632549 -0.10917826 0.012993902
-0.068587013 -0.11232366 0.010515809
-0.066920213 -0.11120564 0.0078446865
-0.06760402 -0.11401872 0.0052951872
-0.080425747 -0.1085263 0.0072701275
-0.081834383 -0.11177379 0.010445982
-0.077123001 -0.10663921 0.011824846
-0.077921219 -0.10908971 0.013000578
-0.076866537 -0.10897534 0.014184296
-0.075179011 -0.10794935 0.015141159
-0.075574495 -0.10992654 0.015634984
-0.076096848 -0.11214272 0.015866339
-0.07156574 -0.1068715 0.015673906
-0.070838951 -0.10721572 0.015512139
-0.070045456 -0.107467 0.014713347
-0.069417402 -0.10798262 0.014230907
-0.069166161 -0.10910718 0.013495117
-0.066531204 -0.10644992 0.011295617
-0.067326233 -0.10928316 0.0091948509
-0.066832066 -0.11007634 0.0069631934
-0.081723675 -0.1092931 0.0079350173
-0.081159063 -0.10986166 0.010667831
-0.077646352 -0.10640426 0.012084335
-0.077147879 -0.10704268 0.013143182
-0.075152718 -0.10559433 0.014487207
-0.075513944 -0.10746215 0.014719844
-0.075133726 -0.10830966 0.015577257
-0.072612442 -0.10605238 0.015626132
-0.072565444 -0.10739686 0.015473962
-0.071301363 -0.10695205 0.014969409
-0.069872104 -0.10624389 0.014614493
-0.070817091 -0.10917635 0.01417762
-0.069010481 -0.10788962 0.012913615
-0.0665012 -0.10545191 0.010630906
-0.069474213 -0.11176287 0.0089825988
-0.06751252 -0.11020426 0.0069100261
-0.082201675 -0.10894198 0.007928133
-0.079280622 -0.10635205 0.010642946
-0.078785166 -0.10699221 0.011824846
-0.077052332 -0.10594696 0.012907833
-0.07703276 -0.10726081 0.014177471
-0.075715303 -0.106778 0.014707774
-0.073483497 -0.10497642 0.015389919
-0.073813498 -0.10683533 0.01560232
-0.072161317 -0.1058366 0.015311897
-0.070237704 -0.1044074 0.015090376
-0.071644455 -0.1079574 0.014180839
-0.069781914 -0.10661126 0.013487071
-0.068686232 -0.10641529 0.01240316
-0.068840764 -0.10817834 0.010383815
-0.067382567 -0.10742148 0.0080623031
-0.065039076 -0.10521027 0.005392462
-0.080353759 -0.10552482 0.0074447095
-0.079559051 -0.10575533 0.010307163
-0.07890781 -0.10618459 0.012068689
-0.078687169 -0.10721126 0.013009816
-0.076952234 -0.1061746 0.014173269
-0.075773716 -0.10588892 0.014639705
-0.073667958 -0.10428321 0.015479803
-0.073147826 -0.10490938 0.015634984
-0.070590943 -0.10259217 0.015294909
-0.073201604 -0.10782399 0.014692664
-0.070037521 -0.10457658 0.013966203
-0.06854526 -0.10376991 0.013307899
-0.070344888 -0.10799427 0.012377262
-0.068413012 -0.10652883 0.010032654
-0.067961991 -0.10736025 0.007586956
-0.068777241 -0.11024587 0.0052385032
-0.08236067 -0.10716809 0.0069945753
-0.079537712 -0.10475698 0.0092347562
-0.076752454 -0.1023366 0.011212349
-0.077765599 -0.10498355 0.012541145
-0.075193092 -0.10279562 0.013286591
-0.074998319 -0.10384382 0.013742149
-0.073888548 -0.10363588 0.014595062
-0.073859788 -0.10495864 0.014714658
-0.071732119 -0.10329425 0.014534593
-0.071476229 -0.10431666 0.013769597
-0.069024883 -0.10211901 0.013219357
-0.06970223 -0.10455334 0.012345374
-0.068376318 -0.10400905 0.010665357
-0.068473823 -0.10564532 0.0090630352
-0.06865599 -0.10746156 0.0067787766
-0.067240864 -0.10679431 0.0052568614
-0.08126349 -0.10476136 0.0054880381
-0.077833831 -0.10156365 0.0082341731
-0.077890955 -0.10289299 0.010168195
-0.076625727 -0.10248691 0.011699021
-0.075012967 -0.10159984 0.012613028
-0.076755375 -0.10529263 0.013566136
-0.07272587 -0.10106062 0.013876915
-0.073390417 -0.10332598 0.01390785
-0.072550029 -0.1035047 0.01366207
-0.06847509 -0.099011272 0.012680501
-0.071355216 -0.10458915 0.012191236
-0.069013715 -0.10256205 0.011204034
-0.067688547 -0.10200951 0.010232896
-0.068127751 -0.10413814 0.0085920095
-0.067439787 -0.10458054 0.0066680908
-0.080489688 -0.10404765 0.0070518851
-0.077419497 -0.1013144 0.0084559023
-0.075791448 -0.10042366 0.010925233
-0.07626912 -0.10233578 0.012098193
-0.071467526 -0.097122535 0.012596905
-0.074633881 -0.10274275 0.013214856
-0.074106678 -0.10335932 0.013203233
-0.069676682 -0.09847638 0.012565404
-0.0723297 -0.10360741 0.012172699
-0.070497096 -0.10236565 0.011131525
-0.068456486 -0.10078316 0.010340571
-0.070942245 -0.10591377 0.009078294
-0.068590261 -0.10386525 0.0067684352
-0.066471867 -0.1021162 0.0052848458
-0.077549577 -0.10052723 0.0075286925
-0.077223495 -0.10135584 0.0088588297
-0.075435042 -0.10026177 0.010886878
-0.076464489 -0.10293297 0.011185557
-0.074043415 -0.10096829 0.012052566
-0.072629146 -0.1003429 0.011931598
-0.073729344 -0.10322108 0.011579096
-0.071104549 -0.10089159 0.01084125
-0.07062377 -0.10158214 0.0098042786
-0.070291981 -0.10250914 0.0095381439
-0.068136968 -0.10076594 0.007514447
-0.068841003 -0.10326151 0.0057178736
-0.076203637 -0.099064723 0.0074903369
-0.076504715 -0.10071506 0.0082479119
-0.076225981 -0.10163464 0.0097388923
-0.073087707 -0.098715864 0.010301441
-0.071586318 -0.097960226 0.010215342
-0.071701519 -0.099426106 0.0098280907
-0.070601247 -0.099223375 0.0096954405
-0.071944028 -0.1024956 0.0077531934
-0.068756595 -0.099315085 0.0065550506
-0.06897983 -0.10104088 0.0057510734
-0.078971177 -0.10296243 0.0064654052
-0.075737752 -0.10001267 0.007455796
-0.076491237 -0.10231945 0.0077578425
-0.074708514 -0.10124969 0.007710427
-0.072598979 -0.099702597 0.0077578425
-0.073604867 -0.10245002 0.0075032115
-0.071940713 -0.10150539 0.0063928664
-0.070823371 -0.10131677 0.0051918924
0 0 0 1 0 0 0 1 0 0 0 1 0 0 0 0 0 1103 1 0 0
