ply
format ascii 1.0
comment PCL generated
element vertex 1010
property float x
property float y
property float z
element camera 1
property float view_px
property float view_py
property float view_pz
property float x_axisx
property float x_axisy
property float x_axisz
property float y_axisx
property float y_axisy
property float y_axisz
property float z_axisx
property float z_axisy
property float z_axisz
property float focal
property float scalex
property float scaley
property float centerx
property float centery
property int viewportx
property int viewporty
property float k1
property float k2
end_header
-0.091368981 0.027109478 0.0050802231
-0.088879049 0.026963307 0.0051859617
-0.086914748 0.027287187 0.0050091743
-0.092669286 0.027900431 0.0052228272
-0.092417575 0.028127087 0.0056637228
-0.089022078 0.027391408 0.0071067512
-0.089864619 0.027957881 0.0071523488
-0.089095101 0.028029921 0.0071352422
-0.087337941 0.027789345 0.0069659054
-0.087432511 0.0281392 0.0058128238
-0.085201591 0.027740052 0.0056566
-0.08324755 0.027422721 0.0055415928
-0.083658539 0.027886178 0.0051956475
-0.082209133 0.027733201 0.0050567985
-0.081589475 0.028203769 0.0050009191
-0.09072239 0.027988823 0.0052228272
-0.088901438 0.027721955 0.006367445
-0.085830517 0.027055273 0.0087660253
-0.088325217 0.028147597 0.010659307
-0.08595369 0.027696189 0.010315657
-0.085136726 0.027741181 0.010508776
-0.084114783 0.027719645 0.0099670589
-0.08358451 0.027861504 0.0094677806
-0.081608705 0.027519215 0.0094401836
-0.081474714 0.027797254 0.0093271136
-0.07976 0.027536189 0.0088255107
-0.079317883 0.027713478 0.0091822147
-0.080636069 0.028517634 0.0092360079
-0.078444824 0.028085185 0.0092865825
-0.079003163 0.028638646 0.0092360079
-0.077902779 0.028597223 0.0090281963
-0.074963644 0.0278711 0.0083306134
-0.076036282 0.028637042 0.0076333284
-0.075288936 0.028728673 0.0075958669
-0.073737375 0.028511785 0.0074477494
-0.07415086 0.029059121 0.0074028671
-0.072243601 0.028699512 0.0068785846
-0.071608096 0.028842149 0.006333977
-0.071076125 0.029031092 0.006333977
-0.069009893 0.028589811 0.0067013204
-0.068145931 0.028641043 0.0071185231
-0.067918889 0.028965408 0.0064964592
-0.066331081 0.02871047 0.0063202381
-0.06542547 0.028747555 0.0059406161
-0.065137908 0.029061528 0.0056866705
-0.063136652 0.029062903 0.0050065815
-0.061958633 0.028980652 0.005006969
-0.088513419 0.028248962 0.0061312318
-0.087934755 0.02836605 0.010392636
-0.088232018 0.028771311 0.012279809
-0.087244406 0.028761894 0.013803899
-0.084246159 0.028082052 0.014377475
-0.085441887 0.028800637 0.014485389
-0.084179066 0.028697409 0.014728814
-0.083172716 0.028680246 0.014453381
-0.083743654 0.029212903 0.014221489
-0.080777198 0.028509598 0.014121473
-0.08066649 0.02880946 0.012904793
-0.080721751 0.029176537 0.013188064
-0.078319907 0.028653624 0.013186127
-0.077568538 0.028729089 0.013209522
-0.076477177 0.028678941 0.012838453
-0.0747412 0.028382735 0.012838453
-0.074206248 0.028540863 0.012707323
-0.073678881 0.028706057 0.012258083
-0.070547059 0.027847523 0.012223542
-0.07148356 0.028593423 0.012200177
-0.070797406 0.02870165 0.012135357
-0.068317279 0.028075594 0.012090325
-0.069360361 0.028900152 0.011402249
-0.067182377 0.028386919 0.011181235
-0.066499807 0.028499916 0.011015624
-0.066990331 0.029126231 0.010982037
-0.064032033 0.028249426 0.01096496
-0.063472867 0.028420687 0.011116356
-0.063481323 0.028855145 0.0084863901
-0.061876778 0.028558513 0.008310169
-0.062091015 0.029105162 0.0076922476
-0.060003363 0.028573029 0.0073574781
-0.057913199 0.028022517 0.007180959
-0.062249888 0.030614698 0.007136941
-0.059985787 0.029992893 0.0067069232
-0.059855521 0.030435011 0.0064925849
-0.064389654 0.033304993 0.0060185194
-0.062497608 0.032893479 0.0056547523
-0.055834062 0.029911105 0.0052901208
-0.054563802 0.029762074 0.0056210756
-0.091547266 0.029873317 0.0062437057
-0.091386087 0.030137965 0.010498285
-0.088045999 0.029348668 0.012811124
-0.088023782 0.029660188 0.013929754
-0.086020045 0.02930353 0.015264392
-0.086058252 0.029642286 0.015236944
-0.084801584 0.029537629 0.015150577
-0.084206671 0.029663714 0.015395254
-0.083358362 0.029702405 0.015077859
-0.081471704 0.029367708 0.015205026
-0.081573308 0.029750263 0.015216231
-0.080579109 0.02973753 0.014809042
-0.078901753 0.029469328 0.014492661
-0.076999284 0.029109487 0.014492661
-0.077107437 0.029510254 0.014546454
-0.075277023 0.029169844 0.013994068
-0.076363206 0.029965309 0.013832659
-0.074920684 0.029776171 0.013625503
-0.072694674 0.029266685 0.013596386
-0.072473407 0.02956152 0.013744086
-0.072676145 0.030039473 0.013584971
-0.069771573 0.029228633 0.013090521
-0.070130922 0.029781625 0.013323724
-0.068765529 0.029607382 0.013230264
-0.067448452 0.029449323 0.013090342
-0.067445479 0.029868713 0.013025701
-0.064704016 0.029069921 0.013107002
-0.064484574 0.02939738 0.012901545
-0.06485939 0.030009568 0.012740731
-0.061823934 0.029038515 0.012373149
-0.06101096 0.029097535 0.01157245
-0.061268061 0.029676719 0.010258287
-0.059563447 0.029308997 0.010251909
-0.059198994 0.029599497 0.0089817345
-0.060909212 0.030953862 0.0083016157
-0.057940152 0.029935746 0.008128047
-0.058529966 0.030753033 0.0073239505
-0.056865033 0.030393379 0.0071163774
-0.055151347 0.029994592 0.0067745447
-0.055414315 0.030675782 0.0067366362
-0.052885182 0.029808013 0.0069651008
-0.052657142 0.030229101 0.0063899159
-0.05249675 0.030705648 0.0052570701
-0.092534438 0.030844811 0.0051651895
-0.089711018 0.030218448 0.010576129
-0.090447195 0.030790534 0.012811124
-0.089125067 0.03066669 0.013785869
-0.088030607 0.030619342 0.015238971
-0.089576378 0.031499386 0.015744865
-0.085616693 0.030441491 0.015869737
-0.085016988 0.030567905 0.015825599
-0.085792519 0.03119728 0.015891105
-0.082787797 0.030450685 0.015788049
-0.082154922 0.030569274 0.01583904
-0.081374705 0.030635182 0.015698761
-0.080407433 0.030631403 0.015512377
-0.079249613 0.030554067 0.015310198
-0.079022154 0.030837914 0.015241474
-0.077385195 0.03057193 0.015433818
-0.077728093 0.031091236 0.015241474
-0.07536336 0.030526932 0.015310198
-0.073243678 0.030048689 0.015432209
-0.073599555 0.030586828 0.015336663
-0.072680697 0.030602397 0.015336663
-0.07056544 0.030107921 0.014857501
-0.070830218 0.030629283 0.014842808
-0.068915755 0.030209646 0.014777243
-0.068230376 0.03032461 0.014763147
-0.068116851 0.030700553 0.014716864
-0.066274531 0.030296929 0.014469981
-0.065701462 0.030470243 0.014477432
-0.064183734 0.030204112 0.014560044
-0.063336417 0.030250229 0.014661103
-0.062560216 0.030332228 0.01403752
-0.062479693 0.030759234 0.013058037
-0.060126752 0.030063376 0.012309015
-0.060655352 0.030809067 0.012236446
-0.058754642 0.030324975 0.010745943
-0.05948605 0.031205798 0.010660797
-0.0580189 0.030943414 0.010240734
-0.057475001 0.031172881 0.009714663
-0.055559088 0.030653289 0.0086944699
-0.056587942 0.031768668 0.008517772
-0.053952567 0.030830039 0.0078722537
-0.052617386 0.030613752 0.0088972747
-0.052715048 0.031238547 0.0075090528
-0.051436778 0.031056168 0.00636217
-0.049541064 0.030486809 0.0053177774
-0.090999588 0.03128111 0.0088013113
-0.091244109 0.031695321 0.012278765
-0.0897393 0.031504225 0.013594657
-0.087712072 0.03112364 0.014954269
-0.088860467 0.031873863 0.015548259
-0.086273603 0.031286031 0.016179293
-0.08588662 0.03149176 0.016102076
-0.087401241 0.032407202 0.015974283
-0.083228558 0.031210709 0.016112983
-0.082686737 0.031363934 0.016090572
-0.082059868 0.031488087 0.01620701
-0.080996133 0.031445559 0.015877485
-0.079426169 0.03120314 0.015829384
-0.079050384 0.031429671 0.01579538
-0.077576093 0.031219648 0.015843987
-0.076499589 0.031166498 0.016005039
-0.07652285 0.031565674 0.015555084
-0.074670956 0.031191666 0.015555084
-0.074264959 0.031419791 0.01572907
-0.073790759 0.031624608 0.015762061
-0.070960462 0.030811779 0.015711516
-0.072225563 0.031779248 0.015267611
-0.070913695 0.031623673 0.015458852
-0.068821825 0.031111239 0.016008198
-0.069689818 0.031941164 0.015504509
-0.067580208 0.031410519 0.015902966
-0.065811798 0.031025562 0.015384138
-0.066016227 0.031572975 0.01528275
-0.064836249 0.031464651 0.01575008
-0.063975573 0.031510357 0.015585512
-0.064206049 0.032103024 0.014906436
-0.061721444 0.031335503 0.0142591
-0.06120459 0.031558618 0.013624728
-0.059774179 0.031310283 0.012993395
-0.058659598 0.031222044 0.012251168
-0.061157648 0.033085287 0.01214689
-0.057783924 0.031781159 0.011983126
-0.056970473 0.031864841 0.011394024
-0.056020845 0.031873927 0.011288643
-0.055381872 0.03206319 0.01031673
-0.053167291 0.031330723 0.0099622309
-0.052918393 0.031751037 0.010832459
-0.051253807 0.031321771 0.0094766319
-0.051603742 0.032130633 0.0077966452
-0.050333407 0.031942353 0.0063787699
-0.048885819 0.031632002 0.005309999
-0.093207739 0.033011075 0.010663688
-0.090218343 0.032288671 0.013001144
-0.088394508 0.031972479 0.013982177
-0.089751534 0.03281239 0.01546824
-0.087838322 0.03246199 0.016016781
-0.086529948 0.032329872 0.016280204
-0.086603686 0.032716949 0.016148359
-0.084512696 0.03228575 0.015990973
-0.084126651 0.032503482 0.016239464
-0.085569382 0.033440907 0.016232073
-0.081999749 0.032418508 0.016332567
-0.080033757 0.032013502 0.016053587
-0.080526792 0.032594178 0.016062081
-0.078568071 0.032184511 0.016053587
-0.077436946 0.032108001 0.016086787
-0.078648403 0.033012912 0.016393781
-0.07555823 0.032112248 0.016219854
-0.076112978 0.032757483 0.016154408
-0.075073667 0.032724421 0.016276866
-0.073241979 0.032340612 0.016154408
-0.072005041 0.032212779 0.016171992
-0.072150305 0.032708138 0.015815467
-0.070752241 0.032507788 0.016200036
-0.070489608 0.032830779 0.016288906
-0.068635322 0.032411125 0.0161075
-0.067010097 0.032089341 0.016113758
-0.067177333 0.032628991 0.015952706
-0.064768136 0.031914733 0.015842706
-0.064566948 0.032283474 0.015943915
-0.064387888 0.03267445 0.015756488
-0.062260326 0.032073501 0.015637428
-0.061298311 0.032063734 0.014947087
-0.060855843 0.032329667 0.014448315
-0.059382416 0.032047655 0.013954222
-0.058891378 0.032295272 0.012946665
-0.060100228 0.033498488 0.012473524
-0.05610387 0.031792194 0.011949599
-0.057670373 0.033233777 0.011725754
-0.05579333 0.032706436 0.011774629
-0.054139301 0.032293618 0.011353105
-0.05340689 0.032425612 0.010366172
-0.051702496 0.031961542 0.011289448
-0.051138349 0.03219822 0.010202318
-0.05065161 0.032493483 0.008818686
-0.050094925 0.032754373 0.0068759322
-0.049004003 0.032669336 0.0053126216
-0.091952883 0.033524487 0.010446519
-0.090357274 0.033289522 0.012877405
-0.091254957 0.033977907 0.013963103
-0.089196973 0.033568755 0.015166819
-0.087612495 0.033330839 0.015537083
-0.087605238 0.033694323 0.016102076
-0.085681751 0.033320684 0.016252726
-0.084205449 0.0331145 0.016140193
-0.084121421 0.033457384 0.016344756
-0.082197942 0.033068139 0.016207814
-0.081571102 0.033197541 0.01672852
-0.083549678 0.03440281 0.016276866
-0.080718838 0.033632848 0.016289413
-0.07828556 0.033011984 0.016415238
-0.077904493 0.033251915 0.016415238
-0.077386014 0.033438403 0.01702103
-0.07706856 0.033717494 0.016995877
-0.076224059 0.033770155 0.017014951
-0.073493898 0.032978032 0.017211914
-0.073527567 0.033421621 0.01698786
-0.073070683 0.033650976 0.016726941
-0.070761852 0.033022195 0.016520232
-0.07116212 0.033657759 0.016587883
-0.069851704 0.033490542 0.016681284
-0.068817832 0.033453114 0.016393989
-0.068250954 0.033644836 0.016549408
-0.066697314 0.033348657 0.016308546
-0.064099714 0.032514345 0.016263306
-0.065623976 0.033777047 0.016227961
-0.064371563 0.033626936 0.016078711
-0.062529765 0.033159725 0.015853703
-0.062510081 0.033659276 0.015547037
-0.060328975 0.032992408 0.015241176
-0.060240626 0.033467013 0.014781773
-0.059567101 0.03362659 0.013819009
-0.059282001 0.034014262 0.013341218
-0.057719138 0.033669498 0.012475848
-0.056574155 0.033560939 0.012125611
-0.054354377 0.032800056 0.01198715
-0.055509236 0.034084618 0.011708081
-0.052941103 0.033088189 0.011140943
-0.052489746 0.033402566 0.011679471
-0.052415047 0.033972714 0.01092872
-0.050855983 0.03358414 0.0096480846
-0.049309194 0.033188879 0.0077896714
-0.048909515 0.033565354 0.0059568584
-0.091823645 0.034433868 0.01025638
-0.092679136 0.035120513 0.012674779
-0.089580469 0.034307413 0.013594657
-0.08733891 0.033808611 0.014771193
-0.088741042 0.034724753 0.015476108
-0.086386189 0.034174755 0.016073942
-0.085223399 0.034089357 0.016103834
-0.084924065 0.034351308 0.016063392
-0.083347999 0.034096908 0.016178966
-0.083426088 0.03452114 0.016461015
-0.08284606 0.034679748 0.016984493
-0.081290178 0.034428783 0.01650551
-0.078263849 0.03354165 0.016507447
-0.080643393 0.034977857 0.016592652
-0.078915328 0.034645755 0.016567498
-0.076833382 0.034148168 0.016995877
-0.075821541 0.034119692 0.016998857
-0.074527413 0.033961859 0.017101705
-0.075278871 0.034744095 0.017238736
-0.073336594 0.03428724 0.017014951
-0.071950994 0.034082051 0.017041773
-0.07278084 0.034934804 0.016200036
-0.070149422 0.034126747 0.016499043
-0.068667307 0.033863328 0.016624004
-0.069008298 0.034504149 0.016421974
-0.067567147 0.034259401 0.01647979
-0.066862039 0.034386192 0.016315728
-0.066606142 0.034751032 0.016253144
-0.064112321 0.033941817 0.016135693
-0.063079678 0.033893559 0.015918344
-0.063243523 0.034496468 0.015650481
-0.062228542 0.034465041 0.015426964
-0.060779363 0.03418839 0.015232205
-0.06001243 0.034292817 0.014634609
-0.057704717 0.033505965 0.013829529
-0.059797667 0.035290428 0.013388425
-0.056263953 0.033758372 0.012523174
-0.055814378 0.034056231 0.012433797
-0.055386104 0.034377582 0.011909664
-0.055088796 0.034792922 0.011713088
-0.05264492 0.033843163 0.011097252
-0.052799303 0.034559544 0.011554211
-0.050987039 0.033991359 0.010844439
-0.050735604 0.034461919 0.0095022023
-0.050380923 0.0348791 0.0077689886
-0.047923587 0.033828415 0.0063440204
-0.093115099 0.035888109 0.0087732375
-0.091514058 0.035642318 0.01244694
-0.089338332 0.035165086 0.013692439
-0.089135565 0.035462536 0.014624
-0.088621497 0.035641253 0.015225291
-0.086922549 0.035342138 0.015875429
-0.086659275 0.03562659 0.016026378
-0.085146993 0.035398189 0.015817016
-0.083470941 0.035095736 0.015867263
-0.084026091 0.035735235 0.015984654
-0.081837103 0.035208985 0.01672405
-0.080217965 0.034918409 0.016251743
-0.081736512 0.03600299 0.016292274
-0.078289717 0.034900237 0.016618788
-0.077513382 0.034975551 0.016488045
-0.078668736 0.0359351 0.016651392
-0.076554023 0.035406236 0.016628742
-0.077178352 0.03614682 0.016802698
-0.073254623 0.034748986 0.016801864
-0.0729234 0.035041116 0.016798228
-0.072187342 0.035143837 0.016798228
-0.070672631 0.034865163 0.016496569
-0.070322998 0.035161499 0.016601205
-0.069041058 0.034993414 0.016667485
-0.068132624 0.035012595 0.016318709
-0.066464767 0.034636568 0.01647979
-0.066609032 0.035207633 0.016267657
-0.065716781 0.035239436 0.016253144
-0.064035363 0.034842774 0.01616475
-0.064211205 0.035459921 0.015940398
-0.061916091 0.034710538 0.01561901
-0.061900776 0.035235826 0.01542744
-0.060793649 0.03514633 0.015055627
-0.059407581 0.034890167 0.014634609
-0.059234817 0.035349812 0.01378119
-0.060168035 0.036495365 0.013338745
-0.056302536 0.034719899 0.012523174
-0.056750625 0.035589375 0.012433797
-0.0556705 0.035513941 0.0117549
-0.055070642 0.03574761 0.011568427
-0.053740557 0.035507154 0.011067331
-0.052856978 0.035558332 0.011522621
-0.050370958 0.034513433 0.010766119
-0.050869942 0.03551298 0.0093748271
-0.048585258 0.03457028 0.0076862574
-0.047495805 0.034457743 0.005692333
-0.092950895 0.036793064 0.008677572
-0.090150177 0.036060072 0.012200922
-0.089753732 0.036283422 0.013498873
-0.08989913 0.036732979 0.01448673
-0.087067552 0.035962686 0.015035838
-0.087335713 0.036469858 0.016122401
-0.086420849 0.036488801 0.016092569
-0.083797701 0.035778791 0.015984058
-0.084998704 0.036703985 0.016060323
-0.083133116 0.036311015 0.016170561
-0.081035048 0.035806183 0.016723514
-0.083030611 0.037119567 0.016566664
-0.079489157 0.035959378 0.016601324
-0.07888741 0.036117129 0.016617507
-0.077954911 0.036125448 0.016643375
-0.076802857 0.036030971 0.016690284
-0.076712243 0.036438316 0.01678291
-0.075403027 0.03626981 0.016801864
-0.073350012 0.035734624 0.016805351
-0.073968254 0.036503814 0.016798228
-0.072382823 0.036191411 0.016805351
-0.070512697 0.035726435 0.016527355
-0.070121281 0.036008228 0.016643614
-0.069272161 0.03605948 0.016667485
-0.068343654 0.036070261 0.016228229
-0.067958422 0.036372114 0.016315728
-0.066702694 0.036210034 0.016076267
-0.065092519 0.035848051 0.016173899
-0.065078072 0.036367159 0.016102612
-0.063905053 0.036244657 0.015903443
-0.062765248 0.036137566 0.015577137
-0.062541038 0.036562454 0.015330166
-0.060349725 0.035832647 0.014866143
-0.06071448 0.036621433 0.014515013
-0.058635525 0.035937902 0.013639033
-0.059198219 0.03687758 0.013309807
-0.057704967 0.036546476 0.012433797
-0.056637317 0.036478274 0.011805534
-0.055552244 0.036396299 0.011554211
-0.055508278 0.037005518 0.010958642
-0.053204603 0.036103126 0.010063708
-0.052627236 0.036360636 0.010993779
-0.051469181 0.036219053 0.009436965
-0.05089378 0.036489882 0.007645905
-0.048964269 0.035781581 0.0064311028
-0.090829864 0.03689963 0.0052536726
-0.092057988 0.037792228 0.01105988
-0.090409361 0.037510265 0.013002306
-0.087195605 0.0365659 0.014072627
-0.088853702 0.037666243 0.014879733
-0.086685434 0.037150901 0.015323907
-0.084725887 0.03671455 0.015798301
-0.086064182 0.03771352 0.015594661
-0.083879754 0.037173983 0.015594661
-0.083813213 0.037571441 0.015812665
-0.083449855 0.03784354 0.016571879
-0.080992006 0.037161037 0.016270012
-0.079654925 0.036982644 0.016163737
-0.080194451 0.037681729 0.016102344
-0.078612007 0.037388638 0.016476154
-0.077186175 0.037163712 0.016652167
-0.077973478 0.038012069 0.016715944
-0.074617103 0.036836293 0.016784906
-0.074508138 0.037254069 0.016784906
-0.073798731 0.037378579 0.016715944
-0.072063744 0.036980078 0.016726941
-0.072964713 0.03794165 0.016549796
-0.071012594 0.037425555 0.016668499
-0.068002485 0.036330096 0.016808659
-0.068901911 0.037321869 0.01638931
-0.067174107 0.036898453 0.016643167
-0.066502891 0.037051611 0.016297728
-0.066662036 0.03767854 0.016208053
-0.06498798 0.037272517 0.016172647
-0.063270561 0.036829133 0.015940398
-0.063165076 0.037324816 0.015577137
-0.062043771 0.037226263 0.015351444
-0.061074562 0.037217312 0.014872938
-0.060019787 0.037155107 0.014484525
-0.058311455 0.036679786 0.013483852
-0.060928386 0.038954213 0.01282692
-0.057933956 0.037657071 0.011794806
-0.055922989 0.036966044 0.011262029
-0.056972656 0.038309198 0.010979682
-0.055712193 0.038118869 0.0095866024
-0.053929985 0.037558384 0.0078269839
-0.054454833 0.038613427 0.0094115734
-0.052665375 0.038036104 0.0076240897
-0.050546307 0.037194453 0.0062744617
-0.051582828 0.038687121 0.0050964952
-0.091783911 0.038645856 0.010319352
-0.088111863 0.03749441 0.012202203
-0.089281224 0.038400527 0.01379478
-0.088464506 0.038462829 0.014774352
-0.085451111 0.037560929 0.015110612
-0.086447656 0.03842118 0.015327841
-0.084267616 0.037873086 0.015398413
-0.083126538 0.037784789 0.015438259
-0.083891913 0.038570996 0.015556991
-0.082732424 0.038480196 0.016166389
-0.08002948 0.037660934 0.015719622
-0.080026701 0.038107954 0.015722841
-0.079788066 0.038452078 0.015779644
-0.07768666 0.037895933 0.015808433
-0.077183947 0.038115531 0.016466707
-0.075050838 0.037525419 0.016530991
-0.075663246 0.038310505 0.016530991
-0.073905773 0.037900399 0.016530991
-0.071565993 0.037177138 0.016585946
-0.072347641 0.038077705 0.016766667
-0.071656369 0.038216729 0.016579986
-0.070087269 0.03788501 0.016741067
-0.069870062 0.038284965 0.016861945
-0.068382442 0.037990246 0.016377926
-0.067038387 0.037768107 0.016591012
-0.067346543 0.038483739 0.016161323
-0.064898163 0.037622124 0.016145915
-0.063915044 0.037597083 0.01611051
-0.063802458 0.038091019 0.015845209
-0.062664293 0.037978359 0.015451163
-0.06186134 0.038068514 0.01494208
-0.061953373 0.038720857 0.014791995
-0.059861481 0.038007289 0.014246941
-0.059167478 0.038172565 0.013178706
-0.059464253 0.038992953 0.012125611
-0.057129558 0.038086373 0.011497319
-0.057607591 0.039055992 0.010135502
-0.056733098 0.039126273 0.0093752146
-0.054167185 0.038012061 0.0079396963
-0.055503588 0.039645419 0.0063128173
-0.052877974 0.038456708 0.0066621006
-0.051433932 0.038099207 0.0057916343
-0.091957472 0.039686907 0.008435607
-0.09061151 0.039522041 0.011710137
-0.090714164 0.039992265 0.013204604
-0.086010203 0.038330633 0.014429986
-0.088012703 0.039654076 0.014858544
-0.086969823 0.039619584 0.015417755
-0.083761021 0.038586538 0.015305579
-0.084481329 0.03936062 0.015460938
-0.082434386 0.038848389 0.01557979
-0.082442671 0.039304066 0.01615262
-0.082896695 0.039985463 0.015897036
-0.079153702 0.038634546 0.015913963
-0.078404583 0.038729973 0.015901357
-0.079188004 0.039594002 0.015805632
-0.076188914 0.03856476 0.016617507
-0.076723687 0.03932089 0.016681284
-0.076077595 0.039483313 0.016795903
-0.073885046 0.038837012 0.016795903
-0.074087478 0.039449178 0.016798228
-0.07251031 0.039117403 0.016990513
-0.070340022 0.038452547 0.016866535
-0.071172796 0.039433576 0.016866535
-0.070180885 0.039416663 0.016959846
-0.067155421 0.038241278 0.016914278
-0.069138914 0.039925288 0.016808808
-0.066828378 0.039142337 0.016253144
-0.065148212 0.038711254 0.016147405
-0.064386055 0.038821004 0.016070217
-0.063669689 0.038962051 0.01561901
-0.062588044 0.038880453 0.015379637
-0.062016316 0.039117984 0.014789879
-0.060397584 0.038692202 0.014518857
-0.061172765 0.039810847 0.014146477
-0.059161503 0.039122928 0.012546927
-0.058541976 0.039347887 0.011147708
-0.060206696 0.041141242 0.0097161829
-0.058316637 0.04052512 0.0075292289
-0.05668563 0.040070876 0.0063737631
-0.057653543 0.041470092 0.0053408444
-0.090743087 0.040117998 0.0084100664
-0.091187753 0.040743463 0.011333287
-0.086864203 0.039228994 0.012752891
-0.08854349 0.04042203 0.013839006
-0.087462373 0.040367249 0.014622182
-0.086183771 0.040219091 0.015170574
-0.085077643 0.040149 0.015432566
-0.083239436 0.039727915 0.015432566
-0.082355171 0.039757669 0.01557979
-0.083499908 0.040779028 0.015993506
-0.080725379 0.039887834 0.015789658
-0.080359988 0.040179994 0.015748352
-0.079611547 0.04028536 0.015873075
-0.078027062 0.039965082 0.015777349
-0.075839847 0.039324366 0.01623714
-0.076692253 0.040263433 0.016508758
-0.073799364 0.039235104 0.016650349
-0.074339867 0.040029161 0.016612381
-0.072985835 0.039810453 0.016537488
-0.07076221 0.039105434 0.016798854
-0.072245516 0.040457491 0.016824126
-0.0704519 0.039986212 0.016853631
-0.067065641 0.038585715 0.016904145
-0.068949051 0.040220279 0.016875714
-0.067434758 0.039890982 0.016577661
-0.065189362 0.039113618 0.016222298
-0.066356756 0.040391069 0.015986323
-0.063774452 0.039390106 0.015854478
-0.064279169 0.040294405 0.015723288
-0.063068062 0.040134221 0.015122503
-0.060226757 0.03891575 0.014739126
-0.060889959 0.039959036 0.014274329
-0.059079397 0.039386265 0.013345867
-0.057650317 0.03905344 0.011597037
-0.059461765 0.040940888 0.0097156465
-0.060177878 0.042124514 0.0079633594
-0.057845727 0.041178316 0.0057916343
-0.058545019 0.042394668 0.0050238669
-0.08950416 0.040943392 0.0089645386
-0.092529662 0.042782534 0.011559635
-0.089503877 0.041833334 0.012759298
-0.086509041 0.040877897 0.013997763
-0.085109361 0.040663362 0.014252126
-0.084835 0.0409877 0.014915377
-0.08486934 0.041470248 0.015033871
-0.083438955 0.041239943 0.015284598
-0.081777208 0.040888604 0.015827894
-0.0806126 0.040780492 0.015746832
-0.080798358 0.041361067 0.015756786
-0.07964658 0.041262686 0.015922397
-0.078335568 0.041078411 0.015922397
-0.078825481 0.041845627 0.01623866
-0.074898005 0.040257677 0.016332865
-0.075811014 0.041264221 0.016557783
-0.07492651 0.041305639 0.016413927
-0.073018737 0.0407767 0.016412735
-0.073213145 0.041423228 0.01664415
-0.071224429 0.040835336 0.016556919
-0.070066035 0.040714048 0.016579986
-0.070122615 0.041305099 0.016742259
-0.068793222 0.041084837 0.01644662
-0.067435794 0.040841397 0.016403347
-0.066542111 0.040875871 0.0160864
-0.065943025 0.041094929 0.01564914
-0.064120218 0.040546611 0.015412033
-0.063916631 0.041021124 0.015185833
-0.062197428 0.040522568 0.014776438
-0.062562384 0.041387424 0.014518857
-0.061589144 0.041380204 0.013669044
-0.058641952 0.040025458 0.012447655
-0.05836172 0.040476676 0.010302812
-0.059573483 0.041994423 0.0079819858
-0.058723986 0.042085521 0.0055700243
-0.09271431 0.04339819 0.0055169165
-0.091690205 0.043380313 0.0096760988
-0.090939544 0.043492824 0.01188913
-0.086897179 0.042016219 0.012547195
-0.086159743 0.042122543 0.013365775
-0.085137002 0.042090204 0.014097542
-0.084423229 0.042211615 0.014575481
-0.082012787 0.041477729 0.015096039
-0.081933908 0.041919675 0.015349746
-0.082009152 0.042451795 0.015315413
-0.079281688 0.041528501 0.015313715
-0.079127803 0.041947272 0.015236586
-0.079324625 0.042564433 0.015192151
-0.077213421 0.041943096 0.015590817
-0.077162281 0.042439256 0.015950978
-0.075867042 0.042255063 0.016117513
-0.073495887 0.041459218 0.015950978
-0.074478112 0.042558923 0.015869766
-0.07259813 0.042030495 0.016317934
-0.069552414 0.040804084 0.016085446
-0.070766456 0.042077355 0.015904695
-0.069089457 0.04164296 0.016205847
-0.067765489 0.041412242 0.016216993
-0.068108536 0.042208105 0.016062915
-0.066530377 0.041819096 0.015410304
-0.065573983 0.041815292 0.015324593
-0.064613387 0.041808665 0.015116543
-0.063881569 0.041952074 0.014964044
-0.06310416 0.042069439 0.014656961
-0.062880471 0.042565241 0.014182538
-0.059766836 0.041089702 0.013491362
-0.060779497 0.042449173 0.010630757
-0.059982933 0.042568535 0.0092208982
-0.058010645 0.041843746 0.0056795478
-0.088525288 0.042834815 0.0059650838
-0.093042515 0.045509927 0.009100318
-0.086749375 0.04289804 0.011582047
-0.084440619 0.042220309 0.012331694
-0.085873954 0.043419413 0.013491482
-0.083222799 0.042557113 0.01423955
-0.083257213 0.043064076 0.014467627
-0.083405137 0.043642223 0.015161097
-0.080554776 0.042646646 0.015161097
-0.079120554 0.04238601 0.015104502
-0.081049405 0.043942448 0.015096039
-0.078418128 0.043034337 0.015013188
-0.077863038 0.043257244 0.014962643
-0.076412946 0.04298228 0.015519708
-0.07454396 0.042461749 0.015836537
-0.075699255 0.043672647 0.015671074
-0.072920784 0.042616043 0.015777737
-0.071479701 0.042323504 0.015851766
-0.072158337 0.043295003 0.015614092
-0.071400657 0.04341932 0.015395612
-0.06854555 0.042254105 0.015733689
-0.069199838 0.043249898 0.015780598
-0.067144699 0.042556498 0.015349686
-0.066308409 0.042626832 0.015074313
-0.06662526 0.043451257 0.015009105
-0.063913472 0.042295679 0.014781862
-0.064118288 0.04306452 0.014754176
-0.063034214 0.04297787 0.014186352
-0.062837988 0.043503225 0.013493478
-0.064376049 0.045264412 0.011257619
-0.059802484 0.04271606 0.0091679394
-0.056834608 0.041250926 0.0065852106
-0.09166491 0.045832455 0.0060031414
-0.086140528 0.043543566 0.0090542138
-0.087229021 0.044583723 0.010516971
-0.085059598 0.043963388 0.012295246
-0.083982244 0.043899808 0.012475848
-0.085047849 0.044967826 0.013795584
-0.081362508 0.043519478 0.014449894
-0.081572063 0.04414488 0.014575481
-0.081686437 0.044733047 0.01453945
-0.078735396 0.043636482 0.014467627
-0.077368289 0.043401722 0.014537722
-0.078236856 0.044430807 0.014428705
-0.075266078 0.043277998 0.014585882
-0.076148778 0.044339798 0.015086144
-0.07531023 0.044413727 0.015025705
-0.072871268 0.043533485 0.015281975
-0.072932169 0.044143155 0.015568942
-0.070948482 0.043515068 0.015355468
-0.069685392 0.043317948 0.015236527
-0.069839679 0.044008568 0.015078843
-0.068759732 0.04392983 0.015168011
-0.067094713 0.043469813 0.014766216
-0.067019977 0.044041701 0.014531404
-0.065926969 0.043951314 0.014421731
-0.064585492 0.043690186 0.014108092
-0.063617334 0.043677572 0.014030367
-0.064599261 0.045023728 0.012962222
-0.063537613 0.044965077 0.011339754
-0.064313792 0.046225537 0.009419769
-0.061754789 0.045090798 0.0065201521
-0.087955929 0.045427788 0.0059570372
-0.087631233 0.045762978 0.008719027
-0.083380207 0.044032246 0.0097868145
-0.085453011 0.045639675 0.011626124
-0.083013155 0.044846188 0.012616634
-0.081908986 0.044764213 0.013741165
-0.081893675 0.045282386 0.014341027
-0.079488732 0.044475839 0.01437062
-0.079496056 0.045015838 0.014346451
-0.078532323 0.045012429 0.014237672
-0.077421539 0.044923607 0.01415661
-0.077347822 0.045441847 0.014266461
-0.076554559 0.045545116 0.014903575
-0.073058546 0.044022456 0.014954209
-0.074165024 0.04526956 0.015187174
-0.07344339 0.045418937 0.015223563
-0.070899859 0.044430576 0.015117854
-0.069490016 0.044135552 0.014966458
-0.069620617 0.044824231 0.014644206
-0.06853094 0.044735473 0.014741987
-0.06723614 0.044508431 0.014461488
-0.0665958 0.044714324 0.014217466
-0.06600333 0.044958793 0.014011651
-0.065668166 0.045388293 0.013283044
-0.063955672 0.044864427 0.012754738
-0.06353794 0.045246713 0.011415988
-0.064056396 0.046317704 0.0094595253
-0.061014939 0.044807844 0.0064179897
-0.088238202 0.047589142 0.0077347457
-0.084237091 0.045947503 0.0086914301
-0.08392448 0.046303164 0.011725217
-0.08233919 0.045956761 0.012477875
-0.080157667 0.045265507 0.012901902
-0.079635143 0.045505796 0.013851106
-0.080962799 0.046821859 0.013971061
-0.077923134 0.045613542 0.014053136
-0.077264361 0.045786288 0.013944328
-0.076761894 0.046057139 0.01408267
-0.074335687 0.045165986 0.014229238
-0.074979283 0.046141099 0.014220446
-0.073785149 0.04599594 0.014657885
-0.071613021 0.045229275 0.014595896
-0.071848162 0.045982823 0.014520317
-0.070543386 0.045757871 0.014350146
-0.068862118 0.045279201 0.014082044
-0.068931215 0.045954145 0.014436275
-0.067377061 0.045550689 0.014042825
-0.066426449 0.045549564 0.01349771
-0.066439867 0.04621904 0.012618959
-0.063537538 0.044850025 0.012192667
-0.063214399 0.045287926 0.011518627
-0.062349282 0.04534493 0.0096600652
-0.062762208 0.046347477 0.0058713555
-0.089305408 0.049726874 0.0076376796
-0.088532135 0.049862929 0.0093616545
-0.083775453 0.047732525 0.011890739
-0.083614513 0.048201308 0.012385905
-0.083444573 0.048675999 0.013218999
-0.081163891 0.047916032 0.013699263
-0.079075292 0.047252309 0.013910204
-0.079391323 0.048026852 0.013721704
-0.075306877 0.04612546 0.013877869
-0.076297089 0.04732351 0.014447689
-0.075693652 0.04755114 0.014657885
-0.071932383 0.045775149 0.014647037
-0.073444545 0.047352403 0.014530182
-0.073278129 0.047875043 0.014249265
-0.069250405 0.045854997 0.014058858
-0.070388258 0.047246914 0.013429105
-0.069199868 0.047094353 0.013586879
-0.067076087 0.046291947 0.013129383
-0.067246661 0.04707266 0.012336046
-0.066393666 0.047149125 0.011594027
-0.065748878 0.047377866 0.01047647
-0.064960822 0.047508664 0.0096600652
-0.063112304 0.046856105 0.0065786541
-0.087378271 0.050217398 0.0078077912
-0.083552457 0.048577011 0.009667784
-0.084027328 0.049427841 0.011929035
-0.082026325 0.048825197 0.012710452
-0.07884302 0.047495794 0.013417602
-0.079053938 0.048203621 0.013851106
-0.076528504 0.047239818 0.013676435
-0.076819003 0.048011877 0.013856977
-0.076419428 0.048366725 0.014305204
-0.073671877 0.047225561 0.014437765
-0.074321903 0.048260976 0.014420867
-0.073517859 0.048367012 0.014269292
-0.071695514 0.047797009 0.014000684
-0.072034918 0.04867224 0.013520896
-0.070159532 0.048054475 0.012969226
-0.068763345 0.047752324 0.012642264
-0.070716217 0.049800154 0.012106299
-0.068488449 0.048920322 0.010875612
-0.070184425 0.050858278 0.010160089
-0.067251213 0.049449421 0.0088160932
-0.064919271 0.048447214 0.0065881014
-0.087070167 0.05104113 0.006067276
-0.085811459 0.050888192 0.0081572533
-0.083375305 0.050025184 0.010599345
-0.080589525 0.048929356 0.011969507
-0.080219477 0.049291488 0.01246652
-0.078721412 0.048960876 0.013520777
-0.0770275 0.048498794 0.013625324
-0.077190027 0.049208645 0.01381126
-0.075425044 0.048692118 0.01391089
-0.074859187 0.048946392 0.013927788
-0.07392782 0.048965178 0.013866842
-0.072319984 0.048530519 0.013826847
-0.072877645 0.049556799 0.013585746
-0.071906455 0.049557149 0.013121307
-0.069840923 0.048792977 0.012441635
-0.070502572 0.049939319 0.012249768
-0.068062916 0.048890267 0.01040557
-0.068752147 0.050090849 0.0092048347
-0.070147708 0.051848307 0.0082251132
-0.066597775 0.049948331 0.0053167939
-0.083981134 0.05077929 0.0077294707
-0.082936183 0.050737433 0.0085923374
-0.080855586 0.050053459 0.011641711
-0.079761855 0.049971282 0.012035012
-0.077566929 0.049188782 0.013265073
-0.078403905 0.050333373 0.013524324
-0.075838454 0.049294993 0.013708919
-0.075556099 0.049733128 0.01390633
-0.075307161 0.050204773 0.01381582
-0.073349357 0.04953463 0.013703614
-0.074298099 0.050835542 0.013585746
-0.073032238 0.050635684 0.013294905
-0.069830313 0.049069952 0.012779981
-0.071311787 0.050797436 0.011651605
-0.069230653 0.049999915 0.010526925
-0.068097688 0.049874365 0.0097432435
-0.069581047 0.051688775 0.0084404349
-0.068553895 0.051663805 0.0072640181
-0.084360763 0.052601419 0.0079499185
-0.079850137 0.050381634 0.0096740723
-0.078279935 0.049985982 0.011455625
-0.079159334 0.05116396 0.012448519
-0.076705858 0.050190251 0.013519764
-0.077318721 0.051223651 0.01381126
-0.075903147 0.050922364 0.013938844
-0.073733538 0.050100993 0.01380524
-0.073957734 0.050905973 0.013633758
-0.073650628 0.051361624 0.013561159
-0.070552744 0.049857274 0.013253838
-0.071696348 0.051350091 0.012621105
-0.071815982 0.05214037 0.011470944
-0.068924233 0.050735895 0.010202438
-0.068904907 0.051436059 0.0091016293
-0.067322679 0.050972886 0.0077865124
-0.068978034 0.052983128 0.0050982833
-0.081608362 0.051845312 0.0070818067
-0.080804236 0.051945582 0.0089145899
-0.080107182 0.052117929 0.011106789
-0.078491867 0.051689766 0.012063295
-0.077443302 0.051628869 0.013243437
-0.076876588 0.051891696 0.013619483
-0.074665308 0.051037043 0.013963401
-0.074763075 0.051759049 0.013680607
-0.073558763 0.051586661 0.013505042
-0.070829801 0.050326437 0.013405651
-0.071820036 0.051710423 0.013068169
-0.072081529 0.052600037 0.012187243
-0.068428315 0.050618205 0.010520607
-0.069552325 0.052164245 0.0097693205
-0.069013201 0.052488916 0.0081726015
-0.067663275 0.052197386 0.0058437884
-0.081431262 0.052690815 0.0074921846
-0.081918001 0.053636789 0.0096740723
-0.078847833 0.05224856 0.01146841
-0.077748351 0.052148286 0.012577891
-0.079032905 0.053664319 0.01339075
-0.076089785 0.052311726 0.01380524
-0.075729638 0.052723166 0.014034659
-0.075554684 0.053275738 0.014015883
-0.072854504 0.05203893 0.013680607
-0.072968401 0.052806079 0.013519317
-0.071623586 0.052523959 0.013191879
-0.069847599 0.051913757 0.012302607
-0.070655428 0.053233542 0.010408461
-0.070036307 0.053499956 0.0090454519
-0.06828256 0.052894942 0.0071438849
-0.084037565 0.055365924 0.0071773529
-0.080033921 0.053355947 0.0096610188
-0.079108968 0.053374726 0.011470914
-0.079680152 0.054415714 0.013088256
-0.078334965 0.054157507 0.013669878
-0.077314854 0.054120399 0.014069885
-0.076792412 0.054435126 0.014164865
-0.072678179 0.052179202 0.014201403
-0.07420142 0.053964667 0.014032096
-0.072941862 0.053746637 0.013494641
-0.069939531 0.052221518 0.013034701
-0.071152389 0.053845052 0.01238361
-0.071984775 0.055221196 0.011311561
-0.069926463 0.054387245 0.0094998777
-0.069684617 0.054962516 0.0075027049
-0.080521755 0.05463976 0.0082536936
-0.080974929 0.055609286 0.010850132
-0.078554705 0.0546051 0.012383431
-0.078287281 0.055091053 0.01339075
-0.076155551 0.054260828 0.01408866
-0.073674507 0.053157553 0.0140495
-0.075576432 0.05522893 0.014173508
-0.072824009 0.053908683 0.014032096
-0.071444616 0.053583458 0.013483375
-0.07245443 0.055065367 0.012998939
-0.07122533 0.054862756 0.012408108
-0.070731089 0.055228382 0.011235148
-0.070194595 0.055570722 0.0096572042
-0.067958601 0.054558314 0.007191807
-0.082007878 0.056624483 0.0073704422
-0.079103887 0.055277418 0.0090934336
-0.078211203 0.055320118 0.011197656
-0.078808784 0.056430981 0.013243437
-0.075662211 0.054855105 0.013724595
-0.076372214 0.056070738 0.013824046
-0.074345313 0.05528241 0.013808072
-0.072272539 0.054439057 0.013516903
-0.072400801 0.055253241 0.013077646
-0.071837269 0.055554155 0.012695134
-0.068377569 0.05359323 0.012136608
-0.070078649 0.055678926 0.010295242
-0.06965138 0.056108057 0.0092426538
-0.068181716 0.055697735 0.0067806542
-0.079599172 0.056582544 0.00778234
-0.080614299 0.058002967 0.0094397962
-0.07660076 0.055795614 0.011567622
-0.076517038 0.056431316 0.01324892
-0.076095253 0.056830633 0.013516903
-0.073400952 0.055521235 0.013516903
-0.07372836 0.056493159 0.013044
-0.071625814 0.055604253 0.012679756
-0.069818459 0.054923851 0.012229443
-0.069960095 0.055778995 0.010806292
-0.07000944 0.056582972 0.0095440149
-0.068533264 0.056159206 0.0078902841
-0.078794338 0.057654392 0.0076698363
-0.077836432 0.05765662 0.0091958344
-0.077128917 0.057846691 0.011022478
-0.075464793 0.057315033 0.012448072
-0.075014256 0.057703275 0.012448072
-0.07343591 0.057222787 0.011987954
-0.070586056 0.055725832 0.011153996
-0.071118943 0.056895155 0.01089409
-0.071014807 0.057579573 0.0098321736
-0.069229819 0.056901224 0.0082167387
-0.070462093 0.058718409 0.0054431856
-0.079718769 0.060035121 0.0075175166
-0.075172052 0.057318687 0.0091781914
-0.075151153 0.058028106 0.010931611
-0.073639341 0.05758974 0.011022478
-0.072445303 0.057391733 0.01078701
-0.072861165 0.058480673 0.010349929
-0.072107829 0.058647703 0.0099584758
-0.069811508 0.057547323 0.0085879266
-0.070278101 0.058725536 0.0053541958
-0.077755377 0.060260419 0.0066976249
-0.075607672 0.059337668 0.008286804
-0.073193938 0.058179796 0.0084335506
-0.073745303 0.059379335 0.0083947182
-0.072898664 0.059469961 0.0083139241
-0.070335321 0.058143865 0.0082198083
-0.071449637 0.059863213 0.0051133037
0 0 0 1 0 0 0 1 0 0 0 1 0 0 0 0 0 1010 1 0 0
