ply
format ascii 1.0
comment PCL generated
element vertex 1194
property float x
property float y
property float z
element camera 1
property float view_px
property float view_py
property float view_pz
property float x_axisx
property float x_axisy
property float x_axisz
property float y_axisx
property float y_axisy
property float y_axisz
property float z_axisx
property float z_axisy
property float z_axisz
property float focal
property float scalex
property float scaley
property float centerx
property float centery
property int viewportx
property int viewporty
property float k1
property float k2
end_header
-0.0069968994 -0.16209483 0.00572142
-0.0056702504 -0.15763296 0.0057584643
-0.0044361758 -0.15415712 0.0055785179
-0.0034999708 -0.16216531 0.0058512688
-0.0022386457 -0.15558589 0.005729109
-0.0011057784 -0.1537032 0.005656898
0 -0.15922421 0.005656898
0.0010634578 -0.14782064 0.0053962171
0.0022400664 -0.15568461 0.0054864585
0.0033698161 -0.15613481 0.0055112243
0.0042323363 -0.14707369 0.0051937401
0.0056376983 -0.15672801 0.0055112243
0.0067952028 -0.1574222 0.0052517056
0.007480023 -0.14853188 0.0056591928
0.0090628369 -0.15746678 0.0052091181
0.010652782 -0.14807367 0.0056906343
0.011975075 -0.1513214 0.0057343841
0.012404686 -0.14368762 0.0060921311
0.0133559 -0.1428054 0.0056906343
0.015136604 -0.15028486 0.005800873
0.015509262 -0.14371917 0.0055009723
0.016966604 -0.14739738 0.0054837167
0.017374795 -0.1420645 0.0051567554
0.019825947 -0.14504246 0.0051177442
-0.0091720894 -0.14063871 0.0079171658
-0.0078871548 -0.13605343 0.01031515
-0.0070810481 -0.1395978 0.011022538
-0.0061848219 -0.1422509 0.011146933
-0.0049321111 -0.13612626 0.010894865
-0.004192628 -0.14464566 0.0108082
-0.003052504 -0.14041519 0.01068604
-0.0019749803 -0.13627364 0.010598153
-0.0010355886 -0.14291123 0.010584384
0 -0.13471422 0.010494143
0.0010338119 -0.14266604 0.011246383
0.0021500445 -0.14835308 0.010494143
0.0030388238 -0.1397859 0.011935741
0.0041758092 -0.14406541 0.011754274
0.0052871332 -0.14592488 0.012086451
0.006129039 -0.14096789 0.011935741
0.0075428099 -0.14870112 0.011629462
0.0086663961 -0.14949533 0.011629462
0.0093063777 -0.1426978 0.01139313
0.011461806 -0.15817292 0.011405349
0.012109013 -0.15191308 0.010294646
0.012978772 -0.14925587 0.010294646
0.015081236 -0.16009313 0.010238677
0.015297855 -0.15079314 0.010003388
0.016081991 -0.14795431 0.010238677
0.017956451 -0.15487438 0.0096312761
0.017851627 -0.1449132 0.0093769431
0.019964792 -0.1530634 0.0093998313
0.020797381 -0.15105465 0.0080969334
0.020717032 -0.14294751 0.0068733096
0.022567555 -0.14830108 0.00593099
0.023894222 -0.14988194 0.0054412782
-0.0094696162 -0.12973374 0.0090311468
-0.008340247 -0.12695709 0.01176396
-0.0075727063 -0.1296826 0.013679653
-0.0065538301 -0.12826782 0.01423797
-0.0055744117 -0.12728241 0.014134616
-0.0047551137 -0.13029011 0.014506161
-0.0038148579 -0.13065888 0.015213817
-0.0027429857 -0.12526301 0.015213817
-0.001903704 -0.13040373 0.015016079
-0.00092092773 -0.1261671 0.014981002
0 -0.12828638 0.01495713
0.00094510504 -0.12947939 0.014884919
0.0018094848 -0.12394971 0.015536606
0.0028816459 -0.13159516 0.015969545
0.0037382999 -0.12803678 0.016245365
0.0046102381 -0.12632053 0.015189618
0.0055939648 -0.12772886 0.015189618
0.0066384384 -0.12992373 0.015076637
0.0074930782 -0.12831897 0.014867246
0.008437288 -0.12843427 0.014970392
0.0089785112 -0.12300561 0.014877856
0.010131832 -0.12618737 0.014877856
0.01115238 -0.127323 0.01481232
0.011566515 -0.12189327 0.01475668
0.012856555 -0.12581058 0.014781237
0.01407039 -0.12850957 0.014803946
0.014538074 -0.12448226 0.015961349
0.01624942 -0.13095121 0.015584737
0.017048977 -0.12976165 0.015632033
0.017285617 -0.12463839 0.01421991
0.018623004 -0.12756757 0.0130274
0.019488409 -0.12713867 0.0093481243
0.020024603 -0.12469866 0.0068733096
0.021009605 -0.12514417 0.0054764152
0.023021787 -0.13141604 0.0054412782
-0.010305163 -0.12740929 0.0091979802
-0.0090778731 -0.12345908 0.012427121
-0.0085503962 -0.12920599 0.013939977
-0.0074622538 -0.12685832 0.015300065
-0.0064770589 -0.12583999 0.016006351
-0.0057536676 -0.13041647 0.01605019
-0.0046324311 -0.12600212 0.016593158
-0.0036979802 -0.12573132 0.016610086
-0.0028587426 -0.12959632 0.016640276
-0.0018809541 -0.12790488 0.016741961
-0.00094712607 -0.12880915 0.016913027
0 -0.12692262 0.016975343
0.00092429877 -0.12570463 0.016595542
0.0018824958 -0.12800971 0.017038971
0.00281801 -0.12774979 0.017851859
0.003679482 -0.12510239 0.017581493
0.0046994262 -0.1278244 0.017463505
0.005645175 -0.1279573 0.017105132
0.0064924131 -0.12613831 0.017463505
0.0075011421 -0.12751941 0.017323911
0.0084207561 -0.12724699 0.017896205
0.0094732335 -0.12883598 0.017885327
0.010429039 -0.12894084 0.0180718
0.011328711 -0.12839206 0.018057734
0.012334267 -0.1290354 0.018019706
0.01309036 -0.1271635 0.018019706
0.013940638 -0.12639512 0.017978847
0.015095216 -0.12830934 0.017975181
0.01628888 -0.13031104 0.017625481
0.016856093 -0.12735716 0.017363787
0.017985288 -0.12873679 0.016880274
0.019114476 -0.12997845 0.015654445
0.019397523 -0.12562205 0.014297247
0.020291289 -0.12543705 0.01324603
0.021790843 -0.12885021 0.0080761015
0.022131372 -0.12541111 0.0074445009
0.024711741 -0.13443187 0.0056978464
0.025180951 -0.13171574 0.0052945018
-0.011394878 -0.12819238 0.0091168582
-0.010204648 -0.12523885 0.01201722
-0.0096422723 -0.13017067 0.014014721
-0.0084457947 -0.12668692 0.015554696
-0.0074403691 -0.12555623 0.016450524
-0.0066484646 -0.12822038 0.01711002
-0.0055750441 -0.1254385 0.017327219
-0.0046786484 -0.12632351 0.017527968
-0.0037914251 -0.12796059 0.017689139
-0.0028637387 -0.12886824 0.017705381
-0.0018533036 -0.12509799 0.017438024
-0.00096474675 -0.13024081 0.017859906
0 -0.12338556 0.018028736
0.00094861031 -0.12806238 0.017824113
0.0018611344 -0.12562658 0.018645704
0.002850391 -0.12826759 0.019303411
0.0037235604 -0.12567016 0.018868953
0.0046647075 -0.1259471 0.018999338
0.0055205896 -0.12421326 0.01868999
0.0065691578 -0.12669089 0.018836349
0.0074588754 -0.12586853 0.018696755
0.0084981071 -0.12747161 0.019082874
0.0096250726 -0.12993847 0.019041032
0.010185077 -0.12499867 0.019081265
0.011263943 -0.12671936 0.019011855
0.012200163 -0.12669399 0.018944412
0.013224745 -0.12752433 0.018984646
0.013771534 -0.12394381 0.018737018
0.015015519 -0.12669344 0.018561214
0.0157378 -0.12497665 0.018566996
0.016892267 -0.12669201 0.01857689
0.017590072 -0.12498209 0.018272191
0.01830397 -0.1235518 0.01689744
0.019954661 -0.12827997 0.015770882
0.020891804 -0.12819971 0.015146971
0.02129768 -0.12500812 0.013922095
0.022887219 -0.12874061 0.01364994
0.024513952 -0.13237534 0.011432409
0.025402931 -0.13189983 0.0078455508
0.026361465 -0.13180733 0.007163465
0.027109658 -0.13070728 0.0055163801
0.027640671 -0.12867209 0.0052237809
-0.011147065 -0.12447556 0.0088045299
-0.010286721 -0.12531097 0.01359421
-0.0096352017 -0.12911171 0.015470654
-0.0081444792 -0.12126224 0.016691655
-0.0076420391 -0.12800416 0.017377853
-0.0066696322 -0.12767582 0.018383712
-0.0056668357 -0.12655933 0.018584251
-0.0048254961 -0.1293233 0.018736839
-0.0037163843 -0.12449887 0.018745393
-0.0027914415 -0.12468439 0.018690228
-0.001917616 -0.12848027 0.018645704
-0.00092207367 -0.12355787 0.019020766
0 -0.12634216 0.019303411
0.00093774433 -0.12565774 0.01931271
0.0018366518 -0.12305567 0.019881666
0.0028466436 -0.12715009 0.019983917
0.0037717039 -0.12635207 0.019121855
0.0045782859 -0.12269806 0.019640952
0.0057355654 -0.12809429 0.019244403
0.0066521834 -0.12734179 0.01965183
0.007432187 -0.12448914 0.019559294
0.008444109 -0.12572339 0.019670993
0.0093349367 -0.12508814 0.019746304
0.010017152 -0.12202712 0.0201253
0.011341441 -0.12664609 0.020503074
0.012185386 -0.12560321 0.020084143
0.013085132 -0.12524341 0.020165771
0.014020361 -0.12524857 0.020344019
0.014738254 -0.12343288 0.019921154
0.015950257 -0.12572555 0.01993081
0.017097043 -0.12727799 0.020153135
0.017854508 -0.12592126 0.020112514
0.018891657 -0.1265741 0.018649071
0.019973267 -0.12744847 0.017962396
0.020548766 -0.12516066 0.016737133
0.021433603 -0.12487404 0.015676498
0.022837406 -0.12750885 0.015183508
0.02364777 -0.12675205 0.014088452
0.025566494 -0.13176578 0.013422459
0.026264206 -0.13034828 0.011429936
0.027991991 -0.13396168 0.009449482
0.032986026 -0.1524182 0.0077249408
0.03394882 -0.15163808 0.0061252713
0.037780128 -0.15820429 0.0053454041
-0.012319464 -0.1260376 0.006634295
-0.01129073 -0.12513892 0.011836529
-0.010543197 -0.12747684 0.015206069
-0.0093965121 -0.12497362 0.016702741
-0.0085316189 -0.12607837 0.017446101
-0.0074928342 -0.12456837 0.018490702
-0.0066009997 -0.12541899 0.019433469
-0.0056354138 -0.12491834 0.019433469
-0.0047245403 -0.12567277 0.020040452
-0.003851237 -0.12805364 0.019647896
-0.002900603 -0.1285934 0.019592732
-0.0018614262 -0.12378483 0.019487709
-0.00090405461 -0.12023927 0.019978017
0 -0.12183523 0.020108908
0.00092638575 -0.12320931 0.020357281
0.0018539429 -0.1232872 0.020725518
0.0028446577 -0.12611316 0.020748198
0.0037070413 -0.12325912 0.020047843
0.0047675958 -0.12681805 0.020438761
0.0056970557 -0.12628473 0.020429552
0.0064650723 -0.12283637 0.020438761
0.0076567237 -0.12729304 0.020656765
0.0084824543 -0.12535182 0.021006376
0.0090420507 -0.12025927 0.02072534
0.010283275 -0.12433413 0.020778716
0.011297141 -0.12520999 0.020750016
0.012120365 -0.12400066 0.020680368
0.01357768 -0.12898795 0.020676136
0.014158103 -0.12553518 0.02066642
0.014986645 -0.12457649 0.02066052
0.015787585 -0.12351464 0.020283908
0.016552197 -0.12230234 0.0204207
0.017638937 -0.12347256 0.020408243
0.018642275 -0.12397113 0.019741356
0.01978875 -0.12532875 0.019686788
0.020406166 -0.12336455 0.018250376
0.021850515 -0.12635298 0.017464548
0.022175532 -0.12288941 0.016422749
0.025772739 -0.13711098 0.015456229
0.026127696 -0.13365321 0.014571875
0.026552321 -0.13079478 0.013419986
0.028248005 -0.13417803 0.012115151
0.026922233 -0.12347093 0.010533422
0.028028771 -0.12426089 0.010008782
0.029719759 -0.12750734 0.0077249408
0.030017171 -0.12475886 0.0062320232
0.032074563 -0.12927021 0.0057025552
0.033341866 -0.13042553 0.0051213801
-0.012666727 -0.12861601 0.0087520182
-0.011136547 -0.12250201 0.014012843
-0.010096807 -0.12116168 0.015487164
-0.0095733516 -0.12636824 0.017158568
-0.0084646512 -0.12414821 0.018147588
-0.0076119686 -0.12559749 0.019065261
-0.0066794851 -0.125956 0.020442963
-0.0055689882 -0.12251773 0.020356059
-0.004726836 -0.12478847 0.020968139
-0.0038778323 -0.12796846 0.020586044
-0.002792561 -0.12287268 0.020396292
-0.0018775414 -0.12391773 0.020153642
-0.00094525627 -0.12477383 0.020534903
0 -0.12125225 0.020725518
0.0009372934 -0.12372273 0.020953029
0.00190963 -0.12603557 0.020739377
0.0027804386 -0.1223393 0.021398693
0.0037518593 -0.12381136 0.021089911
0.0047348575 -0.12500024 0.021202236
0.005583961 -0.12284715 0.021202236
0.0066108606 -0.12466194 0.021421432
0.0075511299 -0.12459365 0.021180034
0.0086630201 -0.12705764 0.021357924
0.0095543414 -0.1261173 0.02107349
0.010445085 -0.12534103 0.021152943
0.011207826 -0.12328608 0.021384031
0.012218894 -0.12406877 0.021132797
0.013189351 -0.12435674 0.021115184
0.014178335 -0.12476934 0.021325171
0.015188672 -0.12530653 0.020952195
0.015574181 -0.12092894 0.020408392
0.016979091 -0.12451334 0.020926803
0.017832438 -0.12388851 0.021127611
0.018635865 -0.12299671 0.020056814
0.019772166 -0.12428219 0.020151883
0.020653622 -0.12392174 0.019744724
0.021185622 -0.12158705 0.018779516
0.022902384 -0.12596312 0.018126041
0.023654491 -0.12489571 0.016845852
0.024061909 -0.12216046 0.015530586
0.025724713 -0.12576526 0.014692754
0.02729233 -0.12866384 0.013465345
0.026864741 -0.12228089 0.012903124
0.028925953 -0.1272742 0.011992782
0.029363088 -0.12502992 0.010909796
0.030949228 -0.12766556 0.0089115202
0.031306274 -0.1252251 0.006464541
0.032029103 -0.12434829 0.0056405962
-0.012558497 -0.126551 0.0088192821
-0.011569784 -0.12630348 0.013743967
-0.010547519 -0.12561136 0.015511811
-0.0095476443 -0.12507413 0.0171417
-0.008172337 -0.1189529 0.017468333
-0.007626568 -0.12488504 0.018715203
-0.0065774173 -0.12309167 0.020172149
-0.0055527524 -0.12123509 0.020097584
-0.0047365394 -0.12409733 0.020481616
-0.0037997966 -0.12444334 0.020215631
-0.0028484799 -0.12438362 0.020348728
-0.0018695247 -0.12245387 0.020162821
-0.00091306918 -0.11961206 0.020463288
0 -0.12240081 0.020496875
0.0009493375 -0.12436321 0.020337909
0.0018817727 -0.12325611 0.020202279
0.0027897977 -0.12182117 0.020281911
0.0037717344 -0.1235243 0.019905508
0.0044954619 -0.1177811 0.020383745
0.0057157641 -0.12479419 0.020507693
0.0064621484 -0.12093449 0.021093875
0.0075423936 -0.1235067 0.021003187
0.0082798675 -0.12051807 0.021167159
0.0093199937 -0.12209192 0.020797044
0.010299735 -0.12266047 0.020961136
0.011236734 -0.12266767 0.020988941
0.012296604 -0.12391193 0.021010667
0.012995191 -0.12159786 0.020770371
0.014083539 -0.12299624 0.021056622
0.015012503 -0.12291487 0.020860046
0.01590479 -0.12256043 0.020373404
0.01699044 -0.12365264 0.020932615
0.017673967 -0.12185736 0.021073222
0.018971406 -0.12426271 0.020239711
0.019928779 -0.12431762 0.020289809
0.020160636 -0.12004743 0.019898772
0.021547997 -0.12272989 0.018838763
0.022441851 -0.1224951 0.018343747
0.023830505 -0.12487184 0.01726687
0.024884893 -0.12538157 0.015960634
0.025511174 -0.12377644 0.01491642
0.026400238 -0.1235154 0.014164269
0.027035786 -0.12212718 0.013608366
0.028167756 -0.1229992 0.013166606
0.028856995 -0.12194408 0.012199223
0.030419659 -0.12453048 0.011110157
0.031027868 -0.12317123 0.0096316934
0.033051684 -0.1273462 0.0085474253
0.033483997 -0.12532581 0.0056405962
-0.012373555 -0.12373555 0.010874838
-0.011733702 -0.1271151 0.013886333
-0.01060356 -0.1253148 0.015422493
-0.0093517695 -0.121573 0.016676903
-0.0085894242 -0.12406946 0.017460853
-0.007567863 -0.12297777 0.018896967
-0.0065942798 -0.12246519 0.020181715
-0.0057780845 -0.12519182 0.019583106
-0.0047093462 -0.12244301 0.020119905
-0.0037540153 -0.1220055 0.019651949
-0.0028971266 -0.12554215 0.01981777
-0.0018798111 -0.12218772 0.019939989
-0.00092397101 -0.12011623 0.020426273
0 -0.12361986 0.020279288
0.00092426856 -0.12015491 0.020803243
0.0019270442 -0.12525788 0.020732075
0.0028303822 -0.12264989 0.020951629
0.0037835201 -0.1229644 0.019938648
0.0047236225 -0.12281418 0.020375907
0.0056360415 -0.12211423 0.020719409
0.0065643019 -0.12190846 0.021237493
0.0074679414 -0.12135405 0.020997494
0.0084834406 -0.12253859 0.020997494
0.0093273865 -0.12125602 0.020669699
0.010407974 -0.12300333 0.020770371
0.011045122 -0.11965548 0.020961136
0.012049685 -0.12049685 0.020774037
0.013197781 -0.12255082 0.020798415
0.013982317 -0.12118009 0.020950347
0.014977773 -0.1216944 0.020825118
0.016331654 -0.12488912 0.020397007
0.01654385 -0.11948337 0.02078563
0.018121539 -0.12398948 0.020872414
0.018615581 -0.12100128 0.020262867
0.01936058 -0.11985121 0.020310223
0.020662839 -0.12209859 0.020044953
0.021051375 -0.11898603 0.019460291
0.022529429 -0.12203441 0.019313097
0.023763122 -0.12356824 0.018098235
0.023944288 -0.11972144 0.016227633
0.025218725 -0.12142349 0.015243232
0.026760038 -0.12424303 0.014442474
0.027468434 -0.12313436 0.013873547
0.027862454 -0.1207373 0.013587266
0.029834174 -0.12511106 0.012551665
0.030242352 -0.12285956 0.011771113
0.031813476 -0.12532581 0.011091202
0.032339677 -0.12365171 0.0095048547
0.032387853 -0.12029774 0.0063545406
-0.012625301 -0.12528184 0.010854393
-0.011298023 -0.12145375 0.013783038
-0.010391263 -0.12186118 0.015130788
-0.009346039 -0.1205639 0.016372442
-0.008488494 -0.12166842 0.017284334
-0.0074152672 -0.11957119 0.018672317
-0.0066852742 -0.12320005 0.019442767
-0.0056990334 -0.12252922 0.019399881
-0.0047041182 -0.12136625 0.019958496
-0.0039200447 -0.12642145 0.019542009
-0.0028133208 -0.12097279 0.019761622
-0.0018668851 -0.12041409 0.019939989
-0.00094678334 -0.12213505 0.020283222
0 -0.11789712 0.020426273
0.00094422395 -0.12180489 0.020893633
0.0019155719 -0.12355439 0.020732075
0.0027674318 -0.11899957 0.020748138
0.0037660142 -0.12145396 0.019938648
0.004705606 -0.12140463 0.020375907
0.0056269029 -0.12097841 0.0206514
0.0066602794 -0.12273943 0.021028221
0.007574751 -0.12214286 0.020694852
0.0083540706 -0.11974169 0.020694852
0.0093502039 -0.12061763 0.020382434
0.010197536 -0.11958928 0.020775318
0.011482218 -0.12343384 0.020774037
0.012498468 -0.12402327 0.020827234
0.012937478 -0.11920961 0.020669729
0.013931763 -0.11981317 0.020970076
0.015315945 -0.12348481 0.020494878
0.015815647 -0.12001285 0.020482421
0.016943319 -0.12142712 0.020798773
0.017926704 -0.12171289 0.021038741
0.018689683 -0.12054845 0.02028662
0.019674204 -0.12085582 0.020696372
0.020546982 -0.12048004 0.019985557
0.021221107 -0.11902273 0.019416869
0.023170277 -0.12454024 0.019372344
0.023493541 -0.12122668 0.018369138
0.024032673 -0.11923902 0.016474813
0.026038697 -0.12440711 0.015568674
0.026195614 -0.12068694 0.015051961
0.027534651 -0.12248172 0.014213264
0.028041057 -0.12057655 0.014080405
0.028988926 -0.12063134 0.012633264
0.030533703 -0.12308899 0.011860102
0.031033484 -0.12131272 0.011110157
0.031497654 -0.1195058 0.0095268786
0.033127312 -0.1220978 0.0076186359
-0.012820755 -0.12623513 0.010938436
-0.011201116 -0.11947858 0.013805926
-0.010493655 -0.12210798 0.015362263
-0.0094474107 -0.12092685 0.016665548
-0.0082148714 -0.11683373 0.017371327
-0.0076721036 -0.12275366 0.018913746
-0.0066133589 -0.12092999 0.019508034
-0.0056430893 -0.1203859 0.019997567
-0.004751855 -0.12164748 0.020118296
-0.0037339386 -0.11948603 0.020070523
-0.0027956888 -0.11928272 0.020237565
-0.001876445 -0.12009248 0.020055443
-0.00093406235 -0.11955998 0.020438194
0 -0.12257126 0.020426273
0.00096663687 -0.12372952 0.020718187
0.0019014565 -0.12169322 0.020826578
0.0028782252 -0.12280427 0.020745188
0.0037922964 -0.12135348 0.019935161
0.0046786121 -0.11977247 0.020375907
0.0056023602 -0.11951702 0.020647556
0.0065295822 -0.11939807 0.020869881
0.0074730013 -0.11956802 0.020646065
0.0085347649 -0.12138332 0.020599127
0.0092890505 -0.11889985 0.02022773
0.010134807 -0.1179323 0.02038306
0.011346837 -0.12103292 0.020489752
0.012241195 -0.12052869 0.020526886
0.012846805 -0.1174565 0.020592451
0.014148881 -0.12073712 0.020940095
0.014504255 -0.11603404 0.020825118
0.015960528 -0.12017338 0.020397007
0.016982224 -0.12076247 0.020828873
0.017462559 -0.11764251 0.020929307
0.018782789 -0.12020984 0.020825118
0.01967706 -0.11993636 0.020763725
0.020640209 -0.12008849 0.020153135
0.021444231 -0.11934181 0.019580066
0.023075445 -0.12306904 0.019477695
0.023086829 -0.11820456 0.018762082
0.025434457 -0.12521578 0.016699135
0.025853425 -0.12256439 0.015688449
0.02591658 -0.11847579 0.015154392
0.027690362 -0.12221953 0.014061689
0.028141296 -0.12006953 0.014017344
0.029760711 -0.12288293 0.012837946
0.030785292 -0.12314117 0.012152851
0.03148853 -0.12213733 0.011357158
0.032535166 -0.12248532 0.0097504854
0.033217344 -0.12148057 0.0077640414
0.035152297 -0.12498595 0.0053651333
-0.012406287 -0.12119988 0.0077302158
-0.011447807 -0.12115595 0.012565672
-0.010619026 -0.12260147 0.015123546
-0.0094213653 -0.11965134 0.016184777
-0.0086233886 -0.12168559 0.017172366
-0.0076012854 -0.12067041 0.018715203
-0.0064787772 -0.11754353 0.019551724
-0.0058047459 -0.12286712 0.019508034
-0.0047599953 -0.12090388 0.020302445
-0.0037082427 -0.1177367 0.020356745
-0.0028191335 -0.11934332 0.020410776
-0.0018650317 -0.11842951 0.020426273
-0.00093311997 -0.11850624 0.020675272
0 -0.12001999 0.020547718
0.00094158063 -0.11958075 0.020798802
0.0018645549 -0.11839924 0.020972997
0.0028513074 -0.12070534 0.020725518
0.0037528083 -0.11915167 0.019940674
0.0047090556 -0.11961001 0.020576328
0.0056760614 -0.12014329 0.020599127
0.0064537562 -0.11708958 0.020890951
0.0077628428 -0.12323513 0.020694852
0.0083746314 -0.11817535 0.020599127
0.0092736455 -0.11777529 0.020295739
0.010463094 -0.12080118 0.02038306
0.01095539 -0.11594454 0.020400047
0.012055581 -0.11777376 0.020459652
0.013229487 -0.12001035 0.020363241
0.013999064 -0.11852542 0.020475924
0.014883327 -0.11813641 0.020349979
0.016131781 -0.1205139 0.020191938
0.016484275 -0.11630572 0.020360947
0.017852753 -0.11933156 0.020637989
0.018813996 -0.11946887 0.020253807
0.019462379 -0.11770105 0.020368308
0.020993894 -0.12119202 0.019984215
0.021485493 -0.11863729 0.019442916
0.022352273 -0.11828078 0.018762082
0.023698013 -0.12038591 0.017884731
0.024382466 -0.11909897 0.016400486
0.02536924 -0.11932939 0.015317142
0.02661912 -0.12073672 0.01439175
0.027470339 -0.12030114 0.013618529
0.028569492 -0.12094419 0.013411671
0.029908767 -0.12252947 0.012237161
0.029905969 -0.11868931 0.011312991
0.03106585 -0.11955645 0.010735303
0.032117978 -0.1199701 0.008892566
0.033008076 -0.11977217 0.0061048567
-0.01250409 -0.12119348 0.0063522756
-0.011306415 -0.11871736 0.011755645
-0.010233823 -0.11722379 0.014233261
-0.0095978649 -0.1209331 0.016198218
-0.0085044708 -0.1190626 0.017327219
-0.0075718337 -0.11925638 0.018303126
-0.0066523543 -0.11974238 0.01956138
-0.0056890068 -0.11946914 0.019442767
-0.0046855584 -0.11807607 0.020161182
-0.0038453545 -0.12112867 0.020246744
-0.0027962683 -0.11744327 0.020343006
-0.0018782753 -0.11833134 0.020317495
-0.00094922062 -0.1196018 0.020455956
0 -0.11858062 0.020444989
0.00094623998 -0.11922624 0.02071929
0.0019256077 -0.12131328 0.020745188
0.002775881 -0.11658701 0.020592541
0.0037766832 -0.11896553 0.019940674
0.0046775113 -0.11787328 0.020576328
0.0055942317 -0.11747886 0.020697773
0.0066218963 -0.11919414 0.020895869
0.0074578742 -0.11746152 0.020746559
0.0086514428 -0.1211202 0.020697773
0.0093976241 -0.11841006 0.020472199
0.010071913 -0.11536918 0.020596653
0.011149104 -0.11706559 0.020546108
0.012160948 -0.11786766 0.020841837
0.01326384 -0.11937457 0.020798415
0.014347642 -0.12052019 0.02071923
0.014993937 -0.11807725 0.020555943
0.015623699 -0.11579918 0.020183593
0.017013768 -0.11909638 0.020421147
0.017577967 -0.11656968 0.020549327
0.018683171 -0.11770398 0.020243257
0.019528668 -0.11717201 0.020214587
0.021081975 -0.12074222 0.019709677
0.021317225 -0.11678132 0.019018382
0.022987932 -0.12068664 0.018020123
0.023073535 -0.11629062 0.016473532
0.024823483 -0.12029842 0.015164793
0.025929958 -0.12100647 0.013902783
0.02679101 -0.12055954 0.013475031
0.027084386 -0.11767699 0.012861401
0.028491423 -0.11966398 0.012245268
0.029669832 -0.12059351 0.010756254
0.030876039 -0.1215744 0.010306388
0.031409264 -0.11992627 0.0095047057
0.031908233 -0.11824815 0.0060243309
-0.012556974 -0.12074014 0.0050995946
-0.011147643 -0.11612128 0.01136142
-0.010532213 -0.11968424 0.014031738
-0.0095437393 -0.11929674 0.015833765
-0.0085882423 -0.11928114 0.0173392
-0.0075437399 -0.11787093 0.018404692
-0.0065989811 -0.11783895 0.019569457
-0.0055752629 -0.11615132 0.019514978
-0.0047252276 -0.11813069 0.019997567
-0.0037714569 -0.11785803 0.019899011
-0.0027569022 -0.11487093 0.020228475
-0.0019108461 -0.11942788 0.019939989
-0.00095334416 -0.11916802 0.020419091
0 -0.11802023 0.020358264
0.00093700184 -0.11712523 0.020610005
0.0018459545 -0.11537215 0.020570427
0.0028120116 -0.11716715 0.020495474
0.0038492288 -0.1202884 0.019938648
0.0046587298 -0.11646824 0.020576328
0.0056479019 -0.11766462 0.020604193
0.0065801959 -0.1175035 0.02080068
0.0075494647 -0.11796039 0.020697773
0.0086757187 -0.12049609 0.020698994
0.0093916925 -0.11739616 0.020370871
0.010140674 -0.11523493 0.02045083
0.01151823 -0.11998156 0.020667136
0.01233843 -0.11863875 0.020919085
0.013119563 -0.11713896 0.020838171
0.014260196 -0.11883496 0.02082029
0.014851879 -0.11603031 0.020625234
0.016079448 -0.11823124 0.020231396
0.016879799 -0.11722083 0.020549327
0.017387699 -0.11439276 0.020582259
0.018961966 -0.1185123 0.020064533
0.019508602 -0.11612263 0.02018103
0.020280352 -0.11522927 0.019656509
0.02124317 -0.11545201 0.019055903
0.022150822 -0.11536887 0.016699135
0.023499038 -0.11749519 0.01536411
0.025258621 -0.12143568 0.013562173
0.02594476 -0.12011462 0.013022244
0.026802972 -0.11965612 0.012602538
0.02747946 -0.11844595 0.011375546
0.028612982 -0.11922076 0.010818362
0.030280415 -0.12209845 0.0098003745
0.030592985 -0.11950385 0.0089540482
0.031431101 -0.11905719 0.0083737373
-0.011576301 -0.11962178 0.01136142
-0.010545409 -0.11887553 0.014737785
-0.0093743652 -0.11624213 0.016568482
-0.008573791 -0.11812779 0.017547399
-0.0075948057 -0.11771949 0.019497216
-0.0065192035 -0.11548303 0.019877225
-0.0057166298 -0.11814369 0.0196096
-0.0047410424 -0.11757784 0.020276576
-0.0038120307 -0.11817295 0.019899011
-0.0028186252 -0.11650317 0.020242691
-0.0018461719 -0.11446266 0.020058066
-0.00093109044 -0.11545522 0.020721644
0 -0.11775684 0.020992696
0.00093854964 -0.11638016 0.021000713
0.0019599092 -0.12151437 0.020947099
0.0028265018 -0.11682875 0.020592541
0.003739232 -0.11591619 0.020347714
0.004690323 -0.11632001 0.020813555
0.0056274869 -0.11630139 0.020584077
0.0063462933 -0.11242006 0.021054
0.0075346655 -0.11678731 0.02080068
0.0084540537 -0.11647808 0.020553738
0.0091995727 -0.11407471 0.020330518
0.010505382 -0.11842431 0.020242363
0.011270664 -0.11646352 0.02038306
0.012257821 -0.11692075 0.020585567
0.013273976 -0.1175695 0.020797819
0.014109069 -0.11663497 0.020780534
0.015142732 -0.11735617 0.020499706
0.015717609 -0.11464608 0.020198375
0.016727354 -0.11523288 0.020292342
0.017898206 -0.11680935 0.020373583
0.018797491 -0.11654445 0.019983143
0.019723689 -0.11646369 0.020019025
0.020939486 -0.11802256 0.019340605
0.021674572 -0.11685421 0.018199384
0.022433627 -0.11590707 0.015801996
0.024115438 -0.11961257 0.013591766
0.025593406 -0.12206086 0.012216061
0.026716655 -0.12269872 0.011629701
0.027408235 -0.12137932 0.010774106
0.027985254 -0.11966109 0.0095516443
0.028682722 -0.11855525 0.0091927648
0.029976526 -0.11990611 0.0063836277
0.030263787 -0.11727218 0.0064567924
-0.011337884 -0.11621331 0.011339754
-0.010053707 -0.11241873 0.014106393
-0.0095927278 -0.11799055 0.016367018
-0.0084077837 -0.11490638 0.017455637
-0.0074414932 -0.11441296 0.01892823
-0.0066858488 -0.11747991 0.019664496
-0.0056686266 -0.11620685 0.019579262
-0.0046586404 -0.11460256 0.020276576
-0.0038368627 -0.11798353 0.020048618
-0.0027953181 -0.11460804 0.020412177
-0.001860827 -0.11444087 0.020290315
-0.00094200438 -0.11586654 0.020936906
0 -0.11533815 0.020948708
0.00094152679 -0.11580779 0.020960301
0.001842319 -0.11330263 0.020852953
0.0028259452 -0.11586376 0.020818591
0.0037353712 -0.11486267 0.020230055
0.004717146 -0.11604179 0.020724595
0.0055138906 -0.11303476 0.020464718
0.0066741486 -0.11727433 0.020584077
0.0074285995 -0.11421472 0.020429283
0.0084518343 -0.1155084 0.020553738
0.0094679845 -0.11645621 0.020227611
0.010314339 -0.11533307 0.020300776
0.011120179 -0.11398184 0.020388097
0.012304286 -0.11641748 0.020719141
0.013249699 -0.11640807 0.020797819
0.014010512 -0.1148862 0.020713717
0.015030024 -0.11554331 0.020480126
0.015612894 -0.11296388 0.020077974
0.01686669 -0.11525571 0.020064533
0.017432351 -0.11285153 0.020088851
0.018169999 -0.11174549 0.019964665
0.019002285 -0.1112991 0.019920528
0.020754507 -0.11603656 0.018468291
0.02149892 -0.11497249 0.016364336
0.023682129 -0.12137091 0.013143778
0.024337519 -0.11974059 0.01220265
0.025424905 -0.12027936 0.0098045468
0.027082222 -0.12337456 0.0097042322
0.027033284 -0.11875335 0.0070573986
0.028399862 -0.12045459 0.0054002404
0.02961158 -0.12140748 0.0050083399
-0.011304081 -0.11492483 0.0057990253
-0.010857381 -0.12041823 0.01168099
-0.009952778 -0.12142389 0.015697777
-0.0088806143 -0.12038166 0.016367018
-0.0077122487 -0.1176118 0.01761353
-0.006561643 -0.11436006 0.018600523
-0.0055911574 -0.11368687 0.018406659
-0.0046773702 -0.11412784 0.019497216
-0.0037986215 -0.11585796 0.019394994
-0.002768209 -0.11257383 0.019713461
-0.0019251836 -0.11743619 0.019902319
-0.00094175362 -0.11489394 0.020430714
0 -0.11320359 0.020610005
0.00093231577 -0.11374252 0.020596802
0.0018487258 -0.11277227 0.020518154
0.0028036896 -0.1140167 0.020294219
0.0037603942 -0.11469202 0.019905984
0.004666022 -0.11385094 0.02033633
0.0056323688 -0.11452483 0.020269245
0.0066845566 -0.11650227 0.020336211
0.007536428 -0.11493053 0.020152628
0.0085559823 -0.11598109 0.02022773
0.0092738131 -0.11314052 0.019777298
0.010313527 -0.11438639 0.019853473
0.011450246 -0.11641083 0.019959748
0.012297172 -0.11540423 0.020212859
0.013119179 -0.11432427 0.02009666
0.014004003 -0.11389923 0.019973785
0.015030763 -0.11460957 0.019744277
0.015973682 -0.11463465 0.019636929
0.017197262 -0.11655922 0.019259721
0.016879769 -0.10838589 0.019342154
0.01952255 -0.11908755 0.019191086
0.020608911 -0.11972796 0.018254578
0.02110461 -0.11703466 0.016034991
0.021705676 -0.11513446 0.012874961
0.02230704 -0.11339413 0.011436492
0.02450751 -0.11959665 0.0094004869
0.026198447 -0.12293117 0.0062125027
0.026290918 -0.118796 0.0054707229
-0.010760831 -0.11836914 0.006973654
-0.0094982069 -0.11492831 0.013584316
-0.0088655986 -0.11919305 0.015697777
-0.0077662114 -0.11746395 0.01696685
-0.0064916536 -0.11221287 0.017578572
-0.0056860354 -0.11466838 0.017733425
-0.0046405164 -0.1123005 0.018306583
-0.0037631895 -0.11383648 0.018477976
-0.0028557982 -0.11518386 0.018982321
-0.0018605069 -0.11256067 0.019389182
-0.00093115831 -0.11267015 0.020030111
0 -0.11455062 0.020177126
0.00095422659 -0.11546142 0.020165682
0.0018556064 -0.11226419 0.020294219
0.0028412763 -0.11459814 0.020038188
0.0036546658 -0.11055364 0.019794822
0.004648285 -0.1124885 0.020241946
0.0056806575 -0.11455993 0.019872516
0.0066087707 -0.11423732 0.020093948
0.0077069388 -0.11656745 0.019853473
0.0084058372 -0.11301181 0.019870549
0.0093733408 -0.11341742 0.019087046
0.010206196 -0.11226816 0.018636972
0.011327527 -0.11421923 0.018352628
0.011909486 -0.11084983 0.019043297
0.01335303 -0.11540833 0.019757628
0.014176575 -0.1143577 0.019395977
0.01475051 -0.11155073 0.019096881
0.016303264 -0.11604088 0.017670125
0.016929466 -0.11380363 0.017752916
0.017833984 -0.11357431 0.0174281
0.01893517 -0.11455778 0.017246783
0.01914878 -0.11033344 0.014888376
0.021202866 -0.11661576 0.011963785
0.021643525 -0.11386376 0.009736985
0.022920715 -0.11555861 0.0060790181
-0.011053922 -0.13264705 0.0077938139
-0.010022264 -0.13363019 0.01376459
-0.0074528935 -0.1117934 0.015347481
-0.0066944072 -0.11476127 0.016696572
-0.0055930098 -0.11186019 0.017032146
-0.0047721993 -0.11453278 0.017821819
-0.0038537357 -0.11561207 0.017990708
-0.0028290183 -0.11316073 0.01890704
-0.0019208387 -0.11525033 0.019401342
-0.00094739354 -0.11368722 0.020017713
0 -0.10903817 0.020178109
0.00094290922 -0.11314911 0.020237148
0.0019070869 -0.11442521 0.020208091
0.0027603197 -0.11041278 0.020229638
0.0037391807 -0.11217542 0.019954473
0.0046941773 -0.11266025 0.020146638
0.0055062021 -0.11012404 0.019977242
0.0066567441 -0.11411561 0.019993097
0.007608321 -0.11412482 0.019488394
0.0082974602 -0.1106328 0.019117355
0.009459761 -0.11351714 0.018466532
0.010102646 -0.11021069 0.018136889
0.011075531 -0.11075531 0.017914295
0.012286597 -0.11341474 0.017914295
0.013093446 -0.11222954 0.017692447
0.01360533 -0.10884264 0.017551064
0.015182064 -0.11386548 0.016954809
0.015872408 -0.11204052 0.016870767
0.01669034 -0.11126894 0.016767383
0.017693931 -0.11175114 0.015997767
0.020611681 -0.12367009 0.01475212
0.021766255 -0.1243786 0.011592776
0.022611976 -0.12333805 0.0072418451
0.020974312 -0.10943118 0.005174458
-0.0081076557 -0.10720122 0.0073250532
-0.0076090866 -0.11318517 0.01210013
-0.0066243382 -0.11261375 0.014372826
-0.0055540525 -0.11015537 0.016071796
-0.0047149644 -0.11221614 0.017032146
-0.0037074706 -0.11029725 0.017527372
-0.0027686381 -0.10982265 0.017910719
-0.0019028541 -0.11321982 0.018830806
-0.0009233203 -0.10987512 0.019851863
0 -0.11106426 0.020272523
0.00094874378 -0.1129005 0.020410925
0.0018681589 -0.11115546 0.020229638
0.0028142196 -0.11163072 0.020273924
0.0037964787 -0.11294524 0.019963145
0.0046859533 -0.11152569 0.019963145
0.0056746369 -0.11254697 0.019545943
0.0065740971 -0.11175965 0.019545943
0.0073971255 -0.11003224 0.019264847
0.0086157629 -0.11391953 0.018754035
0.0092848754 -0.11049002 0.017950803
0.010275865 -0.11116618 0.017555565
0.011372139 -0.11277371 0.017257512
0.011978449 -0.10964888 0.017263025
0.012897147 -0.10962575 0.017043501
0.014266413 -0.11318021 0.016876668
0.014609741 -0.10865995 0.016171664
0.016304696 -0.11413287 0.014856935
0.016891936 -0.11167446 0.014432281
0.017164217 -0.1075022 0.011849493
0.018921077 -0.1125804 0.0094477534
0.021210829 -0.1201947 0.0061737895
-0.0076299137 -0.11254123 0.0077197254
-0.0064879814 -0.10936882 0.010014296
-0.0057505649 -0.11309444 0.012862623
-0.0046214415 -0.10906602 0.014209747
-0.003740103 -0.11033304 0.015993327
-0.0028564846 -0.11235506 0.016902894
-0.001868563 -0.11024521 0.017952621
-0.00091759232 -0.10827589 0.018801898
0 -0.11040897 0.01981923
0.00093602552 -0.11045101 0.019793928
0.0018884323 -0.1114175 0.019723266
0.0028349399 -0.11150763 0.01981917
0.0037609292 -0.11094741 0.020052761
0.0047019315 -0.11096559 0.019708872
0.0057376386 -0.11284023 0.019206911
0.0063887076 -0.10769536 0.019014567
0.0075820442 -0.11183515 0.018562794
0.0083118081 -0.10897704 0.018026948
0.0092820814 -0.10952856 0.017568946
0.010536715 -0.11303022 0.017283708
0.011119793 -0.10934463 0.016501397
0.011564181 -0.10496718 0.016501397
0.013371333 -0.11270123 0.015522629
0.014171771 -0.1114846 0.014392793
0.014977363 -0.11045805 0.013184965
0.01594948 -0.11070816 0.01123476
0.016558738 -0.10855173 0.010523409
0.018166209 -0.11282172 0.0075282753
0.018749472 -0.11062188 0.0055920482
-0.0070588528 -0.11798368 0.0074266493
-0.0060244594 -0.11747696 0.0091959238
-0.0050295303 -0.117691 0.012235284
-0.0040546278 -0.11859786 0.013645679
-0.0029059579 -0.11333235 0.015865713
-0.0019420045 -0.11360727 0.016282916
-0.00096747838 -0.11319497 0.017519057
0 -0.11049818 0.018105298
0.00097550178 -0.11413371 0.018453538
0.0019275147 -0.11275961 0.018741965
0.0028138107 -0.10973862 0.018801898
0.0037099964 -0.10851739 0.019179404
0.004655032 -0.10892775 0.019029647
0.0056584156 -0.11033911 0.018544704
0.0067579593 -0.11295446 0.018262208
0.0077709248 -0.11364978 0.017830431
0.0086157741 -0.11200506 0.017465889
0.0099969292 -0.11696407 0.016917795
0.010573234 -0.11246076 0.016015202
0.011800812 -0.11505791 0.01494056
0.013098339 -0.11788505 0.014312208
0.013574446 -0.11344358 0.013418198
0.014683693 -0.1145328 0.012199402
0.015941629 -0.11657316 0.01066795
0.016480677 -0.11342583 0.0075499415
0.017713165 -0.11513557 0.0070389211
-0.0068960804 -0.1142779 0.0050826967
-0.0060056751 -0.11610971 0.007876426
-0.0049393051 -0.11459188 0.0095649958
-0.0039163297 -0.11357357 0.011790782
-0.0028496124 -0.11018501 0.013482094
-0.0019393064 -0.11247978 0.014615208
-0.00094126764 -0.10918704 0.016441315
0 -0.11364853 0.016581953
0.00096043682 -0.11141067 0.017723113
0.0018814399 -0.10912351 0.018105298
0.0028544646 -0.11037263 0.018225878
0.0037658585 -0.1092099 0.018332392
0.0046748496 -0.10845651 0.018271267
0.0056606662 -0.10943954 0.01808843
0.00655354 -0.10860152 0.017840892
0.0075646462 -0.10968737 0.017597795
0.0085232649 -0.10985541 0.017160088
0.0097661875 -0.11328777 0.0168311
0.010482597 -0.11054376 0.015827358
0.011562667 -0.11177245 0.013437599
0.012500372 -0.11154178 0.012721896
0.013456654 -0.11149798 0.012180448
0.015047843 -0.11636999 0.01056549
0.015821595 -0.11470655 0.0074533224
-0.0061418046 -0.11771792 0.0056298077
-0.0048687453 -0.11198114 0.0081217885
-0.0039008551 -0.11214958 0.010345817
-0.0029152755 -0.11175223 0.01284641
-0.0019754295 -0.11358719 0.013370007
-0.00094565202 -0.10874999 0.015423924
0 -0.11194825 0.015754342
0.0009394192 -0.10803321 0.01721862
0.0018698317 -0.10751533 0.017718822
0.0028699688 -0.11001547 0.018016338
0.003713639 -0.10676713 0.018107474
0.0048046238 -0.11050634 0.018010169
0.0057542115 -0.11028905 0.017679036
0.006609377 -0.10858262 0.017476678
0.0075872657 -0.10906695 0.017399758
0.0086069563 -0.10997778 0.016786754
0.0095609399 -0.1099508 0.015290469
0.010482758 -0.10959247 0.013841599
0.011495328 -0.11016355 0.012820065
0.012279459 -0.10862599 0.011622638
0.014058142 -0.1154776 0.010829955
0.014866035 -0.11397294 0.0062753856
-0.0048967167 -0.11164514 0.0060099065
-0.0039999783 -0.11399938 0.0083326399
-0.0029473454 -0.11199912 0.011351317
-0.0019207977 -0.10948547 0.012865841
-0.00097989396 -0.11170791 0.01461646
0 -0.10554286 0.015577108
0.00094805629 -0.10807842 0.016557515
0.0018826647 -0.10731189 0.017453492
0.0027800666 -0.10564253 0.017795801
0.0038793483 -0.11056142 0.01790148
0.0047819056 -0.10902745 0.017737716
0.0055075218 -0.10464291 0.01754728
0.0067516738 -0.10995582 0.017058283
0.007504357 -0.10693709 0.016786754
0.0084500602 -0.10703409 0.015089869
0.0097372681 -0.11100486 0.013640076
0.010429455 -0.10808708 0.012363106
0.01173639 -0.1114957 0.01124835
0.01288096 -0.11295611 0.010442466
0.013511616 -0.11002316 0.0062753856
-0.0038791529 -0.10958607 0.0075465441
-0.0028835132 -0.10861234 0.0097613037
-0.0019739578 -0.11152861 0.012008548
-0.00095909496 -0.10837773 0.01365599
0 -0.10779513 0.014957875
0.00096581323 -0.10913689 0.01627174
0.0019109745 -0.10797006 0.017313212
0.0028872923 -0.10875468 0.017795801
0.0037963777 -0.10724767 0.017997652
0.0046613705 -0.10534697 0.017780721
0.0057636774 -0.10854925 0.017570317
0.0068852408 -0.11114746 0.017062128
0.0075959717 -0.1072931 0.016589463
0.0086416407 -0.1085006 0.014506966
0.0095970742 -0.10844694 0.013039231
0.010347021 -0.10629212 0.011858076
0.011707066 -0.11024153 0.010512054
0.012730019 -0.11065324 0.0073289275
0.013917957 -0.11233779 0.00529176
-0.003829248 -0.10721894 0.005775094
-0.0029229447 -0.10912327 0.0082913935
-0.0019042516 -0.1066381 0.010554403
-0.00097337831 -0.10901837 0.012755364
0 -0.10747954 0.014282584
0.00094427302 -0.10575858 0.01546666
0.0019437385 -0.10884935 0.016256422
0.002882258 -0.1076043 0.017672807
0.0037860419 -0.10600917 0.017696708
0.0047429246 -0.10624151 0.017539233
0.0056909602 -0.10623126 0.017430544
0.0066312123 -0.1060994 0.016971231
0.0077068224 -0.10789552 0.015781105
0.0083911065 -0.10442266 0.013888955
0.0095454892 -0.10690948 0.012222856
0.010588455 -0.10780972 0.011215389
0.011709319 -0.10928698 0.0081574023
0.012456451 -0.10731711 0.0055645406
-0.0039329645 -0.10913976 0.0057190061
-0.0028946733 -0.10710292 0.0082903206
-0.0018756585 -0.10409905 0.011596859
-0.0009518264 -0.10565273 0.01332581
0 -0.10680594 0.014477462
0.00096791628 -0.10743871 0.015450239
0.001924168 -0.10679132 0.016291082
0.0028435232 -0.10521036 0.017587692
0.0038157776 -0.10588783 0.017727733
0.0047830991 -0.1061848 0.017497331
0.0056188661 -0.10394902 0.01745218
0.0066046691 -0.10473118 0.016745925
0.0075694593 -0.10502625 0.015860379
0.0084098643 -0.10372166 0.014636457
0.0094793988 -0.10522133 0.012275577
0.010361319 -0.10455513 0.011223495
0.011530033 -0.1066528 0.0082411468
0.012925991 -0.11036807 0.0055612326
-0.003983174 -0.10953729 0.0053800344
-0.0028605943 -0.10488846 0.0089164376
-0.0019248702 -0.10586786 0.011838108
-0.00093805842 -0.10318643 0.012907207
0 -0.10386065 0.014321595
0.00095421524 -0.10496368 0.014941454
0.0019176628 -0.10547145 0.015792608
0.0027986111 -0.10261574 0.017248303
0.003821973 -0.10510426 0.017497331
0.004685747 -0.10308643 0.017448962
0.0055463174 -0.10168248 0.01745218
0.0067449547 -0.10599215 0.016817868
0.007619774 -0.10477189 0.016297072
0.008661516 -0.10586297 0.014636457
0.0093261311 -0.10258744 0.012586713
0.010446319 -0.1044632 0.011156082
0.011775584 -0.10794285 0.0078006387
0.012503841 -0.10580173 0.0055362284
-0.003936064 -0.10725775 0.0052887797
-0.0028935266 -0.10513146 0.0097613037
-0.0019104199 -0.10411789 0.012102306
-0.00094788795 -0.10331979 0.013173223
0 -0.10428289 0.014227986
0.00092301151 -0.10060825 0.015326381
0.0018827796 -0.10261149 0.015551716
0.0027920404 -0.10144413 0.016998172
0.0036450112 -0.099326558 0.017430544
0.0047336868 -0.10319437 0.017395496
0.0057973936 -0.10531931 0.017307401
0.006392851 -0.099545822 0.016952127
0.0076753735 -0.10457697 0.016451538
0.0085451407 -0.10349114 0.014379293
0.0096412245 -0.10508935 0.01204434
0.010738799 -0.10641174 0.010840446
0.011521798 -0.10465633 0.0071813166
0.012683996 -0.10635043 0.0052643418
-0.0040473426 -0.10927825 0.0058322549
-0.0028913037 -0.10408694 0.010291547
-0.0018971483 -0.10244601 0.011716932
-0.00096379133 -0.10408946 0.012851089
0 -0.10146693 0.014107704
0.00094611815 -0.10218076 0.015358806
0.0018747865 -0.10123847 0.01554209
0.0027573153 -0.099263348 0.016882628
0.0037011078 -0.099929906 0.01723066
0.0047359564 -0.10229666 0.017095983
0.0055105719 -0.099190295 0.017282426
0.006678239 -0.10303569 0.016659081
0.0075492267 -0.10191456 0.016173065
0.0084902784 -0.10188334 0.014490396
0.0098315272 -0.1061805 0.013165057
0.010460354 -0.10270166 0.011156082
0.011325417 -0.10192875 0.0078006387
0.012847825 -0.10673577 0.0053112209
-0.0038714849 -0.10356222 0.0052004457
-0.0029161235 -0.1040084 0.0087368488
-0.0019679263 -0.10528405 0.011289924
-0.00095378299 -0.10205477 0.012404501
0 -0.10352221 0.014107704
0.00095721084 -0.10242156 0.015330017
0.0018762772 -0.10038083 0.015792698
0.0028362025 -0.10115789 0.016854942
0.0037471259 -0.10023562 0.017112106
0.0047628544 -0.10192508 0.017157644
0.005700442 -0.10165788 0.017260402
0.0065328209 -0.099858835 0.016637027
0.0074402476 -0.099513307 0.016029
0.008639317 -0.10271189 0.014348507
0.00984638 -0.10535627 0.013288826
0.010372726 -0.10089834 0.010856748
0.011763584 -0.10489196 0.0073052943
0.012612422 -0.10380994 0.0050005317
-0.0029611601 -0.10462766 0.006916225
-0.0019245638 -0.10200188 0.01024133
-0.00094514457 -0.10018533 0.011739224
0 -0.1018437 0.01314947
0.00094869407 -0.10056157 0.014835268
0.001921315 -0.10182969 0.015307844
0.002898894 -0.10242759 0.015479207
0.0037101395 -0.098318696 0.015799373
0.0046877787 -0.09938091 0.016367376
0.0056583527 -0.099964231 0.01660639
0.0065691494 -0.099475689 0.015999913
0.0077805799 -0.10309269 0.014737785
0.0084852846 -0.099937797 0.014007986
0.0095315985 -0.10103494 0.011478722
0.01054032 -0.10157035 0.0093058646
0.011740195 -0.10370505 0.0052618682
-0.0029076333 -0.10176717 0.0050550401
-0.0018996921 -0.099733837 0.0084067285
-0.00096243364 -0.10105553 0.01040706
0 -0.10053131 0.012099743
0.00095328537 -0.10009497 0.014015615
0.0019241275 -0.10101669 0.014854789
0.0028101343 -0.098354697 0.015249819
0.0038661694 -0.10148694 0.01516068
0.0047218455 -0.099158756 0.014997572
0.0056270286 -0.098472998 0.014693141
0.0066218954 -0.099328429 0.014482975
0.0076878839 -0.10090347 0.014145851
0.0084713371 -0.098832265 0.011706203
0.0094824499 -0.099565722 0.0099948347
0.01031752 -0.098485425 0.0067878962
-0.0019351192 -0.1006262 0.0058322549
-0.00097690092 -0.1015977 0.0083275437
0 -0.099725716 0.010153145
0.00095372024 -0.099186905 0.012018591
0.0018591353 -0.096675038 0.013254046
0.0027931763 -0.096830107 0.014500886
0.0037858072 -0.098430991 0.014760315
0.0047014244 -0.09778963 0.014495909
0.0057209888 -0.099163808 0.014275998
0.0066902358 -0.099397793 0.013632149
0.0073330868 -0.095330127 0.011772096
0.0084589534 -0.097747907 0.0091509223
0.0096685532 -0.10055295 0.0065369308
0.010265297 -0.097053722 0.0050334334
-0.00096752145 -0.099654712 0.0063174069
0 -0.098252907 0.0081960261
0.00095493277 -0.098358072 0.01001358
0.0018804547 -0.096843414 0.010955721
0.0028390698 -0.097474732 0.011988997
0.0038824363 -0.09997274 0.012385786
0.0045948331 -0.094653562 0.012284428
0.0056946562 -0.097758263 0.012072712
0.006609777 -0.097258143 0.011445343
0.0076298043 -0.098233737 0.0092800558
0.0083305305 -0.095338292 0.0067533255
0 -0.097311519 0.0053666532
0.00097596471 -0.099548399 0.0069631338
0.0019341966 -0.098644026 0.0080356896
0.0028199069 -0.095876835 0.0085708499
0.0038133005 -0.097239159 0.0096498728
0.0046712975 -0.095294468 0.0095436573
0.0056104297 -0.095377304 0.0079381764
0.0066886293 -0.097462885 0.007581532
0.0076341592 -0.097335532 0.0054902732
0 0 0 1 0 0 0 1 0 0 0 1 0 0 0 0 0 1194 1 0 0
