ply
format ascii 1.0
comment PCL generated
element vertex 1161
property float x
property float y
property float z
element camera 1
property float view_px
property float view_py
property float view_pz
property float x_axisx
property float x_axisy
property float x_axisz
property float y_axisx
property float y_axisy
property float y_axisz
property float z_axisx
property float z_axisy
property float z_axisz
property float focal
property float scalex
property float scaley
property float centerx
property float centery
property int viewportx
property int viewporty
property float k1
property float k2
end_header
0.078020126 -0.055184964 0.0056207776
0.078719735 -0.055008974 0.0057921708
0.081901938 -0.056551341 0.0056295693
0.07993301 -0.054542523 0.0054324865
0.080873132 -0.054542348 0.0050703585
0.082902089 -0.054026082 0.0050366223
0.085512333 -0.054502368 0.0050736666
0.086039223 -0.054242115 0.005066663
0.089608602 -0.055884935 0.0050671101
0.088208705 -0.054426648 0.0050214827
0.088714458 -0.05416251 0.0050705373
0.090809017 -0.054863784 0.0050359368
0.090870097 -0.054334696 0.0055366755
0.093696684 -0.055453137 0.0050148666
0.0929939 -0.054481275 0.0053907633
0.083275236 -0.06328918 0.0056450963
0.082000054 -0.061500039 0.0069288313
0.083317138 -0.061676323 0.0079611242
0.089658298 -0.065519527 0.0079617798
0.086760961 -0.062599681 0.0080396235
0.086904466 -0.061919432 0.008304745
0.092959002 -0.065415591 0.0078600645
0.086215787 -0.059930485 0.0082091689
0.092289135 -0.063379288 0.0080865622
0.094381131 -0.064044341 0.0076914132
0.088532194 -0.059368651 0.0075186193
0.09822578 -0.065103129 0.0077758729
0.098607168 -0.064604692 0.0073405504
0.095531225 -0.061878182 0.0064075887
0.10139824 -0.064940445 0.0056455433
0.099872537 -0.063252605 0.0058735609
0.099500857 -0.06232471 0.006200999
0.10640626 -0.065925613 0.0069412887
0.10264198 -0.062909596 0.0071320236
0.10235588 -0.06206686 0.0071502924
0.10477226 -0.062863357 0.0072540939
0.10298325 -0.061146304 0.0069975853
0.10612176 -0.062360212 0.0072607696
0.10871999 -0.063235097 0.0067885816
0.10515218 -0.060542163 0.0072540939
0.10881786 -0.06202618 0.0064305365
0.10924464 -0.061652914 0.0057084858
0.069995768 -0.052969772 0.0077348351
0.069845334 -0.052151181 0.0084864795
0.070380472 -0.051859297 0.01126042
0.072724886 -0.052890826 0.011446744
0.072189011 -0.051828008 0.011544377
0.072999753 -0.051746659 0.011413157
0.077535398 -0.054274779 0.011652797
0.076943032 -0.053195182 0.012246162
0.07829541 -0.053470038 0.012213022
0.078220785 -0.052775469 0.012132049
0.078512616 -0.052341744 0.012756258
0.08231499 -0.054231055 0.012069106
0.083763443 -0.054543637 0.012505442
0.082305893 -0.052978508 0.012818694
0.088172808 -0.056109969 0.012533784
0.085094377 -0.053542528 0.012335598
0.087267302 -0.054299656 0.011723399
0.097185828 -0.059806664 0.012053102
0.094731592 -0.057662707 0.012100101
0.092480071 -0.055686925 0.01224485
0.099895924 -0.059512466 0.012100101
0.095445193 -0.05626243 0.012100101
0.1003883 -0.058559842 0.011224419
0.10455831 -0.060363561 0.011804432
0.097490966 -0.055709124 0.011604697
0.1095539 -0.061969884 0.012100101
0.10838509 -0.060695648 0.011168033
0.097202584 -0.053894501 0.010280877
0.11407126 -0.06262736 0.0082182288
0.1111154 -0.060412254 0.0061514974
0.1056991 -0.056914899 0.0060185194
0.065877661 -0.050323214 0.0060268939
0.068539999 -0.051639725 0.0077348351
0.067435093 -0.050120674 0.010785818
0.069604814 -0.051043533 0.012658745
0.070842013 -0.051267244 0.014970273
0.070469454 -0.050335325 0.015263975
0.071799219 -0.050627653 0.015309572
0.074432783 -0.051820289 0.015172333
0.074363858 -0.05112515 0.015896589
0.075208679 -0.051067621 0.015896589
0.07551752 -0.050651994 0.015276015
0.075613335 -0.050105222 0.015195042
0.076791696 -0.050280277 0.015026271
0.079019368 -0.051130179 0.014330566
0.07921657 -0.050661761 0.014142513
0.079500645 -0.050259028 0.014417887
0.080147356 -0.050092097 0.014138192
0.080597237 -0.04980728 0.014086902
0.084530599 -0.051657587 0.013963908
0.082871847 -0.050087377 0.014023513
0.083573163 -0.049962215 0.014054626
0.08479958 -0.05015029 0.014265418
0.085742049 -0.05016822 0.014647663
0.086189032 -0.049898911 0.014962554
0.087871969 -0.050343316 0.014592618
0.087249026 -0.049471099 0.015415788
0.091821551 -0.051532503 0.014717191
0.088113725 -0.048952069 0.015140325
0.088662058 -0.048764132 0.014547497
0.091238275 -0.049684212 0.014283776
0.09442962 -0.050917931 0.013740659
0.093839429 -0.050108433 0.010812491
0.095196076 -0.05034408 0.0090248585
0.096424073 -0.050507847 0.0071510673
0.10190904 -0.052877333 0.006526798
0.10254206 -0.052708536 0.0061297715
0.10387404 -0.052898817 0.0055273175
0.068845756 -0.051634319 0.0076510906
0.066900514 -0.049488053 0.010785818
0.067742519 -0.049433731 0.013311923
0.06815093 -0.049068671 0.015111655
0.069414951 -0.049321149 0.016562223
0.072982229 -0.051182341 0.01734376
0.073265754 -0.050722443 0.018058628
0.072200559 -0.049352277 0.017825037
0.073361643 -0.049519107 0.017795682
0.075210378 -0.050140254 0.017654091
0.075631775 -0.049806289 0.017432272
0.076937266 -0.050055571 0.017409444
0.078291245 -0.050330084 0.016777903
0.07675124 -0.048759609 0.016615093
0.080755427 -0.050706897 0.016184777
0.081445083 -0.050552122 0.016426682
0.081474118 -0.049995482 0.016471177
0.082790695 -0.050232559 0.016327292
0.082707889 -0.049624734 0.01635915
0.08418756 -0.049957454 0.015637964
0.085744031 -0.050328016 0.015838057
0.086589888 -0.050278001 0.01592198
0.08782386 -0.050452005 0.015791774
0.090235025 -0.051291484 0.016049922
0.088033095 -0.049518615 0.015945017
0.090565443 -0.050417878 0.016379356
0.09170758 -0.050532747 0.015667796
0.091289558 -0.049794305 0.015973419
0.093310609 -0.050387729 0.015700042
0.096258901 -0.051465154 0.015401602
0.092919797 -0.049192835 0.01481688
0.095178612 -0.049899466 0.014429271
0.096811235 -0.050267372 0.013840348
0.093801871 -0.048240963 0.012286961
0.10113712 -0.051522687 0.010514915
0.098708227 -0.049815368 0.0089923143
0.11209863 -0.056049317 0.0072007477
0.11711563 -0.058020588 0.0067195296
0.11351936 -0.055727683 0.0061209798
0.065638341 -0.048317112 0.01063785
0.067203589 -0.048791647 0.013311923
0.072209291 -0.051717464 0.015435606
0.069931045 -0.049417939 0.01772207
0.070057645 -0.04885599 0.018514931
0.071845338 -0.049451988 0.018740267
0.072081916 -0.048978738 0.018477857
0.073387265 -0.049234495 0.018503487
0.075322971 -0.049901467 0.018543124
0.07486327 -0.04898461 0.018422514
0.076342866 -0.04934356 0.018148661
0.076141112 -0.048620228 0.018281609
0.07648892 -0.048260864 0.017710596
0.079498768 -0.049569819 0.017611414
0.08136145 -0.050141361 0.017547637
0.079731524 -0.048572078 0.017518878
0.083025843 -0.050004199 0.017388642
0.081378385 -0.048461288 0.017366022
0.081467688 -0.047975414 0.016636074
0.085973479 -0.050072465 0.016797721
0.084051505 -0.048420977 0.017005712
0.085277379 -0.048598938 0.016991496
0.088461064 -0.049876984 0.016830534
0.086862363 -0.048460055 0.017242253
0.090253197 -0.049827285 0.016939044
0.090957582 -0.049698472 0.017383218
0.091047749 -0.049240109 0.016781271
0.092755169 -0.049656805 0.01695019
0.092507988 -0.049029231 0.017188042
0.090865344 -0.047681812 0.017049104
0.095746234 -0.049750492 0.01650551
0.096177019 -0.049489148 0.015679508
0.095401831 -0.048618242 0.014733106
0.09719497 -0.049060319 0.014278173
0.098740898 -0.049370449 0.013577431
0.10894036 -0.053961113 0.012253821
0.10522543 -0.051638406 0.010127813
0.10435094 -0.050739449 0.0091865063
0.10518961 -0.050682269 0.0077128112
0.10583016 -0.050531518 0.0067187846
0.10392105 -0.049176924 0.0061209798
0.064695694 -0.047382761 0.0075757504
0.066589147 -0.04809216 0.012370318
0.067208663 -0.047874663 0.015327305
0.068830863 -0.048367631 0.017654091
0.071320131 -0.049448624 0.018379748
0.073981099 -0.050618645 0.019039989
0.071422167 -0.048233148 0.019097835
0.072875924 -0.048583947 0.018936276
0.072636969 -0.047811676 0.019097835
0.072966687 -0.047428343 0.018892139
0.077138223 -0.049520832 0.019520909
0.076010764 -0.048201945 0.019423187
0.075914003 -0.04756058 0.019600511
0.077616975 -0.048048604 0.018467098
0.079383083 -0.048563771 0.018038303
0.077565119 -0.04689984 0.018148005
0.081939578 -0.048975382 0.018385172
0.080433846 -0.04752909 0.018452704
0.082856454 -0.048410513 0.01779291
0.083828464 -0.048434224 0.017670065
0.084487192 -0.048278395 0.017725915
0.08539658 -0.048267633 0.018096417
0.085995905 -0.048083734 0.018265843
0.088858016 -0.0491555 0.018096417
0.087527901 -0.047910009 0.018265843
0.089964002 -0.0487305 0.018936634
0.089493409 -0.047975849 0.019148499
0.091913074 -0.048770204 0.01785326
0.090465926 -0.047517456 0.019002169
0.091391318 -0.047523484 0.018883556
0.092847615 -0.047802731 0.018613219
0.095470116 -0.048671041 0.018164217
0.094244696 -0.047579847 0.016577303
0.095813699 -0.04790685 0.016095757
0.096112616 -0.04759863 0.015294403
0.098385878 -0.048264772 0.014249206
0.10407829 -0.050580107 0.01415062
0.10271014 -0.049453031 0.012646675
0.10217277 -0.048742972 0.010603517
0.10829376 -0.051193412 0.0096374154
0.10410374 -0.048769321 0.0080946386
0.11003544 -0.051087882 0.007006824
0.10792328 -0.049663812 0.0063144267
0.065565199 -0.04709613 0.010721803
0.067759976 -0.047996648 0.014353722
0.067130163 -0.046899155 0.017541945
0.069163851 -0.047666978 0.018079311
0.071374498 -0.048534662 0.018879831
0.07130111 -0.047846802 0.019939959
0.070957012 -0.046997502 0.019823402
0.075685509 -0.049486682 0.019967467
0.074895382 -0.048350181 0.019935161
0.074525736 -0.047510158 0.019869745
0.075517647 -0.047548145 0.020254821
0.075820141 -0.047156427 0.019784242
0.076612741 -0.047075298 0.019951165
0.077366762 -0.046972677 0.019159228
0.078121565 -0.046872936 0.019025981
0.080312259 -0.047627039 0.018946379
0.081105746 -0.047544748 0.019007146
0.081319436 -0.047128309 0.019190967
0.083905317 -0.048080575 0.018881559
0.082774498 -0.046905547 0.018715799
0.08128567 -0.045555703 0.019074202
0.088063888 -0.048818026 0.01896432
0.085885823 -0.047098678 0.019236565
0.08627601 -0.046809327 0.019629896
0.08996769 -0.048298445 0.020392448
0.086886138 -0.046158262 0.020056874
0.08922942 -0.04691444 0.019970566
0.092580721 -0.048179761 0.019970655
0.091409281 -0.047089629 0.02030623
0.092042051 -0.046941448 0.019990891
0.092770323 -0.046844419 0.019536823
0.090620793 -0.045310397 0.019094825
0.095959507 -0.047513928 0.017590463
0.096145317 -0.047148187 0.017028749
0.095698126 -0.046481945 0.016460001
0.10384485 -0.049963091 0.014917165
0.10031753 -0.047814898 0.014518052
0.1013061 -0.04783899 0.014256835
0.10366037 -0.048501641 0.013847113
0.10240494 -0.047478657 0.011725098
0.10205051 -0.046888072 0.0099663734
0.10653223 -0.048510212 0.0090566576
0.1034828 -0.046704628 0.0077152252
0.11025097 -0.049322803 0.0064819455
0.065671638 -0.046247631 0.010032952
0.067850664 -0.047118515 0.013676614
0.068084359 -0.046633121 0.016205162
0.06941662 -0.046903122 0.01778698
0.069846742 -0.046564493 0.018468648
0.070877798 -0.046630129 0.01937142
0.072699122 -0.047207221 0.019498587
0.072339565 -0.046371516 0.019939959
0.072821386 -0.046089489 0.019943863
0.074626081 -0.046641298 0.019580305
0.07425449 -0.045836106 0.01996538
0.076882601 -0.046879634 0.019777656
0.075661451 -0.045579188 0.019866854
0.077005811 -0.045836791 0.019297242
0.077553757 -0.04561986 0.019175798
0.079717644 -0.046347465 0.019598514
0.079426631 -0.045647487 0.019626677
0.082780965 -0.04703464 0.019332796
0.084959112 -0.047729835 0.019494057
0.081591435 -0.045328572 0.019494057
0.085644916 -0.047057647 0.019747764
0.084156148 -0.045737036 0.020309389
0.084924854 -0.045658525 0.020373344
0.086582586 -0.046054568 0.02016443
0.088750653 -0.046710871 0.020378917
0.091244631 -0.047523245 0.020180732
0.089344129 -0.046053674 0.020685226
0.088391423 -0.045097664 0.020429939
0.092299499 -0.046615906 0.020457208
0.095176116 -0.047588058 0.020520866
0.092704408 -0.045893271 0.019948751
0.094638951 -0.04639164 0.019561678
0.097254433 -0.047210891 0.018654555
0.096329153 -0.046312094 0.018210769
0.097486965 -0.046422362 0.017189503
0.099104308 -0.046747312 0.015793711
0.097570159 -0.04559353 0.01562053
0.10364489 -0.047983747 0.014518648
0.10249996 -0.047018331 0.014671117
0.10232715 -0.046512339 0.013366699
0.10414962 -0.046914246 0.010602772
0.1023245 -0.045680583 0.0097067058
0.10881203 -0.048146915 0.0084553063
0.10657529 -0.046743546 0.0072007477
0.10613208 -0.046144381 0.0062221885
0.068424143 -0.047222294 0.010086924
0.065565102 -0.044620696 0.013315827
0.067619838 -0.045388661 0.015381277
0.06820076 -0.045159962 0.017542899
0.069787838 -0.045594718 0.018274128
0.071996994 -0.046419114 0.018801451
0.071919695 -0.04576708 0.019025922
0.071811654 -0.04511245 0.019228339
0.074238211 -0.046046484 0.019624799
0.072932668 -0.04467126 0.019058049
0.076736607 -0.046420909 0.019697934
0.076789036 -0.045886129 0.019386649
0.075160421 -0.044371814 0.019354492
0.07949084 -0.046369657 0.018999964
0.077786244 -0.04484148 0.018689662
0.078107633 -0.044503186 0.01898858
0.081545569 -0.045927964 0.019049346
0.081585854 -0.045428485 0.019267768
0.082109354 -0.045206275 0.018809229
0.085722946 -0.046671383 0.018881559
0.083680794 -0.045058891 0.019149631
0.085450798 -0.045511838 0.019195199
0.08638747 -0.045515981 0.019681275
0.08816056 -0.045956034 0.02007851
0.087431513 -0.045096252 0.020528167
0.089138515 -0.045497786 0.020227671
0.086883821 -0.043889765 0.020303994
0.09226089 -0.046130445 0.019955456
0.091630936 -0.045352686 0.020056874
0.091798566 -0.044981297 0.019957721
0.09427961 -0.045739613 0.019483954
0.093625963 -0.044977177 0.019094825
0.091799431 -0.043671571 0.018440813
0.097966678 -0.046157379 0.017157465
0.096569896 -0.045065951 0.016577303
0.096224017 -0.044480916 0.015687138
0.10001417 -0.04580088 0.015297979
0.10113357 -0.045884676 0.014414519
0.10096058 -0.045385946 0.014735013
0.10431129 -0.046465937 0.013783306
0.10407712 -0.045943953 0.012026429
0.1052362 -0.046040833 0.010344237
0.10715408 -0.046465043 0.008948952
0.10478327 -0.045038424 0.0069568753
0.10861061 -0.046277564 0.0057989955
0.06893035 -0.047266524 0.0056924224
0.064451396 -0.043572772 0.010886759
0.067693897 -0.045129266 0.014508605
0.067443818 -0.044346619 0.016235739
0.067317046 -0.043665115 0.017707467
0.07006105 -0.044839073 0.018239051
0.070020646 -0.044223569 0.018530101
0.070429876 -0.043904338 0.018724978
0.074433662 -0.045805331 0.018788934
0.072380401 -0.043977968 0.019206971
0.074973695 -0.044984218 0.018874824
0.075007856 -0.044449098 0.01891464
0.075309098 -0.044083375 0.018846005
0.077894159 -0.045047224 0.01875481
0.077284738 -0.044162706 0.01821667
0.077790193 -0.043928582 0.018432677
0.082427487 -0.046006039 0.018627018
0.08174146 -0.045098737 0.018967181
0.079792827 -0.04352336 0.018851817
0.084401511 -0.045519914 0.018882155
0.081862465 -0.043659981 0.018831223
0.08420974 -0.044418328 0.019175798
0.087881997 -0.045851476 0.019409031
0.087192558 -0.045002609 0.020119816
0.086932115 -0.044390868 0.0201011
0.090275869 -0.045613069 0.020469457
0.088568203 -0.044284102 0.020166248
0.089227185 -0.044153661 0.020257562
0.090478227 -0.044315863 0.020099789
0.091231279 -0.044233348 0.019993722
0.09315756 -0.044715628 0.020030051
0.093729101 -0.044544525 0.01949808
0.094432019 -0.044438597 0.018930078
0.093512744 -0.043578755 0.018163055
0.095234782 -0.043954514 0.016786277
0.096921407 -0.04430693 0.016273439
0.10098869 -0.045730729 0.01529637
0.097990006 -0.043958131 0.015297979
0.10067455 -0.044744242 0.014518648
0.10346597 -0.045562997 0.01461637
0.10172357 -0.044388466 0.013891041
0.10432351 -0.045112871 0.012802511
0.10558985 -0.045252796 0.010969013
0.10441474 -0.044353161 0.0094202161
0.1071879 -0.045131747 0.0075030029
0.1069247 -0.04462944 0.0062457323
0.066184208 -0.044437971 0.0057308078
0.06769345 -0.044811156 0.01097554
0.066025071 -0.043099698 0.015128076
0.067635141 -0.043545909 0.016169578
0.071397014 -0.045346752 0.017602056
0.070050746 -0.043898467 0.018084645
0.071216449 -0.044041749 0.018494278
0.071875922 -0.043872315 0.018519253
0.072168626 -0.043486223 0.018473953
0.072993204 -0.043426339 0.018539429
0.074149676 -0.043562938 0.018291295
0.075683996 -0.043915406 0.018239528
0.076429099 -0.043806922 0.018730402
0.077684611 -0.043990083 0.018655986
0.077463627 -0.043342743 0.017999828
0.080079794 -0.044279419 0.018388897
0.079724655 -0.043570451 0.018559426
0.077526212 -0.041881975 0.01877141
0.082463436 -0.044042975 0.018805355
0.083467789 -0.044078495 0.018883497
0.082583435 -0.043126903 0.018966585
0.085760683 -0.044293981 0.019153804
0.084524184 -0.043180835 0.01955393
0.086826421 -0.043880019 0.02004385
0.088007115 -0.044003557 0.02007851
0.087366529 -0.043223441 0.020267665
0.090916909 -0.044511404 0.02016443
0.089932285 -0.04357544 0.020158499
0.088735484 -0.042556815 0.02014181
0.093233198 -0.044262227 0.020155013
0.093646668 -0.044013932 0.020488828
0.093380988 -0.043454517 0.019786924
0.0972201 -0.044797495 0.019289792
0.096466243 -0.044018578 0.017870545
0.096208528 -0.043478854 0.016860425
0.099650025 -0.044605251 0.016338408
0.10044964 -0.044538993 0.015494078
0.096009195 -0.042172261 0.015265405
0.10086964 -0.043896973 0.014768869
0.1022651 -0.044095963 0.01467663
0.10011789 -0.042777646 0.01387915
0.10404766 -0.044056218 0.012834728
0.10373361 -0.043531068 0.011079639
0.10699163 -0.04450094 0.0098548532
0.10820184 -0.044609532 0.0071104467
0.10559516 -0.043156281 0.0060057938
0.068402298 -0.044950083 0.006172508
0.066451557 -0.04305312 0.012322307
0.067293525 -0.042993084 0.015128076
0.068053745 -0.042883184 0.015698969
0.068720222 -0.042717975 0.017091125
0.068844512 -0.042224634 0.018013418
0.072052285 -0.043610595 0.018425047
0.071256392 -0.042568751 0.018581212
0.071830712 -0.042361703 0.018519253
0.074040338 -0.043112095 0.018666983
0.073535591 -0.042282965 0.01831311
0.074583367 -0.042355984 0.018202186
0.076245964 -0.042772125 0.018229067
0.076706566 -0.04251207 0.018108338
0.078704618 -0.043100148 0.017952383
0.079439126 -0.042990584 0.018510342
0.080968291 -0.043308623 0.018563986
0.080768682 -0.042705279 0.018627018
0.082199387 -0.042967863 0.018728584
0.082364008 -0.042570159 0.018959463
0.08570765 -0.043806132 0.019113034
0.08417888 -0.042551961 0.019188464
0.086052589 -0.043026295 0.020062357
0.085636847 -0.042358007 0.020233423
0.086364672 -0.04226356 0.020058036
0.086710557 -0.041986164 0.02016443
0.087511234 -0.041932467 0.019975245
0.087573551 -0.041529726 0.019829601
0.089969195 -0.042230438 0.019790679
0.091754414 -0.042633362 0.019754678
0.09195859 -0.042300951 0.019962013
0.094501033 -0.043040074 0.019171536
0.094644666 -0.04268289 0.018632144
0.094231941 -0.042084169 0.017161459
0.097065203 -0.042932685 0.016511858
0.095492803 -0.041834943 0.016305178
0.10007238 -0.043427635 0.015553564
0.10228975 -0.043975033 0.015199065
0.10126125 -0.043129791 0.0146887
0.10101866 -0.042631727 0.01417762
0.10308336 -0.043107584 0.013256073
0.10216045 -0.042336762 0.012165338
0.10532881 -0.043260049 0.010511458
0.10848741 -0.044163018 0.0091893971
0.10638109 -0.042925704 0.0061070621
0.06714756 -0.043166287 0.0061341226
0.065967865 -0.041810621 0.011584401
0.068950504 -0.043094065 0.014614284
0.069106869 -0.042600121 0.015510589
0.068993136 -0.041955285 0.016637295
0.072240144 -0.043344088 0.017930746
0.070283815 -0.041615415 0.018401086
0.072710939 -0.042493407 0.018401086
0.075315289 -0.043451127 0.018359572
0.072941765 -0.041549105 0.018543363
0.075843409 -0.04266192 0.018187732
0.07575722 -0.042087343 0.018187732
0.073873065 -0.040540095 0.018335253
0.078696065 -0.042666543 0.018306404
0.079258554 -0.042459939 0.018161654
0.079127431 -0.041890994 0.018349648
0.081452832 -0.04262067 0.018461972
0.081217095 -0.04200884 0.018553138
0.082301654 -0.042086072 0.018908352
0.083034113 -0.041983541 0.018822908
0.083649337 -0.041824669 0.018959463
0.084073424 -0.041574769 0.019149631
0.085197136 -0.041672513 0.01955393
0.085374527 -0.041310254 0.019888937
0.087639563 -0.04195511 0.019901931
0.087688319 -0.041536573 0.019975245
0.086768486 -0.040672727 0.019633293
0.090099595 -0.041798782 0.019633293
0.090122998 -0.041383009 0.019451708
0.089935124 -0.0408796 0.019526958
0.092505746 -0.041627586 0.019863635
0.094330944 -0.042028636 0.018847555
0.094020993 -0.041479848 0.018531471
0.096771024 -0.042278603 0.016777456
0.097105145 -0.042016651 0.016100645
0.096238934 -0.041245259 0.015895456
0.10170614 -0.043177135 0.015193552
0.10224891 -0.043001879 0.014888883
0.099484459 -0.041451856 0.014153332
0.10471524 -0.043231063 0.013822526
0.10286031 -0.042079218 0.012713104
0.10187024 -0.041298743 0.010627776
0.10476664 -0.042093743 0.0087957084
0.10401545 -0.04142208 0.0068285763
0.10899144 -0.043022934 0.0058172345
0.11028588 -0.043155342 0.0054725111
0.067337908 -0.041730538 0.010250688
0.066485323 -0.040629923 0.013366938
0.067957155 -0.04096048 0.015359491
0.069580652 -0.041372281 0.016013414
0.069585785 -0.040823661 0.017187476
0.071469367 -0.041377001 0.017862082
0.072399415 -0.041371092 0.018062443
0.072348513 -0.040811982 0.017968178
0.07400699 -0.041219082 0.018084645
0.075539343 -0.041546639 0.018050283
0.074316777 -0.040369608 0.018095106
0.07709787 -0.041369591 0.018060118
0.078277007 -0.041496243 0.018059433
0.077401102 -0.040543433 0.018212259
0.076822944 -0.039767172 0.018264741
0.080957748 -0.041420244 0.018400639
0.078295812 -0.039597884 0.018610179
0.082890764 -0.041445382 0.018627107
0.082157038 -0.040616963 0.018400639
0.083640873 -0.040891092 0.018832386
0.084178463 -0.040701676 0.019034892
0.084062323 -0.04020372 0.018888831
0.087072417 -0.041195553 0.019399017
0.087859504 -0.041125722 0.019357264
0.087431416 -0.04049455 0.01940304
0.090891622 -0.041658659 0.018877804
0.09005601 -0.040850148 0.01933071
0.088657059 -0.039805207 0.01933071
0.091255896 -0.040558174 0.019419789
0.093797721 -0.041270997 0.019786924
0.094237901 -0.041054137 0.018785089
0.09662687 -0.04168218 0.017372638
0.096658029 -0.041290808 0.016353458
0.095174506 -0.040266138 0.015781611
0.09890417 -0.041445557 0.015427083
0.099790834 -0.041422609 0.014735013
0.10134404 -0.041674186 0.014131546
0.10424241 -0.042469129 0.013219088
0.10098607 -0.040765017 0.0127033
0.10333508 -0.041334033 0.010643333
0.1065945 -0.042253673 0.0087954998
0.10467731 -0.04112323 0.0074033439
0.1095413 -0.042653251 0.0062074661
0.10962263 -0.042310491 0.0056743622
0.10772122 -0.041215077 0.0054848492
0.064342789 -0.038968168 0.0085140169
0.06667684 -0.039820891 0.013287872
0.068667948 -0.040448245 0.015245408
0.069045275 -0.040120903 0.016097367
0.069236666 -0.039695691 0.016798824
0.070569463 -0.03992746 0.017930746
0.072170429 -0.040302966 0.018009812
0.072807506 -0.04013747 0.018002123
0.074164495 -0.040368017 0.018230945
0.07322108 -0.039356332 0.018119901
0.076317526 -0.040514242 0.018164724
0.077065207 -0.040412243 0.018145174
0.074691013 -0.038695343 0.017879188
0.078109488 -0.039984617 0.017984509
0.079186983 -0.040059298 0.018308282
0.078006513 -0.039003257 0.01821667
0.081231333 -0.040148821 0.018404663
0.083081149 -0.040596474 0.018404663
0.082630195 -0.039922453 0.01821667
0.083332092 -0.039814223 0.018122464
0.085565276 -0.040431947 0.019015551
0.084408484 -0.039451793 0.019069135
0.088405326 -0.04087558 0.019073933
0.086689614 -0.039655887 0.018948048
0.087072529 -0.039411776 0.019237518
0.088576905 -0.039675072 0.018923581
0.087844931 -0.038941566 0.019227386
0.091119699 -0.039981093 0.019108951
0.093882881 -0.040777415 0.019007474
0.089871861 -0.038644899 0.019466043
0.094735429 -0.040332906 0.018545181
0.093061171 -0.039231669 0.016567111
0.09462256 -0.039502621 0.015686274
0.097281538 -0.040222175 0.014928699
0.097023681 -0.039733507 0.014597863
0.099136874 -0.040215902 0.013537645
0.10091123 -0.040553112 0.012764961
0.10262335 -0.040859297 0.011478961
0.10273869 -0.040529944 0.010325849
0.10574293 -0.041335873 0.0087230802
0.10533798 -0.040806606 0.0064654648
0.10735594 -0.041217014 0.0056683421
0.1076737 -0.040973179 0.0054946542
0.10528638 -0.039713286 0.0051867664
0.065469079 -0.038728185 0.0062915981
0.067278437 -0.039245754 0.012349814
0.068520114 -0.039422531 0.015105337
0.069631979 -0.039520852 0.0156627
0.07112103 -0.039827775 0.016493201
0.070816375 -0.039135367 0.017843276
0.071424626 -0.038958885 0.017886341
0.074708521 -0.040227666 0.017980397
0.072719537 -0.038661022 0.018232375
0.07526464 -0.039513934 0.01828903
0.075108498 -0.038945146 0.01838854
0.076454096 -0.039159417 0.018362731
0.077184677 -0.039057307 0.018067002
0.078722179 -0.039361089 0.01826033
0.076967657 -0.038031075 0.01843363
0.080817103 -0.039468817 0.01821667
0.080817856 -0.039015517 0.018400639
0.079602718 -0.037992205 0.018436193
0.083304167 -0.03931208 0.018264621
0.083172716 -0.038813934 0.018169671
0.083818972 -0.038685679 0.018974423
0.086252093 -0.039375957 0.019067258
0.086716488 -0.039162286 0.019036323
0.087494358 -0.039093226 0.019037068
0.08920417 -0.039437633 0.018709064
0.087866724 -0.038441692 0.018210799
0.088869363 -0.038479518 0.018690646
0.091834925 -0.039357826 0.018537432
0.092741624 -0.039344929 0.018028677
0.09530355 -0.040027492 0.018814474
0.095590688 -0.039750583 0.017423838
0.092869684 -0.038240459 0.015705884
0.093760304 -0.038232356 0.015161514
0.095975712 -0.038759422 0.01459682
0.09498775 -0.0379951 0.0141325
0.10289943 -0.040771473 0.01241672
0.10211653 -0.040083122 0.010842353
0.10172207 -0.039558582 0.010168552
0.10538211 -0.040605951 0.0085091293
0.10536938 -0.040231947 0.0060854256
0.10563298 -0.039969236 0.005502522
0.066820927 -0.038586732 0.0058885217
0.06640625 -0.037814669 0.012238145
0.067890175 -0.038130097 0.014108509
0.068221681 -0.037798498 0.015521377
0.070487902 -0.038533386 0.016202629
0.070990019 -0.038297247 0.017699242
0.072494894 -0.038601179 0.017781556
0.072650537 -0.038188104 0.017834395
0.07289505 -0.037831608 0.018240541
0.074772634 -0.038320977 0.018416762
0.074673504 -0.037797701 0.018412709
0.077635236 -0.038817618 0.0184955
0.079028785 -0.039038315 0.018202484
0.076542407 -0.037359983 0.018440217
0.079087481 -0.038148079 0.018679202
0.080248758 -0.038258128 0.018486381
0.078781396 -0.037126865 0.018488973
0.082653411 -0.038508974 0.018664062
0.081800483 -0.037683371 0.01829806
0.083135985 -0.03787306 0.018240899
0.08623822 -0.03885458 0.019067258
0.083628707 -0.037269313 0.01897648
0.084292494 -0.037161209 0.018894166
0.087768547 -0.038282026 0.018975735
0.087469108 -0.037749827 0.0185166
0.08968325 -0.038302224 0.018115044
0.09132456 -0.038601104 0.018615723
0.091249533 -0.038175825 0.018609792
0.092525624 -0.038318694 0.018023491
0.093121573 -0.038179845 0.018725365
0.091978997 -0.037338011 0.017251492
0.093647934 -0.037642799 0.015458614
0.098365247 -0.0391551 0.014619231
0.097388148 -0.038393404 0.013687462
0.097069308 -0.037903253 0.012877196
0.1016258 -0.039308093 0.010814816
0.10550199 -0.040425997 0.0092367828
0.10935854 -0.041515741 0.007297188
0.10424161 -0.039210148 0.0060004592
0.11033711 -0.041125648 0.0052323639
0.067646526 -0.037581403 0.0105353
0.068652309 -0.037617706 0.013347685
0.072747529 -0.039322987 0.015456319
0.071247742 -0.037998796 0.01595062
0.073362187 -0.038611677 0.017071813
0.071752831 -0.037274197 0.017388374
0.073439673 -0.037661374 0.017648846
0.073079579 -0.037002318 0.018290699
0.07335221 -0.036676105 0.018553466
0.075404681 -0.037236881 0.018440932
0.078125283 -0.038109891 0.018499404
0.076040901 -0.036646217 0.018335253
0.078672998 -0.03746333 0.018295467
0.077916615 -0.036666643 0.018797487
0.077444673 -0.036020778 0.018414289
0.082990788 -0.038156684 0.018414289
0.082328744 -0.037422158 0.018409789
0.082388729 -0.037028644 0.018206537
0.084089234 -0.037372991 0.018023729
0.085762344 -0.037697736 0.018671513
0.083350144 -0.036239192 0.018610179
0.087805629 -0.037765864 0.018278003
0.089314394 -0.038006123 0.01818648
0.087362289 -0.036784124 0.017900288
0.088653259 -0.036938857 0.017530411
0.087990962 -0.036284935 0.017595857
0.090176076 -0.036806561 0.017543972
0.093059145 -0.037599653 0.017196834
0.092471138 -0.036988456 0.017212272
0.095824681 -0.03795037 0.016125441
0.094503999 -0.037060391 0.014641792
0.095227182 -0.03698143 0.014107257
0.097548008 -0.037518464 0.012455493
0.098716833 -0.037606411 0.010901272
0.10034531 -0.037866153 0.0097954273
0.10368709 -0.03876153 0.0068537593
0.11010907 -0.040781137 0.0059790313
0.068203695 -0.03694367 0.0052232444
0.071625359 -0.038265605 0.012203872
0.070502244 -0.037156589 0.015025377
0.073845536 -0.038399681 0.015764773
0.071276836 -0.036576271 0.016159713
0.07116247 -0.036043331 0.016775131
0.074261054 -0.037130527 0.016965121
0.074728645 -0.036891356 0.017342418
0.075222269 -0.036670856 0.017809033
0.075506113 -0.036354795 0.018251032
0.073447347 -0.034932274 0.018362731
0.076362781 -0.035881307 0.018261522
0.078843191 -0.036605768 0.018227667
0.076755412 -0.035217192 0.018601269
0.079556644 -0.036078013 0.01843372
0.080517925 -0.036094245 0.018390745
0.080441914 -0.035650395 0.018547416
0.083013557 -0.03637673 0.018164694
0.084501237 -0.036617205 0.017932862
0.084912635 -0.036391132 0.01843372
0.086280197 -0.036575302 0.01801002
0.08792688 -0.036872562 0.017643899
0.08534696 -0.035409909 0.017593086
0.090484306 -0.037146188 0.017166346
0.087571517 -0.035575926 0.016899467
0.091278575 -0.036699634 0.016974479
0.091957621 -0.036595378 0.016634554
0.092777602 -0.036548752 0.016126096
0.093926072 -0.036631171 0.015671909
0.092319354 -0.03564807 0.014876902
0.094395243 -0.036092296 0.013476849
0.097957745 -0.037090797 0.012460321
0.098388545 -0.036895704 0.010993451
0.096388116 -0.035801303 0.0093052685
0.10537444 -0.038769841 0.006844461
0.10150604 -0.036997531 0.0053958297
0.07238663 -0.037680712 0.0058193207
0.073243573 -0.037611566 0.012560844
0.073768459 -0.03737602 0.014965564
0.069300339 -0.034650169 0.015377998
0.072245277 -0.035653513 0.015808225
0.073037334 -0.035582293 0.015991211
0.073598526 -0.035401821 0.016845584
0.073585711 -0.034953214 0.016913861
0.075626448 -0.035479076 0.017847568
0.076821454 -0.035600189 0.017962098
0.076837808 -0.035178754 0.017932415
0.077148244 -0.034900393 0.017947346
0.079578534 -0.035576284 0.018149406
0.080883749 -0.035739332 0.017974794
0.079532318 -0.034738254 0.017972678
0.082699835 -0.035711292 0.017952919
0.082615532 -0.035274047 0.017799199
0.083558194 -0.035280127 0.017446518
0.085350133 -0.035640713 0.017601877
0.085721806 -0.035406832 0.017369717
0.085887983 -0.035094015 0.017089784
0.087594792 -0.035410661 0.016637802
0.088471517 -0.035388608 0.016316712
0.089033574 -0.035242457 0.016230345
0.091272019 -0.035756048 0.016126096
0.087865062 -0.034070127 0.015902698
0.093386188 -0.035845205 0.01512441
0.0921802 -0.035028476 0.014555335
0.092903703 -0.03495387 0.013994277
0.098944478 -0.036861669 0.012064546
0.098534681 -0.036352601 0.010590851
0.098363131 -0.035940375 0.0089640319
0.09599714 -0.034741823 0.0065704584
0.073020637 -0.036510319 0.0083454549
0.073102131 -0.036063716 0.012652993
0.071388923 -0.034755133 0.014856547
0.070828818 -0.034034625 0.015289187
0.072602108 -0.034439463 0.015191704
0.073569059 -0.034456395 0.016168624
0.074593857 -0.03449966 0.016521454
0.074507125 -0.034034122 0.017328799
0.077892974 -0.035146829 0.017757237
0.076014072 -0.033885792 0.017686635
0.078149579 -0.034423031 0.017472982
0.079100803 -0.034432113 0.017754942
0.078539684 -0.033790328 0.01774472
0.080013201 -0.034028601 0.017390281
0.082363218 -0.034629989 0.017852098
0.082598411 -0.034338664 0.017369717
0.084440328 -0.03471436 0.017336845
0.085051291 -0.034581292 0.017359227
0.083233111 -0.033474185 0.016871154
0.086527415 -0.034424886 0.016359687
0.087576762 -0.034471702 0.016104132
0.088780172 -0.034577541 0.015279204
0.089129016 -0.034351807 0.015223175
0.088845059 -0.033889353 0.01508683
0.093238093 -0.035202134 0.014274269
0.092394538 -0.034531292 0.01345858
0.091267884 -0.033769116 0.012985259
0.094436884 -0.034595691 0.011978179
0.10625317 -0.038542815 0.0098066032
0.093041256 -0.033422589 0.00812006
0.10077363 -0.035852157 0.0058889091
0.069235206 -0.033232898 0.0096322298
0.071492128 -0.033864692 0.012792736
0.071956828 -0.033642154 0.013239473
0.07445842 -0.034365427 0.014370561
0.073345408 -0.033423226 0.015338004
0.075434119 -0.033945352 0.01581651
0.074674979 -0.033188879 0.016654223
0.07503096 -0.032940421 0.017231107
0.077885546 -0.033781681 0.017184198
0.076839708 -0.032931305 0.017243832
0.077187948 -0.032691367 0.017243832
0.079460807 -0.033262663 0.017035693
0.07978864 -0.033015989 0.017035693
0.081323929 -0.03326888 0.0170241
0.08190807 -0.033131354 0.016996503
0.082275681 -0.032910272 0.016570747
0.084632933 -0.033481158 0.016627848
0.086046763 -0.03367047 0.016074151
0.086216331 -0.033374064 0.015771657
0.087597258 -0.033547886 0.014962524
0.090711355 -0.034374829 0.014464885
0.088114046 -0.033042766 0.014085621
0.090699762 -0.033661768 0.013566375
0.092371419 -0.033932358 0.012251526
0.09008985 -0.032759946 0.011287004
0.09531793 -0.034314454 0.010974288
0.093204945 -0.033221565 0.0098880827
0.09334249 -0.032944411 0.0072986782
0.098592043 -0.034459352 0.005220443
0.071103238 -0.032744914 0.0097202361
0.072097793 -0.032771725 0.011214077
0.072211191 -0.032402456 0.011382997
0.073645853 -0.03262791 0.013812512
0.074355915 -0.03253071 0.014977425
0.074910142 -0.032368582 0.015797466
0.076072156 -0.032469824 0.016095132
0.079315454 -0.033446275 0.016188323
0.078005493 -0.03250229 0.017018884
0.079938531 -0.032915864 0.01665169
0.07942792 -0.032325316 0.016629815
0.080729857 -0.032477532 0.016627848
0.084581114 -0.033640217 0.016587526
0.083224803 -0.032728855 0.016531467
0.083595805 -0.03250948 0.016183406
0.086594552 -0.033305597 0.01604709
0.085918732 -0.032686472 0.014905363
0.085656196 -0.032236204 0.01455459
0.088225387 -0.032849878 0.013736188
0.087908104 -0.032387193 0.013089448
0.090604626 -0.033032935 0.012538254
0.092145748 -0.033248466 0.011877388
0.091411382 -0.032646924 0.010141194
0.094054252 -0.033251502 0.0096361637
0.094700232 -0.033145081 0.0091148019
0.094074205 -0.032599971 0.0068664253
0.075137988 -0.033177815 0.0096058249
0.075807564 -0.033044323 0.010341197
0.078515172 -0.033791341 0.012583196
0.078653194 -0.033427607 0.014189303
0.080517516 -0.033797476 0.015215248
0.078973934 -0.032745291 0.015483081
0.078153387 -0.032014642 0.015645653
0.080328532 -0.032513931 0.016599119
0.081583388 -0.032633353 0.016618878
0.079753384 -0.031530406 0.016625226
0.080758311 -0.031560719 0.016553849
0.081518196 -0.031495668 0.016230345
0.081045128 -0.030961059 0.016239315
0.085043833 -0.032127671 0.015658408
0.087138124 -0.0325571 0.014962465
0.084937438 -0.031389922 0.014532715
0.091607012 -0.033490736 0.013743401
0.090320259 -0.03266903 0.01287955
0.094301321 -0.033749945 0.012097836
0.090652898 -0.032106236 0.010827631
0.091855377 -0.03219673 0.010099709
0.094623476 -0.032828551 0.0079065263
0.095404662 -0.032765236 0.0068227649
0.096057601 -0.032659583 0.0050548315
0.076361246 -0.032726251 0.0060342848
0.076532722 -0.032379229 0.0092595518
0.075100601 -0.031371135 0.01125145
0.077205777 -0.031847384 0.012807339
0.076385796 -0.03112014 0.014080375
0.075728759 -0.030476209 0.014686555
0.079616942 -0.031654928 0.015076965
0.079633772 -0.031284697 0.015992612
0.079846628 -0.030999277 0.01604709
0.081375226 -0.03122538 0.016028136
0.082196027 -0.031177804 0.016268194
0.081310689 -0.030491507 0.016057014
0.084452942 -0.031314012 0.016184837
0.085174374 -0.031230604 0.015501708
0.08380235 -0.030389864 0.014823675
0.088596523 -0.031779189 0.014126897
0.088295437 -0.031330641 0.012546718
0.089351632 -0.031368125 0.012054563
0.092128187 -0.032002423 0.010350317
0.091144554 -0.031330939 0.0094715953
0.092909344 -0.031608332 0.0072221756
0.095165342 -0.032045472 0.0052299201
0.075110421 -0.03081453 0.0071157515
0.074582197 -0.03021051 0.01072368
0.075977996 -0.0303912 0.011178762
0.076116174 -0.030070588 0.013311088
0.076430552 -0.029826557 0.013722956
0.078221157 -0.030157555 0.014019251
0.078342192 -0.029844645 0.015330255
0.080354989 -0.030251289 0.015636235
0.080295175 -0.029877273 0.015895188
0.078823604 -0.028992591 0.016213715
0.08479134 -0.030833215 0.015835911
0.083771251 -0.030120002 0.015920579
0.08249411 -0.029331239 0.014527351
0.086638615 -0.030466326 0.014209092
0.084340043 -0.029335668 0.012411654
0.087341666 -0.030053046 0.01181078
0.092466131 -0.031477831 0.010305017
0.090292767 -0.030414406 0.0094938874
0.093843713 -0.031281237 0.0072221756
0.093468435 -0.030834949 0.0050523877
0.074140504 -0.029466098 0.0058237314
0.077965945 -0.030594232 0.0091319382
0.075730227 -0.029345462 0.010849297
0.076513976 -0.029283127 0.012043923
0.077876158 -0.029440988 0.012971908
0.077360094 -0.02889353 0.012923181
0.077686734 -0.028670104 0.013668984
0.079367608 -0.028945835 0.014178008
0.079558156 -0.028677939 0.015056074
0.082068995 -0.029242974 0.015832961
0.083016172 -0.029244334 0.014921814
0.081913404 -0.028531635 0.014668524
0.085214451 -0.029351644 0.013780147
0.086791106 -0.0295662 0.013379961
0.086822689 -0.029255472 0.011907816
0.091528527 -0.030509509 0.010470331
0.089940056 -0.029661082 0.0099600852
0.092215262 -0.030091295 0.0080927014
0.093093529 -0.030061452 0.0054782331
0.075008765 -0.028484343 0.0078700483
0.07677792 -0.02879172 0.010386437
0.077293582 -0.028627252 0.010901153
0.078067593 -0.028561315 0.0122931
0.078192912 -0.028262498 0.012834221
0.078769729 -0.028132046 0.013118118
0.078678906 -0.027769025 0.013912469
0.081106581 -0.028292993 0.014061093
0.081369936 -0.0280586 0.015241206
0.080999717 -0.027613539 0.01396516
0.084906146 -0.028620049 0.014060527
0.084701158 -0.02823372 0.013082683
0.084525265 -0.027865473 0.012157738
0.087249562 -0.028450944 0.011443645
0.087901086 -0.028355191 0.0096445978
0.088350832 -0.028197074 0.0083806217
0.092981972 -0.029362729 0.0059496462
0.076038606 -0.027912905 0.0063883364
0.078016296 -0.028280908 0.0098748505
0.075541839 -0.027045844 0.010776818
0.076652519 -0.027108818 0.011724561
0.0794264 -0.027751392 0.012406081
0.076745428 -0.026495444 0.012596101
0.080650441 -0.027516032 0.013447613
0.081265494 -0.027403479 0.013761699
0.07889311 -0.026297703 0.014415234
0.083069146 -0.027375059 0.01390782
0.082682081 -0.026941352 0.013660431
0.084422924 -0.027202941 0.012395144
0.086467095 -0.027555447 0.012022883
0.087255061 -0.027504314 0.010682672
0.087343477 -0.027236138 0.0091938376
0.093856126 -0.028955612 0.0070925951
0.076477371 -0.027105905 0.0069989562
0.076064937 -0.026622728 0.010220975
0.076388225 -0.026405806 0.010793537
0.077964276 -0.026621947 0.01182878
0.077211767 -0.026047343 0.012316257
0.079671264 -0.026557088 0.01259923
0.07881552 -0.025962759 0.013185769
0.079087108 -0.02574929 0.013684213
0.080514684 -0.025912771 0.0140903
0.082241043 -0.026167605 0.013914406
0.082189277 -0.025857301 0.013601273
0.085000485 -0.026444595 0.012289494
0.084103212 -0.02587791 0.012262285
0.084309116 -0.025659295 0.010510117
0.088911027 -0.026768912 0.0086662769
0.090860277 -0.027064765 0.0073115826
0.07630159 -0.02607776 0.0071944892
0.076699875 -0.025886208 0.010171145
0.076992124 -0.025664043 0.010678977
0.075936526 -0.025003491 0.011984259
0.078320391 -0.025477719 0.012376368
0.078688346 -0.025292683 0.01280573
0.076640882 -0.024344752 0.01365903
0.080874667 -0.025390882 0.014515817
0.081746958 -0.025369745 0.015173554
0.080417372 -0.024673512 0.014668524
0.083316214 -0.025275707 0.014178008
0.083276413 -0.024982924 0.012947321
0.084908143 -0.025192525 0.012613475
0.085177146 -0.02499764 0.011083454
0.08861737 -0.025727624 0.0085535645
0.08924184 -0.025633294 0.0069517493
0.074694306 -0.024582935 0.0070694089
0.075799696 -0.024634901 0.0099247694
0.075650632 -0.024282919 0.010484248
0.078534663 -0.024901235 0.011641145
0.078794457 -0.0246826 0.012360603
0.076973699 -0.023825191 0.01280573
0.080262497 -0.024550883 0.013786405
0.080775924 -0.024420628 0.014825881
0.080367506 -0.024017874 0.015468508
0.08278349 -0.024458759 0.015079349
0.083987184 -0.024535581 0.014322221
0.083697796 -0.024179364 0.013430357
0.086215325 -0.024632951 0.012624472
0.084804252 -0.023966419 0.011089623
0.086451888 -0.024169344 0.0085702538
0.092904024 -0.025696857 0.006896615
0.075032547 -0.023744479 0.0070694089
0.076691762 -0.023966175 0.0096020401
0.076955013 -0.023751548 0.010484099
0.077891514 -0.023747412 0.011686087
0.077024676 -0.023200205 0.012293637
0.078394651 -0.023331741 0.012875408
0.080513932 -0.023680568 0.013838321
0.078458324 -0.022807652 0.015056074
0.081945702 -0.023547614 0.015217006
0.082231693 -0.023361277 0.01503852
0.082391813 -0.023143766 0.014407516
0.084963977 -0.023601105 0.013529122
0.084001891 -0.023077443 0.012714297
0.085539974 -0.023244558 0.011118889
0.091881394 -0.024699301 0.0090868175
0.090029992 -0.023944147 0.0068143308
0.074506119 -0.022634771 0.0053376853
0.077697903 -0.023309372 0.007497102
0.075095274 -0.022250453 0.010100782
0.076234877 -0.022312647 0.011424243
0.078582257 -0.02272258 0.011805832
0.079689674 -0.022768479 0.012499958
0.077320062 -0.021831546 0.013185769
0.081145674 -0.022645306 0.01390782
0.081409805 -0.022457877 0.014178008
0.081574775 -0.022247666 0.014133126
0.083908685 -0.022627061 0.013831884
0.084613763 -0.02256367 0.012503147
0.082820967 -0.021842893 0.012381852
0.087799206 -0.022904141 0.010682076
0.08707124 -0.022469997 0.0085259974
0.089648187 -0.022888899 0.0056982934
0.076748721 -0.022065258 0.0070931613
0.075300664 -0.021381669 0.0095587373
0.07938391 -0.022266218 0.01066345
0.078475468 -0.021746214 0.011325926
0.077553295 -0.021234829 0.012060791
0.08041244 -0.021758661 0.012499958
0.081532106 -0.021805098 0.012985647
0.080826908 -0.021368034 0.01348424
0.084739789 -0.022147899 0.01348424
0.084556751 -0.021851745 0.01316157
0.084899686 -0.021696586 0.012291998
0.085267141 -0.021551035 0.011031061
0.087457426 -0.021864356 0.0089205503
0.089805514 -0.022209967 0.0067736208
0.076955698 -0.021162817 0.0056916773
0.077111118 -0.020943761 0.0072767437
0.078514352 -0.021064827 0.0098503232
0.07733357 -0.020498054 0.010796577
0.079413086 -0.020798665 0.011570245
0.078727581 -0.02037655 0.012029499
0.080002435 -0.020465739 0.012314826
0.081030816 -0.02049055 0.012391478
0.081385493 -0.020346373 0.012391478
0.082007714 -0.020271569 0.012428552
0.085259929 -0.020841317 0.010990381
0.084750183 -0.020489056 0.0093398988
0.085913599 -0.020544557 0.008399874
0.07648363 -0.019829089 0.0056310296
0.076294094 -0.019538732 0.0072762072
0.078537785 -0.019871006 0.009203881
0.078578122 -0.01964453 0.010780424
0.078020029 -0.019275537 0.011030346
0.080915436 -0.01975842 0.011525869
0.081689864 -0.019718243 0.011428088
0.079591438 -0.018993411 0.011423588
0.082808301 -0.019539038 0.010868728
0.082506932 -0.019251617 0.0090254247
0.084843576 -0.019579288 0.0083162487
0.087586224 -0.019992508 0.0051878393
0.078804709 -0.019220661 0.0056310296
0.07841479 -0.018895129 0.0065568686
0.07816343 -0.01861034 0.0082991719
0.080016166 -0.018827332 0.009036988
0.083169349 -0.019341709 0.010620028
0.081240281 -0.018675927 0.0099648237
0.083151989 -0.01889818 0.010364503
0.082423054 -0.018522035 0.0083105564
0.083358355 -0.018524079 0.006111145
0.081152149 -0.017928962 0.0052690506
0.082079373 -0.017925382 0.0055916309
0.083408773 -0.018008713 0.0050491393
0 0 0 1 0 0 0 1 0 0 0 1 0 0 0 0 0 1161 1 0 0
