ply
format ascii 1.0
comment PCL generated
element vertex 938
property float x
property float y
property float z
element camera 1
property float view_px
property float view_py
property float view_pz
property float x_axisx
property float x_axisy
property float x_axisz
property float y_axisx
property float y_axisy
property float y_axisz
property float z_axisx
property float z_axisy
property float z_axisz
property float focal
property float scalex
property float scaley
property float centerx
property float centery
property int viewportx
property int viewporty
property float k1
property float k2
end_header
-0.014963743 -0.078271888 0.0052756071
-0.013710625 -0.077693544 0.0059260726
-0.012716355 -0.078610197 0.0065951347
-0.011253373 -0.076522939 0.0064264834
-0.010243827 -0.077397808 0.0064891577
-0.0091056153 -0.077397726 0.0064891577
-0.0078836288 -0.076583825 0.0060385466
-0.0068186112 -0.077277593 0.0057267845
-0.0058927462 -0.080141351 0.0065737963
-0.004581362 -0.077883154 0.0064970553
-0.0033774856 -0.07655634 0.0059424639
-0.0023081971 -0.078478701 0.0058763325
-0.0011198446 -0.076149434 0.0072548091
0 -0.076640196 0.0072096884
0.001119484 -0.076124907 0.0071292818
0.0022215149 -0.075531505 0.0070632994
0.0034335698 -0.077827588 0.0064787269
0.0046638334 -0.079285167 0.0062035024
-0.015800634 -0.070576169 0.0050894916
-0.014634963 -0.070038751 0.006534487
-0.013342241 -0.06876386 0.0098730624
-0.012310357 -0.068732828 0.012034595
-0.011354716 -0.069160551 0.012190372
-0.010242567 -0.068625212 0.012169152
-0.009303255 -0.069257572 0.012221783
-0.0083334818 -0.069792911 0.01218006
-0.0072374111 -0.069272369 0.011834681
-0.0062784236 -0.070109069 0.012285799
-0.0052120495 -0.069841467 0.012130797
-0.0041512321 -0.069533139 0.012364477
-0.0031248559 -0.069788456 0.012397707
-0.0021001075 -0.070353605 0.012480944
-0.001042907 -0.069874771 0.012793154
0 -0.069266565 0.012865007
0.001041163 -0.069757923 0.013112873
0.00205296 -0.068774164 0.013225734
0.003087692 -0.068958454 0.012263417
0.0041233297 -0.069065772 0.010175109
0.0052267821 -0.070038885 0.0076129436
0.0063155848 -0.070524037 0.0062110126
0.0076242196 -0.072974674 0.005569309
-0.016574524 -0.06836991 0.0057666302
-0.015653707 -0.068876311 0.0086825788
-0.014659395 -0.069108576 0.01209715
-0.013551658 -0.068800725 0.013187855
-0.012591717 -0.069254443 0.013352811
-0.011357984 -0.068147898 0.013477802
-0.01043556 -0.068874694 0.013326228
-0.0093941698 -0.068890586 0.013052106
-0.0083671669 -0.06902913 0.012661546
-0.0073426589 -0.06923078 0.012600273
-0.0062535317 -0.068788849 0.012484759
-0.0052517559 -0.069323182 0.012449861
-0.0041873227 -0.069090821 0.012480944
-0.0031412807 -0.069108173 0.012620419
-0.0020953019 -0.069144964 0.013144225
-0.0010516914 -0.069411628 0.013433903
0 -0.068820208 0.013635784
0.0010569857 -0.069761053 0.013962984
0.0021043262 -0.069442756 0.014195383
0.0031333393 -0.068933465 0.014217317
0.0041529112 -0.068523034 0.013970852
0.0051813717 -0.068394102 0.012767315
0.0061438084 -0.067581892 0.010124832
0.0073152892 -0.068972729 0.0072675049
0.0088267168 -0.07282041 0.0061375201
-0.017766971 -0.067932539 0.0061242878
-0.016686969 -0.067790806 0.010217607
-0.015531832 -0.067304611 0.012457401
-0.014673656 -0.068127684 0.013342977
-0.013541415 -0.067707077 0.013821542
-0.012502164 -0.067720048 0.013988554
-0.011637819 -0.068768933 0.013675213
-0.010520945 -0.068386145 0.013393223
-0.0094076619 -0.067944229 0.013371408
-0.0083825365 -0.068108112 0.013009429
-0.0072882972 -0.067677043 0.012732685
-0.0063307681 -0.068583317 0.012842029
-0.0052664885 -0.068464354 0.012654543
-0.0042323242 -0.068775266 0.012559623
-0.0031474084 -0.068193845 0.012620419
-0.002120693 -0.06892252 0.01338461
-0.0010454903 -0.067956865 0.013303131
0 -0.068254389 0.013698608
0.0010428421 -0.067784734 0.013881892
0.002096378 -0.068132289 0.014688075
0.0031295335 -0.067806557 0.014802426
0.0042344905 -0.06881047 0.014837086
0.0052087144 -0.067713283 0.014788657
0.0062542195 -0.067754045 0.01317808
0.0073367395 -0.068126865 0.010229498
0.0085129952 -0.069168083 0.0076369047
0.0098208589 -0.070928425 0.0064038336
-0.0193599 -0.068835206 0.0051077306
-0.017771896 -0.06690596 0.011395574
-0.016639609 -0.066558436 0.012415975
-0.015673308 -0.066872776 0.01333195
-0.014643191 -0.0669403 0.013821542
-0.013539691 -0.06665694 0.014071226
-0.012556904 -0.066970155 0.014071226
-0.011463632 -0.066697501 0.013770431
-0.010436595 -0.066794217 0.013484269
-0.0093474304 -0.066470623 0.01337713
-0.0084744422 -0.067795537 0.013005883
-0.0073189726 -0.066916324 0.013043553
-0.0062956885 -0.067154013 0.013011813
-0.005306487 -0.067923039 0.012794137
-0.0042248354 -0.067597367 0.012620419
-0.0031658041 -0.067537159 0.012804151
-0.0021033431 -0.06730698 0.013533026
-0.0010492728 -0.067153461 0.013412565
0 -0.067504324 0.013990164
0.0010510189 -0.067265213 0.014735848
0.0020980448 -0.067137435 0.014948279
0.0031177581 -0.066512175 0.014992237
0.0041901562 -0.0670425 0.015180886
0.0052309292 -0.066955894 0.015133977
0.0062877415 -0.067069247 0.015012115
0.0073366724 -0.067078143 0.013325036
0.0083482666 -0.066786133 0.010797709
0.0098398859 -0.069972523 0.0076310337
-0.018985039 -0.066447638 0.010107696
-0.018034531 -0.066833854 0.012601018
-0.016756784 -0.065979838 0.01350075
-0.015747987 -0.066141546 0.014070839
-0.014573004 -0.06557852 0.014311165
-0.013679541 -0.066293158 0.014376163
-0.012537918 -0.065824077 0.014301568
-0.011559468 -0.066204228 0.014044106
-0.010437022 -0.065753244 0.013541371
-0.0094529381 -0.066170566 0.013477027
-0.0084285811 -0.066375077 0.013077825
-0.0073997965 -0.06659817 0.012914002
-0.006336791 -0.066536307 0.012911141
-0.0052453009 -0.066090792 0.012787849
-0.0042110523 -0.066324078 0.012566507
-0.0031536585 -0.066226833 0.012787849
-0.0020994595 -0.066132978 0.013351381
-0.0010570276 -0.066592738 0.013332933
0 -0.06600856 0.013750196
0.0010598586 -0.06677109 0.014662325
0.002072114 -0.065271594 0.014918715
0.0031426363 -0.065995365 0.01517278
0.0041881651 -0.065963596 0.01523754
0.0052407836 -0.066033877 0.015253544
0.0062908982 -0.066054434 0.015070647
0.0073218062 -0.065896258 0.015069097
0.0083890753 -0.06606397 0.013291329
0.0094572734 -0.066200919 0.011027187
-0.020261273 -0.066115737 0.0089417994
-0.018854653 -0.064943813 0.012637973
-0.017826471 -0.065014191 0.013712615
-0.01684216 -0.065263368 0.014438272
-0.015853338 -0.065527134 0.014507383
-0.014753073 -0.065335043 0.014416575
-0.013771657 -0.065680213 0.014433265
-0.012590398 -0.065050393 0.014345497
-0.011544659 -0.065069899 0.014060795
-0.010556053 -0.065447539 0.01360926
-0.0094766011 -0.065283261 0.013477027
-0.0085132439 -0.06597764 0.013079256
-0.0074169566 -0.065693051 0.013144225
-0.0063648731 -0.065770358 0.012911141
-0.0053114691 -0.065862216 0.012841761
-0.004228083 -0.065535292 0.012620419
-0.003165707 -0.065424614 0.013191789
-0.0021259291 -0.065903805 0.013446748
-0.0010492358 -0.065052629 0.013494521
0 -0.065299392 0.013759822
0.0010494166 -0.065063834 0.014662325
0.0020919451 -0.064850301 0.014997661
0.0031425692 -0.064946435 0.015400916
0.004190967 -0.064959988 0.015420139
0.0052268161 -0.064812519 0.015477657
0.0063142637 -0.065247394 0.015180022
0.0073655057 -0.065237336 0.015070647
0.0083310651 -0.064565755 0.014975816
0.0094397338 -0.065029286 0.013224036
0.010658457 -0.06608244 0.010317236
-0.02013387 -0.064640313 0.012412876
-0.018905081 -0.064067215 0.012857795
-0.017842369 -0.064022616 0.013632178
-0.016824383 -0.064142957 0.013947606
-0.015844828 -0.064435631 0.013950706
-0.014760296 -0.064312719 0.013897151
-0.013634277 -0.063976221 0.013913065
-0.01265875 -0.064348646 0.013776749
-0.011615274 -0.064411975 0.012970716
-0.01058412 -0.064563133 0.012343287
-0.0095745316 -0.06489405 0.012450635
-0.0085569397 -0.065246664 0.012109369
-0.0074707894 -0.065102592 0.01135841
-0.0064663505 -0.065741234 0.010672063
-0.0053318478 -0.065048546 0.01072368
-0.0042766859 -0.065219462 0.010452449
-0.0032220494 -0.065515004 0.010609895
-0.0021295003 -0.064949751 0.011687875
-0.0010666888 -0.065068014 0.012452573
0 -0.06544695 0.01278165
0.0010558387 -0.064406157 0.012896657
0.0021220257 -0.064721785 0.013557523
0.0031661727 -0.064378843 0.014688075
0.0042021852 -0.064083323 0.014897883
0.0052119019 -0.063585207 0.014976233
0.0063441186 -0.064498544 0.014918715
0.0073020342 -0.063632011 0.015002608
0.0083915675 -0.063985705 0.014997751
0.0093516158 -0.063383177 0.014339536
0.010485896 -0.063963965 0.01240015
0.012113716 -0.067176059 0.0081631541
-0.021200048 -0.063600145 0.010279506
-0.019983364 -0.06310536 0.012766153
-0.018875187 -0.0629173 0.013059616
-0.017910408 -0.063213199 0.013436586
-0.016994486 -0.063729316 0.01388213
-0.015883217 -0.063532867 0.013598293
-0.014688969 -0.06295272 0.013352811
-0.013704344 -0.063250817 0.013141304
-0.012703206 -0.063516036 0.012539089
-0.011650066 -0.063545816 0.012030333
-0.010571152 -0.063426912 0.011745751
-0.0095807826 -0.06387189 0.010981053
-0.008591935 -0.064439513 0.010158241
-0.0074739726 -0.064062625 0.0097281337
-0.0064889998 -0.064889997 0.0090622306
-0.0053573344 -0.064288013 0.0088413358
-0.004291533 -0.064372994 0.0086501241
-0.0032149195 -0.064298391 0.0086636841
-0.0021302875 -0.063908622 0.0091491938
-0.0010782991 -0.064697944 0.0099670291
0 -0.064434022 0.011322469
0.001067445 -0.064046703 0.012225151
0.0021383676 -0.064151034 0.012513161
0.0031716849 -0.063433699 0.012963742
0.0042112158 -0.063168235 0.014052391
0.0052234759 -0.062681712 0.014555037
0.0063164374 -0.063164376 0.014688075
0.0074161529 -0.063567027 0.014767051
0.0083946688 -0.062960014 0.014566272
0.0094635868 -0.063090578 0.014424294
0.010476509 -0.062859051 0.012978494
0.011724992 -0.063954502 0.010364085
-0.023183793 -0.065135419 0.0067422986
-0.021070374 -0.062157609 0.012861252
-0.020114265 -0.062460087 0.013019294
-0.018944956 -0.062097363 0.013147265
-0.017870806 -0.062022209 0.013371974
-0.016742196 -0.061736848 0.013322204
-0.015822981 -0.062237058 0.013217986
-0.014843699 -0.062555589 0.01270777
-0.013775164 -0.062518053 0.01248455
-0.012702761 -0.062455244 0.01209715
-0.011759105 -0.063071564 0.01116848
-0.010600928 -0.062545478 0.010158241
-0.0095658135 -0.062709227 0.0092900395
-0.0086109824 -0.063505992 0.0081063509
-0.0074636042 -0.062907524 0.0070652068
-0.0064005242 -0.062938489 0.0065496564
-0.00540603 -0.063791156 0.0069296658
-0.0043198764 -0.063718177 0.0068850815
-0.0032198895 -0.063324496 0.0067690313
-0.0021590521 -0.063692041 0.006937921
-0.0010681953 -0.063023522 0.0072803199
0 -0.063080661 0.0085793138
0.0010730212 -0.063308246 0.010519147
0.0021153789 -0.062403679 0.01173079
0.0032206133 -0.063338734 0.01243645
0.0042429082 -0.062582895 0.012997478
0.0052492027 -0.061940592 0.013699651
0.0062478036 -0.061436739 0.014076978
0.0073563657 -0.062003657 0.014648736
0.0083986865 -0.061940316 0.014857501
0.0094512887 -0.061958451 0.014902949
0.010453785 -0.061677333 0.013714284
0.011424134 -0.061274908 0.012487769
0.013202015 -0.064909913 0.008156985
-0.021999942 -0.06076175 0.012093604
-0.021026069 -0.060975604 0.013160944
-0.019919882 -0.060808059 0.013113528
-0.01888662 -0.06085689 0.013273507
-0.017879244 -0.060999773 0.013211638
-0.01672985 -0.060645711 0.012941658
-0.015901906 -0.061487373 0.012713313
-0.014922461 -0.061821628 0.012372315
-0.013820079 -0.061658818 0.012109369
-0.012927344 -0.062482167 0.010709047
-0.011709564 -0.061741341 0.0094953775
-0.010751915 -0.062361114 0.0083209574
-0.0096783731 -0.062371742 0.006595552
-0.0086937035 -0.063029356 0.0052168965
-0.0010732845 -0.06225051 0.0054272115
0 -0.062292699 0.0066489577
0.0010694226 -0.062026512 0.0080006719
0.0021168604 -0.061388951 0.0094975829
0.0031842934 -0.061563008 0.011183619
0.0042060493 -0.060987718 0.012133867
0.0052906042 -0.06137101 0.012950093
0.0063495971 -0.06137944 0.013581008
0.0072888886 -0.06039365 0.013767213
0.008478919 -0.061472166 0.014151335
0.0094677024 -0.061014086 0.014219552
0.010473812 -0.060748115 0.014395118
0.011555621 -0.060929645 0.012926161
0.012599456 -0.060897376 0.010379314
-0.023533994 -0.060974441 0.0083066821
-0.022036787 -0.059814133 0.013160944
-0.021009339 -0.059876613 0.013372302
-0.019929171 -0.059787512 0.013274223
-0.019046314 -0.060313333 0.013219088
-0.017925518 -0.0601032 0.013092846
-0.016872779 -0.060109269 0.012739271
-0.015955457 -0.060630735 0.012639821
-0.014801864 -0.060264729 0.012395412
-0.013802196 -0.060517319 0.011276573
-0.01284066 -0.060993139 0.0097460151
-0.011803295 -0.061162528 0.0080273449
-0.010848635 -0.061837219 0.005579263
0.0010772845 -0.061405215 0.0064519346
0.0021132594 -0.060227893 0.0074380338
0.0031711084 -0.060251061 0.0088794231
0.0042367461 -0.06037363 0.011183619
0.0053552422 -0.061049763 0.012133867
0.006372476 -0.060538519 0.012917161
0.0073362398 -0.059737954 0.013637513
0.0083621619 -0.059580401 0.013808787
0.0094889589 -0.060096741 0.013899624
0.010517329 -0.059948772 0.014271587
0.011607481 -0.060147855 0.013335794
0.012637196 -0.060026683 0.012322426
0.013864159 -0.060789004 0.0084672272
-0.02326222 -0.059212923 0.012847275
-0.021992475 -0.058646597 0.013461232
-0.021045545 -0.058927529 0.013489217
-0.020098802 -0.059238572 0.013320565
-0.019018149 -0.059167575 0.013212234
-0.017907094 -0.058988076 0.012960166
-0.016875714 -0.059064999 0.01257953
-0.015889466 -0.05932067 0.012381852
-0.014824727 -0.059298906 0.011795789
-0.013880723 -0.059793886 0.010112196
-0.012754562 -0.059521295 0.0075617731
0.0021606092 -0.06049706 0.0064240694
0.0032337992 -0.060364254 0.007995218
0.0042097117 -0.058935966 0.0087114871
0.0053272075 -0.059664726 0.011236042
0.0063591036 -0.059351634 0.012077332
0.0074503575 -0.05960286 0.012917161
0.0084727649 -0.059309356 0.013638377
0.0094857225 -0.059022274 0.013808787
0.010554774 -0.059106737 0.014041603
0.011485335 -0.058470801 0.013426602
0.012553927 -0.058584992 0.012414515
0.013548044 -0.058360808 0.011841089
-0.0246477 -0.058940154 0.009016633
-0.023263479 -0.058158699 0.012954772
-0.022093687 -0.05786442 0.013481081
-0.021017697 -0.057798669 0.013432384
-0.019951999 -0.057755787 0.013274223
-0.01890512 -0.057765648 0.013037533
-0.017982949 -0.058180131 0.012883216
-0.016948087 -0.058259048 0.01246044
-0.016023444 -0.05875263 0.012014717
-0.01496077 -0.058774456 0.010586411
-0.014097364 -0.059642691 0.0068386197
-0.013140747 -0.060228426 0.0050491095
0.0032707807 -0.059964314 0.0064240694
0.0042502866 -0.058441442 0.0080884099
0.0052767717 -0.058044493 0.0098026097
0.0064109173 -0.058766741 0.011669546
0.0074152639 -0.058262791 0.012502015
0.008445208 -0.058060806 0.01321876
0.0094047021 -0.057473183 0.013597399
0.010547495 -0.058011223 0.013844043
0.011458023 -0.057290118 0.013622046
0.012646592 -0.05796355 0.013421357
0.013682158 -0.057886053 0.012351602
0.0149202 -0.058615074 0.010554671
-0.024127249 -0.056646585 0.011468202
-0.023021679 -0.056507759 0.013160944
-0.022032624 -0.056655321 0.013432205
-0.021315614 -0.057552159 0.013432384
-0.019925401 -0.056630086 0.013254046
-0.019059211 -0.057177637 0.013027102
-0.017985875 -0.057131603 0.012845665
-0.016960509 -0.057241719 0.012152046
-0.016098542 -0.057954755 0.010736555
-0.015058772 -0.058083836 0.0081063509
-0.014203358 -0.058998566 0.0051612258
0.0043043983 -0.05810938 0.0069285333
0.0053851833 -0.058159981 0.008454293
0.0063090161 -0.056781147 0.011202306
0.0074558076 -0.057516232 0.012136519
0.0084924977 -0.057324361 0.013169825
0.0095437746 -0.057262652 0.01344198
0.010514172 -0.056776527 0.01379323
0.011497732 -0.056443416 0.013631016
0.012606605 -0.056729726 0.013614208
0.013645901 -0.056682978 0.013234496
0.01467577 -0.056606542 0.013102829
0.016208144 -0.058349315 0.0074544251
-0.02537204 -0.05602992 0.0086033642
-0.024312818 -0.056025185 0.011863589
-0.023037186 -0.055498678 0.013461232
-0.022162808 -0.055934705 0.013532996
-0.021085938 -0.055877738 0.013532996
-0.020054685 -0.055942014 0.013283074
-0.019090461 -0.056210801 0.013051778
-0.018009227 -0.056146413 0.012707114
-0.017005695 -0.056331363 0.011651158
-0.016059427 -0.056743305 0.0090971887
-0.015252315 -0.057740904 0.0059550107
0.0043314411 -0.057391595 0.0050957799
0.0053627752 -0.056845415 0.0081447661
0.0064071892 -0.056596838 0.010121852
0.0074866014 -0.056684267 0.011862546
0.0085591068 -0.056704082 0.012560159
0.0094631491 -0.055727433 0.013372511
0.010565966 -0.055999622 0.013629705
0.011567975 -0.055736609 0.013628572
0.012666572 -0.055944026 0.013628572
0.01374777 -0.056048602 0.01331538
0.014706803 -0.055675756 0.013316542
0.015790319 -0.055792458 0.010560393
-0.025400478 -0.055034369 0.010430068
-0.024347017 -0.05504543 0.012132972
-0.023218604 -0.05488034 0.013407707
-0.022049472 -0.054598689 0.013401031
-0.021231627 -0.055202231 0.013401031
-0.020043926 -0.054857064 0.013274223
-0.019055288 -0.055048615 0.013026267
-0.017979082 -0.05499484 0.012467355
-0.016931903 -0.055028681 0.010996342
-0.016231375 -0.056268767 0.0075442195
0.0054222462 -0.056391362 0.0067527294
0.006427031 -0.055700935 0.0089702606
0.0074513508 -0.055352893 0.011127084
0.0085517103 -0.055586118 0.011989415
0.0094177797 -0.05441384 0.013019204
0.010487768 -0.054536395 0.013485789
0.011519179 -0.054454301 0.013287634
0.012609006 -0.054639027 0.013250738
0.013642996 -0.054571982 0.013218194
0.014791915 -0.054941397 0.013044775
0.01580991 -0.054807689 0.011655301
0.016951235 -0.055091515 0.0055674314
-0.026614133 -0.054292832 0.0058276653
-0.025327343 -0.053820606 0.011313438
-0.024296368 -0.053874552 0.012431711
-0.023241881 -0.053878907 0.013511449
-0.022084342 -0.053633403 0.013485909
-0.021154964 -0.053945161 0.01340434
-0.020091586 -0.053930048 0.013169169
-0.019087415 -0.054081012 0.012932509
-0.017931342 -0.053794026 0.01244992
-0.017185777 -0.054779667 0.010311395
-0.016195707 -0.055065405 0.0063025355
0.0064127361 -0.054508258 0.0082710385
0.0075045107 -0.054675721 0.010112226
0.0085268421 -0.054358616 0.012001395
0.0095339613 -0.054025784 0.013039023
0.01051346 -0.053618651 0.013527811
0.011575366 -0.053667609 0.013591945
0.01257672 -0.053451058 0.013541996
0.013626092 -0.05345621 0.013209611
0.014733122 -0.05367066 0.013109416
0.015722431 -0.053456265 0.012658715
0.016632646 -0.053016562 0.008346945
-0.026565002 -0.053130005 0.0070522428
-0.025525074 -0.053177238 0.011052102
-0.024415039 -0.053076174 0.012261957
-0.023201233 -0.05273008 0.013407707
-0.022075959 -0.052561808 0.013432205
-0.021249749 -0.053124376 0.013315976
-0.020112744 -0.052928276 0.013177365
-0.018984534 -0.052734822 0.012891054
-0.018097222 -0.053227123 0.012006253
-0.017235605 -0.053861268 0.0087648332
0.0065268925 -0.054390773 0.0078915954
0.0073446529 -0.052461807 0.0098124146
0.0084898062 -0.053061292 0.011438936
0.0095423665 -0.053013153 0.012924045
0.01055967 -0.052798353 0.013487577
0.011513761 -0.052335281 0.013612241
0.012672068 -0.052800283 0.013591677
0.013734094 -0.052823439 0.013261378
0.014890921 -0.053181864 0.013101101
0.015777189 -0.052590635 0.012486488
0.016746145 -0.052331705 0.0094735324
-0.026585147 -0.052106883 0.0074866712
-0.025516877 -0.052096955 0.011099726
-0.024358528 -0.051894251 0.012009501
-0.023306668 -0.051910304 0.013009191
-0.022042051 -0.051431451 0.013097703
-0.021343257 -0.05229098 0.013080835
-0.019985616 -0.051541846 0.013057321
-0.01904799 -0.051852863 0.012807578
-0.01822814 -0.05253993 0.011957526
-0.017274717 -0.05290382 0.007940352
0.006467517 -0.052818052 0.0071379542
0.0073562097 -0.051493466 0.0095085204
0.0085112713 -0.052131537 0.011310846
0.0094924495 -0.051681116 0.012833178
0.010520533 -0.051550612 0.013541996
0.011488649 -0.051176708 0.013930202
0.012593166 -0.051422093 0.013837874
0.013575491 -0.051169157 0.013280034
0.014782827 -0.051739894 0.013143241
0.015703971 -0.051299635 0.012217045
0.016997013 -0.052053351 0.0096838176
-0.02656587 -0.051006466 0.0073383451
-0.025698524 -0.051397048 0.010685891
-0.024107208 -0.050310694 0.011962801
-0.023236474 -0.050697763 0.012776971
-0.022208594 -0.050762501 0.013019681
-0.021089612 -0.050615069 0.013019681
-0.020031789 -0.050606623 0.01300177
-0.019018833 -0.050716892 0.012640506
-0.017988844 -0.050792027 0.011823744
-0.017142428 -0.051427286 0.0078269839
0.0064244112 -0.05139529 0.0069519281
0.007430864 -0.050954498 0.0095149875
0.0085360901 -0.051216539 0.011549413
0.0093808901 -0.050031412 0.012732118
0.010489176 -0.050348043 0.013138443
0.011520706 -0.05027217 0.013519049
0.012728363 -0.050913453 0.013418049
0.013662926 -0.050447728 0.012927264
0.014637308 -0.050185055 0.012714654
0.01579033 -0.050529059 0.012042522
0.016855931 -0.050567791 0.0095708072
-0.026612906 -0.050032262 0.0067567825
-0.025572544 -0.050079569 0.010295153
-0.024217147 -0.049487211 0.011685282
-0.023269864 -0.049712893 0.012870431
-0.02224556 -0.049787682 0.013010114
-0.021042544 -0.04944998 0.013011694
-0.019914661 -0.04926258 0.01286611
-0.018916583 -0.0493933 0.012580961
-0.018040389 -0.049876366 0.011937261
-0.017191008 -0.050498586 0.0078026652
0.0065203905 -0.051076394 0.0069532394
0.0074330391 -0.04990755 0.010204971
0.0085250242 -0.05008452 0.012265593
0.0095002418 -0.049612377 0.012786537
0.010527359 -0.04947859 0.013566434
0.011580012 -0.049478233 0.013726085
0.0127132 -0.04979337 0.013726085
0.013589023 -0.049129542 0.012866616
0.014789869 -0.049651705 0.012671471
0.015707802 -0.049217783 0.011921763
0.016955739 -0.049807481 0.0076572895
-0.025505839 -0.048886191 0.009275496
-0.024424372 -0.048848744 0.011563301
-0.023256557 -0.048627347 0.01243946
-0.022039769 -0.048277587 0.012783319
-0.02122402 -0.048815247 0.012850344
-0.020080164 -0.048615135 0.012688845
-0.018929621 -0.0483757 0.012509465
-0.017836688 -0.048263982 0.011912942
-0.016971249 -0.04879234 0.0090791583
-0.016178112 -0.04961288 0.0050737858
0.0065647797 -0.05032998 0.0080474913
0.0073809018 -0.048503071 0.010443389
0.0085269846 -0.049030159 0.012346208
0.0093923211 -0.048005197 0.012462616
0.010442567 -0.048035812 0.013360202
0.011529378 -0.048213761 0.013553828
0.012569345 -0.048182487 0.01350677
0.013485873 -0.047719244 0.012600839
0.0146746 -0.048216548 0.012160808
0.015800377 -0.048454493 0.010968924
-0.025684271 -0.048158012 0.0083479285
-0.02450634 -0.047947191 0.011098653
-0.023119314 -0.047289506 0.011843264
-0.022071354 -0.04729576 0.012557805
-0.021141607 -0.047568619 0.012759686
-0.019937441 -0.047220256 0.012580961
-0.019046064 -0.047615163 0.012451172
-0.017864332 -0.047287937 0.012238979
-0.017131003 -0.048180949 0.010876775
-0.016199907 -0.048599724 0.0060270727
0.0063746837 -0.04781013 0.0089009106
0.0074385288 -0.047819115 0.010873437
0.0085172616 -0.047909599 0.01225999
0.0094723748 -0.047361881 0.012223661
0.010524245 -0.047359105 0.012809962
0.011547269 -0.047238834 0.012827575
0.012617932 -0.047317248 0.012541324
0.013610899 -0.047114655 0.012018889
0.014800797 -0.047573995 0.011874169
0.015827516 -0.04748255 0.0095201731
-0.025747932 -0.047204543 0.0067567825
-0.024432331 -0.046740107 0.010240048
-0.023245474 -0.046490949 0.011600256
-0.022243913 -0.046606295 0.01252681
-0.021084446 -0.04638578 0.012657851
-0.020084394 -0.046511225 0.012913734
-0.0191145 -0.046724338 0.012810826
-0.017844522 -0.046185821 0.012432843
-0.016947718 -0.046606224 0.011366367
-0.016297929 -0.047807258 0.0071150661
0.0054899347 -0.048311427 0.0060014725
0.0063487999 -0.046557866 0.0095589757
0.007391789 -0.04646267 0.011489749
0.0084764548 -0.046620499 0.012330502
0.0094422558 -0.04616214 0.01238212
0.010473208 -0.046082117 0.013061941
0.01150512 -0.046020482 0.012618452
0.012589408 -0.04616116 0.012329519
0.013599672 -0.046029661 0.011894792
0.014709881 -0.046231054 0.011383325
0.016039001 -0.047047734 0.0056932271
-0.024617068 -0.046023216 0.0082489848
-0.023127846 -0.045204427 0.011291504
-0.022076963 -0.045205209 0.01201123
-0.021302028 -0.045799363 0.012726068
-0.020061012 -0.045401238 0.013086915
-0.018932115 -0.045226719 0.013139874
-0.017943017 -0.045385275 0.012783974
-0.016542269 -0.044457346 0.01194787
-0.016258681 -0.046608221 0.010874122
-0.015101481 -0.04638312 0.0059034228
0.0053704698 -0.046186041 0.0081264377
0.0063250456 -0.045329493 0.010757864
0.007391653 -0.045405868 0.011790425
0.0084583657 -0.045463715 0.012101412
0.0093727857 -0.044781089 0.012348115
0.010475415 -0.045044284 0.012697726
0.01168687 -0.045685038 0.012371242
0.012600061 -0.045150217 0.011886865
0.01372621 -0.04540208 0.011540115
0.014860577 -0.045643203 0.0097795129
-0.024672249 -0.045053676 0.0052534938
-0.023537543 -0.044935312 0.010005295
-0.02208529 -0.044170581 0.011699736
-0.021098046 -0.044305898 0.012436867
-0.02000067 -0.044212006 0.012915939
-0.019019956 -0.044379897 0.013097823
-0.017829271 -0.04404879 0.012934536
-0.016701732 -0.043842044 0.01268667
-0.015879348 -0.044462178 0.011958092
-0.015316715 -0.045950145 0.0083486736
-0.013963042 -0.045111366 0.0053392053
0.0043917359 -0.046113227 0.0073716938
0.0052551529 -0.044143286 0.010648251
0.006283049 -0.043981344 0.011789083
0.0073736464 -0.044241879 0.012093067
0.0084159626 -0.044183806 0.012444228
0.0093861585 -0.043802079 0.012388587
0.010460584 -0.043934457 0.012502164
0.011576579 -0.044201486 0.012091726
0.012572818 -0.044004861 0.01178211
0.013717205 -0.044317126 0.010395885
-0.023496928 -0.043789733 0.0079946518
-0.022270305 -0.043480121 0.011020273
-0.021019842 -0.043090682 0.011796534
-0.019988522 -0.043133128 0.012668282
-0.018865576 -0.042971592 0.012983412
-0.017877111 -0.043115385 0.013037264
-0.016887354 -0.043273848 0.012828559
-0.015554275 -0.042515021 0.012714893
-0.015205218 -0.044529572 0.012394965
-0.013928002 -0.043926779 0.0076906681
0.0033232875 -0.045418266 0.006470561
0.0042875661 -0.043947555 0.010390252
0.005286525 -0.043349508 0.011778563
0.0063050399 -0.043084443 0.012292475
0.0074111987 -0.043408453 0.012654811
0.0083696051 -0.042894229 0.012540907
0.0094087608 -0.042862136 0.012526006
0.010454779 -0.042864595 0.012346178
0.011538194 -0.043005999 0.011716008
0.012618967 -0.043114807 0.011403084
0.01375934 -0.043394845 0.0081576705
-0.022266963 -0.042413265 0.0083826184
-0.021077212 -0.042154424 0.01105383
-0.019935945 -0.041970409 0.012404919
-0.018934665 -0.042077035 0.012908518
-0.017819749 -0.04192882 0.012983561
-0.016608339 -0.041520845 0.012913853
-0.015770981 -0.04205595 0.012981862
-0.014539236 -0.041540675 0.012841195
-0.014275203 -0.043923702 0.012305528
-0.013376079 -0.044586927 0.0073724985
0.0021970633 -0.043941263 0.006470561
0.0032737025 -0.043649364 0.010831624
0.0041857441 -0.04185744 0.011791706
0.0053218235 -0.042574588 0.011882097
0.0063069835 -0.042046558 0.012290031
0.0072865114 -0.041637208 0.012526006
0.0084435241 -0.042217616 0.012215555
0.0094285868 -0.041904829 0.011745036
0.010536853 -0.042147413 0.011614382
0.011607132 -0.042207751 0.011425734
0.012671614 -0.042238712 0.0099950135
-0.022651661 -0.042067371 0.0070927739
-0.021249644 -0.04143681 0.0089087784
-0.020079024 -0.041214839 0.011602938
-0.018798508 -0.040730104 0.012422472
-0.017858116 -0.040968616 0.01293087
-0.016705537 -0.040719744 0.013239771
-0.015716614 -0.040863194 0.013351619
-0.014602224 -0.040677626 0.013227344
-0.013546146 -0.040638439 0.013213724
-0.012829759 -0.041696716 0.012074232
-0.012372044 -0.043864518 0.0084319115
0.0011385609 -0.044403873 0.0074188411
0.0021242907 -0.041423667 0.011367261
0.0031213919 -0.040578093 0.011972904
0.0042610457 -0.041545194 0.011994392
0.0052387752 -0.040862445 0.012525886
0.0062539126 -0.040650431 0.012420446
0.0073214229 -0.040790785 0.012485981
0.0083989892 -0.040945072 0.012148023
0.009508431 -0.041203201 0.011636674
0.010419911 -0.040637653 0.011535048
0.011568595 -0.041015927 0.010564387
0.012861788 -0.041800812 0.0061855316
-0.021378377 -0.040618919 0.0081324577
-0.020164445 -0.04032889 0.0092329979
-0.018777877 -0.039642185 0.012177885
-0.01788505 -0.039978348 0.012890309
-0.016857024 -0.040035434 0.013463438
-0.015683958 -0.039732695 0.013849169
-0.014739894 -0.040008284 0.013927191
-0.013546218 -0.03959664 0.013801038
-0.012230675 -0.038730469 0.01360929
-0.011527966 -0.039823882 0.012779027
-0.010736734 -0.040799588 0.01154837
-0.010091837 -0.042609978 0.0066594779
-0.0089243837 -0.042390823 0.0054262578
-0.0011498195 -0.04369314 0.0064631104
0 -0.042330023 0.0094349384
0.0010689643 -0.040620644 0.011532694
0.0020793923 -0.039508455 0.01204738
0.0031620164 -0.040052209 0.012502164
0.0042341403 -0.040224332 0.012631387
0.00520573 -0.039563552 0.01263392
0.0062743402 -0.039737489 0.012433082
0.0073724505 -0.040021874 0.012483597
0.0083563225 -0.039692532 0.011810631
0.0095014125 -0.040117078 0.011533529
0.010536478 -0.040038615 0.011330307
0.011535975 -0.039851554 0.0093109906
-0.020292418 -0.039516814 0.0083076358
-0.018970022 -0.038993936 0.010965735
-0.017916011 -0.038993672 0.012379318
-0.016913353 -0.039112132 0.013218492
-0.015705802 -0.038740978 0.01385808
-0.014803631 -0.039123882 0.01394394
-0.01353753 -0.038529895 0.013818145
-0.012605662 -0.038867459 0.013753951
-0.011480569 -0.038616464 0.013712883
-0.010282782 -0.038046293 0.01357758
-0.0093796067 -0.03856061 0.013065189
-0.0085345497 -0.039472293 0.010967821
-0.0076312586 -0.040336654 0.0090074837
-0.0066258498 -0.040859409 0.0086516738
-0.0056282789 -0.041649267 0.0076860785
-0.0043944358 -0.040648535 0.0082853734
-0.0032459907 -0.040033888 0.0091423988
-0.0021677918 -0.040104151 0.010636359
-0.0010671483 -0.039484486 0.011826813
0 -0.038138952 0.012850642
0.0010472334 -0.038747635 0.013052523
0.0020619037 -0.038145218 0.01350078
0.003166758 -0.039056685 0.013169557
0.0041311826 -0.038213439 0.013023615
0.0052448846 -0.038812149 0.012831032
0.006302753 -0.038866978 0.01263392
0.0072929976 -0.038548704 0.012541741
0.0083767176 -0.038742322 0.011702389
0.009440247 -0.038809907 0.011395782
0.01058809 -0.039175935 0.010492265
-0.02031083 -0.038483676 0.0065348446
-0.01925933 -0.03851866 0.0085446835
-0.017986072 -0.03808815 0.010751367
-0.016926883 -0.038085483 0.012239128
-0.015777623 -0.037866294 0.013588399
-0.014743248 -0.037911206 0.013806403
-0.013564261 -0.037562568 0.013911754
-0.012441698 -0.037325092 0.013911754
-0.011507206 -0.037659943 0.013791233
-0.010450849 -0.037623055 0.013735294
-0.0094806319 -0.037922528 0.013659358
-0.0083222659 -0.037450194 0.012468964
-0.0073316265 -0.037705503 0.012046099
-0.0062294891 -0.037376933 0.012406021
-0.0052065989 -0.037487514 0.011954308
-0.004180213 -0.037621915 0.012049854
-0.0031508957 -0.037810747 0.011873573
-0.002095164 -0.037712954 0.012944281
-0.001046863 -0.037687067 0.012521118
0 -0.037562564 0.013036311
0.0010532397 -0.037916627 0.013101608
0.0020952856 -0.037715137 0.013300538
0.0031324951 -0.037589941 0.013063043
0.0041909008 -0.037718106 0.012789547
0.0052372655 -0.037708309 0.012687504
0.0062575433 -0.037545256 0.011910111
0.0073707309 -0.037906617 0.011876643
0.0084237866 -0.037907038 0.011418939
0.0095030358 -0.038012143 0.010461509
0.010621447 -0.03823721 0.007769078
-0.019210039 -0.037352853 0.0074342489
-0.017853839 -0.036757901 0.0083425939
-0.016800474 -0.036751036 0.010981619
-0.015628126 -0.036465626 0.012535363
-0.014763488 -0.03690872 0.013610423
-0.013669848 -0.036803436 0.013855129
-0.01250928 -0.0364854 0.013800442
-0.011510405 -0.036624014 0.013701767
-0.010376027 -0.036316097 0.013742477
-0.0093854312 -0.036498901 0.013659358
-0.0084722824 -0.037066236 0.012573987
-0.0073770294 -0.036885146 0.012247026
-0.0062928121 -0.036708072 0.012255758
-0.0052566403 -0.036796484 0.011828125
-0.0042226799 -0.036948446 0.011828125
-0.0031838433 -0.03714484 0.011787981
-0.0021143341 -0.037000846 0.012729436
-0.0010526819 -0.036843866 0.012496829
0 -0.036314599 0.013036311
0.0010472758 -0.036654651 0.012942374
0.0020951394 -0.03666494 0.013076454
0.0031377405 -0.036606971 0.012834847
0.0042168489 -0.036897425 0.012176871
0.005195294 -0.036367059 0.011943609
0.006339822 -0.036982294 0.011876643
0.0073515209 -0.036757603 0.011574924
0.0084470175 -0.036955703 0.010638028
0.0095007541 -0.036947377 0.0082318783
-0.018201288 -0.036402576 0.0074312091
-0.017069237 -0.036272127 0.0086064935
-0.015884643 -0.036005192 0.010953724
-0.014701189 -0.035702884 0.012252301
-0.013682243 -0.03578433 0.012577385
-0.012408473 -0.035157342 0.013565153
-0.011546938 -0.035690539 0.013498932
-0.010518552 -0.035763077 0.013914168
-0.009473267 -0.035787899 0.013570249
-0.0082957484 -0.035256933 0.012734503
-0.007310146 -0.035506424 0.012353063
-0.0062755691 -0.035561558 0.012393564
-0.0052091638 -0.035422314 0.011832982
-0.0042092456 -0.03577859 0.011832982
-0.0031444267 -0.035636839 0.011828125
-0.0020825861 -0.035403963 0.012945503
-0.0010405737 -0.035379507 0.012584895
0 -0.035716329 0.013006985
0.0010360777 -0.035226643 0.013036311
0.0021111413 -0.035889402 0.012701571
0.0031586434 -0.035797957 0.012558043
0.0041990392 -0.035691835 0.01234898
0.0052683968 -0.0358251 0.012069166
0.0063138413 -0.035778437 0.01163289
0.0074075237 -0.035979401 0.010358781
0.0085474737 -0.036326766 0.0084189177
-0.016846413 -0.034745727 0.0074593723
-0.015929844 -0.035045654 0.0086616278
-0.014521438 -0.034229103 0.011004657
-0.013643238 -0.034632832 0.011833906
-0.012524031 -0.034441087 0.012482941
-0.011572056 -0.03471617 0.012422264
-0.010476388 -0.034572084 0.012843192
-0.0094632069 -0.034698427 0.01343748
-0.0084330831 -0.034786467 0.012713552
-0.0074269269 -0.035012655 0.012355715
-0.0063348413 -0.034841627 0.012393564
-0.0052865064 -0.034890942 0.011828125
-0.0041911616 -0.034577083 0.011828125
-0.0031910203 -0.035101224 0.011748105
-0.002101128 -0.034668613 0.012754858
-0.0010619984 -0.035045948 0.012655318
0 -0.034594845 0.012627691
0.0010463808 -0.034530565 0.012690306
0.002125557 -0.03507169 0.012148559
0.0031567477 -0.034724224 0.012218624
0.0041884882 -0.034555025 0.012026787
0.0052573392 -0.034698438 0.011564761
0.0063603614 -0.034981988 0.01033482
0.0073903496 -0.034840219 0.0085724592
-0.015967675 -0.034064375 0.0068383217
-0.014787144 -0.033799186 0.0083019137
-0.013696532 -0.03371454 0.0096579492
-0.012552072 -0.033472195 0.011078924
-0.011649244 -0.033888713 0.011810273
-0.010482148 -0.033542875 0.012154788
-0.0094826156 -0.033715967 0.012544513
-0.0085276393 -0.034110557 0.011891305
-0.0073080361 -0.033408165 0.012149602
-0.0063186162 -0.033699289 0.012320429
-0.0052708588 -0.033733498 0.011787981
-0.0042211814 -0.033769451 0.011748105
-0.0031391508 -0.033484276 0.011622429
-0.0020975408 -0.033560652 0.012452275
-0.0010494487 -0.03358236 0.01237765
0 -0.033578575 0.012372285
0.0010559524 -0.033790477 0.012228906
0.002099121 -0.033585936 0.011774153
0.0031528263 -0.033630148 0.011659622
0.0042248284 -0.033798628 0.01080212
0.0052483715 -0.033589579 0.009714812
0.0063762302 -0.034006562 0.0072809756
-0.015003533 -0.033222109 0.0058319867
-0.013836652 -0.032995094 0.0074774921
-0.012931519 -0.033406425 0.0087427497
-0.01167492 -0.032902047 0.0096579492
-0.010573536 -0.032777965 0.011098117
-0.0095320595 -0.032832652 0.011367887
-0.0084369211 -0.032693069 0.011396766
-0.0073537165 -0.032566462 0.011618406
-0.0063913376 -0.033021912 0.011762291
-0.0053183935 -0.032974042 0.011635274
-0.0042074174 -0.032607485 0.011611849
-0.0031813467 -0.032873917 0.011455059
-0.0021170401 -0.032814123 0.01153183
-0.001057314 -0.032776736 0.011397541
0 -0.033227254 0.011281163
0.0010511739 -0.032586392 0.010865331
0.0021155812 -0.032791506 0.010088623
0.0032207398 -0.03328098 0.0093398392
0.0042400011 -0.032860011 0.0084328353
0.0052876952 -0.032783713 0.0055602193
-0.011638352 -0.03174096 0.0067902207
-0.010660032 -0.031980097 0.0081149936
-0.009553561 -0.031845205 0.0080529451
-0.0085430834 -0.032036562 0.0084899664
-0.0074810782 -0.032061763 0.0089650452
-0.0063637295 -0.031818647 0.0094210207
-0.0053440258 -0.032064155 0.0087491572
-0.0042904192 -0.032178141 0.0084131062
-0.0031983664 -0.031983662 0.0083477795
-0.0021214541 -0.031821813 0.008349359
-0.0010688849 -0.032066546 0.0079514682
0 -0.031929832 0.0066390336
0.0010718643 -0.032155931 0.0065585375
0.0021472352 -0.032208528 0.0063154995
0 0 0 1 0 0 0 1 0 0 0 1 0 0 0 0 0 938 1 0 0
