ply
format ascii 1.0
comment PCL generated
element vertex 955
property float x
property float y
property float z
element camera 1
property float view_px
property float view_py
property float view_pz
property float x_axisx
property float x_axisy
property float x_axisz
property float y_axisx
property float y_axisy
property float y_axisz
property float z_axisx
property float z_axisy
property float z_axisz
property float focal
property float scalex
property float scaley
property float centerx
property float centery
property int viewportx
property int viewporty
property float k1
property float k2
end_header
-0.01711913 0.020542957 0.0066964626
-0.015674183 0.02015252 0.0068208575
-0.014961846 0.020716401 0.0073946118
-0.013780592 0.020670887 0.0067448616
-0.012760377 0.020880615 0.007129699
-0.011420243 0.020556437 0.0066469312
-0.010345695 0.020691389 0.0067532063
-0.0091518369 0.020591632 0.0066221356
-0.0079442821 0.020428153 0.0066221356
-0.0068604569 0.02058137 0.0060614049
-0.0056545069 0.020356225 0.0061557889
-0.0045137433 0.020311844 0.0058244169
-0.0034217457 0.020530473 0.0058636963
-0.0022539103 0.020285193 0.0057173073
-0.0011096662 0.019973991 0.0058075488
-0.017741438 0.019828666 0.006190896
-0.01683002 0.019985648 0.0077741742
-0.015573335 0.019726224 0.011371762
-0.014636983 0.019864477 0.011884838
-0.013488166 0.019713474 0.012000084
-0.012365378 0.019578516 0.012005776
-0.011343109 0.019592645 0.011828482
-0.01034669 0.019658711 0.012081325
-0.0093295611 0.01969574 0.012354642
-0.0084424531 0.020050826 0.01219219
-0.0073589305 0.019974239 0.012223303
-0.0062176567 0.019689247 0.01219219
-0.0052302796 0.019875064 0.012262404
-0.0041236812 0.019587487 0.012305498
-0.003097031 0.019614531 0.012414128
-0.0020794587 0.019754857 0.012505621
-0.0010287149 0.019545583 0.012459427
0 0.019689143 0.012557924
0.001031882 0.01960576 0.010857791
0.0020483965 0.019459767 0.0057038069
-0.018689834 0.020766482 0.0067826807
-0.017714459 0.020840539 0.0097080767
-0.016564127 0.02070516 0.012394756
-0.015622566 0.020830087 0.013420582
-0.014547442 0.020782061 0.013647228
-0.013451712 0.020694941 0.013650537
-0.0124939 0.020823166 0.013442189
-0.011416731 0.020757692 0.01324144
-0.010371002 0.020742005 0.013451338
-0.0093130842 0.020695742 0.013375789
-0.0083196526 0.02079913 0.013233304
-0.0072416756 0.020690501 0.012918293
-0.0062337075 0.020779025 0.012741715
-0.0052010235 0.020804094 0.013241053
-0.0041236673 0.020618334 0.013192624
-0.0031198564 0.020799043 0.013192624
-0.0020854175 0.020854173 0.013453543
-0.0010366286 0.020732572 0.013756633
0 0.020834947 0.013572603
0.0010380902 0.020761803 0.013586044
0.0020662954 0.020662952 0.013180912
0.0031193083 0.020795388 0.0081689656
-0.019703727 0.021777805 0.0070306063
-0.018867021 0.022011526 0.011650801
-0.017753569 0.021930881 0.013099283
-0.016765472 0.022004683 0.013502836
-0.015664384 0.021930136 0.013710916
-0.014464649 0.021696974 0.014048189
-0.013553639 0.021894339 0.01391077
-0.012317016 0.021554777 0.013895363
-0.011448083 0.021855431 0.013651013
-0.010388548 0.021815954 0.013926804
-0.0093628485 0.021846648 0.013882935
-0.0082883937 0.021757033 0.013563097
-0.0073097907 0.021929372 0.01313445
-0.0062515414 0.021880396 0.013118416
-0.0051814839 0.021762233 0.013839275
-0.0041599167 0.021839565 0.01388815
-0.0031126989 0.021788893 0.013863802
-0.0020711462 0.021747034 0.014181852
-0.001042768 0.021898128 0.01422891
0 0.021850882 0.014223009
0.0010399061 0.021838028 0.0141927
0.002095259 0.02200022 0.013692468
0.0030860291 0.021602204 0.013312489
0.0041148593 0.021603012 0.012596786
0.0051501268 0.021630533 0.006475389
-0.02101033 0.023111364 0.0071318746
-0.019991122 0.023147615 0.011775672
-0.01887873 0.023074005 0.012958974
-0.017730514 0.022945371 0.013622254
-0.0166036 0.022829948 0.013748914
-0.015681451 0.022999462 0.013851285
-0.014549603 0.02286366 0.01451546
-0.013433165 0.022733048 0.014317989
-0.012518383 0.022950368 0.014269173
-0.011585799 0.023171598 0.013801098
-0.010378636 0.022833001 0.014002353
-0.0093654292 0.022893272 0.013895363
-0.0084280176 0.023177048 0.013694108
-0.0072423373 0.02276163 0.013290942
-0.0062678712 0.022982195 0.013181478
-0.0052520181 0.023108879 0.013957649
-0.0041771368 0.022974253 0.014039874
-0.0031142912 0.022838134 0.014337212
-0.00209924 0.02309164 0.01438427
-0.0010398885 0.022877548 0.014653325
0 0.022966022 0.014898211
0.0010351397 0.022773072 0.015033573
0.0020767136 0.022843849 0.014836222
0.003139131 0.023020294 0.014326155
0.0041603339 0.022881836 0.013768286
0.0051774415 0.022780742 0.013182968
0.0062952656 0.02308264 0.0070835948
-0.020981858 0.024129137 0.011830211
-0.019873949 0.02405794 0.012850642
-0.018806033 0.024029931 0.013614535
-0.017752847 0.02401856 0.013905048
-0.016638258 0.023917496 0.013917446
-0.015560634 0.023859639 0.014166921
-0.014575673 0.023945749 0.014707744
-0.013598966 0.024059709 0.01452893
-0.012539265 0.024033593 0.014316559
-0.011539328 0.024127686 0.013801098
-0.010413088 0.023950104 0.014002353
-0.0093904082 0.023997713 0.013989687
-0.0083576972 0.024028379 0.013953298
-0.0072877626 0.023945507 0.013557076
-0.0062713753 0.024040274 0.013569832
-0.0052308906 0.024062099 0.014272571
-0.0041512283 0.023869565 0.014339566
-0.0031492824 0.0241445 0.014652133
-0.0020791008 0.02390966 0.014699191
-0.001038647 0.02388888 0.014971673
0 0.024098974 0.015114367
0.0010391949 0.023901483 0.015256524
0.0020963892 0.024108475 0.015316814
0.0031060015 0.02381268 0.01477772
0.0041483068 0.023852764 0.014326155
0.0052351519 0.0240817 0.013729185
0.0061972383 0.023756081 0.011129647
0.0078548491 0.025808789 0.0056019425
-0.02202493 0.025171347 0.011478484
-0.02107241 0.025286894 0.012808979
-0.019779788 0.024984995 0.01367569
-0.018924775 0.025233034 0.013869822
-0.017778168 0.025098588 0.014093935
-0.01678179 0.025172684 0.014093935
-0.015812907 0.025300652 0.014368176
-0.014412589 0.024707295 0.014666677
-0.013560599 0.025034953 0.01452893
-0.012580506 0.025161011 0.014316559
-0.011451973 0.024986122 0.013788432
-0.010412173 0.024989216 0.013989687
-0.0093068862 0.024818363 0.013989687
-0.0082707917 0.024812374 0.0138506
-0.0073067183 0.025051605 0.013561726
-0.0063150069 0.025260027 0.013653249
-0.0052082152 0.024999432 0.014272571
-0.0041713146 0.025027886 0.014339566
-0.0031207027 0.024965622 0.014670253
-0.0020959605 0.025151527 0.014800727
-0.0010501203 0.025202889 0.015147954
0 0.024975084 0.015518963
0.0010493291 0.025183897 0.01565209
0.0020723448 0.024868136 0.015508145
0.0031126684 0.024901347 0.015316814
0.0041121556 0.024672933 0.015101373
0.0051805233 0.024866512 0.01416111
0.0062448969 0.024979588 0.013502389
0.0072679524 0.024918694 0.010510415
-0.023525681 0.026733732 0.0083747506
-0.021893956 0.026064234 0.012286633
-0.02072883 0.025911039 0.013345957
-0.019856472 0.026126936 0.01374951
-0.018723821 0.026005309 0.013926655
-0.017748585 0.026100859 0.013999909
-0.016859015 0.026342213 0.013994455
-0.015657246 0.026095411 0.013917446
-0.014698191 0.026246769 0.01406011
-0.013575929 0.026107557 0.013814926
-0.012574208 0.026196269 0.013530254
-0.011559303 0.026271144 0.013300627
-0.010464732 0.026161831 0.012756258
-0.009532162 0.026478231 0.012481809
-0.0085085286 0.026589151 0.012034446
-0.0074389214 0.026567576 0.011916131
-0.0063600466 0.026500195 0.012190193
-0.0052831816 0.026415911 0.0127002
-0.0042047566 0.026279729 0.012859136
-0.0031311805 0.026093172 0.013145328
-0.0020978318 0.026222898 0.013704062
-0.0010397972 0.02599493 0.01402697
0 0.026022397 0.01429069
0.0010435095 0.026087737 0.014836222
0.0020770188 0.025962736 0.015147746
0.0031414041 0.026178369 0.014867276
0.0041823625 0.026139764 0.014832318
0.0051669539 0.025834773 0.014330059
0.0062906775 0.026211156 0.013787836
0.0072711036 0.025968228 0.013067305
0.0086384928 0.026995292 0.0086209476
-0.023036763 0.027225265 0.01148966
-0.021882832 0.027093031 0.013125181
-0.021073163 0.027395111 0.013742834
-0.019853327 0.02716771 0.013717771
-0.018867472 0.027253015 0.013688862
-0.017835684 0.027278107 0.013770431
-0.016757118 0.027230317 0.01363492
-0.015724082 0.027255073 0.013568074
-0.01448558 0.026901791 0.013578624
-0.013633071 0.027266143 0.012619168
-0.012737158 0.027597176 0.011363328
-0.011673887 0.027592825 0.010945439
-0.010469764 0.027221385 0.0093057752
-0.0095941592 0.02771646 0.0087226927
-0.0084828455 0.027569246 0.0085527301
-0.0074641444 0.027723964 0.0086495876
-0.0064408067 0.027910162 0.0086495876
-0.0053355801 0.027745016 0.0087193847
-0.0042461934 0.027600257 0.0092602372
-0.0032203088 0.027909344 0.010677606
-0.0021314512 0.027708864 0.012447685
-0.001044439 0.027155412 0.013075322
0 0.027172901 0.01374349
0.0010379893 0.02698772 0.014068723
0.0020720649 0.026936844 0.014372528
0.003143826 0.027246492 0.014560491
0.004149816 0.026973804 0.014652401
0.0052677407 0.027392251 0.014543146
0.0062754429 0.027193585 0.014111191
0.0072733569 0.027015325 0.013544858
0.0083358679 0.02709157 0.010546029
0.0102495 0.029609667 0.0071443319
-0.024333611 0.028565543 0.0091622472
-0.022947446 0.028162776 0.011968344
-0.021833306 0.028071394 0.012947023
-0.021018656 0.028375188 0.013540626
-0.019798104 0.028134147 0.013565958
-0.018922348 0.028383523 0.013465613
-0.017687052 0.028091202 0.013435006
-0.016723236 0.02822046 0.013324887
-0.015717845 0.028292121 0.012619168
-0.014922414 0.028778942 0.011972994
-0.013863224 0.028792851 0.010528624
-0.01265771 0.02847985 0.0085305274
-0.011591689 0.028452329 0.0082734227
-0.010568997 0.028536292 0.0072965622
-0.0097031519 0.029109459 0.0065123737
-0.0085704951 0.028925421 0.0062113404
-0.005315538 0.028703908 0.0060608685
-0.0043026772 0.029043071 0.0067187846
-0.0031940446 0.028746402 0.0077049136
-0.0021353581 0.028827334 0.0090435147
-0.0010651947 0.028760258 0.010331064
0 0.028500816 0.012286693
0.0010477954 0.028290477 0.013425678
0.0020809702 0.0280931 0.013762712
0.0031480528 0.028332477 0.014068723
0.0041722488 0.028162681 0.014399499
0.0051841401 0.027994359 0.014514118
0.0062714885 0.028221698 0.014158756
0.0072474615 0.027954496 0.013729185
0.0083048111 0.028028738 0.013067305
0.0095039001 0.028511701 0.0090898573
-0.023943966 0.029149177 0.011076421
-0.022955557 0.029216165 0.012707174
-0.021921424 0.029228566 0.013241857
-0.020977404 0.029368365 0.01357612
-0.019909013 0.029339597 0.013507903
-0.018792238 0.029232372 0.013437867
-0.017708831 0.029167484 0.013314724
-0.016878892 0.02953806 0.012578756
-0.015882013 0.029646425 0.011363328
-0.014850928 0.029701857 0.009999156
-0.013790514 0.029702647 0.0083492696
-0.012768634 0.029793479 0.0063972771
-0.0021640677 0.03029695 0.0067737699
-0.0010554628 0.029552955 0.0081430078
0 0.029530909 0.010063589
0.0010743798 0.030082634 0.011328012
0.0021172317 0.029641243 0.013295978
0.0031403981 0.029310383 0.013585538
0.004229683 0.029607778 0.01399681
0.0052027167 0.029135214 0.014384419
0.0062003508 0.028934972 0.014507264
0.0073398817 0.029359527 0.01416111
0.0083369603 0.029179361 0.013448298
0.00930853 0.02895987 0.011450857
0.010939334 0.030630134 0.0071278214
-0.025173651 0.030418163 0.0098543465
-0.024147812 0.030447243 0.012074679
-0.022976885 0.030287713 0.012652129
-0.021966018 0.030334024 0.013094038
-0.020972481 0.0304101 0.013338029
-0.019805076 0.030228801 0.013034314
-0.018852344 0.030373221 0.012901455
-0.018009381 0.030721888 0.012367129
-0.016890489 0.030614011 0.011279941
-0.015922047 0.030782627 0.009791404
-0.01501678 0.031106189 0.0081972778
-0.014006957 0.031246291 0.0062656999
-0.001072 0.031088002 0.0058701634
0 0.030811204 0.0076657534
0.0010579517 0.030680599 0.0095344782
0.0021267086 0.030837275 0.010634482
0.0031659307 0.030603999 0.013150215
0.0041571739 0.030139511 0.013322294
0.0051567946 0.02990941 0.014139891
0.0062631019 0.030271662 0.014144182
0.0073092114 0.03028102 0.014150858
0.0083967736 0.030438306 0.013781548
0.0093145417 0.030013526 0.013215572
0.010353136 0.030024096 0.010189503
-0.025263738 0.031579673 0.012109399
-0.024118267 0.031458609 0.012674451
-0.023007413 0.031373747 0.013338029
-0.021889316 0.031270448 0.013440341
-0.021071883 0.031607825 0.013421744
-0.019654894 0.031034045 0.012989938
-0.019004153 0.031673592 0.012546331
-0.017992659 0.031751752 0.011363328
-0.016972942 0.031824265 0.0096095204
-0.016251806 0.032503612 0.0081972778
-0.014979149 0.032098178 0.0055405498
0 0.03224906 0.0055332184
0.0010564807 0.03169442 0.0077602863
0.0021293589 0.031940382 0.0097410083
0.0031819495 0.031819496 0.01066497
0.0042356974 0.03176773 0.013006002
0.0052339775 0.031403866 0.013540089
0.006206871 0.031034354 0.014021635
0.0072976579 0.031275678 0.014024049
0.0083101252 0.03116297 0.013786405
0.0093659041 0.03121968 0.013793081
0.010436947 0.031310841 0.012989163
0.011661753 0.031804781 0.0084569156
-0.026137544 0.032410555 0.011514217
-0.025076913 0.032391015 0.01293388
-0.024109524 0.032495443 0.013421744
-0.023019092 0.032435995 0.013403803
-0.021713067 0.032052621 0.013403803
-0.020759456 0.032177158 0.013287008
-0.019952314 0.032553777 0.012577325
-0.018998373 0.032719422 0.011880279
-0.018102838 0.033011056 0.0097707808
-0.017086361 0.033104826 0.0082858205
-0.016084705 0.033241723 0.0055770278
0.0010799289 0.033477798 0.0060564578
0.0020911423 0.032412708 0.008446455
0.0031857237 0.032919146 0.0098966062
0.0042526457 0.032958005 0.01232335
0.0051691574 0.032048777 0.01323694
0.0062917694 0.032507475 0.013859719
0.007298403 0.032321502 0.014110386
0.0083489101 0.032352027 0.014178336
0.0094013261 0.032382347 0.01433605
0.010454418 0.032408699 0.013976008
0.011303916 0.031856492 0.01268813
-0.027578752 0.033943079 0.0061174035
-0.026623828 0.034078497 0.01295346
-0.025037076 0.03338277 0.013403803
-0.024002938 0.033395391 0.013532996
-0.022974545 0.033417523 0.013502061
-0.02180188 0.033221912 0.013500571
-0.020961804 0.033538885 0.012984306
-0.019969184 0.033632308 0.012276381
-0.019050404 0.033867389 0.010455668
-0.018112723 0.034094535 0.0086811185
-0.017258907 0.034517813 0.0061365664
0.0021422752 0.034276403 0.0070742965
0.0031659547 0.033770185 0.0092592835
0.00422653 0.03381224 0.0099960268
0.0052982084 0.033908535 0.012765408
0.0062628249 0.033401735 0.013456434
0.0072412477 0.033102848 0.013962656
0.0083672088 0.033468835 0.014083087
0.0093688611 0.033311509 0.014547467
0.010276162 0.032883722 0.013839841
0.011464782 0.033352096 0.013329476
0.012620604 0.033654943 0.0095005929
-0.027104935 0.034402415 0.011844605
-0.026096871 0.034447867 0.013390005
-0.025090277 0.034499131 0.013489962
-0.024014855 0.034456093 0.013642043
-0.022851119 0.034276679 0.013494462
-0.021951696 0.034495518 0.013457298
-0.020879896 0.034451831 0.012737036
-0.020077037 0.034870639 0.011756241
-0.019081537 0.034982819 0.0094575882
-0.018215386 0.035359278 0.0077460706
0.003169144 0.034860585 0.008220762
0.0042001554 0.034651279 0.0094139874
0.0052810377 0.034854848 0.012059242
0.0062513538 0.034382444 0.013348997
0.0072423387 0.034142453 0.013695747
0.0083139995 0.034295246 0.014319152
0.009364238 0.034335542 0.014380932
0.010404704 0.034335524 0.014329344
0.011496549 0.034489647 0.013697952
0.012391371 0.03407627 0.012779355
-0.02881133 0.036280934 0.005274266
-0.026914887 0.03519639 0.012900144
-0.026186973 0.035614282 0.013525635
-0.025003567 0.035421722 0.013620883
-0.024194036 0.035765097 0.013549685
-0.022859728 0.035328671 0.013476968
-0.021822277 0.035331309 0.013324887
-0.021030908 0.035752546 0.012476206
-0.020092474 0.035954952 0.01138556
-0.019108169 0.036093209 0.0087432265
-0.018292097 0.036584195 0.0050855875
0.0032175148 0.036465168 0.0073115826
0.0042308741 0.035962429 0.0091681778
0.0052990764 0.03603372 0.01154387
0.0062901489 0.035644177 0.013573378
0.0072693238 0.035308145 0.013816178
0.0083210189 0.03536433 0.014337629
0.0093119992 0.035178665 0.014380932
0.010373388 0.035269521 0.014350832
0.011371235 0.035147455 0.014095426
0.012458027 0.035297748 0.01361534
0.013470679 0.035231005 0.0077008903
-0.028106455 0.036434293 0.0080442429
-0.027112458 0.036497537 0.013314098
-0.026081357 0.036513899 0.013689011
-0.024999691 0.036457881 0.013692915
-0.024003364 0.036526859 0.013635188
-0.022944253 0.03650222 0.013599664
-0.021890232 0.036483716 0.013386905
-0.021045834 0.036830209 0.012019306
-0.019967135 0.036781564 0.010897487
-0.019222053 0.037376214 0.0079215765
0.0032348668 0.037740111 0.0065747499
0.0041901232 0.036663577 0.0090452135
0.0052721286 0.036904901 0.011327267
0.0063452884 0.037014183 0.013478875
0.0072133504 0.036066752 0.013697952
0.0083255554 0.036424305 0.014241338
0.0093657551 0.036422383 0.014239043
0.01031348 0.03609718 0.014141589
0.011390178 0.036241475 0.01403749
0.012471393 0.036374893 0.013493717
0.013468589 0.036261585 0.011830807
-0.028049583 0.037399441 0.01055339
-0.027265659 0.03775245 0.013341755
-0.026249902 0.037799858 0.013789862
-0.025157161 0.037735742 0.013716072
-0.024097105 0.037717208 0.013651609
-0.022876514 0.037434295 0.013531774
-0.022019153 0.037747119 0.013371199
-0.020949017 0.03770823 0.01228863
-0.020092992 0.038070932 0.011196911
-0.019217832 0.038435664 0.0060193837
0.0042474987 0.038227484 0.0087858438
0.0052366583 0.037703939 0.011538714
0.0063209385 0.037925627 0.013354242
0.0072678691 0.037377611 0.014009327
0.0083159516 0.037421778 0.014238179
0.0092844618 0.037137847 0.01434496
0.010462384 0.037664581 0.014168739
0.011372982 0.037220664 0.014018446
0.012406005 0.037218012 0.013694257
0.013559527 0.037549458 0.012640119
-0.028493069 0.039046057 0.010496646
-0.027190205 0.038693752 0.013357759
-0.026134906 0.038679663 0.013805419
-0.024901297 0.038389504 0.013803095
-0.023892304 0.038435444 0.013664842
-0.023040744 0.038750343 0.013651609
-0.021918688 0.038618643 0.013427109
-0.020860605 0.038592122 0.012360454
-0.020120721 0.039182458 0.011196911
-0.019313939 0.039700877 0.0052050352
0.0042494521 0.039307434 0.008757621
0.0052120998 0.038569544 0.011446446
0.0063406359 0.039100591 0.013036728
0.0073592905 0.038899109 0.013959587
0.0082776491 0.038284127 0.014305055
0.0093910787 0.038607772 0.014442146
0.010321628 0.038190026 0.014319986
0.011405126 0.0383627 0.014133006
0.012569248 0.038755182 0.014014125
0.01360222 0.03871401 0.012586027
-0.028463585 0.040059861 0.010828733
-0.027177611 0.039721128 0.013168663
-0.026031924 0.039568525 0.013676524
-0.024992971 0.039572205 0.013996691
-0.02385053 0.039405223 0.014092326
-0.02277405 0.039336998 0.013996691
-0.022062551 0.039922714 0.013561398
-0.021042502 0.039980754 0.013017386
-0.020086106 0.040172212 0.011418462
-0.019228686 0.040593896 0.0053562522
0.0042103464 0.039998289 0.0085344315
0.0052375961 0.039805733 0.011870623
0.0063322438 0.040104214 0.013030678
0.0072471192 0.039341506 0.013917595
0.0083441846 0.03963488 0.014076352
0.0093512116 0.039482895 0.014250368
0.010426033 0.039618928 0.014177799
0.011469895 0.039623275 0.014002144
0.012486238 0.039539754 0.014078468
0.013440531 0.039287705 0.012539387
-0.028443754 0.041085418 0.010421753
-0.027119201 0.040678799 0.013033807
-0.026028769 0.040604878 0.013483107
-0.025075722 0.040748049 0.013540089
-0.024019057 0.040727966 0.013545334
-0.022988603 0.040752523 0.013522148
-0.022002582 0.040861934 0.013391703
-0.020738073 0.040439241 0.012966782
-0.019986881 0.041025702 0.011492342
-0.019310322 0.041839033 0.005486697
0.0042404132 0.041344028 0.0089373887
0.0052278521 0.040777247 0.012143046
0.0063405647 0.041213673 0.013271779
0.0073167505 0.040764753 0.013933599
0.008320353 0.040561721 0.014104813
0.0093659116 0.040585615 0.014389962
0.010437504 0.040706266 0.014324427
0.011433129 0.04053564 0.013892442
0.012454875 0.040478345 0.013764709
0.013589516 0.040768549 0.012468815
-0.028528361 0.042264234 0.010163277
-0.027158249 0.041781921 0.012640446
-0.025937652 0.041500241 0.013278782
-0.025055079 0.041758463 0.013413072
-0.023970015 0.041686982 0.013758957
-0.022884373 0.04160795 0.013701946
-0.021829261 0.041579541 0.013322949
-0.020911172 0.041822344 0.01313588
-0.020001581 0.042108592 0.011780888
-0.019291427 0.04286984 0.0059731901
0.0032334775 0.04311303 0.0063770115
0.0041719116 0.041719116 0.0099660158
0.0051904768 0.041523814 0.012676954
0.0062724045 0.04181603 0.013742179
0.0073064696 0.041751254 0.014055759
0.0082469825 0.04123491 0.01415056
0.0094274953 0.041899979 0.014389962
0.010316071 0.041264284 0.014250517
0.011435006 0.041581839 0.013764709
0.012569728 0.041899092 0.013478488
0.013568853 0.041750316 0.011781514
-0.02831045 0.042989943 0.0092805326
-0.027274232 0.043009367 0.012245595
-0.026209667 0.042983856 0.013072848
-0.024857001 0.042464048 0.013288409
-0.024089385 0.042941947 0.013613135
-0.022986589 0.042838644 0.013701856
-0.021826349 0.04261335 0.013391674
-0.020948354 0.04294413 0.013220727
-0.019972406 0.043098349 0.01210776
-0.019380407 0.044144265 0.0090937912
0.0032599627 0.044552825 0.0084177852
0.0041500013 0.042537514 0.012028486
0.0052025202 0.042660668 0.013025194
0.0062664659 0.042820852 0.013777733
0.007259638 0.042520739 0.014056563
0.0083244843 0.042662986 0.014129549
0.0093492707 0.042591125 0.014324427
0.010352299 0.042444427 0.014078468
0.011438146 0.042633094 0.01357156
0.012546937 0.042868704 0.012814999
0.013639543 0.043017022 0.0087380409
-0.027452925 0.044347033 0.010427684
-0.025944224 0.043586295 0.012640446
-0.025196418 0.044093732 0.013286829
-0.024065124 0.043945007 0.013710558
-0.022842167 0.043607775 0.014007926
-0.021951757 0.043903515 0.0140028
-0.020830339 0.043743715 0.01370877
-0.019884428 0.04395505 0.013174534
-0.019504122 0.045509622 0.011250257
-0.018129 0.044789296 0.0051755905
0.0031507011 0.044109814 0.010855258
0.0041887159 0.043981519 0.012784988
0.0052409028 0.044023588 0.013371229
0.0062772278 0.043940596 0.013813376
0.007249712 0.043498274 0.014104813
0.0083179837 0.043669414 0.014222622
0.0093801571 0.043774068 0.014268607
0.010418755 0.043758772 0.013949394
0.011444549 0.043697372 0.013299495
0.012521174 0.04382411 0.012459964
0.013806242 0.044604782 0.0064997375
-0.027497653 0.045476887 0.0091852844
-0.02597828 0.044682641 0.012079686
-0.024963245 0.044725813 0.012914091
-0.023939101 0.044755708 0.013649255
-0.022949388 0.044855621 0.013888657
-0.021811236 0.044661101 0.01419276
-0.020867268 0.044864628 0.013811141
-0.019669805 0.044515871 0.013459355
-0.018789301 0.044885553 0.013071895
-0.018709134 0.047323104 0.011288345
0.0021435986 0.046087369 0.0098730624
0.0031622411 0.045325458 0.012717098
0.0041674892 0.044800509 0.013170779
0.0052228561 0.044916563 0.013742864
0.0062570302 0.044842049 0.013940215
0.0072872699 0.04476466 0.014291525
0.0083031934 0.044629663 0.014223546
0.0093787862 0.044809759 0.014268607
0.010348139 0.044496998 0.013905793
0.011368216 0.04443939 0.013228536
0.012678597 0.04543164 0.011320502
-0.026376633 0.046422873 0.010477632
-0.025008835 0.045849532 0.012583107
-0.024094133 0.046093121 0.013322949
-0.022936583 0.045873165 0.013843179
-0.021816833 0.045711454 0.01426965
-0.021036018 0.046279237 0.01430285
-0.019737 0.045706734 0.013758451
-0.018754836 0.045845155 0.013606757
-0.018209979 0.047131706 0.013043761
-0.017319813 0.047629483 0.010117382
0.0011046748 0.048605692 0.0080563724
0.0020862923 0.04589843 0.012243956
0.0031721189 0.046524413 0.012984335
0.0041142474 0.045256719 0.013569534
0.0052220593 0.045954119 0.013952643
0.0062477137 0.045816567 0.014199793
0.0071924119 0.045209445 0.014413238
0.0082999934 0.045649961 0.014193028
0.0093168244 0.04554892 0.013997257
0.010382321 0.045682214 0.013631284
0.011489126 0.045956504 0.012467921
-0.026228808 0.047211852 0.0091503561
-0.025200868 0.047251631 0.011772335
-0.023937266 0.046833783 0.013240397
-0.022964908 0.046973679 0.013835013
-0.021832455 0.046783835 0.01430285
-0.020717977 0.046615448 0.014422923
-0.019795991 0.046885245 0.01426965
-0.018726815 0.046817038 0.01405704
-0.017845806 0.047238901 0.013715953
-0.017316999 0.048704062 0.012562424
-0.016255312 0.048765939 0.0098906755
0 0.049803209 0.0090920329
0.0010611684 0.047752582 0.011763006
0.0020716619 0.046612393 0.01276058
0.0031198054 0.046797086 0.013524741
0.0041598934 0.046798799 0.013820022
0.0051791216 0.046612099 0.01397562
0.006223096 0.046673223 0.014298052
0.0072574429 0.046654996 0.014285982
0.0082855988 0.046606492 0.014052063
0.0093546109 0.046773057 0.013761699
0.010461247 0.047075614 0.013209432
0.011440665 0.046802722 0.0097425878
-0.02533314 0.048555184 0.010225594
-0.023791473 0.047582947 0.012607843
-0.023018362 0.048129305 0.01345855
-0.021793317 0.04773774 0.014190078
-0.020689184 0.047585126 0.014479131
-0.01977895 0.04788588 0.014439434
-0.018717211 0.047832873 0.014405817
-0.017630914 0.047707178 0.014389008
-0.016752377 0.048163082 0.014140069
-0.016356083 0.050158657 0.012472063
-0.015305183 0.050288457 0.0098086596
-0.013813299 0.048877828 0.0050519407
-0.0011138747 0.051238239 0.0091582835
0 0.048298627 0.01145196
0.0010454843 0.048092276 0.012599826
0.0020890106 0.048047245 0.013330609
0.0031116607 0.047712132 0.013852745
0.0041810167 0.048081692 0.013979137
0.005168885 0.047553744 0.014211565
0.0062424284 0.047858618 0.014375001
0.0072833886 0.047862269 0.014203191
0.0082634082 0.047514599 0.014056563
0.0094315642 0.048205774 0.013507694
0.010460129 0.048116598 0.012177348
-0.025497101 0.049931824 0.0076710582
-0.024232442 0.04951847 0.010792494
-0.022937285 0.049002383 0.013290823
-0.021945836 0.049116872 0.014123023
-0.020939723 0.049208347 0.014778733
-0.019752603 0.048861705 0.014771968
-0.018784817 0.049049247 0.014785856
-0.017593982 0.048642185 0.014880747
-0.016662382 0.048945744 0.014785856
-0.015495388 0.048552215 0.014079392
-0.014670397 0.049250621 0.01331234
-0.01470636 0.05316915 0.010721236
-0.012987774 0.050868783 0.0062238574
-0.0022251522 0.052291077 0.01044938
-0.0010400976 0.048884582 0.011709571
0 0.048688341 0.012522191
0.0010410665 0.048930123 0.012852401
0.0020640674 0.048505582 0.013683826
0.0031378376 0.04915946 0.013959497
0.0041054552 0.048239097 0.013961166
0.0051453011 0.048365831 0.013959497
0.0062297392 0.048799627 0.013975263
0.0072054323 0.048379332 0.013952643
0.0083516184 0.049065758 0.013405651
0.0092959069 0.048545294 0.01279974
0.010540678 0.049541187 0.0086525083
-0.024326857 0.050769091 0.0089501441
-0.022854785 0.049864985 0.012211651
-0.021804849 0.049839649 0.014020085
-0.020983191 0.050359659 0.014699548
-0.019757178 0.049912866 0.014794141
-0.018700946 0.049869191 0.014871299
-0.017744113 0.050101023 0.014964521
-0.016535556 0.04960667 0.015076339
-0.015694136 0.050221235 0.014869809
-0.014720321 0.05046967 0.014537573
-0.013473349 0.04974775 0.013408005
-0.012606366 0.050425462 0.011347145
-0.012499959 0.054545276 0.010363191
-0.011167029 0.053601742 0.0093528628
-0.010099396 0.053863447 0.0062238574
-0.0067178826 0.053743061 0.0050776601
-0.0056411037 0.054154593 0.0094863176
-0.0044301916 0.053162299 0.010411024
-0.0031381908 0.050211053 0.011285901
-0.0021001508 0.050403617 0.011891454
-0.0010517196 0.050482545 0.012835711
0 0.050174665 0.013407856
0.0010445153 0.050136734 0.013628304
0.0020836839 0.050008412 0.014076024
0.0031158517 0.049853627 0.01428476
0.0041701193 0.05004143 0.014324844
0.0052031209 0.049949963 0.014190555
0.0062253731 0.049802985 0.013880372
0.0072711199 0.049859107 0.013704002
0.0082731498 0.049638897 0.012897342
0.0093868822 0.050063372 0.011639684
-0.023160418 0.051584568 0.010051012
-0.021832623 0.050942786 0.012315601
-0.020811308 0.050987706 0.014061213
-0.019850073 0.051192291 0.014432728
-0.018710608 0.05093443 0.01464659
-0.017550701 0.050587315 0.014497608
-0.016611906 0.050873961 0.015145302
-0.015549743 0.050795823 0.014972061
-0.014478821 0.050675873 0.014777273
-0.013595151 0.051243261 0.013996452
-0.012519845 0.051122699 0.013497919
-0.011358876 0.050598629 0.012595594
-0.010282145 0.050382506 0.011900425
-0.0093056615 0.050664157 0.011525452
-0.0083771795 0.051310219 0.011795729
-0.0072998712 0.051099099 0.011708885
-0.0062166154 0.050769024 0.011697441
-0.0051970286 0.05093088 0.01196754
-0.0041710525 0.051095393 0.012249857
-0.0031466947 0.051396012 0.013147235
-0.0020984339 0.051411629 0.013689518
-0.0010393615 0.050928712 0.013939947
0 0.051050458 0.013961166
0.0010399062 0.0509554 0.014207989
0.0020801562 0.050963826 0.014452249
0.0031052979 0.050719865 0.014472693
0.004168632 0.051065736 0.014472693
0.0051688878 0.050655097 0.014207989
0.0062180678 0.050780885 0.013758391
0.0072609005 0.0508263 0.013127506
0.0083582997 0.051194582 0.011897683
0.0095447283 0.051965747 0.0066383481
-0.023348765 0.053065378 0.0070196092
-0.021909736 0.052166037 0.010768801
-0.020858161 0.052145407 0.013204753
-0.019757915 0.051994514 0.01397109
-0.018749528 0.052082025 0.014290482
-0.017729316 0.052145049 0.014445245
-0.016417259 0.051303934 0.015162766
-0.015537757 0.051792525 0.015352577
-0.014754626 0.052695096 0.015307873
-0.013292276 0.051124141 0.015117675
-0.012398465 0.051660273 0.014831454
-0.011386023 0.05175465 0.014302224
-0.010540314 0.052701574 0.014203697
-0.0095086135 0.052825633 0.013727516
-0.0084172152 0.052607596 0.01379022
-0.0073425355 0.052446682 0.013914138
-0.0064267074 0.053555898 0.013914138
-0.0052632052 0.052632052 0.013850123
-0.0041460656 0.051825818 0.013993651
-0.0031146982 0.051911637 0.014273196
-0.0020801276 0.05200319 0.014381588
-0.0010511457 0.05255729 0.014418602
0 0.052124839 0.014408678
0.001034628 0.051731404 0.014382094
0.002054353 0.051358826 0.014479905
0.0031206878 0.052011468 0.014349252
0.0041472754 0.051840942 0.014317483
0.0052142004 0.052142005 0.013613135
0.0062702596 0.052252166 0.013269395
0.0072663114 0.051902223 0.01221934
0.008413827 0.052586421 0.010002315
-0.022157913 0.053812075 0.0078256428
-0.020893987 0.053279668 0.010958493
-0.019721944 0.052937847 0.013182849
-0.018785045 0.053224295 0.013863295
-0.017672451 0.053017352 0.014402539
-0.016500166 0.052594278 0.015059233
-0.01556739 0.052929129 0.015649527
-0.014531705 0.052936923 0.015413016
-0.013502704 0.052972145 0.015376151
-0.012493286 0.053096466 0.015263051
-0.011348568 0.05261609 0.015239686
-0.010313313 0.052597899 0.015241474
-0.0093249744 0.052841522 0.014530689
-0.0082680127 0.052708581 0.014846832
-0.0072488151 0.052812796 0.014708459
-0.0061950111 0.052657597 0.015047312
-0.0052407049 0.053455193 0.014526457
-0.0041735675 0.053212985 0.014496148
-0.0031137308 0.052933425 0.014493227
-0.002089401 0.053279728 0.014668554
-0.00104719 0.053406693 0.014464974
0 0.052796073 0.014399171
0.001030375 0.052549127 0.014339358
0.0020763364 0.052946575 0.014345974
0.0031071983 0.052822374 0.01388976
0.0041554226 0.052981637 0.013605893
0.0051775016 0.05281052 0.013190776
0.0061340481 0.052139409 0.012270451
0.0073381392 0.053463586 0.010501951
-0.02239312 0.055449631 0.0051223636
-0.021203846 0.055130001 0.0085430145
-0.019698501 0.053911686 0.011038154
-0.018671464 0.053939786 0.01304549
-0.017605245 0.053851336 0.013749033
-0.016726959 0.054362617 0.014141589
-0.015586035 0.054031588 0.014657736
-0.014384977 0.053429913 0.01516217
-0.013373515 0.053494059 0.014907032
-0.012282629 0.053224728 0.015072078
-0.011427425 0.054020554 0.015201658
-0.010379565 0.053973738 0.01498279
-0.0093372576 0.0539486 0.01451838
-0.0083572874 0.054322369 0.014846832
-0.007200391 0.05348862 0.014708459
-0.0062761228 0.054393064 0.015002787
-0.0052381386 0.054476645 0.014540195
-0.0041886927 0.054453 0.014526457
-0.0030993219 0.053721577 0.014418602
-0.0020799115 0.0540777 0.014585972
-0.0010291418 0.053515375 0.01428932
0 0.053858265 0.01402849
0.0010422631 0.054197684 0.013925076
0.0020579018 0.053505447 0.01402548
0.0031417683 0.054457318 0.013506323
0.0041282284 0.053666972 0.013234347
0.0051604449 0.053668629 0.012353063
0.0062833778 0.05445594 0.011057287
0.0073823687 0.054840453 0.0062095225
-0.021244116 0.056296907 0.0052618086
-0.020143023 0.056188427 0.0082479119
-0.018678499 0.054997806 0.011057258
-0.017754609 0.055352598 0.012691438
-0.016477076 0.054580312 0.013495237
-0.015522118 0.054844815 0.013772398
-0.014698346 0.055643737 0.01447162
-0.013384913 0.054569259 0.014738232
-0.012516486 0.055281147 0.014724284
-0.011359268 0.054731019 0.015065402
-0.010254758 0.05435022 0.014835328
-0.0093445806 0.055029199 0.014504164
-0.0082733678 0.05481106 0.014846832
-0.0072094924 0.054586157 0.014477313
-0.0062331203 0.055059228 0.014766097
-0.0051799361 0.054907322 0.014386028
-0.0041237543 0.054639742 0.01429376
-0.0030919756 0.0546249 0.014103174
-0.0020684814 0.054814756 0.014049053
-0.0010324367 0.054719146 0.013979137
0 0.055110168 0.013795227
0.0010341897 0.054812055 0.013721198
0.0020812962 0.055154346 0.013492763
0.0030941516 0.054663345 0.01264596
0.0040988512 0.054309774 0.012031764
0.0052116686 0.055243686 0.011058033
0.0063027479 0.055674274 0.0067734122
-0.018840801 0.05652241 0.0076398849
-0.017633833 0.056013357 0.0095870197
-0.016560551 0.055891864 0.012363642
-0.015625723 0.056252602 0.012702584
-0.014384927 0.05548472 0.013547599
-0.013384447 0.055596936 0.013717562
-0.012578337 0.056602519 0.014447808
-0.011309692 0.055520307 0.014787227
-0.010364961 0.055970792 0.014662623
-0.0093795741 0.056277446 0.014163911
-0.0082725845 0.055839948 0.014688551
-0.0071961293 0.055513002 0.01421538
-0.006219835 0.055978518 0.01451838
-0.005188507 0.05603588 0.014224768
-0.0041656638 0.056236465 0.01407665
-0.0031147073 0.056064732 0.014004171
-0.0020832713 0.056248322 0.013980359
-0.0010399532 0.056157477 0.013771415
0 0.055818286 0.013558
0.0010349982 0.055889904 0.013355434
0.0020864133 0.056333162 0.012596101
0.0030953104 0.055715591 0.011488408
0.0041997433 0.056696538 0.010310441
0.005236845 0.056557931 0.0067240894
-0.017953195 0.058083866 0.0063811243
-0.016757833 0.057605051 0.0088568032
-0.01552543 0.056926575 0.011171639
-0.014534793 0.05710097 0.012243569
-0.013397244 0.056680646 0.01243031
-0.01235749 0.056638498 0.012618273
-0.011435439 0.057177193 0.013233334
-0.010377802 0.057077914 0.013328493
-0.0092525138 0.056543145 0.013215631
-0.0082852812 0.056961309 0.013994068
-0.0072787036 0.057189815 0.013480693
-0.0062108706 0.056932982 0.013312727
-0.0051985504 0.057184059 0.013406992
-0.004166204 0.057285305 0.013231277
-0.0030904701 0.056658618 0.01317659
-0.0020808831 0.057224289 0.013033867
-0.0010372496 0.057048727 0.012778193
0 0.057397753 0.012195766
0.0010375517 0.057065338 0.011763304
0.0020601032 0.056652844 0.011078477
0.0031711115 0.058137044 0.0098226964
-0.016744416 0.058605455 0.005556941
-0.015855068 0.059192259 0.007399559
-0.014690386 0.058761545 0.0090995133
-0.013416228 0.05779298 0.011029929
-0.012446003 0.058081347 0.011763364
-0.011497288 0.058531649 0.012275577
-0.010299416 0.057676733 0.012399912
-0.0093651004 0.058271736 0.012423366
-0.0082829464 0.057980623 0.012668163
-0.0072280467 0.057824373 0.012730867
-0.0062261471 0.058110707 0.012730867
-0.0052064434 0.058312166 0.012438625
-0.0041239671 0.057735536 0.01194945
-0.0031135122 0.058118895 0.011745244
-0.0020879046 0.058461327 0.011555642
-0.001036957 0.058069594 0.011266202
0 0.058702145 0.011175245
0.0010468001 0.058620803 0.010293096
0.0021001026 0.058802869 0.0076027513
-0.01474443 0.060030889 0.0054160357
-0.013588068 0.059578452 0.0066726804
-0.01274436 0.060535707 0.0074315965
-0.011493311 0.05955625 0.0076241493
-0.010541467 0.060086362 0.0076524615
-0.0095112287 0.06023778 0.0078405738
-0.0084514851 0.060216829 0.0078253746
-0.0073886295 0.060164552 0.0078935027
-0.0063590757 0.060411219 0.0080402195
-0.005296994 0.060385734 0.0080841184
-0.0042521991 0.060593836 0.0080402195
-0.0031756356 0.060337078 0.0079704523
-0.0021107241 0.060155638 0.0070713758
-0.0010560962 0.06019748 0.0067206323
0 0.059812292 0.0050448775
0 0 0 1 0 0 0 1 0 0 0 1 0 0 0 0 0 955 1 0 0
