ply
format ascii 1.0
comment PCL generated
element vertex 944
property float x
property float y
property float z
element camera 1
property float view_px
property float view_py
property float view_pz
property float x_axisx
property float x_axisy
property float x_axisz
property float y_axisx
property float y_axisy
property float y_axisz
property float z_axisx
property float z_axisy
property float z_axisz
property float focal
property float scalex
property float scaley
property float centerx
property float centery
property int viewportx
property int viewporty
property float k1
property float k2
end_header
-0.01613424 0.066688195 0.0057207644
-0.014917474 0.066063106 0.005534023
-0.013833509 0.065975197 0.0057664514
-0.012695921 0.06559559 0.0059171617
-0.011887209 0.067000635 0.0059698522
-0.01076809 0.066762164 0.0059056878
-0.009726542 0.067005076 0.0060718954
-0.0086559029 0.067083247 0.0063333511
-0.0075679356 0.067030288 0.0064000487
-0.006483444 0.066995591 0.006267339
-0.0053997375 0.066956751 0.0063382089
-0.0042900234 0.066495359 0.0063886046
-0.0032797686 0.067781888 0.0063886046
-0.0021629259 0.067050703 0.0061296821
-0.0010768933 0.066767387 0.0058690608
-0.017588476 0.065180823 0.0068878233
-0.016594041 0.065339036 0.012631267
-0.015493375 0.065072179 0.012772053
-0.014344616 0.064550772 0.013249874
-0.013409534 0.064984664 0.014110744
-0.012496015 0.065604083 0.013927102
-0.011292554 0.06467554 0.013976604
-0.010261195 0.064645529 0.01400277
-0.0093808565 0.065666005 0.014082372
-0.0082826046 0.065225512 0.014359564
-0.0072783851 0.065505467 0.014426261
-0.0061850203 0.064942718 0.014586627
-0.005137492 0.064732403 0.014586627
-0.0041168523 0.064840429 0.014637023
-0.0031088465 0.06528578 0.014610559
-0.0020556103 0.064751729 0.014433354
-0.0010280556 0.064767502 0.014235169
0 0.064179525 0.0094198287
0.0010296216 0.064866163 0.0068536699
-0.019706374 0.066379368 0.0051079988
-0.018669132 0.066379137 0.012680739
-0.017585771 0.066205256 0.013549358
-0.016539499 0.066157997 0.013861924
-0.015405256 0.065729097 0.01443398
-0.014471334 0.066154674 0.014391452
-0.013378532 0.065863542 0.014473647
-0.012351799 0.06587626 0.014450401
-0.011290171 0.065688267 0.014450401
-0.010327649 0.066096954 0.014343619
-0.0092943385 0.06609308 0.01425615
-0.0082798814 0.066239052 0.014437735
-0.0072342702 0.066141903 0.01484412
-0.0061829877 0.065951869 0.015022427
-0.0051716273 0.066196829 0.015137345
-0.0041321167 0.066113867 0.01547429
-0.0030863294 0.065841697 0.01549238
-0.0020717937 0.066297397 0.015624672
-0.0010279587 0.065789357 0.015563279
0 0.065527521 0.015284449
0.0010351236 0.06624791 0.014936984
0.002070108 0.066243455 0.0078886449
0.0030922901 0.065968856 0.0057614446
-0.020900078 0.067925259 0.0068475008
-0.019686086 0.067347132 0.013331473
-0.018568736 0.067053773 0.014010459
-0.017686212 0.067623757 0.014202476
-0.016463732 0.066883907 0.014629632
-0.015415452 0.066800296 0.014714926
-0.014334288 0.06655205 0.015138835
-0.013286479 0.066432394 0.014829099
-0.012458848 0.067485422 0.014550984
-0.011377068 0.067228131 0.014573216
-0.010242369 0.066575401 0.014533848
-0.0093204742 0.067314535 0.014415056
-0.0082540046 0.067063786 0.014648467
-0.0071404418 0.066304103 0.015128553
-0.0062311105 0.067503698 0.015277356
-0.0051828362 0.067376867 0.01547429
-0.0041348273 0.067190938 0.016116619
-0.00310552 0.067286268 0.016056448
-0.0020548501 0.066782624 0.015992016
-0.0010322494 0.067096211 0.015891373
0 0.067366339 0.015721351
0.001035379 0.067299634 0.015614569
0.002052804 0.066716127 0.015041471
0.0030963116 0.067086749 0.0094020069
0.004104495 0.066698045 0.005420953
-0.021851618 0.068676509 0.0078208447
-0.020719914 0.068375722 0.013585925
-0.019596044 0.068070464 0.014467388
-0.018695498 0.068550162 0.014855057
-0.017506482 0.067966335 0.014946371
-0.0165726 0.068361968 0.01526165
-0.015413825 0.067820832 0.015123814
-0.014373193 0.067759342 0.01495567
-0.013329654 0.067673624 0.015140235
-0.012497185 0.068734512 0.014515847
-0.011288522 0.067731135 0.014478683
-0.010348352 0.068299122 0.014420629
-0.0093422029 0.068509489 0.014304578
-0.0082858438 0.068358213 0.01458177
-0.0072866566 0.068702757 0.014971286
-0.0062058885 0.068264775 0.015227169
-0.0051943054 0.068564832 0.015310943
-0.004141842 0.068340391 0.016051531
-0.0030900238 0.06798052 0.016106039
-0.0020753283 0.068485834 0.016049027
-0.0010401403 0.068649255 0.016130447
0 0.067343108 0.016085953
0.0010278071 0.067835264 0.016085953
0.0020832696 0.068747893 0.015872717
0.0031098768 0.068417288 0.015058309
0.0041221101 0.068014815 0.013084203
0.005335676 0.07043092 0.0058245361
-0.023026597 0.070126459 0.007846415
-0.021731818 0.06933485 0.013242483
-0.020765614 0.069564804 0.014419049
-0.019828968 0.0699232 0.015114903
-0.018662 0.069464117 0.015337616
-0.017433019 0.068706602 0.015214801
-0.016558217 0.069337532 0.015214801
-0.015364331 0.06862735 0.01488632
-0.01447425 0.069269627 0.01483044
-0.013382873 0.068973273 0.014989734
-0.012371671 0.069075167 0.01440689
-0.011300492 0.068830274 0.014299899
-0.010388057 0.069599986 0.014343619
-0.0092929741 0.069181032 0.014218986
-0.0083142407 0.06963177 0.014304578
-0.0072395159 0.069292508 0.01484412
-0.0061896699 0.069117986 0.015112609
-0.005188297 0.069523185 0.015280157
-0.0041408893 0.069359899 0.015839279
-0.0031109645 0.069478214 0.016011119
-0.0020765339 0.069563881 0.016006321
-0.0010353297 0.069367088 0.016094118
0 0.069129571 0.016103238
0.0010334052 0.069238149 0.016119331
0.0020488705 0.06863717 0.016085953
0.003059909 0.068337969 0.015761405
0.0041012 0.068695106 0.015241861
0.0051083202 0.068451494 0.010579884
0.0066388501 0.074133828 0.0057183802
-0.024575025 0.072656594 0.0057058334
-0.022749109 0.070315436 0.012888789
-0.021639725 0.070071489 0.01429376
-0.020854384 0.070904903 0.014996618
-0.01965314 0.070337549 0.01545313
-0.018610042 0.070304602 0.015440583
-0.017675014 0.070700057 0.015331745
-0.016591802 0.070515163 0.01501599
-0.015503112 0.070280775 0.014867842
-0.014385896 0.069874354 0.014808089
-0.013381296 0.069994472 0.014857501
-0.012368044 0.070085585 0.014337063
-0.011476315 0.070944495 0.014247239
-0.01021974 0.069494233 0.014297813
-0.0093102595 0.070344187 0.014218986
-0.0082747722 0.070335567 0.01427862
-0.0072184559 0.070122145 0.01480794
-0.0062419483 0.070742086 0.01511088
-0.0051452955 0.069976024 0.015077502
-0.0041278903 0.070174143 0.015760899
-0.0030894915 0.070028476 0.015982062
-0.0020744801 0.070532322 0.016155839
-0.0010282926 0.069923893 0.016103238
0 0.070843838 0.016060978
0.0010303966 0.070066966 0.016120672
0.0020746002 0.070536405 0.016149312
0.0031064427 0.070412703 0.016192466
0.0041002398 0.069704071 0.015641987
0.0051627271 0.070213094 0.015269965
0.0062087695 0.070366062 0.0093515515
-0.023887347 0.071662039 0.011710852
-0.022697438 0.071187422 0.013611346
-0.021856319 0.071813621 0.014383584
-0.020646483 0.071230367 0.015114129
-0.019689461 0.071503833 0.015330553
-0.018725498 0.071781076 0.01527822
-0.017514586 0.07108862 0.014811754
-0.016622378 0.071684003 0.014367968
-0.015473257 0.071176983 0.014080852
-0.014417753 0.071058922 0.013948768
-0.01353579 0.07184381 0.013559163
-0.012527234 0.072031595 0.013154298
-0.011635406 0.072985731 0.01248613
-0.010481603 0.072323062 0.010745734
-0.0095940214 0.073554166 0.010210037
-0.0084895296 0.073222198 0.010254532
-0.0074631618 0.073565453 0.010647833
-0.0063630017 0.073174521 0.011918128
-0.0053005749 0.073147938 0.01398471
-0.0041860188 0.072208822 0.014598429
-0.0030983011 0.071260929 0.015148789
-0.0020677287 0.071336642 0.015593201
-0.0010313501 0.071163163 0.01565966
0 0.070976801 0.015747696
0.0010305089 0.071105115 0.016094118
0.0020725357 0.071502484 0.01612258
0.0030970394 0.071231902 0.016006321
0.004153573 0.071649134 0.015682876
0.005122127 0.070685357 0.015458882
0.0061315675 0.070513025 0.013950318
0.0075712446 0.074630842 0.0062638819
-0.025372392 0.07400281 0.0078796148
-0.023755938 0.07230068 0.012751251
-0.022773661 0.07246165 0.013829499
-0.021724947 0.072416484 0.014487833
-0.020758979 0.072656423 0.015049756
-0.019695999 0.072564207 0.015106857
-0.018536167 0.072085097 0.014915466
-0.017469469 0.071933106 0.014348596
-0.016679721 0.07297378 0.013505846
-0.01559819 0.072791554 0.012688369
-0.014862127 0.074310631 0.011940211
-0.013665102 0.073581316 0.010505497
-0.012596164 0.073477626 0.0077167153
-0.011626542 0.073987082 0.0067615807
-0.010578661 0.074050635 0.0059800744
-0.0094970241 0.073865749 0.0058380067
-0.0085195806 0.07454633 0.0059861839
-0.0074070492 0.074070491 0.0063537955
-0.006384823 0.074489601 0.0066348314
-0.0053283703 0.074597187 0.0076483786
-0.004228699 0.074002229 0.0091274977
-0.0031825823 0.07426025 0.013890445
-0.0021090207 0.073815718 0.014462143
-0.0010347593 0.072433151 0.015007794
0 0.071865775 0.015473872
0.0010314559 0.072201908 0.015723139
0.0020510007 0.071785025 0.015739352
0.0031279868 0.072986357 0.015846103
0.0041592694 0.072787218 0.015662998
0.0051181661 0.071654327 0.015494674
0.0061974474 0.072303548 0.014843464
0.007247726 0.072477259 0.013135821
0.0088284835 0.077249229 0.005689472
-0.024882609 0.073611051 0.011259675
-0.023835432 0.073578939 0.013726562
-0.022744175 0.073401652 0.014441997
-0.021762274 0.07357721 0.014586896
-0.020652989 0.073318109 0.015146345
-0.019649999 0.073428944 0.015136123
-0.018576846 0.073275335 0.014963597
-0.017751625 0.074139133 0.013755888
-0.016737875 0.074274316 0.012608618
-0.015901117 0.075265281 0.010462999
-0.014806223 0.075088702 0.0077061951
-0.013835568 0.075563483 0.0066231489
-0.01282483 0.075880237 0.005776912
-0.011774736 0.076000571 0.0053413212
-0.0064368434 0.076169312 0.0053775907
-0.0053612133 0.076129228 0.0059964359
-0.0042420211 0.075295873 0.0064187646
-0.0031734784 0.075105652 0.0086330771
-0.0021278115 0.075537309 0.010945916
-0.0010597128 0.075239614 0.013711154
0 0.073837429 0.014780283
0.001029214 0.073074192 0.015365213
0.0020650134 0.073307976 0.015459567
0.0030960324 0.073272765 0.01564008
0.0040693623 0.072231181 0.01561138
0.0051766131 0.073507905 0.015412986
0.0062171314 0.073569387 0.015232652
0.0071937866 0.072965547 0.01423496
0.0084813675 0.075272135 0.0080264509
-0.026187392 0.075419679 0.0096315444
-0.024984017 0.074952051 0.013257176
-0.023785183 0.074457958 0.013992399
-0.022671079 0.074196257 0.014417499
-0.021734001 0.074516572 0.014586896
-0.020690821 0.074486956 0.014826417
-0.019594813 0.074254028 0.014811367
-0.018801915 0.075207658 0.014233679
-0.017912136 0.07586316 0.012669176
-0.016940756 0.076233402 0.010211051
-0.015842067 0.076041915 0.0072593689
-0.015055076 0.077426106 0.0062123239
-0.013846738 0.076689623 0.0052241087
-0.0032039694 0.076895259 0.0058885813
-0.0021000057 0.075600199 0.0077565312
-0.0010455116 0.075276829 0.01003924
0 0.075907893 0.013084203
0.0010490522 0.075531751 0.014724106
0.0020443159 0.073595375 0.015115589
0.0031090942 0.074618258 0.015407264
0.004097125 0.073748246 0.01523298
0.0051842732 0.074653529 0.015267879
0.0061651166 0.073981397 0.015244484
0.0072175539 0.074237697 0.015190542
0.008253539 0.074281849 0.012776822
0.0099008568 0.079206854 0.005941838
-0.027802464 0.078060769 0.005019635
-0.026225343 0.076578006 0.013149709
-0.024895495 0.075723805 0.013815671
-0.02374999 0.075380407 0.014402151
-0.022804799 0.075670473 0.01459077
-0.021666626 0.075317323 0.014586896
-0.020814773 0.075973928 0.014586896
-0.019860609 0.076306552 0.014394969
-0.018971663 0.076940641 0.013404131
-0.017796295 0.076419391 0.010596067
-0.016951557 0.077341482 0.00737679
-0.015877388 0.077269956 0.0062624514
-0.0021354349 0.077943385 0.0055890977
-0.0010613089 0.077475548 0.0074671805
0 0.07599134 0.0099105835
0.0010562101 0.077103347 0.012846798
0.0020774903 0.075828403 0.014238238
0.0030827175 0.075012796 0.014929622
0.0041466723 0.075676776 0.015021324
0.0051541086 0.075249992 0.015058994
0.0061660116 0.075019814 0.015072882
0.0072412584 0.075515985 0.015232652
0.0082599958 0.075372465 0.014648944
0.0093270987 0.075653143 0.011517882
-0.027097857 0.077124678 0.011569977
-0.026068611 0.077163093 0.01386404
-0.024841376 0.076594248 0.01434797
-0.023868894 0.076795571 0.015038013
-0.022694591 0.076336354 0.015038013
-0.021497328 0.075752497 0.014451265
-0.020848665 0.077140063 0.014262646
-0.020053225 0.078102037 0.013575226
-0.018988051 0.07806199 0.011027068
-0.018041985 0.078535698 0.007705003
-0.01692966 0.078299679 0.0062448084
-0.0010671929 0.07897228 0.0054736435
0 0.078067377 0.0079258978
0.0010419505 0.077104345 0.010926396
0.002102229 0.077782474 0.012891024
0.0031158833 0.076858461 0.014475197
0.0041179704 0.076182455 0.014913559
0.0052180681 0.077227414 0.015021324
0.0062445677 0.077016339 0.015190393
0.0071738367 0.075837709 0.015244484
0.0082237162 0.076069377 0.01524806
0.0092873517 0.076362677 0.01398015
0.010782024 0.079786986 0.0063591301
-0.028730081 0.079805784 0.0055125654
-0.027020404 0.077943474 0.013752103
-0.025666609 0.076999828 0.014473408
-0.024939364 0.077935509 0.01504007
-0.023811398 0.077645861 0.015225708
-0.02275024 0.077557638 0.01504007
-0.021710152 0.077536255 0.01426059
-0.02098297 0.07868614 0.013575226
-0.019925926 0.078654975 0.011895508
-0.019199377 0.079997413 0.0081331432
-0.018271063 0.08060763 0.0063934028
-0.01700254 0.079699405 0.0050966442
0 0.080187991 0.0054119229
0.0010537676 0.079032578 0.0090420842
0.002077311 0.077899173 0.012052596
0.0031520573 0.078801431 0.01358363
0.0041245078 0.077334523 0.014905751
0.005185158 0.077777378 0.01518032
0.006119153 0.076489411 0.015390664
0.0072595347 0.077780731 0.015390664
0.0082876068 0.077696316 0.015531093
0.0092815571 0.07734631 0.015263706
0.010248742 0.076865569 0.012839198
-0.028006954 0.078834385 0.011102617
-0.02708431 0.079169527 0.014396518
-0.02591655 0.078786314 0.014667541
-0.024920866 0.07891608 0.014817387
-0.023840478 0.078777231 0.014958501
-0.022803072 0.078774251 0.01467672
-0.021768127 0.078779891 0.013975948
-0.021028478 0.079908222 0.012620986
-0.020132888 0.080531552 0.010612041
-0.019142173 0.080822513 0.0070139766
-0.01807859 0.080821931 0.0056478083
0.0010616143 0.080682687 0.0072107017
0.0020984095 0.079739556 0.01066345
0.0031344478 0.079406016 0.013069451
0.0041901977 0.079613753 0.014613718
0.0051046275 0.077590339 0.014954865
0.0061896802 0.078402616 0.015442967
0.0072138831 0.078322165 0.01551792
0.0082431063 0.078309514 0.015818
0.009282182 0.078382872 0.015580148
0.010354266 0.078692421 0.015009046
0.011516103 0.079565801 0.007476598
-0.029474376 0.081054531 0.0050886869
-0.028006999 0.079871811 0.012939602
-0.026778236 0.079304777 0.014458358
-0.025912112 0.079809308 0.014726907
-0.024770264 0.079471268 0.014770836
-0.023840517 0.079813905 0.014799356
-0.022699196 0.079447187 0.014634222
-0.021879923 0.080226384 0.013807863
-0.021132434 0.081359871 0.012474805
-0.020182719 0.081793122 0.0082034171
-0.019245341 0.082327299 0.0063061416
0.0010666333 0.08213076 0.007053256
0.0021126501 0.081337027 0.0095711648
0.0031565332 0.081017688 0.012290835
0.0042021559 0.080891505 0.014220983
0.0051705278 0.079626136 0.015026122
0.0061936514 0.079485193 0.01551792
0.0072176815 0.079394497 0.01590237
0.0082991719 0.079879522 0.01595813
0.0092186406 0.078870595 0.01576373
0.010347699 0.079677284 0.01524806
0.011354095 0.079478666 0.013942868
-0.028972516 0.080709152 0.010491341
-0.028184244 0.081421144 0.013248265
-0.026745601 0.0802368 0.014561653
-0.025747739 0.080332942 0.014791489
-0.024793155 0.080577753 0.014770836
-0.023752464 0.080551833 0.014799356
-0.022620266 0.080199122 0.014607728
-0.021901116 0.081346996 0.013696551
-0.020964785 0.081762657 0.01218617
-0.020256238 0.083157182 0.0070379972
-0.019220233 0.083287679 0.0058503449
0.0021259077 0.082910404 0.0092373788
0.0031229223 0.08119598 0.012355238
0.0041724266 0.081362315 0.014074236
0.0052183839 0.081406794 0.014772475
0.0061369035 0.079779744 0.015401393
0.0072034225 0.080266707 0.015785843
0.0082550887 0.08048711 0.015870959
0.0091998009 0.079731606 0.015523911
0.010388942 0.081033751 0.015279561
0.011257325 0.079824671 0.014931023
0.01238755 0.080519073 0.0056390762
-0.029084222 0.082059056 0.011057079
-0.028048508 0.082067847 0.0141626
-0.026812179 0.08146777 0.014683992
-0.025787868 0.081489652 0.014853835
-0.024672562 0.081213854 0.014814645
-0.023594297 0.081041276 0.01493755
-0.02283827 0.082010157 0.014696062
-0.021785418 0.081954665 0.014093071
-0.020891573 0.082521714 0.01259771
-0.020189924 0.083947577 0.0070299506
-0.019171372 0.084141023 0.0052607954
0.0021330391 0.084255047 0.0088120997
0.0031271898 0.08234933 0.011762172
0.0041785911 0.082527176 0.013333529
0.0052332659 0.082685605 0.014679939
0.0061921445 0.0815299 0.015401393
0.0072104884 0.081375517 0.015886396
0.0082741585 0.081707306 0.015949249
0.0092390552 0.081098378 0.015779704
0.010319452 0.081523672 0.01524213
0.011313844 0.081253976 0.014837503
0.01236233 0.081385337 0.009205997
-0.028884992 0.082528546 0.011049211
-0.027956234 0.082833283 0.014423847
-0.026813382 0.082502715 0.014827847
-0.025878536 0.082811311 0.014984995
-0.024682298 0.082274333 0.015062958
-0.023806861 0.082806468 0.015091479
-0.02276434 0.082779422 0.014808953
-0.021845255 0.083220012 0.014593512
-0.021194546 0.084778182 0.013265073
-0.020248383 0.085256346 0.0064560175
-0.019181581 0.085251473 0.0051801801
0.0021549794 0.086199179 0.0087012053
0.003100225 0.08267267 0.011529058
0.0041347421 0.082694843 0.013568759
0.0052197049 0.083515279 0.015194118
0.006191697 0.082555957 0.015574723
0.0071760761 0.082012296 0.015864134
0.0082582496 0.082582496 0.015930831
0.0091394177 0.081239268 0.015765846
0.010267899 0.082143195 0.015553802
0.011418238 0.083041735 0.015096217
0.012458269 0.083055124 0.011287421
-0.028934533 0.083703466 0.010955632
-0.02805548 0.08416643 0.014011919
-0.026743095 0.083315022 0.014689595
-0.025634928 0.083057158 0.014881104
-0.024739139 0.083494589 0.014946848
-0.023799507 0.083815649 0.015202492
-0.022880716 0.084242634 0.014818162
-0.021741973 0.083861895 0.014291227
-0.02081066 0.084283173 0.013498068
-0.020152412 0.085912913 0.0065299273
-0.019229285 0.086531781 0.0050522387
0.0021319452 0.08634378 0.0094729662
0.0030652005 0.082760416 0.01189959
0.0041265287 0.083562203 0.013964564
0.0051956694 0.084169842 0.015372515
0.0061195069 0.082613342 0.015691638
0.0072207097 0.083553918 0.015849411
0.0082322704 0.083351731 0.015880823
0.0092877178 0.083589464 0.015795738
0.010356139 0.083884731 0.015688539
0.011396951 0.083923005 0.014741093
0.012457269 0.084086567 0.011182398
-0.029234152 0.085614309 0.01075229
-0.027829397 0.084518909 0.01339519
-0.02677037 0.084429629 0.014536053
-0.026048733 0.085439846 0.014949769
-0.024758568 0.084591776 0.015106469
-0.023816712 0.084911756 0.015130132
-0.022713406 0.084659062 0.015030146
-0.021817811 0.085193358 0.014582783
-0.020823179 0.085375033 0.013714164
-0.020404467 0.088061385 0.0076028705
-0.019205937 0.087493718 0.0059959888
0.0021104743 0.086529449 0.0099724531
0.003102229 0.084794261 0.012680084
0.0041897367 0.085889608 0.014403135
0.0052029844 0.085328951 0.015625507
0.0061935633 0.084645368 0.015930831
0.0072221975 0.084602885 0.015996486
0.0081895469 0.08394286 0.015930831
0.0092632929 0.084398896 0.015765846
0.010310473 0.084545881 0.015112996
0.011323072 0.084408358 0.014707476
0.012514952 0.085518837 0.0091514885
-0.029336508 0.086961791 0.010129362
-0.028167956 0.086590379 0.012719899
-0.026885767 0.085827641 0.014471292
-0.025982268 0.086261131 0.014923185
-0.024746366 0.085581191 0.014990956
-0.023855699 0.086087964 0.015180498
-0.022815002 0.086074784 0.015067637
-0.021813311 0.08621452 0.014807314
-0.020829605 0.086442865 0.014038354
-0.020342276 0.088863626 0.01160273
-0.019135261 0.088234827 0.006370008
0.0010745466 0.089187369 0.0063589513
0.0020904453 0.08675348 0.011500299
0.0031148444 0.086177364 0.013506234
0.0041695167 0.086517476 0.014991134
0.0051848902 0.086069182 0.015625507
0.006181905 0.085516356 0.015886396
0.0071927197 0.085285105 0.015987575
0.008270978 0.085811406 0.01581037
0.0092538791 0.085341334 0.015580386
0.010255243 0.085118517 0.014549732
0.011475039 0.086584382 0.013924837
-0.029215224 0.087645672 0.0077061355
-0.028340427 0.088170215 0.012575328
-0.026794961 0.086568333 0.014463097
-0.025728099 0.086446412 0.014762819
-0.024718309 0.086514086 0.015032351
-0.023735553 0.086686365 0.015180498
-0.022854757 0.087263614 0.015143216
-0.021555889 0.086223558 0.015064597
-0.020922923 0.087876283 0.01438567
-0.019802079 0.087546028 0.013175339
-0.019385401 0.09046521 0.0078033507
-0.018085334 0.08936283 0.0057648718
0.001074785 0.090281941 0.0099434257
0.002100022 0.088200927 0.012630701
0.0031111392 0.087111898 0.014419913
0.0041600326 0.087360688 0.015609205
0.0052282438 0.0878345 0.015942067
0.0061351382 0.08589194 0.015977204
0.0072346493 0.086815797 0.015987575
0.0082630264 0.086761773 0.015625983
0.009263753 0.0864617 0.01539138
0.010287104 0.086411677 0.014583677
0.01147193 0.08760383 0.012660921
-0.028377585 0.089336842 0.010634929
-0.026852664 0.087787554 0.013904035
-0.025810394 0.087755345 0.014483929
-0.024774453 0.087742858 0.014927477
-0.023709897 0.087623537 0.015185863
-0.022763312 0.087949164 0.015230358
-0.021770177 0.088117391 0.015206695
-0.020813484 0.088457309 0.014674217
-0.019700399 0.088133357 0.01362586
-0.019384202 0.091536514 0.011133611
-0.01820183 0.091009155 0.0066929758
-0.017032698 0.090486206 0.0057264566
0 0.092715137 0.0074777305
0.0010490722 0.089171141 0.011559516
0.0020697354 0.08796376 0.014103055
0.0031208391 0.088423774 0.015049189
0.0041953847 0.089151926 0.015982151
0.0051614898 0.087745331 0.015972912
0.0061903638 0.08769682 0.015970081
0.0072067822 0.087510929 0.015786558
0.0082798423 0.087973326 0.015455902
0.0092977127 0.087811731 0.014627784
0.01035346 0.08800441 0.013519645
0.011447117 0.088454992 0.0097232461
-0.02817524 0.089743353 0.0072988272
-0.027122067 0.08971145 0.01274851
-0.025745193 0.088563465 0.014076412
-0.024744697 0.088668503 0.014512479
-0.023951078 0.089556202 0.014923185
-0.0226404 0.088503383 0.015242964
-0.021792844 0.089246877 0.01533404
-0.020673074 0.088894218 0.014970064
-0.019800104 0.089621522 0.014205933
-0.018850109 0.090061635 0.013028204
-0.018412272 0.093144432 0.0089781284
-0.017066898 0.091734573 0.006637603
-0.015995441 0.091707192 0.0053173602
-0.0010914577 0.093865365 0.0071662366
0 0.091507338 0.010925651
0.0010449594 0.089866512 0.013409942
0.0020772624 0.089322284 0.014724731
0.0031090511 0.089126132 0.015448332
0.0041455529 0.089129388 0.015977204
0.0051567666 0.08869639 0.015909672
0.0062279729 0.089267612 0.015891284
0.0071951733 0.088397846 0.015529692
0.0083042225 0.089270391 0.014981657
0.0091996333 0.087907612 0.014410079
0.010345194 0.088968664 0.012328058
-0.027117396 0.090738975 0.010264218
-0.025844945 0.089940406 0.013691306
-0.024799058 0.08989659 0.014512092
-0.023626791 0.089370906 0.01488623
-0.022747856 0.089957431 0.015460104
-0.021682901 0.089829162 0.015389174
-0.020613626 0.089669272 0.015533149
-0.019513976 0.089353465 0.015396625
-0.018713964 0.090450831 0.013644397
-0.017933199 0.091775775 0.012422651
-0.016919972 0.092002347 0.0076752603
-0.016097941 0.093368053 0.0065793693
-0.0022033374 0.095845178 0.0074953735
-0.0010677762 0.092896529 0.010748267
0 0.088703208 0.012767881
0.0010330993 0.089879632 0.014567584
0.002064035 0.089785524 0.015044749
0.0030591853 0.088716373 0.015671015
0.0041360254 0.089958549 0.016026586
0.0051567852 0.089728065 0.016005963
0.0061296737 0.088880271 0.015963763
0.007189374 0.089353651 0.01549384
0.0082098655 0.089282282 0.014770776
0.0093562547 0.090443805 0.012723863
0.010573349 0.091988139 0.0094593465
-0.027409259 0.092769802 0.0053358078
-0.025916215 0.091225073 0.012867391
-0.024691997 0.090537317 0.013787448
-0.023682879 0.090612754 0.014556974
-0.022716397 0.09086559 0.015460104
-0.021555468 0.090327673 0.015805453
-0.020693304 0.091050535 0.015766174
-0.019363664 0.08968433 0.015608281
-0.018782394 0.091825038 0.015127867
-0.017491944 0.090546533 0.014018297
-0.017101577 0.09405867 0.011987329
-0.015882455 0.093177065 0.0081736445
-0.015134034 0.095128208 0.0068868399
-0.014016245 0.094879195 0.0060833693
-0.012683312 0.093010962 0.0055622756
-0.003257141 0.095542796 0.0076085329
-0.0021263203 0.093558088 0.011636525
-0.001029404 0.090587549 0.013472795
0 0.092102326 0.014604986
0.0010423266 0.091724738 0.015252739
0.0020472368 0.090078413 0.015953004
0.0031095764 0.09121424 0.016361654
0.0041045696 0.090300523 0.016385525
0.0051100301 0.089936532 0.016045392
0.0062118638 0.091107339 0.015781611
0.0072035468 0.090558872 0.015077949
0.0081817675 0.089999437 0.01437822
0.0094204983 0.092111535 0.011416018
-0.026395703 0.093968697 0.0085549653
-0.02476744 0.091845915 0.013161987
-0.02383445 0.092228957 0.0142048
-0.022748912 0.092029691 0.015501678
-0.021663969 0.091813959 0.016223818
-0.020479105 0.091132022 0.016472101
-0.019820029 0.092841178 0.016472101
-0.018364714 0.09080331 0.01619339
-0.017754691 0.09295103 0.015173078
-0.01634367 0.090911657 0.014644355
-0.015731338 0.093339272 0.012442261
-0.014768795 0.093887337 0.0099982619
-0.013701062 0.093799576 0.0076815486
-0.012856543 0.095352694 0.0068719387
-0.011741467 0.094999135 0.0065513551
-0.010856209 0.096620262 0.0061158538
-0.0097732823 0.096646905 0.0064315796
-0.0087030372 0.096821286 0.0063881576
-0.0075267651 0.09569744 0.0061141253
-0.0065071103 0.096522138 0.0064315796
-0.0053986656 0.096096247 0.0067373812
-0.0042192978 0.093879372 0.0094873309
-0.0031947154 0.094776548 0.011704654
-0.0020565139 0.091514863 0.014037728
-0.0010323134 0.091875896 0.015028536
0 0.093015082 0.015467316
0.001026421 0.091351464 0.016332924
0.0020680609 0.0920287 0.016630113
0.0031195432 0.092546448 0.016491503
0.0040840744 0.090870656 0.016436428
0.0051284647 0.091286667 0.016216666
0.006179309 0.091659755 0.015668333
0.0071918354 0.091439046 0.015120238
0.0082621966 0.091916934 0.013635457
0.009536569 0.094306074 0.0053420365
-0.025364313 0.095116176 0.011291385
-0.023727536 0.092846885 0.0134691
-0.02250029 0.092046641 0.015313327
-0.021797184 0.093416505 0.016271234
-0.020527644 0.092374407 0.016472101
-0.019509165 0.092411831 0.016634971
-0.018874858 0.094374299 0.016362786
-0.017343098 0.09181641 0.016143978
-0.016529001 0.092975631 0.015268177
-0.015903102 0.095418617 0.01512152
-0.01420243 0.091301344 0.013895243
-0.013580146 0.094016403 0.010937482
-0.012624932 0.094687 0.0089136958
-0.011628592 0.095143035 0.0076824129
-0.010495391 0.09445852 0.0075932443
-0.0095304213 0.095304228 0.007683605
-0.0083496301 0.093933336 0.007730186
-0.0073903557 0.095018864 0.0077958107
-0.0063947937 0.095921911 0.0095233917
-0.0052771205 0.094988182 0.011680245
-0.0041263951 0.09284389 0.012803942
-0.0031089589 0.093268774 0.015194088
-0.0020715992 0.093221977 0.015438139
-0.001040449 0.093640409 0.015945673
0 0.092553839 0.016397119
0.0010277185 0.092494667 0.01671657
0.0020751688 0.093382597 0.0168643
0.0030700546 0.092101641 0.01676479
0.0040923692 0.092078313 0.016436607
0.0051355488 0.092439882 0.016022682
0.0061392589 0.092088893 0.015623301
0.0071930024 0.092481464 0.014641792
0.0083843647 0.094324104 0.010420501
-0.025444733 0.096477956 0.0075584054
-0.023937363 0.094708703 0.012702882
-0.02273378 0.094035186 0.013894498
-0.02172065 0.09412282 0.015824199
-0.020549882 0.09350197 0.016541719
-0.019640878 0.094069466 0.016682088
-0.018487301 0.093463577 0.01655516
-0.017589288 0.094154432 0.016487449
-0.0163224 0.092833661 0.016215503
-0.01527514 0.092669189 0.016151071
-0.01477214 0.096018918 0.015850455
-0.01363079 0.095415533 0.015275896
-0.012172414 0.092307478 0.014908046
-0.01118496 0.092530124 0.013687253
-0.010324508 0.093953028 0.011865407
-0.0092679728 0.093709514 0.011865407
-0.0082799885 0.094184875 0.011935383
-0.0072116056 0.093750879 0.014045298
-0.0061477283 0.093240552 0.01512453
-0.0052213701 0.095028944 0.015368581
-0.0041978979 0.095502175 0.015689015
-0.0031153129 0.09449783 0.016132116
-0.0020641827 0.09392032 0.016448766
-0.0010297818 0.093710139 0.016726971
0 0.094841227 0.016800255
0.0010370354 0.094370224 0.016933084
0.0020496754 0.093260236 0.017012686
0.003093374 0.093832351 0.016924202
0.0040766126 0.092742935 0.01647535
0.0050968183 0.092762098 0.016040236
0.0061787609 0.093711212 0.015120238
0.0072636227 0.094427101 0.013862312
-0.024271013 0.097084053 0.0081737936
-0.022738434 0.095088005 0.012910396
-0.021651551 0.094854414 0.015340328
-0.020742921 0.09541744 0.016417325
-0.0196776 0.095281012 0.016686022
-0.018461246 0.094357491 0.016645163
-0.017497992 0.094695017 0.016644597
-0.01636105 0.094076045 0.016584188
-0.015552788 0.095390432 0.016584188
-0.014217027 0.093426183 0.016339004
-0.013163976 0.09316045 0.01619941
-0.012478007 0.095664725 0.016051322
-0.011624527 0.097223319 0.015948653
-0.010629599 0.097792313 0.015409648
-0.0095725246 0.097852483 0.015718788
-0.0084651373 0.097349077 0.0156551
-0.00732747 0.096303895 0.015846133
-0.0062705926 0.096149094 0.016362578
-0.0051781284 0.09527757 0.016672045
-0.0040877084 0.09401729 0.01680848
-0.0030767194 0.09435273 0.016838014
-0.0020591391 0.094720401 0.016838014
-0.0010359371 0.095306218 0.016945571
0 0.095229968 0.016840726
0.001025538 0.094349489 0.016680777
0.0020369149 0.093698084 0.016698033
0.0030990026 0.095036082 0.016739368
0.0041022073 0.09435077 0.016388983
0.0050991001 0.093823448 0.015532762
0.0061803963 0.09476608 0.014525205
0.0073511773 0.096615471 0.0067183971
-0.023036525 0.097381681 0.0086025
-0.021683298 0.096026033 0.012955934
-0.020572586 0.095662527 0.01541993
-0.019611593 0.095993586 0.016353577
-0.018583573 0.096015133 0.016578048
-0.017395599 0.095164157 0.016583502
-0.016433749 0.095521167 0.016641706
-0.015506875 0.096142627 0.016898423
-0.014421973 0.095803112 0.016845584
-0.013382871 0.095739 0.016845584
-0.012451932 0.096502475 0.01687777
-0.011303373 0.095564887 0.016853571
-0.010278215 0.095587395 0.016094744
-0.0092599988 0.095686659 0.016735733
-0.0081958966 0.095277295 0.016369939
-0.0071401368 0.09486182 0.016708106
-0.0061891209 0.095931381 0.01675567
-0.0051951827 0.096630402 0.016815841
-0.0041370154 0.09618561 0.016898423
-0.0030892848 0.095767826 0.016890854
-0.0020526643 0.095448896 0.016885132
-0.0010233123 0.095168054 0.016961157
0 0.095068909 0.016933978
0.0010265789 0.095471837 0.016841412
0.0020644239 0.095995709 0.016524106
0.0030944515 0.095927998 0.016355336
0.0040978189 0.095274292 0.015512526
0.0051028356 0.094912745 0.013686091
0.0061983853 0.096074976 0.010963559
-0.021890422 0.097985692 0.0088306367
-0.02051853 0.096437097 0.013014615
-0.019479077 0.096370175 0.015035212
-0.018564759 0.096949302 0.015872091
-0.017491845 0.096719608 0.016387522
-0.016489193 0.096874014 0.016350061
-0.015280299 0.095756538 0.016641706
-0.014214665 0.095441319 0.016641706
-0.013441795 0.097194523 0.016884387
-0.012264192 0.096069507 0.016764432
-0.011380663 0.097252943 0.016977519
-0.010293294 0.096756965 0.016271025
-0.0091656763 0.095730402 0.016954571
-0.0082212696 0.096599914 0.01658228
-0.0072234268 0.097000301 0.016954571
-0.0061572036 0.096462861 0.016790658
-0.005169454 0.097185738 0.01692453
-0.0041328245 0.097121373 0.017097473
-0.0030471515 0.095477417 0.017028183
-0.0020575819 0.096706353 0.01683718
-0.0010251199 0.096361272 0.01683259
0 0.096863739 0.016726971
0.0010248824 0.09633895 0.016735852
0.0020426237 0.096003316 0.01616028
0.0031062711 0.097329833 0.015581846
0.0041024345 0.096407205 0.014641792
0.0051650018 0.097102039 0.011692286
-0.02081521 0.098872259 0.008032769
-0.019557161 0.097785801 0.013176918
-0.018518124 0.097734541 0.014842182
-0.017569745 0.09818387 0.01544401
-0.016297875 0.096768633 0.015788555
-0.015547445 0.098467149 0.016166419
-0.014553695 0.098757215 0.016252607
-0.01335643 0.097604677 0.016339004
-0.012251645 0.096992195 0.016458064
-0.011307112 0.097652331 0.016664684
-0.010106652 0.096013196 0.016094744
-0.0093142875 0.098317482 0.016735733
-0.008240873 0.097860366 0.016369939
-0.0071870019 0.097537883 0.016641796
-0.0061381012 0.097186603 0.016618639
-0.0051541058 0.09792801 0.016672045
-0.0040975302 0.097316332 0.016770601
-0.0030947456 0.098000273 0.016763031
-0.0020500242 0.097376153 0.016618639
-0.0010274536 0.097608082 0.016354352
0 0.098014168 0.015897781
0.0010276315 0.097624987 0.016035616
0.0020685336 0.098255344 0.015086532
0.0030870929 0.097757943 0.0143269
0.0041618356 0.098843589 0.012099177
-0.019799346 0.1000388 0.0081146061
-0.018526882 0.098810039 0.012557685
-0.017490353 0.098769054 0.01407972
-0.016465008 0.09879005 0.015073091
-0.015511126 0.099271208 0.015685797
-0.014392012 0.098688081 0.015973538
-0.013277248 0.098047376 0.01618582
-0.012433205 0.099465638 0.016220182
-0.011264223 0.098305948 0.01622811
-0.010306039 0.098937973 0.016183853
-0.0092311418 0.09846551 0.016308397
-0.0081850048 0.09822005 0.016395569
-0.0071870955 0.098565876 0.016652465
-0.0061890609 0.099024974 0.016433626
-0.0051550502 0.09897697 0.016531438
-0.0041288934 0.099093437 0.016444445
-0.0030689859 0.098207548 0.016444445
-0.0020581163 0.09878958 0.016088694
-0.0010371902 0.099570259 0.015593439
0 0.098380923 0.015219569
0.0010303718 0.098915681 0.01514858
0.0020532545 0.098556213 0.013943017
0.0031282171 0.10010295 0.011103481
-0.018920217 0.10195895 0.0075661242
-0.017747136 0.10126306 0.01095289
-0.016591121 0.10058367 0.013301879
-0.015401925 0.099599108 0.01407972
-0.014420303 0.099912092 0.01523158
-0.013287401 0.099144451 0.015523255
-0.012248427 0.099008121 0.015350014
-0.0112135 0.098882675 0.015508384
-0.010349932 0.10039434 0.015508384
-0.0092024235 0.099181682 0.015974283
-0.0082552312 0.10009467 0.016051292
-0.0072178403 0.10001864 0.016023397
-0.0061435844 0.099321283 0.015741557
-0.0051841107 0.10057174 0.015821368
-0.0041251187 0.10003413 0.015860617
-0.0030976359 0.1001569 0.015790433
-0.0020631065 0.10006066 0.015467316
-0.0010253995 0.099463753 0.015285075
0 0.099998616 0.01458919
0.0010355919 0.10045242 0.012910455
0.0020723506 0.100509 0.0066788793
-0.017996484 0.10374443 0.0055776536
-0.016665867 0.10207843 0.007766217
-0.015617686 0.10203554 0.010765553
-0.014383845 0.10068692 0.013053983
-0.013348256 0.10062531 0.013527274
-0.012299642 0.10044707 0.014230788
-0.011401774 0.10157944 0.015272647
-0.010217282 0.10012937 0.015281439
-0.0093745869 0.10207884 0.015438586
-0.0082860133 0.10150366 0.0156084
-0.0072070588 0.10089882 0.015487701
-0.0062111141 0.1014482 0.01532492
-0.0051450059 0.10084212 0.015135854
-0.0041040326 0.1005488 0.014988631
-0.003100652 0.10128796 0.014830023
-0.0020818191 0.10200914 0.012953043
-0.0010352333 0.10145286 0.01202327
0 0.10216704 0.0077940226
-0.014881525 0.10523365 0.0053668618
-0.01368353 0.10420535 0.0072446465
-0.01257579 0.10375027 0.00774014
-0.011467408 0.10320668 0.0083538592
-0.010527928 0.1042265 0.0083538592
-0.0094841858 0.10432605 0.0084348321
-0.0084388582 0.10443088 0.0084536374
-0.0073640277 0.1041484 0.0084643662
-0.0063204328 0.10428715 0.0082776248
-0.0052683819 0.10431397 0.0077731311
-0.00423352 0.10477962 0.0071668923
-0.0031833733 0.10505132 0.0063541234
0 0 0 1 0 0 0 1 0 0 0 1 0 0 0 0 0 944 1 0 0
