ply
format ascii 1.0
comment PCL generated
element vertex 603
property float x
property float y
property float z
element camera 1
property float view_px
property float view_py
property float view_pz
property float x_axisx
property float x_axisy
property float x_axisz
property float y_axisx
property float y_axisy
property float y_axisz
property float z_axisx
property float z_axisy
property float z_axisz
property float focal
property float scalex
property float scaley
property float centerx
property float centery
property int viewportx
property int viewporty
property float k1
property float k2
end_header
-0.013577375 -0.099978849 0.0042796135
-0.011195552 -0.090683967 0.0049564242
-0.011078906 -0.099710152 0.0052994192
-0.0088512925 -0.089619331 0.0053296387
-0.0079748621 -0.092280544 0.0054664314
-0.0072431611 -0.097782671 0.0052452087
-0.0055939574 -0.090622105 0.0043396652
-0.0046385503 -0.093930632 0.0045906305
-0.0037375116 -0.10091281 0.0051265657
-0.0023589209 -0.095536292 0.0048179626
-0.0011124775 -0.090110675 0.0041593611
-0.015574417 -0.095842563 0.0041155517
-0.014825705 -0.098838039 0.0044305623
-0.011501079 -0.083644219 0.0052535236
-0.01087759 -0.087020718 0.0058204532
-0.0098818475 -0.087838642 0.0062892139
-0.0083754184 -0.083754182 0.006411016
-0.0076711369 -0.087670133 0.0066684783
-0.0063886289 -0.085181721 0.0065937936
-0.005117469 -0.081879504 0.0062353015
-0.0043550036 -0.087100066 0.0061384141
-0.0031197763 -0.083194032 0.0060640275
-0.0021396731 -0.08558692 0.0055710375
-0.0012003706 -0.096029647 0.0049570203
0 -0.091103114 0.0047264397
0.0011939729 -0.095517829 0.0047546029
0.0022164444 -0.088657774 0.0041724145
-0.016313568 -0.085918121 0.0040597022
-0.01784542 -0.10069916 0.0045850277
-0.015046319 -0.091435321 0.0049720407
-0.012238197 -0.080568135 0.0052633584
-0.011788105 -0.084660031 0.0061027408
-0.011059802 -0.087372437 0.0067419708
-0.0090420563 -0.079369165 0.0073571503
-0.0087468848 -0.08637549 0.0078057945
-0.0074060122 -0.083582133 0.0098864734
-0.0061738417 -0.081288911 0.0084140003
-0.0054237787 -0.085695706 0.0078372359
-0.0042058676 -0.08306589 0.0096817613
-0.0031002716 -0.081640482 0.0084261894
-0.0022587792 -0.089221783 0.0075305402
-0.0010668283 -0.084279433 0.0070318878
0 -0.089208685 0.0063284039
0.001217395 -0.096174203 0.0056737959
0.0020842266 -0.082326941 0.0054253936
0.0033732231 -0.088828214 0.0045633316
-0.018608019 -0.096761696 0.0048216283
-0.015669111 -0.087299339 0.0053571761
-0.013198766 -0.079192594 0.0056380033
-0.012940309 -0.084112011 0.0066349804
-0.011626516 -0.082442559 0.0078057945
-0.010087995 -0.078686364 0.010123104
-0.0098551596 -0.085411385 0.011329144
-0.0084724156 -0.082606055 0.011788219
-0.007438831 -0.082889833 0.012838006
-0.0064442516 -0.083775267 0.011788219
-0.0052121007 -0.081308767 0.011794835
-0.0040422031 -0.078822955 0.012730032
-0.0032292102 -0.08395946 0.012610137
-0.0021229153 -0.082793698 0.010527551
-0.001022925 -0.079788156 0.0098925829
0 -0.083821692 0.0082893372
0.0010227455 -0.079774149 0.0065377057
0.0023691286 -0.092396013 0.0061658323
0.0035500485 -0.092301257 0.0047760308
0.0041604573 -0.081128918 0.0040498376
-0.018769441 -0.090327941 0.0047127306
-0.016431196 -0.084346808 0.0054242909
-0.014293255 -0.078612901 0.0064480305
-0.014252106 -0.084416322 0.0068978071
-0.012753149 -0.081832714 0.0075936913
-0.011082835 -0.077579848 0.009768337
-0.011000752 -0.084705792 0.013290018
-0.0095106466 -0.081368864 0.014483213
-0.0081756106 -0.078690253 0.015748143
-0.0076937475 -0.08463122 0.015748143
-0.0063039316 -0.080900453 0.015729427
-0.0053438572 -0.082295403 0.015042752
-0.0043848897 -0.084409125 0.015150726
-0.0030757026 -0.078943036 0.014303207
-0.0020780419 -0.08000461 0.012804478
-0.0011011817 -0.084790997 0.011827797
0 -0.078986667 0.0098925829
0.0010843566 -0.083495453 0.0077934861
0.0021823451 -0.084020287 0.0072180927
0.0031193511 -0.08006335 0.0062960684
0.0045951651 -0.088456929 0.0045828521
0.0053285896 -0.082060277 0.0042369664
0.006455522 -0.082845867 0.0042327642
-0.017702563 -0.084087178 0.0047345459
-0.015062209 -0.076315194 0.005974263
-0.014956121 -0.081190377 0.0069695711
-0.013673352 -0.079936519 0.0076825023
-0.011874511 -0.075205244 0.010002494
-0.012015399 -0.083015487 0.013791323
-0.010910006 -0.082916051 0.01655212
-0.0090983817 -0.076830782 0.019198
-0.0088262185 -0.08384908 0.01996389
-0.0073396629 -0.079687774 0.019876927
-0.0063521215 -0.080460213 0.019678354
-0.0054508462 -0.082852863 0.01918453
-0.0042091259 -0.0799734 0.01911968
-0.0031067729 -0.078704916 0.017664433
-0.0021313562 -0.080991536 0.015150726
-0.0010452006 -0.079435252 0.013083905
0 -0.08346007 0.011842966
0.001074853 -0.081688829 0.0099077523
0.0020734896 -0.078792609 0.0081023872
0.0033479396 -0.084814474 0.0065540373
0.0047149304 -0.08958368 0.0060744584
0.0053879516 -0.081896871 0.0046338439
0.0065785339 -0.083328098 0.0046330094
-0.019377567 -0.085489266 0.0045602322
-0.016465012 -0.077179745 0.0061807334
-0.016260289 -0.081301443 0.0069880188
-0.015297506 -0.081950933 0.0084654689
-0.013393791 -0.077271879 0.010980219
-0.012626098 -0.078913122 0.014331847
-0.011949039 -0.081470728 0.01716873
-0.010141497 -0.076061234 0.019620895
-0.0095603485 -0.07966958 0.021590769
-0.0084285382 -0.07901755 0.022383869
-0.0072930916 -0.078140266 0.023228854
-0.0065542059 -0.081927583 0.023228854
-0.005354451 -0.080316767 0.022383869
-0.00418108 -0.078395255 0.022015184
-0.003287618 -0.082190454 0.021537095
-0.0021537824 -0.080766842 0.019124687
-0.0010401034 -0.078007758 0.016675681
0 -0.08365801 0.01429373
0.00100828 -0.075621001 0.012216151
0.0021825491 -0.081845596 0.01039052
0.0032451879 -0.0811297 0.0074994266
0.0040727295 -0.076363683 0.0059271157
0.0058056987 -0.087085485 0.0048584044
0.0066131721 -0.082664654 0.0045434833
0.0074092806 -0.079385154 0.0040263236
-0.020828526 -0.08562839 0.0043815672
-0.018494153 -0.08050397 0.0054270625
-0.01728913 -0.079962231 0.0069412589
-0.016038412 -0.079122834 0.0079014599
-0.014254898 -0.075347319 0.010867476
-0.014248208 -0.081105188 0.013243526
-0.013066164 -0.080574684 0.017175794
-0.011074908 -0.074503936 0.019330859
-0.010894112 -0.080616437 0.021446347
-0.0098284613 -0.080811806 0.023051411
-0.0083460072 -0.077200569 0.024208307
-0.0074709454 -0.078978568 0.024499536
-0.0063330564 -0.0781077 0.024464011
-0.0052006813 -0.076970093 0.024169296
-0.0043808143 -0.081045069 0.024008989
-0.0032667941 -0.080580927 0.02317211
-0.0020941948 -0.077485211 0.022337347
-0.0010938742 -0.080946699 0.020279825
0 -0.076634258 0.01610896
0.0010711502 -0.079265118 0.012994945
0.0021614672 -0.079974286 0.011520803
0.0030770313 -0.075900115 0.0095944703
0.004458996 -0.082491428 0.0071303546
0.0054821637 -0.081136033 0.0061304569
0.0065844934 -0.081208758 0.0052335858
-0.021691268 -0.083340138 0.0042243302
-0.019408526 -0.078712359 0.0048961043
-0.018278213 -0.078488797 0.0065948367
-0.017399417 -0.079384848 0.0076571405
-0.015094219 -0.073458537 0.0096636415
-0.015021624 -0.078327045 0.011838228
-0.013687129 -0.076858498 0.016882807
-0.012417937 -0.07554245 0.018824518
-0.011899041 -0.078966372 0.020831019
-0.010811401 -0.078923233 0.023008049
-0.0092472192 -0.075005226 0.024352729
-0.0082676727 -0.075442515 0.025229156
-0.0072064125 -0.075152591 0.025493383
-0.0061606136 -0.074954137 0.025532693
-0.0051745018 -0.075547732 0.025247723
-0.0040502218 -0.073916547 0.024812877
-0.0031259055 -0.076063707 0.024023801
-0.0021938595 -0.080075875 0.023344517
-0.0010499717 -0.076647937 0.022015184
0 -0.07838659 0.018072516
0.0010707264 -0.078163035 0.01521945
0.0020687326 -0.075508744 0.012375563
0.0033006365 -0.080315493 0.010638922
0.0043282979 -0.078991443 0.0095447898
0.0053025596 -0.077417381 0.0079317689
0.0066687502 -0.081136465 0.0067309439
0.0079495143 -0.082902081 0.0047424138
-0.021551562 -0.081669077 0.0050106049
-0.018801915 -0.075207658 0.0062413514
-0.018655205 -0.079010278 0.0071220994
-0.017209398 -0.077442288 0.0090812147
-0.016391695 -0.078680128 0.010665327
-0.015285143 -0.078609303 0.012784213
-0.013426456 -0.074361905 0.01716873
-0.013025151 -0.078150898 0.020959616
-0.01195243 -0.078234084 0.022868276
-0.010011635 -0.072083764 0.025225371
-0.0092350766 -0.073880613 0.025990307
-0.0080956193 -0.072860576 0.026073873
-0.0071243104 -0.073278621 0.027606785
-0.0062360419 -0.074832499 0.027052194
-0.0051092645 -0.073573411 0.026317388
-0.0040997653 -0.073795766 0.025607795
-0.0030493247 -0.07318379 0.025224894
-0.0020890839 -0.075207017 0.024023801
-0.0010601543 -0.076331101 0.023026615
0 -0.077532515 0.019961923
0.0010171264 -0.073233098 0.016006082
0.0021733386 -0.078240179 0.013939828
0.0032738205 -0.078571685 0.011862248
0.0040591997 -0.073065586 0.010326028
0.005440501 -0.07834322 0.0097545087
0.0066320729 -0.079584874 0.0085735619
0.0075791879 -0.077957354 0.0061152875
-0.022326 -0.079257295 0.0045706332
-0.020438507 -0.07637547 0.0053605735
-0.0198659 -0.078359939 0.0068852305
-0.017926 -0.074867412 0.0090788603
-0.017111255 -0.075931191 0.01041624
-0.016448282 -0.0778552 0.011486053
-0.014385372 -0.072954386 0.013939589
-0.014017328 -0.076556176 0.019930393
-0.013192097 -0.078053236 0.02224052
-0.011132395 -0.071854547 0.02364552
-0.010165416 -0.072174452 0.0255391
-0.0092055816 -0.072621807 0.025926173
-0.0081447437 -0.072284602 0.027087182
-0.0070660464 -0.071669899 0.02762261
-0.0060784603 -0.071928449 0.02772668
-0.0051162802 -0.072651178 0.027137548
-0.0041361204 -0.073416136 0.026315242
-0.0030367773 -0.071870394 0.025957763
-0.0020115809 -0.071411118 0.025234193
-0.0010877501 -0.077230252 0.023958445
0 -0.07336428 0.022023618
0.0010896713 -0.077366658 0.018022835
0.0021518262 -0.076389827 0.015073955
0.0031662739 -0.074935153 0.012616247
0.0043784189 -0.077716932 0.011082113
0.0054023354 -0.076713167 0.0099369884
0.0064058676 -0.075802766 0.0086813569
0.0076539028 -0.077632442 0.0065428615
-0.021879595 -0.07657858 0.005027622
-0.021408198 -0.078872308 0.0064957738
-0.01886775 -0.073374584 0.0073688328
-0.01758985 -0.072428793 0.009149164
-0.0177821 -0.077796683 0.010747552
-0.015412723 -0.071926035 0.01162675
-0.015083987 -0.075419933 0.013939589
-0.01394371 -0.07508152 0.020222932
-0.012339688 -0.071981512 0.022506177
-0.011372269 -0.072368987 0.0242863
-0.010477186 -0.073340304 0.025843024
-0.0091041299 -0.070809901 0.027081341
-0.0084657744 -0.074075527 0.027539462
-0.0073481961 -0.073481962 0.027779222
-0.0062723975 -0.073177971 0.028163165
-0.0051713181 -0.072398454 0.027633488
-0.0041864165 -0.073262289 0.027388901
-0.0030578952 -0.071350887 0.026762962
-0.0020405499 -0.071419246 0.026077271
-0.0010380627 -0.072664388 0.025393218
0 -0.075145207 0.023964465
0.0010622679 -0.074358754 0.019346446
0.0020389883 -0.071364589 0.017187893
0.0032074477 -0.074840449 0.013748974
0.004404074 -0.077071294 0.011862397
0.00518393 -0.072575025 0.010684609
0.0066330959 -0.077386118 0.0094225705
0.0078207003 -0.078207001 0.0074009001
0.0087890904 -0.076904535 0.0046157241
-0.022508157 -0.077653147 0.0050106049
-0.020751199 -0.075359613 0.0070054531
-0.018791411 -0.072033748 0.0082414448
-0.018552542 -0.075301491 0.0095405579
-0.016641593 -0.071766868 0.011138469
-0.016319022 -0.075067498 0.011643976
-0.015049985 -0.074174926 0.013958871
-0.013518613 -0.071752638 0.019790947
-0.01275571 -0.073345333 0.022258401
-0.011357239 -0.071240865 0.02427882
-0.010256941 -0.070772894 0.026925325
-0.0093263946 -0.071502365 0.027087182
-0.0082280776 -0.070967168 0.027619034
-0.007186437 -0.070837736 0.027888179
-0.0062865778 -0.072295643 0.02822125
-0.0052110506 -0.071912505 0.027842402
-0.0041564568 -0.071698882 0.02764976
-0.0030797345 -0.070833892 0.026893169
-0.0020558315 -0.070926182 0.026395649
-0.0010320111 -0.071208768 0.025489897
0 -0.074637793 0.02396071
0.0010223971 -0.070545398 0.020194709
0.0021322626 -0.073563062 0.017737627
0.0032385432 -0.074486494 0.015093178
0.0040475824 -0.069820799 0.012564629
0.0054976493 -0.075867563 0.011007994
0.0066986172 -0.077034101 0.010412604
0.0075388621 -0.074311636 0.0085894465
0.0091888206 -0.079253577 0.0052459538
-0.02168414 -0.07372608 0.005059123
-0.020765517 -0.074318692 0.0066691041
-0.019466173 -0.073538877 0.0084192455
-0.01745243 -0.06980972 0.010270655
-0.017206883 -0.073129252 0.011592954
-0.016185232 -0.073373049 0.012594432
-0.014363186 -0.069764048 0.014269769
-0.013799168 -0.072180264 0.019861609
-0.012778318 -0.072410464 0.022029787
-0.011067155 -0.068415143 0.023559719
-0.010314088 -0.070135809 0.025913686
-0.0094038323 -0.07105118 0.027207255
-0.0081891874 -0.069608092 0.027633488
-0.0071835355 -0.069782913 0.027944386
-0.0060522524 -0.068592198 0.028243154
-0.005172044 -0.070339806 0.027886301
-0.0042942753 -0.073002681 0.02788204
-0.0030591954 -0.069341764 0.027918488
-0.0020230238 -0.068782806 0.026472598
-0.0010623767 -0.072241612 0.025376767
0 -0.070259303 0.024735838
0.0010573271 -0.071898244 0.022241712
0.002142407 -0.072841838 0.017944783
0.0030651463 -0.069476649 0.015972316
0.0043168771 -0.073386908 0.012994975
0.0052760323 -0.071754038 0.011840045
0.006254571 -0.070885137 0.010893136
0.0076471791 -0.074286886 0.0088915527
0.0087195234 -0.074115947 0.0053664148
-0.021459963 -0.071890876 0.0047071576
-0.021562703 -0.0760369 0.0056975186
-0.019420074 -0.072285831 0.0084319115
-0.01806223 -0.071186438 0.0097887218
-0.0176687 -0.073987685 0.011732787
-0.015322865 -0.068442129 0.012768447
-0.015053994 -0.072044112 0.015464932
-0.013911093 -0.071695633 0.018304914
-0.012435148 -0.069429584 0.021516263
-0.011309749 -0.06888666 0.022544652
-0.010362807 -0.069430813 0.023433805
-0.0090997992 -0.067742951 0.025058389
-0.0082930773 -0.069454521 0.025933504
-0.0072365692 -0.069264308 0.027074218
-0.0062105958 -0.069351658 0.027183026
-0.0052036308 -0.069728658 0.027087182
-0.0041315081 -0.069202758 0.026995987
-0.0030830011 -0.068853699 0.026336968
-0.0020634239 -0.069124699 0.025692165
-0.0010383365 -0.069568552 0.02527079
0 -0.071406089 0.024164826
0.0010534311 -0.070579879 0.021855623
0.0020672726 -0.069253631 0.018056571
0.0031878187 -0.071194619 0.016659051
0.0042652478 -0.071442902 0.012804717
0.0051507135 -0.069019563 0.01165992
0.0064494368 -0.072018713 0.010893136
0.0076578921 -0.073296972 0.0093870461
0.0085436823 -0.071553342 0.0053664148
-0.021954143 -0.072448671 0.0045779645
-0.020928556 -0.072699197 0.0053549409
-0.018895641 -0.069284022 0.008363992
-0.018211562 -0.070703715 0.010209054
-0.016116684 -0.066481322 0.011713773
-0.01615151 -0.07106664 0.01279062
-0.014861419 -0.070060976 0.015463501
-0.013431276 -0.068189554 0.01798296
-0.012925111 -0.071088105 0.020354718
-0.011412229 -0.068473376 0.022029787
-0.010218441 -0.067441709 0.022643834
-0.0090358127 -0.066262625 0.023538202
-0.0083864154 -0.069187924 0.02490136
-0.0071106483 -0.067043252 0.026004165
-0.006327162 -0.069598779 0.026354879
-0.0052270913 -0.068997607 0.02598244
-0.0040576193 -0.066950716 0.025951713
-0.0030889409 -0.067956701 0.025351137
-0.0020660635 -0.068180092 0.025128216
-0.0010217909 -0.067438193 0.023958445
0 -0.06816107 0.023438931
0.0010225129 -0.067485847 0.021188051
0.0021463188 -0.07082852 0.017597526
0.0032206925 -0.07085523 0.016659051
0.0040294649 -0.066486172 0.012851626
0.0052776239 -0.069664635 0.012160301
0.0066289026 -0.072917931 0.011084437
0.0075334045 -0.071029238 0.0097688138
0.0090278592 -0.074479841 0.0053524673
-0.022253823 -0.072324924 0.004686147
-0.02038859 -0.069750436 0.0052559078
-0.01985449 -0.071696773 0.007430166
-0.018166678 -0.069460824 0.009498179
-0.017164234 -0.069729701 0.01149714
-0.01641055 -0.071112387 0.012628615
-0.014252603 -0.066172801 0.014267415
-0.014045818 -0.070229083 0.01665315
-0.012902827 -0.069890313 0.018304914
-0.011522666 -0.068088479 0.020096064
-0.010532377 -0.068460457 0.021682262
-0.0092955632 -0.067134626 0.022544652
-0.0082761487 -0.06724371 0.023289502
-0.0071556065 -0.066444919 0.023701727
-0.006322463 -0.068493351 0.023901343
-0.0050633759 -0.065823883 0.02383998
-0.0041148462 -0.066866256 0.023961216
-0.0031255614 -0.067720495 0.024058163
-0.0021013133 -0.068292677 0.023987621
-0.0010622219 -0.069044426 0.023576319
0 -0.066638693 0.022802085
0.0010383883 -0.067495242 0.021256477
0.002122619 -0.068985112 0.017625779
0.003023007 -0.065498479 0.01717031
0.0043021366 -0.069909722 0.012994975
0.0053065089 -0.06898462 0.011840045
0.0065517472 -0.070977263 0.011176169
0.007804316 -0.072468653 0.0073212385
0.0088355299 -0.071788684 0.0049811602
-0.021735752 -0.069554411 0.0040626228
-0.021645587 -0.072911449 0.0051978827
-0.019401042 -0.068981491 0.0064377487
-0.017844504 -0.067179307 0.0087468624
-0.017349051 -0.069396205 0.01133284
-0.015294245 -0.065255448 0.012629807
-0.015070305 -0.068892822 0.013874412
-0.013767347 -0.067777708 0.015774727
-0.012313522 -0.065672122 0.017348468
-0.011553673 -0.067221373 0.018559694
-0.010921739 -0.069899134 0.019878656
-0.0095110405 -0.067634068 0.021815032
-0.0084985206 -0.067988165 0.022584289
-0.0072102505 -0.06592229 0.023333222
-0.0060558389 -0.064595617 0.023662806
-0.0052086534 -0.066670768 0.023658931
-0.0041973814 -0.067158103 0.023828596
-0.0031361817 -0.066905215 0.023474216
-0.0021151442 -0.067684613 0.023388177
-0.0010620373 -0.067970388 0.023024112
0 -0.06706889 0.021886915
0.0010524038 -0.067353845 0.020265549
0.0020704691 -0.066255011 0.017660141
0.0031840473 -0.067926347 0.016075373
0.0041511427 -0.066418283 0.012248963
0.005180357 -0.066308573 0.01104036
0.0066616032 -0.071057104 0.010066301
0.0078516295 -0.071786329 0.0061987936
0.0086367354 -0.069093883 0.0045382082
-0.02102978 -0.069730319 0.0042466819
-0.01970315 -0.068961032 0.0053217113
-0.018746581 -0.069472626 0.0083757937
-0.016391816 -0.064542778 0.010122657
-0.016212067 -0.068090677 0.011410832
-0.014978371 -0.067402668 0.013150722
-0.013674062 -0.066266604 0.013940573
-0.01282691 -0.067341283 0.016381353
-0.011810487 -0.067641884 0.017380446
-0.010465925 -0.065935329 0.01866287
-0.0096344957 -0.067441471 0.019689798
-0.0085008461 -0.066944167 0.021087527
-0.0073445709 -0.066101141 0.022379607
-0.0064932592 -0.068179227 0.022427976
-0.0052585513 -0.066257745 0.022418261
-0.0041334759 -0.065102242 0.022566319
-0.0032073248 -0.067353822 0.022982508
-0.0020695843 -0.065191902 0.021955341
-0.0010487154 -0.066069074 0.020845562
0 -0.065716371 0.020035684
0.0010277544 -0.064748526 0.017789483
0.0020927135 -0.065920472 0.017490506
0.003191785 -0.067027487 0.014051259
0.0041652774 -0.065603122 0.012016356
0.0055904104 -0.070439175 0.010049969
0.006723084 -0.070592381 0.0070057809
0.0077446401 -0.069701761 0.0057618916
0.0091045052 -0.07169798 0.0045515299
-0.020372691 -0.070172608 0.0046556592
-0.018384252 -0.067048453 0.0060817003
-0.017050242 -0.066069692 0.0087871552
-0.016104434 -0.066565 0.010611713
-0.014748015 -0.065312639 0.011733651
-0.014084044 -0.067170061 0.013516188
-0.012799274 -0.066129588 0.014406532
-0.011518818 -0.064924248 0.016534805
-0.010639181 -0.065962926 0.017773271
-0.0095519628 -0.065802418 0.018559694
-0.0083831167 -0.064969152 0.019174665
-0.007559923 -0.066959321 0.020159394
-0.0062499172 -0.064582482 0.020687521
-0.0052837534 -0.065518543 0.020842433
-0.004306653 -0.066753127 0.021156758
-0.0031187085 -0.064453311 0.021440953
-0.0020786889 -0.064439356 0.02040717
-0.0010837625 -0.067193277 0.019834906
0 -0.063704178 0.019089431
0.0010624923 -0.065874517 0.017270774
0.0021483439 -0.066598669 0.014669955
0.0031655263 -0.065420881 0.012144327
0.0043056891 -0.066738181 0.0095992386
0.0055530774 -0.068858162 0.006885469
0.0065261009 -0.067436382 0.0053881109
0.0079428526 -0.07035099 0.004463613
-0.018574411 -0.066649355 0.0042093992
-0.017924935 -0.068338811 0.0052289665
-0.015849344 -0.064454004 0.0090114474
-0.01500235 -0.065367386 0.010970801
-0.013929551 -0.065361738 0.01204738
-0.012494622 -0.063514329 0.013368666
-0.011856541 -0.065749906 0.014164269
-0.010584722 -0.064566806 0.015978038
-0.0092165647 -0.062467828 0.017242908
-0.0086070821 -0.065628998 0.017438501
-0.0073205973 -0.063793778 0.017835945
-0.0063622002 -0.064682372 0.018728822
-0.0052785049 -0.06439776 0.0189538
-0.0041828966 -0.063789174 0.019189149
-0.0031032434 -0.063099287 0.018422037
-0.002111417 -0.064398214 0.018042654
-0.0010626502 -0.064821661 0.017403066
0 -0.063913643 0.017152697
0.0010816981 -0.065983586 0.013822287
0.0020811572 -0.063475296 0.011812389
0.0032725015 -0.066540867 0.0098537505
0.0044739079 -0.068227097 0.0061479211
0.0053568613 -0.065353706 0.0049443841
0.0066981572 -0.068097927 0.0044287443
-0.016436402 -0.065745607 0.0056834817
-0.01512854 -0.064836599 0.009565264
-0.013570365 -0.062632449 0.010272384
-0.012977335 -0.064886674 0.011814833
-0.01173096 -0.063987054 0.012635112
-0.01056633 -0.063397981 0.013917923
-0.0096312426 -0.064208284 0.014281631
-0.008646436 -0.064848274 0.015316218
-0.0074305027 -0.063690022 0.015527308
-0.0065168557 -0.06516856 0.016940325
-0.0052445801 -0.062934965 0.017056614
-0.0041665952 -0.062498927 0.017001867
-0.0031999049 -0.063998103 0.017506599
-0.0020962781 -0.062888347 0.016646653
-0.0010444704 -0.062668219 0.015563995
0 -0.064969495 0.013792813
0.0010488121 -0.062928721 0.011805028
0.0021552518 -0.064657554 0.0089054406
0.0033428143 -0.066856287 0.0059981048
-0.016967727 -0.066739723 0.0042872727
-0.014815002 -0.062434651 0.0057595372
-0.013978951 -0.063442931 0.0096049011
-0.012836618 -0.063113376 0.010194629
-0.011453319 -0.061431445 0.010928482
-0.010678721 -0.063004456 0.011814833
-0.0095413895 -0.062549107 0.012635112
-0.0086727412 -0.063961461 0.013397187
-0.0075294669 -0.063462652 0.013836145
-0.0063755531 -0.06269294 0.013823718
-0.005324902 -0.062833846 0.013914973
-0.0043184287 -0.063696824 0.013782829
-0.0031985359 -0.062904537 0.012194812
-0.0021521754 -0.063489176 0.011634171
-0.0010764595 -0.063511111 0.010932267
0 -0.060091056 0.010257512
0.0010794756 -0.063689068 0.0079894066
0.0022331278 -0.065877274 0.0059139132
-0.014408135 -0.064282447 0.0055463612
-0.012984526 -0.06275855 0.0092151761
-0.012010813 -0.063329741 0.0097347796
-0.010823703 -0.062777482 0.010248631
-0.0094628157 -0.060982596 0.010725856
-0.0086444719 -0.062672421 0.01054436
-0.0073818057 -0.061163533 0.01054135
-0.0063626301 -0.061505426 0.0108518
-0.0053889584 -0.062511921 0.010648191
-0.0042842519 -0.062121656 0.009953022
-0.0031466396 -0.060835034 0.0099944174
-0.0021756352 -0.063093424 0.0091637969
-0.0010515606 -0.06099052 0.0075068176
0 -0.063612193 0.0071515441
0.0011126895 -0.06453599 0.0060705841
-0.013419192 -0.063741162 0.0051254034
-0.012008402 -0.062225357 0.0058838725
-0.01052457 -0.059990048 0.0085623562
-0.0097371815 -0.061668821 0.009213537
-0.0084833521 -0.060443886 0.0085288882
-0.0074925637 -0.061010875 0.0082099736
-0.0065401532 -0.062131457 0.007660687
-0.0052640974 -0.060010709 0.0081278384
-0.0042304685 -0.060284171 0.0075416863
-0.0032654575 -0.062043693 0.0079040229
-0.0021352323 -0.060854122 0.0062077641
-0.0011104856 -0.063297674 0.0057142079
0 -0.064481527 0.0042561591
-0.012002598 -0.061104134 0.004597187
-0.011399928 -0.063839599 0.0051412284
-0.01011872 -0.062960923 0.0057595372
-0.0088002384 -0.061601669 0.0060437322
-0.0077529699 -0.062023759 0.0062342882
-0.0065666903 -0.061289109 0.005548805
-0.0054295552 -0.06081102 0.0060869455
-0.0045493101 -0.063690342 0.0051233768
-0.003392491 -0.0633265 0.0052499473
-0.0021938216 -0.061427001 0.0047695637
-0.001126631 -0.063091338 0.0042602718
-0.0091540087 -0.06293381 0.0042974353
-0.007654984 -0.060146306 0.0044227242
0 0 0 1 0 0 0 1 0 0 0 1 0 0 0 0 0 603 1 0 0
