ply
format ascii 1.0
comment PCL generated
element vertex 538
property float x
property float y
property float z
element camera 1
property float view_px
property float view_py
property float view_pz
property float x_axisx
property float x_axisy
property float x_axisz
property float y_axisx
property float y_axisy
property float y_axisz
property float z_axisx
property float z_axisy
property float z_axisz
property float focal
property float scalex
property float scaley
property float centerx
property float centery
property int viewportx
property int viewporty
property float k1
property float k2
end_header
-0.010630063 0.015945094 0.0048222542
-0.0098713562 0.016452262 0.0055375397
-0.0087672072 0.016438514 0.0054904521
-0.0076132403 0.016314086 0.0055434108
-0.0065895058 0.016473765 0.0058875382
-0.005422899 0.016268697 0.0043798089
-0.0042877477 0.016079053 0.004073292
-0.0033613842 0.016806921 0.0040515661
-0.014431455 0.017761791 0.0046366155
-0.013345036 0.017793382 0.0071659982
-0.01208644 0.017580276 0.0082139671
-0.010881194 0.01740991 0.0094906092
-0.0096149398 0.017093228 0.0094476938
-0.0084803049 0.01696061 0.0093947351
-0.0075668758 0.017295716 0.0088757277
-0.0063527417 0.016940646 0.0090726018
-0.0052508786 0.016802812 0.0082547963
-0.0043896846 0.017558739 0.0075960159
-0.003267478 0.017426549 0.0068911314
-0.002186517 0.017492136 0.0057938993
-0.0010702384 0.017123815 0.0051926672
0 0.016873337 0.0042884946
-0.015533548 0.018862166 0.0073148012
-0.014508335 0.018972438 0.0086948872
-0.012559602 0.017792771 0.010969788
-0.011622312 0.017961757 0.01242432
-0.010559122 0.017950509 0.014172822
-0.0090312706 0.017059069 0.01477161
-0.0084477589 0.017951488 0.014980286
-0.0071618902 0.017393162 0.014948577
-0.0061846976 0.017523309 0.013943225
-0.0053700376 0.018258128 0.01379773
-0.0041745594 0.017741878 0.010988146
-0.0031002846 0.017568281 0.010025054
-0.0022314943 0.018967701 0.0080472827
-0.0010876732 0.018490445 0.0073896348
0 0.018488431 0.0061514676
0.0010875515 0.018488375 0.004430294
0.002133657 0.018136084 0.00407058
-0.017149432 0.019293111 0.004799366
-0.016825123 0.020190146 0.0078818798
-0.01517475 0.019510392 0.010888904
-0.0133805 0.018526845 0.012143135
-0.012613761 0.018920641 0.01380837
-0.011613677 0.0190042 0.015365273
-0.010092123 0.018165821 0.015360087
-0.0093361177 0.018672235 0.015647411
-0.0083109047 0.018699534 0.015773654
-0.0071896734 0.018487731 0.016048133
-0.0064171748 0.019251524 0.01505807
-0.0051440876 0.018518714 0.015255541
-0.0041326843 0.018597079 0.014196873
-0.0032406538 0.019443922 0.01326856
-0.0021054039 0.018948635 0.011014342
-0.0010377271 0.018679086 0.0094215572
0 0.020182379 0.0079299808
0.0010726916 0.019308448 0.0065395534
0.0022016468 0.019814821 0.0052684247
0.0033442655 0.020065593 0.0049320459
0.0043736482 0.019681415 0.004088372
-0.017982921 0.021354718 0.0079234838
-0.015960433 0.020216549 0.010459095
-0.014046425 0.019063005 0.012682527
-0.013932128 0.02036234 0.015099853
-0.01252537 0.019831838 0.016032398
-0.011223899 0.019386735 0.016880989
-0.010573802 0.020090224 0.016956836
-0.0096189175 0.020306606 0.016662747
-0.0082349237 0.019557944 0.016621798
-0.0074215946 0.020144328 0.016729772
-0.0060828235 0.019262275 0.016272008
-0.0051267464 0.019481637 0.017102867
-0.0042437837 0.020157974 0.015979737
-0.003110552 0.019700162 0.015033007
-0.0020705664 0.01967038 0.013652295
-0.0010891344 0.020693554 0.010904878
0 0.019412564 0.0087734461
0.001079572 0.020511869 0.0080893636
0.0022171065 0.021062514 0.0065194964
0.0032536183 0.02060625 0.005666256
0.0044053006 0.020925179 0.004553169
-0.019691836 0.021879818 0.005810231
-0.018817088 0.022137748 0.0074136257
-0.017127851 0.021409813 0.0099304914
-0.015453688 0.020604916 0.013355225
-0.014607087 0.020867268 0.014959812
-0.013556161 0.020855632 0.016532868
-0.012376294 0.020627158 0.017115861
-0.011663159 0.021205744 0.018773377
-0.010396573 0.020793146 0.01953283
-0.0090555446 0.020123431 0.020440459
-0.0084570143 0.021142535 0.020446122
-0.0070878053 0.020250872 0.02048707
-0.0061065634 0.020355212 0.020343035
-0.0053855348 0.021542139 0.020684421
-0.0041565513 0.020782756 0.019126981
-0.0030588368 0.020392245 0.016740799
-0.002136816 0.021368161 0.016142637
-0.0010300515 0.020601029 0.014963955
0 0.020882448 0.011060625
0.0010486258 0.020972515 0.010287404
0.0020926036 0.020926034 0.0076371431
0.0032497514 0.021665009 0.0062168539
0.004420111 0.022100555 0.0046745539
-0.021492664 0.023755049 0.0052855313
-0.020051753 0.023393715 0.0072158873
-0.018586123 0.022959331 0.0093779266
-0.016437406 0.021574095 0.011132509
-0.015835978 0.02217037 0.014119059
-0.014926414 0.022389621 0.016950756
-0.01309634 0.021155626 0.017953455
-0.012978003 0.022711508 0.019563466
-0.011307475 0.021586999 0.020721108
-0.010158449 0.021332745 0.021391809
-0.0093990089 0.021931022 0.021425009
-0.0083560916 0.02193474 0.021916538
-0.0073106433 0.021931931 0.02286157
-0.0063392157 0.022187255 0.022874326
-0.0051933569 0.0218121 0.022561133
-0.0040371655 0.021195119 0.020988882
-0.0031779122 0.022245387 0.019986242
-0.0020411878 0.021432472 0.018506974
-0.0010378357 0.02179455 0.016735822
0 0.02269868 0.01497072
0.0010248659 0.021522185 0.011698961
0.0021112124 0.022167729 0.009675175
0.0032319825 0.022623878 0.0078327358
0.004226651 0.022189917 0.0064386427
0.0053495318 0.022468034 0.004873991
-0.021918477 0.025379289 0.0061976016
-0.020137751 0.024612809 0.0091188848
-0.017639512 0.022827605 0.010629535
-0.016977372 0.023343885 0.013643265
-0.01586945 0.023275193 0.016756743
-0.014092159 0.022144821 0.018009126
-0.01376304 0.023291299 0.01951775
-0.012594332 0.023089608 0.021570683
-0.011158679 0.022317357 0.021768749
-0.010306207 0.022673657 0.023074418
-0.009279971 0.022684373 0.023073316
-0.0082497867 0.022686912 0.024315864
-0.007356111 0.023119206 0.024348199
-0.0062773684 0.023017017 0.023375601
-0.005191444 0.022842353 0.023291647
-0.0042265719 0.023246145 0.022873998
-0.0030715521 0.022524716 0.02086544
-0.0020434714 0.022478186 0.020247996
-0.0010589451 0.02329679 0.019349515
0 0.022683399 0.017102867
0.0010714262 0.023571374 0.015302956
0.0021581748 0.023739921 0.012014091
0.0031016886 0.022745717 0.0087932944
0.0044998038 0.02474892 0.0070142448
0.0056952159 0.025058951 0.0045431554
-0.021382809 0.025884451 0.0064451694
-0.019031528 0.024318067 0.0097852051
-0.017481955 0.023652056 0.01154381
-0.016882537 0.024268648 0.014876097
-0.01543471 0.023666557 0.017104059
-0.014614852 0.024010114 0.018373132
-0.013893995 0.024581682 0.020339429
-0.012115034 0.023220483 0.021591991
-0.011728091 0.024522373 0.022216976
-0.010470902 0.024083074 0.023382753
-0.0093164649 0.023808744 0.024476767
-0.0088397311 0.025414228 0.025238514
-0.0073201428 0.024051899 0.025273442
-0.0063480698 0.024334269 0.024208099
-0.0054439367 0.025042109 0.023531258
-0.0041251755 0.023719758 0.023203939
-0.0031175066 0.023900885 0.02269879
-0.0021387576 0.024595713 0.02085796
-0.0010380383 0.023874881 0.020003587
0 0.024353797 0.01869446
0.0010617794 0.024420928 0.01633516
0.00204842 0.023556832 0.013848573
0.0032097297 0.024607928 0.011153847
0.004418822 0.025408227 0.0077350736
0.0058694202 0.026999334 0.0061990619
0.0065558734 0.025130849 0.0043291152
-0.02271132 0.027253585 0.0049907267
-0.02095343 0.026467489 0.0085040927
-0.018875523 0.025167365 0.010100484
-0.018265083 0.025785999 0.012455016
-0.016557008 0.02483551 0.015168279
-0.015706161 0.025129858 0.016998589
-0.014743864 0.025275195 0.018009156
-0.013427737 0.024789669 0.020106375
-0.012668113 0.025336226 0.02159977
-0.011810035 0.025767349 0.023382753
-0.010516831 0.025240393 0.024583846
-0.0089613143 0.023896839 0.025380731
-0.0078599053 0.023579715 0.025823861
-0.0069578257 0.023855403 0.026039869
-0.0060101016 0.024040407 0.025824815
-0.0049367733 0.023696512 0.024249077
-0.004286224 0.025717344 0.023573935
-0.0032616644 0.026093315 0.022845566
-0.0020803788 0.024964547 0.022290558
-0.0010538941 0.025293458 0.02008605
0 0.025312526 0.019271821
0.0010283304 0.024679929 0.016594648
0.0021608432 0.025930116 0.015302956
0.0032514394 0.026011515 0.01170066
0.0041418569 0.02485114 0.010022581
0.0057060611 0.027389094 0.0062951744
0.0067769294 0.027107717 0.0055369139
-0.020068988 0.026406564 0.0070855618
-0.019485468 0.027063154 0.010100484
-0.017668994 0.025983816 0.012730241
-0.017216083 0.026900129 0.015344888
-0.015346181 0.02557697 0.017629147
-0.014366115 0.02565378 0.018388778
-0.01364314 0.026236808 0.020801574
-0.012770566 0.026605347 0.023043215
-0.011208655 0.025474219 0.023612797
-0.0099713365 0.024928343 0.024583846
-0.009212927 0.025591465 0.025998741
-0.0082486002 0.025776874 0.026039869
-0.0072489548 0.025889127 0.027154893
-0.0062632952 0.026097063 0.025905967
-0.0051182723 0.025591364 0.024728358
-0.003990551 0.024940943 0.024138302
-0.0030935721 0.025779769 0.022867382
-0.0020947889 0.026184861 0.022495329
-0.0010660264 0.02665066 0.020783305
0 0.025850475 0.019912362
0.0010637138 0.026592847 0.017854601
0.0021091509 0.026364388 0.015828043
0.0030360636 0.025300533 0.013593584
0.0042402949 0.026501846 0.011030912
0.0054782126 0.027391065 0.0066688061
0.0066941134 0.027892141 0.0056566298
-0.021782974 0.028317867 0.0052574575
-0.020542743 0.028111121 0.0066248477
-0.019272305 0.027837776 0.0097130239
-0.017908029 0.02738875 0.011416465
-0.016857315 0.027393136 0.01450935
-0.015472351 0.026818741 0.016880184
-0.01473332 0.027361881 0.018009156
-0.013675763 0.027351527 0.020075172
-0.012667093 0.027445368 0.022091925
-0.011060352 0.026142653 0.02351895
-0.010198469 0.02651602 0.024904013
-0.0092070857 0.026598249 0.026121318
-0.0083344076 0.027086824 0.02645883
-0.0071813702 0.02667366 0.027611017
-0.0061418368 0.026614627 0.026324928
-0.0051253689 0.026651921 0.02584663
-0.00406001 0.026390066 0.02475673
-0.0030171457 0.026148595 0.023120642
-0.002161144 0.028094873 0.022751689
-0.001046447 0.027207619 0.020988882
0 0.02731845 0.019888908
0.0010399363 0.027038343 0.017660826
0.0020651284 0.02684667 0.015742391
0.0031429133 0.027238583 0.014245003
0.0042771022 0.027801163 0.010837138
0.0051198932 0.026623446 0.0072021782
0.0066331839 0.028743798 0.0060839057
-0.022599673 0.030509559 0.0054814816
-0.019994387 0.028413076 0.0065210462
-0.018854521 0.028281784 0.009663254
-0.018075576 0.028708268 0.011784464
-0.016566643 0.027956212 0.015137076
-0.016073493 0.028932288 0.017077178
-0.014733449 0.028414508 0.018027455
-0.013394477 0.027819298 0.019934326
-0.012303796 0.027683541 0.021919996
-0.011124756 0.027306221 0.024410903
-0.010156648 0.027422953 0.025939554
-0.0095225116 0.028567538 0.02622655
-0.0082279285 0.027769258 0.026764691
-0.0071201492 0.027463434 0.027889162
-0.0063488642 0.02856989 0.026917726
-0.005151595 0.027818615 0.025888681
-0.0041009509 0.02768142 0.025824875
-0.0030403743 0.027363369 0.024706542
-0.0020377764 0.027509982 0.023005873
-0.0010453619 0.028224772 0.020813346
0 0.028277421 0.01979354
0.0010126925 0.027342696 0.018382698
0.0021162555 0.028569449 0.016147375
0.0031500605 0.028350545 0.014367342
0.0040814844 0.027550019 0.011246562
0.0053234464 0.028746612 0.006824851
0.0067828279 0.030522728 0.0054408908
-0.022708815 0.031792343 0.0054636598
-0.020284196 0.029892499 0.0062856674
-0.019299751 0.030021837 0.0088325739
-0.018074555 0.029769856 0.011261851
-0.016875973 0.029532952 0.01323697
-0.015789924 0.029474527 0.01655373
-0.014279019 0.028558038 0.017834514
-0.014029986 0.030218432 0.019682884
-0.011939084 0.027857864 0.021564037
-0.011217831 0.028554481 0.024410903
-0.010382334 0.029070536 0.025877267
-0.0094770994 0.029484309 0.026492059
-0.0081112161 0.028389256 0.027359784
-0.0071423464 0.028569385 0.02795738
-0.0061124056 0.028524559 0.027359784
-0.0052349526 0.029315736 0.026279628
-0.0041338247 0.028936772 0.025884151
-0.0030504379 0.028470755 0.025264949
-0.0020319538 0.028447352 0.023098886
-0.0010865451 0.030423261 0.020711511
0 0.028166685 0.019626528
0.0010528472 0.029479722 0.018324047
0.0021665008 0.03033101 0.015828043
0.0030726998 0.028678531 0.014217108
0.0042900201 0.030030141 0.012134373
0.0054660765 0.030610029 0.0083053708
0.0064207623 0.029963559 0.0054408908
-0.022684148 0.032892015 0.0053476989
-0.021104716 0.032212462 0.0062347353
-0.019261345 0.031032169 0.0083236098
-0.017803827 0.030371236 0.010760307
-0.017031468 0.03086954 0.013119429
-0.015640363 0.030238034 0.014543235
-0.014979339 0.031028634 0.017536938
-0.014297749 0.031894978 0.018079102
-0.012011375 0.029027492 0.021120518
-0.011288066 0.029759448 0.022812188
-0.010343409 0.029995888 0.024736911
-0.0092341015 0.029754331 0.026414305
-0.0080742706 0.02926923 0.027207345
-0.0070925574 0.029383454 0.027916819
-0.0061160657 0.029560987 0.027383268
-0.0052513559 0.030457865 0.026515543
-0.0040829824 0.029601622 0.026186585
-0.003046978 0.029454123 0.024931669
-0.0020221064 0.029320542 0.022238404
-0.0010588638 0.030707054 0.020088136
0 0.030733602 0.019402653
0.0010447546 0.030297885 0.017970115
0.0020376751 0.029546289 0.015966624
0.0032053385 0.03098494 0.01449272
0.0042408523 0.030746182 0.012579143
0.0052428422 0.030408489 0.0092738569
0.0065801614 0.031804115 0.0054408908
-0.02239457 0.033591855 0.0047998428
-0.021314343 0.033654224 0.0054136813
-0.019171441 0.031952403 0.0067813993
-0.018372713 0.032422435 0.010325789
-0.016841708 0.031578202 0.011734694
-0.016240869 0.032481737 0.013198972
-0.015158657 0.032482836 0.016265392
-0.013589616 0.031360652 0.017607599
-0.012346856 0.030867141 0.018851459
-0.011187715 0.030511949 0.021212012
-0.010100192 0.03030058 0.02271083
-0.0093560554 0.031186854 0.024733484
-0.0084832627 0.031812236 0.0263533
-0.0071576457 0.030675625 0.026917785
-0.0062739914 0.031369958 0.026196986
-0.0051008249 0.030604951 0.025635332
-0.0040669115 0.030501837 0.024312645
-0.0030723214 0.030723214 0.021570891
-0.0020152903 0.030229356 0.020412296
-0.0010577576 0.031732731 0.019539714
0 0.031572301 0.018601596
0.0010223694 0.030671079 0.017546266
0.0020835125 0.031252686 0.015406907
0.0032612977 0.032612976 0.013602316
0.0041048522 0.030786389 0.012157679
0.0056270501 0.033762302 0.0084277093
-0.021868743 0.035680581 0.0053308904
-0.019894781 0.034263238 0.0061741471
-0.018169954 0.033133447 0.0098821819
-0.017349752 0.033615146 0.011065423
-0.015962593 0.03298936 0.012567192
-0.014590998 0.032308642 0.01434356
-0.014112326 0.033652473 0.016403913
-0.013121109 0.0338962 0.017534584
-0.01096901 0.030912666 0.017942399
-0.010248394 0.031770021 0.020207167
-0.0092399605 0.031826533 0.021147639
-0.0081728874 0.031669941 0.024312645
-0.0074992338 0.033210892 0.0260804
-0.0061801653 0.031930856 0.024124801
-0.0051366356 0.031847142 0.021365166
-0.0041152593 0.031893261 0.019943058
-0.0030035311 0.031036491 0.019901127
-0.002121174 0.032878198 0.019348621
-0.0010658858 0.033042461 0.018140852
0 0.031389777 0.017726362
0.001044061 0.032365896 0.015338689
0.0021020852 0.03258232 0.014506251
0.0030892473 0.031922225 0.012766242
0.0042930101 0.033270828 0.0099966824
0.0057256771 0.0354992 0.0065389872
-0.021956759 0.036979802 0.0047147274
-0.019499615 0.034665983 0.0053687692
-0.017851537 0.033602893 0.0086022317
-0.01704804 0.034096081 0.010740519
-0.015656995 0.03340159 0.011070907
-0.014674889 0.033542603 0.012943566
-0.013900286 0.034216087 0.013746083
-0.012654869 0.033746317 0.015107006
-0.011478148 0.03339098 0.016741037
-0.010053772 0.032172073 0.017534584
-0.009184557 0.032656204 0.019268751
-0.0082792146 0.033116858 0.019904405
-0.0071799895 0.03282281 0.020007282
-0.0061428561 0.032761898 0.019689023
-0.0051474823 0.032943889 0.019224167
-0.0039826869 0.031861495 0.01832369
-0.003083355 0.03288912 0.018364489
-0.0021578351 0.034525361 0.018182397
-0.0010456195 0.033459824 0.017197073
0 0.033531893 0.015448242
0.0010498742 0.033595975 0.014504522
0.0020411361 0.032658178 0.01449272
0.0031727015 0.03384215 0.011555016
0.0043065143 0.034452114 0.0092498064
0.005628834 0.036024537 0.0056566298
-0.019087 0.034992836 0.0049649179
-0.01841872 0.035753984 0.00647223
-0.016501518 0.034034379 0.0092346072
-0.01605737 0.035326213 0.010313064
-0.015059647 0.03549774 0.010971159
-0.013559542 0.034420375 0.012544692
-0.012819966 0.035254907 0.013003081
-0.01224628 0.036738839 0.01434356
-0.010608217 0.035007115 0.014477223
-0.0089634452 0.032865964 0.015056401
-0.0079932017 0.032971956 0.015901625
-0.0069879978 0.032943416 0.016609073
-0.0059928703 0.032960787 0.014990062
-0.0049671889 0.032783449 0.014547557
-0.004184599 0.034522939 0.014547557
-0.0033173559 0.036490913 0.014990062
-0.0021456105 0.035402574 0.01524654
-0.0010314316 0.034037244 0.014027953
0 0.035044052 0.013911694
0.0010277855 0.03391692 0.013196826
0.0021267722 0.035091743 0.011578321
0.0031596646 0.03475631 0.0092672706
0.0042968951 0.035449382 0.0056333244
-0.019689389 0.037191071 0.0042687953
-0.018082615 0.03616523 0.005397141
-0.017297501 0.03675719 0.0070006847
-0.015934732 0.036118727 0.0091670752
-0.01448612 0.035180576 0.01064238
-0.013788026 0.036060993 0.010967284
-0.012831149 0.036354922 0.011438191
-0.011566312 0.035750419 0.012642831
-0.010886622 0.037014514 0.01300332
-0.010229314 0.038644075 0.012625784
-0.0086519541 0.036770806 0.013321936
-0.0075593311 0.036716752 0.013760924
-0.0065062968 0.036869016 0.013575345
-0.0054761679 0.037237942 0.01358065
-0.0043385294 0.036877498 0.013315618
-0.0031553626 0.035760775 0.013627917
-0.0021223205 0.036079448 0.013629049
-0.001064937 0.036207858 0.013579518
0 0.034910697 0.012895793
0.0010636004 0.036162414 0.010913908
0.0020997191 0.035695225 0.0094400346
0.0031509884 0.035711203 0.0075097382
-0.019984469 0.038858689 0.0041105449
-0.018181924 0.037433371 0.0051171482
-0.01706559 0.037330978 0.0054792464
-0.015544359 0.036270171 0.006670177
-0.015241979 0.038104944 0.0080512464
-0.013927145 0.037496157 0.0099061131
-0.012706 0.037059169 0.010484219
-0.011807633 0.037569743 0.010780811
-0.010781667 0.037735838 0.010797173
-0.0095636081 0.037191808 0.010071695
-0.0088813696 0.038855992 0.010023743
-0.0076308381 0.038154189 0.0098458827
-0.0064735641 0.037762459 0.0096803606
-0.0054926104 0.038448274 0.010218412
-0.0043072309 0.037688266 0.010176539
-0.0031838433 0.03714484 0.010761261
-0.0022067844 0.038618729 0.010688245
-0.0010602141 0.03710749 0.0097340941
0 0.037653998 0.0086632073
0.0010979965 0.038429875 0.0081926286
0.0020842056 0.036473598 0.0080998838
-0.020027388 0.042410936 0.0044171214
-0.016774449 0.03774251 0.0051348805
-0.016060732 0.038545754 0.0062164962
-0.015122217 0.038885698 0.0067824423
-0.013741015 0.038052041 0.0080512464
-0.01288313 0.038649388 0.0094019175
-0.011707539 0.038315583 0.0094019175
-0.010462991 0.037666768 0.0094407797
-0.0099292547 0.039717019 0.0091604292
-0.0086831748 0.039074283 0.0088473558
-0.0073932582 0.03802247 0.0084505677
-0.0064980076 0.038988046 0.0080362856
-0.0054300688 0.039096497 0.0080385506
-0.0042909794 0.038618814 0.0079260767
-0.0032658549 0.039190255 0.008004874
-0.0021222495 0.038200486 0.0084755719
-0.0010780783 0.038810816 0.008004874
0 0.038487364 0.0075411201
0.0010601629 0.038165864 0.006518513
0.0023022513 0.04144052 0.0040389597
-0.019030435 0.044007882 0.0045681298
-0.016280081 0.040157538 0.0052264035
-0.014977781 0.039584137 0.0055619776
-0.013849146 0.039416801 0.0065359175
-0.012954503 0.039943054 0.0074055493
-0.011442514 0.038488459 0.0074055493
-0.010989301 0.040660419 0.0072382987
-0.0098565351 0.040521316 0.0067824423
-0.0085306643 0.039454322 0.006608516
-0.0076367827 0.040365852 0.0061313212
-0.0063537494 0.039181456 0.0054564178
-0.0053137923 0.039322067 0.0064831674
-0.0043626218 0.040354256 0.0056910813
-0.0032268658 0.039798014 0.0064671636
-0.0021087762 0.039012361 0.0064871013
-0.0010868203 0.040212352 0.0063670874
0 0.038559049 0.0042012036
-0.016980568 0.04301744 0.0042511821
-0.01510595 0.041001864 0.0043349862
-0.014080969 0.041159756 0.0051348805
-0.012603464 0.039910968 0.0055197477
-0.011983184 0.041396454 0.0061890483
-0.01085628 0.041253865 0.0056656897
-0.0096297655 0.04065901 0.005526185
-0.0087981485 0.041791204 0.0046721995
-0.0075181746 0.040812947 0.004244417
-0.0054321322 0.041284207 0.004240185
-0.0032288476 0.040898737 0.0042420626
-0.0022417081 0.042592455 0.0042390525
-0.013932527 0.041797578 0.0041223168
-0.013017565 0.042307086 0.0043349862
-0.01197499 0.042456783 0.0047042072
-0.010581898 0.041269399 0.0048904121
-0.0099551035 0.04313878 0.0045384765
-0.0086630499 0.042232368 0.0043763816
0 0 0 1 0 0 0 1 0 0 0 1 0 0 0 0 0 538 1 0 0
