ply
format ascii 1.0
comment PCL generated
element vertex 549
property float x
property float y
property float z
element camera 1
property float view_px
property float view_py
property float view_pz
property float x_axisx
property float x_axisy
property float x_axisz
property float y_axisx
property float y_axisy
property float y_axisz
property float z_axisx
property float z_axisy
property float z_axisz
property float focal
property float scalex
property float scaley
property float centerx
property float centery
property int viewportx
property int viewporty
property float k1
property float k2
end_header
-0.0077579683 -0.01884078 0.0051339269
-0.0064726979 -0.01833931 0.0050190091
-0.0054209027 -0.018431069 0.0040544569
-0.0044043404 -0.018718448 0.0040770471
-0.0032457591 -0.018392636 0.0040770471
-0.010974382 -0.017559012 0.0050816834
-0.009671405 -0.01719361 0.0070362985
-0.0090957871 -0.018191574 0.0074596405
-0.0075813746 -0.017328857 0.0087445378
-0.00655853 -0.017489413 0.0086377561
-0.0056554014 -0.018097285 0.0084198713
-0.0044038193 -0.017615277 0.0079981983
-0.0032618118 -0.017396331 0.0079949498
-0.0022030887 -0.01762471 0.0070362985
-0.0010805959 -0.017289534 0.0052426755
-0.012142547 -0.016558019 0.005566299
-0.010712906 -0.016069358 0.0073286295
-0.0098883528 -0.016480589 0.0082262158
-0.0085985791 -0.016122336 0.0080983639
-0.0072767599 -0.015593057 0.0086718202
-0.0064688721 -0.01617218 0.0086574554
-0.0052072136 -0.015621641 0.0084789097
-0.0041948906 -0.015730839 0.0098566115
-0.0032712671 -0.016356336 0.0097231269
-0.0021299399 -0.015974548 0.0087868869
-0.0011123853 -0.01668578 0.0074455142
0 -0.01695272 0.0055429339
-0.014956567 -0.014956567 0.0043236911
-0.014616264 -0.015740592 0.0063323379
-0.013247395 -0.015455294 0.0078731775
-0.011296681 -0.014377594 0.0087770224
-0.010786978 -0.015101768 0.0097598732
-0.0093798712 -0.014590912 0.010622025
-0.0083775865 -0.014660776 0.010622025
-0.0076702274 -0.015340455 0.011339337
-0.0064135226 -0.014964886 0.011620343
-0.0051306039 -0.014365692 0.010802299
-0.0043476084 -0.015216629 0.012689531
-0.0031649852 -0.01476993 0.010923445
-0.0020880855 -0.014616598 0.010655552
-0.0010578855 -0.014810397 0.0099731982
0 -0.014643229 0.008392781
0.0010311337 -0.014435871 0.0061695576
0.0021222106 -0.014855473 0.004762888
-0.01620841 -0.014047288 0.004327774
-0.015767025 -0.01464081 0.0064384639
-0.014090916 -0.014090916 0.0087484121
-0.012195881 -0.013212205 0.0090754032
-0.011640065 -0.013756441 0.010581166
-0.010594146 -0.013772391 0.012083322
-0.0092271222 -0.013328066 0.013042331
-0.0084655453 -0.013756511 0.013042331
-0.0073846658 -0.013714379 0.013769448
-0.0062063909 -0.01344718 0.013210952
-0.0053772284 -0.013980795 0.012582749
-0.0042119557 -0.013688856 0.013970017
-0.0030758504 -0.013328685 0.013127506
-0.0021346998 -0.013875549 0.012784392
-0.0010674208 -0.013876471 0.011149108
0 -0.013953364 0.010836273
0.0010434092 -0.013564319 0.008526355
0.0020826547 -0.013537256 0.0073608756
0.0033542931 -0.01453527 0.0048931539
-0.016871104 -0.013496883 0.0063028038
-0.014947054 -0.01281176 0.0087484121
-0.013417309 -0.012385209 0.0094276965
-0.013037539 -0.013037539 0.012375236
-0.011598752 -0.012653184 0.013443559
-0.010285453 -0.012342543 0.015104443
-0.0094850399 -0.012646721 0.016980469
-0.008376996 -0.012565494 0.017033726
-0.0071740886 -0.012298438 0.016982615
-0.0064427182 -0.012885436 0.016980469
-0.0051856763 -0.012445623 0.015787423
-0.0041218419 -0.012365526 0.016799569
-0.0032227277 -0.012890911 0.016090244
-0.0021102438 -0.012661462 0.014591366
-0.0010291679 -0.012350015 0.013520509
0 -0.013082894 0.012625068
0.0010393462 -0.012472155 0.011487484
0.0021816741 -0.013090044 0.0087108314
0.0033307858 -0.013323143 0.0066161156
0.0042812745 -0.012843823 0.0044184327
-0.018081149 -0.01243079 0.0049239099
-0.016424628 -0.012044727 0.0074019432
-0.014299988 -0.011235705 0.0094236135
-0.013857813 -0.011725841 0.012674838
-0.012686814 -0.01162958 0.01453051
-0.011386452 -0.011386452 0.017163903
-0.010548814 -0.011603695 0.018440515
-0.009569631 -0.011696217 0.018806994
-0.0083405441 -0.011468248 0.019062161
-0.0073614558 -0.011568001 0.018931776
-0.0062303585 -0.011422323 0.018625438
-0.0051385094 -0.011304721 0.018198371
-0.0042418428 -0.011665067 0.019038558
-0.0031591435 -0.011583527 0.018276811
-0.0021288027 -0.011708414 0.017841548
-0.0010825143 -0.011907657 0.016168326
0 -0.011337786 0.014712393
0.001051916 -0.011571077 0.014420688
0.002150014 -0.011825077 0.011789948
0.0031434183 -0.011525867 0.010974526
0.0043759318 -0.012033812 0.0070721209
0.0056056748 -0.012332484 0.0047457516
0.0064391582 -0.011805124 0.0046537817
-0.018356357 -0.010797856 0.0048478842
-0.017444992 -0.01090312 0.0065364242
-0.015158393 -0.010105595 0.0089468062
-0.014982366 -0.01070169 0.012950689
-0.013697148 -0.010536267 0.014591187
-0.012182421 -0.010152018 0.017641872
-0.011643241 -0.010584765 0.018781722
-0.010801787 -0.010801787 0.019635588
-0.009138613 -0.010154014 0.020768672
-0.00854294 -0.010678674 0.020837992
-0.0072731995 -0.010390284 0.020731211
-0.006242469 -0.010404115 0.020811021
-0.0054036821 -0.010807364 0.020769238
-0.004179948 -0.01044987 0.021420747
-0.003124058 -0.010413527 0.020487607
-0.0021067543 -0.010533771 0.019586146
-0.0010538137 -0.010538138 0.017988473
0 -0.010597908 0.016833216
0.0010657612 -0.010657611 0.015824288
0.0020611593 -0.010305797 0.014551699
0.003192815 -0.010642717 0.013324291
0.004338671 -0.010846677 0.0098586679
0.0053424253 -0.010684851 0.0070560873
0.0065701348 -0.010950224 0.0054835379
0.0077945422 -0.011135059 0.0043485165
-0.019738814 -0.0098694069 0.0044690073
-0.01912467 -0.010124824 0.0053550899
-0.016778437 -0.0094378702 0.0079243481
-0.015750494 -0.0094502959 0.0096125007
-0.014565324 -0.0093634222 0.014365613
-0.013483311 -0.0093345996 0.017233253
-0.012534116 -0.0094005875 0.0191392
-0.011536013 -0.0094385557 0.01997304
-0.009929141 -0.0089362273 0.020870477
-0.0092779258 -0.0092779258 0.021650702
-0.0083883945 -0.0094369436 0.02224791
-0.0073030698 -0.0093896603 0.022338182
-0.0066370857 -0.0099556278 0.022156119
-0.0053482284 -0.0096268114 0.021931022
-0.0042243297 -0.0095047411 0.022263467
-0.003218607 -0.0096558202 0.021378398
-0.0020733518 -0.0093300827 0.021135837
-0.0010433302 -0.0093899714 0.019080907
0 -0.0097279632 0.018027544
0.0010108385 -0.0090975463 0.01711455
0.0021612551 -0.009725648 0.015187025
0.0032732869 -0.0098198606 0.014427781
0.0041999468 -0.0094498796 0.012490124
0.0054082694 -0.0097348848 0.009444207
0.0065383408 -0.0098075112 0.0069653988
0.0074477065 -0.0095756222 0.0051596463
0.0088920696 -0.010003577 0.0042642057
-0.020181641 -0.0089696189 0.0051928759
-0.018277653 -0.0086012483 0.0065559447
-0.016957685 -0.0084788427 0.0092067719
-0.015890228 -0.0084747886 0.012566566
-0.014633481 -0.0083619896 0.015185863
-0.013601257 -0.0083700046 0.017913491
-0.012791445 -0.00852763 0.020251423
-0.01131541 -0.0082293889 0.021420598
-0.01080422 -0.0086433766 0.022054285
-0.0096366089 -0.0085658757 0.022585422
-0.0086136283 -0.0086136283 0.023250103
-0.0072334819 -0.0082668364 0.02311486
-0.0060233618 -0.0080311494 0.023230493
-0.0050927908 -0.0081484653 0.023230493
-0.0041616424 -0.0083232848 0.023103863
-0.00323286 -0.0086209597 0.022263467
-0.0021460073 -0.008584029 0.022080153
-0.0010853893 -0.0086831143 0.020423889
0 -0.0081939716 0.018934995
0.0010586873 -0.0084694987 0.017240047
0.0021817314 -0.0087269256 0.015181482
0.0030744814 -0.008198617 0.014460236
0.0042365016 -0.0084730033 0.012761235
0.0052616461 -0.0084186345 0.010525078
0.0063741063 -0.0084988084 0.0082247853
0.0076170666 -0.0087052193 0.005857259
0.0088730361 -0.0088730361 0.0048386455
-0.021010961 -0.0077408804 0.0041955709
-0.019444786 -0.0075618615 0.0055449009
-0.018163567 -0.0074791159 0.0067043304
-0.017361021 -0.0075954464 0.0095760822
-0.015322557 -0.0071505266 0.013122439
-0.015122938 -0.007561469 0.016934574
-0.013754779 -0.0074064196 0.01848498
-0.012156572 -0.0070913336 0.020942986
-0.011565991 -0.0073601757 0.02196911
-0.010784004 -0.007548803 0.022941649
-0.0092196083 -0.0071708066 0.024387568
-0.0080883633 -0.0070773177 0.024187982
-0.0070891706 -0.0070891706 0.024113119
-0.0061714095 -0.007199978 0.024741173
-0.0051381406 -0.0071933968 0.024724543
-0.0040421057 -0.0070736851 0.024296284
-0.0030201233 -0.0070469547 0.023139745
-0.0021317201 -0.0074610203 0.022981793
-0.0010611147 -0.0074278028 0.02117762
0 -0.0074875723 0.019133419
0.001058737 -0.0074111586 0.017155886
0.0020917268 -0.0073210434 0.016318828
0.0031944211 -0.0074536493 0.014841914
0.0043171719 -0.0075550503 0.012860984
0.0052143424 -0.0073000798 0.010813028
0.0065514306 -0.0076433355 0.0083061457
0.0077505531 -0.0077505531 0.0062865019
0.0084974868 -0.0074353013 0.0049264133
-0.021055784 -0.0066491943 0.0043199658
-0.019642912 -0.0065476377 0.0056775808
-0.01851535 -0.0065348297 0.0069471598
-0.016680395 -0.0062551484 0.010299414
-0.016150247 -0.006460099 0.013036907
-0.014907732 -0.0063890279 0.017178923
-0.013484414 -0.0062235752 0.018354595
-0.012530757 -0.0062653786 0.021045029
-0.011728697 -0.0063974713 0.021941215
-0.010524795 -0.0063148774 0.0229972
-0.0091272723 -0.0060848482 0.023860246
-0.008149161 -0.0061118705 0.024187982
-0.0071624271 -0.006139223 0.024665922
-0.0062272572 -0.0062272572 0.024942845
-0.0051435316 -0.0061722379 0.024942845
-0.0041576168 -0.0062364251 0.02457428
-0.0030912117 -0.0061824233 0.023204207
-0.0019980429 -0.0059941285 0.022981793
-0.0010455498 -0.0062732985 0.021293879
0 -0.0065579205 0.019569516
0.0010284176 -0.0061705057 0.018187672
0.0021307091 -0.0063921274 0.01711455
0.0031797357 -0.0063594715 0.014627248
0.0040593403 -0.0060890103 0.013897866
0.005321851 -0.0063862214 0.011436313
0.006411606 -0.006411606 0.0091471076
0.0074342447 -0.0063722096 0.0068421662
0.0088625969 -0.0066469475 0.005176425
-0.020923434 -0.0055061667 0.0051781535
-0.019929737 -0.005536038 0.0064424872
-0.017884288 -0.0052600848 0.0078212917
-0.016786242 -0.0052457005 0.010776192
-0.015909525 -0.0053031752 0.012990594
-0.014383606 -0.0051370021 0.017246455
-0.013907912 -0.005349197 0.01848498
-0.012681108 -0.0052837948 0.021532983
-0.011641275 -0.005291489 0.022146523
-0.010173465 -0.0050867326 0.023108095
-0.0092521179 -0.0051400657 0.024527371
-0.0084142452 -0.0052589029 0.025080174
-0.0073009334 -0.0052149524 0.02547133
-0.0062856311 -0.0052380259 0.025905818
-0.0052476553 -0.0052476553 0.025790155
-0.0041375184 -0.0051718978 0.025202096
-0.0031094255 -0.0051823761 0.024171352
-0.0020404248 -0.0051010619 0.024171352
-0.0010246728 -0.0051233638 0.022441775
0 -0.0053364732 0.020734578
0.0010602187 -0.0053010932 0.018934995
0.0021166373 -0.0052915933 0.01669538
0.0031002802 -0.0051671336 0.015333593
0.0042831097 -0.0053538866 0.013531595
0.0053592231 -0.0053592231 0.011499673
0.0060895709 -0.0050746421 0.010492831
0.0075300881 -0.0053786342 0.0081758499
0.0086741727 -0.0054213577 0.0054442883
-0.021329034 -0.0044903229 0.0048939288
-0.019548751 -0.0043441672 0.0056775808
-0.017794693 -0.0041869865 0.0069501102
-0.017423246 -0.0043558115 0.010299414
-0.015531599 -0.0041417596 0.012482762
-0.015270375 -0.0043629641 0.015218258
-0.01386473 -0.0042660707 0.018449843
-0.01228581 -0.0040952698 0.021562219
-0.011794464 -0.004288896 0.022688359
-0.010081711 -0.0040326845 0.023654401
-0.0092622535 -0.0041165575 0.025522828
-0.0083925361 -0.004196268 0.0258452
-0.0072418214 -0.0041381838 0.026815176
-0.0061610714 -0.0041073812 0.027291715
-0.0050990419 -0.0040792334 0.027574837
-0.0041510481 -0.0041510481 0.026611865
-0.0031342062 -0.0041789417 0.024998665
-0.0020993808 -0.0041987617 0.024976611
-0.0010088488 -0.0040353951 0.024146318
0 -0.0042983219 0.022122502
0.0010757964 -0.0043031857 0.020465821
0.0020854792 -0.0041709584 0.016985565
0.0031470102 -0.0041960138 0.015460819
0.0042364057 -0.0042364057 0.013567477
0.0050783125 -0.0040626503 0.01159808
0.006334092 -0.0042227283 0.011042029
0.0077923192 -0.0044527538 0.0079836547
0.0085393284 -0.0042696642 0.005808413
-0.020620136 -0.0032558108 0.0047495365
-0.019044826 -0.0031741376 0.0056150854
-0.018132694 -0.003199887 0.0069501102
-0.016627211 -0.0031176021 0.0092221797
-0.016068436 -0.0032136871 0.011628747
-0.015083876 -0.0032322591 0.014315426
-0.013494264 -0.003114061 0.017228961
-0.012952344 -0.0032380861 0.020161629
-0.011503741 -0.0031373838 0.021977514
-0.010009396 -0.0030028189 0.023220092
-0.0092712343 -0.0030904114 0.025541097
-0.0084049124 -0.0031518419 0.025770456
-0.0071690059 -0.0030724311 0.026744664
-0.0062124189 -0.0031062094 0.027618915
-0.0051869485 -0.0031121692 0.027734071
-0.0040982165 -0.0030736623 0.026994109
-0.0031214706 -0.0031214706 0.025380045
-0.002035405 -0.0030531075 0.025231123
-0.0010171634 -0.0030514901 0.02448675
0 -0.0031764349 0.022239506
0.0010263094 -0.0030789282 0.020466238
0.0020915004 -0.0031372504 0.016985565
0.003245488 -0.003245488 0.015521973
0.0040126136 -0.0030094599 0.013805002
0.0053503457 -0.0032102077 0.01230827
0.0064436062 -0.0032218031 0.011404067
0.0073333052 -0.0031428449 0.0091728866
0.0088721225 -0.0033270458 0.005808413
-0.020831069 -0.0021927441 0.0049211681
-0.019663513 -0.0021848348 0.0056150854
-0.01776222 -0.002089673 0.0065502822
-0.01749116 -0.002186395 0.0088716447
-0.016248742 -0.0021664989 0.01052314
-0.014329948 -0.0020471355 0.013217092
-0.013770971 -0.002118611 0.016543329
-0.013104672 -0.0021841121 0.018583447
-0.011617902 -0.0021123458 0.020806998
-0.010094889 -0.0020189779 0.021824509
-0.009288935 -0.0020642078 0.024835914
-0.0083338385 -0.0020834596 0.025425673
-0.0072113662 -0.0020603903 0.026067495
-0.0061609368 -0.0020536457 0.026711136
-0.0050970986 -0.0020388395 0.026626587
-0.0041075479 -0.002053774 0.026174664
-0.0030966424 -0.0020644283 0.024976611
-0.002060924 -0.002060924 0.02457428
-0.0010038257 -0.0020076514 0.022349
0 -0.0021076566 0.020665526
0.0010810196 -0.0021620393 0.018987238
0.0021468976 -0.0021468976 0.016779214
0.0030798139 -0.0020532093 0.015399665
0.0042670504 -0.0021335252 0.013372958
0.005371769 -0.0021487076 0.011499673
0.006156547 -0.0020521823 0.010219276
0.0077209161 -0.0022059761 0.0076059997
0.0090019889 -0.0022504972 0.0051235259
-0.021326557 -0.0011224503 0.0042291284
-0.019790884 -0.0010994936 0.0054827631
-0.018210821 -0.0010712248 0.0060659349
-0.017173531 -0.0010733457 0.0085909665
-0.015715124 -0.0010476749 0.010047853
-0.01506207 -0.0010758622 0.0124771
-0.013774268 -0.0010595592 0.014468908
-0.012575278 -0.0010479399 0.017234564
-0.011877485 -0.0010797713 0.018414378
-0.010149845 -0.0010149846 0.020199746
-0.0092182467 -0.0010242497 0.022548705
-0.0081432238 -0.001017903 0.023556113
-0.0073535456 -0.0010505065 0.024636656
-0.0063398764 -0.0010566461 0.025541097
-0.0053434679 -0.0010686936 0.025293499
-0.0041534374 -0.0010383594 0.025004387
-0.0030831352 -0.0010277118 0.023267865
-0.0020767967 -0.0010383984 0.022504151
-0.0010029206 -0.0010029206 0.021420926
0 -0.0010809723 0.019598156
0.0010662738 -0.0010662738 0.018378615
0.0020237488 -0.0010118744 0.01669538
0.0031753276 -0.0010584425 0.014561057
0.0042287996 -0.0010571999 0.013531923
0.0051273266 -0.0010254654 0.011404067
0.0064324266 -0.0010720711 0.010454774
0.007904497 -0.0011292138 0.0070749521
0.0087918723 -0.001098984 0.0040383339
-0.020699404 0 0.0041148663
-0.019631959 0 0.0054817796
-0.018108347 0 0.0060659349
-0.016942549 0 0.0085383654
-0.016409807 0 0.0093133748
-0.014989601 0 0.011878997
-0.013718061 0 0.013316095
-0.012977576 0 0.014979452
-0.011802427 0 0.016804188
-0.010187671 0 0.018307567
-0.0091617657 0 0.020088851
-0.0083656441 0 0.02087912
-0.0070851343 0 0.022320569
-0.0062378347 0 0.023999661
-0.0051410617 0 0.023771077
-0.0040612603 0 0.022077799
-0.0030895472 0 0.020585865
-0.0020026579 0 0.020586818
-0.0010392651 0 0.019107133
0 0 0.017498761
0.0010274359 0 0.017337233
0.0021438757 0 0.016003251
0.0032007634 0 0.01336953
0.004088576 0 0.011734903
0.0053660441 0 0.010045201
0.006355261 0 0.0077782869
0.0074781841 0 0.0064153373
-0.020831263 0.0010963823 0.0040446222
-0.020041971 0.0011134428 0.0050114393
-0.018261569 0.0010742099 0.0059575438
-0.017399691 0.0010874807 0.0074634552
-0.016336637 0.0010891091 0.0089619458
-0.014323257 0.0010230899 0.010713339
-0.013898654 0.0010691272 0.011984974
-0.01318744 0.0010989534 0.013231039
-0.011446369 0.0010405791 0.014007539
-0.010913019 0.0010913019 0.015991002
-0.0092599439 0.0010288827 0.017129838
-0.0079788668 0.00099735835 0.018315554
-0.0072400272 0.0010342896 0.020396948
-0.0062220851 0.0010370142 0.020762265
-0.0051462278 0.0010292456 0.020586818
-0.0040868558 0.0010217139 0.019216359
-0.003030637 0.0010102123 0.018313944
-0.002047529 0.0010237645 0.018330514
-0.0010958468 0.0010958468 0.017726272
0 0.0010198138 0.016822428
0.0010577373 0.0010577373 0.015321553
0.0021656977 0.0010828489 0.013694525
0.0031349019 0.0010449673 0.012034029
0.0042734314 0.0010683578 0.010999501
0.0052855457 0.0010571092 0.0084269047
0.0062542767 0.0010423794 0.0073046386
0.0078059142 0.0011151306 0.0052054822
-0.020118535 0.0022353928 0.0042610466
-0.018241718 0.0021460846 0.0054732859
-0.017278651 0.0021598313 0.0069289505
-0.016219495 0.0021625992 0.0085310638
-0.015483374 0.0022119107 0.0092083812
-0.014052221 0.0021618803 0.010662735
-0.012428886 0.0020714812 0.011529565
-0.011667516 0.0021213666 0.011873394
-0.01081051 0.0021621021 0.012916803
-0.0095094861 0.0021132191 0.01381591
-0.0087181469 0.0021795367 0.016006976
-0.007067122 0.0020191777 0.015689105
-0.006052292 0.0020174307 0.016287893
-0.0050449697 0.0020179879 0.017113775
-0.0041260836 0.0020630418 0.015209854
-0.0032047478 0.0021364987 0.014514029
-0.0021936037 0.0021936037 0.014673084
-0.0010629712 0.0021259424 0.014354765
0 0.002191558 0.013562769
0.0010693735 0.0021387469 0.013113111
0.00203751 0.00203751 0.011332333
0.0031601153 0.0021067436 0.010224104
0.0041987617 0.0020993808 0.0081865489
0.005225441 0.0020901766 0.0073918998
0.0066013695 0.0022004566 0.0058083236
0.0077140881 0.0022040252 0.0043540299
-0.019300874 0.0034060366 0.0042864382
-0.017433373 0.0032687576 0.0054190755
-0.016097683 0.0032195365 0.0067366362
-0.01508217 0.0032318938 0.0085424483
-0.013594879 0.0031372798 0.008857429
-0.013038645 0.0032596611 0.0099045336
-0.011686106 0.00318712 0.0093232393
-0.010519587 0.0031558762 0.011292845
-0.0096086394 0.0032028798 0.011644483
-0.0087014297 0.0032630363 0.012821257
-0.0077378657 0.0033162283 0.012693048
-0.006658698 0.003329349 0.012999594
-0.0056372057 0.0033823233 0.01264143
-0.0043086875 0.0032315156 0.012759477
-0.0033629204 0.0033629204 0.011285305
-0.0021458885 0.0032188327 0.011460751
-0.0010552109 0.0031656327 0.012087375
0 0.0031555819 0.011578977
0.0010529549 0.0031588646 0.011122733
0.0021984472 0.0032976707 0.0087719858
0.0032780471 0.0032780471 0.0074833632
0.0042433268 0.003182495 0.0065187216
0.0054164971 0.0032498983 0.0058867633
0.0067179576 0.0033589788 0.0045010448
-0.017283851 0.0043209628 0.0041095614
-0.01618233 0.0043152878 0.0058856905
-0.01488563 0.0042530368 0.0066889822
-0.014275895 0.0043925829 0.0084471703
-0.013061031 0.0043536769 0.0087274313
-0.011671101 0.004244037 0.0084759891
-0.010964927 0.004385971 0.0086010098
-0.0096259853 0.0042782156 0.0089434981
-0.0085325008 0.0042662504 0.0098835528
-0.0077056908 0.0044032517 0.0083917975
-0.0065096733 0.0043397821 0.0087299049
-0.0053502289 0.0042801835 0.0082495213
-0.0044105346 0.0044105346 0.010444582
-0.0032207237 0.0042942986 0.0085461438
-0.0021297447 0.0042594895 0.0086253881
-0.0010968319 0.0043873275 0.0087703466
0 0.0041832053 0.0087719858
0.0010901249 0.0043604998 0.008392632
0.0021493777 0.0042987554 0.0074605048
0.0031618259 0.0042157681 0.0060404837
0.0043483456 0.0043483456 0.0054297447
0.0055108787 0.0044087032 0.0051396191
-0.016086826 0.0053622755 0.0040518343
-0.015373167 0.0054904167 0.0055098236
-0.013980003 0.0053769238 0.0057704747
-0.012607245 0.0052530188 0.0062022209
-0.012090461 0.0054956642 0.0062022209
-0.010861611 0.0054308055 0.0063340366
-0.0096218735 0.0053454856 0.006777823
-0.0088146217 0.0055091386 0.0067133605
-0.0075172856 0.0053694895 0.0063532889
-0.0064974199 0.0054145167 0.0063963234
-0.0054546352 0.0054546352 0.0063352585
-0.0043050582 0.0053813225 0.006670326
-0.0031734433 0.0052890722 0.0067394674
-0.0022346757 0.0055866889 0.007121712
-0.0010835094 0.0054175472 0.0073508024
0 0.0054294537 0.0078166425
0.0010649133 0.0053245667 0.0069251657
0.0021106624 0.0052766558 0.0063236058
0.0032530078 0.0054216795 0.0055621266
0.0043572467 0.0054465579 0.0051228702
0.005408606 0.005408606 0.0048841238
-0.013729195 0.0063365516 0.0050596595
-0.013018533 0.0065092663 0.0051983297
-0.012025686 0.0065594655 0.0054559708
-0.010418743 0.0062512457 0.0055246651
-0.009822323 0.0065482156 0.0057522058
-0.0084949071 0.0063711801 0.005821079
-0.0075643929 0.0064837653 0.0053437948
-0.0066029048 0.0066029048 0.0051368177
-0.0054702987 0.0065643582 0.0053394139
-0.0043429527 0.0065144286 0.0053394139
-0.0033507482 0.0067014964 0.0053437948
-0.0021938719 0.0065816157 0.0053495169
-0.0010843258 0.0065059545 0.0055636168
0 0.0065348744 0.0056884885
0.0010631697 0.0063790181 0.0055036843
0.0021604616 0.0064813844 0.0054957569
0.0033141682 0.0066283364 0.0042352676
0.0043539265 0.0065308893 0.004024595
-0.008856385 0.0077493368 0.004204601
-0.0010943412 0.007660388 0.0044811964
0 0.0075255549 0.0042690337
0 0 0 1 0 0 0 1 0 0 0 1 0 0 0 0 0 549 1 0 0
