ply
format ascii 1.0
comment PCL generated
element vertex 931
property float x
property float y
property float z
element camera 1
property float view_px
property float view_py
property float view_pz
property float x_axisx
property float x_axisy
property float x_axisz
property float y_axisx
property float y_axisy
property float y_axisz
property float z_axisx
property float z_axisy
property float z_axisz
property float focal
property float scalex
property float scaley
property float centerx
property float centery
property int viewportx
property int viewporty
property float k1
property float k2
end_header
-0.0073241522 -0.023018762 0.017861158
-0.0062587396 -0.022948712 0.01786831
-0.0051454804 -0.022640113 0.01786831
-0.0041968622 -0.023082741 0.017750382
-0.0031252499 -0.022918498 0.019504309
-0.0020666069 -0.022732677 0.017684132
-0.01017245 -0.021362146 0.018696994
-0.0092532709 -0.021590967 0.019804657
-0.0082810875 -0.021737855 0.019285709
-0.0072526834 -0.02175805 0.020009577
-0.0062299883 -0.02180496 0.019793719
-0.0051346007 -0.021565324 0.019899189
-0.0041506621 -0.021790976 0.019618094
-0.0030770784 -0.021539548 0.020565957
-0.0020696849 -0.021731691 0.019771546
-0.0010311377 -0.021653891 0.020211905
0 -0.02139182 0.020019978
0.0010289456 -0.021607857 0.020093054
-0.012303978 -0.02050663 0.019558877
-0.011301553 -0.020548278 0.019979864
-0.010359435 -0.020718871 0.019961596
-0.0092106164 -0.020468036 0.019999832
-0.0082962718 -0.020740679 0.020410448
-0.0072642653 -0.020755043 0.020957768
-0.0062439372 -0.020813124 0.020562083
-0.0051794057 -0.020717623 0.020659685
-0.004150949 -0.020754743 0.020782232
-0.0031014043 -0.020676028 0.020571738
-0.0020742121 -0.02074212 0.020735085
-0.001033401 -0.020668019 0.020284981
0 -0.020635197 0.020184427
0.0010332182 -0.020664364 0.020777553
0.0020447371 -0.02044737 0.020519644
0.003094462 -0.020629747 0.019271672
-0.01427566 -0.01937411 0.019420862
-0.013317229 -0.019463643 0.020435154
-0.012251412 -0.019398069 0.0207614
-0.011330385 -0.019570665 0.021176457
-0.01022187 -0.019421553 0.021187246
-0.0092988722 -0.019630952 0.020259202
-0.0082714604 -0.019644719 0.019934297
-0.0072041899 -0.019554229 0.020782232
-0.0062457924 -0.019778343 0.020265788
-0.0051434943 -0.019545279 0.02036795
-0.0041521844 -0.019722875 0.020558745
-0.0030908184 -0.019575184 0.020472229
-0.0020697138 -0.019662281 0.020425677
-0.001029933 -0.019568728 0.020803213
0 -0.019502828 0.020803213
0.0010263395 -0.019500451 0.020868331
0.0020550962 -0.019523414 0.021014243
0.0030973963 -0.019616844 0.020732015
0.0040898188 -0.019426638 0.020226061
0.0051437989 -0.019546436 0.018747866
-0.016384963 -0.018433081 0.019952118
-0.015515781 -0.018618936 0.019815922
-0.014296055 -0.018380642 0.019979298
-0.013198463 -0.018274793 0.020482451
-0.012367535 -0.018551303 0.021176457
-0.011302889 -0.018495638 0.021291226
-0.010336921 -0.018606458 0.020824403
-0.0093196752 -0.01863935 0.020328194
-0.0081934864 -0.018435344 0.020398319
-0.0072395545 -0.018615996 0.020581782
-0.0061935233 -0.018580571 0.019823313
-0.0051754555 -0.018631641 0.019361824
-0.0041397503 -0.018628875 0.019976288
-0.0030937332 -0.018562399 0.019684553
-0.0020708053 -0.018637246 0.019320458
-0.0010353514 -0.018636325 0.019851357
0 -0.018613357 0.01985088
0.0010282855 -0.018509137 0.020495325
0.0020711708 -0.018640537 0.020801872
0.0030893476 -0.018536085 0.02165094
0.0041027162 -0.018462222 0.020969033
0.0051852008 -0.018666724 0.020577788
0.0061430926 -0.018429277 0.020226061
0.0072195162 -0.01856447 0.018397391
-0.018511157 -0.017482761 0.020610183
-0.017293243 -0.017293243 0.021053761
-0.016525049 -0.017557865 0.020673543
-0.015453551 -0.017514024 0.020361334
-0.014474056 -0.017575638 0.020293683
-0.013423119 -0.017553309 0.020370722
-0.012268776 -0.017380767 0.020499229
-0.011335607 -0.017518666 0.02049765
-0.010321606 -0.01754673 0.020542711
-0.0093541294 -0.017668912 0.020130396
-0.0082962187 -0.017629465 0.01980263
-0.0071994113 -0.017484285 0.020139307
-0.0061828694 -0.017518131 0.019377142
-0.0052104383 -0.017715489 0.018665165
-0.0041467808 -0.017623819 0.01903522
-0.0031141741 -0.017646987 0.018092483
-0.0020809004 -0.017687652 0.017929852
-0.0010376576 -0.017640179 0.018862784
0 -0.017573953 0.018883258
0.0010326621 -0.017555255 0.019958973
0.0020387438 -0.017329322 0.020311117
0.0030982743 -0.017556887 0.021452665
0.0041333791 -0.017566862 0.021592796
0.0051297247 -0.017441064 0.020871311
0.006225266 -0.017638253 0.020871311
0.0071699913 -0.017412836 0.020871311
0.0081826849 -0.017388206 0.020745903
0.0092614926 -0.017493932 0.020081252
-0.020727066 -0.016581653 0.01910606
-0.019567065 -0.016477529 0.02105549
-0.018487861 -0.016433654 0.021841943
-0.017566144 -0.016532842 0.022294819
-0.0165511 -0.0165511 0.022254586
-0.015496236 -0.016529318 0.020892531
-0.014529247 -0.016604854 0.020323426
-0.013350877 -0.016431848 0.020361602
-0.01241108 -0.016548108 0.020389855
-0.011350173 -0.016509343 0.019892842
-0.010325104 -0.016520167 0.020227015
-0.009413749 -0.016735556 0.019654423
-0.0082722194 -0.016544439 0.019357234
-0.0072427941 -0.016554959 0.018532336
-0.0062511275 -0.016669674 0.018602699
-0.0052645863 -0.016846677 0.016679704
-0.0041769384 -0.016707754 0.016780198
-0.0031457494 -0.016777331 0.016780198
-0.0020862324 -0.016689859 0.016419023
-0.0010454413 -0.01672706 0.016984403
0 -0.016614031 0.018101424
0.0010419075 -0.016670519 0.018930316
0.0020501642 -0.016401313 0.020380288
0.0030964001 -0.016514134 0.020710617
0.0040684943 -0.016273977 0.021255642
0.0051463973 -0.016468473 0.021409869
0.0062379683 -0.016634583 0.021597326
0.0072278697 -0.016520845 0.021754533
0.0082074068 -0.016414814 0.021594703
0.0091747334 -0.016310638 0.02122587
0.010256278 -0.016410045 0.020021677
-0.021622179 -0.015444413 0.019942701
-0.020696202 -0.015522152 0.02100563
-0.01949841 -0.015393482 0.022040635
-0.018527996 -0.015439996 0.022626281
-0.017487116 -0.015429809 0.02263537
-0.016493276 -0.015462446 0.021897435
-0.01543106 -0.01543106 0.020883441
-0.014291088 -0.01531188 0.020293683
-0.013437673 -0.015505007 0.02042219
-0.012368428 -0.015460535 0.020220488
-0.011353949 -0.015482659 0.019886196
-0.010304173 -0.015456261 0.01980263
-0.0093521578 -0.01558693 0.019136459
-0.0083149327 -0.015590498 0.017691791
-0.0073223915 -0.015690839 0.016671777
-0.0062981579 -0.015745396 0.016143441
-0.0051484178 -0.015445255 0.016064167
-0.0042143883 -0.015803955 0.015653074
-0.0031497097 -0.015748547 0.015394032
-0.0020917964 -0.015688471 0.015921384
-0.0010467001 -0.0157005 0.016324043
0 -0.015648453 0.016984403
0.0010278109 -0.015417163 0.018186331
0.0020740042 -0.015555032 0.019029617
0.0030923125 -0.015461562 0.020061225
0.0041332296 -0.015499611 0.020363092
0.0051121661 -0.015336498 0.021302253
0.006163999 -0.015409998 0.021142155
0.0072324076 -0.015498017 0.022075653
0.0082525499 -0.015473532 0.022147745
0.0092743058 -0.015457177 0.022147745
0.010291991 -0.015437987 0.022087395
0.011378069 -0.01551555 0.022087395
-0.022812793 -0.014517233 0.019457668
-0.02168675 -0.014457833 0.02016753
-0.020695634 -0.014486945 0.021210998
-0.019753451 -0.014555174 0.02267161
-0.018514328 -0.014400033 0.022561103
-0.017388301 -0.014319777 0.022790909
-0.01649574 -0.014433772 0.021767646
-0.015383128 -0.014357585 0.020683736
-0.014421125 -0.014421125 0.020242721
-0.013396922 -0.014427455 0.019470155
-0.01234104 -0.014397881 0.019703716
-0.011536565 -0.014682901 0.018968821
-0.010297796 -0.014416914 0.018457025
-0.0093217511 -0.014500502 0.017956823
-0.0083887968 -0.014680394 0.016671777
-0.0072420179 -0.014484036 0.015519083
-0.006260341 -0.014607462 0.01521641
-0.0052058571 -0.0145764 0.015640259
-0.0041872268 -0.014655294 0.015606731
-0.0031289717 -0.014601868 0.015031427
-0.0021039292 -0.014727504 0.015201777
-0.0010389948 -0.014545926 0.015714973
0 -0.014613369 0.015773356
0.0010528277 -0.014739587 0.017100245
0.002073948 -0.014517635 0.018069595
0.0031123359 -0.014524234 0.018658102
0.0041669966 -0.014584487 0.019029617
0.0051461421 -0.014409198 0.020445198
0.0061689438 -0.014394202 0.020983666
0.007213016 -0.014426032 0.021597326
0.0082610957 -0.014456918 0.022090018
0.0091956407 -0.01430433 0.022149593
0.010240532 -0.014336744 0.022195607
0.011266528 -0.014339217 0.022263736
0.012447757 -0.014522383 0.020040363
-0.023844203 -0.013477158 0.019427925
-0.022787936 -0.013465598 0.020083636
-0.021600388 -0.013371669 0.02124998
-0.020682769 -0.0134438 0.02185142
-0.019611692 -0.013418525 0.022995889
-0.018607939 -0.013439068 0.02267161
-0.017490169 -0.013374834 0.023234189
-0.016289599 -0.013235298 0.022396207
-0.015543374 -0.013470924 0.020728737
-0.014421487 -0.01339138 0.020422429
-0.013478027 -0.013478027 0.019287497
-0.012367665 -0.013398304 0.019107789
-0.011402841 -0.013476085 0.018166959
-0.010312065 -0.013405686 0.017020047
-0.0094064344 -0.013587072 0.016724914
-0.0083695175 -0.013600466 0.015401036
-0.0073023438 -0.013561496 0.015021384
-0.0062912148 -0.013630966 0.01493609
-0.0052239681 -0.013582317 0.015316427
-0.0041992799 -0.013647661 0.015226752
-0.0031588532 -0.013688364 0.015505224
-0.0020921619 -0.013599052 0.015614957
-0.0010468829 -0.013609479 0.016031921
0 -0.013537425 0.016278476
0.0010359741 -0.013467663 0.016511589
0.0020543775 -0.013353453 0.017059952
0.0031319777 -0.013571903 0.017663658
0.0041422397 -0.013462279 0.01804018
0.0051831389 -0.013476161 0.018942565
0.0062378342 -0.013515308 0.020376772
0.0071240505 -0.01323038 0.021419793
0.0082617914 -0.013425411 0.021931529
0.00922109 -0.013319354 0.022091031
0.010274902 -0.013357373 0.022470802
0.011286239 -0.013338283 0.022726208
0.012317226 -0.013343662 0.021814287
0.013375878 -0.013375878 0.02067399
-0.023693513 -0.012361833 0.020026892
-0.022649128 -0.01235407 0.020877302
-0.021783566 -0.012447752 0.021475315
-0.020746468 -0.012447881 0.022310585
-0.019572733 -0.012361726 0.023040205
-0.018491024 -0.01232735 0.022405565
-0.01743149 -0.012304581 0.023040205
-0.016486721 -0.01236504 0.021887094
-0.015606708 -0.012485366 0.020601988
-0.014475482 -0.012407555 0.019327909
-0.013490957 -0.012453192 0.01835072
-0.01243223 -0.01243223 0.018105567
-0.011527043 -0.012574956 0.017565131
-0.010356739 -0.012428087 0.014607757
-0.009436233 -0.012581644 0.01420626
-0.0083735837 -0.012560375 0.01447311
-0.007270494 -0.012463704 0.014741063
-0.0062759826 -0.012551965 0.014678359
-0.0052322978 -0.012557515 0.015102208
-0.0041893688 -0.012568107 0.014795423
-0.0031314909 -0.012525964 0.014522165
-0.0020892778 -0.012535666 0.01535663
-0.0010517796 -0.012621355 0.015637994
0 -0.012625782 0.015778601
0.0010431859 -0.012518231 0.016702086
0.0020769665 -0.012461798 0.016717464
0.0031196061 -0.012478424 0.017724425
0.0041218419 -0.012365526 0.018154889
0.0052073109 -0.012497547 0.018206507
0.0062244264 -0.012448853 0.019657522
0.007201816 -0.01234597 0.020521611
0.0082214866 -0.01233223 0.021365792
0.0092969406 -0.01239592 0.022549003
0.010350646 -0.012420776 0.022854775
0.011376252 -0.012410458 0.022963911
0.012322572 -0.012322572 0.022627383
0.013329408 -0.012304069 0.022969902
0.014409819 -0.012351274 0.020461529
-0.023646226 -0.011309064 0.02090168
-0.022662802 -0.011331401 0.021175086
-0.021544818 -0.01128538 0.022295326
-0.020656638 -0.011361151 0.022494227
-0.019306917 -0.011177688 0.023195744
-0.018447412 -0.011273419 0.022782922
-0.017468972 -0.011303453 0.022615075
-0.016555142 -0.01138166 0.022338986
-0.015403171 -0.011295659 0.020139903
-0.014563507 -0.011442756 0.018591821
-0.013405601 -0.011343201 0.018592149
-0.012634175 -0.011581327 0.017647952
-0.011439401 -0.011439401 0.016693294
-0.010381856 -0.011420042 0.014195621
-0.0093804216 -0.01146496 0.014220178
-0.0084239114 -0.011582877 0.014008999
-0.0073277545 -0.011515043 0.012859911
-0.0063254335 -0.011596628 0.012843549
-0.0053055068 -0.011672115 0.012743026
-0.0041986904 -0.011546399 0.012865156
-0.0031929712 -0.011707561 0.013245523
-0.0021129553 -0.011621254 0.014041245
-0.0010541714 -0.011595884 0.013848901
0 -0.011449086 0.015139461
0.001041798 -0.011459778 0.01565659
0.0020648034 -0.011356418 0.016177982
0.003162069 -0.011594254 0.016534388
0.0041526128 -0.011419685 0.017689168
0.005177821 -0.011391207 0.017871767
0.0062241419 -0.011410926 0.018517166
0.0072761355 -0.011433926 0.01960966
0.0082259774 -0.011310718 0.020878345
0.0092191817 -0.011267889 0.022463769
0.010275223 -0.011302745 0.022726208
0.011292621 -0.011292621 0.022812366
0.01239145 -0.011358829 0.022227108
0.013324028 -0.011274177 0.02314809
0.014339217 -0.011266528 0.021107614
-0.024806675 -0.010336115 0.020109326
-0.023651969 -0.010283464 0.021932304
-0.022577247 -0.010262385 0.022156656
-0.021387713 -0.010184625 0.022598863
-0.020655556 -0.010327778 0.023441344
-0.019416925 -0.010219434 0.023896307
-0.018550556 -0.010305865 0.023006082
-0.017409032 -0.010240607 0.02248767
-0.016537709 -0.010336068 0.021279365
-0.015555855 -0.010370569 0.020413637
-0.01447491 -0.010339221 0.018931955
-0.013491224 -0.010377864 0.018436939
-0.012450022 -0.010375018 0.017314732
-0.011523934 -0.010476303 0.014279395
-0.010552553 -0.010552553 0.013294011
-0.0094704367 -0.010522707 0.013068885
-0.008427389 -0.010534236 0.011794746
-0.0073836967 -0.010548138 0.01149416
-0.0063404762 -0.01056746 0.011360973
-0.0052808644 -0.010561729 0.0099980533
-0.0042711347 -0.010677836 0.010094494
-0.0032012269 -0.010670756 0.011913419
-0.0020951729 -0.010475864 0.012313187
-0.0010547891 -0.010547889 0.012645125
0 -0.010421744 0.012819678
0.0010539356 -0.010539356 0.012757361
0.0021040724 -0.010520361 0.014540404
0.0031158291 -0.010386096 0.015527159
0.0041992096 -0.010498024 0.016548127
0.0052327123 -0.010465425 0.017724425
0.0062073618 -0.010345603 0.018190235
0.0072441888 -0.010348841 0.019344151
0.0082703969 -0.010337995 0.019895971
0.0092757298 -0.010306367 0.021466702
0.010270412 -0.010270412 0.022424847
0.01123974 -0.010217945 0.022863388
0.012303792 -0.01025316 0.022850662
0.013276588 -0.010212759 0.02289781
0.014429707 -0.010306933 0.022483885
0.015311896 -0.010207931 0.020279855
-0.025006758 -0.0093775345 0.020958513
-0.023749953 -0.0092934594 0.022093266
-0.022672322 -0.0092750406 0.022270948
-0.021525769 -0.0092253285 0.023140013
-0.02058615 -0.0092637679 0.023883283
-0.019362543 -0.0091717299 0.024279922
-0.018588925 -0.0092944624 0.023007452
-0.017653381 -0.0093459077 0.022378176
-0.01671119 -0.0094000446 0.021163285
-0.015456263 -0.0092737572 0.02030018
-0.014414357 -0.0092663718 0.018947601
-0.013532419 -0.0093685966 0.017970145
-0.012459534 -0.0093446504 0.015944988
-0.011539364 -0.0094412975 0.013702184
-0.010444093 -0.0093996841 0.011809826
-0.0095011666 -0.0095011666 0.011238664
-0.0084971264 -0.0095592663 0.010698706
-0.0074340533 -0.0095580686 0.0094304383
-0.0063708415 -0.0095562618 0.0092184842
-0.0053073885 -0.0095532993 0.0074973702
-0.0042779716 -0.0096254358 0.007496506
-0.0032021482 -0.0096064452 0.007607609
-0.0021099274 -0.0094946725 0.0077047944
-0.0010680191 -0.009612171 0.0112091
0 -0.0095085073 0.012072682
0.0010444884 -0.0094003957 0.011678398
0.002086519 -0.0093893353 0.013112992
0.0031719736 -0.0095159207 0.014248639
0.0041850731 -0.0094164144 0.01494661
0.0052610622 -0.0094699115 0.017689168
0.0062282104 -0.0093423156 0.017246068
0.0071878727 -0.0092415502 0.019308895
0.0083089191 -0.0093475338 0.021258742
0.0092389816 -0.0092389816 0.021888524
0.01029296 -0.0092636636 0.022227108
0.011208902 -0.0091709197 0.023017466
0.012169982 -0.0091274865 0.023157507
0.013185495 -0.0091284188 0.023226649
0.014329918 -0.0092120897 0.022725374
0.015422454 -0.0092534721 0.02057445
-0.024786085 -0.008262028 0.021101803
-0.023706414 -0.0082457094 0.022260964
-0.022661468 -0.008240534 0.022655666
-0.021445086 -0.008169556 0.023729831
-0.020532442 -0.008212978 0.023883283
-0.01934737 -0.0081462609 0.024264276
-0.018424381 -0.0081886137 0.022971034
-0.01759633 -0.0082806265 0.02211836
-0.016463544 -0.0082317721 0.021475703
-0.015530188 -0.0082827667 0.019617498
-0.014570362 -0.0083259214 0.018519104
-0.013598089 -0.0083680553 0.017326623
-0.012585968 -0.0083906455 0.013896853
-0.011589581 -0.0084287859 0.012452394
-0.010483043 -0.008386435 0.010260403
-0.0095548788 -0.008493226 0.0081459284
-0.0085848598 -0.0085848598 0.0083944798
0 -0.0084485542 0.0093698502
0.001060943 -0.008487544 0.010417074
0.00210248 -0.0084099201 0.011456698
0.003162815 -0.0084341737 0.012826562
0.0041891965 -0.008378393 0.014499933
0.0051653315 -0.0082645305 0.015392184
0.0062727961 -0.0083637284 0.017975032
0.0072424426 -0.0082770772 0.019613177
0.0082620615 -0.0082620615 0.020878345
0.0092641562 -0.0082348054 0.022019655
0.01016857 -0.0081348568 0.022441775
0.011265134 -0.0081928251 0.023357779
0.012270807 -0.0081805382 0.024063081
0.013291543 -0.0081794113 0.024462402
0.014298266 -0.008170438 0.023177117
0.015387633 -0.0082067372 0.021219641
-0.024796007 -0.0072321687 0.021229595
-0.023759319 -0.0072310967 0.022403449
-0.022635741 -0.0072022816 0.023051471
-0.021455038 -0.0071516791 0.024711788
-0.020778181 -0.0072723636 0.024711788
-0.019306621 -0.007112965 0.024331927
-0.018677387 -0.007263429 0.023352593
-0.017632362 -0.0072603836 0.021648169
-0.016478933 -0.0072095334 0.020457119
-0.015510811 -0.0072383783 0.019715518
-0.014669139 -0.0073345695 0.017949373
-0.013586053 -0.0073155668 0.014848858
-0.012470284 -0.0072743329 0.012922317
0.0021255016 -0.0074392557 0.010160923
0.0031459543 -0.0073405602 0.011613876
0.0041325749 -0.0072320062 0.014402896
0.0052039791 -0.0072855712 0.014716178
0.0062273699 -0.0072652651 0.017185181
0.007161709 -0.007161709 0.019066185
0.0082014939 -0.0071763075 0.019492418
0.0092470357 -0.007192139 0.021363795
0.010289722 -0.0072028055 0.021998882
0.011240859 -0.007153274 0.023029804
0.012295512 -0.0071723824 0.024063081
0.013260482 -0.0071402593 0.024362415
0.014414944 -0.0072074719 0.023592502
0.015514466 -0.007240084 0.022423059
-0.024861276 -0.006215319 0.021290869
-0.023658084 -0.0061716735 0.022937447
-0.022487998 -0.0061330902 0.024136662
-0.021358734 -0.0061024949 0.025421202
-0.02057199 -0.0061715967 0.024948001
-0.019464768 -0.006146769 0.024449617
-0.018617846 -0.006205949 0.02322939
-0.01752745 -0.0061861589 0.021207869
-0.016600469 -0.0062251757 0.019919455
-0.015813023 -0.006325209 0.019438118
-0.014533248 -0.0062285345 0.015545607
-0.013657107 -0.0063032801 0.013536096
0.0031729683 -0.0063459366 0.0098049641
0.0042300443 -0.0063450662 0.012826562
0.0052352822 -0.0062823389 0.014682829
0.0062027504 -0.0062027504 0.018603176
0.0073395139 -0.0062910118 0.019762576
0.0082618091 -0.0061963568 0.020325154
0.0092627713 -0.0061751809 0.021511555
0.010263931 -0.0061583584 0.023144066
0.011169582 -0.006092499 0.024239421
0.012304056 -0.0061520278 0.024328619
0.013310926 -0.0061435043 0.024362415
0.014346432 -0.006148471 0.023592502
0.015334145 -0.0061336579 0.022397012
-0.024574377 -0.0051196618 0.02149114
-0.023476891 -0.0051036719 0.023825914
-0.022519574 -0.0051180846 0.024689436
-0.021437461 -0.0051041571 0.025304884
-0.020400969 -0.0051002423 0.025003761
-0.019331207 -0.0050871596 0.024324834
-0.018522004 -0.0051450008 0.02322939
-0.017629538 -0.005185158 0.021415621
-0.01661176 -0.0051911753 0.019853055
-0.015649058 -0.0052163526 0.017181873
0.0052016261 -0.0052016261 0.01344201
0.006201135 -0.0051676123 0.017744601
0.0072296695 -0.0051640496 0.019292414
0.0082859881 -0.0051787426 0.020155311
0.0093091726 -0.0051717628 0.022299886
0.010228322 -0.0051141609 0.023293018
0.011139126 -0.005063239 0.024313718
0.012310329 -0.0051293033 0.02548638
0.013360499 -0.0051386538 0.025408864
0.014375076 -0.0051339553 0.024184197
0.015404128 -0.0051347092 0.022279412
-0.024756193 -0.0041260323 0.022436976
-0.02353075 -0.0040923045 0.025340199
-0.022409039 -0.0040743705 0.025823981
-0.021370295 -0.0040705325 0.026286542
-0.020506285 -0.0041012573 0.025739163
-0.019425482 -0.0040895753 0.024493515
-0.018449066 -0.0040997928 0.023860276
-0.017530615 -0.0041248505 0.022354066
-0.016564462 -0.0041411156 0.019438833
0.0062993416 -0.0041995612 0.01445666
0.0072486494 -0.0041420856 0.019070715
0.0082447678 -0.0041223839 0.020019233
0.0092200106 -0.0040977825 0.02195406
0.010365145 -0.0041460581 0.023523331
0.011216539 -0.0040787417 0.024459213
0.012233153 -0.0040777177 0.025186479
0.013231741 -0.004071305 0.025329769
0.014372067 -0.0041063051 0.024752438
0.015313166 -0.004083511 0.022512794
-0.02479033 -0.0030987912 0.024221987
-0.023625068 -0.0030815306 0.024597496
-0.022455066 -0.0030620545 0.026548982
-0.021554893 -0.0030792702 0.026610494
-0.020224167 -0.003033625 0.026364058
-0.01949071 -0.0030774802 0.025493056
-0.018450566 -0.0030750942 0.024119854
-0.017450219 -0.0030794505 0.022850454
-0.016536554 -0.0031006041 0.019616216
0.0072522219 -0.0031080951 0.018801033
0.0082761608 -0.0031035603 0.019630253
0.0092119826 -0.0030706609 0.022772729
0.010271502 -0.0030814505 0.024237067
0.011184603 -0.0030503462 0.024669588
0.012191001 -0.0030477503 0.02600652
0.01322807 -0.0030526316 0.02597037
0.014211143 -0.0030452448 0.024740696
0.015344575 -0.0030689149 0.022809416
-0.024640257 -0.0020533549 0.024169445
-0.023484027 -0.0020420894 0.024557054
-0.022464791 -0.0020422537 0.026525259
-0.021264961 -0.0020252343 0.027007401
-0.020317048 -0.0020317049 0.026261955
-0.019532671 -0.0020560708 0.025702715
-0.018493613 -0.0020548461 0.024188071
-0.017371783 -0.0020437392 0.023236424
-0.016715204 -0.0020894005 0.020464092
0.0072681257 -0.0020766074 0.017799199
0.008258732 -0.002064683 0.020009547
0.0092022503 -0.0020449446 0.022887111
0.010268005 -0.002053601 0.025706261
0.011085548 -0.0020155541 0.025886774
0.012243119 -0.0020405198 0.02669099
0.013307502 -0.002047308 0.02669099
0.014306061 -0.0020437229 0.025256008
0.015335675 -0.0020447567 0.02376762
-0.024643408 -0.0010268087 0.023973167
-0.023600457 -0.0010261068 0.024531871
-0.02258555 -0.001026616 0.026669174
-0.02140582 -0.0010193248 0.027007401
-0.020385444 -0.0010192723 0.02650398
-0.01932108 -0.001016899 0.026314795
-0.018370984 -0.0010206103 0.024493515
-0.017439263 -0.001025839 0.023536861
-0.016509674 -0.0010318547 0.021708727
0.0082724653 -0.0010340582 0.020531118
0.0092423875 -0.001026932 0.022887111
0.010191295 -0.0010191295 0.025737196
0.01119561 -0.0010177827 0.026006699
0.012190575 -0.0010158813 0.026792705
0.013313173 -0.0010240902 0.026961267
0.014160309 -0.0010114507 0.025455385
0.015324851 -0.0010216568 0.024408251
-0.024609886 0 0.024353385
-0.02339611 0 0.026319474
-0.022281568 0 0.02725035
-0.021324048 0 0.027683586
-0.020281978 0 0.027136832
-0.019152187 0 0.026877671
-0.018542087 0 0.025811076
-0.017327467 0 0.023536861
-0.016469756 0 0.021691531
0.0082602995 0 0.020609468
0.0091732871 0 0.024362057
0.010198032 0 0.026372701
0.011089039 0 0.026749969
0.012195732 0 0.026856124
0.013210219 0 0.026884675
0.014251638 0 0.025616497
0.015270059 0 0.024408251
-0.02457183 0.0010238263 0.023903579
-0.023414241 0.0010180104 0.024815768
-0.022381956 0.0010173616 0.026914299
-0.021430116 0.0010204817 0.027136832
-0.020508461 0.0010254231 0.026898682
-0.019422917 0.0010222588 0.026414901
-0.01833809 0.0010187828 0.026069671
-0.017479654 0.0010282149 0.02493605
-0.016223073 0.0010139421 0.02216053
0.0082246708 0.0010280838 0.02105993
0.0092862779 0.0010318088 0.025069237
0.010174228 0.0010174228 0.026577115
0.011066209 0.001006019 0.026730776
0.012182529 0.0010152108 0.027559489
0.013268013 0.0010206164 0.02720207
0.014268657 0.0010191898 0.026407629
0.015344958 0.0010229972 0.024944127
-0.024464963 0.0020387471 0.024117857
-0.02340422 0.0020351496 0.026089966
-0.022444699 0.0020404272 0.026228338
-0.02129565 0.0020281572 0.026997626
-0.020440063 0.0020440065 0.027094454
-0.019347517 0.0020365808 0.026366234
-0.018233757 0.0020259731 0.0268538
-0.017515738 0.0020606751 0.02534005
-0.01605038 0.0020062975 0.022920936
0.0081919171 0.0020479793 0.023005575
0.0091907289 0.0020423844 0.025435358
0.010105861 0.0020211723 0.027461767
0.011135833 0.0020246971 0.027778745
0.012210208 0.0020350346 0.027615607
0.013222731 0.0020342662 0.027310193
0.01426767 0.0020382386 0.02685377
0.01533202 0.0020442693 0.025009215
-0.024622345 0.0030777932 0.02492559
-0.023553664 0.0030722169 0.026094675
-0.022151021 0.0030205939 0.026334047
-0.021571515 0.0030816449 0.02666229
-0.02043 0.0030645002 0.027094454
-0.019442108 0.0030698061 0.026414901
-0.018170977 0.0030284964 0.026693791
-0.017439863 0.003077623 0.026343495
-0.016243139 0.0030455885 0.025690049
0.0082108099 0.0030790537 0.024504513
0.0090945764 0.0030315255 0.028606683
0.010117285 0.0030351856 0.029266506
0.01103375 0.0030092045 0.027924359
0.012111283 0.0030278207 0.02762562
0.013289865 0.003066892 0.027375013
0.014192374 0.0030412232 0.026483059
0.015233986 0.0030467971 0.024529874
-0.02462473 0.0041041216 0.024341017
-0.023406146 0.004070634 0.025687575
-0.022465291 0.0040845983 0.026094675
-0.021246264 0.0040469072 0.026877791
-0.020445388 0.0040890779 0.027279943
-0.019435897 0.0040917676 0.027279943
-0.018316401 0.0040703118 0.027834743
-0.017141229 0.0040332302 0.027423292
-0.01629932 0.0040748301 0.026656598
0.008051645 0.0040258225 0.028973877
0.0090565234 0.0040251217 0.029430836
0.010085978 0.0040343911 0.029747784
0.011044236 0.0040160855 0.028983682
0.012196586 0.0040655285 0.028273702
0.013196091 0.0040603359 0.027502477
0.01424581 0.0040702312 0.027032226
0.015273866 0.0040730308 0.024751633
-0.024532018 0.0051108371 0.023428679
-0.023518892 0.0051128026 0.024471134
-0.022269117 0.0050611631 0.02544415
-0.021295534 0.005070365 0.026875108
-0.020508144 0.005127036 0.028547853
-0.019137966 0.0050363066 0.028681904
-0.018083459 0.0050231828 0.028443664
-0.017329223 0.00509683 0.028149962
-0.015921636 0.0049755108 0.028480291
-0.015254245 0.0050847484 0.025252193
0.0070406278 0.0050290199 0.02946189
0.0080236224 0.0050147637 0.029860198
0.0090540741 0.0050300411 0.029471993
0.010164932 0.0050824662 0.029778838
0.011180023 0.0050818282 0.029144764
0.012120917 0.0050503816 0.028161913
0.013217111 0.0050835041 0.027572721
0.01426503 0.0050946535 0.026815921
0.015323703 0.0051079011 0.024930447
-0.024598366 0.0061495914 0.022780716
-0.023351489 0.0060916925 0.024633199
-0.022408979 0.0061115399 0.025403321
-0.021480199 0.0061371997 0.02738753
-0.020177405 0.0060532214 0.028757572
-0.019265747 0.0060839201 0.029126227
-0.018259346 0.0060864491 0.029253304
-0.017165015 0.0060582403 0.029119194
-0.016117981 0.006044243 0.030086905
-0.015111157 0.0060444623 0.028581113
-0.014151085 0.0060647507 0.026377678
0.0059715831 0.0059715831 0.028986871
0.0070344121 0.006029496 0.029607445
0.0080813775 0.0060610333 0.029913634
0.0090696709 0.0060464479 0.03004095
0.010124356 0.0060746134 0.029963464
0.011157515 0.0060859169 0.029144794
0.012197287 0.0060986434 0.027973682
0.013162789 0.0060751336 0.027566135
0.014300368 0.0061287289 0.025990248
0.015221736 0.0060886946 0.024765164
-0.024679162 0.0071980888 0.022203624
-0.023690721 0.0072102197 0.024183303
-0.022576816 0.0071835327 0.025524229
-0.021272207 0.0070907357 0.027237475
-0.020131528 0.007046035 0.028681904
-0.01934596 0.0071274587 0.029051363
-0.018197216 0.0070766951 0.029619068
-0.016962398 0.0069845165 0.029486507
-0.016322011 0.0071408795 0.029187351
-0.014815369 0.0069138389 0.028693318
-0.014176101 0.0070880507 0.029395729
-0.013111558 0.0070600696 0.027981251
0.0049918331 0.0069885664 0.028779835
0.0059936517 0.0069925939 0.030549496
0.0070733828 0.0070733828 0.030574232
0.0081371265 0.0071199858 0.030050159
0.009097279 0.0070756623 0.030375183
0.010194644 0.0071362513 0.029981732
0.011112147 0.0070713661 0.029284507
0.012184361 0.0071075438 0.028391242
0.013270779 0.0071458039 0.027441382
0.014312582 0.007156291 0.025672883
0.015315246 0.0071471147 0.024416178
-0.023581829 0.0082023749 0.022586703
-0.022621293 0.0082259253 0.023819447
-0.021579325 0.008220695 0.026084423
-0.020229224 0.00809169 0.027379543
-0.01917382 0.0080731874 0.028041214
-0.018278582 0.0081238141 0.029142261
-0.017170763 0.0080803595 0.029187351
-0.016075641 0.0080378205 0.029355556
-0.015232285 0.0081238858 0.029395729
-0.014099525 0.0080568716 0.029580146
-0.012907373 0.0079429988 0.029580146
-0.01202365 0.0080157667 0.028971642
0.0039692512 0.0079385024 0.030542225
0.0050232979 0.0080372775 0.030908287
0.0060701766 0.0080935685 0.031201899
0.0070726248 0.0080829998 0.030660897
0.0080996873 0.0080996873 0.030050159
0.0091325091 0.0081177857 0.030137032
0.010064964 0.0080519719 0.02961567
0.011077438 0.0080563184 0.029153168
0.012145035 0.0080966903 0.028557688
0.013148965 0.0080916714 0.027411431
0.01428803 0.0081645884 0.025405735
-0.022425925 0.0091742426 0.022486597
-0.021364689 0.0091562942 0.02329123
-0.020591022 0.0092659593 0.026065469
-0.019099917 0.0090473285 0.027063072
-0.018181149 0.0090905745 0.028938979
-0.017085988 0.0090455227 0.029179722
-0.016140085 0.009078797 0.029355556
-0.015037761 0.0090226559 0.029044449
-0.014158481 0.0091018807 0.029606313
-0.013002528 0.0090017496 0.030394763
-0.012059572 0.0090446789 0.030394763
-0.011019875 0.0090162614 0.031026989
-0.010031522 0.0090283696 0.03071785
0.0020055647 0.009025041 0.030656904
0.0029953162 0.0089859478 0.030386746
0.0040246337 0.0090554254 0.031294018
0.0050400989 0.009072178 0.03176719
0.0060128015 0.0090192026 0.03204155
0.0070176371 0.0090226764 0.030741811
0.0080636637 0.0090716211 0.029925734
0.0090217758 0.0090217758 0.029925734
0.010110746 0.0090996707 0.029340208
0.011112378 0.0090919454 0.029008269
0.012129766 0.0090973247 0.027253509
0.013180742 0.0091251293 0.025124907
-0.021594802 0.010283238 0.022486597
-0.020415686 0.010207843 0.022966772
-0.019391473 0.010206038 0.025211096
-0.018290779 0.010161543 0.026702404
-0.017331384 0.010194931 0.028890729
-0.01625802 0.010161262 0.029116243
-0.014940017 0.0099600106 0.029606313
-0.014141437 0.010101026 0.030202031
-0.013119767 0.010092129 0.030257732
-0.011953571 0.0099613089 0.030257732
-0.011046702 0.010042457 0.03123033
-0.0099699888 0.0099699888 0.031232715
-0.0090217888 0.01002421 0.031715125
-0.0080241812 0.010030227 0.031852961
-0.0070146616 0.010020944 0.031799257
-0.0059989141 0.0099981902 0.03034994
-0.0050404095 0.010080819 0.030902147
-0.0040263454 0.010065863 0.030303895
-0.0030004415 0.010001471 0.029327571
-0.0020214163 0.010107081 0.029427737
-0.00099986733 0.0099986736 0.029937655
0 0.010035279 0.029846787
0.0010034639 0.010034638 0.030071735
0.0020060553 0.010030276 0.03078559
0.0030461578 0.010153859 0.030709773
0.0040222006 0.010055501 0.031044453
0.0050120666 0.010024133 0.03089565
0.005985749 0.0099762483 0.030908287
0.0070415391 0.010059342 0.030084997
0.0080563594 0.01007045 0.029519886
0.0091578085 0.010175344 0.029519886
0.010112584 0.010112584 0.028965354
0.011127804 0.010116186 0.027494431
-0.018406857 0.011248635 0.024111599
-0.017112844 0.011073017 0.026621819
-0.016098119 0.011067457 0.028106481
-0.015222268 0.011162996 0.028583974
-0.014119191 0.01109365 0.029394001
-0.013057927 0.011049015 0.029723436
-0.012078538 0.011071993 0.030729771
-0.011068766 0.011068766 0.03101176
-0.0099815233 0.010979676 0.031061023
-0.0089663537 0.010958877 0.031957537
-0.0080041541 0.011005712 0.032409906
-0.0070095086 0.011014942 0.032519907
-0.0060259462 0.011047568 0.032400638
-0.0050071673 0.011015768 0.032342255
-0.0039807349 0.010947021 0.031401962
-0.003003353 0.011012294 0.030607164
-0.0020047049 0.011025877 0.030815244
-0.0010103466 0.011113812 0.030543506
0 0.010957625 0.030751586
0.0010072379 0.011079618 0.030751586
0.0020182361 0.011100299 0.030816704
0.0030220042 0.011080681 0.030708462
0.0040090159 0.011024793 0.030781955
0.0050422121 0.011092867 0.03056097
0.006118462 0.011217181 0.031025916
0.0070269993 0.011042427 0.030084997
0.0081348103 0.011185364 0.028761625
0.0090902997 0.011110366 0.027923584
0.010156402 0.011172043 0.026475579
-0.016170043 0.012127533 0.024837285
-0.015075004 0.012060002 0.026707351
-0.014033756 0.012028934 0.029456645
-0.013071246 0.012065765 0.030328065
-0.012067435 0.012067435 0.030293643
-0.011104161 0.012113631 0.030396968
-0.010077684 0.012093221 0.030340105
-0.0090287756 0.012038368 0.031435758
-0.0081244763 0.012186714 0.031853676
-0.0070196693 0.012033719 0.032235384
-0.0060280734 0.012056147 0.03225714
-0.0049827346 0.011958563 0.032521546
-0.0040452951 0.012135885 0.032231033
-0.003017399 0.012069596 0.032159567
-0.0019983442 0.011990066 0.031855643
-0.0010078971 0.012094764 0.031477839
0 0.012063353 0.031475008
0.0010103351 0.01212402 0.031449556
0.0019981004 0.011988603 0.030751586
0.0029892416 0.011956966 0.03003329
0.0040094592 0.012028377 0.029693305
0.0050235665 0.01205656 0.029969633
0.0060712197 0.012142439 0.02874133
0.0070282011 0.012048345 0.026748806
-0.015293986 0.013254787 0.024241269
-0.014259476 0.013240942 0.026522726
-0.013063891 0.013063891 0.028192222
-0.012147636 0.013159939 0.029939383
-0.011073809 0.01308723 0.030293643
-0.01014757 0.013191842 0.030082345
-0.0090116197 0.013016785 0.029647797
-0.0080799721 0.013129955 0.030602038
-0.0069986484 0.01299749 0.031214356
-0.0060199248 0.013043171 0.031179875
-0.0050064167 0.013016684 0.031877697
-0.0039925701 0.012975853 0.031805396
-0.0030072911 0.013031594 0.031890869
-0.0020245155 0.01315935 0.031435668
-0.00099727523 0.012964577 0.030681282
0 0.013015322 0.030056924
0.0010089763 0.013116691 0.029478848
0.0019963598 0.012976339 0.02949664
0.0030248424 0.01310765 0.029053539
0.0040500979 0.013162818 0.02818051
0.0050268313 0.013069762 0.027707815
-0.013243318 0.014262035 0.02561447
-0.01208156 0.014095154 0.025895
-0.011206222 0.014262464 0.029870272
-0.0099213142 0.01388984 0.02973333
-0.0090651438 0.014101335 0.029033065
-0.0080597959 0.014104642 0.029436499
-0.0070095742 0.014019148 0.030151308
-0.0060274606 0.014064075 0.030501068
-0.0050154398 0.014043231 0.030504018
-0.004016608 0.014058128 0.031300992
-0.003003747 0.014017487 0.030810863
-0.0020138635 0.014097045 0.030632824
-0.0010031022 0.01404343 0.029971898
0 0.014048592 0.0292539
0.00099414424 0.013918019 0.02888003
0.0020208105 0.014145673 0.028268009
0.0030381153 0.014177871 0.027392209
-0.010005697 0.015008545 0.027656019
-0.0090665165 0.015110862 0.029011011
-0.0080683259 0.015128111 0.028616428
-0.007067366 0.015144356 0.029006034
-0.0060620089 0.015155023 0.030117244
-0.0050238203 0.015071461 0.030349642
-0.0040167319 0.015062746 0.030637085
-0.0030508186 0.015254093 0.030259222
-0.0020189215 0.015141913 0.029392123
-0.0010109326 0.015163989 0.028811485
0 0.015236242 0.028250635
0.0010054486 0.015081729 0.027557582
0.0020393948 0.015295461 0.026102215
-0.0090398751 0.016070889 0.027356386
-0.0080602365 0.016120473 0.028915495
-0.0070244661 0.016055923 0.028546035
-0.0060449736 0.016119931 0.028950483
-0.005075423 0.016241355 0.028964072
-0.0040173186 0.016069274 0.02856639
-0.0030099472 0.016053053 0.028377891
-0.0020374914 0.016299931 0.028366506
-0.001008276 0.016132416 0.025725842
0 0.016116867 0.025749803
-0.0080935154 0.017198721 0.024921507
-0.0070493259 0.017119791 0.026930451
-0.0061002709 0.017284101 0.02718401
-0.0050569302 0.017193563 0.026754975
-0.0040069143 0.017029386 0.024941742
-0.0030593472 0.017336302 0.025356412
-0.0020332611 0.017282719 0.025249809
-0.0010138378 0.017235242 0.024297029
-0.0061299368 0.01838981 0.0251849
-0.0050448054 0.018161299 0.023949683
-0.0040323031 0.018145364 0.024141014
-0.0030542624 0.018325573 0.023661673
0 0 0 1 0 0 0 1 0 0 0 1 0 0 0 0 0 931 1 0 0
