ply
format ascii 1.0
comment PCL generated
element vertex 856
property float x
property float y
property float z
element camera 1
property float view_px
property float view_py
property float view_pz
property float x_axisx
property float x_axisy
property float x_axisz
property float y_axisx
property float y_axisy
property float y_axisz
property float z_axisx
property float z_axisy
property float z_axisz
property float focal
property float scalex
property float scaley
property float centerx
property float centery
property int viewportx
property int viewporty
property float k1
property float k2
end_header
-0.011192513 0.048840057 0.022776484
-0.010064912 0.048311576 0.023796946
-0.0091815172 0.048968092 0.022838235
-0.0081293322 0.048775993 0.022130281
-0.0071164602 0.048798583 0.023010671
-0.0061204066 0.048963252 0.022975385
-0.0050732703 0.048703395 0.022646189
-0.0041284687 0.049541622 0.021804661
-0.00311004 0.04976064 0.021273851
-0.0020657638 0.049578328 0.020089686
-0.01431454 0.050100889 0.021571994
-0.01317443 0.049657468 0.023060054
-0.012031276 0.049127709 0.023373097
-0.011173865 0.049774487 0.024066001
-0.010173841 0.049851824 0.024725646
-0.0091041699 0.049567148 0.024331212
-0.0081719253 0.050053038 0.024162203
-0.0071194181 0.049835924 0.024529576
-0.0060931621 0.049760822 0.02469191
-0.0050805304 0.049789198 0.024068087
-0.0040814825 0.04999816 0.023531854
-0.0030246833 0.049403161 0.023057163
-0.0020403324 0.049988143 0.022196233
-0.0010239281 0.050172474 0.021567851
0 0.049959105 0.020222038
-0.017429238 0.051262464 0.02237916
-0.016023561 0.050073627 0.023141742
-0.015183141 0.050610475 0.024680853
-0.014267856 0.050956633 0.024341255
-0.013087875 0.050337981 0.024905086
-0.012271462 0.051131092 0.024898112
-0.0111199 0.050545003 0.024968982
-0.010117517 0.050587583 0.024573117
-0.0090834312 0.050463513 0.024316102
-0.0081094271 0.050683923 0.02351293
-0.007126566 0.050904043 0.024629831
-0.0061156265 0.050963555 0.024883837
-0.0050696051 0.050696053 0.024121612
-0.0040439381 0.050549231 0.024220109
-0.0030633311 0.051055521 0.024342984
-0.0020381378 0.050953448 0.023720384
-0.0010175657 0.050878286 0.023209184
0 0.050597094 0.022576302
0.0010194414 0.050972071 0.021399766
-0.020265706 0.051677551 0.022229135
-0.019410847 0.0521028 0.022375911
-0.018272756 0.051772811 0.023597687
-0.017228637 0.051685907 0.024904221
-0.016092084 0.051293522 0.02504316
-0.01514398 0.051489532 0.025176734
-0.014175415 0.051639013 0.025243849
-0.013145901 0.051572382 0.025176734
-0.012097158 0.051412921 0.025028795
-0.011135072 0.051626243 0.024968982
-0.010141586 0.051722091 0.024513125
-0.0091758529 0.051996503 0.024508178
-0.0081093283 0.051696971 0.023768753
-0.0071226601 0.051893666 0.024573475
-0.0060868738 0.05173843 0.024737567
-0.0051000859 0.052020878 0.024059772
-0.0040700207 0.051892765 0.024121612
-0.0030543956 0.051924728 0.024121612
-0.0020300047 0.051765118 0.024834216
-0.0010187618 0.051956851 0.024462849
0 0.05162077 0.023590863
0.0010039427 0.051201079 0.023315072
0.0020350853 0.051894676 0.022528797
0.0030658271 0.052119061 0.020912558
-0.021277206 0.052686416 0.022286475
-0.020371635 0.052966252 0.025395036
-0.019214215 0.052586269 0.025590807
-0.01821479 0.052620504 0.026192337
-0.017115355 0.052352849 0.026192337
-0.016172068 0.052559223 0.02580151
-0.015268804 0.052931853 0.025758833
-0.014101558 0.052377217 0.025938898
-0.013126031 0.052504122 0.02570051
-0.011943199 0.05175386 0.025238752
-0.011090991 0.052430142 0.02510947
-0.010083369 0.052433521 0.024508178
-0.0091473786 0.052851524 0.02437228
-0.0081053115 0.052684527 0.023611754
-0.0070416895 0.052309692 0.023874521
-0.0061248513 0.053082045 0.024355233
-0.0051259818 0.053310212 0.023798972
-0.0040600253 0.05278033 0.023583889
-0.003015517 0.052268963 0.024097383
-0.002048953 0.053272776 0.024805576
-0.0010047739 0.05224824 0.025380224
0 0.052701171 0.024187714
0.0010132997 0.052691579 0.024409413
0.0020059012 0.052153427 0.024365872
0.0030712055 0.053234231 0.022323281
0.0040726019 0.052943822 0.021139294
-0.022261713 0.053630486 0.024671108
-0.021223459 0.053563964 0.02542907
-0.020077705 0.053205922 0.025462538
-0.019417973 0.054165926 0.025462538
-0.018179579 0.053528763 0.025936037
-0.01731313 0.053976227 0.0261994
-0.016090516 0.053299833 0.025896877
-0.01516331 0.053577028 0.025938898
-0.01428139 0.054065261 0.025720894
-0.013015771 0.053064298 0.025461853
-0.012283747 0.054253217 0.024862409
-0.011161196 0.05377667 0.024687082
-0.010052322 0.05327731 0.023867786
-0.0092483126 0.054462288 0.023867786
-0.0081273559 0.053843733 0.023190618
-0.0070834183 0.053631593 0.02338779
-0.006126503 0.054117441 0.023003966
-0.005108614 0.054151308 0.022753268
-0.0040570237 0.053755563 0.023268342
-0.0030294142 0.053519651 0.023332059
-0.002022421 0.053594157 0.024046123
-0.0010128518 0.053681146 0.024772942
0 0.053895961 0.024187714
0.0010066258 0.053351168 0.024469107
0.0020284657 0.053754341 0.024890751
0.0030065659 0.053115997 0.024172783
0.0039760284 0.052682374 0.02335304
0.0051037781 0.054100052 0.023264617
-0.023272499 0.054639783 0.024959058
-0.021946458 0.053868581 0.025315672
-0.02114174 0.054364473 0.026162028
-0.02022201 0.05459943 0.026231587
-0.019179946 0.054511428 0.026331842
-0.018094297 0.054282896 0.026286513
-0.017228425 0.054725584 0.026219726
-0.01611712 0.054395281 0.025896877
-0.01517917 0.054645013 0.02550301
-0.014074637 0.054287888 0.024982661
-0.013096296 0.054400004 0.025533706
-0.012294212 0.055323958 0.02540648
-0.011069823 0.054342773 0.024167508
-0.010190983 0.055031314 0.023310095
-0.0091751376 0.055050831 0.023335099
-0.0081280712 0.054864481 0.022861898
-0.0070920889 0.054710403 0.022679806
-0.006132104 0.055188939 0.022625625
-0.0050942469 0.055017874 0.022700936
-0.0040914626 0.055234749 0.02196607
-0.0030492661 0.054886788 0.022466242
-0.0020441147 0.0551911 0.023306727
-0.0010203143 0.055096976 0.024716914
0 0.054473899 0.024675071
0.0010048449 0.054261629 0.024940729
0.0020287663 0.054776691 0.025418222
0.0030108353 0.054195039 0.026353747
0.0040438483 0.054591954 0.025311947
0.005016604 0.054179326 0.025223643
0.0060603246 0.054542921 0.025024563
0.0070679816 0.054524433 0.023030311
-0.024113571 0.055260271 0.024959058
-0.023095515 0.055228405 0.025767595
-0.022296103 0.05574026 0.026131839
-0.021011807 0.055030923 0.026431024
-0.020292493 0.055804357 0.026414305
-0.019249216 0.055721413 0.026414305
-0.01824468 0.055747636 0.026414305
-0.017114943 0.055371873 0.025923818
-0.016226666 0.055779163 0.024834812
-0.01508808 0.055322964 0.02454254
-0.014179812 0.055706404 0.024251789
-0.01306916 0.055292603 0.024146885
-0.012136498 0.055625614 0.023879796
-0.011213585 0.056067929 0.022363961
-0.010129604 0.055712827 0.022628576
-0.0091465255 0.055895437 0.022636205
-0.0081398487 0.055961464 0.022351086
-0.0071637053 0.056286257 0.021918982
-0.0061028744 0.055943016 0.021217912
-0.0051088529 0.056197383 0.022048861
-0.0040949271 0.056305245 0.022000641
-0.0030553138 0.056014091 0.022317141
-0.0020417399 0.056147847 0.022823274
-0.0010192483 0.056058656 0.023960173
0 0.05599238 0.024127632
0.001015201 0.055836055 0.024790436
0.0019896694 0.054715909 0.025524765
0.0030364674 0.05566857 0.026170284
0.0039956225 0.05493981 0.027456105
0.0049807993 0.054788794 0.027521223
0.0060137231 0.055125795 0.027545989
0.007086758 0.055681672 0.026466727
0.0080209905 0.055144314 0.024329007
-0.025318485 0.056713402 0.024928212
-0.024114074 0.056266174 0.026236624
-0.023194455 0.056473453 0.026653618
-0.022264659 0.056673683 0.027231604
-0.021028737 0.056076631 0.027600467
-0.020086572 0.056242399 0.027693361
-0.019120049 0.056353826 0.027307779
-0.01812881 0.056400746 0.026784867
-0.017264003 0.05686966 0.024731606
-0.016068615 0.056240153 0.024286121
-0.015214205 0.056799699 0.023978323
-0.014195271 0.056781083 0.024019986
-0.013112579 0.05648496 0.023926526
-0.01221929 0.057023354 0.023484826
-0.011272189 0.057385691 0.021780372
-0.010069413 0.056388717 0.021989316
-0.009159172 0.056990404 0.021694988
-0.0081404615 0.056983232 0.021590263
-0.0070403935 0.056323148 0.020920426
-0.0060801478 0.056748047 0.020811141
-0.0051050019 0.05717602 0.021064073
-0.0040679309 0.056951031 0.02164042
-0.0030426804 0.056796703 0.02191487
-0.0020401997 0.057125591 0.02245459
-0.0010053749 0.056300998 0.023312062
0 0.057062041 0.023837715
0.0010067034 0.056375392 0.024148583
0.0020230501 0.056645401 0.0243963
0.003028007 0.056522794 0.026103079
0.0039831521 0.055764128 0.027384967
0.0050313356 0.056350958 0.027404845
0.0059989975 0.055990644 0.027786076
0.0069968607 0.055974886 0.027542323
0.0080515901 0.056361128 0.027186811
0.0091314614 0.056817982 0.024453104
-0.025205823 0.057469271 0.026154578
-0.024227239 0.057539694 0.026684463
-0.023222489 0.057551384 0.027067065
-0.022185367 0.057480272 0.027951628
-0.021243021 0.057659626 0.027693361
-0.020141134 0.057402235 0.027693361
-0.019137505 0.057412513 0.026962012
-0.018237611 0.057752438 0.026059091
-0.017145256 0.05748703 0.02489233
-0.016171152 0.057609729 0.024327695
-0.015240614 0.057914335 0.024148077
-0.014159112 0.057647813 0.023926526
-0.013110399 0.057484057 0.023340821
-0.012297608 0.058413636 0.021924794
-0.011158103 0.057819262 0.021109492
-0.010242748 0.058383666 0.019386321
-0.0092684375 0.058700103 0.019547105
-0.0082269683 0.058617149 0.019337773
-0.0072285035 0.058860667 0.01963824
-0.0061830687 0.058739156 0.019679666
-0.0051243608 0.058417715 0.020279616
-0.0041198838 0.058708344 0.020732403
-0.0030579257 0.058100589 0.02115339
-0.0020216254 0.057616323 0.022317141
-0.0010230762 0.05831534 0.02248475
0 0.056994233 0.023779541
0.001015108 0.057861149 0.024172783
0.0020451678 0.058287282 0.024209559
0.0030016059 0.057030514 0.025957853
0.0039897412 0.056853812 0.026510864
0.0050105802 0.057120614 0.027698159
0.0059951106 0.056953549 0.028042972
0.0070366892 0.057298757 0.028391421
0.0080217654 0.057155076 0.027958065
0.0090348795 0.057220902 0.027671695
0.010137744 0.057785142 0.0247024
-0.026211748 0.058472365 0.024738401
-0.025103629 0.058240421 0.027622789
-0.024162358 0.058392368 0.027817667
-0.022948289 0.057869602 0.027853787
-0.022164324 0.058433224 0.028037965
-0.021190006 0.05852478 0.027927756
-0.020141294 0.058409754 0.027725726
-0.019135363 0.058413219 0.026801586
-0.018032625 0.05810513 0.026059091
-0.017208926 0.05871281 0.024703026
-0.016202128 0.058732715 0.024204791
-0.01516832 0.05865084 0.023779482
-0.014171864 0.058712009 0.023060471
-0.013232023 0.059035186 0.022258788
-0.012291111 0.05940704 0.020007938
-0.011202617 0.059068345 0.019460857
-0.01032722 0.059897881 0.018055022
-0.0092505161 0.059614439 0.017932713
-0.0082264869 0.059642032 0.017950803
-0.0071735871 0.059438296 0.018393099
-0.0061577228 0.059524655 0.018418252
-0.0051159202 0.059344675 0.018720716
-0.004071367 0.059034824 0.019649237
-0.0030979428 0.059893563 0.02036494
-0.0020539821 0.059565485 0.020822495
-0.0010132419 0.058768038 0.022000641
0 0.058887213 0.023934245
0.0010140265 0.058813538 0.024768978
0.0020233274 0.058676496 0.024497986
0.0030344017 0.0586651 0.025373757
0.0040443339 0.058642842 0.02703169
0.0050064032 0.058074281 0.027300358
0.0060762661 0.058737244 0.028004259
0.0070367465 0.058304474 0.0286268
0.0079798466 0.057853889 0.028853357
0.0090278992 0.058179803 0.027880371
0.010051531 0.058298878 0.026261508
0.011146215 0.058770955 0.024509519
-0.026344836 0.059782512 0.026562035
-0.02515338 0.059361976 0.027694672
-0.024091596 0.059225176 0.028246373
-0.023232378 0.059596099 0.027964622
-0.022103408 0.059277326 0.027566701
-0.021020511 0.059057627 0.027563512
-0.02023291 0.059687089 0.027662307
-0.019106777 0.05933157 0.026673853
-0.018284351 0.059932042 0.025485992
-0.017261177 0.059906442 0.024573475
-0.016119186 0.059439495 0.023790479
-0.015431453 0.060697049 0.023173273
-0.014184522 0.059777629 0.020235091
-0.013320565 0.060454872 0.019535959
-0.012386567 0.060900621 0.019479245
-0.011308055 0.060652301 0.01753518
-0.010224025 0.060321748 0.016958952
-0.009273259 0.06079137 0.016958952
-0.0082544228 0.060876366 0.017442971
-0.0072077527 0.060751058 0.017940432
-0.0061953282 0.06092073 0.017837584
-0.0051430422 0.0606879 0.018277109
-0.0041241981 0.060831923 0.018379956
-0.0030999104 0.060964905 0.019900501
-0.0020517993 0.060528077 0.020320714
-0.00102422 0.060428981 0.020976394
0 0.060261894 0.021497756
0.0010031071 0.059183318 0.024249375
0.0020241716 0.059713066 0.024146914
0.003031506 0.05961962 0.024907202
0.0040117619 0.059173487 0.02703169
0.0050353738 0.059417415 0.028039694
0.0060342839 0.059337124 0.028200686
0.0069637224 0.058694232 0.029095203
0.0080469521 0.059346274 0.028941035
0.0090811187 0.059531782 0.028779298
0.010007531 0.059044439 0.027958065
0.011195294 0.060047485 0.024876684
-0.026006727 0.060015522 0.026786178
-0.025196927 0.060472623 0.027633548
-0.024191216 0.060478043 0.029166877
-0.023055023 0.060143534 0.029119462
-0.022080822 0.060220428 0.028551072
-0.021186138 0.060531821 0.028529584
-0.020074999 0.060224999 0.027837425
-0.01919941 0.060629718 0.026937991
-0.018214822 0.060716074 0.02578333
-0.017293829 0.061037049 0.024800509
-0.016353384 0.061325189 0.023445874
-0.015411385 0.061645541 0.020085275
-0.014328704 0.061408732 0.018656373
-0.013416797 0.061923675 0.017122835
-0.012397978 0.061989885 0.016513944
-0.011396111 0.062160611 0.016414165
-0.010364986 0.062189914 0.015332401
-0.0093702637 0.062468428 0.014737248
-0.0083092991 0.062319744 0.015050977
-0.0072659054 0.062279187 0.015172213
-0.0061847544 0.061847545 0.015062809
-0.0051749377 0.062099252 0.016694486
-0.0041610477 0.062415715 0.017375529
-0.0030700201 0.061400402 0.017633498
-0.0020658867 0.061976604 0.019515991
-0.0010263801 0.061582807 0.020814657
0 0.061481684 0.020624399
0.0010243299 0.061459795 0.023741245
0.0020183702 0.060551107 0.024426639
0.0030381822 0.060763646 0.025316805
0.004062159 0.060932383 0.026166141
0.0050196745 0.060236096 0.027232021
0.0059915716 0.059915718 0.027844936
0.0069886227 0.059902478 0.029429346
0.0079432232 0.059574172 0.029755473
0.0089486828 0.05965789 0.029718041
0.010015347 0.060092084 0.028168708
0.011130885 0.060713921 0.026463121
-0.027431153 0.061974082 0.024688751
-0.025978385 0.060949285 0.026652575
-0.025211718 0.061516587 0.028111309
-0.024043668 0.061110992 0.028606147
-0.023017462 0.06104631 0.028862774
-0.02199191 0.060977571 0.028541416
-0.021177065 0.061514329 0.028710455
-0.020119376 0.061364099 0.027776033
-0.019079071 0.061253853 0.026359022
-0.018259048 0.061877888 0.024136633
-0.017262878 0.061943267 0.023200631
-0.016435046 0.062658615 0.019542098
-0.015213239 0.06186717 0.018133849
-0.014429684 0.062872194 0.016802162
-0.0020863411 0.063633405 0.016991019
-0.0010231074 0.062409554 0.020209193
0 0.06252373 0.02057606
0.0010204552 0.062247764 0.021497756
0.0020128021 0.061390463 0.02309984
0.0030390485 0.061793987 0.025230289
0.0040384759 0.06158676 0.025433958
0.0049997373 0.060996797 0.027257681
0.0060273288 0.061277844 0.027635604
0.0069906809 0.060918789 0.029535264
0.0079875384 0.06090498 0.02978158
0.009005039 0.061034154 0.030093104
0.0100472 0.061287925 0.028820515
0.0109213 0.060563575 0.028067768
0.012188059 0.061955966 0.025116771
-0.027157921 0.062362637 0.025724053
-0.026104691 0.062249649 0.027538449
-0.024707623 0.061274905 0.028992742
-0.023877319 0.061683077 0.029771984
-0.023105705 0.062284943 0.029727161
-0.021985002 0.061957739 0.02878198
-0.020965684 0.061898686 0.028551072
-0.02014073 0.062436264 0.027742565
-0.019196576 0.062641464 0.026143551
-0.018360561 0.063241936 0.023061097
-0.017450865 0.063644335 0.019724667
-0.016459713 0.063781388 0.018464744
-0.0010244105 0.06351345 0.017135054
0 0.06424588 0.020320714
0.001022422 0.063390166 0.02082175
0.0020486817 0.063509136 0.021034986
0.0030212773 0.062439732 0.023883164
0.0039918907 0.061874308 0.025278658
0.0050484715 0.062601052 0.027257681
0.0060554319 0.0625728 0.028049111
0.0069800448 0.061823256 0.029100627
0.0080288798 0.062223822 0.030413628
0.0089333467 0.061540835 0.030382335
0.009940424 0.061630633 0.030052453
0.011055018 0.062310107 0.028619379
0.012080133 0.062414024 0.025920421
-0.027227128 0.063529961 0.026630104
-0.025922868 0.062813103 0.028192759
-0.024875591 0.062686488 0.029990941
-0.024129441 0.063339785 0.030222297
-0.022882538 0.062678255 0.03009671
-0.022095731 0.063274138 0.029221803
-0.021200247 0.063600741 0.028111309
-0.020123443 0.063388847 0.027306914
-0.019328741 0.064090036 0.025983065
0 0.064266801 0.017625064
0.001029983 0.064888932 0.019781262
0.0020377815 0.06419012 0.02025491
0.0030450611 0.063946284 0.023170084
0.0040081972 0.063129105 0.024644315
0.005019444 0.063244998 0.027459651
0.0060664946 0.063698195 0.028259903
0.0070292377 0.063263141 0.029182494
0.0079940232 0.062952936 0.030495584
0.0089554144 0.062687904 0.030504197
0.01002997 0.063188814 0.030524045
0.010995834 0.062976144 0.029890835
0.012058915 0.063309304 0.028343678
-0.027135532 0.064321265 0.02798602
-0.025787896 0.063477896 0.029737115
-0.025116896 0.064299256 0.030896991
-0.023997521 0.063993394 0.03032431
-0.022952517 0.063867874 0.030279011
-0.022149369 0.064434528 0.028758913
-0.020896589 0.063684843 0.027833551
-0.020125294 0.064400949 0.027306914
-0.019162435 0.064547151 0.023613423
0.0020427729 0.065368734 0.020161539
0.003059597 0.065271407 0.02157405
0.0039873794 0.06379807 0.025096416
0.0050090733 0.064116143 0.027376235
0.0061027976 0.065096505 0.027717471
0.0070374743 0.064342618 0.028435618
0.0079283249 0.063426599 0.030455917
0.0089356974 0.063542746 0.031862676
0.0099538602 0.063704707 0.031862676
0.010922726 0.063550413 0.030825108
0.012044864 0.064239271 0.028253376
-0.026820092 0.064566888 0.028219789
-0.02593397 0.064834923 0.030597866
-0.024979414 0.064946473 0.031686693
-0.023757419 0.064343013 0.030711651
-0.023084503 0.065238811 0.030279011
-0.021983357 0.064950831 0.028379053
-0.020940153 0.064814761 0.027325451
-0.02019315 0.065627739 0.026263058
0.002044739 0.066454016 0.018540114
0.0030862007 0.066867679 0.022178233
0.0040149423 0.065242812 0.023897827
0.004956854 0.064439103 0.027720362
0.0059895497 0.064886786 0.027996451
0.0070203878 0.065189317 0.029464155
0.0079901991 0.064920373 0.030936629
0.0089538498 0.064666696 0.031790882
0.009932504 0.064561278 0.031166494
0.010942926 0.06466274 0.030936629
0.011972276 0.064849824 0.02804175
-0.026939113 0.065851159 0.03035295
-0.026039192 0.066099487 0.031857967
-0.024891434 0.065713383 0.032530129
-0.02380996 0.065477386 0.031588852
-0.022880536 0.065657184 0.031015068
-0.022072421 0.066217259 0.029766172
-0.021112254 0.066352792 0.027293563
-0.020105803 0.066349149 0.02598995
0.0040523256 0.066863365 0.023897827
0.0050252625 0.066333465 0.02816692
0.006048522 0.066533737 0.028621942
0.0070516979 0.066487439 0.029878408
0.0079167606 0.065313272 0.032066673
0.0088793701 0.065115377 0.032176793
0.0098918593 0.065286271 0.032284111
0.010880351 0.065282106 0.031442285
-0.02662692 0.066074207 0.030974329
-0.025549667 0.065839529 0.032818317
-0.024885908 0.06669423 0.033391744
-0.023762904 0.066338107 0.032734334
-0.02282436 0.066488355 0.032458335
-0.022130897 0.067398645 0.030938476
-0.020994015 0.066980906 0.029187113
-0.020234641 0.067786045 0.026455313
0.0040538139 0.06790138 0.025199622
0.0049901577 0.066868119 0.027840734
0.0060486021 0.067542724 0.029964179
0.0069520394 0.066540949 0.03060919
0.0079140421 0.066280104 0.031790882
0.0088768629 0.066083312 0.032664984
0.0099016894 0.066341326 0.032814831
0.010923566 0.066534452 0.031587899
-0.026635481 0.067081951 0.031827182
-0.025980638 0.067949362 0.033806622
-0.024944738 0.067849688 0.034286529
-0.023851126 0.067578197 0.033871979
-0.022803988 0.067420483 0.033312052
-0.02198319 0.067948043 0.032387763
-0.020755982 0.067209847 0.028993368
-0.020192739 0.06865532 0.026974916
0.0040466213 0.068792559 0.025393248
0.0050106524 0.06814488 0.027679324
0.0060270075 0.068306081 0.029830068
0.0069820061 0.067825198 0.031312734
0.0079204133 0.067323513 0.032706201
0.0089186588 0.067385428 0.033528835
0.0098880166 0.067238517 0.033598363
0.010938921 0.067622423 0.032473028
-0.027731845 0.068339191 0.030165941
-0.026731296 0.068313308 0.032283157
-0.025793703 0.068452522 0.033779085
-0.024748486 0.06830582 0.03392911
-0.02378078 0.068369739 0.034608275
-0.022706226 0.068118677 0.034286529
-0.021853955 0.068541951 0.033364743
-0.021177091 0.069581866 0.03031975
-0.019999517 0.068998337 0.026975989
0.0040213852 0.069368891 0.024139702
0.0049686134 0.068566866 0.027817935
0.0059805224 0.068776004 0.030376792
0.0069660665 0.068665512 0.031410754
0.007953167 0.068596065 0.032734215
0.0088122264 0.067560405 0.032708615
0.0099175461 0.068431072 0.033551425
0.010861033 0.068128303 0.032146245
-0.027830942 0.069577351 0.030212492
-0.026749203 0.069349781 0.032694787
-0.025536638 0.068752483 0.033779085
-0.024690133 0.069132365 0.034657091
-0.023767911 0.069323078 0.035254866
-0.022480145 0.068417832 0.035231024
-0.021732617 0.069149241 0.034286529
-0.02112158 0.070405267 0.031945854
-0.020001903 0.070006661 0.029676527
0.0039829337 0.069701336 0.025611103
0.0049566096 0.069392532 0.029968679
0.0060709687 0.070827968 0.031143486
0.0069198315 0.06919831 0.032655537
0.0078806365 0.068955563 0.033537805
0.0089301104 0.069456413 0.034098357
0.0098917512 0.069242261 0.034324914
0.010799659 0.068725102 0.033361018
-0.027951598 0.070877261 0.030995846
-0.026863985 0.07064233 0.032351434
-0.025533563 0.069726266 0.033181995
-0.024687113 0.070111394 0.034637153
-0.02374197 0.070236661 0.035590738
-0.022727 0.070157252 0.035518199
-0.021747099 0.070183821 0.0349572
-0.020824246 0.070405781 0.033312052
-0.020019762 0.071070157 0.030310005
0.0039447313 0.070018977 0.026449084
0.0050382377 0.071542978 0.03060919
0.0059750876 0.070705205 0.032273054
0.0068618306 0.069598563 0.03426522
0.0078926366 0.070047148 0.03463456
0.008842025 0.069753759 0.035398602
0.0097770933 0.069417365 0.034418374
0.010932364 0.070563436 0.033386558
-0.027662953 0.071133308 0.030322909
-0.026865341 0.071640901 0.032485723
-0.02576546 0.0713505 0.034075618
-0.024517735 0.070611075 0.035084486
-0.023700096 0.07110028 0.03526181
-0.022710303 0.071093112 0.035132647
-0.021481957 0.070304587 0.034996957
-0.020649128 0.070797004 0.034940451
-0.020012315 0.072044335 0.03173238
-0.018919405 0.071694583 0.029676527
0.0039751879 0.071553379 0.030244529
0.0058677336 0.070412807 0.034596235
0.0068823816 0.070790209 0.035533726
0.0079165809 0.071249224 0.035569578
0.0088581787 0.07086543 0.035580814
0.0098982481 0.071267381 0.035456568
0.01078114 0.070567459 0.033500493
-0.027816763 0.072522283 0.030865848
-0.02693441 0.072822668 0.031968862
-0.025363542 0.071213029 0.03450799
-0.024855776 0.07257887 0.035084486
-0.023775967 0.072318569 0.03526181
-0.022612216 0.071769208 0.035213679
-0.021638598 0.071800813 0.035722375
-0.020567128 0.071495257 0.035762191
-0.019919682 0.072706841 0.03347373
-0.019264052 0.074014515 0.031563222
-0.01794369 0.072771639 0.029499233
0.0049156868 0.071769036 0.035237044
0.0058665997 0.071376964 0.036189526
0.0068634101 0.071575567 0.036287487
0.0078248298 0.071401574 0.036287487
0.0088262288 0.071590528 0.035935998
0.009896908 0.072247431 0.035387576
0.010813353 0.071761347 0.033500493
-0.02664789 0.073034957 0.032644242
-0.025683692 0.07309974 0.034073055
-0.024804378 0.073420957 0.035530388
-0.023730962 0.073170468 0.035439163
-0.022730248 0.073132105 0.0367167
-0.021729115 0.073088847 0.036559433
-0.020503944 0.072251998 0.037099689
-0.019694064 0.072868042 0.036559433
-0.018900467 0.073612347 0.032407373
-0.018003659 0.074015051 0.031323552
0.0039834306 0.073693469 0.035237044
0.0049278927 0.072932817 0.037645936
0.005883059 0.072557732 0.037654996
0.0068179769 0.072075762 0.037633568
0.0078765051 0.072857678 0.03766185
0.0088223098 0.072538994 0.036678195
0.0098757297 0.073080406 0.036078393
0.010826353 0.072831839 0.033961177
-0.025796587 0.074413233 0.033336908
-0.024432853 0.073298559 0.034823149
-0.023730373 0.074157417 0.03530702
-0.02258243 0.073638365 0.0367167
-0.021594295 0.073616922 0.037366092
-0.020552561 0.073402002 0.037366092
-0.019599032 0.073496372 0.037285089
-0.018556431 0.073249072 0.037188113
-0.017934147 0.07472562 0.034858018
0.0029697516 0.074243791 0.035618693
0.0039001359 0.073127545 0.037452132
0.0048930156 0.073395237 0.038441628
0.0058286381 0.072857976 0.038447917
0.0068832822 0.073749453 0.037992954
0.0078264652 0.073373117 0.037804693
0.008867953 0.073899612 0.036678195
0.0098629016 0.073971763 0.036012232
0.010895293 0.074286096 0.033715159
-0.024737166 0.07520099 0.034544051
-0.023623442 0.074807569 0.034898818
-0.022676723 0.074931778 0.035907596
-0.021683183 0.074905545 0.0367167
-0.020515585 0.074246876 0.036880851
-0.019726541 0.074960858 0.036672354
-0.018702621 0.074810483 0.037573189
-0.01746279 0.073731788 0.036399454
-0.016758919 0.074922226 0.035817713
0.0019733314 0.074986599 0.036050349
0.0029297615 0.074220628 0.037432402
0.0039201635 0.074483104 0.038908839
0.0048245979 0.073333889 0.039279282
0.0058263424 0.073800333 0.039274365
0.0068386402 0.074248098 0.03905803
0.007870337 0.074768201 0.037905931
0.0088278018 0.074545883 0.036364317
0.0098284679 0.074696362 0.035706222
0.010820512 0.074759908 0.033398956
-0.02354086 0.07552693 0.034190327
-0.02276117 0.076200441 0.035658985
-0.021595608 0.075584628 0.036614656
-0.020447129 0.074972808 0.036642581
-0.019677993 0.075760275 0.037427962
-0.018775837 0.07609155 0.038252264
-0.017616259 0.075358443 0.038192213
-0.01658136 0.075103812 0.038666368
-0.015369173 0.073964149 0.038380176
0.00097933388 0.075408705 0.037080675
0.0019276344 0.074213922 0.037743598
0.0029329013 0.075277805 0.03796187
0.0038797974 0.074686103 0.03928557
0.0048825447 0.075191192 0.039017588
0.0058574225 0.075170256 0.038908839
0.0068572792 0.075430073 0.038732976
0.0078724548 0.075772382 0.038497925
0.0087833265 0.075146243 0.03650707
0.0098873889 0.076132894 0.035075396
-0.022672243 0.076888479 0.034190327
-0.021535598 0.076353483 0.035520703
-0.02076897 0.077141888 0.035838932
-0.01967481 0.076731764 0.03655529
-0.018511517 0.075994648 0.038192213
-0.01770599 0.07672596 0.038891912
-0.016579734 0.076071724 0.039718449
-0.015591652 0.076009303 0.039474368
-0.014627506 0.076063029 0.039702952
-0.013421575 0.074777342 0.038851827
-0.000978817 0.076347724 0.037813693
0 0.075143553 0.038553089
0.00097361015 0.075941592 0.039094388
0.0019359513 0.075502098 0.038872719
0.0029128601 0.075734362 0.039023817
0.0038935465 0.075924158 0.040391296
0.0048560295 0.075754061 0.039391398
0.0058259652 0.075737551 0.038956404
0.0068025575 0.075799927 0.038908839
0.007812296 0.076169886 0.038446248
0.0087695364 0.07600265 0.036641687
0.0098666232 0.076959662 0.034926534
-0.02071528 0.077928908 0.034272581
-0.019488683 0.0769803 0.036057144
-0.018617464 0.077409454 0.038233191
-0.017541666 0.076988421 0.038951963
-0.016537372 0.076850139 0.039813817
-0.015616815 0.077108018 0.039785773
-0.014639439 0.077101044 0.039731145
-0.013646252 0.077003844 0.039233178
-0.012541967 0.076216571 0.038984716
-0.011573047 0.076189227 0.038855404
-0.010759335 0.077271588 0.037750036
-0.0039280765 0.077579513 0.03661111
-0.0028944362 0.076220155 0.038398296
-0.0019412582 0.076679699 0.039500266
-0.00097237265 0.076817438 0.039901853
0 0.077006705 0.039903015
0.0009729708 0.07686469 0.039557666
0.0019408993 0.076665521 0.039796442
0.0029378645 0.077363767 0.039796442
0.0038720875 0.076473728 0.039980799
0.0049057757 0.077511258 0.038680375
0.0058476184 0.076993637 0.039032429
0.0068571237 0.077387542 0.038510978
0.0078200912 0.077223405 0.037755817
0.0088063022 0.077299766 0.034449637
-0.019766049 0.079064198 0.034066945
-0.018712988 0.078791529 0.036386162
-0.017576305 0.078116916 0.038683683
-0.016627993 0.07824938 0.039797038
-0.015565392 0.077826954 0.039926291
-0.014578677 0.07775294 0.039781153
-0.013637229 0.077927016 0.039876401
-0.012578709 0.077407442 0.040776908
-0.011673666 0.077824436 0.040484786
-0.01074565 0.078150176 0.040147573
-0.0095733311 0.076586649 0.039776713
-0.0087574432 0.077843934 0.039507061
-0.0077584884 0.077584885 0.039503187
-0.0067349998 0.076971419 0.038271844
-0.0058319108 0.077758804 0.038604349
-0.0048278007 0.077244811 0.039276779
-0.003895588 0.077911757 0.039556265
-0.0029154744 0.077745982 0.039914161
-0.0019530061 0.078120247 0.040454328
-0.00097376155 0.077900916 0.040385306
0 0.077901147 0.040463597
0.00097400072 0.077920049 0.04020527
0.0019551585 0.078206345 0.039796442
0.0029014836 0.077372894 0.03951019
0.0038487136 0.076974273 0.039114356
0.0048481287 0.077570058 0.038617641
0.0058867931 0.07849057 0.038006604
0.0068203695 0.07794708 0.037026644
0.0078082257 0.078082256 0.035542995
-0.017631233 0.07934054 0.037906021
-0.016658543 0.079373047 0.038980097
-0.015597053 0.078960076 0.039613128
-0.014443533 0.077995077 0.038888007
-0.013434141 0.077726096 0.040581644
-0.012505853 0.077921078 0.041377991
-0.0116243 0.078464016 0.041104645
-0.010636629 0.078324266 0.040950596
-0.0097347954 0.078851841 0.041393846
-0.008708043 0.078372382 0.041036814
-0.0077451798 0.078419939 0.040444821
-0.0068789776 0.079599597 0.039857298
-0.0058620772 0.079138041 0.039546996
-0.0048876163 0.079179384 0.039850712
-0.0039006369 0.078987896 0.040387869
-0.0029110173 0.078597464 0.040940762
-0.0019429782 0.078690618 0.040460438
-0.00097000389 0.078570314 0.040784419
0 0.078919083 0.040359676
0.00096647791 0.078284703 0.039778292
0.0019195516 0.077741839 0.039398432
0.0028656586 0.077372782 0.03828454
0.0038401599 0.077763237 0.036111027
0.0048664021 0.078835711 0.035539657
0.0058341115 0.078760497 0.035530478
-0.016557069 0.079863511 0.038152397
-0.015639098 0.080150388 0.038935035
-0.01462541 0.07995224 0.038805544
-0.013557961 0.079410918 0.039675951
-0.012445415 0.07850185 0.041400969
-0.011636533 0.079516314 0.041095108
-0.010676095 0.079585448 0.041040063
-0.009632105 0.07898327 0.041450471
-0.0086855125 0.079134673 0.041698605
-0.007746649 0.079403155 0.041036814
-0.0067184204 0.078701504 0.04104799
-0.0058409353 0.079826124 0.040190458
-0.0048732809 0.079921812 0.040251225
-0.0038774656 0.079488046 0.040641576
-0.0028735758 0.078544408 0.040641576
-0.0019447758 0.079735816 0.039904892
-0.00096636364 0.079241827 0.039837658
0 0.079197973 0.039741993
0.00097245647 0.079741433 0.039542794
0.0019139539 0.078472115 0.038122594
-0.015627559 0.081067972 0.037365645
-0.014682624 0.08124385 0.037751645
-0.013522862 0.080171257 0.03875789
-0.01250288 0.079826079 0.04041332
-0.011539118 0.079812236 0.040655673
-0.010597291 0.079961389 0.041270107
-0.0096756918 0.080308244 0.041393846
-0.0087016337 0.080248408 0.041698605
-0.0077232406 0.080128625 0.041393846
-0.0067873904 0.080479063 0.041378677
-0.0058609713 0.081076778 0.039734244
-0.0048869904 0.081124045 0.039734244
-0.0038996683 0.080918118 0.040038824
-0.0028895279 0.079943612 0.040038824
-0.0019367693 0.080375932 0.039634496
-0.00097836391 0.081204206 0.037970126
-0.01467082 0.082156591 0.036920726
-0.013597935 0.081587613 0.037976891
-0.012740101 0.082320653 0.039785355
-0.011708005 0.081956036 0.040046066
-0.010639242 0.081245124 0.041040063
-0.0097012809 0.081490763 0.041330844
-0.0087568853 0.081730939 0.041635603
-0.0078086359 0.081990682 0.041450471
-0.0067084022 0.080500826 0.040401816
-0.0057982551 0.081175573 0.040712595
-0.0048314417 0.081168219 0.040712595
-0.003887455 0.081636555 0.039976031
-0.012660046 0.082777224 0.036817789
-0.011641282 0.082459085 0.039527237
-0.010670596 0.082454607 0.040159315
-0.0097810505 0.083138928 0.040731639
-0.0087057715 0.08222118 0.040863693
-0.0078218654 0.083107322 0.039116234
-0.0067304764 0.081727214 0.03901726
-0.0058679637 0.083129488 0.039586157
-0.010806739 0.084489055 0.037421256
-0.0096455412 0.082951657 0.038834125
-0.0086938171 0.083074257 0.038454771
-0.0078102415 0.083960094 0.038306028
0 0 0 1 0 0 0 1 0 0 0 1 0 0 0 0 0 856 1 0 0
