ply
format ascii 1.0
comment PCL generated
element vertex 1161
property float x
property float y
property float z
element camera 1
property float view_px
property float view_py
property float view_pz
property float x_axisx
property float x_axisy
property float x_axisz
property float y_axisx
property float y_axisy
property float y_axisz
property float z_axisx
property float z_axisy
property float z_axisz
property float focal
property float scalex
property float scaley
property float centerx
property float centery
property int viewportx
property int viewporty
property float k1
property float k2
end_header
-0.006692199 0.068595044 0.0079346001
-0.0057464023 0.067315005 0.011316478
-0.0050124032 0.068502851 0.014394343
-0.0042264173 0.069313243 0.014412105
-0.0033425193 0.068521649 0.01442939
-0.0024650106 0.067376956 0.014394343
-0.0016722756 0.068563297 0.013710409
-0.00084008771 0.068887196 0.007971704
-0.0083429031 0.069246106 0.012983829
-0.0074542454 0.068744712 0.014342457
-0.0066397046 0.068886936 0.017000765
-0.0058262995 0.069083266 0.017723292
-0.0050711748 0.070151255 0.017965674
-0.0042285067 0.070193209 0.01802507
-0.0033876726 0.070294209 0.018000215
-0.0025139414 0.069552384 0.018037468
-0.0016716875 0.069375031 0.017907202
-0.00082803011 0.068726502 0.017574817
0 0.069048807 0.015944988
0.00083650806 0.069430172 0.013184726
-0.010249962 0.071749732 0.0129852
-0.0090335784 0.068983696 0.017377824
-0.0082486542 0.069288693 0.018001586
-0.0075444845 0.070415191 0.0182558
-0.0066884118 0.070228323 0.018130124
-0.005815452 0.069785424 0.018353254
-0.0049705468 0.069587655 0.018462688
-0.0041497173 0.069715254 0.018910438
-0.003341822 0.070178263 0.019066721
-0.0024718689 0.069212332 0.019085646
-0.0016598719 0.069714621 0.019115955
-0.00083131588 0.069830537 0.018814951
0 0.069915958 0.018401831
0.00082266313 0.069103703 0.017794281
0.0016444762 0.069068 0.017305017
0.0025082096 0.070229866 0.015706539
-0.011880294 0.07213036 0.011374265
-0.010790798 0.070555218 0.018008113
-0.0099235633 0.070291907 0.018300533
-0.0091857631 0.070980899 0.018418729
-0.0082898038 0.070463337 0.018688977
-0.0073973835 0.069864184 0.018629909
-0.0067146108 0.071342744 0.018763572
-0.0057273549 0.069546454 0.019095004
-0.0050256448 0.071196638 0.019138932
-0.0041455328 0.070474066 0.019431144
-0.0033031558 0.070192061 0.019597232
-0.0024992477 0.070812024 0.019571185
-0.0016616572 0.070620432 0.019506127
-0.00083423575 0.070910037 0.019439548
0 0.070484392 0.019117087
0.00082469278 0.070098884 0.018889129
0.0016360107 0.069530457 0.01877445
0.002479387 0.070249297 0.018742502
0.0033286824 0.070734501 0.017900169
0.004206365 0.071508206 0.014672667
-0.013650087 0.07336922 0.011013061
-0.012478231 0.071541853 0.018471837
-0.011583965 0.07115864 0.018850327
-0.010679171 0.07064683 0.018799812
-0.0099499598 0.071308047 0.019096166
-0.009205983 0.071974054 0.019298613
-0.0081711477 0.070271872 0.019386709
-0.0074397363 0.071090817 0.019240439
-0.0066863867 0.071878657 0.019118428
-0.005769073 0.07087718 0.019240439
-0.0049783727 0.071356677 0.019286573
-0.0041693449 0.07171274 0.019499898
-0.0033334196 0.071668521 0.019637018
-0.0024954674 0.071536735 0.019744873
-0.001663312 0.071522415 0.019700259
-0.00082433101 0.070892468 0.019589067
0 0.071297698 0.019319713
0.00083154422 0.071512803 0.019139677
0.0016443554 0.070707276 0.018964976
0.0024545141 0.070362739 0.019093484
0.0032759551 0.070433035 0.018757254
0.0041404343 0.071215473 0.018444121
0.004994466 0.071587346 0.017860413
0.0060461154 0.074280843 0.0057884157
-0.013998419 0.071638964 0.01852423
-0.013234387 0.071961977 0.019412935
-0.012332466 0.071528301 0.019789517
-0.011485453 0.071373887 0.020006776
-0.010667471 0.071389996 0.019810557
-0.010112063 0.073312454 0.019917876
-0.0090662679 0.071705937 0.019857377
-0.0083295424 0.072467022 0.019640714
-0.0074085537 0.071616024 0.019640714
-0.0066200285 0.071992807 0.019468874
-0.0058440771 0.072633527 0.019511789
-0.0049532829 0.071822599 0.019499898
-0.004157362 0.072338104 0.019637018
-0.0033450446 0.072754718 0.019703597
-0.0025004349 0.072512612 0.019729018
-0.0016380246 0.071254067 0.019762903
-0.00083546439 0.072685398 0.019762903
0 0.07109423 0.019648612
0.00081639807 0.071026631 0.019659907
0.0016392163 0.071305908 0.019642115
0.0024480631 0.070993833 0.020011008
0.0032899927 0.071557343 0.019855887
0.0040951031 0.07125479 0.019756585
0.0049311202 0.071501248 0.019343734
0.0057344022 0.071270421 0.018444121
0.0065962002 0.071733676 0.017094642
0.0078176092 0.075570226 0.0054194629
-0.015606669 0.072283514 0.018872648
-0.014793316 0.072322883 0.019980133
-0.014085198 0.072911613 0.020015806
-0.013253199 0.072892591 0.020341069
-0.012486723 0.073255442 0.020614773
-0.011651114 0.073235571 0.020777136
-0.010813572 0.073199555 0.020673186
-0.009905356 0.072639272 0.020511776
-0.0091918511 0.073534809 0.020319134
-0.0083549665 0.073523708 0.020136803
-0.0074105845 0.07245905 0.020223916
-0.0066656373 0.073322006 0.019585907
-0.0058047674 0.07297422 0.019577324
-0.0049085408 0.071991928 0.019511789
-0.0041236333 0.072575949 0.019679934
-0.0033118578 0.072860867 0.019679934
-0.0024664376 0.072348833 0.019773573
-0.0016607522 0.073073097 0.019717991
-0.00083145546 0.073168077 0.019957811
0 0.072078258 0.020056874
0.00082770368 0.072837926 0.019835979
0.0016425296 0.072271302 0.019855887
0.0024960933 0.073218733 0.020085067
0.0032725558 0.071996219 0.020057023
0.0041617434 0.073246688 0.020213872
0.0050028604 0.073375285 0.0200423
0.0058301925 0.07329385 0.019794285
0.0065217884 0.071739666 0.019522905
0.0073661106 0.072024196 0.019401014
0.0082335174 0.072454952 0.016298026
-0.017383603 0.07367336 0.017964095
-0.016632734 0.07401567 0.019777298
-0.015636867 0.073246375 0.02035886
-0.014895777 0.073651344 0.020634383
-0.014125302 0.073950104 0.020858854
-0.013151064 0.073152788 0.020818561
-0.012514943 0.074255332 0.020849019
-0.011629988 0.073933497 0.020927846
-0.010636961 0.072822265 0.020804793
-0.010023649 0.074342057 0.020730764
-0.0089788837 0.072647333 0.020587504
-0.0082868962 0.073753379 0.020354658
-0.0074570212 0.073741652 0.020286471
-0.0066078529 0.07351236 0.019831806
-0.0057937931 0.073663935 0.019806474
-0.004938805 0.073258944 0.019501448
-0.0041309819 0.073531479 0.019499898
-0.0033113023 0.073676474 0.019402176
-0.002526382 0.074949332 0.019707084
-0.0016382117 0.072900422 0.019649357
-0.00082833873 0.073722146 0.019912034
0 0.073632307 0.019805789
0.00082571985 0.073489062 0.0197846
0.001645116 0.073207662 0.019628406
0.0024863854 0.073762767 0.020029068
0.0032691641 0.072738901 0.019841999
0.0041351481 0.073605634 0.020077586
0.0049677291 0.073687978 0.019777447
0.0057708812 0.073372632 0.019884706
0.0065350137 0.072702028 0.019813806
0.0073311669 0.0724971 0.019675851
0.0082113277 0.073080823 0.019345164
0.0090318974 0.073076256 0.019262224
0.010055062 0.074575044 0.015931904
-0.019156614 0.074960664 0.015299916
-0.018030813 0.073762424 0.019493222
-0.017421778 0.074664764 0.020196944
-0.016635781 0.07486102 0.020492971
-0.015594686 0.073869564 0.021057427
-0.014935999 0.074680001 0.020989299
-0.014053124 0.07439889 0.021220684
-0.013272467 0.074657626 0.021203458
-0.012420899 0.074525401 0.021130174
-0.011545561 0.074221469 0.021164209
-0.010600382 0.073387265 0.020988464
-0.0099020051 0.07426504 0.020834833
-0.0091415644 0.07479462 0.020590514
-0.0082384767 0.074146301 0.020151317
-0.0075103259 0.075103268 0.019993216
-0.0065929154 0.074170299 0.019365311
-0.0058606565 0.075351305 0.019313544
-0.0049936348 0.074904531 0.019144505
-0.0042013531 0.075624362 0.019176185
-0.0033633141 0.075674571 0.019024044
-0.0024902367 0.074707106 0.019165933
-0.0016484039 0.074178182 0.019356072
-0.00082498265 0.074248441 0.01947844
0 0.073659725 0.019570142
0.00082194875 0.073975392 0.019741029
0.0016426932 0.073921196 0.019558609
0.0024777444 0.074332342 0.019929945
0.0033166774 0.074625246 0.019854397
0.0041234288 0.074221723 0.0201253
0.0049044122 0.073566191 0.019910276
0.0057623959 0.074087948 0.020262063
0.0066243187 0.074523591 0.020017207
0.0074605462 0.074605472 0.019875556
0.0082016047 0.073814452 0.019914716
0.0090473685 0.074023925 0.019619972
0.009866327 0.07399746 0.019544929
0.01070396 0.074104339 0.019393384
0.011733672 0.075430751 0.015951365
-0.019823587 0.075164437 0.01629287
-0.019225532 0.076066241 0.01982978
-0.018386865 0.076054767 0.020608276
-0.017419914 0.075486295 0.02104193
-0.016542524 0.075268492 0.021050215
-0.015798464 0.075666331 0.021529436
-0.014850997 0.075080045 0.021646112
-0.014069815 0.075314894 0.021457374
-0.01313796 0.074722148 0.021424115
-0.01223152 0.074204564 0.021356642
-0.011573466 0.075227529 0.021205842
-0.010710568 0.074973978 0.020834208
-0.0098560331 0.074741587 0.020687878
-0.0091274977 0.075509302 0.020136803
-0.0083404426 0.075898036 0.019657105
-0.0075084278 0.075918555 0.019398898
-0.0066778241 0.075960249 0.019108206
-0.0058808085 0.076450512 0.018838137
-0.0049970131 0.075788036 0.018743187
-0.0042047412 0.076526299 0.018780857
-0.0033900426 0.077123471 0.018573731
-0.0024840811 0.075350463 0.018897921
-0.0016803368 0.076455325 0.018826574
-0.00083946233 0.076391079 0.018923819
0 0.075844847 0.019004136
0.00083310058 0.075812154 0.019100368
0.0016600029 0.075530134 0.019416243
0.0025054847 0.075999707 0.019712597
0.0032623364 0.074218154 0.019565374
0.0040436266 0.073594004 0.019822717
0.004974898 0.075452626 0.019789249
0.0057896753 0.07526578 0.020458251
0.006567494 0.074705243 0.02055636
0.0074656289 0.075485811 0.020785868
0.0082138386 0.074745931 0.02089259
0.0090235453 0.074649334 0.020853102
0.0099344812 0.075336486 0.020790964
0.010731427 0.075119987 0.020848006
0.011491938 0.074697599 0.019747853
0.012339361 0.074858792 0.018545151
-0.020712508 0.076222025 0.01727742
-0.020104723 0.077068105 0.019905925
-0.019078659 0.076314636 0.020742565
-0.018311633 0.076575927 0.02117011
-0.017214809 0.07541725 0.021249682
-0.016830325 0.077419505 0.021251231
-0.015759448 0.076308906 0.021569043
-0.014871798 0.076011419 0.021515429
-0.014100539 0.076308802 0.021345884
-0.013107081 0.075365722 0.021277547
-0.012497458 0.076651074 0.02100575
-0.011439141 0.0751715 0.02094093
-0.010677732 0.075565487 0.020610511
-0.009950472 0.076286957 0.020020723
-0.0093015824 0.077795058 0.019456983
-0.0082426472 0.075832359 0.019253582
-0.0075653046 0.077334233 0.018783182
-0.0067787641 0.07795579 0.018474907
-0.0057952646 0.076166339 0.018031389
-0.0050345846 0.077196971 0.017916411
-0.0041849283 0.077002689 0.017916024
-0.0033325828 0.076649405 0.017514259
-0.0025133938 0.077077411 0.017669827
-0.0016649244 0.07658653 0.01769799
-0.00083419296 0.076745756 0.017836928
0 0.077456698 0.018380851
0.00083954108 0.077237777 0.018541723
0.0016476916 0.075793818 0.018900007
0.0025126808 0.077055544 0.019498497
0.0033050112 0.076015256 0.01946038
0.0041216463 0.075838298 0.019798189
0.004905886 0.075223587 0.019791752
0.0057449397 0.075504921 0.020245641
0.0065358845 0.075162672 0.020740956
0.0075428481 0.077104673 0.02108112
0.0081885867 0.075335003 0.021106929
0.009073535 0.075887747 0.021190792
0.0098428419 0.07546179 0.021176457
0.010591253 0.074953482 0.021176457
0.011538915 0.075827159 0.020879328
0.012378986 0.075924449 0.020508051
0.013099481 0.075322025 0.018929541
0.014029885 0.075926438 0.0058009326
-0.021689346 0.077581123 0.017774254
-0.020757504 0.077217914 0.019930214
-0.019783523 0.076661155 0.020798326
-0.018972756 0.076715924 0.021245599
-0.018060239 0.076345555 0.021453679
-0.017287599 0.076559365 0.021482289
-0.01642485 0.076375552 0.021427363
-0.015730532 0.076996811 0.02150017
-0.014819865 0.076569304 0.021399826
-0.014042377 0.076820061 0.021224499
-0.013216695 0.076822042 0.020959258
-0.012456779 0.077232033 0.020554066
-0.011570818 0.076863296 0.020519823
-0.010663389 0.076284252 0.019945472
-0.01011243 0.078371339 0.019442886
-0.0090888059 0.076841719 0.018956721
-0.0082951263 0.077144682 0.018538237
-0.0075018392 0.077519007 0.018129677
-0.0066923886 0.077799022 0.017256498
-0.0058523603 0.077752784 0.016471982
-0.005027547 0.077926986 0.016469926
-0.0042087631 0.078282997 0.01643607
-0.0033908559 0.078837402 0.016345441
-0.0025148655 0.077960834 0.016460001
-0.0016768395 0.077973038 0.016417503
-0.00083403231 0.077565007 0.016593307
0 0.077167548 0.017016083
0.00083569525 0.077719659 0.018089354
0.0016640112 0.077376515 0.018334776
0.0025211014 0.078154147 0.018946052
0.0033127004 0.077020288 0.019106328
0.0041413591 0.07702928 0.019331276
0.0049769511 0.077142745 0.019290864
0.0058033098 0.077101119 0.019777447
0.0065931054 0.076644853 0.020161808
0.0074216798 0.076690696 0.020828128
0.0081965653 0.07622806 0.021011204
0.0089177005 0.075395107 0.021258354
0.0098153614 0.076069057 0.021366596
0.01078609 0.077162035 0.021346062
0.011378027 0.075582616 0.021290511
0.012293859 0.076221928 0.02124086
0.013146429 0.076413624 0.020433843
0.014012112 0.076654501 0.018793464
-0.022784274 0.079323031 0.016167521
-0.021520274 0.077804074 0.020020783
-0.020790486 0.078172222 0.02085039
-0.019771181 0.077437125 0.021013379
-0.018963641 0.077503577 0.02146259
-0.018215872 0.077831455 0.021550506
-0.017398803 0.077880353 0.021588743
-0.016489292 0.077499673 0.021406591
-0.015619313 0.077274501 0.021489799
-0.014813806 0.077360988 0.021374971
-0.013905559 0.07688956 0.021161139
-0.013343197 0.078391284 0.020789087
-0.012538867 0.0785769 0.020500064
-0.011572722 0.077702567 0.020100683
-0.010834111 0.078338958 0.019815981
-0.0098419692 0.077095427 0.018805087
-0.0092730615 0.079242527 0.0185121
-0.0084246444 0.079191662 0.017534941
-0.0075233215 0.078576915 0.016300052
-0.0067784167 0.079646394 0.015760154
-0.0058939871 0.079147823 0.015695125
-0.0049823853 0.078057371 0.015737593
-0.0042007933 0.078974918 0.015746802
-0.0033680846 0.079149984 0.015767217
-0.0024933508 0.078124993 0.015690088
-0.0016907501 0.079465255 0.015764296
-0.00084122753 0.079075389 0.01575473
0 0.080057658 0.015733242
0.00084152428 0.079103284 0.015845776
0.0016592904 0.07798665 0.017174065
0.0025312798 0.079313435 0.018109679
0.0033182257 0.077978306 0.018740594
0.0041530132 0.078076653 0.019193321
0.0049699214 0.077862106 0.019178808
0.0058067427 0.077976257 0.019621283
0.0065913536 0.077448405 0.020161808
0.0075233215 0.078576915 0.020916939
0.0081522698 0.076631337 0.021099716
0.008885351 0.075929359 0.021490008
0.0099010663 0.077558354 0.021623433
0.010632808 0.076883383 0.021639645
0.011517076 0.077328935 0.021592945
0.012479252 0.078203313 0.021547616
0.012929427 0.075960375 0.021061122
0.013980168 0.077302106 0.020207375
0.014819143 0.07738886 0.01823163
-0.023234956 0.078832887 0.01522392
-0.022268111 0.078350753 0.019613177
-0.021668384 0.079172939 0.020723403
-0.020610137 0.078318514 0.021318614
-0.019615177 0.077643409 0.021637589
-0.019027997 0.078593902 0.022030532
-0.018166617 0.078446753 0.022047639
-0.01721864 0.077893846 0.022037357
-0.016650746 0.079091042 0.02175948
-0.015517142 0.077585705 0.021810114
-0.014826874 0.078252949 0.021510094
-0.014014684 0.078317352 0.021087587
-0.013131821 0.077970184 0.020590425
-0.012558544 0.079537444 0.02035147
-0.01183022 0.080276497 0.019712538
-0.010694703 0.078153595 0.018924206
-0.010147439 0.080333896 0.018134505
-0.0092515694 0.079899922 0.017145425
-0.0082781911 0.078642815 0.015945286
-0.0075810375 0.080022067 0.01541853
-0.0067589683 0.08026275 0.014365584
-0.0059421789 0.080643855 0.014042437
-0.0050507821 0.079970717 0.013625205
-0.0042868326 0.081449829 0.01360786
-0.0033870824 0.080443203 0.013561338
-0.0025885948 0.081972167 0.013427794
-0.0016911099 0.080327719 0.013998926
-0.00084016379 0.079815559 0.014759958
0 0.079759441 0.01498118
0.00083915528 0.079719752 0.014974087
0.0016856521 0.080068469 0.015509099
0.0025088633 0.079447344 0.016730964
0.0033436583 0.079411887 0.017342657
0.0040798024 0.077516243 0.01842165
0.0050358339 0.079734035 0.018831104
0.0058433572 0.079302706 0.019232959
0.0066336966 0.078775145 0.01973033
0.0073803281 0.077903464 0.020672977
0.0083244508 0.079082288 0.021005005
0.0089019118 0.07688015 0.021519929
0.0098713385 0.078148097 0.021704704
0.010728619 0.078401446 0.021679699
0.01160527 0.078750052 0.021741629
0.012339778 0.078151926 0.021886289
0.01312044 0.077902608 0.021348029
0.014067083 0.078610167 0.021058321
0.014695654 0.077560395 0.019982576
0.015717566 0.07858783 0.014863551
-0.023493538 0.080549277 0.018361658
-0.02242652 0.079738736 0.020520806
-0.021359267 0.078864984 0.0212394
-0.020580787 0.079030223 0.02165848
-0.019884 0.079535998 0.022175819
-0.018977804 0.079211704 0.022291303
-0.018367404 0.080148675 0.022356927
-0.017333295 0.079237923 0.022145778
-0.016489759 0.079150848 0.021953702
-0.015644567 0.079046234 0.021692485
-0.014757745 0.078707971 0.021356285
-0.014162887 0.079978652 0.020770907
-0.013313062 0.079878375 0.020385295
-0.012483026 0.079891361 0.019527048
-0.011574669 0.079369158 0.018855989
-0.010852767 0.080143511 0.018169045
-0.0099930754 0.079944603 0.016226619
-0.009323284 0.081366844 0.01512149
-0.0084993551 0.081593812 0.014275193
-0.0076007666 0.081074849 0.013491243
-0.006895056 0.082740672 0.012728393
-0.0061151935 0.083865508 0.0078092813
-0.0052048014 0.083276823 0.007353574
-0.0044056559 0.084588595 0.0055938661
-0.0035246187 0.084590845 0.005721122
-0.0025851768 0.082725659 0.007353574
-0.001736165 0.083335921 0.0075650513
-0.00086933532 0.083456188 0.0098584294
0 0.082090355 0.011163533
0.00085433456 0.082016118 0.012705922
0.0016656085 0.079949208 0.014490217
0.0024964192 0.079885416 0.015173197
0.0033441426 0.08025942 0.015907526
0.004197557 0.080593094 0.017332584
0.0049849702 0.079759523 0.018255502
0.0057624574 0.079027988 0.019003391
0.0066527165 0.079832599 0.019319117
0.0074103079 0.079043284 0.019866645
0.0082456609 0.079158343 0.020785064
0.0091387741 0.07975658 0.02134797
0.0097825602 0.078260481 0.021721363
0.010597763 0.078260399 0.021725476
0.011534018 0.079090409 0.021962255
0.012291937 0.078668393 0.022014201
0.01294336 0.077660158 0.021611571
0.013971536 0.078898087 0.021169931
0.014748149 0.078656793 0.020380616
0.015555665 0.078597039 0.019092947
0.016406849 0.078752883 0.0054503679
-0.024124442 0.08069209 0.01503697
-0.023240181 0.080510624 0.020110488
-0.022279687 0.080041833 0.021178126
-0.021545501 0.080381289 0.021778941
-0.020580934 0.079854019 0.022331059
-0.019919561 0.080508225 0.022577971
-0.018788759 0.07923954 0.022678852
-0.018109623 0.079846978 0.022687078
-0.017089799 0.078938589 0.022540748
-0.016558517 0.080308802 0.022024244
-0.015867362 0.081007056 0.021780223
-0.014916656 0.080384202 0.021317422
-0.014142752 0.080696873 0.020556688
-0.013342436 0.080888517 0.01977998
-0.012466152 0.080614448 0.019074112
-0.011729761 0.081270486 0.018279225
-0.010848131 0.080943748 0.015940875
-0.010153713 0.082075842 0.015111744
-0.0093205823 0.082190588 0.013255805
-0.008716668 0.084551677 0.010221958
-0.0079056919 0.085205793 0.0054426789
0.00086706231 0.084105045 0.0067245662
0.0017136062 0.0831099 0.010536939
0.0025465502 0.08233846 0.012956887
0.0033678357 0.081670016 0.014844894
0.0041465773 0.080443598 0.015580237
0.0050820289 0.082159467 0.01717627
0.0058164103 0.080598824 0.018669039
0.0066204895 0.080273435 0.019113421
0.00752339 0.081085429 0.019562989
0.0082717706 0.080236174 0.020736516
0.0090071587 0.079426765 0.021304518
0.0098793451 0.079858042 0.021708161
0.010627919 0.079300627 0.021962255
0.011439565 0.079259843 0.022110701
0.01225474 0.079247318 0.022498935
0.013027896 0.078981616 0.022013545
0.013742154 0.07841111 0.021450609
0.014880423 0.080188952 0.020814747
0.015607554 0.079680666 0.019870281
0.016357275 0.079332784 0.011810273
-0.024108926 0.081471533 0.016085327
-0.023000218 0.080500759 0.02059868
-0.022150449 0.080397919 0.02148509
-0.02148091 0.080966502 0.022365153
-0.020477515 0.080271855 0.022625238
-0.019779017 0.080764323 0.022777736
-0.019041831 0.081134759 0.022667497
-0.017884562 0.079667591 0.022655487
-0.017086208 0.079735637 0.022581577
-0.016681522 0.081739455 0.022061467
-0.015818914 0.081592284 0.021647751
-0.014962411 0.081462011 0.021014363
-0.014207062 0.081899531 0.019985199
-0.013136881 0.080463395 0.019201338
-0.012533566 0.081885956 0.01846993
-0.011609498 0.081266485 0.016964316
-0.010948863 0.082537584 0.014853358
-0.01038728 0.08482945 0.012728393
-0.0098036509 0.087341614 0.0050228238
0.0026113559 0.08530429 0.0089608133
0.0033992999 0.083282843 0.011987209
0.0042620408 0.083535999 0.014569581
0.0049600797 0.081014633 0.016433626
0.0058400095 0.081760131 0.018063754
0.0066408422 0.081350312 0.018697768
0.0074929553 0.08158996 0.019230187
0.0083055012 0.081393912 0.019473404
0.0091400445 0.081429489 0.021110177
0.0097820302 0.079886578 0.021625996
0.01057718 0.079735667 0.021837085
0.01151586 0.08061102 0.022260338
0.012220182 0.079838522 0.022508889
0.013057344 0.079976223 0.022151381
0.01391433 0.080212019 0.021338463
0.014806918 0.080615446 0.021067351
0.01572112 0.08108788 0.020313084
0.016402313 0.080371335 0.01784727
-0.024144659 0.082424864 0.019287616
-0.02305638 0.081520773 0.021115988
-0.022226956 0.081498839 0.021663547
-0.021403987 0.0814998 0.022523284
-0.020574978 0.081476912 0.022727966
-0.019927831 0.082202315 0.02295956
-0.018965576 0.081634432 0.022878677
-0.017889818 0.080504186 0.022895575
-0.017297283 0.08154434 0.022631824
-0.016587915 0.082110181 0.022119969
-0.015782794 0.082236663 0.021291047
-0.014918619 0.08205241 0.020684749
-0.013948496 0.081229478 0.019357204
-0.013199297 0.081670657 0.018565387
-0.012613254 0.083247475 0.01712054
-0.011938182 0.084420003 0.014643848
-0.011210927 0.085375525 0.01067102
0.0035268287 0.087289013 0.0081698596
0.0042586802 0.084321871 0.011351079
0.0050463323 0.083264485 0.014407456
0.0058076228 0.082136385 0.016547948
0.006713686 0.083081864 0.018524796
0.0073975376 0.081372917 0.019025326
0.0083018681 0.082188495 0.019486219
0.0090501336 0.081451207 0.020975083
0.0097990772 0.080842391 0.021643549
0.010678721 0.081322573 0.021802217
0.011475231 0.081146277 0.022515327
0.012311586 0.081256472 0.022761643
0.013146303 0.081342749 0.02237469
0.013892195 0.080901608 0.021645188
0.014652519 0.080588862 0.021104574
0.015770437 0.082172275 0.020710558
0.016220188 0.08028993 0.018389672
-0.023887593 0.082371011 0.019863069
-0.023115655 0.082555912 0.021094054
-0.02211359 0.081902184 0.022351801
-0.021204239 0.08155477 0.022791207
-0.020455215 0.081820861 0.022908837
-0.019709276 0.082121983 0.023049325
-0.018788774 0.081690319 0.023001283
-0.018086003 0.08220911 0.022810847
-0.017149469 0.081664145 0.022598416
-0.016532138 0.082660697 0.021901876
-0.015693856 0.082599245 0.021014363
-0.014868414 0.082602307 0.019694507
-0.014066945 0.082746737 0.019025832
-0.013416674 0.083854213 0.017519712
-0.012828451 0.085523009 0.014781773
-0.012269726 0.087640904 0.010446876
0.0043697562 0.087395124 0.0081083775
0.0051700752 0.086167924 0.011595637
0.0059305015 0.084721453 0.015057445
0.0066454085 0.083067603 0.017114788
0.0075470335 0.083855934 0.018609583
0.008282817 0.082828172 0.019118696
0.0089667821 0.081516206 0.020527005
0.010040982 0.083674848 0.021590978
0.010529509 0.08099623 0.021888822
0.011427962 0.081628308 0.022579253
0.012426757 0.082845055 0.023014933
0.012982566 0.08114104 0.022773653
0.013753453 0.080902666 0.022129536
0.014791822 0.082176797 0.021566331
0.015423272 0.081175119 0.021032482
0.016425785 0.082128927 0.018767178
0.018108491 0.086230911 0.0051030219
-0.023897497 0.083229214 0.019971609
-0.023192901 0.083660103 0.021230578
-0.022105362 0.082690425 0.022800624
-0.021191765 0.082321852 0.022938877
-0.020595131 0.083204336 0.022985876
-0.019774163 0.083216272 0.023125559
-0.01883609 0.082715005 0.023031056
-0.018084442 0.083024032 0.022993863
-0.017293116 0.083171658 0.022710294
-0.016648766 0.084076263 0.021890789
-0.015779985 0.083883077 0.020695418
-0.014756524 0.0828005 0.01946637
-0.014141998 0.084020108 0.018379152
-0.013443734 0.084863566 0.016545832
-0.013111562 0.088284522 0.011695653
0.0053078313 0.089348495 0.0077989399
0.005964654 0.08606144 0.011963516
0.0067474078 0.085186027 0.015320092
0.0074686371 0.08381471 0.01821503
0.0083228461 0.084060751 0.019049048
0.0091142617 0.083685495 0.020327985
0.0099407407 0.083667897 0.021519661
0.010692296 0.083070919 0.021926194
0.011347598 0.081864819 0.023011208
0.012382207 0.083373532 0.023329109
0.012771688 0.080621287 0.023152828
0.014042585 0.083429478 0.022557557
0.014446083 0.081058584 0.021984905
0.015581374 0.082827307 0.021473229
0.016254306 0.082084253 0.019324392
0.018223053 0.087644204 0.0056657195
-0.024030324 0.084520444 0.020287126
-0.022720283 0.082766749 0.022061199
-0.022103392 0.083501704 0.022811353
-0.021173054 0.08306352 0.02298072
-0.020329308 0.082943574 0.023315042
-0.01994787 0.084778443 0.023412675
-0.018853394 0.083610706 0.023351789
-0.017912744 0.083049998 0.022988588
-0.017337363 0.084210053 0.022763789
-0.016722672 0.085285626 0.021643311
-0.015693225 0.084247835 0.020601392
-0.014767936 0.083684981 0.019125909
-0.014329287 0.085975721 0.017425388
-0.013909005 0.088669904 0.012873262
0.006118658 0.089157589 0.0098663568
0.0068435781 0.087255619 0.013960242
0.0075588208 0.085666642 0.01763761
0.00828363 0.084493034 0.018638074
0.0089795431 0.083264858 0.019675553
0.0098235542 0.083500206 0.02148959
0.0106153 0.083289281 0.022602975
0.011455759 0.083463393 0.02319482
0.012252614 0.083317772 0.023515642
0.012988917 0.082804345 0.023223549
0.013537453 0.081224717 0.022795677
0.014635122 0.08293236 0.022353113
0.015527253 0.083356827 0.021728247
0.016164383 0.082438357 0.019296318
0.018157702 0.088194549 0.0067409277
-0.02402108 0.085316241 0.020964652
-0.023038259 0.084747881 0.0225676
-0.021939026 0.083693318 0.02298072
-0.021240059 0.084143311 0.023569167
-0.020381968 0.083973706 0.023700297
-0.019682674 0.084471479 0.023884118
-0.018778367 0.084094428 0.023890465
-0.017982438 0.08419051 0.023632795
-0.017378986 0.085239783 0.022916526
-0.016494418 0.084946245 0.02183032
-0.015822787 0.085776158 0.020847708
-0.014944905 0.085518077 0.018828213
-0.014600524 0.088461995 0.015710205
-0.014074368 0.090603746 0.0050845146
0.0069003943 0.088842578 0.010616392
0.0076276017 0.08729367 0.014847457
0.0082863299 0.085349195 0.018427521
0.0089864871 0.084146202 0.019233704
0.0099069001 0.085034221 0.021533728
0.010678748 0.08460854 0.0226385
0.011402614 0.083890662 0.023504138
0.012188611 0.083695121 0.023966253
0.012934863 0.08326818 0.023587853
0.01418629 0.085952222 0.023176283
0.014545639 0.083233386 0.022467107
0.015589669 0.08451242 0.021854043
0.016351685 0.084211186 0.019545943
0.018081179 0.088683881 0.0067409277
-0.023948545 0.08588443 0.020957679
-0.023190869 0.086137511 0.022613227
-0.021851055 0.084167026 0.023047984
-0.021319114 0.085276455 0.023692429
-0.020394694 0.084841922 0.023812473
-0.019645333 0.085129775 0.024217933
-0.018768376 0.084865697 0.024143666
-0.018007871 0.085128121 0.02377212
-0.017160548 0.084985569 0.022907048
-0.016459689 0.085590377 0.021924406
-0.015651925 0.08567369 0.021052301
-0.015073827 0.087093227 0.018767536
-0.014845292 0.090818256 0.010712624
0.0070028906 0.091037579 0.0059284866
0.0076314774 0.088185966 0.014058232
0.0082925195 0.086242199 0.018496156
0.0090647554 0.085703142 0.019488841
0.0097791478 0.084752619 0.02169165
0.010646211 0.085169688 0.023082614
0.011506357 0.085475795 0.023814768
0.012275886 0.08511281 0.024009287
0.012880803 0.083725214 0.023641795
0.01373365 0.084017619 0.023424774
0.014511371 0.083843485 0.022712111
0.015489515 0.084784716 0.022606701
0.016183827 0.084155902 0.020941585
0.017984848 0.089067817 0.0067385435
-0.023881089 0.086466007 0.020948559
-0.022853829 0.08570186 0.022651285
-0.021861592 0.085017294 0.023678064
-0.021174522 0.085512489 0.024250209
-0.020316048 0.085327394 0.024321228
-0.019805763 0.086650208 0.024759859
-0.018809762 0.085870646 0.02458182
-0.018087592 0.086327143 0.024192661
-0.017336864 0.086684316 0.023318261
-0.016369535 0.085940056 0.022356719
-0.015899839 0.087867528 0.021049261
-0.015286295 0.089170054 0.016904831
0.0076034656 0.088707104 0.011437714
0.0084136287 0.088343106 0.015832365
0.0091344472 0.087192453 0.019313127
0.0097852014 0.085620515 0.02127558
0.010767687 0.086969785 0.023350447
0.011326038 0.084945284 0.024037898
0.012036764 0.084257349 0.024217427
0.012967235 0.085097484 0.024036199
0.013767345 0.085033596 0.023800731
0.014688121 0.085680708 0.02303353
0.015514768 0.085739501 0.022740811
0.01601726 0.084090613 0.021188468
0.018232403 0.091162018 0.0067614913
-0.023735151 0.086756065 0.020882219
-0.022801938 0.086321622 0.022866458
-0.02201492 0.08642894 0.023701191
-0.021340471 0.087003455 0.024359912
-0.020363877 0.086342826 0.02458778
-0.019571878 0.086442463 0.024800539
-0.018804973 0.08666639 0.024676889
-0.018114028 0.087276675 0.024228245
-0.017160559 0.086619958 0.023645371
-0.016325325 0.086524218 0.022364765
-0.015924741 0.088843286 0.020747155
-0.01529491 0.090070032 0.016328543
0.0078809252 0.092819788 0.0085484982
0.0084078573 0.089123286 0.015324235
0.00898105 0.086544663 0.019344419
0.0098703792 0.087188348 0.021472991
0.010716639 0.087381817 0.023233652
0.01130422 0.085589096 0.02370441
0.012268794 0.086699478 0.024222016
0.012952658 0.085811362 0.024095297
0.013852982 0.086377412 0.023913234
0.014517976 0.085494749 0.023024142
0.015535431 0.086671352 0.023083389
0.016282935 0.086299561 0.021555096
0.017999919 0.090856738 0.006747216
0.018846927 0.090807922 0.0051460564
-0.023894286 0.088161677 0.02113694
-0.023288086 0.088993758 0.023118407
-0.021974318 0.087083407 0.0241386
-0.021345602 0.087845363 0.024674237
-0.020332159 0.087021641 0.024891555
-0.019586572 0.087323472 0.025182545
-0.018816318 0.087536789 0.025372416
-0.0179074 0.087095082 0.024826407
-0.017212927 0.087703966 0.023971885
-0.016470531 0.088117346 0.022476107
-0.015719214 0.088523999 0.021260202
-0.01560109 0.09273982 0.014426559
0.0078336289 0.093133152 0.0059181452
0.0084150024 0.090040527 0.014277846
0.009139346 0.088900916 0.020530552
0.0097985407 0.087370329 0.021983951
0.010630386 0.087496258 0.023473233
0.01141012 0.087205917 0.023895055
0.012170233 0.086814329 0.024361491
0.013022789 0.087089904 0.024348885
0.013758345 0.086596638 0.024276674
0.014482489 0.086090356 0.023645341
0.015444184 0.086975142 0.023615003
0.016399926 0.087739609 0.022385806
0.017891167 0.091159754 0.0072141886
0.018969834 0.09226238 0.0054377019
-0.023887906 0.088961862 0.021941692
-0.022739088 0.087707914 0.02321744
-0.022217553 0.088870212 0.024528235
-0.021342978 0.088655449 0.024859309
-0.020395858 0.088110104 0.02502045
-0.019668845 0.088509806 0.025406212
-0.018895144 0.088725023 0.02554509
-0.017847069 0.08761289 0.025023192
-0.01721699 0.088544518 0.024360389
-0.016461413 0.088891633 0.023528516
-0.015495981 0.088082425 0.021458864
-0.015834818 0.09500891 0.011681944
0.0078319032 0.093982846 0.0054985881
0.0085662771 0.092515796 0.013859242
0.0090663042 0.089014627 0.020525813
0.0097048497 0.087343656 0.022541165
0.010667332 0.088620923 0.023696005
0.0112819 0.087031804 0.024133593
0.012153794 0.087507315 0.024941474
0.013048527 0.088077553 0.024910748
0.013582755 0.086290441 0.02440691
0.014367572 0.086205438 0.02399686
0.015420004 0.087650552 0.0238415
0.016074514 0.086802386 0.022280008
0.018047899 0.092817768 0.0076204836
0.018877802 0.092672855 0.0055177808
-0.023893321 0.089805923 0.022367746
-0.0227741 0.088656321 0.023459226
-0.021742329 0.087774582 0.024826407
-0.021375353 0.089612052 0.025471658
-0.020186299 0.088012271 0.025580823
-0.019473225 0.088440895 0.025797129
-0.018625204 0.088267267 0.026009917
-0.018117586 0.089764401 0.025552243
-0.017123476 0.088878997 0.024752527
-0.01651803 0.090023264 0.023989737
-0.015457187 0.088675439 0.022214085
-0.015697883 0.09505941 0.016315371
0.0078708958 0.095325299 0.0054986477
0.0085473433 0.093166046 0.013915241
0.0091013387 0.090185992 0.020655215
0.0097721163 0.088763401 0.02293089
0.01070494 0.089756809 0.023912728
0.011269022 0.087737389 0.024525434
0.012086162 0.08782611 0.025673538
0.012918023 0.088004038 0.025635988
0.013899956 0.089123249 0.025134534
0.014423053 0.087339602 0.02428627
0.015443787 0.088598572 0.023967028
0.016203064 0.08830671 0.022299796
0.018222844 0.09458524 0.0079930723
0.018686265 0.09258195 0.0058910847
-0.023988741 0.090991773 0.022402614
-0.022281712 0.087535299 0.023990661
-0.021970911 0.089511119 0.025460809
-0.020936148 0.088576019 0.025767595
-0.020285003 0.089254014 0.026092529
-0.019607373 0.08986713 0.026303619
-0.018644439 0.089169055 0.026389033
-0.017783178 0.088915899 0.026031226
-0.017096577 0.089553498 0.025446206
-0.016433548 0.090384513 0.024752527
-0.015410542 0.089218929 0.022910118
-0.015509231 0.094778642 0.016863853
0.0079320138 0.096946843 0.0056779385
0.0084402245 0.092842475 0.014936924
0.0092080403 0.092080414 0.021131784
0.0097123059 0.089029469 0.023590058
0.010624032 0.089895658 0.024510324
0.011279956 0.088628218 0.02551192
0.012280302 0.090055548 0.025992692
0.012753774 0.087682202 0.025855362
0.013781274 0.089172952 0.025372744
0.014484727 0.088517785 0.02476424
0.015428398 0.089322306 0.02428627
0.016218616 0.089202389 0.022677094
0.018011518 0.094346039 0.0084610879
0.018918524 0.094592616 0.0059804022
-0.023832349 0.091220371 0.022542685
-0.022551451 0.089400396 0.024724096
-0.021796988 0.089609839 0.025727957
-0.020995958 0.089636587 0.026216805
-0.020143012 0.089434974 0.026413351
-0.019492069 0.090150826 0.026665717
-0.018569099 0.089616083 0.02669546
-0.017769223 0.089653805 0.026485622
-0.017186686 0.090843908 0.026022851
-0.016297441 0.090450808 0.025399923
-0.015479858 0.090434954 0.024095833
-0.015000585 0.092503615 0.021264106
-0.014989015 0.097869448 0.0058992207
0.0078370543 0.096657008 0.0062013268
0.0083801877 0.093020082 0.018061221
0.0089727798 0.090543509 0.022669703
0.0097948816 0.090602659 0.024021655
0.010681353 0.091202326 0.025430381
0.011393577 0.090334788 0.026024938
0.012027586 0.089004137 0.026377916
0.012871483 0.089295916 0.026271164
0.013765463 0.089880377 0.025718182
0.014449039 0.089102417 0.025092304
0.01531035 0.089444675 0.024641663
0.015879588 0.088131718 0.023205459
0.017889088 0.094556607 0.0085196495
0.018884476 0.095280774 0.0060710013
-0.023891758 0.092271611 0.022474647
-0.022645203 0.090580814 0.024712384
-0.022074053 0.091566436 0.026114196
-0.021063192 0.090733752 0.026600003
-0.020213559 0.090556741 0.02688843
-0.019365557 0.0903726 0.027011722
-0.018509937 0.090135343 0.027090937
-0.017805496 0.09064617 0.026955754
-0.017070929 0.091044948 0.026576698
-0.016247049 0.090983473 0.025802225
-0.015475444 0.091223672 0.024757475
-0.014693137 0.091423966 0.02283752
-0.014915512 0.0982669 0.0063422024
0.0079249777 0.098621942 0.0081862807
0.0082385885 0.0922722 0.020555109
0.0089740856 0.091372505 0.023786515
0.0098836375 0.092247285 0.024512261
0.010460067 0.090117499 0.026094466
0.011367325 0.090938598 0.026579916
0.012164172 0.090825811 0.0268071
0.012780562 0.089463934 0.026720464
0.013502253 0.088956021 0.026087075
0.014582264 0.090734087 0.025410533
0.01501517 0.088510476 0.024985254
0.016011279 0.089663163 0.023787856
0.017962528 0.095800146 0.0084725618
0.018650429 0.094947644 0.0060239136
-0.023854204 0.092949137 0.022787482
-0.022751829 0.091819875 0.02517581
-0.021855786 0.09147051 0.026706368
-0.020720627 0.090055026 0.026936918
-0.020220939 0.091398641 0.027211815
-0.019499201 0.091808744 0.027460515
-0.01850196 0.090900935 0.027707666
-0.017721741 0.0910253 0.027459621
-0.016969997 0.09131474 0.027185231
-0.016341992 0.092332251 0.026542008
-0.015438655 0.091819368 0.025690585
-0.01453374 0.091239601 0.024485469
-0.014778233 0.098231785 0.020654082
0.0070669372 0.099820487 0.0053721964
0.0077535016 0.097349524 0.015242189
0.0081393654 0.091974832 0.021930605
0.0088191926 0.09059716 0.02454406
0.0097652925 0.091956504 0.026290774
0.010467746 0.090988874 0.027029514
0.011394411 0.091969177 0.027312756
0.012033992 0.090656072 0.02724874
0.012819159 0.090535305 0.027141243
0.013727699 0.091248825 0.026964098
0.014409223 0.090457901 0.026335597
0.015231499 0.09058734 0.025333703
0.015948122 0.090106897 0.024549186
0.017734256 0.095427178 0.0085006654
0.018847154 0.096805833 0.0064875185
-0.023373794 0.091883183 0.022772789
-0.02284017 0.092992127 0.02604425
-0.021721425 0.091712676 0.026814342
-0.02111185 0.09256734 0.027251005
-0.02014333 0.091853581 0.027679741
-0.019472398 0.092493892 0.028054148
-0.018663576 0.092506409 0.028216392
-0.017795168 0.092211328 0.028063506
-0.016866645 0.091561779 0.027795017
-0.016384006 0.093388841 0.027098209
-0.015571009 0.093426056 0.026427031
-0.014589601 0.092400812 0.025548279
-0.014190836 0.095162071 0.023649246
-0.01419459 0.10113645 0.0069204867
0.0071575157 0.1019946 0.0079180598
0.0075663789 0.095840804 0.02043429
0.0082037896 0.093523197 0.024415046
0.0087805223 0.090998143 0.025702119
0.0096723717 0.091887526 0.026913047
0.010513457 0.092194937 0.027341336
0.011263046 0.091713376 0.027363598
0.012050717 0.09158545 0.027450144
0.013042335 0.092926636 0.027237207
0.013508537 0.090586655 0.0270513
0.014555856 0.092187092 0.026575923
0.01524601 0.09147606 0.025955141
0.016092313 0.091726184 0.024610251
0.017915737 0.097256854 0.0090792179
0.018802613 0.097431719 0.0066991746
-0.023690701 0.093945876 0.022787482
-0.022812041 0.093692303 0.02605778
-0.021817645 0.092927001 0.026933402
-0.020875923 0.092335813 0.027679443
-0.020318707 0.093466051 0.027746618
-0.019393573 0.09292753 0.028339088
-0.018542262 0.092711307 0.028417677
-0.017874844 0.093436681 0.02824378
-0.016902225 0.092559807 0.028154939
-0.016233888 0.093344852 0.027331203
-0.015527367 0.093981422 0.026610613
-0.014690627 0.093856789 0.02586624
-0.01387588 0.093866251 0.024174869
-0.014235812 0.1023199 0.011724234
-0.013373621 0.10253109 0.0051157475
0.0069845114 0.10040235 0.012135267
0.0072428938 0.092548087 0.021614611
0.0080120675 0.092138782 0.024302065
0.0089216437 0.093271725 0.02624619
0.0096666832 0.092639051 0.026964724
0.010505752 0.092935488 0.027331859
0.011135073 0.091466673 0.027504236
0.012127091 0.092974357 0.027576089
0.012720786 0.091430649 0.027391642
0.013719603 0.092809081 0.027009964
0.014525174 0.092799723 0.026782751
0.015319371 0.092722505 0.026021272
0.0160337 0.092193767 0.025040716
0.017903922 0.098045282 0.0085121393
0.018543025 0.096929453 0.0066991746
-0.02368008 0.094720319 0.022907048
-0.022757648 0.094281681 0.02600196
-0.021994099 0.094493166 0.02685377
-0.02096389 0.093531206 0.027836233
-0.020455752 0.09491469 0.02816236
-0.019410165 0.093815804 0.028441191
-0.01871689 0.09439823 0.028502941
-0.017612087 0.092863731 0.028468966
-0.016980659 0.09379793 0.028273225
-0.016124826 0.093524002 0.027679741
-0.015384772 0.093928084 0.026890397
-0.014639786 0.094345294 0.026111394
-0.013800006 0.094164751 0.024609417
-0.012819066 0.092938229 0.02309975
-0.01351484 0.10451477 0.0052236617
0.0062170806 0.10302591 0.0050142407
0.0066416645 0.096304141 0.015538484
0.0071880119 0.092645489 0.023528904
0.0080699641 0.093611591 0.025200099
0.0088107381 0.092913248 0.027090937
0.0096321516 0.0931108 0.027224988
0.010479737 0.093511499 0.02742523
0.011297283 0.093606062 0.027747571
0.012090932 0.093503207 0.027928233
0.012674874 0.091892838 0.027631551
0.013659748 0.093207695 0.027195841
0.014298568 0.09214633 0.026833653
0.015233602 0.093005158 0.026526093
0.01607452 0.093232222 0.025386482
0.017969405 0.099259578 0.0090774
0.019047918 0.10043447 0.0069708228
-0.023919923 0.096504517 0.022859752
-0.022333704 0.093322985 0.026072472
-0.022033013 0.095476389 0.026932657
-0.0209271 0.094171956 0.027923435
-0.020151444 0.094308756 0.028222471
-0.019416815 0.094656982 0.028484643
-0.018497396 0.094095446 0.028516918
-0.01766073 0.093922973 0.028534979
-0.016777815 0.093476392 0.028517634
-0.016167812 0.094581708 0.028222471
-0.015088998 0.092916466 0.027118623
-0.014696286 0.095525868 0.026563227
-0.013927945 0.095857039 0.024934053
-0.012902174 0.094347157 0.023290813
-0.012262672 0.095648848 0.0068056285
0.0058467221 0.097723782 0.0053333342
0.006512695 0.09524817 0.017531097
0.0071974085 0.093566321 0.024127126
0.008093806 0.094697528 0.025895774
0.0087893857 0.093487106 0.027254283
0.0095737465 0.093344033 0.027224094
0.010449138 0.094042249 0.027659267
0.011283981 0.094301842 0.028091937
0.011937201 0.093110166 0.027987808
0.012798313 0.093587667 0.027828336
0.01355815 0.093311973 0.027325839
0.014407918 0.093651474 0.026833653
0.015391134 0.094776981 0.026526093
0.015942169 0.093261704 0.025360018
0.017896006 0.099706322 0.0090774
0.018833311 0.10015898 0.0068213642
-0.023864919 0.097105533 0.022996157
-0.022696102 0.095647857 0.026120275
-0.021876367 0.095607825 0.026904434
-0.020738484 0.094120815 0.027862549
-0.020005062 0.09442389 0.028410256
-0.019445773 0.095608391 0.028589904
-0.018701168 0.095945127 0.028674781
-0.017683519 0.09484797 0.028792679
-0.016979935 0.095411062 0.028733671
-0.016106671 0.095029362 0.028496027
-0.015354112 0.095357113 0.027679741
-0.014334043 0.093967624 0.026876301
-0.01383212 0.096011192 0.025639087
-0.012860741 0.09484797 0.024018556
-0.012086948 0.095083989 0.0092066824
-0.011364741 0.095788538 0.0050559938
0.0056413813 0.095097572 0.0084311068
0.0064250301 0.094769195 0.023979545
0.0073004249 0.095716693 0.025280893
0.0079848515 0.094221257 0.026849449
0.0087776622 0.094160378 0.027444273
0.0095806113 0.094209351 0.027529806
0.01048312 0.095154472 0.028076798
0.011232174 0.094671182 0.028462946
0.011998402 0.094387434 0.028338641
0.012823339 0.094572127 0.027934462
0.013702979 0.095114797 0.027564079
0.014376113 0.094243415 0.026835471
0.015172064 0.094226509 0.026478976
0.016152237 0.095298201 0.02587679
0.017859412 0.10035289 0.0090774
0.018864306 0.10118128 0.0067391992
-0.02423764 0.099457897 0.022759259
-0.022775425 0.096795551 0.02604425
-0.02175761 0.09589465 0.02668649
-0.020816935 0.095277518 0.027700514
-0.020324029 0.096742377 0.028382033
-0.019302351 0.095707491 0.028603703
-0.018511314 0.095775925 0.028674781
-0.017725443 0.095878541 0.028792679
-0.016768605 0.09502209 0.0287866
-0.015861059 0.094373301 0.028550565
-0.015335918 0.096051276 0.028081775
-0.014473549 0.095686249 0.027024776
-0.013678777 0.095751442 0.026111394
-0.012630543 0.093939662 0.024430543
-0.012204889 0.096825458 0.017008454
-0.011424071 0.097104609 0.0066004395
0.0055663679 0.09462826 0.013330787
0.0065043345 0.09675198 0.024595082
0.0072097415 0.095328808 0.026498705
0.0079805879 0.094969004 0.027186722
0.0088616647 0.095867105 0.027625054
0.0096869627 0.096062385 0.027812988
0.010376508 0.094984964 0.028242201
0.01126052 0.09571442 0.028517038
0.011972724 0.094983615 0.028192401
0.012849198 0.095565908 0.027919948
0.01348321 0.094382465 0.027564079
0.014371601 0.095012255 0.026833653
0.015118498 0.094689541 0.026478976
0.016279038 0.096860282 0.025316417
0.017469747 0.098995231 0.0083822012
0.018965775 0.10258761 0.0068213642
0 0 0 1 0 0 0 1 0 0 0 1 0 0 0 0 0 1161 1 0 0
